<svg xmlns="http://www.w3.org/2000/svg" width="36" height="36" viewBox="0 0 36 36" fill="none">
  <path d="M19.3725 10.5697H16.4558V16.4031H10.6225V19.3197H16.4558V25.1531H19.3725V19.3197H25.2058V16.4031H19.3725V10.5697ZM17.9141 3.27808C9.86415 3.27808 3.33081 9.81141 3.33081 17.8614C3.33081 25.9114 9.86415 32.4448 17.9141 32.4448C25.9641 32.4448 32.4975 25.9114 32.4975 17.8614C32.4975 9.81141 25.9641 3.27808 17.9141 3.27808ZM17.9141 29.5281C11.4829 29.5281 6.24748 24.2927 6.24748 17.8614C6.24748 11.4302 11.4829 6.19474 17.9141 6.19474C24.3454 6.19474 29.5808 11.4302 29.5808 17.8614C29.5808 24.2927 24.3454 29.5281 17.9141 29.5281Z" fill="#FCFCFC"/>
</svg>