<svg width="36" height="36" viewBox="0 0 36 36" fill="none" xmlns="http://www.w3.org/2000/svg">
<path d="M19.0124 11.0026H16.0957V16.8359H10.2624V19.7526H16.0957V25.5859H19.0124V19.7526H24.8457V16.8359H19.0124V11.0026ZM17.554 3.71094C9.50404 3.71094 2.9707 10.2443 2.9707 18.2943C2.9707 26.3443 9.50404 32.8776 17.554 32.8776C25.604 32.8776 32.1374 26.3443 32.1374 18.2943C32.1374 10.2443 25.604 3.71094 17.554 3.71094ZM17.554 29.9609C11.1228 29.9609 5.88737 24.7255 5.88737 18.2943C5.88737 11.863 11.1228 6.6276 17.554 6.6276C23.9853 6.6276 29.2207 11.863 29.2207 18.2943C29.2207 24.7255 23.9853 29.9609 17.554 29.9609Z" fill="#6EE7B7"/>
</svg>
