<svg width="45" height="45" viewBox="0 0 45 45" fill="none" xmlns="http://www.w3.org/2000/svg">
<rect y="0.5" width="45" height="44" rx="16" fill="#DF3131"/>
<mask id="mask0_3407_14949" style="mask-type:alpha" maskUnits="userSpaceOnUse" x="3" y="3" width="40" height="39">
<rect x="3.375" y="3.25" width="39.375" height="38.5" fill="#D9D9D9"/>
</mask>
<g mask="url(#mask0_3407_14949)">
<path d="M9.53459 10.7992C9.48517 10.9036 9.4804 11.0229 9.52136 11.1308C9.56231 11.2386 9.64562 11.3263 9.75296 11.3744L10.6732 11.7868C10.7801 11.8322 10.9011 11.8351 11.0101 11.7948C11.1192 11.7544 11.2076 11.674 11.2564 11.5709C11.3053 11.4679 11.3106 11.3502 11.2713 11.2433C11.232 11.1365 11.1512 11.0488 11.0462 10.9993L10.1257 10.5867C10.0726 10.5628 10.0151 10.5493 9.95664 10.547C9.89815 10.5448 9.83977 10.5538 9.78485 10.5735C9.72993 10.5933 9.67956 10.6234 9.63662 10.6621C9.59367 10.7008 9.559 10.7474 9.53459 10.7992ZM13.1033 9.78138C13.1743 9.78122 13.2442 9.7646 13.3073 9.73289C13.3703 9.70118 13.4247 9.65531 13.4658 9.59907C13.507 9.54283 13.5338 9.47784 13.544 9.40951C13.5542 9.34117 13.5475 9.27146 13.5245 9.20614L13.1896 8.26014C13.1708 8.20588 13.1412 8.15578 13.1025 8.11271C13.0637 8.06965 13.0166 8.03447 12.9638 8.00921C12.911 7.98395 12.8536 7.96911 12.7949 7.96554C12.7362 7.96198 12.6774 7.96976 12.6218 7.98843C12.5662 8.00711 12.5149 8.03631 12.471 8.07435C12.427 8.11239 12.3912 8.15853 12.3657 8.21009C12.3402 8.26165 12.3254 8.31763 12.3222 8.37478C12.319 8.43193 12.3274 8.48914 12.3471 8.54309L12.6822 9.4891C12.7125 9.57437 12.7693 9.64835 12.8448 9.70074C12.9202 9.75312 13.0106 9.78131 13.1033 9.78138ZM9.71664 15.161C9.7715 15.161 9.82588 15.1512 9.87707 15.132L10.8437 14.769C10.954 14.7276 11.0429 14.6452 11.0908 14.5401C11.1387 14.4349 11.1417 14.3155 11.0992 14.2082C11.0566 14.1008 10.972 14.0143 10.8639 13.9677C10.7558 13.9211 10.6331 13.9182 10.5228 13.9596L9.5562 14.3225C9.45898 14.3589 9.37791 14.4272 9.32706 14.5157C9.27622 14.6041 9.25882 14.7071 9.27788 14.8067C9.29695 14.9064 9.35127 14.9964 9.43142 15.0611C9.51157 15.1258 9.61249 15.1612 9.71664 15.161ZM11.4331 9.13112C11.3539 9.04567 11.2431 8.9943 11.1251 8.98832C11.007 8.98235 10.8914 9.02225 10.8036 9.09925C10.7158 9.17625 10.663 9.28404 10.6568 9.39891C10.6507 9.51378 10.6917 9.62632 10.7708 9.71178L11.4509 10.4468C11.4901 10.4891 11.5374 10.5235 11.5903 10.5481C11.6431 10.5726 11.7004 10.5867 11.7589 10.5897C11.8173 10.5927 11.8758 10.5844 11.931 10.5654C11.9862 10.5463 12.037 10.5169 12.0805 10.4788C12.124 10.4407 12.1593 10.3946 12.1845 10.3432C12.2097 10.2917 12.2242 10.236 12.2273 10.1791C12.2303 10.1222 12.2219 10.0653 12.2023 10.0116C12.1828 9.9579 12.1525 9.90848 12.1133 9.86616L11.4331 9.13112ZM9.45125 12.421C9.33306 12.4196 9.21912 12.4639 9.1345 12.5442C9.04988 12.6245 9.00151 12.7342 9.00003 12.8492C8.99856 12.9642 9.04409 13.0751 9.12662 13.1575C9.20915 13.2398 9.32192 13.2869 9.44011 13.2883L10.462 13.3128C10.4657 13.3129 10.4694 13.3129 10.4731 13.3128C10.5891 13.3109 10.6997 13.2652 10.7815 13.1852C10.8633 13.1053 10.9099 12.9975 10.9114 12.8846C10.9128 12.7718 10.869 12.6629 10.7893 12.581C10.7095 12.4991 10.6001 12.4506 10.4843 12.4459L9.4624 12.4212H9.45125V12.421ZM10.6723 16.7553C10.7847 16.7555 10.893 16.7143 10.9754 16.64L11.7441 15.947C11.7871 15.9083 11.8217 15.8617 11.8462 15.8099C11.8706 15.7582 11.8844 15.7022 11.8866 15.6453C11.8888 15.5884 11.8795 15.5316 11.8591 15.4781C11.8388 15.4247 11.8079 15.3757 11.7681 15.3339C11.7283 15.2921 11.6804 15.2584 11.6272 15.2346C11.574 15.2108 11.5165 15.1975 11.458 15.1953C11.3995 15.1931 11.3411 15.2022 11.2862 15.222C11.2313 15.2418 11.181 15.2719 11.138 15.3106L10.3693 16.0034C10.3035 16.0626 10.2576 16.1398 10.2376 16.2248C10.2175 16.3099 10.2243 16.3988 10.2571 16.48C10.2898 16.5612 10.3469 16.6309 10.421 16.68C10.4951 16.7292 10.5827 16.7554 10.6723 16.7553ZM14.7014 9.52791C14.8135 9.52781 14.9214 9.48663 15.0037 9.41257C15.0859 9.33851 15.1365 9.23701 15.1453 9.1283L15.2273 8.11617C15.2319 8.05939 15.225 8.00229 15.2069 7.94812C15.1888 7.89396 15.1599 7.84379 15.1219 7.80048C15.0451 7.71301 14.9358 7.6588 14.818 7.64978C14.7596 7.64531 14.701 7.65206 14.6453 7.66966C14.5896 7.68726 14.5381 7.71535 14.4936 7.75234C14.4037 7.82703 14.348 7.93342 14.3387 8.04808L14.2567 9.06022C14.2521 9.117 14.259 9.1741 14.2771 9.22827C14.2952 9.28244 14.3241 9.33261 14.3621 9.37592C14.4001 9.41922 14.4465 9.45482 14.4986 9.48068C14.5508 9.50654 14.6077 9.52214 14.666 9.52661C14.678 9.52748 14.6896 9.52791 14.7017 9.52791H14.7014ZM11.7307 14.1614C11.8599 14.5127 12.0598 14.8354 12.3187 15.1106C12.5775 15.3858 12.8902 15.608 13.2384 15.7642C13.3453 15.8097 13.4664 15.8126 13.5755 15.7722C13.6846 15.7318 13.773 15.6514 13.8218 15.5482C13.8706 15.445 13.8759 15.3273 13.8364 15.2204C13.797 15.1135 13.716 15.0259 13.6109 14.9765C13.3698 14.8678 13.1534 14.7134 12.9743 14.5224C12.7953 14.3314 12.6571 14.1075 12.5679 13.864C12.4667 13.5906 12.4225 13.3003 12.4378 13.0101C12.4532 12.72 12.5278 12.4356 12.6573 12.1738C13.1787 11.0934 14.4563 10.5969 15.5041 11.0667C15.6114 11.1148 15.734 11.1195 15.8449 11.0797C15.9558 11.0399 16.0459 10.9588 16.0953 10.8543C16.1448 10.7499 16.1496 10.6306 16.1087 10.5227C16.0677 10.4148 15.9844 10.3271 15.8771 10.279C14.3853 9.61009 12.579 10.2953 11.8506 11.8054C11.6707 12.1707 11.5675 12.5672 11.5469 12.9718C11.5263 13.3764 11.5888 13.7809 11.7307 14.1617V14.1614ZM30.8424 21.0918C30.8424 20.9768 30.7955 20.8665 30.7119 20.7852C30.6283 20.7038 30.5149 20.6582 30.3968 20.6582C30.2786 20.6582 30.1652 20.7038 30.0816 20.7852C29.9981 20.8665 29.9511 20.9768 29.9511 21.0918V21.9591C29.9511 22.0741 29.9981 22.1844 30.0816 22.2657C30.1652 22.3471 30.2786 22.3928 30.3968 22.3928C30.5149 22.3928 30.6283 22.3471 30.7119 22.2657C30.7955 22.1844 30.8424 22.0741 30.8424 21.9591V21.0918ZM32.625 21.0918C32.625 20.9768 32.578 20.8665 32.4945 20.7852C32.4109 20.7038 32.2975 20.6582 32.1794 20.6582C32.0612 20.6582 31.9478 20.7038 31.8642 20.7852C31.7807 20.8665 31.7337 20.9768 31.7337 21.0918V21.9591C31.7337 22.0741 31.7807 22.1844 31.8642 22.2657C31.9478 22.3471 32.0612 22.3928 32.1794 22.3928C32.2975 22.3928 32.4109 22.3471 32.4945 22.2657C32.578 22.1844 32.625 22.0741 32.625 21.9591V21.0918ZM30.8424 23.6937C30.8424 23.5787 30.7955 23.4684 30.7119 23.3871C30.6283 23.3057 30.5149 23.2601 30.3968 23.2601C30.2786 23.2601 30.1652 23.3057 30.0816 23.3871C29.9981 23.4684 29.9511 23.5787 29.9511 23.6937V24.561C29.9511 24.676 29.9981 24.7863 30.0816 24.8676C30.1652 24.949 30.2786 24.9946 30.3968 24.9946C30.5149 24.9946 30.6283 24.949 30.7119 24.8676C30.7955 24.7863 30.8424 24.676 30.8424 24.561V23.6937ZM32.625 23.6937C32.625 23.5787 32.578 23.4684 32.4945 23.3871C32.4109 23.3057 32.2975 23.2601 32.1794 23.2601C32.0612 23.2601 31.9478 23.3057 31.8642 23.3871C31.7807 23.4684 31.7337 23.5787 31.7337 23.6937V24.561C31.7337 24.676 31.7807 24.7863 31.8642 24.8676C31.9478 24.949 32.0612 24.9946 32.1794 24.9946C32.2975 24.9946 32.4109 24.949 32.4945 24.8676C32.578 24.7863 32.625 24.676 32.625 24.561V23.6937ZM30.8424 26.2956C30.8424 26.1806 30.7955 26.0703 30.7119 25.989C30.6283 25.9076 30.5149 25.8619 30.3968 25.8619C30.2786 25.8619 30.1652 25.9076 30.0816 25.989C29.9981 26.0703 29.9511 26.1806 29.9511 26.2956V27.1629C29.9511 27.2779 29.9981 27.3882 30.0816 27.4695C30.1652 27.5509 30.2786 27.5965 30.3968 27.5965C30.5149 27.5965 30.6283 27.5509 30.7119 27.4695C30.7955 27.3882 30.8424 27.2779 30.8424 27.1629V26.2956ZM32.625 26.2956C32.625 26.1806 32.578 26.0703 32.4945 25.989C32.4109 25.9076 32.2975 25.8619 32.1794 25.8619C32.0612 25.8619 31.9478 25.9076 31.8642 25.989C31.7807 26.0703 31.7337 26.1806 31.7337 26.2956V27.1629C31.7337 27.2779 31.7807 27.3882 31.8642 27.4695C31.9478 27.5509 32.0612 27.5965 32.1794 27.5965C32.2975 27.5965 32.4109 27.5509 32.4945 27.4695C32.578 27.3882 32.625 27.2779 32.625 27.1629V26.2956ZM30.3968 28.4638C30.2786 28.4638 30.1652 28.5095 30.0816 28.5909C29.9981 28.6722 29.9511 28.7825 29.9511 28.8975V29.7648C29.9511 29.8798 29.9981 29.9901 30.0816 30.0714C30.1652 30.1528 30.2786 30.1984 30.3968 30.1984C30.5149 30.1984 30.6283 30.1528 30.7119 30.0714C30.7955 29.9901 30.8424 29.8798 30.8424 29.7648V28.8975C30.8424 28.7825 30.7955 28.6722 30.7119 28.5909C30.6283 28.5095 30.5149 28.4638 30.3968 28.4638ZM32.1794 28.4638C32.0612 28.4638 31.9478 28.5095 31.8642 28.5909C31.7807 28.6722 31.7337 28.7825 31.7337 28.8975V29.7648C31.7337 29.8798 31.7807 29.9901 31.8642 30.0714C31.9478 30.1528 32.0612 30.1984 32.1794 30.1984C32.2975 30.1984 32.4109 30.1528 32.4945 30.0714C32.578 29.9901 32.625 29.8798 32.625 29.7648V28.8975C32.625 28.7825 32.578 28.6722 32.4945 28.5909C32.4109 28.5095 32.2975 28.4638 32.1794 28.4638ZM16.5816 21.0918C16.5816 20.9768 16.5347 20.8665 16.4511 20.7852C16.3675 20.7038 16.2542 20.6582 16.136 20.6582C16.0178 20.6582 15.9044 20.7038 15.8209 20.7852C15.7373 20.8665 15.6903 20.9768 15.6903 21.0918V21.9591C15.6903 22.0741 15.7373 22.1844 15.8209 22.2657C15.9044 22.3471 16.0178 22.3928 16.136 22.3928C16.2542 22.3928 16.3675 22.3471 16.4511 22.2657C16.5347 22.1844 16.5816 22.0741 16.5816 21.9591V21.0918ZM14.799 21.0918C14.799 20.9768 14.7521 20.8665 14.6685 20.7852C14.5849 20.7038 14.4716 20.6582 14.3534 20.6582C14.2352 20.6582 14.1218 20.7038 14.0383 20.7852C13.9547 20.8665 13.9077 20.9768 13.9077 21.0918V21.9591C13.9077 22.0741 13.9547 22.1844 14.0383 22.2657C14.1218 22.3471 14.2352 22.3928 14.3534 22.3928C14.4716 22.3928 14.5849 22.3471 14.6685 22.2657C14.7521 22.1844 14.799 22.0741 14.799 21.9591V21.0918ZM16.5816 23.6937C16.5816 23.5787 16.5347 23.4684 16.4511 23.3871C16.3675 23.3057 16.2542 23.2601 16.136 23.2601C16.0178 23.2601 15.9044 23.3057 15.8209 23.3871C15.7373 23.4684 15.6903 23.5787 15.6903 23.6937V24.561C15.6903 24.676 15.7373 24.7863 15.8209 24.8676C15.9044 24.949 16.0178 24.9946 16.136 24.9946C16.2542 24.9946 16.3675 24.949 16.4511 24.8676C16.5347 24.7863 16.5816 24.676 16.5816 24.561V23.6937ZM14.799 23.6937C14.799 23.5787 14.7521 23.4684 14.6685 23.3871C14.5849 23.3057 14.4716 23.2601 14.3534 23.2601C14.2352 23.2601 14.1218 23.3057 14.0383 23.3871C13.9547 23.4684 13.9077 23.5787 13.9077 23.6937V24.561C13.9077 24.676 13.9547 24.7863 14.0383 24.8676C14.1218 24.949 14.2352 24.9946 14.3534 24.9946C14.4716 24.9946 14.5849 24.949 14.6685 24.8676C14.7521 24.7863 14.799 24.676 14.799 24.561V23.6937ZM16.5816 26.2956C16.5816 26.1806 16.5347 26.0703 16.4511 25.989C16.3675 25.9076 16.2542 25.8619 16.136 25.8619C16.0178 25.8619 15.9044 25.9076 15.8209 25.989C15.7373 26.0703 15.6903 26.1806 15.6903 26.2956V27.1629C15.6903 27.2779 15.7373 27.3882 15.8209 27.4695C15.9044 27.5509 16.0178 27.5965 16.136 27.5965C16.2542 27.5965 16.3675 27.5509 16.4511 27.4695C16.5347 27.3882 16.5816 27.2779 16.5816 27.1629V26.2956ZM14.799 26.2956C14.799 26.1806 14.7521 26.0703 14.6685 25.989C14.5849 25.9076 14.4716 25.8619 14.3534 25.8619C14.2352 25.8619 14.1218 25.9076 14.0383 25.989C13.9547 26.0703 13.9077 26.1806 13.9077 26.2956V27.1629C13.9077 27.2779 13.9547 27.3882 14.0383 27.4695C14.1218 27.5509 14.2352 27.5965 14.3534 27.5965C14.4716 27.5965 14.5849 27.5509 14.6685 27.4695C14.7521 27.3882 14.799 27.2779 14.799 27.1629V26.2956ZM16.136 28.4638C16.0178 28.4638 15.9044 28.5095 15.8209 28.5909C15.7373 28.6722 15.6903 28.7825 15.6903 28.8975V29.7648C15.6903 29.8798 15.7373 29.9901 15.8209 30.0714C15.9044 30.1528 16.0178 30.1984 16.136 30.1984C16.2542 30.1984 16.3675 30.1528 16.4511 30.0714C16.5347 29.9901 16.5816 29.8798 16.5816 29.7648V28.8975C16.5816 28.7825 16.5347 28.6722 16.4511 28.5909C16.3675 28.5095 16.2542 28.4638 16.136 28.4638ZM14.3534 28.4638C14.2352 28.4638 14.1218 28.5095 14.0383 28.5909C13.9547 28.6722 13.9077 28.7825 13.9077 28.8975V29.7648C13.9077 29.8798 13.9547 29.9901 14.0383 30.0714C14.1218 30.1528 14.2352 30.1984 14.3534 30.1984C14.4716 30.1984 14.5849 30.1528 14.6685 30.0714C14.7521 29.9901 14.799 29.8798 14.799 29.7648V28.8975C14.799 28.7825 14.7521 28.6722 14.6685 28.5909C14.5849 28.5095 14.4716 28.4638 14.3534 28.4638Z" fill="#FCFCFC"/>
<path d="M37.6875 31.122C37.6875 30.5892 37.4096 29.6945 36.8616 28.4625C36.8025 28.3158 36.7001 28.1899 36.5677 28.1013C36.4352 28.0126 36.2788 27.9652 36.1187 27.9652C35.9586 27.9651 35.8022 28.0125 35.6697 28.1011C35.5373 28.1898 35.4348 28.3156 35.3757 28.4623C34.8277 29.6945 34.5498 30.5892 34.5498 31.122C34.5498 32.1114 35.016 32.9235 35.6704 33.1816V34.8153H34.7739V33.6733C34.5004 33.4533 34.2722 33.1837 34.1016 32.879V34.8153H32.981V32.6055C32.9807 32.3711 32.8862 32.1464 32.7181 31.9807C32.55 31.815 32.3222 31.7218 32.0845 31.7215H30.7397C30.5021 31.7218 30.2742 31.815 30.1061 31.9807C29.938 32.1464 29.8435 32.3711 29.8433 32.6055V34.8153H28.7227V11.8331C28.7227 11.5987 28.6282 11.3739 28.4601 11.2081C28.292 11.0423 28.0639 10.9492 27.8262 10.9492H18.8613C18.6236 10.9492 18.3955 11.0423 18.2274 11.2081C18.0593 11.3739 17.9648 11.5987 17.9648 11.8331V34.8153H16.8442V32.6055C16.844 32.3711 16.7495 32.1464 16.5814 31.9807C16.4133 31.815 16.1854 31.7218 15.9478 31.7215H14.603C14.3653 31.7218 14.1375 31.815 13.9694 31.9807C13.8013 32.1464 13.7068 32.3711 13.7065 32.6055V34.8153H12.5859V32.879C12.4153 33.1837 12.1871 33.4533 11.9136 33.6733V34.8153H11.0171V33.1813C11.6715 32.9235 12.1377 32.1114 12.1377 31.122C12.1377 30.5892 11.8598 29.6945 11.3118 28.4625C11.2514 28.3166 11.1487 28.1916 11.0165 28.1031C10.8844 28.0145 10.7286 27.9664 10.5688 27.9648C10.4091 27.9664 10.2534 28.0145 10.1212 28.103C9.98903 28.1915 9.8863 28.3164 9.82589 28.4623C9.27791 29.6945 9 30.5892 9 31.122C9 32.1114 9.46617 32.9235 10.1206 33.1816V34.8153H9.44824C9.32936 34.8153 9.21535 34.8619 9.13129 34.9447C9.04723 35.0276 9 35.14 9 35.2573C9 35.3745 9.04723 35.4869 9.13129 35.5698C9.21535 35.6527 9.32936 35.6992 9.44824 35.6992H37.2393C37.3581 35.6992 37.4721 35.6527 37.5562 35.5698C37.6403 35.4869 37.6875 35.3745 37.6875 35.2573C37.6875 35.14 37.6403 35.0276 37.5562 34.9447C37.4721 34.8619 37.3581 34.8153 37.2393 34.8153H36.5669V33.1813C37.2213 32.9235 37.6875 32.1114 37.6875 31.122ZM15.9478 34.8153H14.603V32.6055H15.9478V34.8153ZM23.792 13.159C23.792 13.0418 23.8392 12.9294 23.9233 12.8465C24.0073 12.7636 24.1214 12.7171 24.2402 12.7171C24.3591 12.7171 24.4731 12.7636 24.5572 12.8465C24.6413 12.9294 24.6885 13.0418 24.6885 13.159V14.043C24.6885 14.1602 24.6413 14.2726 24.5572 14.3555C24.4731 14.4384 24.3591 14.4849 24.2402 14.4849C24.1214 14.4849 24.0073 14.4384 23.9233 14.3555C23.8392 14.2726 23.792 14.1602 23.792 14.043V13.159ZM23.792 15.8108C23.792 15.6936 23.8392 15.5812 23.9233 15.4983C24.0073 15.4154 24.1214 15.3689 24.2402 15.3689C24.3591 15.3689 24.4731 15.4154 24.5572 15.4983C24.6413 15.5812 24.6885 15.6936 24.6885 15.8108V16.6948C24.6885 16.812 24.6413 16.9244 24.5572 17.0073C24.4731 17.0902 24.3591 17.1367 24.2402 17.1367C24.1214 17.1367 24.0073 17.0902 23.9233 17.0073C23.8392 16.9244 23.792 16.812 23.792 16.6948V15.8108ZM23.792 18.4626C23.792 18.3454 23.8392 18.233 23.9233 18.1501C24.0073 18.0672 24.1214 18.0206 24.2402 18.0206C24.3591 18.0206 24.4731 18.0672 24.5572 18.1501C24.6413 18.233 24.6885 18.3454 24.6885 18.4626V19.3465C24.6885 19.4638 24.6413 19.5762 24.5572 19.6591C24.4731 19.7419 24.3591 19.7885 24.2402 19.7885C24.1214 19.7885 24.0073 19.7419 23.9233 19.6591C23.8392 19.5762 23.792 19.4638 23.792 19.3465V18.4626ZM23.792 21.1144C23.792 20.9972 23.8392 20.8848 23.9233 20.8019C24.0073 20.719 24.1214 20.6724 24.2402 20.6724C24.3591 20.6724 24.4731 20.719 24.5572 20.8019C24.6413 20.8848 24.6885 20.9972 24.6885 21.1144V21.9983C24.6885 22.1155 24.6413 22.228 24.5572 22.3108C24.4731 22.3937 24.3591 22.4403 24.2402 22.4403C24.1214 22.4403 24.0073 22.3937 23.9233 22.3108C23.8392 22.228 23.792 22.1155 23.792 21.9983V21.1144ZM23.792 23.7662C23.792 23.649 23.8392 23.5366 23.9233 23.4537C24.0073 23.3708 24.1214 23.3242 24.2402 23.3242C24.3591 23.3242 24.4731 23.3708 24.5572 23.4537C24.6413 23.5366 24.6885 23.649 24.6885 23.7662V24.6501C24.6885 24.7673 24.6413 24.8797 24.5572 24.9626C24.4731 25.0455 24.3591 25.0921 24.2402 25.0921C24.1214 25.0921 24.0073 25.0455 23.9233 24.9626C23.8392 24.8797 23.792 24.7673 23.792 24.6501V23.7662ZM23.792 26.418C23.792 26.3008 23.8392 26.1883 23.9233 26.1055C24.0073 26.0226 24.1214 25.976 24.2402 25.976C24.3591 25.976 24.4731 26.0226 24.5572 26.1055C24.6413 26.1883 24.6885 26.3008 24.6885 26.418V27.3019C24.6885 27.4191 24.6413 27.5315 24.5572 27.6144C24.4731 27.6973 24.3591 27.7439 24.2402 27.7439C24.1214 27.7439 24.0073 27.6973 23.9233 27.6144C23.8392 27.5315 23.792 27.4191 23.792 27.3019V26.418ZM21.999 13.159C21.999 13.0418 22.0462 12.9294 22.1303 12.8465C22.2144 12.7636 22.3284 12.7171 22.4473 12.7171C22.5661 12.7171 22.6802 12.7636 22.7642 12.8465C22.8483 12.9294 22.8955 13.0418 22.8955 13.159V14.043C22.8955 14.1602 22.8483 14.2726 22.7642 14.3555C22.6802 14.4384 22.5661 14.4849 22.4473 14.4849C22.3284 14.4849 22.2144 14.4384 22.1303 14.3555C22.0462 14.2726 21.999 14.1602 21.999 14.043V13.159ZM21.999 15.8108C21.999 15.6936 22.0462 15.5812 22.1303 15.4983C22.2144 15.4154 22.3284 15.3689 22.4473 15.3689C22.5661 15.3689 22.6802 15.4154 22.7642 15.4983C22.8483 15.5812 22.8955 15.6936 22.8955 15.8108V16.6948C22.8955 16.812 22.8483 16.9244 22.7642 17.0073C22.6802 17.0902 22.5661 17.1367 22.4473 17.1367C22.3284 17.1367 22.2144 17.0902 22.1303 17.0073C22.0462 16.9244 21.999 16.812 21.999 16.6948V15.8108ZM21.999 18.4626C21.999 18.3454 22.0462 18.233 22.1303 18.1501C22.2144 18.0672 22.3284 18.0206 22.4473 18.0206C22.5661 18.0206 22.6802 18.0672 22.7642 18.1501C22.8483 18.233 22.8955 18.3454 22.8955 18.4626V19.3465C22.8955 19.4638 22.8483 19.5762 22.7642 19.6591C22.6802 19.7419 22.5661 19.7885 22.4473 19.7885C22.3284 19.7885 22.2144 19.7419 22.1303 19.6591C22.0462 19.5762 21.999 19.4638 21.999 19.3465V18.4626ZM21.999 21.1144C21.999 20.9972 22.0462 20.8848 22.1303 20.8019C22.2144 20.719 22.3284 20.6724 22.4473 20.6724C22.5661 20.6724 22.6802 20.719 22.7642 20.8019C22.8483 20.8848 22.8955 20.9972 22.8955 21.1144V21.9983C22.8955 22.1155 22.8483 22.228 22.7642 22.3108C22.6802 22.3937 22.5661 22.4403 22.4473 22.4403C22.3284 22.4403 22.2144 22.3937 22.1303 22.3108C22.0462 22.228 21.999 22.1155 21.999 21.9983V21.1144ZM21.999 23.7662C21.999 23.649 22.0462 23.5366 22.1303 23.4537C22.2144 23.3708 22.3284 23.3242 22.4473 23.3242C22.5661 23.3242 22.6802 23.3708 22.7642 23.4537C22.8483 23.5366 22.8955 23.649 22.8955 23.7662V24.6501C22.8955 24.7673 22.8483 24.8797 22.7642 24.9626C22.6802 25.0455 22.5661 25.0921 22.4473 25.0921C22.3284 25.0921 22.2144 25.0455 22.1303 24.9626C22.0462 24.8797 21.999 24.7673 21.999 24.6501V23.7662ZM21.999 26.418C21.999 26.3008 22.0462 26.1883 22.1303 26.1055C22.2144 26.0226 22.3284 25.976 22.4473 25.976C22.5661 25.976 22.6802 26.0226 22.7642 26.1055C22.8483 26.1883 22.8955 26.3008 22.8955 26.418V27.3019C22.8955 27.4191 22.8483 27.5315 22.7642 27.6144C22.6802 27.6973 22.5661 27.7439 22.4473 27.7439C22.3284 27.7439 22.2144 27.6973 22.1303 27.6144C22.0462 27.5315 21.999 27.4191 21.999 27.3019V26.418ZM20.2061 13.159C20.2061 13.0418 20.2533 12.9294 20.3373 12.8465C20.4214 12.7636 20.5354 12.7171 20.6543 12.7171C20.7732 12.7171 20.8872 12.7636 20.9713 12.8465C21.0553 12.9294 21.1025 13.0418 21.1025 13.159V14.043C21.1025 14.1602 21.0553 14.2726 20.9713 14.3555C20.8872 14.4384 20.7732 14.4849 20.6543 14.4849C20.5354 14.4849 20.4214 14.4384 20.3373 14.3555C20.2533 14.2726 20.2061 14.1602 20.2061 14.043V13.159ZM20.2061 15.8108C20.2061 15.6936 20.2533 15.5812 20.3373 15.4983C20.4214 15.4154 20.5354 15.3689 20.6543 15.3689C20.7732 15.3689 20.8872 15.4154 20.9713 15.4983C21.0553 15.5812 21.1025 15.6936 21.1025 15.8108V16.6948C21.1025 16.812 21.0553 16.9244 20.9713 17.0073C20.8872 17.0902 20.7732 17.1367 20.6543 17.1367C20.5354 17.1367 20.4214 17.0902 20.3373 17.0073C20.2533 16.9244 20.2061 16.812 20.2061 16.6948V15.8108ZM20.2061 18.4626C20.2061 18.3454 20.2533 18.233 20.3373 18.1501C20.4214 18.0672 20.5354 18.0206 20.6543 18.0206C20.7732 18.0206 20.8872 18.0672 20.9713 18.1501C21.0553 18.233 21.1025 18.3454 21.1025 18.4626V19.3465C21.1025 19.4638 21.0553 19.5762 20.9713 19.6591C20.8872 19.7419 20.7732 19.7885 20.6543 19.7885C20.5354 19.7885 20.4214 19.7419 20.3373 19.6591C20.2533 19.5762 20.2061 19.4638 20.2061 19.3465V18.4626ZM20.2061 21.1144C20.2061 20.9972 20.2533 20.8848 20.3373 20.8019C20.4214 20.719 20.5354 20.6724 20.6543 20.6724C20.7732 20.6724 20.8872 20.719 20.9713 20.8019C21.0553 20.8848 21.1025 20.9972 21.1025 21.1144V21.9983C21.1025 22.1155 21.0553 22.228 20.9713 22.3108C20.8872 22.3937 20.7732 22.4403 20.6543 22.4403C20.5354 22.4403 20.4214 22.3937 20.3373 22.3108C20.2533 22.228 20.2061 22.1155 20.2061 21.9983V21.1144ZM20.2061 23.7662C20.2061 23.649 20.2533 23.5366 20.3373 23.4537C20.4214 23.3708 20.5354 23.3242 20.6543 23.3242C20.7732 23.3242 20.8872 23.3708 20.9713 23.4537C21.0553 23.5366 21.1025 23.649 21.1025 23.7662V24.6501C21.1025 24.7673 21.0553 24.8797 20.9713 24.9626C20.8872 25.0455 20.7732 25.0921 20.6543 25.0921C20.5354 25.0921 20.4214 25.0455 20.3373 24.9626C20.2533 24.8797 20.2061 24.7673 20.2061 24.6501V23.7662ZM20.6543 27.7439C20.5354 27.7439 20.4214 27.6973 20.3373 27.6144C20.2533 27.5315 20.2061 27.4191 20.2061 27.3019V26.418C20.2061 26.3008 20.2533 26.1883 20.3373 26.1055C20.4214 26.0226 20.5354 25.976 20.6543 25.976C20.7732 25.976 20.8872 26.0226 20.9713 26.1055C21.0553 26.1883 21.1025 26.3008 21.1025 26.418V27.3019C21.1025 27.4191 21.0553 27.5315 20.9713 27.6144C20.8872 27.6973 20.7732 27.7439 20.6543 27.7439ZM25.585 34.8153H21.1025V29.9537C21.1025 29.8365 21.1498 29.7241 21.2338 29.6412C21.3179 29.5583 21.4319 29.5117 21.5508 29.5117H25.1367C25.2556 29.5117 25.3696 29.5583 25.4537 29.6412C25.5377 29.7241 25.585 29.8365 25.585 29.9537V34.8153ZM26.4814 27.3019C26.4814 27.4191 26.4342 27.5315 26.3502 27.6144C26.2661 27.6973 26.1521 27.7439 26.0332 27.7439C25.9143 27.7439 25.8003 27.6973 25.7162 27.6144C25.6322 27.5315 25.585 27.4191 25.585 27.3019V26.418C25.585 26.3008 25.6322 26.1883 25.7162 26.1055C25.8003 26.0226 25.9143 25.976 26.0332 25.976C26.1521 25.976 26.2661 26.0226 26.3502 26.1055C26.4342 26.1883 26.4814 26.3008 26.4814 26.418V27.3019ZM26.4814 24.6501C26.4814 24.7673 26.4342 24.8797 26.3502 24.9626C26.2661 25.0455 26.1521 25.0921 26.0332 25.0921C25.9143 25.0921 25.8003 25.0455 25.7162 24.9626C25.6322 24.8797 25.585 24.7673 25.585 24.6501V23.7662C25.585 23.649 25.6322 23.5366 25.7162 23.4537C25.8003 23.3708 25.9143 23.3242 26.0332 23.3242C26.1521 23.3242 26.2661 23.3708 26.3502 23.4537C26.4342 23.5366 26.4814 23.649 26.4814 23.7662V24.6501ZM26.4814 21.9983C26.4814 22.1155 26.4342 22.228 26.3502 22.3108C26.2661 22.3937 26.1521 22.4403 26.0332 22.4403C25.9143 22.4403 25.8003 22.3937 25.7162 22.3108C25.6322 22.228 25.585 22.1155 25.585 21.9983V21.1144C25.585 20.9972 25.6322 20.8848 25.7162 20.8019C25.8003 20.719 25.9143 20.6724 26.0332 20.6724C26.1521 20.6724 26.2661 20.719 26.3502 20.8019C26.4342 20.8848 26.4814 20.9972 26.4814 21.1144V21.9983ZM26.4814 19.3465C26.4814 19.4638 26.4342 19.5762 26.3502 19.6591C26.2661 19.7419 26.1521 19.7885 26.0332 19.7885C25.9143 19.7885 25.8003 19.7419 25.7162 19.6591C25.6322 19.5762 25.585 19.4638 25.585 19.3465V18.4626C25.585 18.3454 25.6322 18.233 25.7162 18.1501C25.8003 18.0672 25.9143 18.0206 26.0332 18.0206C26.1521 18.0206 26.2661 18.0672 26.3502 18.1501C26.4342 18.233 26.4814 18.3454 26.4814 18.4626V19.3465ZM26.4814 16.6948C26.4814 16.812 26.4342 16.9244 26.3502 17.0073C26.2661 17.0902 26.1521 17.1367 26.0332 17.1367C25.9143 17.1367 25.8003 17.0902 25.7162 17.0073C25.6322 16.9244 25.585 16.812 25.585 16.6948V15.8108C25.585 15.6936 25.6322 15.5812 25.7162 15.4983C25.8003 15.4154 25.9143 15.3689 26.0332 15.3689C26.1521 15.3689 26.2661 15.4154 26.3502 15.4983C26.4342 15.5812 26.4814 15.6936 26.4814 15.8108V16.6948ZM26.4814 14.043C26.4814 14.1602 26.4342 14.2726 26.3502 14.3555C26.2661 14.4384 26.1521 14.4849 26.0332 14.4849C25.9143 14.4849 25.8003 14.4384 25.7162 14.3555C25.6322 14.2726 25.585 14.1602 25.585 14.043V13.159C25.585 13.0418 25.6322 12.9294 25.7162 12.8465C25.8003 12.7636 25.9143 12.7171 26.0332 12.7171C26.1521 12.7171 26.2661 12.7636 26.3502 12.8465C26.4342 12.9294 26.4814 13.0418 26.4814 13.159V14.043ZM32.0845 34.8153H30.7397V32.6055H32.0845V34.8153Z" fill="#FCFCFC"/>
<path d="M34.4361 28.0215C34.537 27.7965 34.6868 27.5955 34.875 27.4323V18.8109C34.875 18.2703 34.4869 17.9165 33.8614 17.8319L29.5529 17.0002V17.8821L33.8614 18.6974C33.8936 18.6961 33.925 18.7074 33.9488 18.7287C33.9725 18.7501 33.9866 18.7797 33.988 18.8111V29.0996C34.126 28.7358 34.2755 28.3762 34.4361 28.0213V28.0215ZM17.1346 17L12.8261 17.8319C12.2516 17.9029 11.8125 18.2703 11.8125 18.8109V27.4323C12.0007 27.5955 12.1504 27.7965 12.2514 28.0215C12.4121 28.3765 12.5615 28.7361 12.6995 29.1V18.8107C12.7009 18.7792 12.715 18.7496 12.7387 18.7283C12.7625 18.707 12.7939 18.6957 12.8261 18.6969L17.1346 17.8817V17Z" fill="#FCFCFC"/>
</g>
</svg>
