<svg width="40" height="40" viewBox="0 0 40 40" fill="none" xmlns="http://www.w3.org/2000/svg">
<path d="M16.6667 19.9998C20.3486 19.9998 23.3333 17.0151 23.3333 13.3332C23.3333 9.65127 20.3486 6.6665 16.6667 6.6665C12.9848 6.6665 10 9.65127 10 13.3332C10 17.0151 12.9848 19.9998 16.6667 19.9998Z" fill="white"/>
<path d="M17.7835 21.6998C17.4168 21.6832 17.0502 21.6665 16.6668 21.6665C12.6335 21.6665 8.86683 22.7832 5.65016 24.6998C4.1835 25.5665 3.3335 27.1998 3.3335 28.9165V33.3332H18.7668C17.4502 31.4498 16.6668 29.1498 16.6668 26.6665C16.6668 24.8832 17.0835 23.2165 17.7835 21.6998Z" fill="white"/>
<path d="M34.5832 26.6668C34.5832 26.3002 34.5332 25.9668 34.4832 25.6168L36.3832 23.9335L34.7165 21.0502L32.2999 21.8668C31.7665 21.4168 31.1665 21.0668 30.4999 20.8168L29.9999 18.3335H26.6665L26.1665 20.8168C25.4999 21.0668 24.8999 21.4168 24.3665 21.8668L21.9499 21.0502L20.2832 23.9335L22.1832 25.6168C22.1332 25.9668 22.0832 26.3002 22.0832 26.6668C22.0832 27.0335 22.1332 27.3668 22.1832 27.7168L20.2832 29.4002L21.9499 32.2835L24.3665 31.4668C24.8999 31.9168 25.4999 32.2668 26.1665 32.5168L26.6665 35.0002H29.9999L30.4999 32.5168C31.1665 32.2668 31.7665 31.9168 32.2999 31.4668L34.7165 32.2835L36.3832 29.4002L34.4832 27.7168C34.5332 27.3668 34.5832 27.0335 34.5832 26.6668ZM28.3332 30.0002C26.4999 30.0002 24.9999 28.5002 24.9999 26.6668C24.9999 24.8335 26.4999 23.3335 28.3332 23.3335C30.1665 23.3335 31.6665 24.8335 31.6665 26.6668C31.6665 28.5002 30.1665 30.0002 28.3332 30.0002Z" fill="white"/>
</svg>
