<svg width="58" height="57" viewBox="0 0 58 57" fill="none" xmlns="http://www.w3.org/2000/svg">
<rect x="1.5" y="1" width="55" height="55" rx="27.5" fill="white"/>
<g clip-path="url(#clip0_8167_41341)">
<path d="M29.5 29.25C32.2167 29.25 34.6167 29.9 36.5667 30.75C38.3667 31.55 39.5 33.35 39.5 35.3V38H19.5V35.3167C19.5 33.35 20.6333 31.55 22.4333 30.7667C24.3833 29.9 26.7833 29.25 29.5 29.25ZM16.1667 29.6667C18 29.6667 19.5 28.1667 19.5 26.3333C19.5 24.5 18 23 16.1667 23C14.3333 23 12.8333 24.5 12.8333 26.3333C12.8333 28.1667 14.3333 29.6667 16.1667 29.6667ZM18.05 31.5C17.4333 31.4 16.8167 31.3333 16.1667 31.3333C14.5167 31.3333 12.95 31.6833 11.5333 32.3C10.3 32.8333 9.5 34.0333 9.5 35.3833V38H17V35.3167C17 33.9333 17.3833 32.6333 18.05 31.5ZM42.8333 29.6667C44.6667 29.6667 46.1667 28.1667 46.1667 26.3333C46.1667 24.5 44.6667 23 42.8333 23C41 23 39.5 24.5 39.5 26.3333C39.5 28.1667 41 29.6667 42.8333 29.6667ZM49.5 35.3833C49.5 34.0333 48.7 32.8333 47.4667 32.3C46.05 31.6833 44.4833 31.3333 42.8333 31.3333C42.1833 31.3333 41.5667 31.4 40.95 31.5C41.6167 32.6333 42 33.9333 42 35.3167V38H49.5V35.3833ZM29.5 18C32.2667 18 34.5 20.2333 34.5 23C34.5 25.7667 32.2667 28 29.5 28C26.7333 28 24.5 25.7667 24.5 23C24.5 20.2333 26.7333 18 29.5 18Z" fill="#BF0C0C"/>
</g>
<rect x="1.5" y="1" width="55" height="55" rx="27.5" stroke="#BF0C0C" stroke-width="2"/>
<defs>
<clipPath id="clip0_8167_41341">
<rect width="40" height="40" fill="white" transform="translate(9.5 8)"/>
</clipPath>
</defs>
</svg>
