<svg width="20" height="20" viewBox="0 0 20 20" fill="none" xmlns="http://www.w3.org/2000/svg">
<path d="M20 10C20 7.34784 18.9464 4.8043 17.0711 2.92893C15.1957 1.05357 12.6522 0 10 0C7.34784 0 4.8043 1.05357 2.92893 2.92893C1.05357 4.8043 0 7.34784 0 10C0 12.6522 1.05357 15.1957 2.92893 17.0711C4.8043 18.9464 7.34784 20 10 20C12.6522 20 15.1957 18.9464 17.0711 17.0711C18.9464 15.1957 20 12.6522 20 10ZM10.625 14.375C10.625 14.5408 10.5592 14.6997 10.4419 14.8169C10.3247 14.9342 10.1658 15 10 15C9.83424 15 9.67527 14.9342 9.55806 14.8169C9.44085 14.6997 9.375 14.5408 9.375 14.375V7.13375L6.6925 9.8175C6.57514 9.93486 6.41597 10.0008 6.25 10.0008C6.08403 10.0008 5.92486 9.93486 5.8075 9.8175C5.69014 9.70014 5.62421 9.54097 5.62421 9.375C5.62421 9.20903 5.69014 9.04986 5.8075 8.9325L9.5575 5.1825C9.61556 5.1243 9.68453 5.07812 9.76046 5.04661C9.83639 5.0151 9.91779 4.99888 10 4.99888C10.0822 4.99888 10.1636 5.0151 10.2395 5.04661C10.3155 5.07812 10.3844 5.1243 10.4425 5.1825L14.1925 8.9325C14.3099 9.04986 14.3758 9.20903 14.3758 9.375C14.3758 9.54097 14.3099 9.70014 14.1925 9.8175C14.0751 9.93486 13.916 10.0008 13.75 10.0008C13.584 10.0008 13.4249 9.93486 13.3075 9.8175L10.625 7.13375V14.375Z" fill="white"/>
</svg>
