<svg width="250" height="73" viewBox="0 0 250 73" fill="none" xmlns="http://www.w3.org/2000/svg">
<path d="M0.264585 50.1446C0.264585 46.5213 0.195499 43.4815 0 40.7695H6.8557L7.17761 45.4247H7.3687C8.91946 42.9641 11.7667 40.0536 17.0672 40.0536C21.205 40.0536 24.4359 42.3908 25.7927 45.8775H25.9249C27.0289 44.1297 28.3194 42.8421 29.8026 41.9337C31.5474 40.7063 33.5538 40.0536 36.1438 40.0536C41.3738 40.0536 46.6699 43.6108 46.6699 53.7018V72.2507H38.9146V54.8601C38.9146 49.6258 37.1066 46.5213 33.2981 46.5213C30.5772 46.5213 28.5693 48.463 27.7344 50.7267C27.5404 51.5014 27.3449 52.47 27.3449 53.3711V72.2507H19.5852V54.0208C19.5852 49.6258 17.8419 46.5213 14.1583 46.5213C11.1831 46.5213 9.18258 48.8482 8.47114 51.0428C8.14923 51.8248 8.01252 52.7273 8.01252 53.6327V72.2507H0.264585V50.1446Z" fill="#003A70"/>
<path d="M69.1355 56.8691C63.5101 56.7368 58.1478 57.9613 58.1478 62.7488C58.1478 65.8474 60.1528 67.2747 62.6737 67.2747C65.8355 67.2747 68.1683 65.2065 68.8724 62.9443C69.0679 62.3637 69.1355 61.714 69.1355 61.1995V56.8691ZM76.8908 64.6891C76.8908 67.5319 77.0216 70.3012 77.3479 72.2504H70.1703L69.6543 68.7578H69.453C67.5171 71.2155 64.2215 72.9589 60.1528 72.9589C53.8145 72.9589 50.2617 68.3786 50.2617 63.5852C50.2617 55.6344 57.3026 51.6304 68.94 51.6936V51.1761C68.94 49.1065 68.0977 45.6801 62.5444 45.6801C59.4384 45.6801 56.2017 46.6547 54.0732 48.0114L52.5195 42.8417C54.8464 41.4144 58.9225 40.0533 63.8996 40.0533C73.9847 40.0533 76.8908 46.4592 76.8908 53.309V64.6891Z" fill="#003A70"/>
<path d="M82.3891 50.1446C82.3891 46.5213 82.3171 43.4815 82.1289 40.7695H89.1037L89.4932 45.4879H89.6843C91.041 43.0361 94.4718 40.0536 99.7032 40.0536C105.204 40.0536 110.891 43.6108 110.891 53.5666V72.2507H102.937V54.475C102.937 49.9491 101.255 46.5213 96.9266 46.5213C93.7589 46.5213 91.5658 48.7806 90.7206 51.175C90.4678 51.8894 90.3987 52.861 90.3987 53.7562V72.2507H82.3891V50.1446Z" fill="#003A70"/>
<path d="M137.41 53.8885C137.41 53.2462 137.344 52.47 137.218 51.8233C136.505 48.7203 133.987 46.2008 130.365 46.2008C125.258 46.2008 122.416 50.7282 122.416 56.6093C122.416 62.3626 125.258 66.5695 130.303 66.5695C133.531 66.5695 136.378 64.369 137.151 60.9426C137.344 60.2297 137.41 59.4477 137.41 58.6084V53.8885ZM145.36 28.1208V63.393C145.36 66.6239 145.492 70.1179 145.618 72.2478H138.508L138.191 67.2751H138.058C136.184 70.7602 132.361 72.9592 127.778 72.9592C120.281 72.9592 114.332 66.5695 114.332 56.8695C114.269 46.3287 120.865 40.0536 128.428 40.0536C132.755 40.0536 135.861 41.8661 137.281 44.2018H137.41V28.1208H145.36Z" fill="#003A70"/>
<path d="M150.98 40.7691H159.008V72.2474H150.98V40.7691Z" fill="#003A70"/>
<path d="M164.623 50.9199C164.623 46.6542 164.559 43.6115 164.363 40.7716H171.282L171.538 46.7777H171.801C173.35 42.3179 177.037 40.7716 180.399 40.7716C181.173 40.7716 181.626 40.6378 182.273 40.7716V47.7552C181.626 47.6229 180.916 47.4935 179.941 47.4935C176.131 47.4935 173.546 49.9483 172.837 53.5025C172.708 54.2125 172.58 55.0592 172.58 55.9676V72.2484H164.623V50.9199Z" fill="#003A70"/>
<path d="M185.957 40.7691H193.968V72.2474H185.957V40.7691Z" fill="#003A70"/>
<path fill-rule="evenodd" clip-rule="evenodd" d="M243.432 7.51467C239.476 3.00937 235.278 5.04374 231.927 6.70474C230.523 7.39854 225.427 10.7911 220.376 13.1562C216.778 14.8422 211.613 14.3321 208.78 10.8337C208.608 10.6221 204.029 5.0746 203.544 4.39109C200.571 0.661907 193.049 -2.4308 184.062 2.71245C179.247 5.49941 167.899 12.0111 163.657 14.4336C161.078 15.7491 155.093 16.3239 151.712 11.7569C151.656 11.6819 147.214 6.13882 147.036 5.92569C146.905 5.77575 144.036 1.52034 137.641 1.38952C136.7 1.366 132.002 1.33807 127.411 3.94424C121.324 7.42647 107.157 15.5257 107.157 15.5257C107.147 15.5257 107.147 15.5331 107.147 15.5331C101.323 18.8668 96.7812 21.4554 96.7812 21.4554L102.144 28.0465C104.654 31.1583 110.307 33.5704 115.214 30.7541C115.214 30.7541 133.338 20.2589 133.401 20.2295C141.242 15.927 147.292 15.927 151.301 17.5292C154.906 19.0476 158.04 22.84 158.04 22.84C158.04 22.84 162.14 27.9201 162.86 28.8079C165.191 31.6772 169.047 30.5512 169.047 30.5512C169.047 30.5512 170.471 30.3866 172.635 29.1078C172.635 29.1078 190.186 18.9315 190.196 18.9286C195.773 15.658 200.888 15.048 203.497 15.2861C211.68 16.0314 214.225 21.7479 217.776 25.7343C219.865 28.0847 221.748 29.4135 224.63 29.3459C226.528 29.3033 228.667 28.1582 228.983 27.9524L250.003 15.8182C250.003 15.8182 247.849 12.5727 243.432 7.51467Z" fill="#FFB700"/>
</svg>
