<svg width="36" height="35" viewBox="0 0 36 35" fill="none" xmlns="http://www.w3.org/2000/svg">
<path d="M17.1033 1.31699C17.4701 0.57374 18.5299 0.57374 18.8967 1.31699L23.6452 10.9384C23.7908 11.2335 24.0724 11.4381 24.3981 11.4854L35.016 13.0283C35.8362 13.1475 36.1637 14.1554 35.5702 14.734L27.887 22.2232C27.6513 22.4529 27.5438 22.7839 27.5994 23.1083L29.4132 33.6833C29.5533 34.5002 28.6959 35.1231 27.9622 34.7375L18.4653 29.7446C18.174 29.5915 17.826 29.5915 17.5347 29.7446L8.03777 34.7375C7.30414 35.1231 6.44671 34.5002 6.58682 33.6833L8.40056 23.1083C8.4562 22.7839 8.34865 22.4529 8.11297 22.2232L0.42982 14.734C-0.163697 14.1554 0.163813 13.1475 0.984033 13.0283L11.6019 11.4854C11.9276 11.4381 12.2092 11.2335 12.3548 10.9384L17.1033 1.31699Z" fill="#D9D9D9"/>
</svg>
