<svg width="21" height="21" viewBox="0 0 21 21" fill="none" xmlns="http://www.w3.org/2000/svg">
<path d="M7.31371 5.89945L5.89949 7.31366L8.72792 10.1421L5.89949 12.9705L7.31371 14.3847L10.1421 11.5563L12.9706 14.3847L14.3848 12.9705L11.5563 10.1421L14.3848 7.31366L12.9706 5.89945L10.1421 8.72788L7.31371 5.89945ZM3.07107 3.07102C-0.832161 6.97425 -0.832161 13.3099 3.07107 17.2132C6.9743 21.1164 13.31 21.1164 17.2132 17.2132C21.1164 13.3099 21.1164 6.97425 17.2132 3.07102C13.31 -0.832207 6.9743 -0.832207 3.07107 3.07102ZM15.799 15.7989C12.6806 18.9173 7.60362 18.9173 4.48528 15.7989C1.36694 12.6806 1.36694 7.60358 4.48528 4.48524C7.60362 1.3669 12.6806 1.3669 15.799 4.48524C18.9173 7.60358 18.9173 12.6806 15.799 15.7989Z" fill="#A0A0A0"/>
</svg>
