<svg width="20" height="20" viewBox="0 0 20 20" fill="none" xmlns="http://www.w3.org/2000/svg">
<path d="M10 0C8.02219 0 6.08879 0.58649 4.4443 1.6853C2.79981 2.78412 1.51809 4.3459 0.761209 6.17316C0.00433281 8.00043 -0.1937 10.0111 0.192152 11.9509C0.578004 13.8907 1.53041 15.6725 2.92894 17.0711C4.32746 18.4696 6.10929 19.422 8.0491 19.8078C9.98891 20.1937 11.9996 19.9957 13.8268 19.2388C15.6541 18.4819 17.2159 17.2002 18.3147 15.5557C19.4135 13.9112 20 11.9778 20 10C20 7.34783 18.9464 4.8043 17.0711 2.92893C15.1957 1.05357 12.6522 0 10 0ZM16.5313 6.64375L8.31875 14.85L3.46875 10C3.30299 9.83424 3.20987 9.60942 3.20987 9.375C3.20987 9.14058 3.30299 8.91576 3.46875 8.75C3.63451 8.58424 3.85933 8.49112 4.09375 8.49112C4.32817 8.49112 4.55299 8.58424 4.71875 8.75L8.33125 12.3625L15.2938 5.40625C15.3758 5.32417 15.4733 5.25907 15.5805 5.21465C15.6877 5.17023 15.8027 5.14737 15.9188 5.14737C16.0348 5.14737 16.1498 5.17023 16.257 5.21465C16.3642 5.25907 16.4617 5.32417 16.5438 5.40625C16.6258 5.48833 16.6909 5.58576 16.7354 5.693C16.7798 5.80024 16.8026 5.91518 16.8026 6.03125C16.8026 6.14732 16.7798 6.26226 16.7354 6.3695C16.6909 6.47673 16.6258 6.57417 16.5438 6.65625L16.5313 6.64375Z" fill="#139728"/>
</svg>
