<svg width="352" height="417" viewBox="0 0 352 417" fill="none" xmlns="http://www.w3.org/2000/svg">
<g clip-path="url(#clip0_3364_24281)">
<path d="M50.2815 306.749C62.6002 306.749 72.5865 296.783 72.5865 284.49C72.5865 272.196 62.6002 262.23 50.2815 262.23C37.9628 262.23 27.9766 272.196 27.9766 284.49C27.9766 296.783 37.9628 306.749 50.2815 306.749Z" fill="#FF6584"/>
<path d="M95.9596 410.217H95.937C95.1516 410.217 94.3986 409.905 93.8432 409.351C93.2879 408.796 92.9755 408.045 92.9746 407.261L92.9746 233.71C92.9755 232.926 93.2879 232.175 93.8432 231.621C94.3986 231.067 95.1516 230.755 95.937 230.754L242.313 230.754C243.099 230.755 243.852 231.067 244.407 231.621C244.962 232.175 245.275 232.926 245.276 233.71L245.276 368.656C245.275 369.435 244.965 370.183 244.415 370.737C243.865 371.29 243.118 371.605 242.336 371.612L95.9596 410.217Z" fill="#F2F2F2"/>
<path d="M204.15 206.236H136.189V166.935C136.19 166.105 136.521 165.309 137.109 164.723C137.697 164.136 138.494 163.806 139.326 163.805H201.013C201.845 163.806 202.642 164.136 203.23 164.723C203.818 165.309 204.149 166.105 204.15 166.935V206.236ZM136.886 205.54H203.453V166.935C203.452 166.289 203.195 165.671 202.737 165.214C202.28 164.758 201.66 164.501 201.013 164.5H139.326C138.679 164.501 138.059 164.758 137.602 165.214C137.144 165.671 136.887 166.289 136.886 166.935V205.54Z" fill="#3F3D56"/>
<path d="M155.532 178.758H184.808C185.547 178.758 186.256 179.051 186.779 179.573C187.302 180.095 187.596 180.802 187.596 181.54V223.276H152.744V181.54C152.744 180.802 153.038 180.095 153.561 179.573C154.084 179.051 154.793 178.758 155.532 178.758Z" fill="#E6E6E6"/>
<path d="M161.283 164.499H146.994V150.239C146.995 149.778 147.178 149.336 147.505 149.01C147.832 148.684 148.275 148.501 148.737 148.5H159.541C160.003 148.501 160.446 148.684 160.772 149.01C161.099 149.336 161.283 149.778 161.283 150.239V164.499ZM147.691 163.803H160.586V150.239C160.586 149.962 160.476 149.697 160.28 149.502C160.084 149.306 159.818 149.196 159.541 149.196H148.737C148.46 149.196 148.194 149.306 147.998 149.502C147.802 149.697 147.691 149.962 147.691 150.239V163.803Z" fill="#3F3D56"/>
<path d="M278.701 374.165C278.562 374.165 278.427 374.165 278.288 374.161C269.666 374.066 261.376 370.832 254.974 365.068C254.738 364.853 254.503 364.635 254.27 364.414L254.162 364.311L254.162 297.655L254.195 297.585C254.426 297.097 254.66 296.615 254.894 296.134C262.143 281.447 270.598 273.359 278.701 273.359C290.387 273.359 299.449 289.356 303.811 298.891C309.877 312.151 314.114 328.581 314.114 338.846C314.111 348.146 310.434 357.07 303.88 363.681C297.326 370.293 288.424 374.058 279.106 374.162C278.975 374.165 278.836 374.165 278.701 374.165ZM254.859 364.013C255.052 364.195 255.247 364.375 255.442 364.552C261.719 370.204 269.847 373.374 278.301 373.466C278.442 373.469 278.575 373.466 278.71 373.469C278.837 373.469 278.966 373.469 279.093 373.466C298.021 373.257 313.417 357.726 313.417 338.846C313.417 328.67 309.206 312.358 303.177 299.18C298.885 289.797 289.997 274.055 278.701 274.055C270.877 274.055 262.645 282.005 255.52 296.44C255.299 296.894 255.078 297.349 254.859 297.811L254.859 364.013Z" fill="#3F3D56"/>
<path d="M278.7 416.337C278.593 416.337 278.491 416.295 278.416 416.22C278.341 416.145 278.299 416.043 278.299 415.937V334.25C278.299 334.197 278.309 334.145 278.329 334.096C278.349 334.047 278.378 334.003 278.415 333.966C278.453 333.928 278.497 333.899 278.546 333.878C278.595 333.858 278.647 333.848 278.7 333.848C278.753 333.848 278.805 333.858 278.854 333.878C278.903 333.899 278.947 333.928 278.984 333.966C279.021 334.003 279.051 334.047 279.071 334.096C279.091 334.145 279.101 334.197 279.101 334.25V415.937C279.101 416.043 279.059 416.145 278.983 416.22C278.908 416.295 278.806 416.337 278.7 416.337Z" fill="#CCCCCC"/>
<path d="M70.6354 416.337C70.529 416.337 70.427 416.295 70.3518 416.22C70.2766 416.145 70.2344 416.043 70.2344 415.937L70.2344 334.25C70.2341 334.197 70.2442 334.145 70.2642 334.096C70.2842 334.047 70.3137 334.003 70.351 333.966C70.3882 333.928 70.4326 333.899 70.4814 333.878C70.5302 333.858 70.5825 333.848 70.6353 333.848C70.6882 333.848 70.7405 333.858 70.7893 333.878C70.8381 333.899 70.8824 333.928 70.9197 333.966C70.957 334.003 70.9865 334.047 71.0065 334.096C71.0265 334.145 71.0366 334.197 71.0363 334.25L71.0363 415.937C71.0363 416.043 70.9941 416.145 70.9189 416.22C70.8437 416.295 70.7417 416.337 70.6354 416.337Z" fill="#CCCCCC"/>
<path d="M278.7 349.508C278.642 349.508 278.586 349.496 278.533 349.472C278.481 349.449 278.434 349.414 278.397 349.37L258.23 326.162C258.161 326.082 258.126 325.977 258.134 325.871C258.141 325.766 258.191 325.667 258.271 325.598C258.351 325.528 258.456 325.494 258.562 325.501C258.668 325.508 258.767 325.557 258.836 325.637L279.003 348.846C279.053 348.904 279.086 348.975 279.097 349.051C279.107 349.127 279.096 349.204 279.064 349.274C279.033 349.344 278.981 349.403 278.917 349.445C278.852 349.486 278.777 349.508 278.7 349.508V349.508Z" fill="#CCCCCC"/>
<path d="M278.7 362.903C278.62 362.903 278.543 362.879 278.477 362.835C278.411 362.792 278.36 362.729 278.329 362.656C278.299 362.583 278.291 362.502 278.307 362.425C278.322 362.347 278.36 362.276 278.416 362.22L289.875 350.784C289.95 350.71 290.052 350.668 290.158 350.668C290.265 350.668 290.366 350.71 290.441 350.785C290.516 350.86 290.559 350.962 290.559 351.068C290.559 351.173 290.517 351.275 290.442 351.35L278.983 362.786C278.946 362.823 278.902 362.852 278.853 362.873C278.805 362.893 278.752 362.903 278.7 362.903Z" fill="#CCCCCC"/>
<path d="M316.267 415.948H286.293V415.6C286.292 413.635 286.679 411.69 287.432 409.874C288.184 408.059 289.288 406.409 290.68 405.02C292.072 403.63 293.724 402.528 295.543 401.776C297.362 401.024 299.311 400.637 301.28 400.637C303.249 400.637 305.198 401.024 307.017 401.776C308.836 402.528 310.488 403.63 311.88 405.02C313.272 406.409 314.376 408.059 315.128 409.874C315.881 411.69 316.268 413.635 316.267 415.6L316.267 415.948ZM286.994 415.252H315.566C315.475 411.531 313.93 407.994 311.261 405.394C308.591 402.795 305.01 401.339 301.28 401.339C297.55 401.339 293.969 402.795 291.299 405.394C288.63 407.994 287.085 411.531 286.994 415.252H286.994Z" fill="#3F3D56"/>
<path d="M300.81 407.664C300.705 407.664 300.604 407.706 300.53 407.78C300.456 407.854 300.414 407.954 300.414 408.059V412.253L296.32 408.746C296.281 408.712 296.235 408.687 296.186 408.67C296.136 408.654 296.084 408.648 296.032 408.652C295.98 408.655 295.93 408.67 295.883 408.693C295.837 408.716 295.795 408.749 295.761 408.788C295.728 408.828 295.702 408.873 295.686 408.923C295.669 408.972 295.663 409.024 295.667 409.076C295.671 409.128 295.685 409.178 295.709 409.224C295.733 409.271 295.765 409.312 295.805 409.346L300.414 413.294V415.758C300.414 415.81 300.424 415.861 300.444 415.909C300.464 415.957 300.493 416.001 300.53 416.038C300.567 416.075 300.61 416.104 300.658 416.124C300.706 416.144 300.758 416.154 300.81 416.154C300.862 416.154 300.914 416.144 300.962 416.124C301.01 416.104 301.053 416.075 301.09 416.038C301.127 416.001 301.156 415.957 301.176 415.909C301.196 415.861 301.206 415.81 301.206 415.758V408.059C301.206 407.954 301.164 407.854 301.09 407.78C301.016 407.706 300.915 407.664 300.81 407.664Z" fill="#3F3D56"/>
<path d="M65.1733 415.948H35.1992V415.6C35.1983 413.635 35.5852 411.69 36.338 409.874C37.0907 408.059 38.1945 406.409 39.5863 405.02C40.978 403.63 42.6305 402.528 44.4493 401.776C46.2681 401.024 48.2175 400.637 50.1863 400.637C52.155 400.637 54.1044 401.024 55.9232 401.776C57.742 402.528 59.3945 403.63 60.7862 405.02C62.178 406.409 63.2818 408.059 64.0345 409.874C64.7873 411.69 65.1742 413.635 65.1733 415.6L65.1733 415.948ZM35.9004 415.252H64.4721C64.3811 411.531 62.8361 407.994 60.1669 405.394C57.4977 402.795 53.9159 401.339 50.1863 401.339C46.4566 401.339 42.8748 402.795 40.2056 405.394C37.5364 407.994 35.9914 411.531 35.9004 415.252H35.9004Z" fill="#3F3D56"/>
<path d="M49.5307 407.664C49.4258 407.664 49.3251 407.706 49.2509 407.78C49.1767 407.854 49.135 407.954 49.135 408.059V412.253L45.0408 408.746C45.0014 408.712 44.9557 408.687 44.9063 408.67C44.8569 408.654 44.8047 408.648 44.7528 408.652C44.7009 408.655 44.6503 408.67 44.6039 408.693C44.5574 408.716 44.5161 408.749 44.4822 408.788C44.4483 408.828 44.4225 408.873 44.4063 408.923C44.3901 408.972 44.3839 409.024 44.3879 409.076C44.3919 409.128 44.4061 409.178 44.4297 409.224C44.4533 409.271 44.4858 409.312 44.5254 409.346L49.135 413.294V415.758C49.1349 415.81 49.145 415.861 49.1648 415.909C49.1846 415.957 49.2138 416.001 49.2505 416.038C49.2873 416.075 49.3309 416.104 49.379 416.124C49.4271 416.144 49.4786 416.154 49.5307 416.154C49.5827 416.154 49.6343 416.144 49.6824 416.124C49.7304 416.104 49.7741 416.075 49.8109 416.038C49.8476 416.001 49.8768 415.957 49.8966 415.909C49.9164 415.861 49.9265 415.81 49.9263 415.758V408.059C49.9263 407.954 49.8846 407.854 49.8105 407.78C49.7363 407.706 49.6356 407.664 49.5307 407.664Z" fill="#3F3D56"/>
<path d="M70.9864 374.165C70.8475 374.165 70.7123 374.165 70.5734 374.161C61.256 374.056 52.3557 370.29 45.803 363.679C39.2503 357.068 35.5736 348.145 35.5703 338.846C35.5703 328.58 39.8069 312.15 45.8729 298.891C50.2353 289.356 59.2989 273.359 70.9864 273.359C75.8005 273.359 80.6481 276.098 85.3946 281.498C85.63 281.764 85.8659 282.039 86.0984 282.32L86.1781 282.416L86.1781 370.752L85.9816 370.847C85.747 370.96 85.509 371.067 85.2711 371.17C80.8973 373.101 76.1737 374.119 71.3909 374.162C71.2608 374.165 71.1218 374.165 70.9864 374.165ZM70.9864 274.055C59.6886 274.055 50.7999 289.797 46.507 299.18C40.4781 312.358 36.2673 328.669 36.2673 338.846C36.2673 357.723 51.6627 373.253 70.586 373.466C70.727 373.469 70.8586 373.471 70.9956 373.469C71.1221 373.469 71.2519 373.469 71.3783 373.466C76.0691 373.425 80.7019 372.427 84.9917 370.532C85.1562 370.461 85.3194 370.389 85.4811 370.314L85.4811 282.667C85.2793 282.425 85.0752 282.188 84.8712 281.957C80.2622 276.714 75.5909 274.055 70.9864 274.055Z" fill="#3F3D56"/>
<path d="M70.985 349.508C70.9275 349.508 70.8707 349.496 70.8184 349.472C70.766 349.449 70.7195 349.414 70.6818 349.37L50.5155 326.162C50.4461 326.082 50.4114 325.977 50.419 325.871C50.4267 325.766 50.476 325.667 50.5563 325.598C50.6365 325.528 50.7411 325.494 50.847 325.501C50.953 325.508 51.0517 325.557 51.1215 325.637L71.2878 348.846C71.3381 348.904 71.3707 348.975 71.3817 349.051C71.3926 349.127 71.3815 349.204 71.3496 349.274C71.3177 349.344 71.2664 349.403 71.2017 349.445C71.1371 349.486 71.0619 349.508 70.985 349.508V349.508Z" fill="#CCCCCC"/>
<path d="M70.9849 362.903C70.9056 362.903 70.8281 362.879 70.7622 362.835C70.6962 362.792 70.6448 362.729 70.6145 362.656C70.5842 362.583 70.5762 362.502 70.5917 362.425C70.6072 362.347 70.6453 362.276 70.7014 362.22L82.1603 350.784C82.2356 350.71 82.3374 350.668 82.4436 350.668C82.5497 350.668 82.6515 350.71 82.7265 350.785C82.8016 350.86 82.8438 350.962 82.8439 351.068C82.8441 351.173 82.8021 351.275 82.7273 351.35L71.2684 362.786C71.2312 362.823 71.187 362.852 71.1384 362.873C71.0897 362.893 71.0376 362.903 70.9849 362.903Z" fill="#CCCCCC"/>
<path d="M102.474 209.017L102.732 209.525C102.846 209.744 102.906 209.987 102.906 210.234V223.972H115.104V210.234C115.104 209.987 115.164 209.744 115.278 209.525L115.536 209.017H102.474ZM114.407 210.234V223.277H103.603V210.234C103.603 210.059 103.582 209.883 103.54 209.713H114.47C114.428 209.883 114.407 210.059 114.407 210.234ZM117.809 209.017L118.067 209.525C118.181 209.744 118.241 209.987 118.241 210.234V223.972H130.439V210.234C130.439 209.987 130.499 209.744 130.613 209.525L130.871 209.017H117.809ZM129.742 210.234V223.277H118.938V210.234C118.938 210.059 118.917 209.883 118.875 209.713H129.805C129.763 209.883 129.742 210.059 129.742 210.234ZM133.143 209.017L133.401 209.525C133.516 209.744 133.575 209.987 133.576 210.234V223.972H145.774V210.234C145.774 209.987 145.833 209.744 145.948 209.525L146.206 209.017H133.143ZM145.077 210.234V223.277H134.273V210.234C134.273 210.059 134.252 209.883 134.21 209.713H145.139C145.097 209.883 145.076 210.059 145.077 210.234ZM148.478 209.017L148.736 209.525C148.85 209.744 148.91 209.987 148.91 210.234V223.972H161.108V210.234C161.108 209.987 161.168 209.744 161.282 209.525L161.54 209.017H148.478ZM160.411 210.234V223.277H149.607V210.234C149.607 210.059 149.586 209.883 149.544 209.713H160.474C160.432 209.883 160.411 210.059 160.411 210.234ZM163.813 209.017L164.071 209.525C164.185 209.744 164.245 209.987 164.245 210.234V223.972H176.443V210.234C176.443 209.987 176.503 209.744 176.617 209.525L176.875 209.017L163.813 209.017ZM175.746 210.234V223.277H164.942V210.234C164.942 210.059 164.921 209.883 164.879 209.713H175.809C175.767 209.883 175.746 210.059 175.746 210.234ZM179.147 209.017L179.405 209.525C179.52 209.744 179.579 209.987 179.579 210.234V223.972L191.778 223.972V210.234C191.778 209.987 191.837 209.744 191.952 209.525L192.21 209.017H179.147ZM191.08 210.234V223.277L180.277 223.277V210.234C180.277 210.059 180.256 209.883 180.214 209.713H191.143C191.101 209.883 191.08 210.059 191.08 210.234ZM194.482 209.017L194.74 209.525C194.854 209.744 194.914 209.987 194.914 210.234V223.972H207.112V210.234C207.112 209.987 207.172 209.744 207.286 209.525L207.544 209.017H194.482ZM206.415 210.234V223.277H195.611V210.234C195.611 210.059 195.59 209.883 195.548 209.713H206.478C206.436 209.883 206.415 210.059 206.415 210.234ZM209.817 209.017L210.075 209.525C210.189 209.744 210.249 209.987 210.249 210.234V223.972H222.447V210.234C222.447 209.987 222.507 209.744 222.621 209.525L222.879 209.017H209.817ZM221.75 210.234V223.277H210.946V210.234C210.946 210.059 210.925 209.883 210.883 209.713H221.813C221.771 209.883 221.75 210.059 221.75 210.234ZM225.151 209.017L225.409 209.525C225.524 209.744 225.583 209.987 225.583 210.234V223.972H237.781V210.234C237.782 209.987 237.841 209.744 237.956 209.525L238.214 209.017H225.151ZM237.084 210.234V223.277H226.28V210.234C226.281 210.059 226.26 209.883 226.218 209.713H237.147C237.105 209.883 237.084 210.059 237.084 210.234ZM225.151 209.017L225.409 209.525C225.524 209.744 225.583 209.987 225.583 210.234V223.972H237.781V210.234C237.782 209.987 237.841 209.744 237.956 209.525L238.214 209.017H225.151ZM237.084 210.234V223.277H226.28V210.234C226.281 210.059 226.26 209.883 226.218 209.713H237.147C237.105 209.883 237.084 210.059 237.084 210.234ZM209.817 209.017L210.075 209.525C210.189 209.744 210.249 209.987 210.249 210.234V223.972H222.447V210.234C222.447 209.987 222.507 209.744 222.621 209.525L222.879 209.017H209.817ZM221.75 210.234V223.277H210.946V210.234C210.946 210.059 210.925 209.883 210.883 209.713H221.813C221.771 209.883 221.75 210.059 221.75 210.234ZM194.482 209.017L194.74 209.525C194.854 209.744 194.914 209.987 194.914 210.234V223.972H207.112V210.234C207.112 209.987 207.172 209.744 207.286 209.525L207.544 209.017H194.482ZM206.415 210.234V223.277H195.611V210.234C195.611 210.059 195.59 209.883 195.548 209.713H206.478C206.436 209.883 206.415 210.059 206.415 210.234ZM179.147 209.017L179.405 209.525C179.52 209.744 179.579 209.987 179.579 210.234V223.972L191.778 223.972V210.234C191.778 209.987 191.837 209.744 191.952 209.525L192.21 209.017H179.147ZM191.08 210.234V223.277L180.277 223.277V210.234C180.277 210.059 180.256 209.883 180.214 209.713H191.143C191.101 209.883 191.08 210.059 191.08 210.234ZM163.813 209.017L164.071 209.525C164.185 209.744 164.245 209.987 164.245 210.234V223.972H176.443V210.234C176.443 209.987 176.503 209.744 176.617 209.525L176.875 209.017L163.813 209.017ZM175.746 210.234V223.277H164.942V210.234C164.942 210.059 164.921 209.883 164.879 209.713H175.809C175.767 209.883 175.746 210.059 175.746 210.234ZM148.478 209.017L148.736 209.525C148.85 209.744 148.91 209.987 148.91 210.234V223.972H161.108V210.234C161.108 209.987 161.168 209.744 161.282 209.525L161.54 209.017H148.478ZM160.411 210.234V223.277H149.607V210.234C149.607 210.059 149.586 209.883 149.544 209.713H160.474C160.432 209.883 160.411 210.059 160.411 210.234ZM133.143 209.017L133.401 209.525C133.516 209.744 133.575 209.987 133.576 210.234V223.972H145.774V210.234C145.774 209.987 145.833 209.744 145.948 209.525L146.206 209.017H133.143ZM145.077 210.234V223.277H134.273V210.234C134.273 210.059 134.252 209.883 134.21 209.713H145.139C145.097 209.883 145.076 210.059 145.077 210.234ZM117.809 209.017L118.067 209.525C118.181 209.744 118.241 209.987 118.241 210.234V223.972H130.439V210.234C130.439 209.987 130.499 209.744 130.613 209.525L130.871 209.017H117.809ZM129.742 210.234V223.277H118.938V210.234C118.938 210.059 118.917 209.883 118.875 209.713H129.805C129.763 209.883 129.742 210.059 129.742 210.234ZM102.474 209.017L102.732 209.525C102.846 209.744 102.906 209.987 102.906 210.234V223.972H115.104V210.234C115.104 209.987 115.164 209.744 115.278 209.525L115.536 209.017H102.474ZM114.407 210.234V223.277H103.603V210.234C103.603 210.059 103.582 209.883 103.54 209.713H114.47C114.428 209.883 114.407 210.059 114.407 210.234ZM225.151 209.017L225.409 209.525C225.524 209.744 225.583 209.987 225.583 210.234V223.972H237.781V210.234C237.782 209.987 237.841 209.744 237.956 209.525L238.214 209.017H225.151ZM237.084 210.234V223.277H226.28V210.234C226.281 210.059 226.26 209.883 226.218 209.713H237.147C237.105 209.883 237.084 210.059 237.084 210.234ZM209.817 209.017L210.075 209.525C210.189 209.744 210.249 209.987 210.249 210.234V223.972H222.447V210.234C222.447 209.987 222.507 209.744 222.621 209.525L222.879 209.017H209.817ZM221.75 210.234V223.277H210.946V210.234C210.946 210.059 210.925 209.883 210.883 209.713H221.813C221.771 209.883 221.75 210.059 221.75 210.234ZM194.482 209.017L194.74 209.525C194.854 209.744 194.914 209.987 194.914 210.234V223.972H207.112V210.234C207.112 209.987 207.172 209.744 207.286 209.525L207.544 209.017H194.482ZM206.415 210.234V223.277H195.611V210.234C195.611 210.059 195.59 209.883 195.548 209.713H206.478C206.436 209.883 206.415 210.059 206.415 210.234ZM179.147 209.017L179.405 209.525C179.52 209.744 179.579 209.987 179.579 210.234V223.972L191.778 223.972V210.234C191.778 209.987 191.837 209.744 191.952 209.525L192.21 209.017H179.147ZM191.08 210.234V223.277L180.277 223.277V210.234C180.277 210.059 180.256 209.883 180.214 209.713H191.143C191.101 209.883 191.08 210.059 191.08 210.234ZM163.813 209.017L164.071 209.525C164.185 209.744 164.245 209.987 164.245 210.234V223.972H176.443V210.234C176.443 209.987 176.503 209.744 176.617 209.525L176.875 209.017L163.813 209.017ZM175.746 210.234V223.277H164.942V210.234C164.942 210.059 164.921 209.883 164.879 209.713H175.809C175.767 209.883 175.746 210.059 175.746 210.234ZM148.478 209.017L148.736 209.525C148.85 209.744 148.91 209.987 148.91 210.234V223.972H161.108V210.234C161.108 209.987 161.168 209.744 161.282 209.525L161.54 209.017H148.478ZM160.411 210.234V223.277H149.607V210.234C149.607 210.059 149.586 209.883 149.544 209.713H160.474C160.432 209.883 160.411 210.059 160.411 210.234ZM133.143 209.017L133.401 209.525C133.516 209.744 133.575 209.987 133.576 210.234V223.972H145.774V210.234C145.774 209.987 145.833 209.744 145.948 209.525L146.206 209.017H133.143ZM145.077 210.234V223.277H134.273V210.234C134.273 210.059 134.252 209.883 134.21 209.713H145.139C145.097 209.883 145.076 210.059 145.077 210.234ZM117.809 209.017L118.067 209.525C118.181 209.744 118.241 209.987 118.241 210.234V223.972H130.439V210.234C130.439 209.987 130.499 209.744 130.613 209.525L130.871 209.017H117.809ZM129.742 210.234V223.277H118.938V210.234C118.938 210.059 118.917 209.883 118.875 209.713H129.805C129.763 209.883 129.742 210.059 129.742 210.234ZM102.474 209.017L102.732 209.525C102.846 209.744 102.906 209.987 102.906 210.234V223.972H115.104V210.234C115.104 209.987 115.164 209.744 115.278 209.525L115.536 209.017H102.474ZM114.407 210.234V223.277H103.603V210.234C103.603 210.059 103.582 209.883 103.54 209.713H114.47C114.428 209.883 114.407 210.059 114.407 210.234ZM225.151 209.017L225.409 209.525C225.524 209.744 225.583 209.987 225.583 210.234V223.972H237.781V210.234C237.782 209.987 237.841 209.744 237.956 209.525L238.214 209.017H225.151ZM237.084 210.234V223.277H226.28V210.234C226.281 210.059 226.26 209.883 226.218 209.713H237.147C237.105 209.883 237.084 210.059 237.084 210.234ZM209.817 209.017L210.075 209.525C210.189 209.744 210.249 209.987 210.249 210.234V223.972H222.447V210.234C222.447 209.987 222.507 209.744 222.621 209.525L222.879 209.017H209.817ZM221.75 210.234V223.277H210.946V210.234C210.946 210.059 210.925 209.883 210.883 209.713H221.813C221.771 209.883 221.75 210.059 221.75 210.234ZM194.482 209.017L194.74 209.525C194.854 209.744 194.914 209.987 194.914 210.234V223.972H207.112V210.234C207.112 209.987 207.172 209.744 207.286 209.525L207.544 209.017H194.482ZM206.415 210.234V223.277H195.611V210.234C195.611 210.059 195.59 209.883 195.548 209.713H206.478C206.436 209.883 206.415 210.059 206.415 210.234ZM179.147 209.017L179.405 209.525C179.52 209.744 179.579 209.987 179.579 210.234V223.972L191.778 223.972V210.234C191.778 209.987 191.837 209.744 191.952 209.525L192.21 209.017H179.147ZM191.08 210.234V223.277L180.277 223.277V210.234C180.277 210.059 180.256 209.883 180.214 209.713H191.143C191.101 209.883 191.08 210.059 191.08 210.234ZM163.813 209.017L164.071 209.525C164.185 209.744 164.245 209.987 164.245 210.234V223.972H176.443V210.234C176.443 209.987 176.503 209.744 176.617 209.525L176.875 209.017L163.813 209.017ZM175.746 210.234V223.277H164.942V210.234C164.942 210.059 164.921 209.883 164.879 209.713H175.809C175.767 209.883 175.746 210.059 175.746 210.234ZM148.478 209.017L148.736 209.525C148.85 209.744 148.91 209.987 148.91 210.234V223.972H161.108V210.234C161.108 209.987 161.168 209.744 161.282 209.525L161.54 209.017H148.478ZM160.411 210.234V223.277H149.607V210.234C149.607 210.059 149.586 209.883 149.544 209.713H160.474C160.432 209.883 160.411 210.059 160.411 210.234ZM133.143 209.017L133.401 209.525C133.516 209.744 133.575 209.987 133.576 210.234V223.972H145.774V210.234C145.774 209.987 145.833 209.744 145.948 209.525L146.206 209.017H133.143ZM145.077 210.234V223.277H134.273V210.234C134.273 210.059 134.252 209.883 134.21 209.713H145.139C145.097 209.883 145.076 210.059 145.077 210.234ZM117.809 209.017L118.067 209.525C118.181 209.744 118.241 209.987 118.241 210.234V223.972H130.439V210.234C130.439 209.987 130.499 209.744 130.613 209.525L130.871 209.017H117.809ZM129.742 210.234V223.277H118.938V210.234C118.938 210.059 118.917 209.883 118.875 209.713H129.805C129.763 209.883 129.742 210.059 129.742 210.234ZM102.474 209.017L102.732 209.525C102.846 209.744 102.906 209.987 102.906 210.234V223.972H115.104V210.234C115.104 209.987 115.164 209.744 115.278 209.525L115.536 209.017H102.474ZM114.407 210.234V223.277H103.603V210.234C103.603 210.059 103.582 209.883 103.54 209.713H114.47C114.428 209.883 114.407 210.059 114.407 210.234ZM225.151 209.017L225.409 209.525C225.524 209.744 225.583 209.987 225.583 210.234V223.972H237.781V210.234C237.782 209.987 237.841 209.744 237.956 209.525L238.214 209.017H225.151ZM237.084 210.234V223.277H226.28V210.234C226.281 210.059 226.26 209.883 226.218 209.713H237.147C237.105 209.883 237.084 210.059 237.084 210.234ZM209.817 209.017L210.075 209.525C210.189 209.744 210.249 209.987 210.249 210.234V223.972H222.447V210.234C222.447 209.987 222.507 209.744 222.621 209.525L222.879 209.017H209.817ZM221.75 210.234V223.277H210.946V210.234C210.946 210.059 210.925 209.883 210.883 209.713H221.813C221.771 209.883 221.75 210.059 221.75 210.234ZM194.482 209.017L194.74 209.525C194.854 209.744 194.914 209.987 194.914 210.234V223.972H207.112V210.234C207.112 209.987 207.172 209.744 207.286 209.525L207.544 209.017H194.482ZM206.415 210.234V223.277H195.611V210.234C195.611 210.059 195.59 209.883 195.548 209.713H206.478C206.436 209.883 206.415 210.059 206.415 210.234ZM179.147 209.017L179.405 209.525C179.52 209.744 179.579 209.987 179.579 210.234V223.972L191.778 223.972V210.234C191.778 209.987 191.837 209.744 191.952 209.525L192.21 209.017H179.147ZM191.08 210.234V223.277L180.277 223.277V210.234C180.277 210.059 180.256 209.883 180.214 209.713H191.143C191.101 209.883 191.08 210.059 191.08 210.234ZM163.813 209.017L164.071 209.525C164.185 209.744 164.245 209.987 164.245 210.234V223.972H176.443V210.234C176.443 209.987 176.503 209.744 176.617 209.525L176.875 209.017L163.813 209.017ZM175.746 210.234V223.277H164.942V210.234C164.942 210.059 164.921 209.883 164.879 209.713H175.809C175.767 209.883 175.746 210.059 175.746 210.234ZM148.478 209.017L148.736 209.525C148.85 209.744 148.91 209.987 148.91 210.234V223.972H161.108V210.234C161.108 209.987 161.168 209.744 161.282 209.525L161.54 209.017H148.478ZM160.411 210.234V223.277H149.607V210.234C149.607 210.059 149.586 209.883 149.544 209.713H160.474C160.432 209.883 160.411 210.059 160.411 210.234ZM133.143 209.017L133.401 209.525C133.516 209.744 133.575 209.987 133.576 210.234V223.972H145.774V210.234C145.774 209.987 145.833 209.744 145.948 209.525L146.206 209.017H133.143ZM145.077 210.234V223.277H134.273V210.234C134.273 210.059 134.252 209.883 134.21 209.713H145.139C145.097 209.883 145.076 210.059 145.077 210.234ZM117.809 209.017L118.067 209.525C118.181 209.744 118.241 209.987 118.241 210.234V223.972H130.439V210.234C130.439 209.987 130.499 209.744 130.613 209.525L130.871 209.017H117.809ZM129.742 210.234V223.277H118.938V210.234C118.938 210.059 118.917 209.883 118.875 209.713H129.805C129.763 209.883 129.742 210.059 129.742 210.234ZM102.474 209.017L102.732 209.525C102.846 209.744 102.906 209.987 102.906 210.234V223.972H115.104V210.234C115.104 209.987 115.164 209.744 115.278 209.525L115.536 209.017H102.474ZM114.407 210.234V223.277H103.603V210.234C103.603 210.059 103.582 209.883 103.54 209.713H114.47C114.428 209.883 114.407 210.059 114.407 210.234ZM225.151 209.017L225.409 209.525C225.524 209.744 225.583 209.987 225.583 210.234V223.972H237.781V210.234C237.782 209.987 237.841 209.744 237.956 209.525L238.214 209.017H225.151ZM237.084 210.234V223.277H226.28V210.234C226.281 210.059 226.26 209.883 226.218 209.713H237.147C237.105 209.883 237.084 210.059 237.084 210.234ZM210.075 209.525C210.189 209.744 210.249 209.987 210.249 210.234V223.972H222.447V210.234C222.447 209.987 222.507 209.744 222.621 209.525L222.879 209.017H209.817L210.075 209.525ZM221.813 209.713C221.771 209.883 221.75 210.059 221.75 210.234V223.277H210.946V210.234C210.946 210.059 210.925 209.883 210.883 209.713H221.813ZM194.74 209.525C194.854 209.744 194.914 209.987 194.914 210.234V223.972H207.112V210.234C207.112 209.987 207.172 209.744 207.286 209.525L207.544 209.017H194.482L194.74 209.525ZM206.478 209.713C206.436 209.883 206.415 210.059 206.415 210.234V223.277H195.611V210.234C195.611 210.059 195.59 209.883 195.548 209.713H206.478ZM179.405 209.525C179.52 209.744 179.579 209.987 179.579 210.234V223.972L191.778 223.972V210.234C191.778 209.987 191.837 209.744 191.952 209.525L192.21 209.017H179.147L179.405 209.525ZM191.143 209.713C191.101 209.883 191.08 210.059 191.08 210.234V223.277L180.277 223.277V210.234C180.277 210.059 180.256 209.883 180.214 209.713H191.143ZM164.071 209.525C164.185 209.744 164.245 209.987 164.245 210.234V223.972H176.443V210.234C176.443 209.987 176.503 209.744 176.617 209.525L176.875 209.017L163.813 209.017L164.071 209.525ZM175.809 209.713C175.767 209.883 175.746 210.059 175.746 210.234V223.277H164.942V210.234C164.942 210.059 164.921 209.883 164.879 209.713H175.809ZM148.736 209.525C148.85 209.744 148.91 209.987 148.91 210.234V223.972H161.108V210.234C161.108 209.987 161.168 209.744 161.282 209.525L161.54 209.017H148.478L148.736 209.525ZM160.474 209.713C160.432 209.883 160.411 210.059 160.411 210.234V223.277H149.607V210.234C149.607 210.059 149.586 209.883 149.544 209.713H160.474ZM133.401 209.525C133.516 209.744 133.575 209.987 133.576 210.234V223.972H145.774V210.234C145.774 209.987 145.833 209.744 145.948 209.525L146.206 209.017H133.143L133.401 209.525ZM145.139 209.713C145.097 209.883 145.076 210.059 145.077 210.234V223.277H134.273V210.234C134.273 210.059 134.252 209.883 134.21 209.713H145.139ZM118.067 209.525C118.181 209.744 118.241 209.987 118.241 210.234V223.972H130.439V210.234C130.439 209.987 130.499 209.744 130.613 209.525L130.871 209.017H117.809L118.067 209.525ZM129.805 209.713C129.763 209.883 129.742 210.059 129.742 210.234V223.277H118.938V210.234C118.938 210.059 118.917 209.883 118.875 209.713H129.805ZM102.732 209.525C102.846 209.744 102.906 209.987 102.906 210.234V223.972H115.104V210.234C115.104 209.987 115.164 209.744 115.278 209.525L115.536 209.017H102.474L102.732 209.525ZM114.47 209.713C114.428 209.883 114.407 210.059 114.407 210.234V223.277H103.603V210.234C103.603 210.059 103.582 209.883 103.54 209.713H114.47ZM225.409 209.525C225.524 209.744 225.583 209.987 225.583 210.234V223.972H237.781V210.234C237.782 209.987 237.841 209.744 237.956 209.525L238.214 209.017H225.151L225.409 209.525ZM237.147 209.713C237.105 209.883 237.084 210.059 237.084 210.234V223.277H226.28V210.234C226.281 210.059 226.26 209.883 226.218 209.713H237.147ZM210.075 209.525C210.189 209.744 210.249 209.987 210.249 210.234V223.972H222.447V210.234C222.447 209.987 222.507 209.744 222.621 209.525L222.879 209.017H209.817L210.075 209.525ZM221.813 209.713C221.771 209.883 221.75 210.059 221.75 210.234V223.277H210.946V210.234C210.946 210.059 210.925 209.883 210.883 209.713H221.813ZM194.74 209.525C194.854 209.744 194.914 209.987 194.914 210.234V223.972H207.112V210.234C207.112 209.987 207.172 209.744 207.286 209.525L207.544 209.017H194.482L194.74 209.525ZM206.478 209.713C206.436 209.883 206.415 210.059 206.415 210.234V223.277H195.611V210.234C195.611 210.059 195.59 209.883 195.548 209.713H206.478ZM179.405 209.525C179.52 209.744 179.579 209.987 179.579 210.234V223.972L191.778 223.972V210.234C191.778 209.987 191.837 209.744 191.952 209.525L192.21 209.017H179.147L179.405 209.525ZM191.143 209.713C191.101 209.883 191.08 210.059 191.08 210.234V223.277L180.277 223.277V210.234C180.277 210.059 180.256 209.883 180.214 209.713H191.143ZM164.071 209.525C164.185 209.744 164.245 209.987 164.245 210.234V223.972H176.443V210.234C176.443 209.987 176.503 209.744 176.617 209.525L176.875 209.017L163.813 209.017L164.071 209.525ZM175.809 209.713C175.767 209.883 175.746 210.059 175.746 210.234V223.277H164.942V210.234C164.942 210.059 164.921 209.883 164.879 209.713H175.809ZM148.736 209.525C148.85 209.744 148.91 209.987 148.91 210.234V223.972H161.108V210.234C161.108 209.987 161.168 209.744 161.282 209.525L161.54 209.017H148.478L148.736 209.525ZM160.474 209.713C160.432 209.883 160.411 210.059 160.411 210.234V223.277H149.607V210.234C149.607 210.059 149.586 209.883 149.544 209.713H160.474ZM133.401 209.525C133.516 209.744 133.575 209.987 133.576 210.234V223.972H145.774V210.234C145.774 209.987 145.833 209.744 145.948 209.525L146.206 209.017H133.143L133.401 209.525ZM145.139 209.713C145.097 209.883 145.076 210.059 145.077 210.234V223.277H134.273V210.234C134.273 210.059 134.252 209.883 134.21 209.713H145.139ZM118.067 209.525C118.181 209.744 118.241 209.987 118.241 210.234V223.972H130.439V210.234C130.439 209.987 130.499 209.744 130.613 209.525L130.871 209.017H117.809L118.067 209.525ZM129.805 209.713C129.763 209.883 129.742 210.059 129.742 210.234V223.277H118.938V210.234C118.938 210.059 118.917 209.883 118.875 209.713H129.805ZM102.732 209.525C102.846 209.744 102.906 209.987 102.906 210.234V223.972H115.104V210.234C115.104 209.987 115.164 209.744 115.278 209.525L115.536 209.017H102.474L102.732 209.525ZM114.47 209.713C114.428 209.883 114.407 210.059 114.407 210.234V223.277H103.603V210.234C103.603 210.059 103.582 209.883 103.54 209.713H114.47ZM251.722 226.059H247.568C247.339 225.259 246.855 224.555 246.19 224.053C245.525 223.551 244.714 223.279 243.88 223.277H241.615V210.234C241.616 209.954 241.563 209.677 241.458 209.417C241.853 209.185 242.161 208.83 242.333 208.406C242.505 207.982 242.533 207.514 242.412 207.073C242.292 206.631 242.029 206.242 241.664 205.965C241.299 205.688 240.854 205.538 240.395 205.539L100.292 205.539C99.8341 205.538 99.3883 205.688 99.0237 205.965C98.6592 206.242 98.3961 206.631 98.2752 207.073C98.1543 207.514 98.1823 207.982 98.3547 208.406C98.5272 208.83 98.8346 209.185 99.2295 209.417C99.1249 209.677 99.0716 209.954 99.0725 210.234V223.277H96.8072C95.9734 223.279 95.1628 223.551 94.4977 224.053C93.8326 224.555 93.349 225.259 93.1199 226.059H88.6171C87.7856 226.06 86.9885 226.391 86.4006 226.977C85.8126 227.564 85.4817 228.36 85.4805 229.189L85.4805 412.826C85.4823 413.656 85.8133 414.451 86.4012 415.038C86.989 415.624 87.7858 415.955 88.6171 415.957H251.722C252.554 415.955 253.351 415.625 253.939 415.038C254.527 414.452 254.857 413.656 254.859 412.826L254.859 229.189C254.857 228.36 254.527 227.564 253.939 226.977C253.351 226.391 252.554 226.06 251.722 226.059ZM254.162 412.826C254.161 413.323 254.008 413.808 253.724 414.216C253.439 414.624 253.036 414.935 252.569 415.108C252.299 415.211 252.011 415.263 251.722 415.261H88.6171C88.3277 415.263 88.0406 415.211 87.7702 415.108C87.3032 414.935 86.9003 414.624 86.6156 414.216C86.331 413.808 86.1781 413.323 86.1775 412.826L86.1775 229.189C86.1782 228.544 86.4355 227.925 86.8928 227.469C87.3502 227.012 87.9703 226.755 88.6171 226.755H93.6775L93.7334 226.476C93.8799 225.77 94.2654 225.136 94.8251 224.68C95.3848 224.224 96.0847 223.974 96.8072 223.972H99.7696V210.234C99.7697 209.951 99.8468 209.674 99.9927 209.431L100.209 209.073L99.8148 208.927C99.5071 208.815 99.2485 208.599 99.0848 208.316C98.921 208.033 98.8625 207.702 98.9196 207.38C98.9766 207.059 99.1456 206.767 99.3967 206.558C99.6478 206.348 99.965 206.234 100.292 206.235L240.395 206.235C240.723 206.234 241.04 206.348 241.291 206.558C241.542 206.767 241.711 207.059 241.768 207.38C241.825 207.702 241.767 208.033 241.603 208.316C241.439 208.599 241.181 208.815 240.873 208.927L240.479 209.073L240.695 209.431C240.841 209.674 240.918 209.951 240.918 210.234V223.972H243.88C244.603 223.974 245.303 224.224 245.863 224.68C246.422 225.136 246.808 225.77 246.954 226.476L247.01 226.755H251.722C252.369 226.755 252.989 227.012 253.446 227.469C253.904 227.925 254.161 228.544 254.162 229.189L254.162 412.826ZM102.474 209.017L102.732 209.525C102.846 209.744 102.906 209.987 102.906 210.234V223.972H115.104V210.234C115.104 209.987 115.164 209.744 115.278 209.525L115.536 209.017H102.474ZM114.407 210.234V223.277H103.603V210.234C103.603 210.059 103.582 209.883 103.54 209.713H114.47C114.428 209.883 114.407 210.059 114.407 210.234ZM117.809 209.017L118.067 209.525C118.181 209.744 118.241 209.987 118.241 210.234V223.972H130.439V210.234C130.439 209.987 130.499 209.744 130.613 209.525L130.871 209.017H117.809ZM129.742 210.234V223.277H118.938V210.234C118.938 210.059 118.917 209.883 118.875 209.713H129.805C129.763 209.883 129.742 210.059 129.742 210.234ZM133.143 209.017L133.401 209.525C133.516 209.744 133.575 209.987 133.576 210.234V223.972H145.774V210.234C145.774 209.987 145.833 209.744 145.948 209.525L146.206 209.017H133.143ZM145.077 210.234V223.277H134.273V210.234C134.273 210.059 134.252 209.883 134.21 209.713H145.139C145.097 209.883 145.076 210.059 145.077 210.234ZM148.478 209.017L148.736 209.525C148.85 209.744 148.91 209.987 148.91 210.234V223.972H161.108V210.234C161.108 209.987 161.168 209.744 161.282 209.525L161.54 209.017H148.478ZM160.411 210.234V223.277H149.607V210.234C149.607 210.059 149.586 209.883 149.544 209.713H160.474C160.432 209.883 160.411 210.059 160.411 210.234ZM163.813 209.017L164.071 209.525C164.185 209.744 164.245 209.987 164.245 210.234V223.972H176.443V210.234C176.443 209.987 176.503 209.744 176.617 209.525L176.875 209.017L163.813 209.017ZM175.746 210.234V223.277H164.942V210.234C164.942 210.059 164.921 209.883 164.879 209.713H175.809C175.767 209.883 175.746 210.059 175.746 210.234ZM179.147 209.017L179.405 209.525C179.52 209.744 179.579 209.987 179.579 210.234V223.972L191.778 223.972V210.234C191.778 209.987 191.837 209.744 191.952 209.525L192.21 209.017H179.147ZM191.08 210.234V223.277L180.277 223.277V210.234C180.277 210.059 180.256 209.883 180.214 209.713H191.143C191.101 209.883 191.08 210.059 191.08 210.234ZM194.482 209.017L194.74 209.525C194.854 209.744 194.914 209.987 194.914 210.234V223.972H207.112V210.234C207.112 209.987 207.172 209.744 207.286 209.525L207.544 209.017H194.482ZM206.415 210.234V223.277H195.611V210.234C195.611 210.059 195.59 209.883 195.548 209.713H206.478C206.436 209.883 206.415 210.059 206.415 210.234ZM209.817 209.017L210.075 209.525C210.189 209.744 210.249 209.987 210.249 210.234V223.972H222.447V210.234C222.447 209.987 222.507 209.744 222.621 209.525L222.879 209.017H209.817ZM221.75 210.234V223.277H210.946V210.234C210.946 210.059 210.925 209.883 210.883 209.713H221.813C221.771 209.883 221.75 210.059 221.75 210.234ZM225.151 209.017L225.409 209.525C225.524 209.744 225.583 209.987 225.583 210.234V223.972H237.781V210.234C237.782 209.987 237.841 209.744 237.956 209.525L238.214 209.017H225.151ZM237.084 210.234V223.277H226.28V210.234C226.281 210.059 226.26 209.883 226.218 209.713H237.147C237.105 209.883 237.084 210.059 237.084 210.234ZM102.474 209.017L102.732 209.525C102.846 209.744 102.906 209.987 102.906 210.234V223.972H115.104V210.234C115.104 209.987 115.164 209.744 115.278 209.525L115.536 209.017H102.474ZM114.407 210.234V223.277H103.603V210.234C103.603 210.059 103.582 209.883 103.54 209.713H114.47C114.428 209.883 114.407 210.059 114.407 210.234ZM117.809 209.017L118.067 209.525C118.181 209.744 118.241 209.987 118.241 210.234V223.972H130.439V210.234C130.439 209.987 130.499 209.744 130.613 209.525L130.871 209.017H117.809ZM129.742 210.234V223.277H118.938V210.234C118.938 210.059 118.917 209.883 118.875 209.713H129.805C129.763 209.883 129.742 210.059 129.742 210.234ZM133.143 209.017L133.401 209.525C133.516 209.744 133.575 209.987 133.576 210.234V223.972H145.774V210.234C145.774 209.987 145.833 209.744 145.948 209.525L146.206 209.017H133.143ZM145.077 210.234V223.277H134.273V210.234C134.273 210.059 134.252 209.883 134.21 209.713H145.139C145.097 209.883 145.076 210.059 145.077 210.234ZM148.478 209.017L148.736 209.525C148.85 209.744 148.91 209.987 148.91 210.234V223.972H161.108V210.234C161.108 209.987 161.168 209.744 161.282 209.525L161.54 209.017H148.478ZM160.411 210.234V223.277H149.607V210.234C149.607 210.059 149.586 209.883 149.544 209.713H160.474C160.432 209.883 160.411 210.059 160.411 210.234ZM163.813 209.017L164.071 209.525C164.185 209.744 164.245 209.987 164.245 210.234V223.972H176.443V210.234C176.443 209.987 176.503 209.744 176.617 209.525L176.875 209.017L163.813 209.017ZM175.746 210.234V223.277H164.942V210.234C164.942 210.059 164.921 209.883 164.879 209.713H175.809C175.767 209.883 175.746 210.059 175.746 210.234ZM179.147 209.017L179.405 209.525C179.52 209.744 179.579 209.987 179.579 210.234V223.972L191.778 223.972V210.234C191.778 209.987 191.837 209.744 191.952 209.525L192.21 209.017H179.147ZM191.08 210.234V223.277L180.277 223.277V210.234C180.277 210.059 180.256 209.883 180.214 209.713H191.143C191.101 209.883 191.08 210.059 191.08 210.234ZM194.482 209.017L194.74 209.525C194.854 209.744 194.914 209.987 194.914 210.234V223.972H207.112V210.234C207.112 209.987 207.172 209.744 207.286 209.525L207.544 209.017H194.482ZM206.415 210.234V223.277H195.611V210.234C195.611 210.059 195.59 209.883 195.548 209.713H206.478C206.436 209.883 206.415 210.059 206.415 210.234ZM209.817 209.017L210.075 209.525C210.189 209.744 210.249 209.987 210.249 210.234V223.972H222.447V210.234C222.447 209.987 222.507 209.744 222.621 209.525L222.879 209.017H209.817ZM221.75 210.234V223.277H210.946V210.234C210.946 210.059 210.925 209.883 210.883 209.713H221.813C221.771 209.883 221.75 210.059 221.75 210.234ZM225.151 209.017L225.409 209.525C225.524 209.744 225.583 209.987 225.583 210.234V223.972H237.781V210.234C237.782 209.987 237.841 209.744 237.956 209.525L238.214 209.017H225.151ZM237.084 210.234V223.277H226.28V210.234C226.281 210.059 226.26 209.883 226.218 209.713H237.147C237.105 209.883 237.084 210.059 237.084 210.234ZM102.474 209.017L102.732 209.525C102.846 209.744 102.906 209.987 102.906 210.234V223.972H115.104V210.234C115.104 209.987 115.164 209.744 115.278 209.525L115.536 209.017H102.474ZM114.407 210.234V223.277H103.603V210.234C103.603 210.059 103.582 209.883 103.54 209.713H114.47C114.428 209.883 114.407 210.059 114.407 210.234ZM117.809 209.017L118.067 209.525C118.181 209.744 118.241 209.987 118.241 210.234V223.972H130.439V210.234C130.439 209.987 130.499 209.744 130.613 209.525L130.871 209.017H117.809ZM129.742 210.234V223.277H118.938V210.234C118.938 210.059 118.917 209.883 118.875 209.713H129.805C129.763 209.883 129.742 210.059 129.742 210.234ZM133.143 209.017L133.401 209.525C133.516 209.744 133.575 209.987 133.576 210.234V223.972H145.774V210.234C145.774 209.987 145.833 209.744 145.948 209.525L146.206 209.017H133.143ZM145.077 210.234V223.277H134.273V210.234C134.273 210.059 134.252 209.883 134.21 209.713H145.139C145.097 209.883 145.076 210.059 145.077 210.234ZM148.478 209.017L148.736 209.525C148.85 209.744 148.91 209.987 148.91 210.234V223.972H161.108V210.234C161.108 209.987 161.168 209.744 161.282 209.525L161.54 209.017H148.478ZM160.411 210.234V223.277H149.607V210.234C149.607 210.059 149.586 209.883 149.544 209.713H160.474C160.432 209.883 160.411 210.059 160.411 210.234ZM163.813 209.017L164.071 209.525C164.185 209.744 164.245 209.987 164.245 210.234V223.972H176.443V210.234C176.443 209.987 176.503 209.744 176.617 209.525L176.875 209.017L163.813 209.017ZM175.746 210.234V223.277H164.942V210.234C164.942 210.059 164.921 209.883 164.879 209.713H175.809C175.767 209.883 175.746 210.059 175.746 210.234ZM179.147 209.017L179.405 209.525C179.52 209.744 179.579 209.987 179.579 210.234V223.972L191.778 223.972V210.234C191.778 209.987 191.837 209.744 191.952 209.525L192.21 209.017H179.147ZM191.08 210.234V223.277L180.277 223.277V210.234C180.277 210.059 180.256 209.883 180.214 209.713H191.143C191.101 209.883 191.08 210.059 191.08 210.234ZM194.482 209.017L194.74 209.525C194.854 209.744 194.914 209.987 194.914 210.234V223.972H207.112V210.234C207.112 209.987 207.172 209.744 207.286 209.525L207.544 209.017H194.482ZM206.415 210.234V223.277H195.611V210.234C195.611 210.059 195.59 209.883 195.548 209.713H206.478C206.436 209.883 206.415 210.059 206.415 210.234ZM209.817 209.017L210.075 209.525C210.189 209.744 210.249 209.987 210.249 210.234V223.972H222.447V210.234C222.447 209.987 222.507 209.744 222.621 209.525L222.879 209.017H209.817ZM221.75 210.234V223.277H210.946V210.234C210.946 210.059 210.925 209.883 210.883 209.713H221.813C221.771 209.883 221.75 210.059 221.75 210.234ZM225.151 209.017L225.409 209.525C225.524 209.744 225.583 209.987 225.583 210.234V223.972H237.781V210.234C237.782 209.987 237.841 209.744 237.956 209.525L238.214 209.017H225.151ZM237.084 210.234V223.277H226.28V210.234C226.281 210.059 226.26 209.883 226.218 209.713H237.147C237.105 209.883 237.084 210.059 237.084 210.234ZM102.474 209.017L102.732 209.525C102.846 209.744 102.906 209.987 102.906 210.234V223.972H115.104V210.234C115.104 209.987 115.164 209.744 115.278 209.525L115.536 209.017H102.474ZM114.407 210.234V223.277H103.603V210.234C103.603 210.059 103.582 209.883 103.54 209.713H114.47C114.428 209.883 114.407 210.059 114.407 210.234ZM117.809 209.017L118.067 209.525C118.181 209.744 118.241 209.987 118.241 210.234V223.972H130.439V210.234C130.439 209.987 130.499 209.744 130.613 209.525L130.871 209.017H117.809ZM129.742 210.234V223.277H118.938V210.234C118.938 210.059 118.917 209.883 118.875 209.713H129.805C129.763 209.883 129.742 210.059 129.742 210.234ZM133.143 209.017L133.401 209.525C133.516 209.744 133.575 209.987 133.576 210.234V223.972H145.774V210.234C145.774 209.987 145.833 209.744 145.948 209.525L146.206 209.017H133.143ZM145.077 210.234V223.277H134.273V210.234C134.273 210.059 134.252 209.883 134.21 209.713H145.139C145.097 209.883 145.076 210.059 145.077 210.234ZM148.478 209.017L148.736 209.525C148.85 209.744 148.91 209.987 148.91 210.234V223.972H161.108V210.234C161.108 209.987 161.168 209.744 161.282 209.525L161.54 209.017H148.478ZM160.411 210.234V223.277H149.607V210.234C149.607 210.059 149.586 209.883 149.544 209.713H160.474C160.432 209.883 160.411 210.059 160.411 210.234ZM163.813 209.017L164.071 209.525C164.185 209.744 164.245 209.987 164.245 210.234V223.972H176.443V210.234C176.443 209.987 176.503 209.744 176.617 209.525L176.875 209.017L163.813 209.017ZM175.746 210.234V223.277H164.942V210.234C164.942 210.059 164.921 209.883 164.879 209.713H175.809C175.767 209.883 175.746 210.059 175.746 210.234ZM179.147 209.017L179.405 209.525C179.52 209.744 179.579 209.987 179.579 210.234V223.972L191.778 223.972V210.234C191.778 209.987 191.837 209.744 191.952 209.525L192.21 209.017H179.147ZM191.08 210.234V223.277L180.277 223.277V210.234C180.277 210.059 180.256 209.883 180.214 209.713H191.143C191.101 209.883 191.08 210.059 191.08 210.234ZM194.482 209.017L194.74 209.525C194.854 209.744 194.914 209.987 194.914 210.234V223.972H207.112V210.234C207.112 209.987 207.172 209.744 207.286 209.525L207.544 209.017H194.482ZM206.415 210.234V223.277H195.611V210.234C195.611 210.059 195.59 209.883 195.548 209.713H206.478C206.436 209.883 206.415 210.059 206.415 210.234ZM209.817 209.017L210.075 209.525C210.189 209.744 210.249 209.987 210.249 210.234V223.972H222.447V210.234C222.447 209.987 222.507 209.744 222.621 209.525L222.879 209.017H209.817ZM221.75 210.234V223.277H210.946V210.234C210.946 210.059 210.925 209.883 210.883 209.713H221.813C221.771 209.883 221.75 210.059 221.75 210.234ZM225.151 209.017L225.409 209.525C225.524 209.744 225.583 209.987 225.583 210.234V223.972H237.781V210.234C237.782 209.987 237.841 209.744 237.956 209.525L238.214 209.017H225.151ZM237.084 210.234V223.277H226.28V210.234C226.281 210.059 226.26 209.883 226.218 209.713H237.147C237.105 209.883 237.084 210.059 237.084 210.234Z" fill="#3F3D56"/>
<path d="M143.91 269.882H118.21C117.668 269.882 117.149 269.667 116.767 269.285C116.384 268.903 116.169 268.385 116.168 267.845V254.182C116.169 253.642 116.384 253.124 116.767 252.742C117.149 252.36 117.668 252.145 118.21 252.145H143.91C144.452 252.145 144.97 252.36 145.353 252.742C145.736 253.124 145.951 253.642 145.952 254.182V267.845C145.951 268.385 145.736 268.903 145.353 269.285C144.97 269.667 144.452 269.882 143.91 269.882Z" fill="#6C63FF"/>
<path d="M183.02 269.882H157.319C156.778 269.882 156.259 269.667 155.876 269.285C155.493 268.903 155.278 268.385 155.277 267.845V254.182C155.278 253.642 155.493 253.124 155.876 252.742C156.259 252.36 156.778 252.145 157.319 252.145H183.02C183.561 252.145 184.08 252.36 184.463 252.742C184.845 253.124 185.061 253.642 185.061 254.182V267.845C185.061 268.385 184.845 268.903 184.463 269.285C184.08 269.667 183.561 269.882 183.02 269.882Z" fill="#6C63FF"/>
<path d="M222.131 269.882H196.43C195.889 269.882 195.37 269.667 194.987 269.285C194.605 268.903 194.389 268.385 194.389 267.845V254.182C194.389 253.642 194.605 253.124 194.987 252.742C195.37 252.36 195.889 252.145 196.43 252.145H222.131C222.672 252.145 223.191 252.36 223.574 252.742C223.957 253.124 224.172 253.642 224.173 254.182V267.845C224.172 268.385 223.957 268.903 223.574 269.285C223.191 269.667 222.672 269.882 222.131 269.882Z" fill="#6C63FF"/>
<path d="M143.91 315.445H118.21C117.668 315.444 117.149 315.229 116.767 314.847C116.384 314.465 116.169 313.947 116.168 313.407V299.744C116.169 299.204 116.384 298.686 116.767 298.304C117.149 297.922 117.668 297.708 118.21 297.707H143.91C144.452 297.708 144.97 297.922 145.353 298.304C145.736 298.686 145.951 299.204 145.952 299.744V313.407C145.951 313.947 145.736 314.465 145.353 314.847C144.97 315.229 144.452 315.444 143.91 315.445Z" fill="#6C63FF"/>
<path d="M183.02 315.445H157.319C156.778 315.444 156.259 315.229 155.876 314.847C155.493 314.465 155.278 313.947 155.277 313.407V299.744C155.278 299.204 155.493 298.686 155.876 298.304C156.259 297.922 156.778 297.708 157.319 297.707H183.02C183.561 297.708 184.08 297.922 184.463 298.304C184.845 298.686 185.061 299.204 185.061 299.744V313.407C185.061 313.947 184.845 314.465 184.463 314.847C184.08 315.229 183.561 315.444 183.02 315.445Z" fill="#6C63FF"/>
<path d="M222.131 315.445H196.43C195.889 315.444 195.37 315.229 194.987 314.847C194.605 314.465 194.389 313.947 194.389 313.407V299.744C194.389 299.204 194.605 298.686 194.987 298.304C195.37 297.922 195.889 297.708 196.43 297.707H222.131C222.672 297.708 223.191 297.922 223.574 298.304C223.957 298.686 224.172 299.204 224.173 299.744V313.407C224.172 313.947 223.957 314.465 223.574 314.847C223.191 315.229 222.672 315.444 222.131 315.445Z" fill="#6C63FF"/>
<path d="M143.91 361.003H118.21C117.668 361.003 117.149 360.788 116.767 360.406C116.384 360.024 116.169 359.506 116.168 358.966V345.303C116.169 344.763 116.384 344.245 116.767 343.863C117.149 343.481 117.668 343.266 118.21 343.266H143.91C144.452 343.266 144.97 343.481 145.353 343.863C145.736 344.245 145.951 344.763 145.952 345.303V358.966C145.951 359.506 145.736 360.024 145.353 360.406C144.97 360.788 144.452 361.003 143.91 361.003Z" fill="#6C63FF"/>
<path d="M183.02 361.003H157.319C156.778 361.003 156.259 360.788 155.876 360.406C155.493 360.024 155.278 359.506 155.277 358.966V345.303C155.278 344.763 155.493 344.245 155.876 343.863C156.259 343.481 156.778 343.266 157.319 343.266H183.02C183.561 343.266 184.08 343.481 184.463 343.863C184.845 344.245 185.061 344.763 185.061 345.303V358.966C185.061 359.506 184.845 360.024 184.463 360.406C184.08 360.788 183.561 361.003 183.02 361.003Z" fill="#6C63FF"/>
<path d="M222.131 361.003H196.43C195.889 361.003 195.37 360.788 194.987 360.406C194.605 360.024 194.389 359.506 194.389 358.966V345.303C194.389 344.763 194.605 344.245 194.987 343.863C195.37 343.481 195.889 343.266 196.43 343.266H222.131C222.672 343.266 223.191 343.481 223.574 343.863C223.957 344.245 224.172 344.763 224.173 345.303V358.966C224.172 359.506 223.957 360.024 223.574 360.406C223.191 360.788 222.672 361.003 222.131 361.003Z" fill="#6C63FF"/>
<path d="M139.75 271.634H109.977C109.258 271.634 108.568 271.348 108.059 270.84C107.551 270.333 107.264 269.644 107.264 268.926V253.099C107.264 252.381 107.551 251.692 108.059 251.185C108.568 250.677 109.258 250.391 109.977 250.391H139.75C140.469 250.391 141.159 250.677 141.668 251.185C142.177 251.692 142.463 252.381 142.464 253.099V268.926C142.463 269.644 142.177 270.333 141.668 270.84C141.159 271.348 140.469 271.634 139.75 271.634ZM109.977 251.086C109.443 251.087 108.93 251.299 108.552 251.676C108.174 252.054 107.961 252.565 107.961 253.099V268.926C107.961 269.46 108.174 269.971 108.552 270.349C108.93 270.726 109.443 270.938 109.977 270.939H139.75C140.285 270.938 140.797 270.726 141.175 270.349C141.553 269.971 141.766 269.46 141.767 268.926V253.099C141.766 252.565 141.553 252.054 141.175 251.676C140.797 251.299 140.285 251.087 139.75 251.086H109.977Z" fill="#3F3D56"/>
<path d="M185.057 271.634H155.284C154.565 271.634 153.875 271.348 153.366 270.84C152.857 270.333 152.571 269.644 152.57 268.926V253.099C152.571 252.381 152.857 251.692 153.366 251.185C153.875 250.677 154.565 250.391 155.284 250.391H185.057C185.776 250.391 186.466 250.677 186.975 251.185C187.483 251.692 187.77 252.381 187.77 253.099V268.926C187.77 269.644 187.483 270.333 186.975 270.84C186.466 271.348 185.776 271.634 185.057 271.634ZM155.284 251.086C154.749 251.087 154.237 251.299 153.859 251.676C153.481 252.054 153.268 252.565 153.267 253.099V268.926C153.268 269.46 153.481 269.971 153.859 270.349C154.237 270.726 154.749 270.938 155.284 270.939H185.057C185.591 270.938 186.104 270.726 186.482 270.349C186.86 269.971 187.073 269.46 187.073 268.926V253.099C187.073 252.565 186.86 252.054 186.482 251.676C186.104 251.299 185.591 251.087 185.057 251.086H155.284Z" fill="#3F3D56"/>
<path d="M230.363 271.634H200.591C199.871 271.634 199.181 271.348 198.673 270.84C198.164 270.333 197.878 269.644 197.877 268.926V253.099C197.878 252.381 198.164 251.692 198.673 251.185C199.181 250.677 199.871 250.391 200.591 250.391H230.363C231.083 250.391 231.773 250.677 232.281 251.185C232.79 251.692 233.076 252.381 233.077 253.099V268.926C233.076 269.644 232.79 270.333 232.281 270.84C231.773 271.348 231.083 271.634 230.363 271.634ZM200.591 251.086C200.056 251.087 199.543 251.299 199.165 251.676C198.787 252.054 198.575 252.565 198.574 253.099V268.926C198.575 269.46 198.787 269.971 199.165 270.349C199.543 270.726 200.056 270.938 200.591 270.939H230.363C230.898 270.938 231.411 270.726 231.789 270.349C232.167 269.971 232.379 269.46 232.38 268.926V253.099C232.379 252.565 232.167 252.054 231.789 251.676C231.411 251.299 230.898 251.087 230.363 251.086H200.591Z" fill="#3F3D56"/>
<path d="M139.75 317.197H109.977C109.258 317.196 108.568 316.911 108.059 316.403C107.551 315.895 107.264 315.207 107.264 314.489V298.661C107.264 297.943 107.551 297.255 108.059 296.747C108.568 296.24 109.258 295.954 109.977 295.953H139.75C140.469 295.954 141.159 296.24 141.668 296.747C142.177 297.255 142.463 297.943 142.464 298.661V314.489C142.463 315.207 142.177 315.895 141.668 316.403C141.159 316.911 140.469 317.196 139.75 317.197ZM109.977 296.649C109.443 296.649 108.93 296.862 108.552 297.239C108.174 297.616 107.961 298.128 107.961 298.661V314.489C107.961 315.022 108.174 315.534 108.552 315.911C108.93 316.289 109.443 316.501 109.977 316.501H139.75C140.285 316.501 140.797 316.289 141.175 315.911C141.553 315.534 141.766 315.022 141.767 314.489V298.661C141.766 298.128 141.553 297.616 141.175 297.239C140.797 296.862 140.285 296.649 139.75 296.649H109.977Z" fill="#3F3D56"/>
<path d="M185.057 317.197H155.284C154.565 317.196 153.875 316.911 153.366 316.403C152.857 315.895 152.571 315.207 152.57 314.489V298.661C152.571 297.943 152.857 297.255 153.366 296.747C153.875 296.24 154.565 295.954 155.284 295.953H185.057C185.776 295.954 186.466 296.24 186.975 296.747C187.483 297.255 187.77 297.943 187.77 298.661V314.489C187.77 315.207 187.483 315.895 186.975 316.403C186.466 316.911 185.776 317.196 185.057 317.197ZM155.284 296.649C154.749 296.649 154.237 296.862 153.859 297.239C153.481 297.616 153.268 298.128 153.267 298.661V314.489C153.268 315.022 153.481 315.534 153.859 315.911C154.237 316.289 154.749 316.501 155.284 316.501H185.057C185.591 316.501 186.104 316.289 186.482 315.911C186.86 315.534 187.073 315.022 187.073 314.489V298.661C187.073 298.128 186.86 297.616 186.482 297.239C186.104 296.862 185.591 296.649 185.057 296.649H155.284Z" fill="#3F3D56"/>
<path d="M230.363 317.197H200.591C199.871 317.196 199.181 316.911 198.673 316.403C198.164 315.895 197.878 315.207 197.877 314.489V298.661C197.878 297.943 198.164 297.255 198.673 296.747C199.181 296.24 199.871 295.954 200.591 295.953H230.363C231.083 295.954 231.773 296.24 232.281 296.747C232.79 297.255 233.076 297.943 233.077 298.661V314.489C233.076 315.207 232.79 315.895 232.281 316.403C231.773 316.911 231.083 317.196 230.363 317.197ZM200.591 296.649C200.056 296.649 199.543 296.862 199.165 297.239C198.787 297.616 198.575 298.128 198.574 298.661V314.489C198.575 315.022 198.787 315.534 199.165 315.911C199.543 316.289 200.056 316.501 200.591 316.501H230.363C230.898 316.501 231.411 316.289 231.789 315.911C232.167 315.534 232.379 315.022 232.38 314.489V298.661C232.379 298.128 232.167 297.616 231.789 297.239C231.411 296.862 230.898 296.649 230.363 296.649H200.591Z" fill="#3F3D56"/>
<path d="M139.75 362.756H109.977C109.258 362.755 108.568 362.469 108.059 361.961C107.551 361.454 107.264 360.765 107.264 360.047V344.22C107.264 343.502 107.551 342.814 108.059 342.306C108.568 341.798 109.258 341.513 109.977 341.512H139.75C140.469 341.513 141.159 341.798 141.668 342.306C142.177 342.814 142.463 343.502 142.464 344.22V360.047C142.463 360.765 142.177 361.454 141.668 361.961C141.159 362.469 140.469 362.755 139.75 362.756ZM109.977 342.207C109.443 342.208 108.93 342.42 108.552 342.797C108.174 343.175 107.961 343.686 107.961 344.22V360.047C107.961 360.581 108.174 361.093 108.552 361.47C108.93 361.847 109.443 362.059 109.977 362.06H139.75C140.285 362.059 140.797 361.847 141.175 361.47C141.553 361.093 141.766 360.581 141.767 360.047V344.22C141.766 343.686 141.553 343.175 141.175 342.797C140.797 342.42 140.285 342.208 139.75 342.207H109.977Z" fill="#3F3D56"/>
<path d="M185.057 362.756H155.284C154.565 362.755 153.875 362.469 153.366 361.961C152.857 361.454 152.571 360.765 152.57 360.047V344.22C152.571 343.502 152.857 342.814 153.366 342.306C153.875 341.798 154.565 341.513 155.284 341.512H185.057C185.776 341.513 186.466 341.798 186.975 342.306C187.483 342.814 187.77 343.502 187.77 344.22V360.047C187.77 360.765 187.483 361.454 186.975 361.961C186.466 362.469 185.776 362.755 185.057 362.756ZM155.284 342.207C154.749 342.208 154.237 342.42 153.859 342.797C153.481 343.175 153.268 343.686 153.267 344.22V360.047C153.268 360.581 153.481 361.093 153.859 361.47C154.237 361.847 154.749 362.059 155.284 362.06H185.057C185.591 362.059 186.104 361.847 186.482 361.47C186.86 361.093 187.073 360.581 187.073 360.047V344.22C187.073 343.686 186.86 343.175 186.482 342.797C186.104 342.42 185.591 342.208 185.057 342.207H155.284Z" fill="#3F3D56"/>
<path d="M230.363 362.756H200.591C199.871 362.755 199.181 362.469 198.673 361.961C198.164 361.454 197.878 360.765 197.877 360.047V344.22C197.878 343.502 198.164 342.814 198.673 342.306C199.181 341.798 199.871 341.513 200.591 341.512H230.363C231.083 341.513 231.773 341.798 232.281 342.306C232.79 342.814 233.076 343.502 233.077 344.22V360.047C233.076 360.765 232.79 361.454 232.281 361.961C231.773 362.469 231.083 362.755 230.363 362.756ZM200.591 342.207C200.056 342.208 199.543 342.42 199.165 342.797C198.787 343.175 198.575 343.686 198.574 344.22V360.047C198.575 360.581 198.787 361.093 199.165 361.47C199.543 361.847 200.056 362.059 200.591 362.06H230.363C230.898 362.059 231.411 361.847 231.789 361.47C232.167 361.093 232.379 360.581 232.38 360.047V344.22C232.379 343.686 232.167 343.175 231.789 342.797C231.411 342.42 230.898 342.208 230.363 342.207H200.591Z" fill="#3F3D56"/>
<path d="M334.46 416.249L0.331476 416.249C0.243563 416.249 0.159251 416.208 0.0970869 416.135C0.0349231 416.062 0 415.963 0 415.859C0 415.756 0.0349231 415.656 0.0970869 415.583C0.159251 415.51 0.243563 415.469 0.331476 415.469L334.46 415.469C334.548 415.469 334.632 415.51 334.694 415.583C334.756 415.656 334.791 415.756 334.791 415.859C334.791 415.963 334.756 416.062 334.694 416.135C334.632 416.208 334.548 416.249 334.46 416.249Z" fill="#3F3D56"/>
<path d="M187.77 382.815C187.78 382.021 187.473 381.256 186.917 380.688C186.362 380.12 185.603 379.795 184.808 379.785H170.17V415.782H187.77V382.815Z" fill="#3F3D56"/>
<path d="M170.518 415.436H152.221V382.917C152.222 382.041 152.571 381.202 153.192 380.582C153.812 379.963 154.654 379.614 155.532 379.613H170.518V415.436ZM152.918 414.741H169.821V380.309H155.532C154.839 380.31 154.174 380.585 153.684 381.074C153.194 381.563 152.919 382.226 152.918 382.917V414.741Z" fill="#3F3D56"/>
<path d="M154.487 399.958C155.064 399.958 155.532 399.491 155.532 398.914C155.532 398.338 155.064 397.871 154.487 397.871C153.91 397.871 153.441 398.338 153.441 398.914C153.441 399.491 153.91 399.958 154.487 399.958Z" fill="#3F3D56"/>
</g>
<circle cx="156.46" cy="125.024" r="9.46582" fill="#E6E6E6"/>
<circle cx="185.062" cy="86.1816" r="25.9551" fill="#E6E6E6"/>
<circle cx="245.275" cy="15.8848" r="47.9551" fill="#E6E6E6"/>
<defs>
<clipPath id="clip0_3364_24281">
<rect width="352" height="268" fill="white" transform="translate(0 148.5)"/>
</clipPath>
</defs>
</svg>
