<svg width="500" height="80" viewBox="0 0 500 80" fill="none" xmlns="http://www.w3.org/2000/svg">
<path d="M0 0H500V80H0V0Z" fill="#E05151"/>
<path d="M47.104 54.872C47.5733 54.9147 48.1067 54.9573 48.704 55C49.344 55 50.0907 55 50.944 55C55.936 55 59.6267 53.7413 62.016 51.224C64.448 48.7067 65.664 45.2293 65.664 40.792C65.664 36.1413 64.512 32.6213 62.208 30.232C59.904 27.8427 56.256 26.648 51.264 26.648C50.5813 26.648 49.8773 26.6693 49.152 26.712C48.4267 26.712 47.744 26.7547 47.104 26.84V54.872ZM75.968 40.792C75.968 44.632 75.3707 47.9813 74.176 50.84C72.9813 53.6987 71.2747 56.0667 69.056 57.944C66.88 59.8213 64.2133 61.2293 61.056 62.168C57.8987 63.1067 54.3573 63.576 50.432 63.576C48.64 63.576 46.5493 63.4907 44.16 63.32C41.7707 63.192 39.424 62.8933 37.12 62.424V19.224C39.424 18.7973 41.8133 18.52 44.288 18.392C46.8053 18.2213 48.96 18.136 50.752 18.136C54.5493 18.136 57.984 18.5627 61.056 19.416C64.1707 20.2693 66.8373 21.6133 69.056 23.448C71.2747 25.2827 72.9813 27.6293 74.176 30.488C75.3707 33.3467 75.968 36.7813 75.968 40.792ZM82.0675 46.424C82.0675 43.4373 82.5155 40.8347 83.4115 38.616C84.3502 36.3547 85.5662 34.4773 87.0595 32.984C88.5528 31.4907 90.2595 30.36 92.1795 29.592C94.1422 28.824 96.1475 28.44 98.1955 28.44C102.974 28.44 106.75 29.912 109.524 32.856C112.297 35.7573 113.684 40.0453 113.684 45.72C113.684 46.2747 113.662 46.8933 113.62 47.576C113.577 48.216 113.534 48.792 113.492 49.304H91.8595C92.0728 51.2667 92.9902 52.824 94.6115 53.976C96.2328 55.128 98.4088 55.704 101.14 55.704C102.889 55.704 104.596 55.5547 106.26 55.256C107.966 54.9147 109.353 54.5093 110.42 54.04L111.7 61.784C111.188 62.04 110.505 62.296 109.652 62.552C108.798 62.808 107.838 63.0213 106.772 63.192C105.748 63.4053 104.638 63.576 103.444 63.704C102.249 63.832 101.054 63.896 99.8595 63.896C96.8302 63.896 94.1848 63.448 91.9235 62.552C89.7048 61.656 87.8488 60.44 86.3555 58.904C84.9048 57.3253 83.8168 55.4693 83.0915 53.336C82.4088 51.2027 82.0675 48.8987 82.0675 46.424ZM104.468 42.776C104.425 41.9653 104.276 41.176 104.02 40.408C103.806 39.64 103.444 38.9573 102.932 38.36C102.462 37.7627 101.844 37.272 101.076 36.888C100.35 36.504 99.4328 36.312 98.3235 36.312C97.2568 36.312 96.3395 36.504 95.5715 36.888C94.8035 37.2293 94.1635 37.6987 93.6515 38.296C93.1395 38.8933 92.7342 39.5973 92.4355 40.408C92.1795 41.176 91.9875 41.9653 91.8595 42.776H104.468ZM120.723 20.952L130.259 19.416V29.336H141.715V37.272H130.259V49.112C130.259 51.1173 130.6 52.7173 131.283 53.912C132.008 55.1067 133.437 55.704 135.571 55.704C136.595 55.704 137.64 55.6187 138.707 55.448C139.816 55.2347 140.819 54.9573 141.715 54.616L143.059 62.04C141.907 62.5093 140.627 62.9147 139.219 63.256C137.811 63.5973 136.083 63.768 134.035 63.768C131.432 63.768 129.277 63.4267 127.571 62.744C125.864 62.0187 124.499 61.0373 123.475 59.8C122.451 58.52 121.725 56.984 121.299 55.192C120.915 53.4 120.723 51.416 120.723 49.24V20.952ZM161.094 56.344C162.033 56.344 162.929 56.3227 163.782 56.28C164.635 56.2373 165.318 56.1733 165.83 56.088V48.856C165.446 48.7707 164.87 48.6853 164.102 48.6C163.334 48.5147 162.63 48.472 161.99 48.472C161.094 48.472 160.241 48.536 159.43 48.664C158.662 48.7493 157.979 48.9413 157.382 49.24C156.785 49.5387 156.315 49.944 155.974 50.456C155.633 50.968 155.462 51.608 155.462 52.376C155.462 53.8693 155.953 54.9147 156.934 55.512C157.958 56.0667 159.345 56.344 161.094 56.344ZM160.326 28.44C163.142 28.44 165.489 28.76 167.366 29.4C169.243 30.04 170.737 30.9573 171.846 32.152C172.998 33.3467 173.809 34.7973 174.278 36.504C174.747 38.2107 174.982 40.1093 174.982 42.2V62.04C173.617 62.3387 171.718 62.68 169.286 63.064C166.854 63.4907 163.91 63.704 160.454 63.704C158.278 63.704 156.294 63.512 154.502 63.128C152.753 62.744 151.238 62.1253 149.958 61.272C148.678 60.376 147.697 59.224 147.014 57.816C146.331 56.408 145.99 54.68 145.99 52.632C145.99 50.6693 146.374 49.0053 147.142 47.64C147.953 46.2747 149.019 45.1867 150.342 44.376C151.665 43.5653 153.179 42.9893 154.886 42.648C156.593 42.264 158.363 42.072 160.198 42.072C161.435 42.072 162.523 42.136 163.462 42.264C164.443 42.3493 165.233 42.4773 165.83 42.648V41.752C165.83 40.1307 165.339 38.8293 164.358 37.848C163.377 36.8667 161.67 36.376 159.238 36.376C157.617 36.376 156.017 36.504 154.438 36.76C152.859 36.9733 151.494 37.2933 150.342 37.72L149.126 30.04C149.681 29.8693 150.363 29.6987 151.174 29.528C152.027 29.3147 152.945 29.144 153.926 29.016C154.907 28.8453 155.931 28.7173 156.998 28.632C158.107 28.504 159.217 28.44 160.326 28.44ZM193.141 63H183.605V29.336H193.141V63ZM194.037 19.608C194.037 21.3573 193.461 22.744 192.309 23.768C191.2 24.7493 189.877 25.24 188.341 25.24C186.805 25.24 185.461 24.7493 184.309 23.768C183.2 22.744 182.645 21.3573 182.645 19.608C182.645 17.8587 183.2 16.4933 184.309 15.512C185.461 14.488 186.805 13.976 188.341 13.976C189.877 13.976 191.2 14.488 192.309 15.512C193.461 16.4933 194.037 17.8587 194.037 19.608ZM215.545 63.64C212.772 63.5973 210.51 63.2987 208.761 62.744C207.054 62.1893 205.689 61.4213 204.665 60.44C203.684 59.416 203.001 58.2 202.617 56.792C202.276 55.3413 202.105 53.72 202.105 51.928V14.872L211.641 13.336V50.008C211.641 50.8613 211.705 51.6293 211.833 52.312C211.961 52.9947 212.196 53.5707 212.537 54.04C212.921 54.5093 213.454 54.8933 214.137 55.192C214.82 55.4907 215.737 55.6827 216.889 55.768L215.545 63.64ZM264.546 63C263.65 61.5493 262.583 59.992 261.346 58.328C260.151 56.6213 258.829 54.936 257.378 53.272C255.97 51.5653 254.498 49.944 252.962 48.408C251.426 46.8293 249.89 45.4427 248.354 44.248V63H238.37V18.648H248.354V35.416C250.957 32.6853 253.559 29.848 256.162 26.904C258.807 23.9173 261.261 21.1653 263.522 18.648H275.362C272.333 22.232 269.282 25.688 266.21 29.016C263.181 32.344 259.981 35.6933 256.61 39.064C260.151 42.008 263.565 45.5067 266.85 49.56C270.178 53.6133 273.357 58.0933 276.386 63H264.546ZM310.406 46.104C310.406 48.7493 310.022 51.1813 309.254 53.4C308.486 55.576 307.376 57.4533 305.926 59.032C304.475 60.568 302.726 61.7627 300.678 62.616C298.672 63.4693 296.411 63.896 293.894 63.896C291.419 63.896 289.158 63.4693 287.11 62.616C285.104 61.7627 283.376 60.568 281.926 59.032C280.475 57.4533 279.344 55.576 278.534 53.4C277.723 51.1813 277.318 48.7493 277.318 46.104C277.318 43.4587 277.723 41.048 278.534 38.872C279.387 36.696 280.539 34.84 281.99 33.304C283.483 31.768 285.232 30.5733 287.238 29.72C289.286 28.8667 291.504 28.44 293.894 28.44C296.326 28.44 298.544 28.8667 300.55 29.72C302.598 30.5733 304.347 31.768 305.798 33.304C307.248 34.84 308.379 36.696 309.19 38.872C310 41.048 310.406 43.4587 310.406 46.104ZM300.678 46.104C300.678 43.16 300.08 40.856 298.886 39.192C297.734 37.4853 296.07 36.632 293.894 36.632C291.718 36.632 290.032 37.4853 288.838 39.192C287.643 40.856 287.046 43.16 287.046 46.104C287.046 49.048 287.643 51.3947 288.838 53.144C290.032 54.8507 291.718 55.704 293.894 55.704C296.07 55.704 297.734 54.8507 298.886 53.144C300.08 51.3947 300.678 49.048 300.678 46.104ZM317.793 30.488C319.414 30.0187 321.505 29.592 324.065 29.208C326.625 28.7813 329.313 28.568 332.128 28.568C334.987 28.568 337.355 28.952 339.233 29.72C341.153 30.4453 342.667 31.4907 343.777 32.856C344.886 34.2213 345.675 35.8427 346.145 37.72C346.614 39.5973 346.849 41.688 346.849 43.992V63H337.313V45.144C337.313 42.072 336.907 39.896 336.097 38.616C335.286 37.336 333.771 36.696 331.553 36.696C330.87 36.696 330.145 36.7387 329.377 36.824C328.609 36.8667 327.926 36.9307 327.329 37.016V63H317.793V30.488ZM355.16 20.952L364.696 19.416V29.336H376.152V37.272H364.696V49.112C364.696 51.1173 365.037 52.7173 365.72 53.912C366.445 55.1067 367.875 55.704 370.008 55.704C371.032 55.704 372.077 55.6187 373.144 55.448C374.253 55.2347 375.256 54.9573 376.152 54.616L377.496 62.04C376.344 62.5093 375.064 62.9147 373.656 63.256C372.248 63.5973 370.52 63.768 368.472 63.768C365.869 63.768 363.715 63.4267 362.008 62.744C360.301 62.0187 358.936 61.0373 357.912 59.8C356.888 58.52 356.163 56.984 355.736 55.192C355.352 53.4 355.16 51.416 355.16 49.24V20.952ZM395.532 56.344C396.47 56.344 397.366 56.3227 398.22 56.28C399.073 56.2373 399.756 56.1733 400.268 56.088V48.856C399.884 48.7707 399.308 48.6853 398.54 48.6C397.772 48.5147 397.068 48.472 396.428 48.472C395.532 48.472 394.678 48.536 393.868 48.664C393.1 48.7493 392.417 48.9413 391.82 49.24C391.222 49.5387 390.753 49.944 390.412 50.456C390.07 50.968 389.9 51.608 389.9 52.376C389.9 53.8693 390.39 54.9147 391.372 55.512C392.396 56.0667 393.782 56.344 395.532 56.344ZM394.764 28.44C397.58 28.44 399.926 28.76 401.804 29.4C403.681 30.04 405.174 30.9573 406.284 32.152C407.436 33.3467 408.246 34.7973 408.716 36.504C409.185 38.2107 409.42 40.1093 409.42 42.2V62.04C408.054 62.3387 406.156 62.68 403.724 63.064C401.292 63.4907 398.348 63.704 394.892 63.704C392.716 63.704 390.732 63.512 388.94 63.128C387.19 62.744 385.676 62.1253 384.396 61.272C383.116 60.376 382.134 59.224 381.452 57.816C380.769 56.408 380.428 54.68 380.428 52.632C380.428 50.6693 380.812 49.0053 381.58 47.64C382.39 46.2747 383.457 45.1867 384.78 44.376C386.102 43.5653 387.617 42.9893 389.324 42.648C391.03 42.264 392.801 42.072 394.635 42.072C395.873 42.072 396.961 42.136 397.9 42.264C398.881 42.3493 399.67 42.4773 400.268 42.648V41.752C400.268 40.1307 399.777 38.8293 398.796 37.848C397.814 36.8667 396.108 36.376 393.676 36.376C392.054 36.376 390.454 36.504 388.876 36.76C387.297 36.9733 385.932 37.2933 384.78 37.72L383.564 30.04C384.118 29.8693 384.801 29.6987 385.612 29.528C386.465 29.3147 387.382 29.144 388.364 29.016C389.345 28.8453 390.369 28.7173 391.436 28.632C392.545 28.504 393.654 28.44 394.764 28.44ZM427.579 41.496C428.517 40.472 429.477 39.4053 430.458 38.296C431.483 37.1867 432.464 36.0987 433.403 35.032C434.341 33.9227 435.216 32.8773 436.027 31.896C436.88 30.9147 437.605 30.0613 438.203 29.336H449.531C447.269 31.9387 445.051 34.4347 442.875 36.824C440.741 39.1707 438.395 41.6027 435.835 44.12C437.115 45.272 438.437 46.6587 439.803 48.28C441.168 49.8587 442.491 51.5013 443.771 53.208C445.051 54.9147 446.224 56.6213 447.291 58.328C448.357 60.0347 449.253 61.592 449.979 63H439.035C438.352 61.8907 437.563 60.6747 436.667 59.352C435.813 57.9867 434.896 56.6427 433.915 55.32C432.933 53.9547 431.888 52.6533 430.779 51.416C429.712 50.1787 428.645 49.1333 427.579 48.28V63H418.043V14.872L427.579 13.336V41.496Z" fill="url(#paint0_linear_4_37)"/>
<path d="M25.664 59.952C25.84 59.968 26.04 59.984 26.264 60C26.504 60 26.784 60 27.104 60C28.976 60 30.36 59.528 31.256 58.584C32.168 57.64 32.624 56.336 32.624 54.672C32.624 52.928 32.192 51.608 31.328 50.712C30.464 49.816 29.096 49.368 27.224 49.368C26.968 49.368 26.704 49.376 26.432 49.392C26.16 49.392 25.904 49.408 25.664 49.44V59.952ZM36.488 54.672C36.488 56.112 36.264 57.368 35.816 58.44C35.368 59.512 34.728 60.4 33.896 61.104C33.08 61.808 32.08 62.336 30.896 62.688C29.712 63.04 28.384 63.216 26.912 63.216C26.24 63.216 25.456 63.184 24.56 63.12C23.664 63.072 22.784 62.96 21.92 62.784V46.584C22.784 46.424 23.68 46.32 24.608 46.272C25.552 46.208 26.36 46.176 27.032 46.176C28.456 46.176 29.744 46.336 30.896 46.656C32.064 46.976 33.064 47.48 33.896 48.168C34.728 48.856 35.368 49.736 35.816 50.808C36.264 51.88 36.488 53.168 36.488 54.672ZM38.7753 56.784C38.7753 55.664 38.9433 54.688 39.2793 53.856C39.6313 53.008 40.0873 52.304 40.6473 51.744C41.2073 51.184 41.8473 50.76 42.5673 50.472C43.3033 50.184 44.0553 50.04 44.8233 50.04C46.6153 50.04 48.0313 50.592 49.0713 51.696C50.1113 52.784 50.6313 54.392 50.6313 56.52C50.6313 56.728 50.6233 56.96 50.6073 57.216C50.5913 57.456 50.5753 57.672 50.5593 57.864H42.4473C42.5273 58.6 42.8713 59.184 43.4793 59.616C44.0873 60.048 44.9033 60.264 45.9273 60.264C46.5833 60.264 47.2233 60.208 47.8473 60.096C48.4873 59.968 49.0073 59.816 49.4073 59.64L49.8873 62.544C49.6953 62.64 49.4393 62.736 49.1193 62.832C48.7993 62.928 48.4393 63.008 48.0393 63.072C47.6553 63.152 47.2393 63.216 46.7913 63.264C46.3433 63.312 45.8953 63.336 45.4473 63.336C44.3113 63.336 43.3193 63.168 42.4713 62.832C41.6393 62.496 40.9433 62.04 40.3833 61.464C39.8393 60.872 39.4313 60.176 39.1593 59.376C38.9033 58.576 38.7753 57.712 38.7753 56.784ZM47.1753 55.416C47.1593 55.112 47.1033 54.816 47.0073 54.528C46.9273 54.24 46.7913 53.984 46.5993 53.76C46.4233 53.536 46.1913 53.352 45.9033 53.208C45.6313 53.064 45.2873 52.992 44.8713 52.992C44.4713 52.992 44.1273 53.064 43.8393 53.208C43.5513 53.336 43.3113 53.512 43.1193 53.736C42.9273 53.96 42.7753 54.224 42.6633 54.528C42.5673 54.816 42.4953 55.112 42.4473 55.416H47.1753ZM53.2709 47.232L56.8469 46.656V50.376H61.1429V53.352H56.8469V57.792C56.8469 58.544 56.9749 59.144 57.2309 59.592C57.5029 60.04 58.0389 60.264 58.8389 60.264C59.2229 60.264 59.6149 60.232 60.0149 60.168C60.4309 60.088 60.8069 59.984 61.1429 59.856L61.6469 62.64C61.2149 62.816 60.7349 62.968 60.2069 63.096C59.6789 63.224 59.0309 63.288 58.2629 63.288C57.2869 63.288 56.4789 63.16 55.8389 62.904C55.1989 62.632 54.6869 62.264 54.3029 61.8C53.9189 61.32 53.6469 60.744 53.4869 60.072C53.3429 59.4 53.2709 58.656 53.2709 57.84V47.232ZM68.4103 60.504C68.7623 60.504 69.0983 60.496 69.4183 60.48C69.7383 60.464 69.9943 60.44 70.1863 60.408V57.696C70.0423 57.664 69.8263 57.632 69.5383 57.6C69.2503 57.568 68.9863 57.552 68.7463 57.552C68.4103 57.552 68.0903 57.576 67.7863 57.624C67.4983 57.656 67.2423 57.728 67.0183 57.84C66.7943 57.952 66.6183 58.104 66.4903 58.296C66.3623 58.488 66.2983 58.728 66.2983 59.016C66.2983 59.576 66.4823 59.968 66.8503 60.192C67.2343 60.4 67.7543 60.504 68.4103 60.504ZM68.1223 50.04C69.1783 50.04 70.0583 50.16 70.7623 50.4C71.4663 50.64 72.0263 50.984 72.4423 51.432C72.8743 51.88 73.1783 52.424 73.3543 53.064C73.5303 53.704 73.6183 54.416 73.6183 55.2V62.64C73.1063 62.752 72.3943 62.88 71.4823 63.024C70.5703 63.184 69.4663 63.264 68.1703 63.264C67.3543 63.264 66.6103 63.192 65.9383 63.048C65.2823 62.904 64.7143 62.672 64.2343 62.352C63.7543 62.016 63.3863 61.584 63.1303 61.056C62.8743 60.528 62.7463 59.88 62.7463 59.112C62.7463 58.376 62.8903 57.752 63.1783 57.24C63.4823 56.728 63.8823 56.32 64.3783 56.016C64.8743 55.712 65.4423 55.496 66.0823 55.368C66.7223 55.224 67.3863 55.152 68.0742 55.152C68.5383 55.152 68.9463 55.176 69.2983 55.224C69.6663 55.256 69.9623 55.304 70.1863 55.368V55.032C70.1863 54.424 70.0023 53.936 69.6343 53.568C69.2663 53.2 68.6263 53.016 67.7143 53.016C67.1063 53.016 66.5063 53.064 65.9143 53.16C65.3223 53.24 64.8103 53.36 64.3783 53.52L63.9223 50.64C64.1303 50.576 64.3863 50.512 64.6903 50.448C65.0103 50.368 65.3543 50.304 65.7223 50.256C66.0903 50.192 66.4743 50.144 66.8743 50.112C67.2903 50.064 67.7063 50.04 68.1223 50.04ZM80.4279 63H76.8519V50.376H80.4279V63ZM80.7639 46.728C80.7639 47.384 80.5479 47.904 80.1159 48.288C79.6999 48.656 79.2039 48.84 78.6279 48.84C78.0519 48.84 77.5479 48.656 77.1159 48.288C76.6999 47.904 76.4919 47.384 76.4919 46.728C76.4919 46.072 76.6999 45.56 77.1159 45.192C77.5479 44.808 78.0519 44.616 78.6279 44.616C79.2039 44.616 79.6999 44.808 80.1159 45.192C80.5479 45.56 80.7639 46.072 80.7639 46.728ZM88.8294 63.24C87.7894 63.224 86.9414 63.112 86.2854 62.904C85.6454 62.696 85.1334 62.408 84.7494 62.04C84.3814 61.656 84.1254 61.2 83.9814 60.672C83.8534 60.128 83.7894 59.52 83.7894 58.848V44.952L87.3654 44.376V58.128C87.3654 58.448 87.3894 58.736 87.4374 58.992C87.4854 59.248 87.5734 59.464 87.7014 59.64C87.8454 59.816 88.0454 59.96 88.3014 60.072C88.5574 60.184 88.9014 60.256 89.3334 60.288L88.8294 63.24ZM107.205 63C106.869 62.456 106.469 61.872 106.005 61.248C105.557 60.608 105.061 59.976 104.517 59.352C103.989 58.712 103.437 58.104 102.861 57.528C102.285 56.936 101.709 56.416 101.133 55.968V63H97.3888V46.368H101.133V52.656C102.109 51.632 103.085 50.568 104.061 49.464C105.053 48.344 105.973 47.312 106.821 46.368H111.261C110.125 47.712 108.981 49.008 107.829 50.256C106.693 51.504 105.493 52.76 104.229 54.024C105.557 55.128 106.837 56.44 108.069 57.96C109.317 59.48 110.509 61.16 111.645 63H107.205ZM124.402 56.664C124.402 57.656 124.258 58.568 123.97 59.4C123.682 60.216 123.266 60.92 122.722 61.512C122.178 62.088 121.522 62.536 120.754 62.856C120.002 63.176 119.154 63.336 118.21 63.336C117.282 63.336 116.434 63.176 115.666 62.856C114.914 62.536 114.266 62.088 113.722 61.512C113.178 60.92 112.754 60.216 112.45 59.4C112.146 58.568 111.994 57.656 111.994 56.664C111.994 55.672 112.146 54.768 112.45 53.952C112.77 53.136 113.202 52.44 113.746 51.864C114.306 51.288 114.962 50.84 115.714 50.52C116.482 50.2 117.314 50.04 118.21 50.04C119.122 50.04 119.954 50.2 120.706 50.52C121.474 50.84 122.13 51.288 122.674 51.864C123.218 52.44 123.642 53.136 123.946 53.952C124.25 54.768 124.402 55.672 124.402 56.664ZM120.754 56.664C120.754 55.56 120.53 54.696 120.082 54.072C119.65 53.432 119.026 53.112 118.21 53.112C117.394 53.112 116.762 53.432 116.314 54.072C115.866 54.696 115.642 55.56 115.642 56.664C115.642 57.768 115.866 58.648 116.314 59.304C116.762 59.944 117.394 60.264 118.21 60.264C119.026 60.264 119.65 59.944 120.082 59.304C120.53 58.648 120.754 57.768 120.754 56.664ZM127.172 50.808C127.78 50.632 128.564 50.472 129.524 50.328C130.484 50.168 131.492 50.088 132.548 50.088C133.62 50.088 134.508 50.232 135.212 50.52C135.932 50.792 136.5 51.184 136.916 51.696C137.332 52.208 137.628 52.816 137.804 53.52C137.98 54.224 138.068 55.008 138.068 55.872V63H134.492V56.304C134.492 55.152 134.34 54.336 134.036 53.856C133.732 53.376 133.164 53.136 132.332 53.136C132.076 53.136 131.804 53.152 131.516 53.184C131.228 53.2 130.972 53.224 130.748 53.256V63H127.172V50.808ZM141.185 47.232L144.761 46.656V50.376H149.057V53.352H144.761V57.792C144.761 58.544 144.889 59.144 145.145 59.592C145.417 60.04 145.953 60.264 146.753 60.264C147.137 60.264 147.529 60.232 147.929 60.168C148.345 60.088 148.721 59.984 149.057 59.856L149.561 62.64C149.129 62.816 148.649 62.968 148.121 63.096C147.593 63.224 146.945 63.288 146.177 63.288C145.201 63.288 144.393 63.16 143.753 62.904C143.113 62.632 142.601 62.264 142.217 61.8C141.833 61.32 141.561 60.744 141.401 60.072C141.257 59.4 141.185 58.656 141.185 57.84V47.232ZM156.324 60.504C156.676 60.504 157.012 60.496 157.332 60.48C157.652 60.464 157.908 60.44 158.1 60.408V57.696C157.956 57.664 157.74 57.632 157.452 57.6C157.164 57.568 156.9 57.552 156.66 57.552C156.324 57.552 156.004 57.576 155.7 57.624C155.412 57.656 155.156 57.728 154.932 57.84C154.708 57.952 154.532 58.104 154.404 58.296C154.276 58.488 154.212 58.728 154.212 59.016C154.212 59.576 154.396 59.968 154.764 60.192C155.148 60.4 155.668 60.504 156.324 60.504ZM156.036 50.04C157.092 50.04 157.972 50.16 158.676 50.4C159.38 50.64 159.94 50.984 160.356 51.432C160.788 51.88 161.092 52.424 161.268 53.064C161.444 53.704 161.532 54.416 161.532 55.2V62.64C161.02 62.752 160.308 62.88 159.396 63.024C158.484 63.184 157.38 63.264 156.084 63.264C155.268 63.264 154.524 63.192 153.852 63.048C153.196 62.904 152.628 62.672 152.148 62.352C151.668 62.016 151.3 61.584 151.044 61.056C150.788 60.528 150.66 59.88 150.66 59.112C150.66 58.376 150.804 57.752 151.092 57.24C151.396 56.728 151.796 56.32 152.292 56.016C152.788 55.712 153.356 55.496 153.996 55.368C154.636 55.224 155.3 55.152 155.988 55.152C156.452 55.152 156.86 55.176 157.212 55.224C157.58 55.256 157.876 55.304 158.1 55.368V55.032C158.1 54.424 157.916 53.936 157.548 53.568C157.18 53.2 156.54 53.016 155.628 53.016C155.02 53.016 154.42 53.064 153.828 53.16C153.236 53.24 152.724 53.36 152.292 53.52L151.836 50.64C152.044 50.576 152.3 50.512 152.604 50.448C152.924 50.368 153.268 50.304 153.636 50.256C154.004 50.192 154.388 50.144 154.788 50.112C155.204 50.064 155.62 50.04 156.036 50.04ZM168.342 54.936C168.694 54.552 169.054 54.152 169.422 53.736C169.806 53.32 170.174 52.912 170.526 52.512C170.878 52.096 171.206 51.704 171.51 51.336C171.83 50.968 172.102 50.648 172.326 50.376H176.574C175.726 51.352 174.894 52.288 174.078 53.184C173.278 54.064 172.398 54.976 171.438 55.92C171.918 56.352 172.414 56.872 172.926 57.48C173.438 58.072 173.934 58.688 174.414 59.328C174.894 59.968 175.334 60.608 175.734 61.248C176.134 61.888 176.47 62.472 176.742 63H172.638C172.382 62.584 172.086 62.128 171.75 61.632C171.43 61.12 171.086 60.616 170.718 60.12C170.35 59.608 169.958 59.12 169.542 58.656C169.142 58.192 168.742 57.8 168.342 57.48V63H164.766V44.952L168.342 44.376V54.936Z" fill="white"/>
<defs>
<linearGradient id="paint0_linear_4_37" x1="242" y1="-170" x2="242" y2="63" gradientUnits="userSpaceOnUse">
<stop stop-color="white" stop-opacity="0.5"/>
<stop offset="1" stop-color="white" stop-opacity="0"/>
</linearGradient>
</defs>
</svg>
