<svg width="89" height="108" viewBox="0 0 89 108" fill="none" xmlns="http://www.w3.org/2000/svg">
<g opacity="0.6">
<path d="M81.5 -2.87817C81.5 55.2001 39.2603 101 -11.3438 101C-61.9478 101 -104.188 55.2001 -104.188 -2.87817C-104.188 -60.9565 -61.9478 -106.756 -11.3438 -106.756C39.2603 -106.756 81.5 -60.9565 81.5 -2.87817Z" stroke="#BF0C0C" stroke-width="14"/>
<path d="M50.7774 -0.443596C50.7774 38.7929 22.292 69.3179 -11.3452 69.3179C-44.9824 69.3179 -73.4678 38.7929 -73.4678 -0.443596C-73.4678 -39.6801 -44.9824 -70.2051 -11.3452 -70.2051C22.292 -70.2051 50.7774 -39.6801 50.7774 -0.443596Z" stroke="#BF0C0C" stroke-width="14"/>
<path d="M20.0589 -2.47377C20.0589 17.6965 5.49155 32.7654 -10.9769 32.7654C-27.4453 32.7654 -42.0126 17.6965 -42.0126 -2.47377C-42.0126 -22.6441 -27.4453 -37.7129 -10.9769 -37.7129C5.49155 -37.7129 20.0589 -22.6441 20.0589 -2.47377Z" stroke="#BF0C0C" stroke-width="14"/>
</g>
</svg>
