<svg width="41" height="41" viewBox="0 0 41 41" fill="none" xmlns="http://www.w3.org/2000/svg">
<g id="ICON">
<mask id="mask0_2299_21789" style="mask-type:alpha" maskUnits="userSpaceOnUse" x="0" y="0" width="41" height="41">
<rect id="Bounding box" x="0.21582" y="0.612061" width="40" height="40" fill="#D9D9D9"/>
</mask>
<g mask="url(#mask0_2299_21789)">
<g id="Group">
<path id="Vector" fill-rule="evenodd" clip-rule="evenodd" d="M22.3276 7.09302C22.9624 7.09317 23.5769 7.31667 24.0634 7.72436L24.2392 7.88524L30.2065 13.8526C30.6554 14.3014 30.932 14.8939 30.9879 15.5262L30.9987 15.7642V20.6121H28.2949V17.9083H22.2113C21.7072 17.9083 21.2212 17.7205 20.848 17.3816C20.4749 17.0427 20.2413 16.5769 20.1929 16.0751L20.1835 15.8804V9.79684H12.072V31.4274H20.1835V34.1312H12.072C11.3898 34.1315 10.7328 33.8738 10.2326 33.41C9.73246 32.9462 9.42608 32.3104 9.37492 31.6302L9.36816 31.4274V9.79684C9.36795 9.1147 9.62558 8.45768 10.0894 7.9575C10.5532 7.45732 11.189 7.15094 11.8692 7.09978L12.072 7.09302H22.3276ZM29.2507 23.9432L33.0739 27.7678C33.3274 28.0213 33.4698 28.3651 33.4698 28.7236C33.4698 29.0821 33.3274 29.4259 33.0739 29.6794L29.2507 33.5026C29.126 33.6317 28.9768 33.7347 28.8119 33.8056C28.647 33.8764 28.4696 33.9137 28.2901 33.9153C28.1105 33.9168 27.9325 33.8826 27.7664 33.8147C27.6002 33.7467 27.4493 33.6463 27.3224 33.5194C27.1954 33.3924 27.095 33.2415 27.0271 33.0753C26.9591 32.9092 26.9249 32.7312 26.9264 32.5517C26.928 32.3722 26.9653 32.1948 27.0362 32.0298C27.107 31.8649 27.21 31.7157 27.3391 31.591L28.8546 30.0755H22.8873C22.5287 30.0755 22.1849 29.9331 21.9313 29.6795C21.6778 29.426 21.5354 29.0821 21.5354 28.7236C21.5354 28.365 21.6778 28.0212 21.9313 27.7677C22.1849 27.5141 22.5287 27.3717 22.8873 27.3717H28.8546L27.3391 25.8562C27.0854 25.6027 26.9429 25.2588 26.9427 24.9002C26.9426 24.5416 27.0849 24.1976 27.3384 23.9439C27.5919 23.6902 27.9358 23.5477 28.2944 23.5475C28.6531 23.5474 28.9971 23.6897 29.2507 23.9432ZM22.8873 10.3565V15.2045H27.7352L22.8873 10.3565Z" fill="#B89494"/>
</g>
</g>
</g>
</svg>