<svg width="24" height="24" viewBox="0 0 24 24" fill="none" xmlns="http://www.w3.org/2000/svg">
<path fill-rule="evenodd" clip-rule="evenodd" d="M12 10.5C11.1716 10.5 10.5 11.1716 10.5 12C10.5 12.8284 11.1716 13.5 12 13.5C12.8284 13.5 13.5 12.8284 13.5 12C13.5 11.1716 12.8284 10.5 12 10.5ZM8.5 12C8.5 10.067 10.067 8.5 12 8.5C13.933 8.5 15.5 10.067 15.5 12C15.5 13.933 13.933 15.5 12 15.5C10.067 15.5 8.5 13.933 8.5 12Z" fill="#FFFEFE"/>
<path fill-rule="evenodd" clip-rule="evenodd" d="M4.41112 12C4.45615 12.0434 4.50315 12.0885 4.55204 12.135C5.07718 12.6349 5.8142 13.2991 6.66443 13.9608C7.51771 14.6249 8.46538 15.271 9.41219 15.7473C10.3706 16.2294 11.2546 16.5 12 16.5C12.7454 16.5 13.6294 16.2294 14.5878 15.7473C15.5346 15.271 16.4823 14.6249 17.3356 13.9608C18.1858 13.2991 18.9228 12.6349 19.448 12.135C19.4968 12.0885 19.5438 12.0434 19.5889 12C19.5438 11.9566 19.4968 11.9115 19.448 11.865C18.9228 11.3651 18.1858 10.7009 17.3356 10.0392C16.4823 9.37509 15.5346 8.72901 14.5878 8.2527C13.6294 7.77057 12.7454 7.5 12 7.5C11.2546 7.5 10.3706 7.77057 9.41219 8.2527C8.46538 8.72901 7.51771 9.37509 6.66443 10.0392C5.8142 10.7009 5.07718 11.3651 4.55204 11.865C4.50315 11.9115 4.45615 11.9566 4.41112 12ZM21 12C21.731 11.3176 21.7309 11.3175 21.7307 11.3173L21.7252 11.3115L21.712 11.2975L21.6639 11.2469C21.6224 11.2035 21.5621 11.1411 21.4848 11.0624C21.3301 10.9052 21.1066 10.6825 20.8269 10.4163C20.2686 9.88488 19.4804 9.17413 18.5639 8.46083C17.6505 7.74991 16.5897 7.02099 15.4866 6.46605C14.3951 5.91693 13.1876 5.5 12 5.5C10.8124 5.5 9.60491 5.91693 8.51338 6.46605C7.41025 7.02099 6.34954 7.74991 5.43607 8.46083C4.51955 9.17413 3.73145 9.88488 3.17315 10.4163C2.89341 10.6825 2.66992 10.9052 2.51525 11.0624C2.43788 11.1411 2.37764 11.2035 2.33609 11.2469L2.28796 11.2975L2.27476 11.3115L2.27093 11.3156L2.26973 11.3168C2.26956 11.317 2.26899 11.3176 3 12L2.26899 11.3176C1.91034 11.7019 1.91034 12.2981 2.26899 12.6824L3 12C2.26899 12.6824 2.26882 12.6822 2.26899 12.6824L2.27093 12.6844L2.27476 12.6885L2.28796 12.7025L2.33609 12.7531C2.37764 12.7965 2.43788 12.8589 2.51525 12.9376C2.66992 13.0948 2.89341 13.3175 3.17315 13.5837C3.73145 14.1151 4.51955 14.8259 5.43607 15.5392C6.34954 16.2501 7.41025 16.979 8.51338 17.534C9.60491 18.0831 10.8124 18.5 12 18.5C13.1876 18.5 14.3951 18.0831 15.4866 17.534C16.5897 16.979 17.6505 16.2501 18.5639 15.5392C19.4804 14.8259 20.2686 14.1151 20.8269 13.5837C21.1066 13.3175 21.3301 13.0948 21.4848 12.9376C21.5621 12.8589 21.6224 12.7965 21.6639 12.7531L21.712 12.7025L21.7252 12.6885L21.7303 12.6832C21.7304 12.683 21.731 12.6824 21 12ZM21 12L21.731 12.6824C22.0897 12.2981 22.0894 11.7015 21.7307 11.3173L21 12Z" fill="#FFFEFE"/>
</svg>
