<svg width="18" height="18" viewBox="0 0 18 18" fill="none" xmlns="http://www.w3.org/2000/svg">
<path d="M16.7304 3.23191C17.1209 2.84139 17.1209 2.20822 16.7304 1.8177L16.1823 1.26961C15.7918 0.879083 15.1586 0.879082 14.7681 1.26961L9.70711 6.33059C9.31658 6.72111 8.68342 6.72111 8.29289 6.33059L3.23191 1.26961C2.84139 0.879082 2.20822 0.879083 1.8177 1.26961L1.26961 1.8177C0.879083 2.20822 0.879083 2.84139 1.26961 3.23191L6.33059 8.29289C6.72111 8.68342 6.72111 9.31658 6.33059 9.70711L1.26961 14.7681C0.879082 15.1586 0.879083 15.7918 1.26961 16.1823L1.8177 16.7304C2.20822 17.1209 2.84139 17.1209 3.23191 16.7304L8.29289 11.6694C8.68342 11.2789 9.31658 11.2789 9.70711 11.6694L14.7681 16.7304C15.1586 17.1209 15.7918 17.1209 16.1823 16.7304L16.7304 16.1823C17.1209 15.7918 17.1209 15.1586 16.7304 14.7681L11.6694 9.70711C11.2789 9.31658 11.2789 8.68342 11.6694 8.29289L16.7304 3.23191Z" fill="#BF0C0C"/>
</svg>
