<svg width="638" height="694" viewBox="0 0 638 694" fill="none" xmlns="http://www.w3.org/2000/svg">
<path d="M526.021 407.212H199.01V653.998H526.021V407.212Z" fill="#064E3B"/>
<path d="M329.648 407.212H199.01V653.998H329.648V407.212Z" fill="url(#paint0_linear_2492_5559)"/>
<path d="M308.832 356.959C308.832 356.959 283.676 333.501 263.224 353.435C242.771 373.37 158.271 510.263 158.271 510.263L183.828 529.144L279.681 413.988L296.366 442.677L308.832 356.959Z" fill="#FCBA9F"/>
<path fill-rule="evenodd" clip-rule="evenodd" d="M291.717 618.893C302.254 610.668 313.114 602.19 324.551 599.452C324.809 599.389 325.076 599.387 325.335 599.445C325.593 599.503 325.836 599.621 326.048 599.79C326.26 599.959 326.434 600.175 326.56 600.424C326.686 600.672 326.759 600.946 326.775 601.228L328.029 623.895C328.054 624.363 327.921 624.823 327.653 625.193C327.386 625.564 327.002 625.817 326.572 625.907L248.228 642.449C242.451 643.669 238.746 640.986 236.969 636.22C236.911 636.056 236.899 635.876 236.933 635.705C236.968 635.533 237.048 635.375 237.164 635.251C237.281 635.127 237.428 635.04 237.589 635.004C237.75 634.966 237.918 634.979 238.071 635.041C248.363 639.08 259.725 638.657 269.727 633.86C276.954 630.418 284.254 624.719 291.717 618.893Z" fill="#870000"/>
<path fill-rule="evenodd" clip-rule="evenodd" d="M315.761 544.63C315.761 544.63 317.245 580.406 318.026 584.046C318.564 586.035 319.238 587.979 320.043 589.862C321.386 593.282 322.882 597.092 323.019 599.861C312.144 602.956 301.783 611.042 291.719 618.897C284.256 624.722 276.957 630.419 269.729 633.86C260.21 638.424 249.44 639.039 239.519 635.583C238.157 629.399 242.111 622.553 252.086 619.468C269.966 613.941 279.736 610.437 285.971 594.462C290.401 583.11 282.981 543.587 282.981 543.587L315.761 544.63Z" fill="#FFCCB3"/>
<path fill-rule="evenodd" clip-rule="evenodd" d="M286.753 588.422C290.268 588.191 304.237 587.208 317.61 585.34C320.209 584.978 322.529 590.192 321.419 593.509C320.692 595.931 320.15 598.412 319.797 600.927C315.433 602.631 311.247 604.813 307.304 607.437C308.112 601.527 304.737 598.91 299.724 599.179C295.764 599.393 286.818 602.08 282.206 603.539C281.952 603.618 281.682 603.618 281.429 603.541C281.175 603.462 280.948 603.307 280.773 603.095C280.599 602.883 280.485 602.622 280.445 602.342C280.406 602.064 280.441 601.778 280.548 601.52L285.571 589.305C285.672 589.056 285.837 588.841 286.045 588.685C286.254 588.53 286.498 588.439 286.753 588.422Z" fill="#E05151"/>
<path fill-rule="evenodd" clip-rule="evenodd" d="M249.76 637.692C258.862 638.453 264.367 635.925 264.367 635.925L260.704 616.132L246.464 619.875L249.76 637.692Z" fill="#E05151"/>
<path fill-rule="evenodd" clip-rule="evenodd" d="M135.632 547.432C148.646 548.469 162.06 549.537 172.428 555.374C172.663 555.505 172.868 555.688 173.029 555.912C173.191 556.135 173.304 556.393 173.363 556.669C173.422 556.944 173.423 557.229 173.368 557.506C173.313 557.782 173.202 558.042 173.044 558.267L160.24 576.392C159.976 576.766 159.595 577.024 159.166 577.12C158.739 577.217 158.292 577.144 157.91 576.915L88.226 535.242C83.0877 532.169 81.8959 527.56 83.4356 522.701C83.4909 522.535 83.5901 522.391 83.721 522.284C83.8519 522.177 84.0082 522.112 84.1725 522.098C84.3367 522.084 84.501 522.121 84.6459 522.204C84.7908 522.287 84.9112 522.413 84.9902 522.567C90.3735 532.77 99.2807 540.318 109.807 543.595C117.398 545.981 126.414 546.699 135.632 547.432Z" fill="#870000"/>
<path fill-rule="evenodd" clip-rule="evenodd" d="M199.01 507.549L176.811 539.124C176.013 541.011 175.347 542.958 174.816 544.95C173.763 548.484 172.589 552.42 171.013 554.623C160.855 549.447 148.059 548.427 135.63 547.435C126.413 546.7 117.399 545.981 109.807 543.595C99.7897 540.475 91.218 533.483 85.7627 523.981C88.4785 518.33 95.6448 515.856 105.111 520.418C122.077 528.595 131.642 532.695 146.084 524.851C148.412 523.387 150.498 521.524 152.258 519.336L174.687 484.049L199.01 507.549Z" fill="#FCBA9F"/>
<path fill-rule="evenodd" clip-rule="evenodd" d="M150.345 520.796C153.161 523.055 164.392 531.983 175.707 539.823C177.906 541.348 176.507 546.924 173.649 548.681C171.626 550.021 169.707 551.533 167.911 553.205C163.556 551.479 159.044 550.24 154.449 549.508C158.652 545.568 157.672 541.237 153.69 537.97C150.547 535.389 142.105 531.238 137.708 529.154C137.467 529.04 137.261 528.853 137.116 528.617C136.97 528.382 136.891 528.107 136.887 527.824C136.883 527.542 136.955 527.264 137.094 527.025C137.233 526.785 137.433 526.592 137.672 526.469L148.909 520.649C149.138 520.53 149.393 520.48 149.646 520.507C149.899 520.532 150.142 520.632 150.345 520.796Z" fill="#E05151"/>
<path fill-rule="evenodd" clip-rule="evenodd" d="M92.2793 532.681C98.7465 539.564 104.471 541.453 104.471 541.453L113.697 523.847L100.584 516.833L92.2793 532.681Z" fill="#E05151"/>
<path d="M343.328 339.938L277 352.526L290.056 408.615H332.542C332.542 408.615 352.739 362.241 343.328 339.938Z" fill="#FFCCB3"/>
<path d="M285.502 408.067C300.242 408.067 312.192 395.301 312.192 379.554C312.192 363.807 300.242 351.042 285.502 351.042C270.761 351.042 258.812 363.807 258.812 379.554C258.812 395.301 270.761 408.067 285.502 408.067Z" fill="#FFCCB3"/>
<path d="M259.142 384.046L285.849 562.692L316.654 564.065L313.057 387.474L259.142 384.046Z" fill="#FFCCB3"/>
<path d="M300.98 344.852C300.98 344.852 311.203 348.215 315.422 366.026C319.642 383.836 315.037 408.615 315.037 408.615H321.611C321.611 408.615 345.048 379.212 327.805 341.74L300.98 344.852Z" fill="#FF967C"/>
<path d="M365.473 192.082L357.125 196.361C353.923 198.002 351.101 200.378 348.859 203.318C346.616 206.26 345.01 209.693 344.152 213.374L325.28 294.496L282.731 316.229L292.432 332.688L372.879 329.64L365.473 192.082Z" fill="#E05151"/>
<path d="M353.45 221.285C353.45 221.285 338.8 243.272 345.889 264.213C352.978 285.155 350.084 289.038 348.311 307.591C346.538 326.143 352.327 321.829 352.327 321.829L372.879 311.474C372.879 311.474 381.454 223.715 353.45 221.285Z" fill="#DF3131"/>
<path d="M439.64 322.264C439.64 322.264 447.763 364.728 437.118 382.473C423.645 404.934 407.164 408.374 394.985 408.616H315.038C315.038 408.616 314.89 355.332 275.504 346.228C275.504 346.228 405.13 307.661 439.64 322.264Z" fill="#3B1E1E"/>
<path d="M441.432 334.629L356.703 337.609L357.604 331.287L374.115 329.248H441.313L441.432 334.629Z" fill="#2A0F0F"/>
<path d="M331.85 314.732C331.85 314.732 321.485 317.951 316.829 319.414C312.173 320.877 302.966 324.388 302.966 324.388L309.707 334.629L340.257 332.688L331.85 314.732Z" fill="#FFCCB3"/>
<path d="M382.079 184.509C382.079 184.509 364.68 191.864 362.023 194.133C359.367 196.404 356.844 214.932 352.328 223.729C347.812 232.527 341.205 248.764 350.855 263.679C360.505 278.594 359.478 290.437 359.478 290.437L357.425 327.851L437.916 330.467C438.649 330.491 439.377 330.349 440.054 330.051C440.731 329.752 441.342 329.303 441.844 328.734C442.347 328.164 442.73 327.488 442.97 326.747C443.21 326.008 443.299 325.223 443.233 324.443C442.309 313.535 440.758 297.238 440.426 279.868C439.977 256.328 439.64 177.672 439.64 177.672L403.413 176.457C396.116 177.801 382.079 184.509 382.079 184.509Z" fill="#E05151"/>
<path d="M439.639 219.432C450.434 219.432 459.185 210.083 459.185 198.552C459.185 187.02 450.434 177.672 439.639 177.672C428.845 177.672 420.094 187.02 420.094 198.552C420.094 210.083 428.845 219.432 439.639 219.432Z" fill="#E05151"/>
<path d="M442.275 315.816C442.275 315.816 440.603 322.344 422.729 329.973C422.729 329.973 380.826 329 360.007 329.467C339.188 329.936 362.239 324.068 373.86 317.878C385.482 311.688 440.953 294.496 440.953 294.496L442.275 315.816Z" fill="#DF3131"/>
<path d="M425.381 209.824C425.381 209.824 413.262 221.628 412.549 230.386C411.836 239.145 410.188 263.565 394.613 266.001C375.522 268.986 370.525 271.893 379.375 274.178C388.225 276.463 408.31 272.76 408.31 282.555C408.31 289.525 416.114 294.74 420.035 290.932C423.956 287.125 455.187 229.244 425.381 209.824Z" fill="#DF3131"/>
<path d="M458.976 201.607C457.333 209.986 441.7 298.261 441.7 298.261C441.7 298.261 439.641 311.467 427.561 314.732L343.329 337.609L328.507 313.858L404.9 285.947L420.095 198.552C420.095 198.552 461.169 190.429 458.976 201.607Z" fill="#E05151"/>
<path d="M380.115 168.252L380.917 197.22C380.917 197.22 380.702 202.219 386.38 201.544C392.059 200.87 403.487 196.335 406.642 190.494C409.797 184.652 407.805 182.648 407.805 182.648L390.473 146.56L380.115 168.252Z" fill="#FFCCB3"/>
<path d="M380.115 171.619L387.21 162.631L380.726 190.283L380.115 171.619Z" fill="#FF967C"/>
<path d="M386.439 96.8473C386.132 91.3207 387.26 85.8101 389.699 80.9243C393.736 73.1289 402.121 62.3478 414.852 66.9924C427.584 71.6361 436.899 82.086 432.086 96.8473C427.274 111.61 413.902 116.333 407.089 114.76C400.276 113.188 386.439 96.8473 386.439 96.8473Z" fill="#080B09"/>
<path d="M382.341 98.9005C383.073 97.5794 384.171 96.5332 385.483 95.9045C386.794 95.2758 388.256 95.0957 389.666 95.3894C394.704 96.3802 400.008 100.63 404.515 105.728C409.023 110.826 408.875 114.527 406.828 116.784C404.78 119.041 382.341 98.9005 382.341 98.9005Z" fill="#9B0303"/>
<path d="M270.665 246.699L302.965 342.293H367.907C367.907 339.374 366.821 336.574 364.889 334.511C362.958 332.447 360.337 331.287 357.604 331.287H310.621L282.731 246.699H270.665Z" fill="white"/>
<path d="M270.665 246.699H183.532L217.229 342.293H302.965L270.665 246.699Z" fill="#A7F3D0"/>
<path d="M243.248 305.781C247.588 305.781 251.106 302.022 251.106 297.387C251.106 292.751 247.588 288.992 243.248 288.992C238.908 288.992 235.391 292.751 235.391 297.387C235.391 302.022 238.908 305.781 243.248 305.781Z" fill="white"/>
<path d="M344.847 132.633C344.847 132.633 347.534 160.359 360.161 172.984C368.397 181.218 375.949 179.108 387.209 162.631C397.533 147.522 398.441 140.175 398.441 140.175L387.53 113.949C387.53 113.949 343.564 107.263 344.847 132.633Z" fill="#FFCCB3"/>
<path d="M349.316 127.204C349.316 127.204 355.529 137.769 366.909 137.94C369.291 140.024 372.134 141.418 375.166 141.988C378.198 142.559 381.316 142.285 384.22 141.194C384.22 141.194 379.682 133.84 384.22 131.262C391.926 126.886 394.582 141.479 390.471 146.56C387.678 150.014 390.632 154.036 392.715 157.632C394.799 161.228 401.531 170.131 401.531 170.131C401.531 170.131 400.89 164.995 403.935 161.228C406.981 157.461 416.86 118.895 398.509 104.707C380.159 90.5212 360.843 101.871 357.222 104.707C357.222 104.707 337.94 108.305 337.905 129.727C337.876 148.041 350.077 152.398 350.077 152.398L346.436 137.616C346.436 137.616 348.688 137.873 349.316 127.204Z" fill="#080B09"/>
<path d="M369.824 161.357C369.824 161.357 371.25 166.109 366.414 168.317C363.15 169.463 360.87 166.049 360.87 166.049L369.824 161.357Z" fill="#E56441"/>
<path d="M352.905 154.387C353.91 154.122 354.428 152.625 354.062 151.043C353.696 149.462 352.586 148.394 351.581 148.659C350.577 148.924 350.058 150.421 350.424 152.003C350.789 153.585 351.9 154.653 352.905 154.387Z" fill="#080B09"/>
<path d="M367.802 150.698C368.807 150.434 369.325 148.936 368.96 147.355C368.594 145.773 367.483 144.706 366.478 144.971C365.474 145.236 364.955 146.733 365.322 148.314C365.687 149.896 366.798 150.964 367.802 150.698Z" fill="#080B09"/>
<path d="M347.127 145.858L354.708 143.999C354.835 143.956 354.942 143.865 355.01 143.744C355.079 143.623 355.104 143.478 355.082 143.339C354.997 143.101 354.868 142.883 354.704 142.7C354.539 142.516 354.34 142.37 354.121 142.271C353.901 142.171 353.666 142.12 353.427 142.121C353.189 142.121 352.953 142.174 352.734 142.274L346.789 144.964C346.295 145.095 346.508 146.021 347.127 145.858Z" fill="#080B09"/>
<path d="M372.581 138.609L362.708 141.915C362.642 141.585 362.641 141.245 362.706 140.915C362.771 140.585 362.9 140.274 363.084 140.001C363.268 139.728 363.504 139.499 363.776 139.328C364.049 139.158 364.351 139.051 364.664 139.014L372.553 137.915C372.799 137.85 372.952 138.512 372.581 138.609Z" fill="#080B09"/>
<path d="M358.221 149.098L357.15 157.637L359.973 159.093" stroke="#E56441" stroke-width="0.94666" stroke-linecap="round"/>
<path d="M532.218 127.77C557.465 132.788 581.997 116.395 587.013 91.1574C592.028 65.9187 575.628 41.392 550.381 36.3749C525.129 31.3564 500.596 47.7486 495.581 72.9873C490.565 98.2254 506.966 122.752 532.218 127.77Z" fill="#E05151"/>
<path d="M557.812 84.1994C558.399 81.2439 558.173 78.1838 557.154 75.3473C556.136 72.5108 554.365 70.0046 552.031 68.0972C549.697 66.1891 546.886 64.9515 543.903 64.5167C540.919 64.0819 537.874 64.466 535.097 65.6298C532.315 66.7923 529.905 68.689 528.116 71.1164C526.328 73.5438 525.239 76.4119 524.959 79.413C524.679 82.4135 525.217 85.4331 526.522 88.1495C527.827 90.8666 529.852 93.179 532.37 94.837L531.307 100.185L543.587 102.625L544.65 97.2773C547.898 96.6528 550.884 95.0752 553.226 92.7449C555.573 90.4165 557.168 87.4404 557.812 84.1994Z" stroke="white" stroke-width="3.71807" stroke-linecap="round" stroke-linejoin="round"/>
<path d="M531.306 100.184L543.631 102.634L543.11 105.257C542.889 106.368 542.237 107.346 541.29 107.975C540.35 108.605 539.194 108.834 538.086 108.614L534.142 107.83C533.028 107.609 532.054 106.956 531.42 106.013C530.792 105.071 530.564 103.918 530.784 102.807L531.306 100.184Z" stroke="white" stroke-width="3.71807" stroke-linecap="round" stroke-linejoin="round"/>
<path d="M534.692 100.858L538.41 82.149C538.499 81.701 538.403 81.2357 538.148 80.856C537.894 80.4764 537.502 80.2134 537.055 80.1246L537.003 80.1143C536.556 80.0255 536.087 80.1173 535.713 80.3721C535.333 80.6256 535.066 81.0188 534.977 81.4668C534.933 81.6882 534.935 81.9167 534.978 82.1387C535.022 82.36 535.108 82.5703 535.238 82.7598C535.363 82.9473 535.526 83.109 535.71 83.2337C535.9 83.3597 536.112 83.4469 536.332 83.4906L545.322 85.2771C545.542 85.3209 545.771 85.3213 545.995 85.2776C546.213 85.2327 546.425 85.1457 546.612 85.0199C546.805 84.8948 546.965 84.7334 547.09 84.5456C547.215 84.3571 547.304 84.1466 547.348 83.9252C547.437 83.4772 547.341 83.0119 547.086 82.6322C546.832 82.2526 546.44 81.9896 545.993 81.9008L545.844 81.8712C545.397 81.7823 544.934 81.8754 544.554 82.129C544.173 82.3825 543.907 82.7757 543.818 83.2237L540.1 101.932" stroke="white" stroke-width="3.71807" stroke-linecap="round" stroke-linejoin="round"/>
<path d="M546.504 55.9268L545.673 60.1091" stroke="white" stroke-width="3.71807" stroke-linecap="round" stroke-linejoin="round"/>
<path d="M530.617 56.958L531.989 60.9961" stroke="white" stroke-width="3.71807" stroke-linecap="round" stroke-linejoin="round"/>
<path d="M517.384 65.791L520.589 68.6017" stroke="white" stroke-width="3.71807" stroke-linecap="round" stroke-linejoin="round"/>
<path d="M569.613 76.2074L565.577 77.5791" stroke="white" stroke-width="3.71807" stroke-linecap="round" stroke-linejoin="round"/>
<path d="M560.777 62.9728L557.965 66.1787" stroke="white" stroke-width="3.71807" stroke-linecap="round" stroke-linejoin="round"/>
<circle cx="601.302" cy="343.466" r="13.1741" fill="#F46F31"/>
<circle cx="150.56" cy="415.924" r="8.46904" fill="#F46F31"/>
<circle cx="8.46904" cy="319.001" r="8.46904" fill="url(#paint1_linear_2492_5559)"/>
<circle cx="136.446" cy="136.446" r="8.46904" fill="#F46F31"/>
<circle cx="352.876" cy="8.46904" r="8.46904" fill="#10B981"/>
<circle cx="148.208" cy="663.878" r="17.4086" fill="url(#paint2_linear_2492_5559)"/>
<circle cx="120.921" cy="643.176" r="7.05753" fill="#10B981"/>
<circle cx="628.119" cy="101.158" r="9.88054" fill="url(#paint3_linear_2492_5559)"/>
<circle cx="533.549" cy="185.378" r="7.52803" fill="#10B981"/>
<path d="M197.663 47.1077C190.204 45.6212 182.134 47.195 173.722 51.485C168.034 54.1783 163.224 58.4249 159.846 63.7348C155.948 69.8193 154.653 76.8199 155.691 85.0813L151.985 90.7066L157.035 91.8124L172.062 85.2611C171.048 81.7404 170.901 78.0264 171.634 74.4365C172.396 70.611 174.881 67.6258 179.163 65.5955C183.446 63.5652 187.079 63.295 189.72 65.0144C192.379 66.7631 194.322 69.4086 195.195 72.4693C196.072 75.2896 196.127 78.3015 195.354 81.152C194.883 82.9644 194.136 84.6937 193.139 86.2791L190.083 91.6363C187.065 96.8022 185.461 100.858 185.348 103.918C185.4 107.199 185.852 110.461 186.694 113.632L183.102 118.187L188.151 119.293L204.442 113.888C203.494 111.32 202.925 108.627 202.754 105.895C202.699 102.824 203.577 99.8092 205.272 97.2484L208.52 91.9294C211.168 87.9289 213.298 83.609 214.86 79.0729C216.384 73.7177 216.125 68.0121 214.122 62.817C211.018 53.9452 205.506 48.6705 197.663 47.1077Z" fill="#F8AB5D"/>
<path d="M198.481 124.335L197.945 124.527C196.78 124.935 195.709 125.573 194.794 126.403C193.88 127.232 193.141 128.237 192.621 129.357C192.101 130.477 191.811 131.69 191.768 132.924C191.725 134.158 191.929 135.388 192.369 136.541C193.075 138.998 194.691 141.093 196.888 142.4C199.085 143.706 201.698 144.125 204.194 143.571L204.805 143.494C209.854 142.114 212.527 136.68 210.726 131.25C208.924 125.82 203.376 122.725 198.481 124.335Z" fill="#F8AB5D"/>
<path d="M154.91 62.5524C158.392 57.3328 163.175 53.1107 168.786 50.3026C177.198 46.0127 185.153 44.5154 192.728 45.9254C200.302 47.3354 206.082 52.7629 209.225 61.9407C211.19 67.1437 211.448 72.8369 209.963 78.1965C209.162 81.2188 207.023 85.4661 203.622 91.053L200.375 96.372C198.68 98.9328 197.801 101.948 197.856 105.018C198.121 107.737 198.687 110.418 199.545 113.011L183.254 118.416C181.222 111.15 180.224 106.178 180.451 103.042C180.679 99.9048 182.168 95.9258 185.186 90.7599L188.242 85.4027C189.221 83.808 189.967 82.0815 190.457 80.2756C191.326 77.4377 191.27 74.3972 190.298 71.593C189.303 68.5935 187.387 65.9845 184.823 64.138C182.297 62.342 178.663 62.6123 174.266 64.7191C169.869 66.826 167.499 69.7346 166.737 73.5602C165.933 77.1439 166.081 80.8757 167.165 84.3847L152.138 90.936C149.146 79.5013 149.981 70.3207 154.91 62.5524ZM194.16 124.567L194.695 124.375C197.209 123.705 199.886 124.041 202.157 125.31C204.428 126.579 206.116 128.683 206.864 131.175C208.665 136.606 205.877 142.115 200.943 143.419L200.331 143.496C197.836 144.05 195.223 143.631 193.026 142.325C190.829 141.018 189.213 138.923 188.507 136.467C187.681 134.139 187.812 131.578 188.872 129.347C189.932 127.116 191.833 125.397 194.16 124.567Z" fill="#FFE779"/>
<path d="M260.082 53.1262C257.275 50.4726 253.381 48.9702 248.605 48.5432C245.432 48.1653 242.217 48.6922 239.331 50.0631C236.012 51.6269 233.564 54.2871 231.78 58.1197L228.667 59.5376L230.54 61.3767L238.771 62.6179C239.285 60.8302 240.225 59.1936 241.51 57.848C242.871 56.409 244.745 55.7962 247.134 56.0797C249.524 56.3633 251.159 57.2282 251.83 58.6806C252.502 60.1506 252.623 61.8128 252.171 63.3645C251.787 64.814 250.997 66.1239 249.895 67.1408C249.203 67.7928 248.415 68.3346 247.558 68.7472L244.798 70.2253C242.105 71.6315 240.32 72.9423 239.445 74.2276C238.582 75.6524 237.895 77.1771 237.401 78.768L234.626 79.7562L236.499 81.5953L244.963 83.6706C245.249 82.3103 245.731 80.9989 246.395 79.7777C247.201 78.4426 248.393 77.3834 249.813 76.7401L252.646 75.33C254.865 74.325 256.947 73.0429 258.844 71.5143C260.945 69.6231 262.374 67.0999 262.916 64.3253C263.977 59.6723 263.032 55.916 260.082 53.1262Z" fill="#F8AB5D"/>
<path d="M239.579 86.5531L239.297 86.4909C238.685 86.3519 238.052 86.3368 237.435 86.4465C236.818 86.5563 236.229 86.7886 235.703 87.1298C235.177 87.471 234.725 87.9141 234.373 88.4331C234.021 88.952 233.777 89.5362 233.655 90.1511C233.295 91.398 233.424 92.7352 234.016 93.8902C234.608 95.0452 235.618 95.9309 236.84 96.3667L237.124 96.4989C239.668 97.2685 242.285 95.6543 242.976 92.8329C243.668 90.0115 242.118 87.1827 239.579 86.5531Z" fill="#F8AB5D"/>
<path d="M237.527 48.2218C240.434 46.9179 243.63 46.394 246.801 46.7019C251.577 47.1289 255.402 48.6333 258.278 51.285C261.154 53.9366 262.173 57.8311 261.046 62.626C260.486 65.3938 259.06 67.9115 256.974 69.815C255.813 70.8981 253.747 72.1467 250.776 73.6307L247.943 75.0408C246.523 75.6841 245.331 76.7433 244.525 78.0784C243.905 79.3189 243.425 80.6245 243.093 81.9712L234.629 79.8959C235.717 76.2229 236.631 73.8156 237.575 72.5283C238.52 71.241 240.235 69.9322 242.928 68.526L245.688 67.0479C246.54 66.6265 247.327 66.0855 248.025 65.4415C249.165 64.4559 249.962 63.1334 250.302 61.6652C250.684 60.1069 250.565 58.4677 249.961 56.9813C249.36 55.527 247.724 54.662 245.265 54.3804C242.805 54.0989 241.001 54.7096 239.64 56.1487C238.326 57.4724 237.382 59.1169 236.901 60.9186L228.67 59.6774C230.472 53.9529 233.31 50.231 237.527 48.2218ZM237.657 85.4855L237.939 85.5477C239.201 85.9387 240.261 86.8055 240.895 87.9646C241.529 89.1237 241.687 90.4841 241.335 91.7575C240.643 94.5789 237.956 96.195 235.483 95.4235L235.199 95.2913C233.977 94.8555 232.966 93.9698 232.374 92.8148C231.782 91.6599 231.653 90.3226 232.013 89.0757C232.286 87.8517 233.034 86.7861 234.092 86.113C235.151 85.4399 236.433 85.2142 237.657 85.4855Z" fill="#FFE779"/>
<path d="M529.161 553.474C529.161 553.474 520.45 537.082 542.284 526.75C564.117 516.419 594.435 526.651 591.72 530.228C587.488 536.051 582.681 541.536 577.353 546.62C570.452 553.276 550.655 563.608 529.161 553.474Z" fill="#6DAFA7"/>
<path d="M587.874 529.532C587.874 529.532 539.908 520.094 529.048 553.474C518.187 586.854 521.581 618.843 521.581 618.843" stroke="#22272E" stroke-width="1.8" stroke-linecap="round" stroke-linejoin="round"/>
<path d="M485.946 591.027L493.752 671.794C493.752 674.874 508.006 677.258 525.654 677.258C543.302 677.258 557.556 674.775 557.556 671.794L565.362 591.027H485.946Z" fill="#22272E"/>
<path d="M525.654 596.292C547.522 596.292 565.249 593.935 565.249 591.027C565.249 588.119 547.522 585.761 525.654 585.761C503.787 585.761 486.06 588.119 486.06 591.027C486.06 593.935 503.787 596.292 525.654 596.292Z" fill="#6DAFA7"/>
<path d="M515.585 574.237C515.585 574.237 502.802 568.674 494.543 581.192C486.285 593.709 492.394 612.585 498.05 615.366C503.707 618.148 527.237 608.71 527.237 589.735C527.237 572.847 515.585 574.237 515.585 574.237Z" fill="#6DAFA7"/>
<path d="M515.587 574.237C515.587 574.237 502.803 573.442 498.957 612.783" stroke="#22272E" stroke-width="1.8" stroke-linecap="round" stroke-linejoin="round"/>
<path d="M505.856 551.289C505.856 551.289 492.394 532.91 465.47 544.732C438.546 556.554 439.338 589.139 443.523 591.027C447.709 592.914 510.721 573.641 505.856 551.289Z" fill="#6DAFA7"/>
<path d="M527.237 589.735C527.237 589.735 518.866 563.905 505.856 551.189C492.846 538.473 452.46 553.077 445.333 583.774" stroke="#22272E" stroke-width="1.8" stroke-linecap="round" stroke-linejoin="round"/>
<path d="M542.283 561.62C542.283 561.62 530.857 558.143 525.653 570.561C520.563 582.682 526.558 610.3 555.971 618.645C556.731 618.851 557.543 618.857 558.307 618.663C559.071 618.469 559.753 618.083 560.27 617.552C567.629 609.733 571.597 599.878 571.47 589.735C571.357 569.568 558.686 554.964 542.283 561.62Z" fill="#6DAFA7"/>
<path d="M542.284 561.62C542.284 561.62 566.041 571.853 557.33 614.869" stroke="#22272E" stroke-width="1.8" stroke-linecap="round" stroke-linejoin="round"/>
<path d="M71.5541 316.447L128.551 300.535C129.19 300.363 129.858 300.324 130.513 300.42C131.168 300.516 131.797 300.745 132.362 301.093C132.926 301.441 133.413 301.901 133.794 302.444C134.175 302.988 134.441 303.603 134.576 304.253L141.613 340.891C141.941 342.43 141.71 344.035 140.962 345.417C140.214 346.799 138.999 347.867 137.534 348.43L81.9283 370.755C81.2907 371.011 80.6046 371.123 79.9184 371.084C79.2323 371.045 78.5628 370.855 77.9576 370.527C77.3524 370.2 76.8262 369.744 76.4162 369.19C76.0061 368.637 75.7224 368 75.585 367.325L66.9717 324.327C66.7559 323.507 66.7032 322.653 66.8167 321.813C66.9302 320.974 67.2075 320.165 67.6331 319.433C68.0586 318.702 68.6239 318.061 69.2967 317.549C69.9694 317.037 70.7366 316.662 71.5541 316.447Z" stroke="#CC3100" stroke-width="1.8" stroke-linecap="round" stroke-linejoin="round"/>
<path d="M68.2158 318.78L106.551 327.479C107.785 327.729 109.065 327.63 110.246 327.195C111.428 326.759 112.465 326.003 113.242 325.01L132.06 300.955" stroke="#CC3100" stroke-width="1.8" stroke-linecap="round" stroke-linejoin="round"/>
<path d="M552.371 632.939L556.241 686.699C556.241 690.574 569.624 693.48 586.07 693.48C602.517 693.48 615.899 690.332 615.899 686.699L619.769 632.939H552.371Z" fill="#22272E"/>
<path d="M619.769 632.939C619.769 637.297 604.613 640.688 586.07 640.688C567.528 640.688 552.371 637.297 552.371 632.939C552.371 628.58 567.528 625.189 586.07 625.189C604.613 625.189 619.769 628.822 619.769 632.939Z" fill="#FFE779"/>
<path d="M577.04 632.939C577.04 632.939 558.981 622.284 560.916 601.458C562.85 580.632 576.233 623.737 579.619 617.198C583.005 610.66 578.652 578.937 586.069 576.031C593.486 573.125 591.551 617.683 591.551 617.683C596.142 614.193 600.289 609.521 603.805 603.879C608.481 595.646 615.253 614.05 596.066 632.939C589.972 636.712 583.133 636.712 577.04 632.939Z" fill="#36867C"/>
<defs>
<linearGradient id="paint0_linear_2492_5559" x1="271.48" y1="415.924" x2="271.48" y2="660.585" gradientUnits="userSpaceOnUse">
<stop stop-color="white"/>
<stop offset="1" stop-color="#6EE7B7" stop-opacity="0"/>
</linearGradient>
<linearGradient id="paint1_linear_2492_5559" x1="8.46904" y1="310.531" x2="8.46904" y2="327.47" gradientUnits="userSpaceOnUse">
<stop stop-color="#E05151"/>
<stop offset="1" stop-color="#C60707" stop-opacity="0"/>
</linearGradient>
<linearGradient id="paint2_linear_2492_5559" x1="148.208" y1="646.47" x2="148.208" y2="681.287" gradientUnits="userSpaceOnUse">
<stop stop-color="#E05151"/>
<stop offset="1" stop-color="#C60707" stop-opacity="0"/>
</linearGradient>
<linearGradient id="paint3_linear_2492_5559" x1="628.119" y1="91.2773" x2="628.119" y2="111.038" gradientUnits="userSpaceOnUse">
<stop stop-color="#E05151"/>
<stop offset="1" stop-color="#C60707" stop-opacity="0"/>
</linearGradient>
</defs>
</svg>
