<svg width="17" height="16" viewBox="0 0 17 16" fill="none" xmlns="http://www.w3.org/2000/svg">
<path d="M7.65186 16C7.37663 16 7.14607 15.904 6.96021 15.712C6.77369 15.5207 6.68044 15.2833 6.68044 15V9L1.04615 1.6C0.803292 1.26667 0.767025 0.916667 0.937349 0.55C1.10703 0.183334 1.40234 0 1.82329 0H15.4233C15.8442 0 16.1399 0.183334 16.3102 0.55C16.4799 0.916667 16.4433 1.26667 16.2004 1.6L10.5661 9V15C10.5661 15.2833 10.4732 15.5207 10.2873 15.712C10.1008 15.904 9.86996 16 9.59472 16H7.65186ZM8.62329 8.3L13.4319 2H3.81472L8.62329 8.3Z" fill="#DF3131"/>
</svg>
