<svg xmlns="http://www.w3.org/2000/svg" width="36" height="35" viewBox="0 0 36 35" fill="none">
<mask id="mask0_1503_27999" style="mask-type:alpha" maskUnits="userSpaceOnUse" x="0" y="0" width="36" height="35">
<rect x="0.421387" y="0.227051" width="34.9412" height="34.7701" fill="#D9D9D9"/>
</mask>
<g mask="url(#mask0_1503_27999)">
<path d="M16.4357 29.202C16.0234 29.202 15.6777 29.0632 15.3988 28.7856C15.1198 28.508 14.9804 28.1641 14.9804 27.7538V19.0613L6.35427 8.12258C6.01417 7.68795 5.96554 7.22927 6.20839 6.74655C6.45123 6.26382 6.85159 6.02246 7.40949 6.02246H28.3742C28.9321 6.02246 29.3325 6.26382 29.5753 6.74655C29.8181 7.22927 29.7695 7.68795 29.4294 8.12258L20.8033 19.0613V27.7538C20.8033 28.1641 20.6638 28.508 20.3849 28.7856C20.1059 29.0632 19.7603 29.202 19.348 29.202H16.4357ZM17.8918 18.8074L26.1179 8.44855H9.66582L17.8918 18.8074Z" fill="#B89494"/>
</g>
</svg>
