<svg width="786" height="651" viewBox="0 0 786 651" fill="none" xmlns="http://www.w3.org/2000/svg">
<path d="M337.499 496C506.224 496 643 493.09 643 489.5C643 485.911 506.224 483 337.499 483C168.777 483 32 485.911 32 489.5C32 493.09 168.777 496 337.499 496Z" fill="#E4E4E4"/>
<path d="M194.32 532.555L238.73 625.459L233.223 628.092C231.363 628.981 229.228 629.095 227.286 628.409C225.344 627.723 223.753 626.293 222.865 624.435L185.153 545.545C184.266 543.687 184.151 541.552 184.837 539.609C185.523 537.666 186.953 536.076 188.812 535.188L194.32 532.555Z" fill="#D21B1B"/>
<path d="M242.672 511.577L212.022 524.247L229.217 548.563L256.388 540.272L242.672 511.577Z" fill="#FFCCB3"/>
<path d="M223.096 525.217C223.096 525.217 235.062 543.699 236.868 554.026C238.672 564.353 244.855 616.59 243.191 621.299C241.996 624.684 237.653 626.136 234.897 626.444C234.293 626.508 233.683 626.383 233.153 626.085C232.623 625.787 232.198 625.332 231.939 624.782L191.626 540.449C190.952 539.042 190.858 537.428 191.362 535.951C191.867 534.475 192.929 533.256 194.324 532.556C199.901 529.754 208.432 525.555 212.025 524.248C217.577 522.226 221.241 522.239 223.096 525.217Z" fill="#DF3131"/>
<path d="M440.061 569.429L398.412 646.313C397.431 648.124 395.77 649.471 393.796 650.058C391.821 650.645 389.694 650.423 387.883 649.442L382.514 646.534L431.563 555.992L436.931 558.901C438.743 559.882 440.09 561.542 440.677 563.516C441.264 565.491 441.043 567.618 440.061 569.429Z" fill="#D21B1B"/>
<path d="M384.336 532.597L414.306 546.8L395.904 570.215L369.186 560.562L384.336 532.597Z" fill="#FFCCB3"/>
<path d="M403.198 547.21C403.198 547.21 390.314 565.063 387.989 575.286C385.665 585.508 376.852 637.366 378.274 642.154C379.297 645.594 383.561 647.264 386.298 647.71C386.898 647.805 387.513 647.711 388.057 647.44C388.602 647.17 389.049 646.736 389.336 646.2L433.86 564.012C434.604 562.642 434.78 561.033 434.351 559.534C433.921 558.033 432.921 556.762 431.564 555.992C426.136 552.913 417.826 548.288 414.306 546.801C408.862 544.502 405.202 544.328 403.198 547.21Z" fill="#DF3131"/>
<path d="M474.628 423.079C474.628 423.079 486.101 480.054 477.198 491.217L250.32 549.312L230.973 513.072L363.459 452.954L389.992 416.586L474.628 423.079Z" fill="#2A0F0F"/>
<path d="M274.353 464.234H414.14L366.995 480.002L366.977 480.008L366.96 480.015L343.602 489.809L342.874 490.114L343.461 490.642L373.118 517.323L347.14 523.192L274.353 464.234Z" fill="#2B1E1E" stroke="#3B1E1E"/>
<path d="M311.982 532.225C312.557 532.493 313.05 532.724 313.453 532.914L282.019 540.583L247.164 513.378L245.765 508.516C246.042 508.357 246.45 508.234 247.016 508.174C247.759 508.095 248.71 508.13 249.849 508.275C252.127 508.564 255.08 509.281 258.481 510.307C265.278 512.358 273.792 515.618 282.131 519.059C290.467 522.498 298.617 526.113 304.684 528.868C307.717 530.245 310.229 531.407 311.982 532.225Z" fill="#2B1E1E" stroke="#3B1E1E"/>
<path d="M308.864 419.754C308.864 419.754 244.711 416.274 212.913 419.069C192.437 420.869 185.056 473.265 201.396 482.797L376.757 572.585L397.422 535.244L284.298 458.671L365.23 447.287L308.864 419.754Z" fill="#2A0F0F"/>
<path d="M218.306 487.256C237.251 487.256 252.61 471.897 252.61 452.951C252.61 434.005 237.251 418.646 218.306 418.646C199.359 418.646 184 434.005 184 452.951C184 471.897 199.359 487.256 218.306 487.256Z" fill="#2A0F0F"/>
<path d="M471.498 491.69C490.444 491.69 505.803 476.331 505.803 457.384C505.803 438.438 490.444 423.08 471.498 423.08C452.552 423.08 437.193 438.438 437.193 457.384C437.193 476.331 452.552 491.69 471.498 491.69Z" fill="#2A0F0F"/>
<path d="M377.521 295.503C373.907 277.661 382.406 278.121 385.235 275.284C385.235 275.284 395.845 266.534 403.931 274.691C412.489 283.319 461.548 350.339 461.548 350.339L430.852 378.571L425.082 371.686L410.136 353.861L394.15 334.809L392.164 332.64L370.599 308.214C370.599 308.214 379.565 304.896 377.521 295.503Z" fill="#DF3131"/>
<path d="M394.547 313.421C406.901 309.283 413.561 295.914 409.424 283.56C405.286 271.207 391.917 264.546 379.563 268.684C367.209 272.821 360.549 286.191 364.686 298.545C368.825 310.898 382.194 317.559 394.547 313.421Z" fill="#DF3131"/>
<path d="M392.452 332.544C391.833 328.815 390.595 321.357 389.262 314.559L382.179 281.661C382.179 281.661 401.201 309.774 409.963 329.355C416.454 344.029 423.983 358.985 425.228 371.637L410.283 353.811L394.297 334.76L392.452 332.544Z" fill="#D21B1B"/>
<path d="M492.213 274.886C499.507 261.583 496.002 259.324 499.105 251.754C502.162 244.368 496.734 226.059 501.93 228.555C507.126 231.052 508.734 237.686 508.734 237.686C512.288 231.4 515.561 219.834 524.067 218.509C532.575 217.185 533.328 219.863 538.15 223.82C550.979 234.494 534.62 250.535 531.89 256.644C530.133 260.472 517.226 272.146 515.796 274.698L509.299 284.121L492.213 274.886Z" fill="#FFCCB3"/>
<path d="M517.273 238.509L527.639 219.369L517.273 238.509Z" fill="#E56441"/>
<path d="M517.273 238.509L527.639 219.369" stroke="#E56441" stroke-width="0.94666" stroke-linecap="round"/>
<path d="M524.065 241.608L535.364 223.784L524.065 241.608Z" fill="#E56441"/>
<path d="M524.065 241.608L535.364 223.784" stroke="#E56441" stroke-width="0.94666" stroke-linecap="round"/>
<path d="M532.138 245.036L538.595 234.241L532.138 245.036Z" fill="#E56441"/>
<path d="M532.138 245.036L538.595 234.241" stroke="#E56441" stroke-width="0.94666" stroke-linecap="round"/>
<path d="M514.709 255.358C514.654 248.731 510.677 240.711 510.677 240.711L514.709 255.358Z" fill="#E56441"/>
<path d="M514.709 255.358C514.654 248.731 510.677 240.711 510.677 240.711" stroke="#E56441" stroke-width="0.94666" stroke-linecap="round"/>
<path d="M430.591 349.805L493.011 266.68C493.408 266.192 493.973 265.869 494.595 265.772C495.217 265.675 495.854 265.812 496.381 266.157L512.726 276.965C513.503 277.492 514.055 278.289 514.278 279.199C514.501 280.111 514.377 281.073 513.93 281.897L463.733 374.468L430.591 349.805Z" fill="#DF3131"/>
<path d="M445.759 384.917C457.304 384.917 466.663 375.559 466.663 364.014C466.663 352.47 457.304 343.112 445.759 343.112C434.215 343.112 424.857 352.47 424.857 364.014C424.857 375.559 434.215 384.917 445.759 384.917Z" fill="#DF3131"/>
<path d="M353.065 256.91C353.065 256.91 388.093 266.18 394.106 268.585C400.12 270.99 400.52 280.611 400.921 287.426C401.321 294.24 399.975 447.288 399.975 447.288L322.454 444.307L264.48 410.371C264.48 410.371 267 288.934 267.803 283.322C268.605 277.71 262.305 272.876 269.133 270.052L313.029 258.456L353.065 256.91Z" fill="#DF3131"/>
<path d="M294.733 311.431L295.357 424.509L262.03 387.364L278.154 307.913L294.733 311.431Z" fill="#D21B1B"/>
<path d="M307.312 260.183C307.312 260.183 302.353 270.157 307.312 277.036C312.271 283.916 332.123 290.598 345.686 290.402C359.248 290.205 366.434 277.275 360.286 259.171L337.823 252.86L313.029 258.456L307.312 260.183Z" fill="#D21B1B"/>
<path d="M363.459 174.235C363.459 174.235 373.226 195.31 362.809 199.663C352.392 204.017 353.606 175.258 363.459 174.235Z" fill="#2A0F0F"/>
<path d="M352.444 241.671L355.27 273.531C355.27 273.531 357.979 277.803 347.43 280.046C340.644 281.489 322.369 274.289 318.824 272.129C317.317 271.329 316.135 270.027 315.484 268.45C314.833 266.873 314.751 265.117 315.255 263.487C316.332 259.587 320.797 227.107 320.797 227.107L352.444 241.671Z" fill="#FFCCB3"/>
<path d="M352.985 247.815L336.152 239.499L354.918 269.605L352.985 247.815Z" fill="#FF967C"/>
<path d="M357.85 180.333C357.85 180.333 367.728 205.107 371.311 222.487C374.926 240.02 369.158 244.399 361.547 246.978C355.545 249.012 345.959 250.633 339.437 248.593C327.547 244.87 315.914 234.126 313.132 231.919C308.824 228.502 304.571 213.003 310.885 204.234C317.199 195.467 342.075 167.912 357.85 180.333Z" fill="#FFCCB3"/>
<path d="M345.131 214.529C346.445 214.012 346.87 211.967 346.081 209.963C345.292 207.957 343.588 206.751 342.274 207.268C340.961 207.784 340.535 209.829 341.324 211.835C342.113 213.839 343.817 215.046 345.131 214.529Z" fill="#080B09"/>
<path d="M363.189 207.293C364.502 206.777 364.928 204.732 364.138 202.727C363.35 200.722 361.646 199.515 360.332 200.032C359.018 200.549 358.593 202.594 359.382 204.598C360.17 206.604 361.875 207.81 363.189 207.293Z" fill="#080B09"/>
<path d="M356.568 210.715C356.568 210.715 354.964 215.57 358.336 215.097C361.542 214.534 363.716 216.118 360.916 219.371" fill="#E56441"/>
<path d="M356.568 210.715C356.568 210.715 354.964 215.57 358.336 215.097C361.542 214.534 363.716 216.118 360.916 219.371" stroke="#E56441" stroke-width="0.94666" stroke-linecap="round"/>
<path d="M361.072 223.663L361.088 223.659L361.105 223.654C361.152 223.64 361.201 223.638 361.248 223.65C361.296 223.661 361.339 223.685 361.375 223.719C361.41 223.752 361.436 223.796 361.449 223.843C361.462 223.889 361.463 223.939 361.45 223.987L361.44 224.027L361.436 224.069C361.229 226.193 360.701 227.455 360.059 228.166C359.439 228.851 358.661 229.079 357.778 229.012C356.873 228.944 355.879 228.562 354.915 228.038C353.963 227.521 353.079 226.885 352.395 226.34C352.349 226.296 352.314 226.241 352.296 226.181C352.275 226.117 352.273 226.048 352.29 225.984C352.305 225.919 352.339 225.86 352.386 225.812C352.434 225.765 352.493 225.732 352.558 225.716L352.563 225.714C355.17 225.055 359.103 224.128 361.072 223.663Z" fill="#E56441" stroke="#E56441"/>
<path d="M333.691 206.038L333.938 206.384C334.254 206.92 334.769 207.31 335.372 207.468C335.973 207.625 336.613 207.539 337.152 207.226L346.263 201.613C346.717 201.359 347.057 200.945 347.218 200.453C347.379 199.96 347.35 199.424 347.135 198.952C347.017 198.658 346.839 198.39 346.61 198.169C346.382 197.948 346.108 197.778 345.809 197.67C345.51 197.564 345.191 197.52 344.875 197.545C344.558 197.57 344.25 197.661 343.971 197.813L334.612 203.081C334.354 203.211 334.124 203.391 333.937 203.612C333.75 203.832 333.609 204.088 333.523 204.364C333.438 204.64 333.408 204.93 333.437 205.219C333.465 205.506 333.552 205.785 333.691 206.038Z" fill="#080B09"/>
<path d="M365.168 191.644L354.474 192.635C354.158 192.668 353.852 192.768 353.577 192.929C353.303 193.088 353.065 193.305 352.881 193.563C352.696 193.822 352.568 194.117 352.506 194.428C352.444 194.74 352.448 195.062 352.519 195.372C352.611 195.882 352.891 196.339 353.304 196.653C353.717 196.966 354.233 197.113 354.749 197.064L365.436 196.498C366.056 196.449 366.633 196.156 367.039 195.684C367.444 195.212 367.646 194.598 367.601 193.977L367.608 193.552C367.578 193.265 367.49 192.986 367.35 192.733C367.21 192.48 367.02 192.258 366.793 192.081C366.565 191.902 366.303 191.771 366.024 191.697C365.745 191.622 365.454 191.603 365.168 191.644Z" fill="#080B09"/>
<path d="M345.588 185.276C345.588 185.276 340.251 195.433 330.567 198.445C320.884 201.456 326.176 216.74 326.176 216.74C326.176 216.74 319.536 210.135 311.902 213.853C304.27 217.571 310.064 232.163 320.609 232.349L317.741 248.769C317.741 248.769 312.4 242.118 306.784 238.559C301.166 235.001 280.989 221.186 289.903 202.993C289.903 202.993 282.929 177.446 302.055 164.202C321.181 150.956 337.736 155.954 337.736 155.954C337.736 155.954 342.295 148.721 352.864 150.199C363.432 151.677 365.87 170.735 362.371 177.627C358.871 184.52 353.167 187.45 345.588 185.276Z" fill="#2A0F0F"/>
<path d="M265.906 287.101C279.356 274.834 283.328 282.361 287.215 283.331C287.215 283.331 300.174 287.938 297.33 299.065C294.325 310.841 262.031 387.363 262.031 387.363L222.04 375.533L224.983 367.046L232.596 345.065L240.728 321.561L241.568 318.744L251.445 287.692C251.445 287.692 258.897 293.68 265.906 287.101Z" fill="#DF3131"/>
<path d="M292.539 308.332C301.012 298.435 299.857 283.543 289.96 275.071C280.063 266.598 265.171 267.753 256.698 277.65C248.225 287.547 249.379 302.439 259.277 310.911C269.174 319.384 284.066 318.229 292.539 308.332Z" fill="#DF3131"/>
<path d="M258.071 368.569L332.317 441.324C332.749 441.782 332.996 442.384 333.011 443.013C333.025 443.644 332.806 444.256 332.396 444.735L319.542 459.524C318.919 460.225 318.057 460.67 317.124 460.772C316.192 460.873 315.254 460.623 314.495 460.073L229.285 398.201L258.071 368.569Z" fill="#DF3131"/>
<path d="M242.003 402.65C253.548 402.65 262.907 393.291 262.907 381.748C262.907 370.203 253.548 360.844 242.003 360.844C230.459 360.844 221.1 370.203 221.1 381.748C221.1 393.291 230.459 402.65 242.003 402.65Z" fill="#DF3131"/>
<path d="M362.795 354.554L322.501 466.188H241.483C241.483 462.78 242.838 459.511 245.247 457.1C247.658 454.69 250.927 453.336 254.336 453.336H312.949L347.743 354.554H362.795Z" fill="#D1FAE5"/>
<path d="M362.796 354.554H471.498L429.458 466.189H322.502L362.796 354.554Z" fill="url(#paint0_linear_3981_19550)"/>
<path d="M734.917 268.974L581.422 250.871C580.388 250.77 579.389 250.442 578.494 249.911C577.6 249.379 576.832 248.656 576.245 247.793C575.657 246.93 575.265 245.948 575.095 244.916C574.926 243.884 574.983 242.827 575.263 241.82L610.723 78.5573C611.236 76.5944 612.318 74.8294 613.829 73.4864C615.341 72.1434 617.215 71.283 619.213 71.0144L779.368 54.0847C780.286 53.9235 781.229 53.9931 782.114 54.2874C782.999 54.5816 783.798 55.0913 784.441 55.7712C785.083 56.4511 785.549 57.2803 785.797 58.1849C786.044 59.0896 786.066 60.0419 785.86 60.9571L743.408 262.772C742.958 264.655 741.856 266.314 740.299 267.451C738.743 268.588 736.834 269.128 734.917 268.974Z" fill="#63737A"/>
<path d="M728.662 268.967L573.569 250.74C572.525 250.645 571.515 250.324 570.608 249.798C569.701 249.273 568.919 248.555 568.316 247.696C567.713 246.837 567.303 245.857 567.116 244.823C566.929 243.789 566.968 242.727 567.232 241.71L603.087 77.666C603.557 75.6555 604.649 73.8453 606.206 72.4939C607.763 71.1426 609.707 70.3191 611.758 70.141L773.356 53.0845C774.276 52.9237 775.221 52.9932 776.108 53.2867C776.994 53.5802 777.795 54.0887 778.438 54.767C779.082 55.4453 779.548 56.2724 779.796 57.175C780.044 58.0775 780.066 59.0274 779.86 59.9405L736.834 262.947C736.442 264.779 735.394 266.404 733.888 267.513C732.382 268.623 730.523 269.14 728.662 268.967Z" fill="#22272E"/>
<path d="M671.155 111.133L613.359 113.994C613.019 114.02 612.678 113.964 612.363 113.833C612.048 113.701 611.768 113.497 611.543 113.236C611.319 112.975 611.158 112.664 611.071 112.328C610.985 111.993 610.977 111.641 611.047 111.302L615.671 89.4279C615.838 88.8158 616.177 88.2669 616.647 87.8485C617.116 87.43 617.695 87.1603 618.313 87.0723L676.604 82.0245C676.95 81.9704 677.304 82.0062 677.633 82.1285C677.962 82.2508 678.255 82.4556 678.485 82.724C678.716 82.9924 678.876 83.3157 678.951 83.664C679.027 84.0124 679.014 84.3744 678.916 84.7166L673.797 108.946C673.619 109.537 673.273 110.06 672.803 110.45C672.332 110.839 671.758 111.077 671.155 111.133Z" fill="#6DAFA7"/>
<path d="M593.967 232.983C593.66 232.965 593.361 232.883 593.091 232.742C592.822 232.601 592.588 232.406 592.406 232.169C592.224 231.932 592.099 231.66 592.039 231.372C591.98 231.084 591.988 230.787 592.062 230.503L601.068 190.156C601.201 189.517 601.574 188.947 602.116 188.551C602.657 188.155 603.332 187.962 604.012 188.006C604.324 188.012 604.63 188.086 604.907 188.223C605.184 188.36 605.423 188.557 605.608 188.797C605.792 189.036 605.916 189.314 605.97 189.607C606.023 189.9 606.006 190.201 605.918 190.487L596.911 230.999C596.762 231.617 596.38 232.162 595.836 232.528C595.293 232.894 594.628 233.056 593.967 232.983Z" fill="#F4C2C9"/>
<path d="M615.1 232.477L625.671 184.186C625.802 183.538 626.169 182.96 626.702 182.559C627.236 182.157 627.9 181.961 628.57 182.006H628.911C629.223 182.012 629.53 182.086 629.811 182.222C630.091 182.358 630.338 182.553 630.533 182.793C630.728 183.033 630.867 183.312 630.941 183.611C631.014 183.909 631.019 184.22 630.957 184.522L620.385 232.812C620.218 233.473 619.818 234.055 619.256 234.454C618.695 234.853 618.007 235.043 617.316 234.992H616.975C616.665 234.997 616.357 234.928 616.079 234.792C615.801 234.657 615.56 234.457 615.376 234.211C615.193 233.964 615.072 233.678 615.023 233.377C614.975 233.075 615.001 232.766 615.1 232.477Z" fill="#FFE779"/>
<path d="M637.093 234.173L649.323 179.493C649.494 178.78 649.917 178.143 650.521 177.69C651.125 177.237 651.873 176.993 652.643 177C653.005 176.998 653.363 177.075 653.689 177.227C654.014 177.379 654.298 177.6 654.519 177.874C654.739 178.148 654.889 178.467 654.958 178.806C655.026 179.144 655.011 179.493 654.914 179.826L642.684 234.505C642.486 235.237 642.032 235.882 641.396 236.335C640.761 236.788 639.983 237.022 639.189 236.998C638.841 236.979 638.501 236.885 638.195 236.724C637.89 236.563 637.627 236.338 637.425 236.066C637.224 235.795 637.089 235.484 637.032 235.156C636.974 234.828 636.995 234.492 637.093 234.173Z" fill="#6DAFA7"/>
<path d="M721.324 131.037L725.16 139.267C720.49 144.641 714.819 148 709.482 148C699.141 148 693.637 135.404 696.973 119.784C700.309 104.165 711.317 90.8969 721.824 90.0572C727.328 89.5533 731.498 92.4085 734 97.447L726.661 106.18C726.103 104.753 725.106 103.542 723.815 102.727C722.525 101.911 721.009 101.532 719.489 101.646C713.151 102.15 706.48 110.043 704.312 119.616C702.143 129.19 705.646 136.747 711.984 136.579C715.69 136.011 719.035 134.026 721.324 131.037Z" fill="#6DAFA7"/>
<path d="M735.088 117.747C733.409 125.575 729.882 132.87 724.812 139L721 130.735C724.074 127.121 726.185 122.766 727.132 118.084C728.176 113.997 727.885 109.675 726.304 105.771L733.596 97C736.082 102.229 736.745 109.482 735.088 117.747Z" fill="#FFE779"/>
<path d="M676.001 212.099C672.569 227.544 678.232 240 688.87 240C694.361 240 700.195 236.678 705 231.364L701.053 223.226C698.684 226.137 695.238 228.043 691.444 228.541C684.924 228.707 681.492 221.067 683.551 211.767C684.436 207.717 686.254 203.914 688.87 200.64L685.267 193C680.729 198.608 677.561 205.138 676.001 212.099Z" fill="#6DAFA7"/>
<path d="M698.586 193.52C700.093 193.421 701.593 193.801 702.872 194.606C704.152 195.412 705.145 196.602 705.71 198.006L713 189.367C710.515 184.383 706.207 181.558 700.905 182.057C695.272 182.555 689.639 186.542 685 192.357L688.479 200C691.461 196.345 694.941 193.687 698.586 193.52Z" fill="#FFE779"/>
<path d="M715.02 210.253C713.349 217.895 709.839 225.016 704.794 231L701 222.932C704.059 219.404 706.16 215.152 707.103 210.582C708.141 206.592 707.852 202.374 706.278 198.562L713.535 190C716.009 194.94 716.834 202.185 715.02 210.253Z" fill="#F4C2C9"/>
<path d="M609 129L650 127" stroke="#63737A" stroke-width="1.8" stroke-linecap="round" stroke-linejoin="round"/>
<path d="M607 138L665 137" stroke="#63737A" stroke-width="1.8" stroke-linecap="round" stroke-linejoin="round"/>
<path d="M605 148H664" stroke="#63737A" stroke-width="1.8" stroke-linecap="round" stroke-linejoin="round"/>
<path d="M757.913 69.3333C758.195 68 757.772 67 756.924 67C756.428 67.1794 755.989 67.5287 755.661 68.0035C755.334 68.4784 755.134 69.0573 755.087 69.6667C754.805 71 755.228 72 756.076 72C756.572 71.8206 757.011 71.4713 757.339 70.9964C757.666 70.5216 757.866 69.9426 757.913 69.3333Z" fill="#63737A"/>
<path d="M767.905 68.3333C768.267 67 767.542 66 766.635 66C765.993 66.1982 765.419 66.5495 764.973 67.018C764.527 67.4865 764.224 68.0554 764.095 68.6667C763.733 70 764.458 71 765.365 71C766.039 70.8561 766.647 70.5213 767.103 70.0428C767.558 69.5643 767.839 68.9663 767.905 68.3333Z" fill="#63737A"/>
<path d="M164.637 261.19L34.0489 290.755C33.1954 290.944 32.3122 290.955 31.4542 290.788C30.5962 290.621 29.7819 290.279 29.0619 289.783C28.3419 289.287 27.7317 288.649 27.2694 287.907C26.8071 287.165 26.5025 286.336 26.3746 285.471L0.0809475 118.525C-0.0791805 117.531 -0.00102007 116.512 0.309042 115.554C0.619104 114.595 1.1522 113.724 1.86451 113.012C2.57681 112.3 3.44797 111.767 4.40641 111.457C5.36485 111.146 6.3832 111.068 7.37774 111.228L143.249 133.999C144.545 134.232 145.741 134.848 146.683 135.767C147.625 136.687 148.27 137.868 148.533 139.158L168.537 255.278C168.749 256.573 168.465 257.901 167.743 258.997C167.02 260.092 165.911 260.876 164.637 261.19Z" fill="#63737A"/>
<path d="M171.932 261.063L40.4636 290.753C39.6023 290.949 38.7102 290.965 37.8423 290.801C36.9745 290.638 36.1494 290.298 35.4183 289.802C34.6871 289.307 34.0654 288.667 33.5916 287.922C33.1177 287.176 32.8019 286.342 32.6636 285.469L6.11833 117.391C5.96141 116.386 6.04625 115.358 6.36585 114.392C6.68545 113.426 7.23061 112.55 7.95614 111.837C8.68167 111.124 9.56668 110.594 10.5379 110.291C11.5091 109.988 12.5386 109.92 13.5409 110.094L150.293 132.991C151.607 133.231 152.816 133.864 153.76 134.808C154.704 135.752 155.338 136.962 155.577 138.275L175.832 255.15C176.054 256.446 175.774 257.779 175.05 258.877C174.326 259.975 173.211 260.756 171.932 261.063Z" fill="#22272E"/>
<path d="M62.3551 147.965C62.9841 151.613 60.7196 154.255 57.3228 154.004C53.926 153.752 50.5292 150.481 49.9002 146.707C49.2711 142.933 51.6615 140.291 55.0583 140.668C56.8785 140.984 58.5567 141.854 59.863 143.16C61.1693 144.467 62.0397 146.145 62.3551 147.965Z" fill="#FFE779"/>
<path d="M66.1303 170.986L53.8012 170.482C52.3018 170.307 50.9006 169.647 49.8107 168.602C48.7207 167.558 48.0016 166.186 47.7625 164.695C46.6302 157.902 51.0335 152.744 57.198 153.247C63.2367 153.75 68.898 159.411 70.0303 165.953C70.5335 168.847 68.7723 171.111 66.1303 170.986Z" fill="#FFE779"/>
<path d="M74.1842 257.288C72.9361 257.39 71.6976 257 70.7336 256.201C69.7696 255.401 69.1567 254.256 69.0262 253.011L58.9616 190.736C58.5842 188.094 60.2196 185.83 62.61 185.83C63.8799 185.937 65.0774 186.466 66.0121 187.332C66.9468 188.198 67.5649 189.352 67.7681 190.61L77.7068 251.627C78.0843 254.395 76.5746 256.911 74.1842 257.288Z" fill="#63737A"/>
<path d="M63.3657 218.541L68.9012 253.013C69.0318 254.258 69.6446 255.403 70.6086 256.202C71.5726 257.002 72.8112 257.392 74.0593 257.29C75.2516 257.008 76.2868 256.271 76.9446 255.238C77.6025 254.204 77.8311 252.954 77.5819 251.754L72.0464 217.912C71.8741 216.664 71.2581 215.519 70.3109 214.687C69.3637 213.855 68.1487 213.393 66.8883 213.383C64.6237 213.509 62.9883 215.774 63.3657 218.541Z" fill="#6DAFA7"/>
<path d="M103.372 151.99C103.876 155.261 102.114 157.777 99.3467 157.525C96.5789 157.274 93.8112 154.38 93.1821 150.983C92.5531 147.587 94.4402 145.196 97.3338 145.448C100.227 145.699 102.743 148.593 103.372 151.99Z" fill="#F4C2C9"/>
<path d="M106.766 172.747L96.8271 172.37C94.5626 172.244 92.2981 169.979 91.7948 167.211C90.7884 161.047 94.1852 156.392 99.2174 156.769C104.124 157.147 108.905 162.305 109.911 168.218C110.288 170.86 108.905 172.873 106.766 172.747Z" fill="#F4C2C9"/>
<path d="M114.822 250.624C112.935 251.002 110.922 249.24 110.545 246.724L101.235 190.614C100.858 188.224 102.116 186.211 104.129 186.211C106.142 186.211 108.029 188.224 108.406 190.614L117.59 245.592C117.968 248.108 116.835 250.373 114.822 250.624Z" fill="#63737A"/>
<path d="M105.134 214.013L110.543 246.471C110.921 248.736 112.682 250.623 114.443 250.623C116.582 250.497 117.966 248.232 117.588 245.59L112.179 213.51C111.801 211.119 109.914 209.232 107.901 209.358C106.014 209.61 104.756 211.623 105.134 214.013Z" fill="#6DAFA7"/>
<path d="M137.087 155.26C137.59 158.28 136.207 160.544 133.942 160.292C131.678 160.041 129.287 157.399 128.784 154.38C128.281 151.36 129.79 149.096 132.055 149.347C134.319 149.599 136.584 152.241 137.087 155.26Z" fill="#6DAFA7"/>
<path d="M140.358 174.259L132.054 173.881C130.167 173.755 128.28 171.742 127.777 169.226C126.77 163.565 129.538 159.413 133.816 159.665C137.967 160.042 141.993 164.697 142.874 169.981C143.251 172.497 142.119 174.384 140.358 174.259Z" fill="#6DAFA7"/>
<path d="M148.28 245.211C146.645 245.463 145.009 243.828 144.632 241.689L135.951 190.737C135.574 188.472 136.58 186.711 138.216 186.711C139.851 186.711 141.487 188.472 141.864 190.611L150.419 240.682C150.922 242.947 149.916 244.834 148.28 245.211Z" fill="#63737A"/>
<path d="M142.241 227.222L144.631 241.438C145.008 243.577 146.392 245.212 148.028 245.212C149.663 245.212 150.921 243.074 150.544 240.683L148.153 226.593C147.776 224.454 146.141 222.693 144.631 222.945C142.87 223.07 141.863 224.958 142.241 227.222Z" fill="#6DAFA7"/>
<path d="M229.012 74.3047C229.012 74.3047 222.937 98.4203 231.9 114.696C232.062 115.003 232.284 115.275 232.553 115.497C232.821 115.718 233.131 115.885 233.464 115.986C233.798 116.088 234.148 116.122 234.495 116.088C234.842 116.054 235.178 115.952 235.485 115.787L247.635 109.039L242.755 72.5183L229.012 74.3047Z" fill="#6DAFA7"/>
<path d="M231.694 74.8028C231.694 74.8028 225.918 98.7199 239.86 116.186C240.276 116.682 240.855 117.014 241.493 117.123C242.132 117.232 242.789 117.111 243.346 116.782L258.583 107.652L246.035 71.1309C245.935 71.2301 233.686 71.8256 231.694 74.8028Z" fill="#FFE779"/>
<path d="M229.013 74.3059L234.79 75.4968L267.356 62.9924L261.181 62L229.013 74.3059Z" fill="#B0D7C0"/>
<path d="M267.352 62.9924C267.352 62.9924 267.85 78.871 286.972 90.8792C287.359 91.1098 287.681 91.4368 287.904 91.8282C288.127 92.2196 288.244 92.662 288.244 93.1121C288.244 93.5622 288.127 94.0046 287.904 94.396C287.681 94.7874 287.359 95.1144 286.972 95.3451L256.497 113.308C256.109 113.542 255.668 113.674 255.215 113.691C254.762 113.709 254.312 113.611 253.907 113.407C234.487 103.185 234.786 75.3976 234.786 75.3976L267.352 62.9924Z" fill="#6DAFA7"/>
<path d="M258.989 83.0399C258.736 82.7274 258.433 82.459 258.092 82.246C257.61 82.0315 257.078 81.9485 256.553 82.0053C256.028 82.0622 255.527 82.257 255.101 82.5697C254.676 82.8825 254.342 83.3021 254.132 83.7857C253.923 84.2693 253.846 84.7996 253.909 85.3224C254.095 86.5291 254.465 87.7004 255.005 88.7959C255.231 88.0741 255.643 87.424 256.2 86.9103C256.824 86.3464 257.529 85.8781 258.291 85.5209C259.997 84.7148 261.915 84.4714 263.769 84.8262C265.527 85.1743 267.09 86.1656 268.151 87.605C268.688 88.3215 269.072 89.1408 269.278 90.0116C269.483 90.8824 269.506 91.7861 269.346 92.6663C269.047 94.5519 267.653 96.239 264.964 97.6283C263.713 98.3129 262.308 98.6717 260.881 98.6717C259.453 98.6717 258.049 98.3129 256.798 97.6283C254.668 96.3707 252.968 94.5033 251.918 92.2693C251.253 91.1423 250.718 89.9437 250.324 88.6966C249.792 87.3061 249.621 85.8041 249.826 84.33C249.987 83.271 250.434 82.2758 251.121 81.452C251.933 80.5269 252.958 79.8117 254.109 79.368C255.692 78.6293 257.463 78.3871 259.188 78.6733C260.701 78.9098 262.06 79.7296 262.972 80.9558C261.379 81.849 260.582 82.246 258.989 83.0399ZM260.084 95.2466C261.106 95.5278 262.194 95.4579 263.171 95.0481C263.586 94.8667 263.954 94.5938 264.247 94.25C264.541 93.9061 264.752 93.5003 264.864 93.0633C264.933 92.6085 264.907 92.1445 264.787 91.7005C264.667 91.2564 264.456 90.8419 264.167 90.483C263.628 89.606 262.773 88.9671 261.777 88.6966C260.884 88.4614 259.937 88.5313 259.088 88.8951C258.412 89.1617 257.85 89.6524 257.495 90.2845C257.257 90.7754 257.159 91.3219 257.212 91.8644C257.265 92.4069 257.466 92.9246 257.794 93.361C258.31 94.2389 259.121 94.9067 260.084 95.2466Z" fill="#FFE779"/>
<path d="M482.753 82.667C501.952 89.335 522.932 79.388 529.612 60.4496C536.292 41.5107 526.143 20.7526 506.944 14.0846C487.74 7.41485 466.76 17.3618 460.08 36.3007C453.4 55.2391 463.549 75.9972 482.753 82.667Z" fill="#E05151"/>
<path d="M507.53 51.845C508.312 49.6273 508.469 47.2386 507.982 44.9351C507.495 42.6316 506.384 40.5 504.767 38.7685C503.149 37.0365 501.086 35.7697 498.8 35.1038C496.514 34.438 494.09 34.3977 491.791 34.9895C489.488 35.5795 487.395 36.7779 485.731 38.4549C484.067 40.1319 482.902 42.2267 482.356 44.5138C481.809 46.8003 481.9 49.192 482.624 51.4345C483.347 53.6774 484.679 55.6874 486.467 57.2467L485.052 61.2596L494.39 64.5029L495.806 60.49C498.414 60.367 500.923 59.4788 503.009 57.938C505.099 56.3993 506.672 54.2771 507.53 51.845Z" stroke="white" stroke-width="3.71807" stroke-linecap="round" stroke-linejoin="round"/>
<path d="M485.052 61.2595L494.425 64.5149L493.731 66.4829C493.437 67.3166 492.82 67.9999 492.011 68.381C491.207 68.7638 490.277 68.8129 489.435 68.5204L486.435 67.4786C485.588 67.1844 484.897 66.5725 484.504 65.774C484.116 64.9773 484.064 64.0613 484.358 63.2276L485.052 61.2595Z" stroke="white" stroke-width="3.71807" stroke-linecap="round" stroke-linejoin="round"/>
<path d="M487.628 62.1535L492.579 48.1146C492.698 47.7784 492.674 47.4084 492.516 47.087C492.359 46.7656 492.081 46.5191 491.741 46.4011L491.701 46.3874C491.362 46.2694 490.984 46.2884 490.664 46.4438C490.339 46.5976 490.088 46.8718 489.969 47.2079C489.91 47.3741 489.887 47.5508 489.897 47.727C489.906 47.9028 489.951 48.0747 490.032 48.2355C490.109 48.3942 490.219 48.5371 490.349 48.6537C490.484 48.7721 490.64 48.8628 490.808 48.921L497.644 51.2953C497.812 51.3535 497.991 51.3791 498.171 51.3702C498.346 51.3596 498.522 51.3159 498.681 51.2394C498.846 51.1641 498.989 51.0572 499.107 50.9259C499.225 50.7941 499.318 50.6414 499.377 50.4753C499.495 50.1391 499.471 49.7691 499.313 49.4477C499.156 49.1263 498.878 48.8798 498.538 48.7618L498.425 48.7224C498.085 48.6044 497.713 48.6251 497.387 48.7788C497.062 48.9326 496.811 49.2068 496.692 49.543L491.74 63.5818" stroke="white" stroke-width="3.71807" stroke-linecap="round" stroke-linejoin="round"/>
<path d="M501.774 28.7568L500.667 31.8953" stroke="white" stroke-width="3.71807" stroke-linecap="round" stroke-linejoin="round"/>
<path d="M489.236 27.7961L489.868 31.0669" stroke="white" stroke-width="3.71807" stroke-linecap="round" stroke-linejoin="round"/>
<path d="M477.919 33.1538L480.119 35.6793" stroke="white" stroke-width="3.71807" stroke-linecap="round" stroke-linejoin="round"/>
<path d="M517.633 46.9782L514.327 47.5912" stroke="white" stroke-width="3.71807" stroke-linecap="round" stroke-linejoin="round"/>
<path d="M512.169 35.7789L509.619 37.944" stroke="white" stroke-width="3.71807" stroke-linecap="round" stroke-linejoin="round"/>
<defs>
<linearGradient id="paint0_linear_3981_19550" x1="397" y1="354.554" x2="397" y2="466.189" gradientUnits="userSpaceOnUse">
<stop stop-color="#D1FAE5"/>
<stop offset="1" stop-color="#FDFDFD"/>
</linearGradient>
</defs>
</svg>
