<svg width="812" height="598" viewBox="0 0 812 598" fill="none" xmlns="http://www.w3.org/2000/svg">
<path d="M615.024 65.4648H149.548C132.51 65.4648 118.697 79.9385 118.697 97.7929V406.614C118.697 424.468 132.51 438.942 149.548 438.942H615.024C632.064 438.942 645.875 424.468 645.875 406.614V97.7929C645.875 79.9385 632.064 65.4648 615.024 65.4648Z" fill="url(#paint0_linear_2637_5980)"/>
<path d="M153.976 65.4648H611.346C620.603 65.4648 629.483 69.3183 636.025 76.1769C642.575 83.0355 646.252 92.3383 646.252 102.038H119.074C119.074 92.3383 122.751 83.0355 129.297 76.1769C135.842 69.3183 144.719 65.4648 153.976 65.4648Z" fill="#DF3131"/>
<path d="M396.59 125.251H611.909C615.6 125.251 619.149 126.789 621.758 129.526C624.373 132.263 625.841 135.976 625.841 139.847V251.38C625.841 255.25 624.373 258.963 621.758 261.7C619.149 264.437 615.6 265.975 611.909 265.975H396.59C392.897 265.975 389.354 264.437 386.741 261.7C384.129 258.963 382.662 255.25 382.662 251.38V139.847C382.662 137.93 383.022 136.032 383.722 134.261C384.422 132.49 385.448 130.881 386.741 129.526C388.035 128.171 389.571 127.096 391.26 126.362C392.95 125.629 394.762 125.251 396.59 125.251Z" stroke="#5661AE" stroke-miterlimit="10" stroke-dasharray="11.93 11.93"/>
<path d="M554.114 286.604H338.795C331.102 286.604 324.866 293.139 324.866 301.201V412.733C324.866 420.794 331.102 427.328 338.795 427.328H554.114C561.806 427.328 568.043 420.794 568.043 412.733V301.201C568.043 293.139 561.806 286.604 554.114 286.604Z" fill="white"/>
<path d="M298.777 286.604H148.319C141.811 286.604 136.536 292.132 136.536 298.952V414.982C136.536 421.801 141.811 427.328 148.319 427.328H298.777C305.284 427.328 310.559 421.801 310.559 414.982V298.952C310.559 292.132 305.284 286.604 298.777 286.604Z" fill="white"/>
<path d="M344.681 388.942C344.681 388.942 360.819 387.161 370.522 394.773C383.536 404.981 394.017 412.862 407.852 387.771C423.008 360.283 425.391 350.682 436.448 350.568C450.64 350.423 456.18 390.063 482.348 392.865C508.516 395.666 526.309 391.183 526.309 391.183" fill="white"/>
<path d="M344.681 388.942C344.681 388.942 360.819 387.161 370.522 394.773C383.536 404.981 394.017 412.862 407.852 387.771C423.008 360.283 425.391 350.682 436.448 350.568C450.64 350.423 456.18 390.063 482.348 392.865C508.516 395.666 526.309 391.183 526.309 391.183" stroke="#DF3131" stroke-width="10" stroke-miterlimit="10" stroke-linecap="round"/>
<path d="M344.681 309.829H382.284H344.681Z" fill="#DF3131"/>
<path d="M344.681 309.829H382.284" stroke="#CC3100" stroke-width="16" stroke-miterlimit="10" stroke-linecap="round"/>
<path d="M344.681 328.219H422.391" stroke="#F46F31" stroke-width="16" stroke-miterlimit="10" stroke-linecap="round"/>
<path d="M150.967 92.0223C154.261 92.0223 156.932 89.2241 156.932 85.7731C156.932 82.3214 154.261 79.5232 150.967 79.5232C147.674 79.5232 145.004 82.3214 145.004 85.7731C145.004 89.2241 147.674 92.0223 150.967 92.0223Z" fill="white"/>
<path d="M171.178 92.0223C174.472 92.0223 177.142 89.2241 177.142 85.7731C177.142 82.3214 174.472 79.5232 171.178 79.5232C167.884 79.5232 165.215 82.3214 165.215 85.7731C165.215 89.2241 167.884 92.0223 171.178 92.0223Z" fill="white"/>
<path d="M190.814 92.0223C194.108 92.0223 196.777 89.2241 196.777 85.7731C196.777 82.3214 194.108 79.5232 190.814 79.5232C187.52 79.5232 184.85 82.3214 184.85 85.7731C184.85 89.2241 187.52 92.0223 190.814 92.0223Z" fill="white"/>
<path d="M504.594 220.901C517.922 220.901 528.726 209.579 528.726 195.613C528.726 181.647 517.922 170.325 504.594 170.325C491.267 170.325 480.462 181.647 480.462 195.613C480.462 209.579 491.267 220.901 504.594 220.901Z" fill="#CC3100"/>
<path d="M506.499 183.666C506.499 182.563 505.646 181.669 504.594 181.669C503.543 181.669 502.689 182.563 502.689 183.666V209.165C502.689 210.267 503.543 211.161 504.594 211.161C505.646 211.161 506.499 210.267 506.499 209.165V183.666Z" fill="white"/>
<path d="M516.761 198.411C517.813 198.411 518.666 197.517 518.666 196.415C518.666 195.312 517.813 194.419 516.761 194.419H492.427C491.375 194.419 490.522 195.312 490.522 196.415C490.522 197.517 491.375 198.411 492.427 198.411H516.761Z" fill="white"/>
<path d="M379.212 584.517C588.648 584.517 758.426 579.972 758.426 574.365C758.426 568.758 588.648 564.213 379.212 564.213C169.779 564.213 0 568.758 0 574.365C0 579.972 169.779 584.517 379.212 584.517Z" fill="#F2F2F2"/>
<path d="M711.79 374.983H446.455V571.4H711.79V374.983Z" fill="#064E3B"/>
<path d="M552.453 374.983H446.455V571.4H552.453V374.983Z" fill="url(#paint1_linear_2637_5980)"/>
<path d="M64.9744 497.576L54.0855 570.851L49.94 570.174C48.541 569.946 47.286 569.144 46.4508 567.947C45.6155 566.749 45.2685 565.252 45.4865 563.786L54.7326 501.566C54.9507 500.1 55.7154 498.785 56.8585 497.91C58.0016 497.035 59.4298 496.671 60.8288 496.899L64.9744 497.576Z" fill="#064E3B"/>
<path d="M99.0066 509.908L81.9811 504.57L76.5684 529.426L95.1953 535.554L99.0066 509.908Z" fill="#BC775C"/>
<path d="M87.2904 532.954L84.1426 531.919L91.8757 507.672L94.7506 508.574L87.2904 532.954Z" fill="#93523E"/>
<path d="M84.1394 504.922C84.1394 504.922 77.4688 517.067 81.1447 530.932L58.2283 570.19C56.2364 571.715 53.2097 570.811 51.5278 569.873C51.1601 569.665 50.8629 569.343 50.6783 568.95C50.493 568.558 50.4289 568.114 50.4951 567.682L60.3798 501.169C60.5437 500.058 61.1174 499.06 61.9762 498.388C62.8357 497.716 63.9118 497.425 64.9744 497.576C69.2247 498.18 75.6936 499.156 78.2378 499.841C82.1703 500.898 84.2441 502.397 84.1394 504.922Z" fill="#047857"/>
<path d="M76.5754 539.27L73.2109 533.648C73.0876 533.442 72.9187 533.271 72.7177 533.151C72.5175 533.03 72.2916 532.963 72.0607 532.955C71.829 532.947 71.5995 532.999 71.3922 533.106C71.1848 533.213 71.0052 533.372 70.8698 533.568C70.7044 533.81 70.6118 534.097 70.604 534.394C70.5968 534.692 70.6752 534.984 70.8285 535.234L75.0289 542.066L76.5754 539.27Z" fill="white"/>
<path d="M72.7607 545.294L69.429 539.684C69.3057 539.479 69.1368 539.308 68.9365 539.187C68.7356 539.066 68.5097 538.999 68.2788 538.992C68.0472 538.984 67.8177 539.036 67.6103 539.143C67.4029 539.249 67.2233 539.409 67.0886 539.605C66.9226 539.846 66.8299 540.134 66.8228 540.431C66.815 540.728 66.8934 541.021 67.0466 541.27L71.1586 548.039L72.7607 545.294Z" fill="white"/>
<path d="M68.8078 552.066L65.5374 546.496C65.4148 546.291 65.2452 546.121 65.045 546C64.844 545.879 64.6181 545.812 64.3872 545.804C64.1563 545.796 63.9268 545.848 63.7187 545.955C63.5113 546.062 63.3324 546.221 63.197 546.417C63.031 546.658 62.9383 546.947 62.9312 547.243C62.9234 547.54 63.0018 547.833 63.1557 548.083L67.2478 554.739L68.8078 552.066Z" fill="white"/>
<path d="M252.147 561.41H322.916V565.806C322.916 566.541 322.778 567.268 322.51 567.946C322.242 568.625 321.848 569.242 321.352 569.761C320.857 570.281 320.268 570.693 319.621 570.974C318.973 571.255 318.279 571.4 317.578 571.4H257.485C256.07 571.4 254.712 570.81 253.711 569.761C252.71 568.713 252.147 567.29 252.147 565.806V561.41Z" fill="#064E3B"/>
<path d="M258.54 524.275L256.126 542.724L280.397 544.505L283.309 524.275H258.54Z" fill="#BC775C"/>
<path d="M283.058 526.023L282.437 530.34L257.513 532.129L258.312 526.023H283.058Z" fill="#93523E"/>
<path d="M256.126 540.435C256.126 540.435 268.605 545.474 281.113 539.535L321.657 557.222C323.401 559.049 323.015 562.322 322.388 564.208C322.249 564.621 321.99 564.978 321.649 565.23C321.307 565.482 320.899 565.617 320.481 565.614H256.242C255.17 565.615 254.141 565.175 253.375 564.389C252.61 563.602 252.169 562.533 252.148 561.41C252.064 556.916 251.989 550.068 252.243 547.328C252.635 543.093 253.729 540.715 256.126 540.435Z" fill="#047857"/>
<path d="M289.679 542.983L284.894 547.332C284.72 547.49 284.585 547.692 284.502 547.918C284.419 548.144 284.39 548.389 284.419 548.629C284.447 548.87 284.531 549.1 284.664 549.297C284.797 549.496 284.974 549.657 285.18 549.767C285.433 549.902 285.719 549.953 286 549.915C286.281 549.878 286.545 549.752 286.757 549.554L292.553 544.154L289.679 542.983Z" fill="white"/>
<path d="M295.945 546.005L291.168 550.318C290.993 550.477 290.858 550.678 290.776 550.904C290.692 551.131 290.664 551.375 290.692 551.615C290.72 551.856 290.805 552.086 290.938 552.284C291.07 552.482 291.248 552.644 291.454 552.754C291.707 552.888 291.992 552.939 292.274 552.901C292.555 552.863 292.819 552.738 293.031 552.54L298.78 547.241L295.945 546.005Z" fill="white"/>
<path d="M302.939 549.055L298.19 553.299C298.016 553.458 297.881 553.659 297.798 553.886C297.715 554.112 297.686 554.356 297.715 554.597C297.743 554.837 297.827 555.067 297.96 555.266C298.093 555.464 298.27 555.625 298.476 555.735C298.729 555.869 299.015 555.921 299.296 555.883C299.577 555.845 299.841 555.719 300.053 555.521L305.7 550.26L302.939 549.055Z" fill="white"/>
<path d="M216.856 282.481L231.523 252.22C231.523 252.22 222.594 253.443 221.038 247.636C219.482 241.828 263.235 236.632 263.235 236.632C263.235 236.632 259.735 249.47 254.484 250.998L240.046 295.318L216.856 282.481Z" fill="#BC775C"/>
<path d="M219.042 277.973L241.951 289.473L240.046 295.318L217.783 280.57L219.042 277.973Z" fill="#93523E"/>
<path d="M358.725 120.538L147.835 156.714C144.217 157.335 141.763 160.912 142.356 164.704L156.127 252.854C156.719 256.646 160.133 259.217 163.752 258.597L374.641 222.42C378.26 221.799 380.713 218.222 380.12 214.43L366.35 126.279C365.757 122.488 362.344 119.917 358.725 120.538Z" fill="#DF3131"/>
<path d="M250.958 175.808L336.665 161.106" stroke="white" stroke-width="16.5208" stroke-miterlimit="10" stroke-linecap="round"/>
<path opacity="0.7" d="M257.047 203.079L312.956 193.487" stroke="white" stroke-width="16.5208" stroke-miterlimit="10" stroke-linecap="round"/>
<path d="M199.726 235.956C216.467 235.956 230.038 221.735 230.038 204.193C230.038 186.65 216.467 172.428 199.726 172.428C182.985 172.428 169.414 186.65 169.414 204.193C169.414 221.735 182.985 235.956 199.726 235.956Z" stroke="#EF6A77" stroke-width="16.5208" stroke-miterlimit="10"/>
<path d="M229.64 199.061C230.609 205.26 229.801 211.622 227.32 217.341C224.838 223.06 220.794 227.879 215.698 231.189C210.603 234.499 204.685 236.152 198.693 235.938C192.701 235.724 186.905 233.653 182.037 229.986C177.168 226.32 173.446 221.223 171.343 215.341C169.238 209.458 168.846 203.054 170.215 196.937C171.584 190.821 174.654 185.268 179.035 180.979C183.417 176.691 188.913 173.861 194.829 172.846" stroke="white" stroke-width="16.5208" stroke-miterlimit="10" stroke-linecap="round"/>
<path d="M209.604 442.048L218.352 545.803C218.352 568.044 196.696 570.574 189.763 567.953C179.985 564.256 85.2744 538.99 85.2744 538.99L95.3116 506.776L168.002 517.364C168.002 517.364 166.014 495.748 146.522 429.742L209.604 442.048Z" fill="#DF3131"/>
<path d="M152.498 452.234L211.438 469.575L208.124 427.912L146.004 429.371L152.498 452.234Z" fill="#D21B1B"/>
<path d="M208.747 214.727C208.747 214.727 220.419 228.611 223.889 234.231C227.36 239.851 227.484 250.873 220.228 253.682C212.973 256.492 207.038 256.964 196.444 254.891C188.203 253.278 177.517 239.024 180.672 231.752C183.826 224.479 198.495 211.257 208.747 214.727Z" fill="#BC775C"/>
<path d="M210.956 253.569L209.221 277.039L183.826 271.254L195.183 249.107L210.956 253.569Z" fill="#BC775C"/>
<path d="M210.957 256.011H204.053L209.959 267.063" fill="#93523E"/>
<path d="M180.987 269.767L184.774 265.922C185.266 265.423 185.87 265.061 186.53 264.871C187.19 264.681 187.884 264.668 188.551 264.833L209.316 269.986C209.816 270.11 210.276 270.369 210.653 270.735C211.03 271.101 211.309 271.564 211.464 272.077L212.965 277.039L180.987 269.767Z" fill="url(#paint2_linear_2637_5980)"/>
<path d="M148.099 388.431L144.382 407.302C140.197 436.089 159.893 455.131 189.995 449.941C216.878 445.307 296.511 412.953 296.511 412.953L293.337 361.749L226.392 373.323C226.392 373.323 166.218 361.641 148.099 388.431Z" fill="#DF3131"/>
<path d="M298.324 406.528C310.284 406.528 319.98 396.368 319.98 383.835C319.98 371.302 310.284 361.141 298.324 361.141C286.364 361.141 276.668 371.302 276.668 383.835C276.668 396.368 286.364 406.528 298.324 406.528Z" fill="#5661AE"/>
<path d="M298.324 406.528C310.284 406.528 319.98 396.368 319.98 383.835C319.98 371.302 310.284 361.141 298.324 361.141C286.364 361.141 276.668 371.302 276.668 383.835C276.668 396.368 286.364 406.528 298.324 406.528Z" fill="#DF3131"/>
<path d="M196.696 569.148C208.656 569.148 218.352 558.988 218.352 546.455C218.352 533.922 208.656 523.761 196.696 523.761C184.736 523.761 175.04 533.922 175.04 546.455C175.04 558.988 184.736 569.148 196.696 569.148Z" fill="#DF3131"/>
<path d="M318.923 390.393L288.479 526.023H252.068L276.667 383.835L318.923 390.393Z" fill="#DF3131"/>
<path d="M225.875 372.953L145.691 399.102L147.582 388.06L225.875 372.953Z" fill="#D21B1B"/>
<path d="M244.386 296.707L252.353 302.78L278.956 257.023C278.956 257.023 275.414 242.035 275.17 239.483L283.826 238.19C283.826 238.19 290.837 224.343 292.836 221.604C294.834 218.866 297.14 219.349 298.37 221.604C298.37 221.604 302.214 222.249 302.829 227.726C302.829 227.726 306.211 228.532 307.594 235.62C307.594 235.62 310.515 238.843 309.9 242.387C309.285 245.931 301.599 259.822 300.369 261.254C299.421 262.422 298.548 263.653 297.755 264.941L272.133 329.279C272.133 329.279 265.872 343.352 251.2 338.015L233.01 329.181C224.66 323.512 244.386 296.707 244.386 296.707Z" fill="#BC775C"/>
<path d="M257.794 339.679C266.251 339.679 273.108 332.494 273.108 323.631C273.108 314.768 266.251 307.583 257.794 307.583C249.336 307.583 242.479 314.768 242.479 323.631C242.479 332.494 249.336 339.679 257.794 339.679Z" fill="#BC775C"/>
<path d="M193.606 226.297C193.606 226.297 208.591 221.008 211.588 209.934C214.584 198.86 208.276 193.075 200.074 198.695C200.074 198.695 194.238 188.943 184.3 195.719C174.364 202.497 176.256 218.529 176.572 221.669C176.572 221.669 165.373 229.933 170.736 242.991C176.099 256.048 190.814 259.188 190.814 259.188C192.438 256.742 193.601 253.993 194.238 251.09C194.238 251.09 186.128 244.644 190.814 238.363C195.499 232.082 200.862 242.164 200.862 242.164C200.862 242.164 204.963 227.95 193.606 226.297Z" fill="black"/>
<path d="M180.988 269.766C180.988 269.766 170.585 275.187 168.229 281.024C166.051 286.417 150.906 357.257 146.268 385.773C146.157 386.45 146.206 387.144 146.412 387.795C146.617 388.447 146.973 389.036 147.446 389.51C147.919 389.984 148.496 390.329 149.127 390.514C149.757 390.7 150.421 390.721 151.061 390.574L226.392 373.323C226.392 373.323 222.708 331.836 223.999 319.66C225.29 307.484 212.966 277.039 212.966 277.039L180.988 269.766Z" fill="url(#paint3_linear_2637_5980)"/>
<path d="M223.732 325.401L204.74 313.574L224.502 347.639L223.732 325.401Z" fill="#96BAFD"/>
<path d="M252.352 302.779L257.882 306.819L263.235 284.061L252.352 302.779Z" fill="#93523E"/>
<path d="M212.966 277.039C212.966 277.039 243.194 294.355 246.864 297.194C247.34 297.562 247.674 298.096 247.808 298.7C247.941 299.304 247.864 299.937 247.59 300.487L233.707 328.419C233.552 328.733 233.336 329.01 233.074 329.233C232.813 329.456 232.51 329.622 232.186 329.719C231.861 329.816 231.521 329.842 231.186 329.796C230.852 329.751 230.53 329.633 230.239 329.453L195.006 307.512C195.006 307.512 193.132 278.306 212.966 277.039Z" fill="url(#paint4_linear_2637_5980)"/>
<path d="M209.11 235.554C209.834 234.987 209.752 233.589 208.926 232.43C208.1 231.271 206.844 230.792 206.12 231.359C205.395 231.926 205.478 233.324 206.303 234.483C207.128 235.641 208.385 236.121 209.11 235.554Z" fill="#080B09"/>
<path d="M219.043 227.678C219.767 227.111 219.685 225.712 218.86 224.554C218.034 223.395 216.778 222.916 216.054 223.482C215.329 224.049 215.411 225.448 216.237 226.606C217.062 227.765 218.318 228.245 219.043 227.678Z" fill="#080B09"/>
<path d="M215.021 229.835C215.021 229.835 214.85 233.262 216.853 232.36C218.738 231.429 220.348 232.07 219.168 234.67" stroke="#93523E" stroke-width="1.20877" stroke-linecap="round" stroke-linejoin="round"/>
<path d="M219.83 237.115C218.693 237.764 216.417 239.061 214.915 239.95C214.825 240.003 214.749 240.08 214.698 240.174C214.647 240.269 214.62 240.376 214.623 240.484C214.625 240.593 214.657 240.698 214.712 240.79C214.768 240.881 214.847 240.955 214.94 241.003C217.046 241.956 221.555 243.344 220.609 237.56C220.608 237.465 220.583 237.373 220.537 237.291C220.49 237.21 220.424 237.144 220.345 237.098C220.265 237.053 220.176 237.031 220.085 237.034C219.995 237.037 219.907 237.065 219.83 237.115Z" fill="white"/>
<path d="M200.567 232.13L200.778 232.31C201.064 232.602 201.448 232.763 201.846 232.758C202.245 232.754 202.626 232.584 202.905 232.287L207.588 227.042C207.824 226.798 207.965 226.47 207.981 226.123C207.997 225.775 207.889 225.434 207.677 225.166C207.554 224.996 207.399 224.855 207.221 224.753C207.042 224.65 206.844 224.588 206.642 224.571C206.439 224.555 206.235 224.583 206.043 224.655C205.852 224.727 205.676 224.841 205.53 224.989L200.637 230.053C200.5 230.183 200.388 230.34 200.31 230.516C200.232 230.691 200.188 230.882 200.182 231.076C200.175 231.269 200.206 231.463 200.272 231.644C200.338 231.825 200.438 231.99 200.567 232.13Z" fill="#080B09"/>
<path d="M217.583 217.247L211.144 219.778C210.954 219.856 210.783 219.975 210.64 220.126C210.498 220.279 210.387 220.461 210.317 220.661C210.246 220.861 210.217 221.075 210.231 221.287C210.245 221.5 210.302 221.707 210.399 221.895C210.541 222.209 210.791 222.455 211.099 222.585C211.407 222.715 211.75 222.719 212.061 222.597L218.568 220.341C218.943 220.2 219.249 219.909 219.42 219.531C219.59 219.154 219.613 218.721 219.48 218.327L219.412 218.051C219.345 217.869 219.243 217.705 219.114 217.566C218.985 217.427 218.831 217.317 218.66 217.242C218.489 217.167 218.306 217.129 218.121 217.129C217.936 217.13 217.753 217.17 217.583 217.247Z" fill="#080B09"/>
<path d="M711.789 102.038L656.13 147.397H763.842L711.789 102.038Z" fill="#F8A5A5"/>
<path d="M535.562 334.987C535.562 334.987 515.152 316.316 498.557 332.182C481.962 348.048 413.399 457.001 413.399 457.001L434.137 472.029L511.91 380.376L525.448 403.21L535.562 334.987Z" fill="#FCBA9F"/>
<path fill-rule="evenodd" clip-rule="evenodd" d="M521.675 543.46C530.225 536.914 539.037 530.166 548.316 527.987C548.525 527.937 548.742 527.935 548.952 527.982C549.162 528.028 549.359 528.122 549.531 528.256C549.702 528.391 549.844 528.563 549.946 528.76C550.048 528.958 550.108 529.176 550.121 529.4L551.138 547.442C551.158 547.813 551.051 548.18 550.833 548.474C550.616 548.769 550.305 548.971 549.956 549.043L486.389 562.209C481.701 563.18 478.695 561.044 477.254 557.251C477.207 557.12 477.197 556.977 477.224 556.841C477.252 556.704 477.318 556.579 477.412 556.479C477.507 556.381 477.626 556.312 477.757 556.283C477.887 556.253 478.023 556.263 478.148 556.313C486.498 559.527 495.717 559.19 503.833 555.373C509.697 552.633 515.62 548.097 521.675 543.46Z" fill="#DF3131"/>
<path fill-rule="evenodd" clip-rule="evenodd" d="M541.183 484.355C541.183 484.355 542.387 512.828 543.021 515.725C543.457 517.308 544.005 518.856 544.657 520.355C545.747 523.076 546.961 526.109 547.072 528.313C538.248 530.775 529.842 537.211 521.676 543.463C515.621 548.1 509.698 552.633 503.834 555.373C496.11 559.005 487.371 559.494 479.322 556.744C478.216 551.822 481.425 546.373 489.518 543.918C504.025 539.519 511.953 536.73 517.012 524.015C520.606 514.98 514.586 483.524 514.586 483.524L541.183 484.355Z" fill="#FFCCB3"/>
<path fill-rule="evenodd" clip-rule="evenodd" d="M517.646 519.208C520.499 519.024 531.833 518.243 542.684 516.756C544.793 516.467 546.675 520.617 545.775 523.257C545.185 525.185 544.745 527.159 544.458 529.161C540.918 530.518 537.521 532.254 534.321 534.343C534.978 529.639 532.24 527.556 528.172 527.77C524.958 527.94 517.7 530.079 513.958 531.24C513.752 531.303 513.533 531.303 513.328 531.241C513.122 531.179 512.937 531.055 512.795 530.887C512.654 530.718 512.561 530.51 512.529 530.288C512.497 530.066 512.526 529.839 512.613 529.633L516.688 519.911C516.77 519.712 516.904 519.542 517.073 519.418C517.242 519.294 517.44 519.222 517.646 519.208Z" fill="#E05151"/>
<path fill-rule="evenodd" clip-rule="evenodd" d="M487.632 558.423C495.016 559.028 499.483 557.016 499.483 557.016L496.511 541.263L484.957 544.242L487.632 558.423Z" fill="#E05151"/>
<path fill-rule="evenodd" clip-rule="evenodd" d="M395.03 486.585C405.589 487.409 416.473 488.26 424.886 492.905C425.076 493.009 425.242 493.156 425.374 493.333C425.505 493.511 425.597 493.716 425.644 493.936C425.692 494.155 425.694 494.382 425.649 494.601C425.604 494.822 425.514 495.029 425.386 495.208L414.996 509.634C414.783 509.931 414.473 510.136 414.126 510.213C413.778 510.289 413.416 510.232 413.106 510.05L356.566 476.882C352.397 474.436 351.43 470.767 352.679 466.901C352.724 466.769 352.804 466.654 352.91 466.569C353.017 466.484 353.143 466.432 353.277 466.421C353.41 466.41 353.543 466.439 353.661 466.505C353.778 466.571 353.875 466.672 353.94 466.794C358.308 474.915 365.535 480.922 374.076 483.53C380.235 485.429 387.551 486.001 395.03 486.585Z" fill="#DF3131"/>
<path fill-rule="evenodd" clip-rule="evenodd" d="M446.454 454.841L428.442 479.972C427.795 481.474 427.254 483.024 426.824 484.609C425.969 487.422 425.016 490.554 423.738 492.308C415.496 488.188 405.114 487.376 395.029 486.587C387.55 486.002 380.236 485.43 374.077 483.531C365.949 481.048 358.994 475.483 354.567 467.92C356.771 463.422 362.586 461.453 370.266 465.084C384.033 471.592 391.793 474.855 403.511 468.612C405.4 467.447 407.092 465.964 408.52 464.223L426.719 436.138L446.454 454.841Z" fill="#FCBA9F"/>
<path fill-rule="evenodd" clip-rule="evenodd" d="M406.97 465.384C409.256 467.183 418.368 474.288 427.549 480.529C429.333 481.742 428.198 486.18 425.879 487.578C424.238 488.645 422.68 489.849 421.224 491.179C417.69 489.805 414.029 488.82 410.301 488.236C413.711 485.101 412.915 481.654 409.685 479.054C407.134 476.999 400.285 473.695 396.717 472.037C396.521 471.946 396.354 471.797 396.237 471.61C396.119 471.422 396.054 471.203 396.051 470.979C396.048 470.754 396.106 470.533 396.219 470.342C396.332 470.151 396.494 469.997 396.688 469.9L405.806 465.267C405.991 465.172 406.199 465.133 406.404 465.154C406.609 465.175 406.805 465.254 406.97 465.384Z" fill="#E05151"/>
<path fill-rule="evenodd" clip-rule="evenodd" d="M359.854 474.844C365.102 480.323 369.747 481.826 369.747 481.826L377.233 467.813L366.593 462.231L359.854 474.844Z" fill="#E05151"/>
<path d="M563.552 321.44L509.734 331.459L520.327 376.1H554.801C554.801 376.1 571.188 339.191 563.552 321.44Z" fill="#FFCCB3"/>
<path d="M516.631 375.663C528.591 375.663 538.287 365.504 538.287 352.97C538.287 340.437 528.591 330.277 516.631 330.277C504.67 330.277 494.975 340.437 494.975 352.97C494.975 365.504 504.67 375.663 516.631 375.663Z" fill="#FFCCB3"/>
<path d="M495.244 356.546L516.914 498.73L541.909 499.823L538.99 359.274L495.244 356.546Z" fill="#FFCCB3"/>
<path d="M529.192 325.35C529.192 325.35 537.486 328.027 540.91 342.203C544.334 356.378 540.598 376.1 540.598 376.1H545.931C545.931 376.1 564.948 352.698 550.957 322.873L529.192 325.35Z" fill="#FF967C"/>
<path d="M581.52 203.761L574.746 207.166C572.148 208.473 569.859 210.363 568.039 212.704C566.22 215.045 564.916 217.778 564.221 220.707L548.908 285.272L514.385 302.57L522.255 315.669L587.529 313.244L581.52 203.761Z" fill="#DF3131"/>
<path d="M571.764 227.004C571.764 227.004 559.877 244.503 565.629 261.17C571.381 277.838 569.033 280.928 567.594 295.695C566.156 310.46 570.853 307.026 570.853 307.026L587.528 298.785C587.528 298.785 594.484 228.938 571.764 227.004Z" fill="#D21B1B"/>
<path d="M641.699 307.373C641.699 307.373 648.291 341.17 639.653 355.293C628.721 373.17 615.351 375.908 605.467 376.1H540.598C540.598 376.1 540.478 333.691 508.521 326.446C508.521 326.446 613.698 295.75 641.699 307.373Z" fill="#2A0F0F"/>
<path d="M643.151 317.214L574.403 319.586L575.135 314.554L588.533 312.931H643.051L643.151 317.214Z" fill="black"/>
<path d="M554.238 301.378C554.238 301.378 545.828 303.94 542.05 305.104C538.272 306.268 530.802 309.064 530.802 309.064L536.271 317.214L561.059 315.669L554.238 301.378Z" fill="#FFCCB3"/>
<path d="M594.99 197.734C594.99 197.734 580.876 203.587 578.72 205.394C576.565 207.201 574.518 221.947 570.854 228.949C567.19 235.951 561.829 248.874 569.658 260.745C577.488 272.616 576.655 282.042 576.655 282.042L574.989 311.819L640.301 313.902C640.893 313.921 641.484 313.808 642.033 313.57C642.582 313.332 643.081 312.976 643.487 312.522C643.893 312.069 644.207 311.53 644.399 310.941C644.592 310.353 644.663 309.728 644.613 309.107C643.865 300.425 642.603 287.455 642.333 273.63C641.969 254.894 641.698 192.291 641.698 192.291L612.301 191.325C606.386 192.394 594.99 197.734 594.99 197.734Z" fill="#DF3131"/>
<path d="M641.698 225.529C650.456 225.529 657.554 218.088 657.554 208.91C657.554 199.732 650.456 192.291 641.698 192.291C632.939 192.291 625.841 199.732 625.841 208.91C625.841 218.088 632.939 225.529 641.698 225.529Z" fill="#DF3131"/>
<path d="M643.319 301.87C643.319 301.87 641.965 307.066 627.462 313.138C627.462 313.138 593.461 312.363 576.569 312.735C559.676 313.108 578.38 308.438 587.81 303.512C597.238 298.585 642.25 284.901 642.25 284.901L643.319 301.87Z" fill="#D21B1B"/>
<path d="M629.614 217.512C629.614 217.512 619.78 226.906 619.202 233.877C618.618 240.847 617.285 260.284 604.65 262.222C589.156 264.599 585.101 266.912 592.285 268.731C599.461 270.549 615.76 267.602 615.76 275.398C615.76 280.945 622.089 285.096 625.274 282.065C628.453 279.035 653.795 232.968 629.614 217.512Z" fill="#D21B1B"/>
<path d="M657.384 211.342C656.051 218.01 643.366 288.269 643.366 288.269C643.366 288.269 641.698 298.779 631.899 301.378L563.552 319.586L551.525 300.682L613.512 278.468L625.841 208.91C625.841 208.91 659.166 202.445 657.384 211.342Z" fill="#DF3131"/>
<path d="M593.401 184.795L594.05 207.85C594.05 207.85 593.879 211.828 598.483 211.292C603.094 210.755 612.365 207.145 614.924 202.497C617.482 197.847 615.865 196.253 615.865 196.253L601.804 167.53L593.401 184.795Z" fill="#FFCCB3"/>
<path d="M593.401 187.474L599.16 180.32L593.893 202.328L593.401 187.474Z" fill="#FF967C"/>
<path d="M598.532 127.964C598.283 123.565 599.195 119.179 601.177 115.29C604.455 109.086 611.254 100.505 621.587 104.202C631.914 107.898 639.475 116.215 635.57 127.964C631.664 139.713 620.818 143.472 615.287 142.221C609.757 140.969 598.532 127.964 598.532 127.964Z" fill="#080B09"/>
<path d="M595.204 129.598C595.803 128.546 596.686 127.713 597.755 127.213C598.817 126.713 600 126.569 601.148 126.803C605.238 127.592 609.536 130.974 613.199 135.031C616.855 139.089 616.734 142.035 615.073 143.831C613.413 145.627 595.204 129.598 595.204 129.598Z" fill="#870000"/>
<path d="M504.594 247.23L530.801 323.314H583.494C583.494 320.991 582.611 318.762 581.046 317.12C579.479 315.477 577.352 314.554 575.135 314.554H537.014L514.384 247.23H504.594Z" fill="white"/>
<path d="M504.594 247.23H433.896L461.238 323.314H530.802L504.594 247.23Z" fill="#6EE7B7"/>
<path d="M482.349 294.254C485.87 294.254 488.725 291.262 488.725 287.573C488.725 283.883 485.87 280.892 482.349 280.892C478.828 280.892 475.974 283.883 475.974 287.573C475.974 291.262 478.828 294.254 482.349 294.254Z" fill="white"/>
<path d="M564.784 156.445C564.784 156.445 566.964 178.513 577.21 188.561C583.894 195.113 590.022 193.435 599.159 180.321C607.533 168.296 608.267 162.448 608.267 162.448L599.415 141.574C599.415 141.574 563.743 136.254 564.784 156.445Z" fill="#FFCCB3"/>
<path d="M568.411 152.125C568.411 152.125 573.452 160.533 582.682 160.669C584.621 162.328 586.923 163.438 589.382 163.891C591.847 164.344 594.377 164.127 596.729 163.258C596.729 163.258 593.052 157.406 596.729 155.354C602.986 151.871 605.139 163.486 601.803 167.53C599.537 170.279 601.932 173.48 603.621 176.342C605.317 179.204 610.776 186.29 610.776 186.29C610.776 186.29 610.256 182.202 612.728 179.204C615.201 176.206 623.212 145.511 608.324 134.219C593.437 122.929 577.764 131.961 574.825 134.219C574.825 134.219 559.18 137.083 559.152 154.133C559.129 168.709 569.028 172.176 569.028 172.176L566.074 160.411C566.074 160.411 567.901 160.616 568.411 152.125Z" fill="#080B09"/>
<path d="M585.048 179.306C585.048 179.306 586.203 183.089 582.283 184.846C579.634 185.759 577.784 183.041 577.784 183.041L585.048 179.306Z" fill="#E56441"/>
<path d="M571.323 173.759C572.138 173.549 572.559 172.357 572.262 171.098C571.965 169.838 571.064 168.989 570.249 169.2C569.434 169.411 569.013 170.602 569.31 171.861C569.606 173.121 570.508 173.97 571.323 173.759Z" fill="#080B09"/>
<path d="M583.409 170.824C584.222 170.613 584.642 169.422 584.35 168.163C584.051 166.904 583.153 166.054 582.333 166.265C581.519 166.476 581.099 167.668 581.396 168.926C581.692 170.185 582.597 171.035 583.409 170.824Z" fill="#080B09"/>
<path d="M566.634 166.971L572.785 165.491C572.888 165.457 572.975 165.385 573.03 165.288C573.086 165.192 573.107 165.078 573.088 164.966C573.02 164.777 572.915 164.603 572.781 164.458C572.647 164.311 572.486 164.195 572.308 164.116C572.13 164.037 571.939 163.996 571.745 163.997C571.552 163.997 571.361 164.039 571.183 164.119L566.36 166.26C565.958 166.364 566.132 167.101 566.634 166.971Z" fill="#080B09"/>
<path d="M587.286 161.202L579.275 163.832C579.221 163.57 579.221 163.3 579.274 163.037C579.326 162.775 579.43 162.527 579.58 162.309C579.729 162.092 579.921 161.91 580.141 161.774C580.362 161.639 580.608 161.554 580.862 161.524L587.265 160.649C587.464 160.598 587.585 161.124 587.286 161.202Z" fill="#080B09"/>
<path d="M575.636 169.55L574.768 176.346L577.058 177.505" stroke="#E56441" stroke-width="0.94666" stroke-linecap="round"/>
<path d="M711.788 102.038V0" stroke="#5661AE" stroke-miterlimit="10"/>
<path d="M676.25 487.934C676.25 487.934 669.771 475.151 686.011 467.094C702.251 459.037 724.802 467.016 722.783 469.805C719.635 474.347 716.059 478.624 712.096 482.588C706.963 487.779 692.238 495.836 676.25 487.934Z" fill="#6DAFA7"/>
<path d="M719.921 469.263C719.921 469.263 684.243 461.903 676.165 487.934C668.087 513.964 670.612 538.909 670.612 538.909" stroke="#22272E" stroke-width="1.8" stroke-linecap="round" stroke-linejoin="round"/>
<path d="M644.106 517.218L649.913 580.202C649.913 582.603 660.515 584.462 673.642 584.462C686.769 584.462 697.371 582.526 697.371 580.202L703.177 517.218H644.106Z" fill="#22272E"/>
<path d="M673.641 521.324C689.906 521.324 703.092 519.485 703.092 517.218C703.092 514.95 689.906 513.112 673.641 513.112C657.375 513.112 644.189 514.95 644.189 517.218C644.189 519.485 657.375 521.324 673.641 521.324Z" fill="#6DAFA7"/>
<path d="M666.152 504.125C666.152 504.125 656.644 499.786 650.501 509.548C644.358 519.309 648.902 534.028 653.11 536.198C657.317 538.367 674.819 531.007 674.819 516.21C674.819 503.04 666.152 504.125 666.152 504.125Z" fill="#6DAFA7"/>
<path d="M666.153 504.125C666.153 504.125 656.644 503.505 653.783 534.183" stroke="#22272E" stroke-width="1.8" stroke-linecap="round" stroke-linejoin="round"/>
<path d="M658.916 486.229C658.916 486.229 648.902 471.897 628.875 481.116C608.849 490.335 609.438 515.746 612.551 517.218C615.664 518.689 662.534 503.66 658.916 486.229Z" fill="#6DAFA7"/>
<path d="M674.819 516.21C674.819 516.21 668.593 496.068 658.916 486.151C649.239 476.235 619.199 487.623 613.897 511.562" stroke="#22272E" stroke-width="1.8" stroke-linecap="round" stroke-linejoin="round"/>
<path d="M686.01 494.286C686.01 494.286 677.511 491.575 673.641 501.259C669.854 510.71 674.314 532.247 696.192 538.754C696.757 538.915 697.361 538.92 697.929 538.769C698.497 538.618 699.005 538.316 699.389 537.902C704.863 531.805 707.815 524.12 707.72 516.21C707.636 500.484 698.211 489.096 686.01 494.286Z" fill="#6DAFA7"/>
<path d="M686.011 494.286C686.011 494.286 703.681 502.265 697.202 535.81" stroke="#22272E" stroke-width="1.8" stroke-linecap="round" stroke-linejoin="round"/>
<path d="M693.511 549.902L696.389 591.825C696.389 594.846 706.344 597.112 718.577 597.112C730.81 597.112 740.764 594.657 740.764 591.825L743.643 549.902H693.511Z" fill="#22272E"/>
<path d="M743.643 549.902C743.643 553.301 732.369 555.944 718.577 555.944C704.784 555.944 693.511 553.301 693.511 549.902C693.511 546.502 704.784 543.859 718.577 543.859C732.369 543.859 743.643 546.691 743.643 549.902Z" fill="#FFE779"/>
<path d="M711.86 549.901C711.86 549.901 698.428 541.592 699.867 525.352C701.306 509.111 711.26 542.725 713.779 537.627C716.298 532.528 713.059 507.79 718.576 505.523C724.093 503.257 722.654 538.004 722.654 538.004C726.069 535.283 729.154 531.64 731.769 527.24C735.247 520.82 740.284 535.172 726.012 549.901C721.48 552.844 716.392 552.844 711.86 549.901Z" fill="#36867C"/>
<path d="M719.058 321.54L761.842 309.017C762.322 308.882 762.823 308.851 763.315 308.927C763.807 309.002 764.279 309.182 764.703 309.456C765.126 309.73 765.492 310.092 765.778 310.52C766.064 310.948 766.264 311.432 766.365 311.943L771.647 340.776C771.893 341.987 771.72 343.25 771.159 344.338C770.598 345.426 769.685 346.267 768.585 346.71L726.845 364.278C726.367 364.48 725.852 364.568 725.337 364.537C724.822 364.506 724.319 364.357 723.865 364.099C723.411 363.842 723.016 363.483 722.708 363.047C722.4 362.612 722.187 362.111 722.084 361.579L715.618 327.741C715.456 327.096 715.417 326.424 715.502 325.763C715.587 325.102 715.795 324.466 716.115 323.89C716.434 323.314 716.859 322.81 717.364 322.407C717.869 322.004 718.444 321.709 719.058 321.54Z" stroke="#CC3100" stroke-width="1.8" stroke-linecap="round" stroke-linejoin="round"/>
<path d="M716.553 323.376L745.328 330.221C746.255 330.418 747.216 330.341 748.103 329.998C748.989 329.655 749.768 329.06 750.351 328.279L764.477 309.349" stroke="#CC3100" stroke-width="1.8" stroke-linecap="round" stroke-linejoin="round"/>
<path d="M774.956 261.254L808.289 265.514C808.661 265.566 809.019 265.697 809.342 265.899C809.664 266.101 809.944 266.37 810.164 266.69C810.384 267.01 810.539 267.374 810.621 267.76C810.702 268.145 810.708 268.544 810.637 268.932L806.352 290.667C806.189 291.587 805.719 292.417 805.026 293.005C804.334 293.594 803.464 293.904 802.574 293.879L768.575 293.459C768.185 293.454 767.801 293.36 767.45 293.182C767.099 293.003 766.79 292.746 766.544 292.428C766.298 292.111 766.121 291.74 766.027 291.342C765.932 290.945 765.922 290.53 765.997 290.128L770.84 264.538C770.905 264.039 771.063 263.557 771.305 263.122C771.548 262.687 771.869 262.306 772.251 262.001C772.633 261.696 773.069 261.473 773.533 261.345C773.997 261.217 774.481 261.186 774.956 261.254Z" stroke="#CC3100" stroke-width="1.8" stroke-linecap="round" stroke-linejoin="round"/>
<path d="M772.698 261.774L790.895 275.299C791.488 275.718 792.18 275.956 792.894 275.986C793.608 276.016 794.316 275.837 794.939 275.469L810.035 266.546" stroke="#CC3100" stroke-width="1.8" stroke-linecap="round" stroke-linejoin="round"/>
<ellipse cx="33.1737" cy="438.32" rx="12.7362" ry="13.3526" fill="#F46F31"/>
<ellipse cx="28.6251" cy="133.402" rx="8.18755" ry="8.58379" fill="#F46F31"/>
<ellipse cx="91.7784" cy="64.9858" rx="8.18755" ry="8.58379" fill="url(#paint5_linear_2637_5980)"/>
<ellipse cx="656.999" cy="49.5369" rx="8.18755" ry="8.58379" fill="#F46F31"/>
<ellipse cx="84.4102" cy="286.787" rx="8.18755" ry="8.58379" fill="#10B981"/>
<ellipse cx="563.544" cy="25.4928" rx="16.83" ry="17.6445" fill="url(#paint6_linear_2637_5980)"/>
<ellipse cx="789.308" cy="183.836" rx="6.82296" ry="7.15316" fill="#10B981"/>
<ellipse cx="782.565" cy="437.189" rx="9.55214" ry="10.0144" fill="url(#paint7_linear_2637_5980)"/>
<ellipse cx="698.191" cy="250.522" rx="7.27782" ry="7.63003" fill="#10B981"/>
<defs>
<linearGradient id="paint0_linear_2637_5980" x1="382.286" y1="65.4648" x2="382.539" y2="570.077" gradientUnits="userSpaceOnUse">
<stop stop-color="white"/>
<stop offset="1" stop-color="#F9A5A4"/>
</linearGradient>
<linearGradient id="paint1_linear_2637_5980" x1="499.349" y1="375.311" x2="499.349" y2="619.734" gradientUnits="userSpaceOnUse">
<stop stop-color="white"/>
<stop offset="1" stop-color="#064E3B" stop-opacity="0"/>
</linearGradient>
<linearGradient id="paint2_linear_2637_5980" x1="196.18" y1="264.689" x2="197.282" y2="291.073" gradientUnits="userSpaceOnUse">
<stop stop-color="white"/>
<stop offset="1" stop-color="#94B9FF"/>
</linearGradient>
<linearGradient id="paint3_linear_2637_5980" x1="184.305" y1="269.479" x2="225.601" y2="522.084" gradientUnits="userSpaceOnUse">
<stop stop-color="white"/>
<stop offset="1" stop-color="#94B9FF"/>
</linearGradient>
<linearGradient id="paint4_linear_2637_5980" x1="220.098" y1="276.913" x2="232.201" y2="388.822" gradientUnits="userSpaceOnUse">
<stop stop-color="white"/>
<stop offset="1" stop-color="#94B9FF"/>
</linearGradient>
<linearGradient id="paint5_linear_2637_5980" x1="91.7784" y1="56.402" x2="91.7784" y2="73.5696" gradientUnits="userSpaceOnUse">
<stop stop-color="#E05151"/>
<stop offset="1" stop-color="#C60707" stop-opacity="0"/>
</linearGradient>
<linearGradient id="paint6_linear_2637_5980" x1="563.544" y1="7.84839" x2="563.544" y2="43.1373" gradientUnits="userSpaceOnUse">
<stop stop-color="#E05151"/>
<stop offset="1" stop-color="#C60707" stop-opacity="0"/>
</linearGradient>
<linearGradient id="paint7_linear_2637_5980" x1="782.565" y1="427.175" x2="782.565" y2="447.204" gradientUnits="userSpaceOnUse">
<stop stop-color="#E05151"/>
<stop offset="1" stop-color="#C60707" stop-opacity="0"/>
</linearGradient>
</defs>
</svg>
