<svg xmlns="http://www.w3.org/2000/svg" width="31" height="31" viewBox="0 0 31 31" fill="none">
  <path d="M12.9226 17.9526L26.6726 4.20264M12.9226 17.9526L17.2976 26.7026C17.3524 26.8223 17.4405 26.9237 17.5513 26.9948C17.6621 27.0659 17.7909 27.1037 17.9226 27.1037C18.0542 27.1037 18.1831 27.0659 18.2939 26.9948C18.4047 26.9237 18.4927 26.8223 18.5476 26.7026L26.6726 4.20264M12.9226 17.9526L4.17257 13.5776C4.0529 13.5228 3.95148 13.4347 3.88038 13.324C3.80928 13.2132 3.77148 13.0843 3.77148 12.9526C3.77148 12.821 3.80928 12.6921 3.88038 12.5813C3.95148 12.4705 4.0529 12.3825 4.17257 12.3276L26.6726 4.20264" stroke="#BF0C0C" stroke-width="2" stroke-linecap="round" stroke-linejoin="round"/>
</svg>