<svg width="31" height="31" viewBox="0 0 31 31" fill="none" xmlns="http://www.w3.org/2000/svg">
<path d="M28.0547 30.4937L17.2627 19.7027C16.4294 20.3967 15.4574 20.945 14.3467 21.3477C13.2354 21.751 12.0687 21.9527 10.8467 21.9527C7.81869 21.9527 5.26302 20.911 3.17969 18.8277C1.09635 16.7443 0.0546875 14.2163 0.0546875 11.2437C0.0546875 8.27165 1.09635 5.73699 3.17969 3.63965C5.26302 1.54232 7.80469 0.493652 10.8047 0.493652C13.7767 0.493652 16.3044 1.54232 18.3877 3.63965C20.471 5.73699 21.5127 8.27165 21.5127 11.2437C21.5127 12.4383 21.3184 13.5843 20.9297 14.6817C20.541 15.779 19.9717 16.7997 19.2217 17.7437L30.0547 28.4937L28.0547 30.4937ZM10.8047 19.1607C12.9994 19.1607 14.8674 18.3897 16.4087 16.8477C17.9507 15.3063 18.7217 13.4383 18.7217 11.2437C18.7217 9.04965 17.9507 7.17465 16.4087 5.61865C14.8674 4.06332 12.9994 3.28565 10.8047 3.28565C8.58269 3.28565 6.70069 4.06332 5.15869 5.61865C3.61735 7.17465 2.84669 9.04965 2.84669 11.2437C2.84669 13.4383 3.61735 15.3063 5.15869 16.8477C6.70069 18.3897 8.58269 19.1607 10.8047 19.1607Z" fill="#6A6A6A" fill-opacity="0.9"/>
</svg>
