<svg width="81" height="80" viewBox="0 0 81 80" fill="none" xmlns="http://www.w3.org/2000/svg">
<path d="M80.5 40C80.5 62.0914 62.5914 80 40.5 80C18.4086 80 0.5 62.0914 0.5 40C0.5 17.9086 18.4086 0 40.5 0C62.5914 0 80.5 17.9086 80.5 40Z" fill="#34D399"/>
<mask id="mask0_2205_41290" style="mask-type:alpha" maskUnits="userSpaceOnUse" x="11" y="11" width="57" height="57">
<rect x="11.6992" y="11.1982" width="56" height="56" fill="#D9D9D9"/>
</mask>
<g mask="url(#mask0_2205_41290)">
<path d="M20.4595 22.1815C20.3892 22.3334 20.3825 22.5069 20.4407 22.6638C20.4989 22.8208 20.6174 22.9482 20.7701 23.0182L22.0789 23.618C22.2309 23.6842 22.403 23.6883 22.5581 23.6296C22.7131 23.5709 22.8389 23.4541 22.9084 23.3041C22.9778 23.1541 22.9854 22.9831 22.9295 22.8276C22.8736 22.6721 22.7587 22.5447 22.6094 22.4726L21.3003 21.8724C21.2247 21.8376 21.143 21.8181 21.0598 21.8148C20.9766 21.8115 20.8936 21.8246 20.8155 21.8533C20.7373 21.882 20.6657 21.9258 20.6046 21.9821C20.5436 22.0384 20.4942 22.1062 20.4595 22.1815ZM25.5351 20.7011C25.636 20.7009 25.7354 20.6767 25.8251 20.6306C25.9147 20.5844 25.9921 20.5177 26.0506 20.4359C26.1092 20.3541 26.1473 20.2596 26.1618 20.1602C26.1763 20.0608 26.1668 19.9594 26.134 19.8644L25.6577 18.4884C25.6311 18.4095 25.589 18.3366 25.5339 18.2739C25.4788 18.2113 25.4117 18.1601 25.3367 18.1234C25.2616 18.0867 25.18 18.0651 25.0965 18.0599C25.013 18.0547 24.9293 18.066 24.8502 18.0932C24.7711 18.1203 24.6982 18.1628 24.6357 18.2181C24.5732 18.2735 24.5223 18.3406 24.486 18.4156C24.4497 18.4906 24.4286 18.572 24.4241 18.6551C24.4196 18.7383 24.4316 18.8215 24.4595 18.8999L24.9361 20.276C24.9792 20.4 25.06 20.5076 25.1673 20.5838C25.2747 20.66 25.4032 20.701 25.5351 20.7011ZM20.7184 28.526C20.7965 28.526 20.8738 28.5117 20.9466 28.4837L22.3213 27.9558C22.4782 27.8956 22.6046 27.7758 22.6728 27.6228C22.7409 27.4698 22.7452 27.2962 22.6847 27.1401C22.6242 26.9839 22.5038 26.8581 22.3501 26.7903C22.1964 26.7225 22.0219 26.7183 21.865 26.7785L20.4903 27.3064C20.352 27.3593 20.2367 27.4587 20.1644 27.5873C20.0921 27.716 20.0673 27.8658 20.0944 28.0107C20.1215 28.1556 20.1988 28.2865 20.3128 28.3807C20.4268 28.4748 20.5703 28.5262 20.7184 28.526ZM23.1596 19.7553C23.047 19.631 22.8895 19.5563 22.7216 19.5476C22.5537 19.5389 22.3892 19.5969 22.2643 19.7089C22.1394 19.8209 22.0643 19.9777 22.0556 20.1448C22.0469 20.3119 22.1052 20.4756 22.2177 20.5999L23.1849 21.669C23.2406 21.7306 23.308 21.7806 23.3832 21.8163C23.4583 21.8519 23.5398 21.8725 23.6229 21.8768C23.7061 21.8811 23.7893 21.8691 23.8678 21.8414C23.9462 21.8138 24.0185 21.771 24.0803 21.7155C24.1422 21.6601 24.1925 21.593 24.2283 21.5182C24.2641 21.4434 24.2848 21.3623 24.2892 21.2796C24.2935 21.1968 24.2814 21.1141 24.2536 21.036C24.2258 20.9579 24.1828 20.886 24.1271 20.8244L23.1596 19.7553ZM20.341 24.5405C20.1729 24.5384 20.0109 24.6029 19.8905 24.7197C19.7702 24.8365 19.7014 24.9961 19.6993 25.1634C19.6972 25.3307 19.7619 25.492 19.8793 25.6117C19.9967 25.7315 20.1571 25.8 20.3252 25.8021L21.7785 25.8377C21.7838 25.8379 21.7891 25.8379 21.7943 25.8377C21.9592 25.835 22.1166 25.7684 22.2329 25.6521C22.3493 25.5359 22.4155 25.379 22.4176 25.2149C22.4197 25.0508 22.3574 24.8924 22.244 24.7732C22.1306 24.6541 21.9749 24.5836 21.8102 24.5768L20.3568 24.5409H20.341V24.5405ZM22.0776 30.845C22.2375 30.8453 22.3915 30.7854 22.5086 30.6772L23.602 29.6693C23.663 29.6129 23.7124 29.5452 23.7471 29.4699C23.7819 29.3946 23.8014 29.3132 23.8046 29.2304C23.8077 29.1476 23.7945 29.065 23.7656 28.9873C23.7366 28.9096 23.6926 28.8383 23.636 28.7775C23.5794 28.7167 23.5114 28.6677 23.4357 28.6331C23.36 28.5985 23.2783 28.579 23.1951 28.5759C23.1119 28.5727 23.0288 28.5859 22.9508 28.6147C22.8727 28.6435 22.8011 28.6873 22.74 28.7436L21.6467 29.7513C21.5531 29.8374 21.4878 29.9497 21.4593 30.0734C21.4308 30.1971 21.4405 30.3264 21.487 30.4445C21.5336 30.5627 21.6149 30.6641 21.7202 30.7355C21.8256 30.807 21.9502 30.8451 22.0776 30.845ZM27.8079 20.3324C27.9673 20.3323 28.1208 20.2724 28.2378 20.1646C28.3548 20.0569 28.4267 19.9093 28.4392 19.7512L28.5558 18.279C28.5624 18.1964 28.5525 18.1133 28.5268 18.0345C28.5011 17.9558 28.46 17.8828 28.4059 17.8198C28.2968 17.6926 28.1413 17.6137 27.9737 17.6006C27.8907 17.5941 27.8072 17.6039 27.7281 17.6295C27.6489 17.6551 27.5756 17.696 27.5123 17.7498C27.3844 17.8584 27.3052 18.0131 27.292 18.1799L27.1754 19.6521C27.1689 19.7347 27.1787 19.8178 27.2044 19.8966C27.2302 19.9754 27.2712 20.0483 27.3253 20.1113C27.3793 20.1743 27.4453 20.2261 27.5195 20.2637C27.5937 20.3013 27.6746 20.324 27.7576 20.3305C27.7747 20.3318 27.7911 20.3324 27.8083 20.3324H27.8079ZM23.583 27.0721C23.7667 27.583 24.0509 28.0524 24.4191 28.4527C24.7873 28.853 25.2319 29.1762 25.7271 29.4034C25.8792 29.4696 26.0514 29.4738 26.2065 29.4151C26.3617 29.3563 26.4875 29.2393 26.5569 29.0892C26.6263 28.9391 26.6338 28.7679 26.5777 28.6124C26.5216 28.4569 26.4065 28.3295 26.257 28.2576C25.9141 28.0995 25.6063 27.8749 25.3516 27.5971C25.0969 27.3193 24.9004 26.9937 24.7736 26.6394C24.6296 26.2418 24.5667 25.8196 24.5886 25.3975C24.6104 24.9754 24.7165 24.5618 24.9006 24.181C25.6422 22.6095 27.4593 21.8872 28.9494 22.5707C29.1021 22.6407 29.2765 22.6475 29.4342 22.5895C29.5919 22.5316 29.72 22.4137 29.7903 22.2618C29.8607 22.1098 29.8675 21.9363 29.8093 21.7793C29.7511 21.6224 29.6326 21.4949 29.4799 21.4249C27.3583 20.4519 24.7894 21.4485 23.7534 23.6452C23.4976 24.1765 23.3507 24.7532 23.3214 25.3417C23.2922 25.9302 23.3811 26.5185 23.583 27.0724V27.0721ZM50.764 37.1526C50.764 36.9853 50.6972 36.8249 50.5783 36.7066C50.4595 36.5883 50.2983 36.5219 50.1302 36.5219C49.9621 36.5219 49.8008 36.5883 49.682 36.7066C49.5631 36.8249 49.4963 36.9853 49.4963 37.1526V38.4142C49.4963 38.5814 49.5631 38.7419 49.682 38.8602C49.8008 38.9785 49.9621 39.0449 50.1302 39.0449C50.2983 39.0449 50.4595 38.9785 50.5783 38.8602C50.6972 38.7419 50.764 38.5814 50.764 38.4142V37.1526ZM53.2992 37.1526C53.2992 36.9853 53.2324 36.8249 53.1136 36.7066C52.9947 36.5883 52.8335 36.5219 52.6654 36.5219C52.4973 36.5219 52.3361 36.5883 52.2172 36.7066C52.0984 36.8249 52.0316 36.9853 52.0316 37.1526V38.4142C52.0316 38.5814 52.0984 38.7419 52.2172 38.8602C52.3361 38.9785 52.4973 39.0449 52.6654 39.0449C52.8335 39.0449 52.9947 38.9785 53.1136 38.8602C53.2324 38.7419 53.2992 38.5814 53.2992 38.4142V37.1526ZM50.764 40.9372C50.764 40.7699 50.6972 40.6095 50.5783 40.4912C50.4595 40.3729 50.2983 40.3064 50.1302 40.3064C49.9621 40.3064 49.8008 40.3729 49.682 40.4912C49.5631 40.6095 49.4963 40.7699 49.4963 40.9372V42.1987C49.4963 42.366 49.5631 42.5265 49.682 42.6447C49.8008 42.763 49.9621 42.8295 50.1302 42.8295C50.2983 42.8295 50.4595 42.763 50.5783 42.6447C50.6972 42.5265 50.764 42.366 50.764 42.1987V40.9372ZM53.2992 40.9372C53.2992 40.7699 53.2324 40.6095 53.1136 40.4912C52.9947 40.3729 52.8335 40.3064 52.6654 40.3064C52.4973 40.3064 52.3361 40.3729 52.2172 40.4912C52.0984 40.6095 52.0316 40.7699 52.0316 40.9372V42.1987C52.0316 42.366 52.0984 42.5265 52.2172 42.6447C52.3361 42.763 52.4973 42.8295 52.6654 42.8295C52.8335 42.8295 52.9947 42.763 53.1136 42.6447C53.2324 42.5265 53.2992 42.366 53.2992 42.1987V40.9372ZM50.764 44.7218C50.764 44.5545 50.6972 44.394 50.5783 44.2758C50.4595 44.1575 50.2983 44.091 50.1302 44.091C49.9621 44.091 49.8008 44.1575 49.682 44.2758C49.5631 44.394 49.4963 44.5545 49.4963 44.7218V45.9833C49.4963 46.1506 49.5631 46.311 49.682 46.4293C49.8008 46.5476 49.9621 46.6141 50.1302 46.6141C50.2983 46.6141 50.4595 46.5476 50.5783 46.4293C50.6972 46.311 50.764 46.1506 50.764 45.9833V44.7218ZM53.2992 44.7218C53.2992 44.5545 53.2324 44.394 53.1136 44.2758C52.9947 44.1575 52.8335 44.091 52.6654 44.091C52.4973 44.091 52.3361 44.1575 52.2172 44.2758C52.0984 44.394 52.0316 44.5545 52.0316 44.7218V45.9833C52.0316 46.1506 52.0984 46.311 52.2172 46.4293C52.3361 46.5476 52.4973 46.6141 52.6654 46.6141C52.8335 46.6141 52.9947 46.5476 53.1136 46.4293C53.2324 46.311 53.2992 46.1506 53.2992 45.9833V44.7218ZM50.1302 47.8756C49.9621 47.8756 49.8008 47.942 49.682 48.0603C49.5631 48.1786 49.4963 48.3391 49.4963 48.5063V49.7679C49.4963 49.9352 49.5631 50.0956 49.682 50.2139C49.8008 50.3322 49.9621 50.3986 50.1302 50.3986C50.2983 50.3986 50.4595 50.3322 50.5783 50.2139C50.6972 50.0956 50.764 49.9352 50.764 49.7679V48.5063C50.764 48.3391 50.6972 48.1786 50.5783 48.0603C50.4595 47.942 50.2983 47.8756 50.1302 47.8756ZM52.6654 47.8756C52.4973 47.8756 52.3361 47.942 52.2172 48.0603C52.0984 48.1786 52.0316 48.3391 52.0316 48.5063V49.7679C52.0316 49.9352 52.0984 50.0956 52.2172 50.2139C52.3361 50.3322 52.4973 50.3986 52.6654 50.3986C52.8335 50.3986 52.9947 50.3322 53.1136 50.2139C53.2324 50.0956 53.2992 49.9352 53.2992 49.7679V48.5063C53.2992 48.3391 53.2324 48.1786 53.1136 48.0603C52.9947 47.942 52.8335 47.8756 52.6654 47.8756ZM30.482 37.1526C30.482 36.9853 30.4152 36.8249 30.2964 36.7066C30.1775 36.5883 30.0163 36.5219 29.8482 36.5219C29.6801 36.5219 29.5189 36.5883 29.4 36.7066C29.2811 36.8249 29.2144 36.9853 29.2144 37.1526V38.4142C29.2144 38.5814 29.2811 38.7419 29.4 38.8602C29.5189 38.9785 29.6801 39.0449 29.8482 39.0449C30.0163 39.0449 30.1775 38.9785 30.2964 38.8602C30.4152 38.7419 30.482 38.5814 30.482 38.4142V37.1526ZM27.9467 37.1526C27.9467 36.9853 27.88 36.8249 27.7611 36.7066C27.6422 36.5883 27.481 36.5219 27.3129 36.5219C27.1448 36.5219 26.9836 36.5883 26.8648 36.7066C26.7459 36.8249 26.6791 36.9853 26.6791 37.1526V38.4142C26.6791 38.5814 26.7459 38.7419 26.8648 38.8602C26.9836 38.9785 27.1448 39.0449 27.3129 39.0449C27.481 39.0449 27.6422 38.9785 27.7611 38.8602C27.88 38.7419 27.9467 38.5814 27.9467 38.4142V37.1526ZM30.482 40.9372C30.482 40.7699 30.4152 40.6095 30.2964 40.4912C30.1775 40.3729 30.0163 40.3064 29.8482 40.3064C29.6801 40.3064 29.5189 40.3729 29.4 40.4912C29.2811 40.6095 29.2144 40.7699 29.2144 40.9372V42.1987C29.2144 42.366 29.2811 42.5265 29.4 42.6447C29.5189 42.763 29.6801 42.8295 29.8482 42.8295C30.0163 42.8295 30.1775 42.763 30.2964 42.6447C30.4152 42.5265 30.482 42.366 30.482 42.1987V40.9372ZM27.9467 40.9372C27.9467 40.7699 27.88 40.6095 27.7611 40.4912C27.6422 40.3729 27.481 40.3064 27.3129 40.3064C27.1448 40.3064 26.9836 40.3729 26.8648 40.4912C26.7459 40.6095 26.6791 40.7699 26.6791 40.9372V42.1987C26.6791 42.366 26.7459 42.5265 26.8648 42.6447C26.9836 42.763 27.1448 42.8295 27.3129 42.8295C27.481 42.8295 27.6422 42.763 27.7611 42.6447C27.88 42.5265 27.9467 42.366 27.9467 42.1987V40.9372ZM30.482 44.7218C30.482 44.5545 30.4152 44.394 30.2964 44.2758C30.1775 44.1575 30.0163 44.091 29.8482 44.091C29.6801 44.091 29.5189 44.1575 29.4 44.2758C29.2811 44.394 29.2144 44.5545 29.2144 44.7218V45.9833C29.2144 46.1506 29.2811 46.311 29.4 46.4293C29.5189 46.5476 29.6801 46.6141 29.8482 46.6141C30.0163 46.6141 30.1775 46.5476 30.2964 46.4293C30.4152 46.311 30.482 46.1506 30.482 45.9833V44.7218ZM27.9467 44.7218C27.9467 44.5545 27.88 44.394 27.7611 44.2758C27.6422 44.1575 27.481 44.091 27.3129 44.091C27.1448 44.091 26.9836 44.1575 26.8648 44.2758C26.7459 44.394 26.6791 44.5545 26.6791 44.7218V45.9833C26.6791 46.1506 26.7459 46.311 26.8648 46.4293C26.9836 46.5476 27.1448 46.6141 27.3129 46.6141C27.481 46.6141 27.6422 46.5476 27.7611 46.4293C27.88 46.311 27.9467 46.1506 27.9467 45.9833V44.7218ZM29.8482 47.8756C29.6801 47.8756 29.5189 47.942 29.4 48.0603C29.2811 48.1786 29.2144 48.3391 29.2144 48.5063V49.7679C29.2144 49.9352 29.2811 50.0956 29.4 50.2139C29.5189 50.3322 29.6801 50.3986 29.8482 50.3986C30.0163 50.3986 30.1775 50.3322 30.2964 50.2139C30.4152 50.0956 30.482 49.9352 30.482 49.7679V48.5063C30.482 48.3391 30.4152 48.1786 30.2964 48.0603C30.1775 47.942 30.0163 47.8756 29.8482 47.8756ZM27.3129 47.8756C27.1448 47.8756 26.9836 47.942 26.8648 48.0603C26.7459 48.1786 26.6791 48.3391 26.6791 48.5063V49.7679C26.6791 49.9352 26.7459 50.0956 26.8648 50.2139C26.9836 50.3322 27.1448 50.3986 27.3129 50.3986C27.481 50.3986 27.6422 50.3322 27.7611 50.2139C27.88 50.0956 27.9467 49.9352 27.9467 49.7679V48.5063C27.9467 48.3391 27.88 48.1786 27.7611 48.0603C27.6422 47.942 27.481 47.8756 27.3129 47.8756Z" fill="#FCFCFC"/>
<path d="M60.4992 51.7407C60.4992 50.9657 60.104 49.6643 59.3246 47.8723C59.2406 47.6589 59.095 47.4759 58.9066 47.3469C58.7182 47.2179 58.4958 47.1489 58.2681 47.1489C58.0404 47.1489 57.8179 47.2178 57.6295 47.3467C57.4411 47.4756 57.2954 47.6586 57.2113 47.872C56.432 49.6643 56.0367 50.9657 56.0367 51.7407C56.0367 53.1797 56.6997 54.361 57.6305 54.7364V57.1127H56.3555V55.4516C55.9665 55.1316 55.6419 54.7395 55.3992 54.2964V57.1127H53.8055V53.8984C53.8051 53.5575 53.6707 53.2307 53.4317 52.9897C53.1926 52.7486 52.8685 52.6131 52.5305 52.6127H50.618C50.2799 52.6131 49.9558 52.7486 49.7168 52.9897C49.4777 53.2307 49.3433 53.5575 49.343 53.8984V57.1127H47.7492V23.6842C47.7492 23.3432 47.6149 23.0161 47.3758 22.775C47.1367 22.5339 46.8124 22.3984 46.4742 22.3984H33.7242C33.3861 22.3984 33.0618 22.5339 32.8227 22.775C32.5835 23.0161 32.4492 23.3432 32.4492 23.6842V57.1127H30.8555V53.8984C30.8551 53.5575 30.7207 53.2307 30.4817 52.9897C30.2426 52.7486 29.9185 52.6131 29.5805 52.6127H27.668C27.3299 52.6131 27.0058 52.7486 26.7668 52.9897C26.5277 53.2307 26.3933 53.5575 26.393 53.8984V57.1127H24.7992V54.2964C24.5565 54.7395 24.2319 55.1316 23.843 55.4516V57.1127H22.568V54.7361C23.4987 54.361 24.1617 53.1797 24.1617 51.7407C24.1617 50.9657 23.7665 49.6643 22.9871 47.8723C22.9013 47.6601 22.7552 47.4782 22.5672 47.3495C22.3792 47.2207 22.1577 47.1508 21.9305 47.1484C21.7033 47.1507 21.4818 47.2206 21.2938 47.3493C21.1058 47.478 20.9597 47.6599 20.8738 47.872C20.0945 49.6643 19.6992 50.9657 19.6992 51.7407C19.6992 53.1797 20.3622 54.361 21.293 54.7364V57.1127H20.3367C20.1676 57.1127 20.0055 57.1805 19.8859 57.301C19.7664 57.4216 19.6992 57.5851 19.6992 57.7556C19.6992 57.9261 19.7664 58.0896 19.8859 58.2101C20.0055 58.3307 20.1676 58.3984 20.3367 58.3984H59.8617C60.0308 58.3984 60.1929 58.3307 60.3125 58.2101C60.432 58.0896 60.4992 57.9261 60.4992 57.7556C60.4992 57.5851 60.432 57.4216 60.3125 57.301C60.1929 57.1805 60.0308 57.1127 59.8617 57.1127H58.9055V54.7361C59.8362 54.361 60.4992 53.1797 60.4992 51.7407ZM29.5805 57.1127H27.668V53.8984H29.5805V57.1127ZM40.7367 25.6127C40.7367 25.4422 40.8039 25.2787 40.9234 25.1582C41.043 25.0376 41.2051 24.9699 41.3742 24.9699C41.5433 24.9699 41.7054 25.0376 41.825 25.1582C41.9446 25.2787 42.0117 25.4422 42.0117 25.6127V26.8984C42.0117 27.0689 41.9446 27.2324 41.825 27.353C41.7054 27.4736 41.5433 27.5413 41.3742 27.5413C41.2051 27.5413 41.043 27.4736 40.9234 27.353C40.8039 27.2324 40.7367 27.0689 40.7367 26.8984V25.6127ZM40.7367 29.4699C40.7367 29.2994 40.8039 29.1359 40.9234 29.0153C41.043 28.8947 41.2051 28.827 41.3742 28.827C41.5433 28.827 41.7054 28.8947 41.825 29.0153C41.9446 29.1359 42.0117 29.2994 42.0117 29.4699V30.7556C42.0117 30.9261 41.9446 31.0896 41.825 31.2101C41.7054 31.3307 41.5433 31.3984 41.3742 31.3984C41.2051 31.3984 41.043 31.3307 40.9234 31.2101C40.8039 31.0896 40.7367 30.9261 40.7367 30.7556V29.4699ZM40.7367 33.327C40.7367 33.1565 40.8039 32.993 40.9234 32.8724C41.043 32.7519 41.2051 32.6842 41.3742 32.6842C41.5433 32.6842 41.7054 32.7519 41.825 32.8724C41.9446 32.993 42.0117 33.1565 42.0117 33.327V34.6127C42.0117 34.7832 41.9446 34.9467 41.825 35.0673C41.7054 35.1879 41.5433 35.2556 41.3742 35.2556C41.2051 35.2556 41.043 35.1879 40.9234 35.0673C40.8039 34.9467 40.7367 34.7832 40.7367 34.6127V33.327ZM40.7367 37.1842C40.7367 37.0137 40.8039 36.8501 40.9234 36.7296C41.043 36.609 41.2051 36.5413 41.3742 36.5413C41.5433 36.5413 41.7054 36.609 41.825 36.7296C41.9446 36.8501 42.0117 37.0137 42.0117 37.1842V38.4699C42.0117 38.6404 41.9446 38.8039 41.825 38.9244C41.7054 39.045 41.5433 39.1127 41.3742 39.1127C41.2051 39.1127 41.043 39.045 40.9234 38.9244C40.8039 38.8039 40.7367 38.6404 40.7367 38.4699V37.1842ZM40.7367 41.0413C40.7367 40.8708 40.8039 40.7073 40.9234 40.5867C41.043 40.4662 41.2051 40.3984 41.3742 40.3984C41.5433 40.3984 41.7054 40.4662 41.825 40.5867C41.9446 40.7073 42.0117 40.8708 42.0117 41.0413V42.327C42.0117 42.4975 41.9446 42.661 41.825 42.7816C41.7054 42.9021 41.5433 42.9699 41.3742 42.9699C41.2051 42.9699 41.043 42.9021 40.9234 42.7816C40.8039 42.661 40.7367 42.4975 40.7367 42.327V41.0413ZM40.7367 44.8984C40.7367 44.7279 40.8039 44.5644 40.9234 44.4439C41.043 44.3233 41.2051 44.2556 41.3742 44.2556C41.5433 44.2556 41.7054 44.3233 41.825 44.4439C41.9446 44.5644 42.0117 44.7279 42.0117 44.8984V46.1842C42.0117 46.3546 41.9446 46.5182 41.825 46.6387C41.7054 46.7593 41.5433 46.827 41.3742 46.827C41.2051 46.827 41.043 46.7593 40.9234 46.6387C40.8039 46.5182 40.7367 46.3546 40.7367 46.1842V44.8984ZM38.1867 25.6127C38.1867 25.4422 38.2539 25.2787 38.3734 25.1582C38.493 25.0376 38.6551 24.9699 38.8242 24.9699C38.9933 24.9699 39.1554 25.0376 39.275 25.1582C39.3946 25.2787 39.4617 25.4422 39.4617 25.6127V26.8984C39.4617 27.0689 39.3946 27.2324 39.275 27.353C39.1554 27.4736 38.9933 27.5413 38.8242 27.5413C38.6551 27.5413 38.493 27.4736 38.3734 27.353C38.2539 27.2324 38.1867 27.0689 38.1867 26.8984V25.6127ZM38.1867 29.4699C38.1867 29.2994 38.2539 29.1359 38.3734 29.0153C38.493 28.8947 38.6551 28.827 38.8242 28.827C38.9933 28.827 39.1554 28.8947 39.275 29.0153C39.3946 29.1359 39.4617 29.2994 39.4617 29.4699V30.7556C39.4617 30.9261 39.3946 31.0896 39.275 31.2101C39.1554 31.3307 38.9933 31.3984 38.8242 31.3984C38.6551 31.3984 38.493 31.3307 38.3734 31.2101C38.2539 31.0896 38.1867 30.9261 38.1867 30.7556V29.4699ZM38.1867 33.327C38.1867 33.1565 38.2539 32.993 38.3734 32.8724C38.493 32.7519 38.6551 32.6842 38.8242 32.6842C38.9933 32.6842 39.1554 32.7519 39.275 32.8724C39.3946 32.993 39.4617 33.1565 39.4617 33.327V34.6127C39.4617 34.7832 39.3946 34.9467 39.275 35.0673C39.1554 35.1879 38.9933 35.2556 38.8242 35.2556C38.6551 35.2556 38.493 35.1879 38.3734 35.0673C38.2539 34.9467 38.1867 34.7832 38.1867 34.6127V33.327ZM38.1867 37.1842C38.1867 37.0137 38.2539 36.8501 38.3734 36.7296C38.493 36.609 38.6551 36.5413 38.8242 36.5413C38.9933 36.5413 39.1554 36.609 39.275 36.7296C39.3946 36.8501 39.4617 37.0137 39.4617 37.1842V38.4699C39.4617 38.6404 39.3946 38.8039 39.275 38.9244C39.1554 39.045 38.9933 39.1127 38.8242 39.1127C38.6551 39.1127 38.493 39.045 38.3734 38.9244C38.2539 38.8039 38.1867 38.6404 38.1867 38.4699V37.1842ZM38.1867 41.0413C38.1867 40.8708 38.2539 40.7073 38.3734 40.5867C38.493 40.4662 38.6551 40.3984 38.8242 40.3984C38.9933 40.3984 39.1554 40.4662 39.275 40.5867C39.3946 40.7073 39.4617 40.8708 39.4617 41.0413V42.327C39.4617 42.4975 39.3946 42.661 39.275 42.7816C39.1554 42.9021 38.9933 42.9699 38.8242 42.9699C38.6551 42.9699 38.493 42.9021 38.3734 42.7816C38.2539 42.661 38.1867 42.4975 38.1867 42.327V41.0413ZM38.1867 44.8984C38.1867 44.7279 38.2539 44.5644 38.3734 44.4439C38.493 44.3233 38.6551 44.2556 38.8242 44.2556C38.9933 44.2556 39.1554 44.3233 39.275 44.4439C39.3946 44.5644 39.4617 44.7279 39.4617 44.8984V46.1842C39.4617 46.3546 39.3946 46.5182 39.275 46.6387C39.1554 46.7593 38.9933 46.827 38.8242 46.827C38.6551 46.827 38.493 46.7593 38.3734 46.6387C38.2539 46.5182 38.1867 46.3546 38.1867 46.1842V44.8984ZM35.6367 25.6127C35.6367 25.4422 35.7039 25.2787 35.8234 25.1582C35.943 25.0376 36.1051 24.9699 36.2742 24.9699C36.4433 24.9699 36.6054 25.0376 36.725 25.1582C36.8446 25.2787 36.9117 25.4422 36.9117 25.6127V26.8984C36.9117 27.0689 36.8446 27.2324 36.725 27.353C36.6054 27.4736 36.4433 27.5413 36.2742 27.5413C36.1051 27.5413 35.943 27.4736 35.8234 27.353C35.7039 27.2324 35.6367 27.0689 35.6367 26.8984V25.6127ZM35.6367 29.4699C35.6367 29.2994 35.7039 29.1359 35.8234 29.0153C35.943 28.8947 36.1051 28.827 36.2742 28.827C36.4433 28.827 36.6054 28.8947 36.725 29.0153C36.8446 29.1359 36.9117 29.2994 36.9117 29.4699V30.7556C36.9117 30.9261 36.8446 31.0896 36.725 31.2101C36.6054 31.3307 36.4433 31.3984 36.2742 31.3984C36.1051 31.3984 35.943 31.3307 35.8234 31.2101C35.7039 31.0896 35.6367 30.9261 35.6367 30.7556V29.4699ZM35.6367 33.327C35.6367 33.1565 35.7039 32.993 35.8234 32.8724C35.943 32.7519 36.1051 32.6842 36.2742 32.6842C36.4433 32.6842 36.6054 32.7519 36.725 32.8724C36.8446 32.993 36.9117 33.1565 36.9117 33.327V34.6127C36.9117 34.7832 36.8446 34.9467 36.725 35.0673C36.6054 35.1879 36.4433 35.2556 36.2742 35.2556C36.1051 35.2556 35.943 35.1879 35.8234 35.0673C35.7039 34.9467 35.6367 34.7832 35.6367 34.6127V33.327ZM35.6367 37.1842C35.6367 37.0137 35.7039 36.8501 35.8234 36.7296C35.943 36.609 36.1051 36.5413 36.2742 36.5413C36.4433 36.5413 36.6054 36.609 36.725 36.7296C36.8446 36.8501 36.9117 37.0137 36.9117 37.1842V38.4699C36.9117 38.6404 36.8446 38.8039 36.725 38.9244C36.6054 39.045 36.4433 39.1127 36.2742 39.1127C36.1051 39.1127 35.943 39.045 35.8234 38.9244C35.7039 38.8039 35.6367 38.6404 35.6367 38.4699V37.1842ZM35.6367 41.0413C35.6367 40.8708 35.7039 40.7073 35.8234 40.5867C35.943 40.4662 36.1051 40.3984 36.2742 40.3984C36.4433 40.3984 36.6054 40.4662 36.725 40.5867C36.8446 40.7073 36.9117 40.8708 36.9117 41.0413V42.327C36.9117 42.4975 36.8446 42.661 36.725 42.7816C36.6054 42.9021 36.4433 42.9699 36.2742 42.9699C36.1051 42.9699 35.943 42.9021 35.8234 42.7816C35.7039 42.661 35.6367 42.4975 35.6367 42.327V41.0413ZM36.2742 46.827C36.1051 46.827 35.943 46.7593 35.8234 46.6387C35.7039 46.5182 35.6367 46.3546 35.6367 46.1842V44.8984C35.6367 44.7279 35.7039 44.5644 35.8234 44.4439C35.943 44.3233 36.1051 44.2556 36.2742 44.2556C36.4433 44.2556 36.6054 44.3233 36.725 44.4439C36.8446 44.5644 36.9117 44.7279 36.9117 44.8984V46.1842C36.9117 46.3546 36.8446 46.5182 36.725 46.6387C36.6054 46.7593 36.4433 46.827 36.2742 46.827ZM43.2867 57.1127H36.9117V50.0413C36.9117 49.8708 36.9789 49.7073 37.0984 49.5867C37.218 49.4662 37.3801 49.3984 37.5492 49.3984H42.6492C42.8183 49.3984 42.9804 49.4662 43.1 49.5867C43.2196 49.7073 43.2867 49.8708 43.2867 50.0413V57.1127ZM44.5617 46.1842C44.5617 46.3546 44.4946 46.5182 44.375 46.6387C44.2554 46.7593 44.0933 46.827 43.9242 46.827C43.7551 46.827 43.593 46.7593 43.4734 46.6387C43.3539 46.5182 43.2867 46.3546 43.2867 46.1842V44.8984C43.2867 44.7279 43.3539 44.5644 43.4734 44.4439C43.593 44.3233 43.7551 44.2556 43.9242 44.2556C44.0933 44.2556 44.2554 44.3233 44.375 44.4439C44.4946 44.5644 44.5617 44.7279 44.5617 44.8984V46.1842ZM44.5617 42.327C44.5617 42.4975 44.4946 42.661 44.375 42.7816C44.2554 42.9021 44.0933 42.9699 43.9242 42.9699C43.7551 42.9699 43.593 42.9021 43.4734 42.7816C43.3539 42.661 43.2867 42.4975 43.2867 42.327V41.0413C43.2867 40.8708 43.3539 40.7073 43.4734 40.5867C43.593 40.4662 43.7551 40.3984 43.9242 40.3984C44.0933 40.3984 44.2554 40.4662 44.375 40.5867C44.4946 40.7073 44.5617 40.8708 44.5617 41.0413V42.327ZM44.5617 38.4699C44.5617 38.6404 44.4946 38.8039 44.375 38.9244C44.2554 39.045 44.0933 39.1127 43.9242 39.1127C43.7551 39.1127 43.593 39.045 43.4734 38.9244C43.3539 38.8039 43.2867 38.6404 43.2867 38.4699V37.1842C43.2867 37.0137 43.3539 36.8501 43.4734 36.7296C43.593 36.609 43.7551 36.5413 43.9242 36.5413C44.0933 36.5413 44.2554 36.609 44.375 36.7296C44.4946 36.8501 44.5617 37.0137 44.5617 37.1842V38.4699ZM44.5617 34.6127C44.5617 34.7832 44.4946 34.9467 44.375 35.0673C44.2554 35.1879 44.0933 35.2556 43.9242 35.2556C43.7551 35.2556 43.593 35.1879 43.4734 35.0673C43.3539 34.9467 43.2867 34.7832 43.2867 34.6127V33.327C43.2867 33.1565 43.3539 32.993 43.4734 32.8724C43.593 32.7519 43.7551 32.6842 43.9242 32.6842C44.0933 32.6842 44.2554 32.7519 44.375 32.8724C44.4946 32.993 44.5617 33.1565 44.5617 33.327V34.6127ZM44.5617 30.7556C44.5617 30.9261 44.4946 31.0896 44.375 31.2101C44.2554 31.3307 44.0933 31.3984 43.9242 31.3984C43.7551 31.3984 43.593 31.3307 43.4734 31.2101C43.3539 31.0896 43.2867 30.9261 43.2867 30.7556V29.4699C43.2867 29.2994 43.3539 29.1359 43.4734 29.0153C43.593 28.8947 43.7551 28.827 43.9242 28.827C44.0933 28.827 44.2554 28.8947 44.375 29.0153C44.4946 29.1359 44.5617 29.2994 44.5617 29.4699V30.7556ZM44.5617 26.8984C44.5617 27.0689 44.4946 27.2324 44.375 27.353C44.2554 27.4736 44.0933 27.5413 43.9242 27.5413C43.7551 27.5413 43.593 27.4736 43.4734 27.353C43.3539 27.2324 43.2867 27.0689 43.2867 26.8984V25.6127C43.2867 25.4422 43.3539 25.2787 43.4734 25.1582C43.593 25.0376 43.7551 24.9699 43.9242 24.9699C44.0933 24.9699 44.2554 25.0376 44.375 25.1582C44.4946 25.2787 44.5617 25.4422 44.5617 25.6127V26.8984ZM52.5305 57.1127H50.618V53.8984H52.5305V57.1127Z" fill="#FCFCFC"/>
<path d="M55.8751 47.2296C56.0186 46.9022 56.2315 46.6098 56.4992 46.3724V33.8323C56.4992 33.0459 55.9473 32.5313 55.0576 32.4083L48.93 31.1986V32.4813L55.0576 33.6671C55.1035 33.6654 55.1481 33.6818 55.1819 33.7128C55.2157 33.7438 55.2357 33.7869 55.2377 33.8326V48.7976C55.434 48.2684 55.6465 47.7454 55.8751 47.2293V47.2296ZM31.2684 31.1982L25.1408 32.4083C24.3237 32.5115 23.6992 33.0459 23.6992 33.8323V46.3724C23.9669 46.6098 24.1799 46.9022 24.3234 47.2296C24.5519 47.7458 24.7645 48.269 24.9608 48.7982V33.832C24.9627 33.7862 24.9828 33.7432 25.0165 33.7121C25.0503 33.6811 25.095 33.6647 25.1408 33.6665L31.2684 32.4807V31.1982Z" fill="#FCFCFC"/>
</g>
</svg>
