<svg width="60" height="60" viewBox="0 0 60 60" fill="none" xmlns="http://www.w3.org/2000/svg">
<path d="M60 30C60 46.5685 46.5685 60 30 60C13.4315 60 0 46.5685 0 30C0 13.4315 13.4315 0 30 0C46.5685 0 60 13.4315 60 30Z" fill="#34D399"/>
<mask id="mask0_5237_3618" style="mask-type:alpha" maskUnits="userSpaceOnUse" x="8" y="8" width="43" height="43">
<rect x="8.39844" y="8.39941" width="42" height="42" fill="#D9D9D9"/>
</mask>
<g mask="url(#mask0_5237_3618)">
<path d="M14.9687 16.6366C14.9159 16.7506 14.9109 16.8807 14.9546 16.9984C14.9982 17.1161 15.0871 17.2117 15.2016 17.2641L16.1832 17.714C16.2972 17.7636 16.4263 17.7667 16.5426 17.7227C16.6589 17.6787 16.7532 17.591 16.8053 17.4786C16.8574 17.3661 16.8631 17.2378 16.8212 17.1212C16.7792 17.0046 16.693 16.909 16.5811 16.8549L15.5992 16.4048C15.5425 16.3787 15.4813 16.364 15.4189 16.3616C15.3565 16.3591 15.2942 16.3689 15.2356 16.3905C15.177 16.412 15.1233 16.4448 15.0775 16.4871C15.0317 16.5293 14.9947 16.5801 14.9687 16.6366ZM18.7753 15.5263C18.851 15.5261 18.9256 15.508 18.9928 15.4734C19.0601 15.4388 19.1181 15.3888 19.162 15.3274C19.2059 15.2661 19.2345 15.1952 19.2454 15.1206C19.2563 15.0461 19.2491 14.97 19.2246 14.8988L18.8673 13.8668C18.8473 13.8076 18.8158 13.7529 18.7744 13.7059C18.7331 13.659 18.6828 13.6206 18.6265 13.593C18.5702 13.5655 18.509 13.5493 18.4464 13.5454C18.3838 13.5415 18.321 13.55 18.2617 13.5704C18.2024 13.5907 18.1477 13.6226 18.1008 13.6641C18.0539 13.7056 18.0158 13.7559 17.9885 13.8122C17.9613 13.8684 17.9455 13.9295 17.9421 13.9918C17.9387 14.0542 17.9477 14.1166 17.9687 14.1755L18.3261 15.2075C18.3584 15.3005 18.419 15.3812 18.4995 15.4383C18.58 15.4955 18.6764 15.5262 18.7753 15.5263ZM15.1629 21.395C15.2214 21.395 15.2794 21.3842 15.334 21.3633L16.365 20.9673C16.4827 20.9222 16.5775 20.8323 16.6286 20.7176C16.6797 20.6029 16.6829 20.4726 16.6375 20.3555C16.5921 20.2384 16.5019 20.1441 16.3866 20.0932C16.2713 20.0424 16.1404 20.0392 16.0228 20.0844L14.9917 20.4803C14.888 20.52 14.8015 20.5945 14.7473 20.691C14.6931 20.7875 14.6745 20.8998 14.6948 21.0085C14.7152 21.1172 14.7731 21.2154 14.8586 21.286C14.9441 21.3566 15.0518 21.3952 15.1629 21.395ZM16.9937 14.8169C16.9093 14.7237 16.7911 14.6677 16.6652 14.6612C16.5393 14.6546 16.4159 14.6982 16.3223 14.7822C16.2286 14.8662 16.1723 14.9838 16.1657 15.1091C16.1592 15.2344 16.2029 15.3572 16.2873 15.4504L17.0127 16.2522C17.0545 16.2984 17.105 16.3359 17.1614 16.3627C17.2178 16.3894 17.2789 16.4049 17.3412 16.4081C17.4036 16.4113 17.466 16.4023 17.5248 16.3816C17.5837 16.3608 17.6379 16.3287 17.6843 16.2871C17.7307 16.2455 17.7684 16.1953 17.7953 16.1392C17.8221 16.0831 17.8376 16.0222 17.8409 15.9602C17.8441 15.8981 17.8351 15.836 17.8142 15.7775C17.7934 15.7189 17.7611 15.665 17.7193 15.6188L16.9937 14.8169ZM14.8798 18.4059C14.7537 18.4043 14.6322 18.4527 14.5419 18.5403C14.4516 18.6279 14.4001 18.7476 14.3985 18.8731C14.3969 18.9985 14.4455 19.1195 14.5335 19.2093C14.6215 19.2991 14.7418 19.3505 14.8679 19.352L15.9579 19.3788C15.9618 19.3789 15.9658 19.3789 15.9698 19.3788C16.0934 19.3767 16.2114 19.3268 16.2987 19.2396C16.386 19.1524 16.4357 19.0348 16.4372 18.9117C16.4388 18.7886 16.3921 18.6698 16.307 18.5804C16.2219 18.4911 16.1052 18.4382 15.9817 18.4331L14.8917 18.4061H14.8798V18.4059ZM16.1823 23.1342C16.3021 23.1345 16.4176 23.0895 16.5055 23.0084L17.3255 22.2524C17.3713 22.2102 17.4083 22.1594 17.4344 22.1029C17.4604 22.0464 17.4751 21.9854 17.4775 21.9233C17.4798 21.8612 17.4699 21.7992 17.4482 21.741C17.4265 21.6827 17.3935 21.6292 17.351 21.5836C17.3086 21.538 17.2575 21.5012 17.2008 21.4753C17.1441 21.4493 17.0827 21.4348 17.0203 21.4324C16.9579 21.43 16.8957 21.4399 16.8371 21.4615C16.7785 21.4831 16.7248 21.516 16.679 21.5582L15.859 22.3139C15.7888 22.3786 15.7399 22.4628 15.7185 22.5555C15.6971 22.6483 15.7044 22.7453 15.7393 22.8339C15.7742 22.9225 15.8352 22.9985 15.9142 23.0521C15.9932 23.1057 16.0866 23.1343 16.1823 23.1342ZM20.48 15.2498C20.5995 15.2497 20.7146 15.2048 20.8024 15.124C20.8901 15.0432 20.9441 14.9325 20.9534 14.8139L21.0409 13.7097C21.0458 13.6478 21.0384 13.5855 21.0191 13.5264C20.9998 13.4673 20.969 13.4126 20.9285 13.3653C20.8466 13.2699 20.73 13.2108 20.6043 13.2009C20.542 13.196 20.4795 13.2034 20.4201 13.2226C20.3607 13.2418 20.3057 13.2725 20.2582 13.3128C20.1624 13.3943 20.1029 13.5103 20.093 13.6354L20.0056 14.7396C20.0007 14.8015 20.0081 14.8638 20.0274 14.9229C20.0466 14.982 20.0774 15.0367 20.118 15.084C20.1585 15.1312 20.208 15.1701 20.2637 15.1983C20.3193 15.2265 20.3799 15.2435 20.4422 15.2484C20.455 15.2493 20.4674 15.2498 20.4802 15.2498H20.48ZM17.3112 20.3046C17.449 20.6878 17.6622 21.0398 17.9383 21.34C18.2145 21.6402 18.548 21.8826 18.9194 22.053C19.0335 22.1027 19.1626 22.1058 19.2789 22.0618C19.3953 22.0177 19.4897 21.93 19.5417 21.8174C19.5938 21.7048 19.5994 21.5764 19.5573 21.4598C19.5153 21.3432 19.4289 21.2476 19.3168 21.1937C19.0596 21.0751 18.8288 20.9067 18.6377 20.6983C18.4467 20.4899 18.2993 20.2457 18.2042 19.98C18.0963 19.6818 18.0491 19.3652 18.0654 19.0486C18.0818 18.732 18.1614 18.4219 18.2995 18.1362C18.8557 16.9576 20.2185 16.4159 21.3361 16.9285C21.4506 16.981 21.5814 16.9861 21.6997 16.9426C21.8179 16.8992 21.914 16.8108 21.9668 16.6968C22.0195 16.5828 22.0247 16.4527 21.981 16.335C21.9373 16.2173 21.8485 16.1217 21.734 16.0692C20.1427 15.3394 18.2161 16.0869 17.4391 17.7344C17.2472 18.1329 17.1371 18.5654 17.1151 19.0068C17.0931 19.4481 17.1598 19.8894 17.3112 20.3048V20.3046ZM37.697 27.865C37.697 27.7395 37.6469 27.6192 37.5578 27.5304C37.4686 27.4417 37.3477 27.3919 37.2216 27.3919C37.0956 27.3919 36.9747 27.4417 36.8855 27.5304C36.7964 27.6192 36.7463 27.7395 36.7463 27.865V28.8111C36.7463 28.9366 36.7964 29.0569 36.8855 29.1456C36.9747 29.2343 37.0956 29.2842 37.2216 29.2842C37.3477 29.2842 37.4686 29.2343 37.5578 29.1456C37.6469 29.0569 37.697 28.9366 37.697 28.8111V27.865ZM39.5984 27.865C39.5984 27.7395 39.5484 27.6192 39.4592 27.5304C39.3701 27.4417 39.2492 27.3919 39.1231 27.3919C38.997 27.3919 38.8761 27.4417 38.7869 27.5304C38.6978 27.6192 38.6477 27.7395 38.6477 27.865V28.8111C38.6477 28.9366 38.6978 29.0569 38.7869 29.1456C38.8761 29.2343 38.997 29.2842 39.1231 29.2842C39.2492 29.2842 39.3701 29.2343 39.4592 29.1456C39.5484 29.0569 39.5984 28.9366 39.5984 28.8111V27.865ZM37.697 30.7034C37.697 30.5779 37.6469 30.4576 37.5578 30.3689C37.4686 30.2802 37.3477 30.2303 37.2216 30.2303C37.0956 30.2303 36.9747 30.2802 36.8855 30.3689C36.7964 30.4576 36.7463 30.5779 36.7463 30.7034V31.6495C36.7463 31.775 36.7964 31.8953 36.8855 31.984C36.9747 32.0728 37.0956 32.1226 37.2216 32.1226C37.3477 32.1226 37.4686 32.0728 37.5578 31.984C37.6469 31.8953 37.697 31.775 37.697 31.6495V30.7034ZM39.5984 30.7034C39.5984 30.5779 39.5484 30.4576 39.4592 30.3689C39.3701 30.2802 39.2492 30.2303 39.1231 30.2303C38.997 30.2303 38.8761 30.2802 38.7869 30.3689C38.6978 30.4576 38.6477 30.5779 38.6477 30.7034V31.6495C38.6477 31.775 38.6978 31.8953 38.7869 31.984C38.8761 32.0728 38.997 32.1226 39.1231 32.1226C39.2492 32.1226 39.3701 32.0728 39.4592 31.984C39.5484 31.8953 39.5984 31.775 39.5984 31.6495V30.7034ZM37.697 33.5418C37.697 33.4164 37.6469 33.296 37.5578 33.2073C37.4686 33.1186 37.3477 33.0687 37.2216 33.0687C37.0956 33.0687 36.9747 33.1186 36.8855 33.2073C36.7964 33.296 36.7463 33.4164 36.7463 33.5418V34.488C36.7463 34.6134 36.7964 34.7338 36.8855 34.8225C36.9747 34.9112 37.0956 34.961 37.2216 34.961C37.3477 34.961 37.4686 34.9112 37.5578 34.8225C37.6469 34.7338 37.697 34.6134 37.697 34.488V33.5418ZM39.5984 33.5418C39.5984 33.4164 39.5484 33.296 39.4592 33.2073C39.3701 33.1186 39.2492 33.0687 39.1231 33.0687C38.997 33.0687 38.8761 33.1186 38.7869 33.2073C38.6978 33.296 38.6477 33.4164 38.6477 33.5418V34.488C38.6477 34.6134 38.6978 34.7338 38.7869 34.8225C38.8761 34.9112 38.997 34.961 39.1231 34.961C39.2492 34.961 39.3701 34.9112 39.4592 34.8225C39.5484 34.7338 39.5984 34.6134 39.5984 34.488V33.5418ZM37.2216 35.9072C37.0956 35.9072 36.9747 35.957 36.8855 36.0457C36.7964 36.1345 36.7463 36.2548 36.7463 36.3802V37.3264C36.7463 37.4519 36.7964 37.5722 36.8855 37.6609C36.9747 37.7496 37.0956 37.7995 37.2216 37.7995C37.3477 37.7995 37.4686 37.7496 37.5578 37.6609C37.6469 37.5722 37.697 37.4519 37.697 37.3264V36.3802C37.697 36.2548 37.6469 36.1345 37.5578 36.0457C37.4686 35.957 37.3477 35.9072 37.2216 35.9072ZM39.1231 35.9072C38.997 35.9072 38.8761 35.957 38.7869 36.0457C38.6978 36.1345 38.6477 36.2548 38.6477 36.3802V37.3264C38.6477 37.4519 38.6978 37.5722 38.7869 37.6609C38.8761 37.7496 38.997 37.7995 39.1231 37.7995C39.2492 37.7995 39.3701 37.7496 39.4592 37.6609C39.5484 37.5722 39.5984 37.4519 39.5984 37.3264V36.3802C39.5984 36.2548 39.5484 36.1345 39.4592 36.0457C39.3701 35.957 39.2492 35.9072 39.1231 35.9072ZM22.4855 27.865C22.4855 27.7395 22.4354 27.6192 22.3463 27.5304C22.2571 27.4417 22.1362 27.3919 22.0102 27.3919C21.8841 27.3919 21.7632 27.4417 21.674 27.5304C21.5849 27.6192 21.5348 27.7395 21.5348 27.865V28.8111C21.5348 28.9366 21.5849 29.0569 21.674 29.1456C21.7632 29.2343 21.8841 29.2842 22.0102 29.2842C22.1362 29.2842 22.2571 29.2343 22.3463 29.1456C22.4354 29.0569 22.4855 28.9366 22.4855 28.8111V27.865ZM20.5841 27.865C20.5841 27.7395 20.534 27.6192 20.4449 27.5304C20.3557 27.4417 20.2348 27.3919 20.1087 27.3919C19.9826 27.3919 19.8617 27.4417 19.7726 27.5304C19.6834 27.6192 19.6334 27.7395 19.6334 27.865V28.8111C19.6334 28.9366 19.6834 29.0569 19.7726 29.1456C19.8617 29.2343 19.9826 29.2842 20.1087 29.2842C20.2348 29.2842 20.3557 29.2343 20.4449 29.1456C20.534 29.0569 20.5841 28.9366 20.5841 28.8111V27.865ZM22.4855 30.7034C22.4855 30.5779 22.4354 30.4576 22.3463 30.3689C22.2571 30.2802 22.1362 30.2303 22.0102 30.2303C21.8841 30.2303 21.7632 30.2802 21.674 30.3689C21.5849 30.4576 21.5348 30.5779 21.5348 30.7034V31.6495C21.5348 31.775 21.5849 31.8953 21.674 31.984C21.7632 32.0728 21.8841 32.1226 22.0102 32.1226C22.1362 32.1226 22.2571 32.0728 22.3463 31.984C22.4354 31.8953 22.4855 31.775 22.4855 31.6495V30.7034ZM20.5841 30.7034C20.5841 30.5779 20.534 30.4576 20.4449 30.3689C20.3557 30.2802 20.2348 30.2303 20.1087 30.2303C19.9826 30.2303 19.8617 30.2802 19.7726 30.3689C19.6834 30.4576 19.6334 30.5779 19.6334 30.7034V31.6495C19.6334 31.775 19.6834 31.8953 19.7726 31.984C19.8617 32.0728 19.9826 32.1226 20.1087 32.1226C20.2348 32.1226 20.3557 32.0728 20.4449 31.984C20.534 31.8953 20.5841 31.775 20.5841 31.6495V30.7034ZM22.4855 33.5418C22.4855 33.4164 22.4354 33.296 22.3463 33.2073C22.2571 33.1186 22.1362 33.0687 22.0102 33.0687C21.8841 33.0687 21.7632 33.1186 21.674 33.2073C21.5849 33.296 21.5348 33.4164 21.5348 33.5418V34.488C21.5348 34.6134 21.5849 34.7338 21.674 34.8225C21.7632 34.9112 21.8841 34.961 22.0102 34.961C22.1362 34.961 22.2571 34.9112 22.3463 34.8225C22.4354 34.7338 22.4855 34.6134 22.4855 34.488V33.5418ZM20.5841 33.5418C20.5841 33.4164 20.534 33.296 20.4449 33.2073C20.3557 33.1186 20.2348 33.0687 20.1087 33.0687C19.9826 33.0687 19.8617 33.1186 19.7726 33.2073C19.6834 33.296 19.6334 33.4164 19.6334 33.5418V34.488C19.6334 34.6134 19.6834 34.7338 19.7726 34.8225C19.8617 34.9112 19.9826 34.961 20.1087 34.961C20.2348 34.961 20.3557 34.9112 20.4449 34.8225C20.534 34.7338 20.5841 34.6134 20.5841 34.488V33.5418ZM22.0102 35.9072C21.8841 35.9072 21.7632 35.957 21.674 36.0457C21.5849 36.1345 21.5348 36.2548 21.5348 36.3802V37.3264C21.5348 37.4519 21.5849 37.5722 21.674 37.6609C21.7632 37.7496 21.8841 37.7995 22.0102 37.7995C22.1362 37.7995 22.2571 37.7496 22.3463 37.6609C22.4354 37.5722 22.4855 37.4519 22.4855 37.3264V36.3802C22.4855 36.2548 22.4354 36.1345 22.3463 36.0457C22.2571 35.957 22.1362 35.9072 22.0102 35.9072ZM20.1087 35.9072C19.9826 35.9072 19.8617 35.957 19.7726 36.0457C19.6834 36.1345 19.6334 36.2548 19.6334 36.3802V37.3264C19.6334 37.4519 19.6834 37.5722 19.7726 37.6609C19.8617 37.7496 19.9826 37.7995 20.1087 37.7995C20.2348 37.7995 20.3557 37.7496 20.4449 37.6609C20.534 37.5722 20.5841 37.4519 20.5841 37.3264V36.3802C20.5841 36.2548 20.534 36.1345 20.4449 36.0457C20.3557 35.957 20.2348 35.9072 20.1087 35.9072Z" fill="white"/>
<path d="M44.9984 38.806C44.9984 38.2248 44.702 37.2487 44.1175 35.9047C44.0545 35.7447 43.9452 35.6074 43.804 35.5106C43.6627 35.4139 43.4958 35.3622 43.3251 35.3622C43.1543 35.3621 42.9875 35.4138 42.8462 35.5105C42.7048 35.6072 42.5956 35.7444 42.5325 35.9045C41.948 37.2487 41.6516 38.2248 41.6516 38.806C41.6516 39.8853 42.1488 40.7712 42.8469 41.0528V42.835H41.8906V41.5892C41.5989 41.3492 41.3554 41.0551 41.1734 40.7228V42.835H39.9781V40.4243C39.9779 40.1687 39.877 39.9235 39.6978 39.7427C39.5185 39.562 39.2754 39.4603 39.0219 39.46H37.5875C37.334 39.4603 37.0909 39.562 36.9116 39.7427C36.7323 39.9235 36.6315 40.1687 36.6312 40.4243V42.835H35.4359V17.7636C35.4359 17.5079 35.3352 17.2626 35.1559 17.0817C34.9765 16.9009 34.7333 16.7993 34.4797 16.7993H24.9172C24.6636 16.7993 24.4203 16.9009 24.241 17.0817C24.0617 17.2626 23.9609 17.5079 23.9609 17.7636V42.835H22.7656V40.4243C22.7654 40.1687 22.6645 39.9235 22.4853 39.7427C22.306 39.562 22.0629 39.4603 21.8094 39.46H20.375C20.1215 39.4603 19.8784 39.562 19.6991 39.7427C19.5198 39.9235 19.419 40.1687 19.4187 40.4243V42.835H18.2234V40.7228C18.0414 41.0551 17.798 41.3492 17.5062 41.5892V42.835H16.55V41.0525C17.2481 40.7712 17.7453 39.8853 17.7453 38.806C17.7453 38.2248 17.4489 37.2487 16.8644 35.9047C16.8 35.7456 16.6904 35.6092 16.5494 35.5126C16.4084 35.416 16.2423 35.3636 16.0719 35.3618C15.9015 35.3635 15.7354 35.416 15.5944 35.5125C15.4534 35.609 15.3438 35.7454 15.2794 35.9045C14.6949 37.2487 14.3984 38.2248 14.3984 38.806C14.3984 39.8853 14.8957 40.7712 15.5937 41.0528V42.835H14.8766C14.7498 42.835 14.6281 42.8858 14.5385 42.9762C14.4488 43.0667 14.3984 43.1893 14.3984 43.3172C14.3984 43.445 14.4488 43.5677 14.5385 43.6581C14.6281 43.7485 14.7498 43.7993 14.8766 43.7993H44.5203C44.6471 43.7993 44.7687 43.7485 44.8584 43.6581C44.9481 43.5677 44.9984 43.445 44.9984 43.3172C44.9984 43.1893 44.9481 43.0667 44.8584 42.9762C44.7687 42.8858 44.6471 42.835 44.5203 42.835H43.8031V41.0525C44.5012 40.7712 44.9984 39.8853 44.9984 38.806ZM21.8094 42.835H20.375V40.4243H21.8094V42.835ZM30.1766 19.21C30.1766 19.0822 30.2269 18.9595 30.3166 18.8691C30.4063 18.7787 30.5279 18.7279 30.6547 18.7279C30.7815 18.7279 30.9031 18.7787 30.9928 18.8691C31.0824 18.9595 31.1328 19.0822 31.1328 19.21V20.1743C31.1328 20.3022 31.0824 20.4248 30.9928 20.5152C30.9031 20.6057 30.7815 20.6565 30.6547 20.6565C30.5279 20.6565 30.4063 20.6057 30.3166 20.5152C30.2269 20.4248 30.1766 20.3022 30.1766 20.1743V19.21ZM30.1766 22.1029C30.1766 21.975 30.2269 21.8524 30.3166 21.762C30.4063 21.6715 30.5279 21.6207 30.6547 21.6207C30.7815 21.6207 30.9031 21.6715 30.9928 21.762C31.0824 21.8524 31.1328 21.975 31.1328 22.1029V23.0672C31.1328 23.195 31.0824 23.3177 30.9928 23.4081C30.9031 23.4985 30.7815 23.5493 30.6547 23.5493C30.5279 23.5493 30.4063 23.4985 30.3166 23.4081C30.2269 23.3177 30.1766 23.195 30.1766 23.0672V22.1029ZM30.1766 24.9957C30.1766 24.8679 30.2269 24.7452 30.3166 24.6548C30.4063 24.5644 30.5279 24.5136 30.6547 24.5136C30.7815 24.5136 30.9031 24.5644 30.9928 24.6548C31.0824 24.7452 31.1328 24.8679 31.1328 24.9957V25.96C31.1328 26.0879 31.0824 26.2105 30.9928 26.301C30.9031 26.3914 30.7815 26.4422 30.6547 26.4422C30.5279 26.4422 30.4063 26.3914 30.3166 26.301C30.2269 26.2105 30.1766 26.0879 30.1766 25.96V24.9957ZM30.1766 27.8886C30.1766 27.7607 30.2269 27.6381 30.3166 27.5477C30.4063 27.4573 30.5279 27.4065 30.6547 27.4065C30.7815 27.4065 30.9031 27.4573 30.9928 27.5477C31.0824 27.6381 31.1328 27.7607 31.1328 27.8886V28.8529C31.1328 28.9808 31.0824 29.1034 30.9928 29.1938C30.9031 29.2842 30.7815 29.335 30.6547 29.335C30.5279 29.335 30.4063 29.2842 30.3166 29.1938C30.2269 29.1034 30.1766 28.9808 30.1766 28.8529V27.8886ZM30.1766 30.7815C30.1766 30.6536 30.2269 30.531 30.3166 30.4405C30.4063 30.3501 30.5279 30.2993 30.6547 30.2993C30.7815 30.2993 30.9031 30.3501 30.9928 30.4405C31.0824 30.531 31.1328 30.6536 31.1328 30.7815V31.7457C31.1328 31.8736 31.0824 31.9963 30.9928 32.0867C30.9031 32.1771 30.7815 32.2279 30.6547 32.2279C30.5279 32.2279 30.4063 32.1771 30.3166 32.0867C30.2269 31.9963 30.1766 31.8736 30.1766 31.7457V30.7815ZM30.1766 33.6743C30.1766 33.5464 30.2269 33.4238 30.3166 33.3334C30.4063 33.243 30.5279 33.1922 30.6547 33.1922C30.7815 33.1922 30.9031 33.243 30.9928 33.3334C31.0824 33.4238 31.1328 33.5464 31.1328 33.6743V34.6386C31.1328 34.7665 31.0824 34.8891 30.9928 34.9795C30.9031 35.0699 30.7815 35.1207 30.6547 35.1207C30.5279 35.1207 30.4063 35.0699 30.3166 34.9795C30.2269 34.8891 30.1766 34.7665 30.1766 34.6386V33.6743ZM28.2641 19.21C28.2641 19.0822 28.3144 18.9595 28.4041 18.8691C28.4938 18.7787 28.6154 18.7279 28.7422 18.7279C28.869 18.7279 28.9906 18.7787 29.0803 18.8691C29.1699 18.9595 29.2203 19.0822 29.2203 19.21V20.1743C29.2203 20.3022 29.1699 20.4248 29.0803 20.5152C28.9906 20.6057 28.869 20.6565 28.7422 20.6565C28.6154 20.6565 28.4938 20.6057 28.4041 20.5152C28.3144 20.4248 28.2641 20.3022 28.2641 20.1743V19.21ZM28.2641 22.1029C28.2641 21.975 28.3144 21.8524 28.4041 21.762C28.4938 21.6715 28.6154 21.6207 28.7422 21.6207C28.869 21.6207 28.9906 21.6715 29.0803 21.762C29.1699 21.8524 29.2203 21.975 29.2203 22.1029V23.0672C29.2203 23.195 29.1699 23.3177 29.0803 23.4081C28.9906 23.4985 28.869 23.5493 28.7422 23.5493C28.6154 23.5493 28.4938 23.4985 28.4041 23.4081C28.3144 23.3177 28.2641 23.195 28.2641 23.0672V22.1029ZM28.2641 24.9957C28.2641 24.8679 28.3144 24.7452 28.4041 24.6548C28.4938 24.5644 28.6154 24.5136 28.7422 24.5136C28.869 24.5136 28.9906 24.5644 29.0803 24.6548C29.1699 24.7452 29.2203 24.8679 29.2203 24.9957V25.96C29.2203 26.0879 29.1699 26.2105 29.0803 26.301C28.9906 26.3914 28.869 26.4422 28.7422 26.4422C28.6154 26.4422 28.4938 26.3914 28.4041 26.301C28.3144 26.2105 28.2641 26.0879 28.2641 25.96V24.9957ZM28.2641 27.8886C28.2641 27.7607 28.3144 27.6381 28.4041 27.5477C28.4938 27.4573 28.6154 27.4065 28.7422 27.4065C28.869 27.4065 28.9906 27.4573 29.0803 27.5477C29.1699 27.6381 29.2203 27.7607 29.2203 27.8886V28.8529C29.2203 28.9808 29.1699 29.1034 29.0803 29.1938C28.9906 29.2842 28.869 29.335 28.7422 29.335C28.6154 29.335 28.4938 29.2842 28.4041 29.1938C28.3144 29.1034 28.2641 28.9808 28.2641 28.8529V27.8886ZM28.2641 30.7815C28.2641 30.6536 28.3144 30.531 28.4041 30.4405C28.4938 30.3501 28.6154 30.2993 28.7422 30.2993C28.869 30.2993 28.9906 30.3501 29.0803 30.4405C29.1699 30.531 29.2203 30.6536 29.2203 30.7815V31.7457C29.2203 31.8736 29.1699 31.9963 29.0803 32.0867C28.9906 32.1771 28.869 32.2279 28.7422 32.2279C28.6154 32.2279 28.4938 32.1771 28.4041 32.0867C28.3144 31.9963 28.2641 31.8736 28.2641 31.7457V30.7815ZM28.2641 33.6743C28.2641 33.5464 28.3144 33.4238 28.4041 33.3334C28.4938 33.243 28.6154 33.1922 28.7422 33.1922C28.869 33.1922 28.9906 33.243 29.0803 33.3334C29.1699 33.4238 29.2203 33.5464 29.2203 33.6743V34.6386C29.2203 34.7665 29.1699 34.8891 29.0803 34.9795C28.9906 35.0699 28.869 35.1207 28.7422 35.1207C28.6154 35.1207 28.4938 35.0699 28.4041 34.9795C28.3144 34.8891 28.2641 34.7665 28.2641 34.6386V33.6743ZM26.3516 19.21C26.3516 19.0822 26.4019 18.9595 26.4916 18.8691C26.5813 18.7787 26.7029 18.7279 26.8297 18.7279C26.9565 18.7279 27.0781 18.7787 27.1678 18.8691C27.2574 18.9595 27.3078 19.0822 27.3078 19.21V20.1743C27.3078 20.3022 27.2574 20.4248 27.1678 20.5152C27.0781 20.6057 26.9565 20.6565 26.8297 20.6565C26.7029 20.6565 26.5813 20.6057 26.4916 20.5152C26.4019 20.4248 26.3516 20.3022 26.3516 20.1743V19.21ZM26.3516 22.1029C26.3516 21.975 26.4019 21.8524 26.4916 21.762C26.5813 21.6715 26.7029 21.6207 26.8297 21.6207C26.9565 21.6207 27.0781 21.6715 27.1678 21.762C27.2574 21.8524 27.3078 21.975 27.3078 22.1029V23.0672C27.3078 23.195 27.2574 23.3177 27.1678 23.4081C27.0781 23.4985 26.9565 23.5493 26.8297 23.5493C26.7029 23.5493 26.5813 23.4985 26.4916 23.4081C26.4019 23.3177 26.3516 23.195 26.3516 23.0672V22.1029ZM26.3516 24.9957C26.3516 24.8679 26.4019 24.7452 26.4916 24.6548C26.5813 24.5644 26.7029 24.5136 26.8297 24.5136C26.9565 24.5136 27.0781 24.5644 27.1678 24.6548C27.2574 24.7452 27.3078 24.8679 27.3078 24.9957V25.96C27.3078 26.0879 27.2574 26.2105 27.1678 26.301C27.0781 26.3914 26.9565 26.4422 26.8297 26.4422C26.7029 26.4422 26.5813 26.3914 26.4916 26.301C26.4019 26.2105 26.3516 26.0879 26.3516 25.96V24.9957ZM26.3516 27.8886C26.3516 27.7607 26.4019 27.6381 26.4916 27.5477C26.5813 27.4573 26.7029 27.4065 26.8297 27.4065C26.9565 27.4065 27.0781 27.4573 27.1678 27.5477C27.2574 27.6381 27.3078 27.7607 27.3078 27.8886V28.8529C27.3078 28.9808 27.2574 29.1034 27.1678 29.1938C27.0781 29.2842 26.9565 29.335 26.8297 29.335C26.7029 29.335 26.5813 29.2842 26.4916 29.1938C26.4019 29.1034 26.3516 28.9808 26.3516 28.8529V27.8886ZM26.3516 30.7815C26.3516 30.6536 26.4019 30.531 26.4916 30.4405C26.5813 30.3501 26.7029 30.2993 26.8297 30.2993C26.9565 30.2993 27.0781 30.3501 27.1678 30.4405C27.2574 30.531 27.3078 30.6536 27.3078 30.7815V31.7457C27.3078 31.8736 27.2574 31.9963 27.1678 32.0867C27.0781 32.1771 26.9565 32.2279 26.8297 32.2279C26.7029 32.2279 26.5813 32.1771 26.4916 32.0867C26.4019 31.9963 26.3516 31.8736 26.3516 31.7457V30.7815ZM26.8297 35.1207C26.7029 35.1207 26.5813 35.0699 26.4916 34.9795C26.4019 34.8891 26.3516 34.7665 26.3516 34.6386V33.6743C26.3516 33.5464 26.4019 33.4238 26.4916 33.3334C26.5813 33.243 26.7029 33.1922 26.8297 33.1922C26.9565 33.1922 27.0781 33.243 27.1678 33.3334C27.2574 33.4238 27.3078 33.5464 27.3078 33.6743V34.6386C27.3078 34.7665 27.2574 34.8891 27.1678 34.9795C27.0781 35.0699 26.9565 35.1207 26.8297 35.1207ZM32.0891 42.835H27.3078V37.5315C27.3078 37.4036 27.3582 37.281 27.4479 37.1905C27.5375 37.1001 27.6591 37.0493 27.7859 37.0493H31.6109C31.7377 37.0493 31.8594 37.1001 31.949 37.1905C32.0387 37.281 32.0891 37.4036 32.0891 37.5315V42.835ZM33.0453 34.6386C33.0453 34.7665 32.9949 34.8891 32.9053 34.9795C32.8156 35.0699 32.694 35.1207 32.5672 35.1207C32.4404 35.1207 32.3188 35.0699 32.2291 34.9795C32.1394 34.8891 32.0891 34.7665 32.0891 34.6386V33.6743C32.0891 33.5464 32.1394 33.4238 32.2291 33.3334C32.3188 33.243 32.4404 33.1922 32.5672 33.1922C32.694 33.1922 32.8156 33.243 32.9053 33.3334C32.9949 33.4238 33.0453 33.5464 33.0453 33.6743V34.6386ZM33.0453 31.7457C33.0453 31.8736 32.9949 31.9963 32.9053 32.0867C32.8156 32.1771 32.694 32.2279 32.5672 32.2279C32.4404 32.2279 32.3188 32.1771 32.2291 32.0867C32.1394 31.9963 32.0891 31.8736 32.0891 31.7457V30.7815C32.0891 30.6536 32.1394 30.531 32.2291 30.4405C32.3188 30.3501 32.4404 30.2993 32.5672 30.2993C32.694 30.2993 32.8156 30.3501 32.9053 30.4405C32.9949 30.531 33.0453 30.6536 33.0453 30.7815V31.7457ZM33.0453 28.8529C33.0453 28.9808 32.9949 29.1034 32.9053 29.1938C32.8156 29.2842 32.694 29.335 32.5672 29.335C32.4404 29.335 32.3188 29.2842 32.2291 29.1938C32.1394 29.1034 32.0891 28.9808 32.0891 28.8529V27.8886C32.0891 27.7607 32.1394 27.6381 32.2291 27.5477C32.3188 27.4573 32.4404 27.4065 32.5672 27.4065C32.694 27.4065 32.8156 27.4573 32.9053 27.5477C32.9949 27.6381 33.0453 27.7607 33.0453 27.8886V28.8529ZM33.0453 25.96C33.0453 26.0879 32.9949 26.2105 32.9053 26.301C32.8156 26.3914 32.694 26.4422 32.5672 26.4422C32.4404 26.4422 32.3188 26.3914 32.2291 26.301C32.1394 26.2105 32.0891 26.0879 32.0891 25.96V24.9957C32.0891 24.8679 32.1394 24.7452 32.2291 24.6548C32.3188 24.5644 32.4404 24.5136 32.5672 24.5136C32.694 24.5136 32.8156 24.5644 32.9053 24.6548C32.9949 24.7452 33.0453 24.8679 33.0453 24.9957V25.96ZM33.0453 23.0672C33.0453 23.195 32.9949 23.3177 32.9053 23.4081C32.8156 23.4985 32.694 23.5493 32.5672 23.5493C32.4404 23.5493 32.3188 23.4985 32.2291 23.4081C32.1394 23.3177 32.0891 23.195 32.0891 23.0672V22.1029C32.0891 21.975 32.1394 21.8524 32.2291 21.762C32.3188 21.6715 32.4404 21.6207 32.5672 21.6207C32.694 21.6207 32.8156 21.6715 32.9053 21.762C32.9949 21.8524 33.0453 21.975 33.0453 22.1029V23.0672ZM33.0453 20.1743C33.0453 20.3022 32.9949 20.4248 32.9053 20.5152C32.8156 20.6057 32.694 20.6565 32.5672 20.6565C32.4404 20.6565 32.3188 20.6057 32.2291 20.5152C32.1394 20.4248 32.0891 20.3022 32.0891 20.1743V19.21C32.0891 19.0822 32.1394 18.9595 32.2291 18.8691C32.3188 18.7787 32.4404 18.7279 32.5672 18.7279C32.694 18.7279 32.8156 18.7787 32.9053 18.8691C32.9949 18.9595 33.0453 19.0822 33.0453 19.21V20.1743ZM39.0219 42.835H37.5875V40.4243H39.0219V42.835Z" fill="white"/>
<path d="M41.5303 35.4229C41.638 35.1774 41.7977 34.9581 41.9984 34.7801V25.3749C41.9984 24.7852 41.5845 24.3992 40.9172 24.307L36.3215 23.3996V24.3617L40.9172 25.2511C40.9516 25.2497 40.9851 25.2621 41.0105 25.2853C41.0358 25.3086 41.0508 25.3409 41.0523 25.3752V36.5989C41.1995 36.2021 41.3589 35.8098 41.5303 35.4227V35.4229ZM23.0754 23.3994L18.4797 24.307C17.8668 24.3843 17.3984 24.7852 17.3984 25.3749V34.7801C17.5992 34.9581 17.7589 35.1774 17.8665 35.4229C18.038 35.8101 18.1974 36.2024 18.3446 36.5994V25.3747C18.3461 25.3404 18.3611 25.3081 18.3864 25.2848C18.4117 25.2616 18.4453 25.2493 18.4797 25.2506L23.0754 24.3612V23.3994Z" fill="white"/>
</g>
</svg>
