<svg width="70" height="70" viewBox="0 0 70 70" fill="none" xmlns="http://www.w3.org/2000/svg">
<path d="M70 35C70 54.33 54.33 70 35 70C15.67 70 0 54.33 0 35C0 15.67 15.67 0 35 0C54.33 0 70 15.67 70 35Z" fill="#B89494"/>
<mask id="mask0_5434_24162" style="mask-type:alpha" maskUnits="userSpaceOnUse" x="13" y="13" width="44" height="44">
<rect x="13.125" y="13.125" width="43.75" height="43.75" fill="#D9D9D9"/>
</mask>
<g mask="url(#mask0_5434_24162)">
<path d="M13.125 45.9375V43.5221C13.125 42.3372 13.763 41.3802 15.0391 40.651C16.3151 39.9219 17.9557 39.5573 19.9609 39.5573C20.3559 39.5573 20.7205 39.5649 21.0547 39.5801C21.3889 39.5953 21.7231 39.6332 22.0573 39.694C21.8142 40.2105 21.6319 40.7346 21.5104 41.2663C21.3889 41.798 21.3281 42.3676 21.3281 42.9753V45.9375H13.125ZM24.0625 45.9375V42.9753C24.0625 41.0004 25.0727 39.4054 27.0931 38.1901C29.1135 36.9748 31.7491 36.3672 35 36.3672C38.2812 36.3672 40.9245 36.9748 42.9297 38.1901C44.9349 39.4054 45.9375 41.0004 45.9375 42.9753V45.9375H24.0625ZM48.6719 45.9375V42.9753C48.6719 42.3676 48.6187 41.798 48.5124 41.2663C48.406 40.7346 48.2313 40.2105 47.9883 39.694C48.3225 39.6332 48.6567 39.5953 48.9909 39.5801C49.3251 39.5649 49.6745 39.5573 50.0391 39.5573C52.105 39.5573 53.7608 39.9219 55.0065 40.651C56.2522 41.3802 56.875 42.3372 56.875 43.5221V45.9375H48.6719ZM35 39.1016C32.5694 39.1016 30.5946 39.4661 29.0755 40.1953C27.5564 40.9245 26.7969 41.8511 26.7969 42.9753V43.2031H43.2031V42.9297C43.2031 41.8359 42.4512 40.9245 40.9473 40.1953C39.4434 39.4661 37.4609 39.1016 35 39.1016ZM19.9609 38.1901C19.0799 38.1901 18.3279 37.8787 17.7051 37.2559C17.0822 36.633 16.7708 35.8811 16.7708 35C16.7708 34.1189 17.0822 33.367 17.7051 32.7441C18.3279 32.1213 19.0799 31.8099 19.9609 31.8099C20.842 31.8099 21.594 32.1213 22.2168 32.7441C22.8396 33.367 23.151 34.1189 23.151 35C23.151 35.8811 22.8396 36.633 22.2168 37.2559C21.594 37.8787 20.842 38.1901 19.9609 38.1901ZM50.0391 38.1901C49.158 38.1901 48.406 37.8787 47.7832 37.2559C47.1604 36.633 46.849 35.8811 46.849 35C46.849 34.1189 47.1604 33.367 47.7832 32.7441C48.406 32.1213 49.158 31.8099 50.0391 31.8099C50.9201 31.8099 51.6721 32.1213 52.2949 32.7441C52.9178 33.367 53.2292 34.1189 53.2292 35C53.2292 35.8811 52.9178 36.633 52.2949 37.2559C51.6721 37.8787 50.9201 38.1901 50.0391 38.1901ZM35 35C33.4809 35 32.1897 34.4683 31.1263 33.4049C30.0629 32.3416 29.5312 31.0503 29.5312 29.5312C29.5312 27.9818 30.0629 26.6829 31.1263 25.6348C32.1897 24.5866 33.4809 24.0625 35 24.0625C36.5495 24.0625 37.8483 24.5866 38.8965 25.6348C39.9447 26.6829 40.4688 27.9818 40.4688 29.5312C40.4688 31.0503 39.9447 32.3416 38.8965 33.4049C37.8483 34.4683 36.5495 35 35 35ZM35 26.7969C34.2405 26.7969 33.5948 27.0551 33.0632 27.5716C32.5315 28.0881 32.2656 28.7413 32.2656 29.5312C32.2656 30.2908 32.5315 30.9364 33.0632 31.4681C33.5948 31.9998 34.2405 32.2656 35 32.2656C35.7899 32.2656 36.4431 31.9998 36.9596 31.4681C37.4761 30.9364 37.7344 30.2908 37.7344 29.5312C37.7344 28.7413 37.4761 28.0881 36.9596 27.5716C36.4431 27.0551 35.7899 26.7969 35 26.7969Z" fill="#F0E2E2"/>
</g>
</svg>
