<svg width="35" height="35" viewBox="0 0 35 35" fill="none" xmlns="http://www.w3.org/2000/svg">
<path d="M35 17.5C35 27.165 27.165 35 17.5 35C7.83502 35 0 27.165 0 17.5C0 7.83502 7.83502 0 17.5 0C27.165 0 35 7.83502 35 17.5Z" fill="#EF5350"/>
<g clip-path="url(#clip0_2243_32791)">
<path d="M27.0325 22.4582H10.243V8.35645C10.243 7.85435 9.83586 7.44727 9.33375 7.44727C8.83171 7.44727 8.42463 7.85435 8.42463 8.35645V22.4582H5.57569C5.07364 22.4582 4.6665 22.8652 4.6665 23.3673C4.6665 23.8694 5.07364 24.2765 5.57569 24.2765H8.42463V26.6413C8.42463 27.1435 8.83171 27.5505 9.33375 27.5505C9.83586 27.5505 10.243 27.1435 10.243 26.6413V24.2765H27.0325C27.5345 24.2765 27.9417 23.8694 27.9417 23.3673C27.9417 22.8652 27.5345 22.4582 27.0325 22.4582Z" fill="white"/>
<path d="M12.4054 20.6467H14.9075C15.0682 20.6467 15.1985 20.5164 15.1985 20.3557V14.5605C15.1985 14.3998 15.0682 14.2695 14.9075 14.2695H12.4054C12.2447 14.2695 12.1145 14.3998 12.1145 14.5605V20.3557C12.1145 20.5164 12.2447 20.6467 12.4054 20.6467Z" fill="white"/>
<path d="M16.4786 20.6481H18.9806C19.1414 20.6481 19.2716 20.5179 19.2716 20.3572V17.8053C19.0255 17.6412 18.7939 17.4517 18.58 17.2379C17.7313 16.3891 17.2639 15.2607 17.2639 14.0604C17.2639 13.2639 17.4709 12.4996 17.8573 11.8271H16.4786C16.3178 11.8271 16.1876 11.9574 16.1876 12.1181V20.3573C16.1876 20.5179 16.3178 20.6481 16.4786 20.6481Z" fill="white"/>
<path d="M20.261 18.3001V20.3578C20.261 20.5185 20.3912 20.6488 20.5519 20.6488H23.054C23.2147 20.6488 23.3449 20.5185 23.3449 20.3578V18.2666C22.8425 18.4565 22.3069 18.5547 21.7579 18.5547C21.2399 18.5547 20.7355 18.4672 20.261 18.3001Z" fill="white"/>
<path d="M21.7578 17.7089C22.5182 17.7089 23.2426 17.477 23.8518 17.0482L26.9194 20.1158C27.043 20.2394 27.205 20.3011 27.3669 20.3011C27.5289 20.3011 27.6909 20.2393 27.8145 20.1158C28.0616 19.8686 28.0616 19.4678 27.8145 19.2207L24.7469 16.1531C25.1756 15.5438 25.4075 14.8195 25.4075 14.059C25.4075 13.0841 25.0279 12.1676 24.3385 11.4782C23.6491 10.7888 22.7326 10.4092 21.7577 10.4092C20.7827 10.4092 19.8662 10.7889 19.1768 11.4782C18.4875 12.1676 18.1079 13.0842 18.1079 14.0591C18.1079 15.034 18.4875 15.9505 19.1769 16.6398C19.8663 17.3293 20.7829 17.7089 21.7578 17.7089ZM19.9228 12.2242C20.413 11.7341 21.0646 11.4641 21.7578 11.4641C22.4509 11.4641 23.1026 11.7341 23.5926 12.2242C24.0829 12.7143 24.3527 13.366 24.3527 14.0591C24.3527 14.7523 24.0829 15.4039 23.5926 15.894C23.1026 16.3842 22.4509 16.6541 21.7578 16.6541C21.0646 16.6541 20.413 16.3842 19.9228 15.894C19.4327 15.4039 19.1628 14.7522 19.1628 14.0591C19.1628 13.3659 19.4327 12.7143 19.9228 12.2242Z" fill="white"/>
<path d="M21.5041 15.2603V15.7551C21.5041 15.8075 21.5465 15.8499 21.5989 15.8499H21.9413C21.9936 15.8499 22.036 15.8075 22.036 15.7551V15.2761C22.5692 15.2103 22.8997 14.8996 22.8997 14.4627C22.8997 13.8841 22.3997 13.741 21.998 13.6259C21.6869 13.5369 21.498 13.471 21.498 13.3072C21.498 13.1945 21.5986 13.1298 21.7739 13.1298C21.9693 13.1298 22.2786 13.2241 22.5435 13.3646C22.5663 13.3767 22.5929 13.3791 22.6174 13.3709C22.6419 13.3629 22.662 13.3452 22.6732 13.322L22.8597 12.935C22.8812 12.8904 22.8647 12.8369 22.8219 12.812C22.5998 12.6829 22.3212 12.5944 22.0361 12.5619V12.1133C22.0361 12.061 21.9937 12.0186 21.9413 12.0186H21.5989C21.5466 12.0186 21.5041 12.061 21.5041 12.1133V12.5819C21.0368 12.6753 20.7582 12.9683 20.7582 13.3678C20.7582 13.9303 21.2521 14.0656 21.649 14.1743C21.9668 14.2614 22.1598 14.3266 22.1598 14.4969C22.1598 14.6843 21.9537 14.7122 21.8309 14.7122C21.5747 14.7122 21.2148 14.5748 20.956 14.3781C20.9335 14.361 20.9047 14.3549 20.8773 14.3612C20.8499 14.3675 20.8267 14.3858 20.814 14.4109L20.6257 14.7847C20.6052 14.8255 20.6167 14.8751 20.653 14.9028C20.8895 15.0827 21.1914 15.2094 21.5041 15.2603Z" fill="white"/>
</g>
<defs>
<clipPath id="clip0_2243_32791">
<rect width="23.3333" height="23.3333" fill="white" transform="translate(4.66663 5.83301)"/>
</clipPath>
</defs>
</svg>
