<svg width="20" height="20" viewBox="0 0 20 20" fill="none" xmlns="http://www.w3.org/2000/svg">
<path d="M19.2563 9.78001C19.2563 15.0293 15.0009 19.2846 9.75169 19.2846C4.50243 19.2846 0.24707 15.0293 0.24707 9.78001C0.24707 4.53075 4.50243 0.275391 9.75169 0.275391C15.0009 0.275391 19.2563 4.53075 19.2563 9.78001Z" fill="#6A6A6A" fill-opacity="0.9"/>
<g clip-path="url(#clip0_3192_13471)">
<path d="M14.9296 12.4711H5.81094V4.81216C5.81094 4.53945 5.58981 4.31836 5.31711 4.31836C5.04444 4.31836 4.82334 4.53945 4.82334 4.81216V12.4711H3.27602C3.00335 12.4711 2.78223 12.6922 2.78223 12.9649C2.78223 13.2376 3.00335 13.4587 3.27602 13.4587H4.82334V14.743C4.82334 15.0158 5.04444 15.2368 5.31711 15.2368C5.58981 15.2368 5.81094 15.0158 5.81094 14.743V13.4587H14.9296C15.2023 13.4587 15.4234 13.2376 15.4234 12.9649C15.4234 12.6922 15.2023 12.4711 14.9296 12.4711Z" fill="#FCFCFC"/>
<path d="M6.98516 11.487H8.34409C8.43138 11.487 8.50211 11.4162 8.50211 11.329V8.18145C8.50211 8.0942 8.43138 8.02344 8.34409 8.02344H6.98516C6.89788 8.02344 6.82715 8.0942 6.82715 8.18145V11.329C6.82715 11.4162 6.89788 11.487 6.98516 11.487Z" fill="#FCFCFC"/>
<path d="M9.19805 11.4881H10.557C10.6443 11.4881 10.715 11.4174 10.715 11.3301V9.9441C10.5814 9.85501 10.4556 9.75208 10.3394 9.63594C9.87844 9.17498 9.6246 8.5621 9.6246 7.91019C9.6246 7.47758 9.73701 7.0625 9.94689 6.69727H9.19805C9.11077 6.69727 9.04004 6.76802 9.04004 6.85528V11.3301C9.04004 11.4174 9.11077 11.4881 9.19805 11.4881Z" fill="#FCFCFC"/>
<path d="M11.252 10.2115V11.3291C11.252 11.4164 11.3227 11.4872 11.41 11.4872H12.7689C12.8562 11.4872 12.9269 11.4164 12.9269 11.3291V10.1934C12.654 10.2965 12.3631 10.3499 12.065 10.3499C11.7836 10.3498 11.5097 10.3023 11.252 10.2115Z" fill="#FCFCFC"/>
<path d="M12.0644 9.89237C12.4774 9.89237 12.8708 9.7664 13.2017 9.53355L14.8677 11.1996C14.9349 11.2667 15.0229 11.3003 15.1108 11.3003C15.1988 11.3003 15.2867 11.2667 15.3539 11.1996C15.4881 11.0653 15.4881 10.8477 15.3539 10.7134L13.6878 9.0474C13.9207 8.71645 14.0466 8.32306 14.0466 7.91004C14.0466 7.38056 13.8404 6.88275 13.466 6.50835C13.0916 6.13391 12.5938 5.92773 12.0643 5.92773C11.5348 5.92773 11.037 6.13394 10.6626 6.50835C10.2882 6.88278 10.082 7.38059 10.082 7.91007C10.082 8.43954 10.2882 8.93736 10.6626 9.31173C11.0371 9.68619 11.5349 9.89237 12.0644 9.89237ZM11.0677 6.9135C11.334 6.6473 11.6879 6.5007 12.0644 6.5007C12.4408 6.5007 12.7947 6.6473 13.0609 6.9135C13.3272 7.17972 13.4737 7.53364 13.4737 7.9101C13.4737 8.28655 13.3272 8.64048 13.0609 8.90667C12.7947 9.17289 12.4408 9.3195 12.0644 9.3195C11.6879 9.3195 11.334 9.17289 11.0677 8.90667C10.8016 8.64048 10.655 8.28652 10.655 7.9101C10.655 7.53361 10.8016 7.17972 11.0677 6.9135Z" fill="#FCFCFC"/>
<path d="M11.9269 8.56145V8.8302C11.9269 8.85861 11.95 8.88165 11.9784 8.88165H12.1643C12.1928 8.88165 12.2158 8.85861 12.2158 8.8302V8.57005C12.5054 8.5343 12.6849 8.36554 12.6849 8.12827C12.6849 7.81401 12.4133 7.73626 12.1951 7.67378C12.0262 7.6254 11.9236 7.58962 11.9236 7.50066C11.9236 7.43945 11.9782 7.40434 12.0734 7.40434C12.1795 7.40434 12.3476 7.45556 12.4914 7.53185C12.5038 7.53843 12.5182 7.53972 12.5316 7.53527C12.5448 7.53091 12.5558 7.52133 12.5619 7.50872L12.6632 7.29853C12.6748 7.27432 12.6659 7.24521 12.6426 7.23172C12.522 7.16162 12.3707 7.11352 12.2158 7.09589V6.85223C12.2158 6.82382 12.1928 6.80078 12.1644 6.80078H11.9784C11.95 6.80078 11.9269 6.82382 11.9269 6.85223V7.10676C11.6731 7.15745 11.5218 7.31661 11.5218 7.53359C11.5218 7.8391 11.79 7.91258 12.0056 7.97161C12.1782 8.01892 12.283 8.05432 12.283 8.14682C12.283 8.24858 12.1711 8.26375 12.1044 8.26375C11.9652 8.26375 11.7698 8.18913 11.6292 8.08229C11.617 8.07303 11.6013 8.06968 11.5865 8.07312C11.5716 8.07656 11.559 8.08646 11.5521 8.10011L11.4498 8.30316C11.4387 8.32531 11.4449 8.35224 11.4647 8.36725C11.5931 8.46497 11.757 8.5338 11.9269 8.56145Z" fill="#FCFCFC"/>
</g>
<defs>
<clipPath id="clip0_3192_13471">
<rect width="12.6728" height="12.6728" fill="white" transform="translate(2.78223 3.44336)"/>
</clipPath>
</defs>
</svg>
