<svg width="20" height="20" viewBox="0 0 20 20" fill="none" xmlns="http://www.w3.org/2000/svg">
<path d="M19.9067 9.78001C19.9067 15.0293 15.6513 19.2846 10.4021 19.2846C5.15282 19.2846 0.897461 15.0293 0.897461 9.78001C0.897461 4.53075 5.15282 0.275391 10.4021 0.275391C15.6513 0.275391 19.9067 4.53075 19.9067 9.78001Z" fill="#EF5350"/>
<g clip-path="url(#clip0_3192_10018)">
<path d="M15.58 12.4711H6.46133V4.81216C6.46133 4.53945 6.2402 4.31836 5.9675 4.31836C5.69483 4.31836 5.47373 4.53945 5.47373 4.81216V12.4711H3.92641C3.65374 12.4711 3.43262 12.6922 3.43262 12.9649C3.43262 13.2376 3.65374 13.4587 3.92641 13.4587H5.47373V14.743C5.47373 15.0158 5.69483 15.2368 5.9675 15.2368C6.2402 15.2368 6.46133 15.0158 6.46133 14.743V13.4587H15.58C15.8527 13.4587 16.0738 13.2376 16.0738 12.9649C16.0738 12.6922 15.8527 12.4711 15.58 12.4711Z" fill="#FCFCFC"/>
<path d="M7.63555 11.487H8.99449C9.08177 11.487 9.1525 11.4162 9.1525 11.329V8.18145C9.1525 8.0942 9.08177 8.02344 8.99449 8.02344H7.63555C7.54827 8.02344 7.47754 8.0942 7.47754 8.18145V11.329C7.47754 11.4162 7.54827 11.487 7.63555 11.487Z" fill="#FCFCFC"/>
<path d="M9.84844 11.4881H11.2074C11.2947 11.4881 11.3654 11.4174 11.3654 11.3301V9.9441C11.2317 9.85501 11.106 9.75208 10.9898 9.63594C10.5288 9.17498 10.275 8.5621 10.275 7.91019C10.275 7.47758 10.3874 7.0625 10.5973 6.69727H9.84844C9.76116 6.69727 9.69043 6.76802 9.69043 6.85528V11.3301C9.69043 11.4174 9.76116 11.4881 9.84844 11.4881Z" fill="#FCFCFC"/>
<path d="M11.9023 10.2115V11.3291C11.9023 11.4164 11.9731 11.4872 12.0604 11.4872H13.4193C13.5066 11.4872 13.5773 11.4164 13.5773 11.3291V10.1934C13.3044 10.2965 13.0135 10.3499 12.7154 10.3499C12.434 10.3498 12.1601 10.3023 11.9023 10.2115Z" fill="#FCFCFC"/>
<path d="M12.7148 9.89237C13.1277 9.89237 13.5212 9.7664 13.8521 9.53355L15.5181 11.1996C15.5853 11.2667 15.6732 11.3003 15.7612 11.3003C15.8491 11.3003 15.9371 11.2667 16.0043 11.1996C16.1385 11.0653 16.1385 10.8477 16.0043 10.7134L14.3382 9.0474C14.5711 8.71645 14.697 8.32306 14.697 7.91004C14.697 7.38056 14.4908 6.88275 14.1164 6.50835C13.7419 6.13391 13.2442 5.92773 12.7147 5.92773C12.1852 5.92773 11.6874 6.13394 11.313 6.50835C10.9386 6.88278 10.7324 7.38059 10.7324 7.91007C10.7324 8.43954 10.9386 8.93736 11.313 9.31173C11.6875 9.68619 12.1852 9.89237 12.7148 9.89237ZM11.7181 6.9135C11.9844 6.6473 12.3383 6.5007 12.7148 6.5007C13.0912 6.5007 13.4451 6.6473 13.7113 6.9135C13.9775 7.17972 14.1241 7.53364 14.1241 7.9101C14.1241 8.28655 13.9775 8.64048 13.7113 8.90667C13.4451 9.17289 13.0912 9.3195 12.7148 9.3195C12.3383 9.3195 11.9844 9.17289 11.7181 8.90667C11.452 8.64048 11.3054 8.28652 11.3054 7.9101C11.3054 7.53361 11.452 7.17972 11.7181 6.9135Z" fill="#FCFCFC"/>
<path d="M12.5773 8.56145V8.8302C12.5773 8.85861 12.6003 8.88165 12.6288 8.88165H12.8147C12.8431 8.88165 12.8662 8.85861 12.8662 8.8302V8.57005C13.1558 8.5343 13.3353 8.36554 13.3353 8.12827C13.3353 7.81401 13.0637 7.73626 12.8455 7.67378C12.6766 7.6254 12.574 7.58962 12.574 7.50066C12.574 7.43945 12.6286 7.40434 12.7238 7.40434C12.8299 7.40434 12.9979 7.45556 13.1418 7.53185C13.1542 7.53843 13.1686 7.53972 13.182 7.53527C13.1952 7.53091 13.2062 7.52133 13.2123 7.50872L13.3136 7.29853C13.3252 7.27432 13.3163 7.24521 13.293 7.23172C13.1724 7.16162 13.0211 7.11352 12.8662 7.09589V6.85223C12.8662 6.82382 12.8432 6.80078 12.8148 6.80078H12.6288C12.6004 6.80078 12.5773 6.82382 12.5773 6.85223V7.10676C12.3235 7.15745 12.1722 7.31661 12.1722 7.53359C12.1722 7.8391 12.4404 7.91258 12.656 7.97161C12.8286 8.01892 12.9334 8.05432 12.9334 8.14682C12.9334 8.24858 12.8215 8.26375 12.7548 8.26375C12.6156 8.26375 12.4202 8.18913 12.2796 8.08229C12.2674 8.07303 12.2517 8.06968 12.2369 8.07312C12.222 8.07656 12.2094 8.08646 12.2025 8.10011L12.1002 8.30316C12.0891 8.32531 12.0953 8.35224 12.115 8.36725C12.2435 8.46497 12.4074 8.5338 12.5773 8.56145Z" fill="#FCFCFC"/>
</g>
<defs>
<clipPath id="clip0_3192_10018">
<rect width="12.6728" height="12.6728" fill="white" transform="translate(3.43262 3.44336)"/>
</clipPath>
</defs>
</svg>
