<svg width="25" height="25" viewBox="0 0 25 25" fill="none" xmlns="http://www.w3.org/2000/svg">
<path fill-rule="evenodd" clip-rule="evenodd" d="M24.892 11.1846C25.2239 13.9092 24.6118 16.6652 23.1577 18.993C21.7037 21.3209 19.4956 23.08 16.9016 23.977C14.3076 24.8739 11.4845 24.8545 8.90308 23.922C6.32165 22.9895 4.1379 21.2003 2.71597 18.8526C2.56121 18.5974 2.51418 18.2912 2.58521 18.0013C2.65624 17.7114 2.83951 17.4616 3.09472 17.3069C3.34992 17.1521 3.65615 17.1051 3.94604 17.1761C4.23592 17.2472 4.48571 17.4304 4.64047 17.6856C5.40643 18.9505 6.45005 20.0245 7.69235 20.8265C8.93466 21.6285 10.3431 22.1374 11.8111 22.3147C13.2791 22.4921 14.7682 22.3332 16.1658 21.8501C17.5633 21.367 18.8327 20.5723 19.8778 19.5263C20.9229 18.4802 21.7164 17.2102 22.1982 15.8122C22.6801 14.4142 22.8376 12.925 22.659 11.4571C22.4803 9.98927 21.9702 8.58128 21.1671 7.3397C20.364 6.09812 19.289 5.05546 18.0235 4.29063C17.7681 4.13628 17.5844 3.88678 17.513 3.59704C17.4415 3.3073 17.4881 3.00104 17.6425 2.74563C17.7968 2.49023 18.0463 2.3066 18.3361 2.23515C18.6258 2.1637 18.9321 2.21028 19.1875 2.36463C20.7449 3.30601 22.0677 4.58927 23.056 6.11732C24.0443 7.64536 24.6721 9.37817 24.892 11.1846ZM14.4805 2.13513C14.4805 2.53296 14.3224 2.91449 14.0411 3.19579C13.7598 3.4771 13.3783 3.63513 12.9805 3.63513C12.5826 3.63513 12.2011 3.4771 11.9198 3.19579C11.6385 2.91449 11.4805 2.53296 11.4805 2.13513C11.4805 1.73731 11.6385 1.35578 11.9198 1.07447C12.2011 0.793167 12.5826 0.635132 12.9805 0.635132C13.3783 0.635132 13.7598 0.793167 14.0411 1.07447C14.3224 1.35578 14.4805 1.73731 14.4805 2.13513ZM5.18647 8.13513C5.28651 7.96448 5.35182 7.77572 5.37862 7.57972C5.40541 7.38372 5.39318 7.18436 5.34262 6.99311C5.29205 6.80186 5.20416 6.6225 5.084 6.46536C4.96384 6.30822 4.81378 6.1764 4.64246 6.07749C4.47114 5.97857 4.28196 5.91453 4.08579 5.88903C3.88962 5.86353 3.69034 5.87709 3.49943 5.92892C3.30852 5.98075 3.12975 6.06983 2.97341 6.19103C2.81707 6.31223 2.68624 6.46316 2.58847 6.63513C2.39269 6.97947 2.34106 7.38727 2.44485 7.76953C2.54863 8.15179 2.7994 8.47749 3.14243 8.67554C3.48546 8.8736 3.8929 8.92793 4.27585 8.82669C4.65879 8.72544 4.98614 8.47684 5.18647 8.13513ZM2.48047 11.1351C2.87829 11.1351 3.25982 11.2932 3.54113 11.5745C3.82243 11.8558 3.98047 12.2373 3.98047 12.6351C3.98047 13.033 3.82243 13.4145 3.54113 13.6958C3.25982 13.9771 2.87829 14.1351 2.48047 14.1351C2.08264 14.1351 1.70111 13.9771 1.41981 13.6958C1.1385 13.4145 0.980469 13.033 0.980469 12.6351C0.980469 12.2373 1.1385 11.8558 1.41981 11.5745C1.70111 11.2932 2.08264 11.1351 2.48047 11.1351ZM8.48047 4.84113C8.65244 4.74336 8.80337 4.61253 8.92457 4.45619C9.04577 4.29985 9.13485 4.12108 9.18668 3.93017C9.23851 3.73926 9.25207 3.53998 9.22657 3.34382C9.20107 3.14765 9.13703 2.95846 9.03811 2.78714C8.9392 2.61582 8.80738 2.46577 8.65024 2.3456C8.49309 2.22544 8.31374 2.13755 8.12249 2.08698C7.93124 2.03642 7.73188 2.02419 7.53588 2.05098C7.33988 2.07778 7.15112 2.14309 6.98047 2.24313C6.63876 2.44346 6.39016 2.77081 6.28891 3.15375C6.18767 3.5367 6.242 3.94414 6.44006 4.28717C6.63811 4.6302 6.96381 4.88097 7.34607 4.98476C7.72833 5.08854 8.13613 5.03691 8.48047 4.84113Z" fill="#BF0C0C"/>
</svg>
