<svg width="100" height="100" viewBox="0 0 100 100" fill="none" xmlns="http://www.w3.org/2000/svg">
<g filter="url(#filter0_d_6225_15208)">
<circle cx="50.2266" cy="44.0321" r="42.5" fill="white" stroke="#870000" stroke-width="2" stroke-miterlimit="3.8637"/>
<path d="M25.6769 24.2607C25.5891 24.4506 25.5806 24.6675 25.6534 24.8636C25.7262 25.0598 25.8743 25.2191 26.0652 25.3066L27.7012 26.0564C27.8912 26.139 28.1063 26.1442 28.3001 26.0709C28.494 25.9975 28.6512 25.8514 28.738 25.6639C28.8248 25.4765 28.8343 25.2626 28.7644 25.0683C28.6946 24.874 28.5509 24.7146 28.3643 24.6245L26.7279 23.8743C26.6334 23.8309 26.5313 23.8064 26.4273 23.8023C26.3233 23.7982 26.2195 23.8146 26.1219 23.8505C26.0242 23.8863 25.9347 23.9411 25.8583 24.0114C25.782 24.0818 25.7203 24.1665 25.6769 24.2607ZM32.0214 22.4102C32.1476 22.4099 32.2718 22.3797 32.3839 22.322C32.496 22.2644 32.5926 22.181 32.6658 22.0787C32.739 21.9765 32.7867 21.8583 32.8048 21.7341C32.8229 21.6098 32.811 21.483 32.7701 21.3643L32.1747 19.6443C32.1414 19.5456 32.0888 19.4545 32.0199 19.3762C31.951 19.2979 31.8672 19.234 31.7734 19.1881C31.6795 19.1421 31.5775 19.1151 31.4731 19.1087C31.3688 19.1022 31.2641 19.1163 31.1653 19.1503C31.0664 19.1842 30.9753 19.2373 30.8972 19.3065C30.819 19.3757 30.7554 19.4595 30.71 19.5533C30.6646 19.647 30.6384 19.7488 30.6327 19.8527C30.627 19.9566 30.642 20.0606 30.6769 20.1587L31.2727 21.8788C31.3265 22.0338 31.4275 22.1683 31.5617 22.2636C31.6959 22.3588 31.8566 22.4101 32.0214 22.4102ZM26.0006 32.1913C26.0981 32.1913 26.1948 32.1734 26.2858 32.1385L28.0042 31.4786C28.2003 31.4033 28.3583 31.2536 28.4435 31.0623C28.5287 30.8711 28.534 30.6541 28.4584 30.4589C28.3827 30.2637 28.2323 30.1065 28.0402 30.0217C27.848 29.937 27.6299 29.9316 27.4338 30.0069L25.7154 30.6669C25.5425 30.7329 25.3984 30.8572 25.308 31.018C25.2176 31.1788 25.1867 31.366 25.2206 31.5472C25.2545 31.7283 25.351 31.892 25.4935 32.0096C25.636 32.1273 25.8154 32.1916 26.0006 32.1913ZM29.052 21.2279C28.9113 21.0725 28.7144 20.9791 28.5045 20.9683C28.2947 20.9574 28.089 21.0299 27.9329 21.1699C27.7768 21.3099 27.683 21.5059 27.672 21.7148C27.6611 21.9236 27.734 22.1283 27.8747 22.2836L29.0837 23.6201C29.1533 23.697 29.2375 23.7596 29.3315 23.8041C29.4254 23.8487 29.5273 23.8744 29.6312 23.8798C29.7352 23.8852 29.8391 23.8702 29.9372 23.8356C30.0353 23.801 30.1256 23.7475 30.203 23.6782C30.2803 23.6089 30.3431 23.5251 30.3879 23.4316C30.4327 23.3381 30.4586 23.2367 30.464 23.1333C30.4694 23.0299 30.4543 22.9264 30.4195 22.8288C30.3848 22.7311 30.331 22.6413 30.2614 22.5643L29.052 21.2279ZM25.5288 27.2095C25.3187 27.2069 25.1161 27.2874 24.9657 27.4335C24.8152 27.5795 24.7293 27.779 24.7266 27.9881C24.724 28.1972 24.8049 28.3988 24.9517 28.5485C25.0984 28.6982 25.2989 28.7838 25.509 28.7864L27.3256 28.8309C27.3323 28.8311 27.3389 28.8311 27.3455 28.8309C27.5516 28.8275 27.7482 28.7443 27.8937 28.599C28.0392 28.4536 28.122 28.2576 28.1246 28.0525C28.1271 27.8473 28.0493 27.6493 27.9075 27.5003C27.7657 27.3514 27.5712 27.2633 27.3653 27.2548L25.5486 27.2099H25.5288V27.2095ZM27.6996 35.0901C27.8994 35.0905 28.0919 35.0155 28.2383 34.8803L29.605 33.6204C29.6813 33.55 29.743 33.4653 29.7864 33.3712C29.8299 33.2771 29.8543 33.1753 29.8583 33.0718C29.8622 32.9683 29.8456 32.8651 29.8095 32.7679C29.7733 32.6708 29.7183 32.5817 29.6476 32.5057C29.5768 32.4297 29.4917 32.3684 29.3972 32.3251C29.3026 32.2819 29.2004 32.2576 29.0964 32.2537C28.9924 32.2497 28.8886 32.2662 28.791 32.3022C28.6934 32.3382 28.6039 32.3929 28.5275 32.4633L27.1609 33.7229C27.0439 33.8306 26.9623 33.9709 26.9267 34.1255C26.8911 34.2801 26.9032 34.4418 26.9613 34.5895C27.0195 34.7371 27.1211 34.8639 27.2528 34.9532C27.3845 35.0425 27.5402 35.0902 27.6996 35.0901ZM34.8625 21.9493C35.0617 21.9491 35.2535 21.8743 35.3998 21.7396C35.546 21.605 35.6359 21.4204 35.6516 21.2228L35.7973 19.3825C35.8055 19.2793 35.7932 19.1755 35.761 19.077C35.7289 18.9785 35.6775 18.8873 35.61 18.8085C35.4735 18.6495 35.2791 18.551 35.0696 18.5345C34.9659 18.5264 34.8616 18.5387 34.7626 18.5707C34.6637 18.6027 34.572 18.6538 34.4929 18.721C34.3331 18.8568 34.2341 19.0502 34.2176 19.2587L34.0718 21.099C34.0636 21.2022 34.0759 21.306 34.1081 21.4045C34.1402 21.503 34.1916 21.5942 34.2591 21.673C34.3267 21.7517 34.4092 21.8164 34.5019 21.8635C34.5946 21.9105 34.6957 21.9388 34.7995 21.947C34.8209 21.9485 34.8415 21.9493 34.8629 21.9493H34.8625ZM29.5812 30.3739C29.8109 31.0126 30.1662 31.5993 30.6264 32.0997C31.0866 32.6 31.6425 33.004 32.2615 33.2881C32.4516 33.3708 32.6668 33.3761 32.8607 33.3026C33.0547 33.2292 33.212 33.083 33.2987 32.8953C33.3855 32.7077 33.3948 32.4937 33.3247 32.2993C33.2546 32.105 33.1106 31.9457 32.9238 31.8558C32.4952 31.6582 32.1104 31.3775 31.7921 31.0302C31.4737 30.6829 31.228 30.2759 31.0695 29.8331C30.8896 29.336 30.811 28.8083 30.8382 28.2807C30.8655 27.753 30.9981 27.2361 31.2283 26.7601C32.1553 24.7956 34.4267 23.8929 36.2893 24.7471C36.4802 24.8347 36.6981 24.8431 36.8953 24.7707C37.0924 24.6983 37.2525 24.5509 37.3405 24.361C37.4284 24.1711 37.4369 23.9542 37.3642 23.758C37.2914 23.5618 37.1433 23.4024 36.9525 23.3149C34.3004 22.0987 31.0893 23.3445 29.7943 26.0903C29.4745 26.7544 29.2909 27.4754 29.2543 28.211C29.2177 28.9465 29.3289 29.682 29.5812 30.3743V30.3739ZM63.5575 42.9746C63.5575 42.7655 63.474 42.5649 63.3255 42.4171C63.1769 42.2692 62.9754 42.1861 62.7652 42.1861C62.5551 42.1861 62.3536 42.2692 62.205 42.4171C62.0564 42.5649 61.973 42.7655 61.973 42.9746V44.5515C61.973 44.7606 62.0564 44.9612 62.205 45.109C62.3536 45.2569 62.5551 45.34 62.7652 45.34C62.9754 45.34 63.1769 45.2569 63.3255 45.109C63.474 44.9612 63.5575 44.7606 63.5575 44.5515V42.9746ZM66.7266 42.9746C66.7266 42.7655 66.6431 42.5649 66.4945 42.4171C66.3459 42.2692 66.1444 42.1861 65.9343 42.1861C65.7242 42.1861 65.5227 42.2692 65.3741 42.4171C65.2255 42.5649 65.142 42.7655 65.142 42.9746V44.5515C65.142 44.7606 65.2255 44.9612 65.3741 45.109C65.5227 45.2569 65.7242 45.34 65.9343 45.34C66.1444 45.34 66.3459 45.2569 66.4945 45.109C66.6431 44.9612 66.7266 44.7606 66.7266 44.5515V42.9746ZM63.5575 47.7053C63.5575 47.4962 63.474 47.2957 63.3255 47.1478C63.1769 46.9999 62.9754 46.9169 62.7652 46.9169C62.5551 46.9169 62.3536 46.9999 62.205 47.1478C62.0564 47.2957 61.973 47.4962 61.973 47.7053V49.2822C61.973 49.4913 62.0564 49.6919 62.205 49.8397C62.3536 49.9876 62.5551 50.0707 62.7652 50.0707C62.9754 50.0707 63.1769 49.9876 63.3255 49.8397C63.474 49.6919 63.5575 49.4913 63.5575 49.2822V47.7053ZM66.7266 47.7053C66.7266 47.4962 66.6431 47.2957 66.4945 47.1478C66.3459 46.9999 66.1444 46.9169 65.9343 46.9169C65.7242 46.9169 65.5227 46.9999 65.3741 47.1478C65.2255 47.2957 65.142 47.4962 65.142 47.7053V49.2822C65.142 49.4913 65.2255 49.6919 65.3741 49.8397C65.5227 49.9876 65.7242 50.0707 65.9343 50.0707C66.1444 50.0707 66.3459 49.9876 66.4945 49.8397C66.6431 49.6919 66.7266 49.4913 66.7266 49.2822V47.7053ZM63.5575 52.436C63.5575 52.2269 63.474 52.0264 63.3255 51.8785C63.1769 51.7306 62.9754 51.6476 62.7652 51.6476C62.5551 51.6476 62.3536 51.7306 62.205 51.8785C62.0564 52.0264 61.973 52.2269 61.973 52.436V54.0129C61.973 54.222 62.0564 54.4226 62.205 54.5705C62.3536 54.7183 62.5551 54.8014 62.7652 54.8014C62.9754 54.8014 63.1769 54.7183 63.3255 54.5705C63.474 54.4226 63.5575 54.222 63.5575 54.0129V52.436ZM66.7266 52.436C66.7266 52.2269 66.6431 52.0264 66.4945 51.8785C66.3459 51.7306 66.1444 51.6476 65.9343 51.6476C65.7242 51.6476 65.5227 51.7306 65.3741 51.8785C65.2255 52.0264 65.142 52.2269 65.142 52.436V54.0129C65.142 54.222 65.2255 54.4226 65.3741 54.5705C65.5227 54.7183 65.7242 54.8014 65.9343 54.8014C66.1444 54.8014 66.3459 54.7183 66.4945 54.5705C66.6431 54.4226 66.7266 54.222 66.7266 54.0129V52.436ZM62.7652 56.3783C62.5551 56.3783 62.3536 56.4614 62.205 56.6092C62.0564 56.7571 61.973 56.9576 61.973 57.1667V58.7437C61.973 58.9528 62.0564 59.1533 62.205 59.3012C62.3536 59.449 62.5551 59.5321 62.7652 59.5321C62.9754 59.5321 63.1769 59.449 63.3255 59.3012C63.474 59.1533 63.5575 58.9528 63.5575 58.7437V57.1667C63.5575 56.9576 63.474 56.7571 63.3255 56.6092C63.1769 56.4614 62.9754 56.3783 62.7652 56.3783ZM65.9343 56.3783C65.7242 56.3783 65.5227 56.4614 65.3741 56.6092C65.2255 56.7571 65.142 56.9576 65.142 57.1667V58.7437C65.142 58.9528 65.2255 59.1533 65.3741 59.3012C65.5227 59.449 65.7242 59.5321 65.9343 59.5321C66.1444 59.5321 66.3459 59.449 66.4945 59.3012C66.6431 59.1533 66.7266 58.9528 66.7266 58.7437V57.1667C66.7266 56.9576 66.6431 56.7571 66.4945 56.6092C66.3459 56.4614 66.1444 56.3783 65.9343 56.3783ZM38.205 42.9746C38.205 42.7655 38.1216 42.5649 37.973 42.4171C37.8244 42.2692 37.6229 42.1861 37.4128 42.1861C37.2026 42.1861 37.0011 42.2692 36.8525 42.4171C36.704 42.5649 36.6205 42.7655 36.6205 42.9746V44.5515C36.6205 44.7606 36.704 44.9612 36.8525 45.109C37.0011 45.2569 37.2026 45.34 37.4128 45.34C37.6229 45.34 37.8244 45.2569 37.973 45.109C38.1216 44.9612 38.205 44.7606 38.205 44.5515V42.9746ZM35.036 42.9746C35.036 42.7655 34.9525 42.5649 34.8039 42.4171C34.6553 42.2692 34.4538 42.1861 34.2437 42.1861C34.0336 42.1861 33.8321 42.2692 33.6835 42.4171C33.5349 42.5649 33.4514 42.7655 33.4514 42.9746V44.5515C33.4514 44.7606 33.5349 44.9612 33.6835 45.109C33.8321 45.2569 34.0336 45.34 34.2437 45.34C34.4538 45.34 34.6553 45.2569 34.8039 45.109C34.9525 44.9612 35.036 44.7606 35.036 44.5515V42.9746ZM38.205 47.7053C38.205 47.4962 38.1216 47.2957 37.973 47.1478C37.8244 46.9999 37.6229 46.9169 37.4128 46.9169C37.2026 46.9169 37.0011 46.9999 36.8525 47.1478C36.704 47.2957 36.6205 47.4962 36.6205 47.7053V49.2822C36.6205 49.4913 36.704 49.6919 36.8525 49.8397C37.0011 49.9876 37.2026 50.0707 37.4128 50.0707C37.6229 50.0707 37.8244 49.9876 37.973 49.8397C38.1216 49.6919 38.205 49.4913 38.205 49.2822V47.7053ZM35.036 47.7053C35.036 47.4962 34.9525 47.2957 34.8039 47.1478C34.6553 46.9999 34.4538 46.9169 34.2437 46.9169C34.0336 46.9169 33.8321 46.9999 33.6835 47.1478C33.5349 47.2957 33.4514 47.4962 33.4514 47.7053V49.2822C33.4514 49.4913 33.5349 49.6919 33.6835 49.8397C33.8321 49.9876 34.0336 50.0707 34.2437 50.0707C34.4538 50.0707 34.6553 49.9876 34.8039 49.8397C34.9525 49.6919 35.036 49.4913 35.036 49.2822V47.7053ZM38.205 52.436C38.205 52.2269 38.1216 52.0264 37.973 51.8785C37.8244 51.7306 37.6229 51.6476 37.4128 51.6476C37.2026 51.6476 37.0011 51.7306 36.8525 51.8785C36.704 52.0264 36.6205 52.2269 36.6205 52.436V54.0129C36.6205 54.222 36.704 54.4226 36.8525 54.5705C37.0011 54.7183 37.2026 54.8014 37.4128 54.8014C37.6229 54.8014 37.8244 54.7183 37.973 54.5705C38.1216 54.4226 38.205 54.222 38.205 54.0129V52.436ZM35.036 52.436C35.036 52.2269 34.9525 52.0264 34.8039 51.8785C34.6553 51.7306 34.4538 51.6476 34.2437 51.6476C34.0336 51.6476 33.8321 51.7306 33.6835 51.8785C33.5349 52.0264 33.4514 52.2269 33.4514 52.436V54.0129C33.4514 54.222 33.5349 54.4226 33.6835 54.5705C33.8321 54.7183 34.0336 54.8014 34.2437 54.8014C34.4538 54.8014 34.6553 54.7183 34.8039 54.5705C34.9525 54.4226 35.036 54.222 35.036 54.0129V52.436ZM37.4128 56.3783C37.2026 56.3783 37.0011 56.4614 36.8525 56.6092C36.704 56.7571 36.6205 56.9576 36.6205 57.1667V58.7437C36.6205 58.9528 36.704 59.1533 36.8525 59.3012C37.0011 59.449 37.2026 59.5321 37.4128 59.5321C37.6229 59.5321 37.8244 59.449 37.973 59.3012C38.1216 59.1533 38.205 58.9528 38.205 58.7437V57.1667C38.205 56.9576 38.1216 56.7571 37.973 56.6092C37.8244 56.4614 37.6229 56.3783 37.4128 56.3783ZM34.2437 56.3783C34.0336 56.3783 33.8321 56.4614 33.6835 56.6092C33.5349 56.7571 33.4514 56.9576 33.4514 57.1667V58.7437C33.4514 58.9528 33.5349 59.1533 33.6835 59.3012C33.8321 59.449 34.0336 59.5321 34.2437 59.5321C34.4538 59.5321 34.6553 59.449 34.8039 59.3012C34.9525 59.1533 35.036 58.9528 35.036 58.7437V57.1667C35.036 56.9576 34.9525 56.7571 34.8039 56.6092C34.6553 56.4614 34.4538 56.3783 34.2437 56.3783Z" fill="#D21B1B"/>
<path d="M75.7266 61.2099C75.7266 60.2412 75.2325 58.6144 74.2583 56.3744C74.1533 56.1077 73.9712 55.8789 73.7358 55.7177C73.5003 55.5564 73.2223 55.4702 72.9376 55.4702C72.653 55.4701 72.3749 55.5563 72.1394 55.7174C71.9039 55.8786 71.7218 56.1073 71.6167 56.374C70.6425 58.6144 70.1484 60.2412 70.1484 61.2099C70.1484 63.0087 70.9772 64.4853 72.1406 64.9546V67.925H70.5469V65.8485C70.0606 65.4486 69.6549 64.9584 69.3516 64.4045V67.925H67.3594V63.9071C67.359 63.481 67.1909 63.0725 66.8921 62.7712C66.5933 62.4698 66.1882 62.3004 65.7656 62.3H63.375C62.9524 62.3004 62.5473 62.4698 62.2485 62.7712C61.9497 63.0725 61.7817 63.481 61.7812 63.9071V67.925H59.7891V26.1392C59.7891 25.713 59.6212 25.3042 59.3223 25.0028C59.0234 24.7014 58.618 24.5321 58.1953 24.5321H42.2578C41.8351 24.5321 41.4297 24.7014 41.1309 25.0028C40.832 25.3042 40.6641 25.713 40.6641 26.1392V67.925H38.6719V63.9071C38.6715 63.481 38.5034 63.0725 38.2046 62.7712C37.9058 62.4698 37.5007 62.3004 37.0781 62.3H34.6875C34.2649 62.3004 33.8598 62.4698 33.561 62.7712C33.2622 63.0725 33.0942 63.481 33.0938 63.9071V67.925H31.1016V64.4045C30.7982 64.9584 30.3925 65.4486 29.9062 65.8485V67.925H28.3125V64.9542C29.4759 64.4853 30.3047 63.0087 30.3047 61.2099C30.3047 60.2412 29.8106 58.6144 28.8364 56.3744C28.7291 56.1092 28.5465 55.8819 28.3115 55.7209C28.0766 55.5599 27.7997 55.4725 27.5156 55.4696C27.2316 55.4725 26.9548 55.5598 26.7198 55.7207C26.4848 55.8816 26.3022 56.1089 26.1948 56.374C25.2206 58.6144 24.7266 60.2412 24.7266 61.2099C24.7266 63.0087 25.5553 64.4853 26.7188 64.9546V67.925H25.5234C25.3121 67.925 25.1094 68.0096 24.96 68.1603C24.8105 68.311 24.7266 68.5154 24.7266 68.7285C24.7266 68.9417 24.8105 69.146 24.96 69.2967C25.1094 69.4474 25.3121 69.5321 25.5234 69.5321H74.9297C75.141 69.5321 75.3437 69.4474 75.4932 69.2967C75.6426 69.146 75.7266 68.9417 75.7266 68.7285C75.7266 68.5154 75.6426 68.311 75.4932 68.1603C75.3437 68.0096 75.141 67.925 74.9297 67.925H73.7344V64.9542C74.8978 64.4853 75.7266 63.0087 75.7266 61.2099ZM37.0781 67.925H34.6875V63.9071H37.0781V67.925ZM51.0234 28.55C51.0234 28.3368 51.1074 28.1324 51.2568 27.9818C51.4063 27.8311 51.609 27.7464 51.8203 27.7464C52.0317 27.7464 52.2343 27.8311 52.3838 27.9818C52.5332 28.1324 52.6172 28.3368 52.6172 28.55V30.1571C52.6172 30.3702 52.5332 30.5746 52.3838 30.7253C52.2343 30.876 52.0317 30.9607 51.8203 30.9607C51.609 30.9607 51.4063 30.876 51.2568 30.7253C51.1074 30.5746 51.0234 30.3702 51.0234 30.1571V28.55ZM51.0234 33.3714C51.0234 33.1583 51.1074 32.9539 51.2568 32.8032C51.4063 32.6525 51.609 32.5678 51.8203 32.5678C52.0317 32.5678 52.2343 32.6525 52.3838 32.8032C52.5332 32.9539 52.6172 33.1583 52.6172 33.3714V34.9785C52.6172 35.1917 52.5332 35.396 52.3838 35.5467C52.2343 35.6974 52.0317 35.7821 51.8203 35.7821C51.609 35.7821 51.4063 35.6974 51.2568 35.5467C51.1074 35.396 51.0234 35.1917 51.0234 34.9785V33.3714ZM51.0234 38.1928C51.0234 37.9797 51.1074 37.7753 51.2568 37.6246C51.4063 37.4739 51.609 37.3892 51.8203 37.3892C52.0317 37.3892 52.2343 37.4739 52.3838 37.6246C52.5332 37.7753 52.6172 37.9797 52.6172 38.1928V39.8C52.6172 40.0131 52.5332 40.2175 52.3838 40.3682C52.2343 40.5189 52.0317 40.6035 51.8203 40.6035C51.609 40.6035 51.4063 40.5189 51.2568 40.3682C51.1074 40.2175 51.0234 40.0131 51.0234 39.8V38.1928ZM51.0234 43.0142C51.0234 42.8011 51.1074 42.5967 51.2568 42.446C51.4063 42.2953 51.609 42.2107 51.8203 42.2107C52.0317 42.2107 52.2343 42.2953 52.3838 42.446C52.5332 42.5967 52.6172 42.8011 52.6172 43.0142V44.6214C52.6172 44.8345 52.5332 45.0389 52.3838 45.1896C52.2343 45.3403 52.0317 45.425 51.8203 45.425C51.609 45.425 51.4063 45.3403 51.2568 45.1896C51.1074 45.0389 51.0234 44.8345 51.0234 44.6214V43.0142ZM51.0234 47.8357C51.0234 47.6226 51.1074 47.4182 51.2568 47.2675C51.4063 47.1168 51.609 47.0321 51.8203 47.0321C52.0317 47.0321 52.2343 47.1168 52.3838 47.2675C52.5332 47.4182 52.6172 47.6226 52.6172 47.8357V49.4428C52.6172 49.6559 52.5332 49.8603 52.3838 50.011C52.2343 50.1617 52.0317 50.2464 51.8203 50.2464C51.609 50.2464 51.4063 50.1617 51.2568 50.011C51.1074 49.8603 51.0234 49.6559 51.0234 49.4428V47.8357ZM51.0234 52.6571C51.0234 52.444 51.1074 52.2396 51.2568 52.0889C51.4063 51.9382 51.609 51.8535 51.8203 51.8535C52.0317 51.8535 52.2343 51.9382 52.3838 52.0889C52.5332 52.2396 52.6172 52.444 52.6172 52.6571V54.2642C52.6172 54.4774 52.5332 54.6818 52.3838 54.8325C52.2343 54.9832 52.0317 55.0678 51.8203 55.0678C51.609 55.0678 51.4063 54.9832 51.2568 54.8325C51.1074 54.6818 51.0234 54.4774 51.0234 54.2642V52.6571ZM47.8359 28.55C47.8359 28.3368 47.9199 28.1324 48.0693 27.9818C48.2188 27.8311 48.4215 27.7464 48.6328 27.7464C48.8442 27.7464 49.0468 27.8311 49.1963 27.9818C49.3457 28.1324 49.4297 28.3368 49.4297 28.55V30.1571C49.4297 30.3702 49.3457 30.5746 49.1963 30.7253C49.0468 30.876 48.8442 30.9607 48.6328 30.9607C48.4215 30.9607 48.2188 30.876 48.0693 30.7253C47.9199 30.5746 47.8359 30.3702 47.8359 30.1571V28.55ZM47.8359 33.3714C47.8359 33.1583 47.9199 32.9539 48.0693 32.8032C48.2188 32.6525 48.4215 32.5678 48.6328 32.5678C48.8442 32.5678 49.0468 32.6525 49.1963 32.8032C49.3457 32.9539 49.4297 33.1583 49.4297 33.3714V34.9785C49.4297 35.1917 49.3457 35.396 49.1963 35.5467C49.0468 35.6974 48.8442 35.7821 48.6328 35.7821C48.4215 35.7821 48.2188 35.6974 48.0693 35.5467C47.9199 35.396 47.8359 35.1917 47.8359 34.9785V33.3714ZM47.8359 38.1928C47.8359 37.9797 47.9199 37.7753 48.0693 37.6246C48.2188 37.4739 48.4215 37.3892 48.6328 37.3892C48.8442 37.3892 49.0468 37.4739 49.1963 37.6246C49.3457 37.7753 49.4297 37.9797 49.4297 38.1928V39.8C49.4297 40.0131 49.3457 40.2175 49.1963 40.3682C49.0468 40.5189 48.8442 40.6035 48.6328 40.6035C48.4215 40.6035 48.2188 40.5189 48.0693 40.3682C47.9199 40.2175 47.8359 40.0131 47.8359 39.8V38.1928ZM47.8359 43.0142C47.8359 42.8011 47.9199 42.5967 48.0693 42.446C48.2188 42.2953 48.4215 42.2107 48.6328 42.2107C48.8442 42.2107 49.0468 42.2953 49.1963 42.446C49.3457 42.5967 49.4297 42.8011 49.4297 43.0142V44.6214C49.4297 44.8345 49.3457 45.0389 49.1963 45.1896C49.0468 45.3403 48.8442 45.425 48.6328 45.425C48.4215 45.425 48.2188 45.3403 48.0693 45.1896C47.9199 45.0389 47.8359 44.8345 47.8359 44.6214V43.0142ZM47.8359 47.8357C47.8359 47.6226 47.9199 47.4182 48.0693 47.2675C48.2188 47.1168 48.4215 47.0321 48.6328 47.0321C48.8442 47.0321 49.0468 47.1168 49.1963 47.2675C49.3457 47.4182 49.4297 47.6226 49.4297 47.8357V49.4428C49.4297 49.6559 49.3457 49.8603 49.1963 50.011C49.0468 50.1617 48.8442 50.2464 48.6328 50.2464C48.4215 50.2464 48.2188 50.1617 48.0693 50.011C47.9199 49.8603 47.8359 49.6559 47.8359 49.4428V47.8357ZM47.8359 52.6571C47.8359 52.444 47.9199 52.2396 48.0693 52.0889C48.2188 51.9382 48.4215 51.8535 48.6328 51.8535C48.8442 51.8535 49.0468 51.9382 49.1963 52.0889C49.3457 52.2396 49.4297 52.444 49.4297 52.6571V54.2642C49.4297 54.4774 49.3457 54.6818 49.1963 54.8325C49.0468 54.9832 48.8442 55.0678 48.6328 55.0678C48.4215 55.0678 48.2188 54.9832 48.0693 54.8325C47.9199 54.6818 47.8359 54.4774 47.8359 54.2642V52.6571ZM44.6484 28.55C44.6484 28.3368 44.7324 28.1324 44.8818 27.9818C45.0313 27.8311 45.234 27.7464 45.4453 27.7464C45.6567 27.7464 45.8593 27.8311 46.0088 27.9818C46.1582 28.1324 46.2422 28.3368 46.2422 28.55V30.1571C46.2422 30.3702 46.1582 30.5746 46.0088 30.7253C45.8593 30.876 45.6567 30.9607 45.4453 30.9607C45.234 30.9607 45.0313 30.876 44.8818 30.7253C44.7324 30.5746 44.6484 30.3702 44.6484 30.1571V28.55ZM44.6484 33.3714C44.6484 33.1583 44.7324 32.9539 44.8818 32.8032C45.0313 32.6525 45.234 32.5678 45.4453 32.5678C45.6567 32.5678 45.8593 32.6525 46.0088 32.8032C46.1582 32.9539 46.2422 33.1583 46.2422 33.3714V34.9785C46.2422 35.1917 46.1582 35.396 46.0088 35.5467C45.8593 35.6974 45.6567 35.7821 45.4453 35.7821C45.234 35.7821 45.0313 35.6974 44.8818 35.5467C44.7324 35.396 44.6484 35.1917 44.6484 34.9785V33.3714ZM44.6484 38.1928C44.6484 37.9797 44.7324 37.7753 44.8818 37.6246C45.0313 37.4739 45.234 37.3892 45.4453 37.3892C45.6567 37.3892 45.8593 37.4739 46.0088 37.6246C46.1582 37.7753 46.2422 37.9797 46.2422 38.1928V39.8C46.2422 40.0131 46.1582 40.2175 46.0088 40.3682C45.8593 40.5189 45.6567 40.6035 45.4453 40.6035C45.234 40.6035 45.0313 40.5189 44.8818 40.3682C44.7324 40.2175 44.6484 40.0131 44.6484 39.8V38.1928ZM44.6484 43.0142C44.6484 42.8011 44.7324 42.5967 44.8818 42.446C45.0313 42.2953 45.234 42.2107 45.4453 42.2107C45.6567 42.2107 45.8593 42.2953 46.0088 42.446C46.1582 42.5967 46.2422 42.8011 46.2422 43.0142V44.6214C46.2422 44.8345 46.1582 45.0389 46.0088 45.1896C45.8593 45.3403 45.6567 45.425 45.4453 45.425C45.234 45.425 45.0313 45.3403 44.8818 45.1896C44.7324 45.0389 44.6484 44.8345 44.6484 44.6214V43.0142ZM44.6484 47.8357C44.6484 47.6226 44.7324 47.4182 44.8818 47.2675C45.0313 47.1168 45.234 47.0321 45.4453 47.0321C45.6567 47.0321 45.8593 47.1168 46.0088 47.2675C46.1582 47.4182 46.2422 47.6226 46.2422 47.8357V49.4428C46.2422 49.6559 46.1582 49.8603 46.0088 50.011C45.8593 50.1617 45.6567 50.2464 45.4453 50.2464C45.234 50.2464 45.0313 50.1617 44.8818 50.011C44.7324 49.8603 44.6484 49.6559 44.6484 49.4428V47.8357ZM45.4453 55.0678C45.234 55.0678 45.0313 54.9832 44.8818 54.8325C44.7324 54.6818 44.6484 54.4774 44.6484 54.2642V52.6571C44.6484 52.444 44.7324 52.2396 44.8818 52.0889C45.0313 51.9382 45.234 51.8535 45.4453 51.8535C45.6567 51.8535 45.8593 51.9382 46.0088 52.0889C46.1582 52.2396 46.2422 52.444 46.2422 52.6571V54.2642C46.2422 54.4774 46.1582 54.6818 46.0088 54.8325C45.8593 54.9832 45.6567 55.0678 45.4453 55.0678ZM54.2109 67.925H46.2422V59.0857C46.2422 58.8726 46.3261 58.6682 46.4756 58.5175C46.625 58.3668 46.8277 58.2821 47.0391 58.2821H53.4141C53.6254 58.2821 53.8281 58.3668 53.9775 58.5175C54.127 58.6682 54.2109 58.8726 54.2109 59.0857V67.925ZM55.8047 54.2642C55.8047 54.4774 55.7207 54.6818 55.5713 54.8325C55.4218 54.9832 55.2192 55.0678 55.0078 55.0678C54.7965 55.0678 54.5938 54.9832 54.4443 54.8325C54.2949 54.6818 54.2109 54.4774 54.2109 54.2642V52.6571C54.2109 52.444 54.2949 52.2396 54.4443 52.0889C54.5938 51.9382 54.7965 51.8535 55.0078 51.8535C55.2192 51.8535 55.4218 51.9382 55.5713 52.0889C55.7207 52.2396 55.8047 52.444 55.8047 52.6571V54.2642ZM55.8047 49.4428C55.8047 49.6559 55.7207 49.8603 55.5713 50.011C55.4218 50.1617 55.2192 50.2464 55.0078 50.2464C54.7965 50.2464 54.5938 50.1617 54.4443 50.011C54.2949 49.8603 54.2109 49.6559 54.2109 49.4428V47.8357C54.2109 47.6226 54.2949 47.4182 54.4443 47.2675C54.5938 47.1168 54.7965 47.0321 55.0078 47.0321C55.2192 47.0321 55.4218 47.1168 55.5713 47.2675C55.7207 47.4182 55.8047 47.6226 55.8047 47.8357V49.4428ZM55.8047 44.6214C55.8047 44.8345 55.7207 45.0389 55.5713 45.1896C55.4218 45.3403 55.2192 45.425 55.0078 45.425C54.7965 45.425 54.5938 45.3403 54.4443 45.1896C54.2949 45.0389 54.2109 44.8345 54.2109 44.6214V43.0142C54.2109 42.8011 54.2949 42.5967 54.4443 42.446C54.5938 42.2953 54.7965 42.2107 55.0078 42.2107C55.2192 42.2107 55.4218 42.2953 55.5713 42.446C55.7207 42.5967 55.8047 42.8011 55.8047 43.0142V44.6214ZM55.8047 39.8C55.8047 40.0131 55.7207 40.2175 55.5713 40.3682C55.4218 40.5189 55.2192 40.6035 55.0078 40.6035C54.7965 40.6035 54.5938 40.5189 54.4443 40.3682C54.2949 40.2175 54.2109 40.0131 54.2109 39.8V38.1928C54.2109 37.9797 54.2949 37.7753 54.4443 37.6246C54.5938 37.4739 54.7965 37.3892 55.0078 37.3892C55.2192 37.3892 55.4218 37.4739 55.5713 37.6246C55.7207 37.7753 55.8047 37.9797 55.8047 38.1928V39.8ZM55.8047 34.9785C55.8047 35.1917 55.7207 35.396 55.5713 35.5467C55.4218 35.6974 55.2192 35.7821 55.0078 35.7821C54.7965 35.7821 54.5938 35.6974 54.4443 35.5467C54.2949 35.396 54.2109 35.1917 54.2109 34.9785V33.3714C54.2109 33.1583 54.2949 32.9539 54.4443 32.8032C54.5938 32.6525 54.7965 32.5678 55.0078 32.5678C55.2192 32.5678 55.4218 32.6525 55.5713 32.8032C55.7207 32.9539 55.8047 33.1583 55.8047 33.3714V34.9785ZM55.8047 30.1571C55.8047 30.3702 55.7207 30.5746 55.5713 30.7253C55.4218 30.876 55.2192 30.9607 55.0078 30.9607C54.7965 30.9607 54.5938 30.876 54.4443 30.7253C54.2949 30.5746 54.2109 30.3702 54.2109 30.1571V28.55C54.2109 28.3368 54.2949 28.1324 54.4443 27.9818C54.5938 27.8311 54.7965 27.7464 55.0078 27.7464C55.2192 27.7464 55.4218 27.8311 55.5713 27.9818C55.7207 28.1324 55.8047 28.3368 55.8047 28.55V30.1571ZM65.7656 67.925H63.375V63.9071H65.7656V67.925Z" fill="#870000"/>
<path d="M69.9464 55.5713C70.1258 55.1621 70.3919 54.7966 70.7266 54.4998V38.8247C70.7266 37.8417 70.0367 37.1984 68.9245 37.0447L61.265 35.5325V37.1359L68.9245 38.6182C68.9819 38.616 69.0377 38.6365 69.0799 38.6753C69.1221 38.714 69.1472 38.7679 69.1496 38.825V57.5313C69.395 56.8698 69.6607 56.2161 69.9464 55.5709V55.5713ZM39.1881 35.5321L31.5286 37.0447C30.5071 37.1737 29.7266 37.8417 29.7266 38.8247V54.4998C30.0612 54.7966 30.3274 55.1621 30.5067 55.5713C30.7924 56.2166 31.0581 56.8705 31.3035 57.5321V38.8243C31.3059 38.7671 31.331 38.7132 31.3732 38.6745C31.4154 38.6357 31.4713 38.6152 31.5286 38.6174L39.1881 37.1351V35.5321Z" fill="#870000"/>
</g>
<defs>
<filter id="filter0_d_6225_15208" x="0.726562" y="0.532104" width="99" height="99" filterUnits="userSpaceOnUse" color-interpolation-filters="sRGB">
<feFlood flood-opacity="0" result="BackgroundImageFix"/>
<feColorMatrix in="SourceAlpha" type="matrix" values="0 0 0 0 0 0 0 0 0 0 0 0 0 0 0 0 0 0 127 0" result="hardAlpha"/>
<feOffset dy="6"/>
<feGaussianBlur stdDeviation="3"/>
<feComposite in2="hardAlpha" operator="out"/>
<feColorMatrix type="matrix" values="0 0 0 0 0 0 0 0 0 0 0 0 0 0 0 0 0 0 0.4 0"/>
<feBlend mode="normal" in2="BackgroundImageFix" result="effect1_dropShadow_6225_15208"/>
<feBlend mode="normal" in="SourceGraphic" in2="effect1_dropShadow_6225_15208" result="shape"/>
</filter>
</defs>
</svg>
