<svg width="30" height="31" viewBox="0 0 30 31" fill="none" xmlns="http://www.w3.org/2000/svg">
<path d="M16.6374 8.20817H13.7207V14.0415H7.88737V16.9582H13.7207V22.7915H16.6374V16.9582H22.4707V14.0415H16.6374V8.20817ZM15.179 0.916504C7.12904 0.916504 0.595703 7.44984 0.595703 15.4998C0.595703 23.5498 7.12904 30.0832 15.179 30.0832C23.229 30.0832 29.7624 23.5498 29.7624 15.4998C29.7624 7.44984 23.229 0.916504 15.179 0.916504ZM15.179 27.1665C8.74779 27.1665 3.51237 21.9311 3.51237 15.4998C3.51237 9.06859 8.74779 3.83317 15.179 3.83317C21.6103 3.83317 26.8457 9.06859 26.8457 15.4998C26.8457 21.9311 21.6103 27.1665 15.179 27.1665Z" fill="#FCFCFC"/>
</svg>
