<svg width="70" height="70" viewBox="0 0 70 70" fill="none" xmlns="http://www.w3.org/2000/svg">
<path d="M70 35C70 54.33 54.33 70 35 70C15.67 70 0 54.33 0 35C0 15.67 15.67 0 35 0C54.33 0 70 15.67 70 35Z" fill="#495894"/>
<path d="M42.4997 34.9987C44.7997 34.9987 46.6497 33.132 46.6497 30.832C46.6497 28.532 44.7997 26.6654 42.4997 26.6654C40.1997 26.6654 38.333 28.532 38.333 30.832C38.333 33.132 40.1997 34.9987 42.4997 34.9987ZM29.9997 33.332C32.7663 33.332 34.983 31.0987 34.983 28.332C34.983 25.5654 32.7663 23.332 29.9997 23.332C27.233 23.332 24.9997 25.5654 24.9997 28.332C24.9997 31.0987 27.233 33.332 29.9997 33.332ZM42.4997 38.332C39.4497 38.332 33.333 39.8654 33.333 42.9154V46.6654H51.6663V42.9154C51.6663 39.8654 45.5497 38.332 42.4997 38.332ZM29.9997 36.6654C26.1163 36.6654 18.333 38.6154 18.333 42.4987V46.6654H29.9997V42.9154C29.9997 41.4987 30.5497 39.0154 33.9497 37.132C32.4997 36.832 31.0997 36.6654 29.9997 36.6654Z" fill="#FCFCFC"/>
</svg>
