<svg width="36" height="37" viewBox="0 0 36 37" fill="none" xmlns="http://www.w3.org/2000/svg">
<path d="M36 18.1355C36 28.0766 27.9411 36.1355 18 36.1355C8.05887 36.1355 0 28.0766 0 18.1355C0 8.19437 8.05887 0.135498 18 0.135498C27.9411 0.135498 36 8.19437 36 18.1355Z" fill="#F9845F"/>
<path d="M22.7252 18.1357C24.1742 18.1357 25.3397 16.9597 25.3397 15.5107C25.3397 14.0617 24.1742 12.8857 22.7252 12.8857C21.2762 12.8857 20.1002 14.0617 20.1002 15.5107C20.1002 16.9597 21.2762 18.1357 22.7252 18.1357ZM14.8502 17.0857C16.5932 17.0857 17.9897 15.6787 17.9897 13.9357C17.9897 12.1927 16.5932 10.7857 14.8502 10.7857C13.1072 10.7857 11.7002 12.1927 11.7002 13.9357C11.7002 15.6787 13.1072 17.0857 14.8502 17.0857ZM22.7252 20.2357C20.8037 20.2357 16.9502 21.2017 16.9502 23.1232V25.4857H28.5002V23.1232C28.5002 21.2017 24.6467 20.2357 22.7252 20.2357ZM14.8502 19.1857C12.4037 19.1857 7.50018 20.4142 7.50018 22.8607V25.4857H14.8502V23.1232C14.8502 22.2307 15.1967 20.6662 17.3387 19.4797C16.4252 19.2907 15.5432 19.1857 14.8502 19.1857Z" fill="white"/>
</svg>
