<svg width="25" height="25" viewBox="0 0 25 25" fill="none" xmlns="http://www.w3.org/2000/svg">
<path fill-rule="evenodd" clip-rule="evenodd" d="M24.8916 11.1846C25.2235 13.9092 24.6114 16.6652 23.1574 18.993C21.7033 21.3209 19.4952 23.08 16.9012 23.977C14.3072 24.8739 11.4841 24.8545 8.90271 23.922C6.32129 22.9895 4.13754 21.2003 2.7156 18.8526C2.56085 18.5974 2.51381 18.2912 2.58484 18.0013C2.65587 17.7114 2.83915 17.4616 3.09435 17.3069C3.34956 17.1521 3.65578 17.1051 3.94567 17.1761C4.23555 17.2472 4.48535 17.4304 4.6401 17.6856C5.40606 18.9505 6.44968 20.0245 7.69199 20.8265C8.93429 21.6285 10.3427 22.1374 11.8107 22.3147C13.2788 22.4921 14.7679 22.3332 16.1654 21.8501C17.5629 21.367 18.8323 20.5723 19.8774 19.5263C20.9225 18.4802 21.716 17.2102 22.1979 15.8122C22.6797 14.4142 22.8373 12.925 22.6586 11.4571C22.48 9.98927 21.9698 8.58128 21.1667 7.3397C20.3636 6.09812 19.2886 5.05546 18.0231 4.29063C17.7677 4.13628 17.5841 3.88678 17.5126 3.59704C17.4412 3.3073 17.4877 3.00104 17.6421 2.74563C17.7965 2.49023 18.0459 2.3066 18.3357 2.23515C18.6254 2.1637 18.9317 2.21028 19.1871 2.36463C20.7445 3.30601 22.0674 4.58927 23.0557 6.11732C24.0439 7.64536 24.6718 9.37817 24.8916 11.1846ZM14.4801 2.13513C14.4801 2.53296 14.3221 2.91449 14.0408 3.19579C13.7595 3.4771 13.3779 3.63513 12.9801 3.63513C12.5823 3.63513 12.2007 3.4771 11.9194 3.19579C11.6381 2.91449 11.4801 2.53296 11.4801 2.13513C11.4801 1.73731 11.6381 1.35578 11.9194 1.07447C12.2007 0.793167 12.5823 0.635132 12.9801 0.635132C13.3779 0.635132 13.7595 0.793167 14.0408 1.07447C14.3221 1.35578 14.4801 1.73731 14.4801 2.13513ZM5.1861 8.13513C5.28615 7.96448 5.35145 7.77572 5.37825 7.57972C5.40505 7.38372 5.39281 7.18436 5.34225 6.99311C5.29169 6.80186 5.20379 6.6225 5.08363 6.46536C4.96347 6.30822 4.81341 6.1764 4.64209 6.07749C4.47078 5.97857 4.28159 5.91453 4.08542 5.88903C3.88925 5.86353 3.68997 5.87709 3.49906 5.92892C3.30815 5.98075 3.12938 6.06983 2.97304 6.19103C2.8167 6.31223 2.68588 6.46316 2.5881 6.63513C2.39233 6.97947 2.3407 7.38727 2.44448 7.76953C2.54826 8.15179 2.79903 8.47749 3.14206 8.67554C3.48509 8.8736 3.89254 8.92793 4.27548 8.82669C4.65842 8.72544 4.98578 8.47684 5.1861 8.13513ZM2.4801 11.1351C2.87793 11.1351 3.25946 11.2932 3.54076 11.5745C3.82207 11.8558 3.9801 12.2373 3.9801 12.6351C3.9801 13.033 3.82207 13.4145 3.54076 13.6958C3.25946 13.9771 2.87793 14.1351 2.4801 14.1351C2.08228 14.1351 1.70075 13.9771 1.41944 13.6958C1.13814 13.4145 0.980103 13.033 0.980103 12.6351C0.980103 12.2373 1.13814 11.8558 1.41944 11.5745C1.70075 11.2932 2.08228 11.1351 2.4801 11.1351ZM8.4801 4.84113C8.65207 4.74336 8.803 4.61253 8.9242 4.45619C9.04541 4.29985 9.13449 4.12108 9.18632 3.93017C9.23815 3.73926 9.2517 3.53998 9.22621 3.34382C9.20071 3.14765 9.13666 2.95846 9.03775 2.78714C8.93884 2.61582 8.80701 2.46577 8.64987 2.3456C8.49273 2.22544 8.31337 2.13755 8.12212 2.08698C7.93087 2.03642 7.73151 2.02419 7.53551 2.05098C7.33952 2.07778 7.15076 2.14309 6.9801 2.24313C6.63839 2.44346 6.38979 2.77081 6.28855 3.15375C6.1873 3.5367 6.24164 3.94414 6.43969 4.28717C6.63775 4.6302 6.96344 4.88097 7.34571 4.98476C7.72797 5.08854 8.13576 5.03691 8.4801 4.84113Z" fill="#CCCCCC"/>
</svg>
