<svg width="15" height="16" viewBox="0 0 15 16" fill="none" xmlns="http://www.w3.org/2000/svg">
<path d="M15 8C15 12.1421 11.6421 15.5 7.5 15.5C3.35786 15.5 0 12.1421 0 8C0 3.85786 3.35786 0.5 7.5 0.5C11.6421 0.5 15 3.85786 15 8Z" fill="#DF3131"/>
<rect width="10.5" height="10.5" transform="translate(2.09961 2.59961)" fill="#DF3131"/>
<mask id="mask0_5529_8432" style="mask-type:alpha" maskUnits="userSpaceOnUse" x="2" y="2" width="11" height="12">
<rect x="2.09961" y="2.59961" width="10.5" height="10.5" fill="#D9D9D9"/>
</mask>
<g mask="url(#mask0_5529_8432)">
<path d="M3.74217 4.65811C3.72899 4.6866 3.72772 4.71914 3.73864 4.74856C3.74956 4.77798 3.77177 4.80188 3.8004 4.815L4.0458 4.92747C4.07431 4.93987 4.10656 4.94065 4.13564 4.92964C4.16472 4.91864 4.1883 4.89672 4.20132 4.8686C4.21434 4.84049 4.21577 4.80841 4.20529 4.77926C4.19481 4.75011 4.17326 4.72621 4.14527 4.71269L3.89981 4.60016C3.88564 4.59364 3.87031 4.58997 3.85471 4.58936C3.83911 4.58874 3.82355 4.5912 3.8089 4.59658C3.79426 4.60196 3.78083 4.61017 3.76937 4.62073C3.75792 4.63129 3.74868 4.64399 3.74217 4.65811ZM4.69384 4.38054C4.71276 4.3805 4.7314 4.37596 4.74821 4.36732C4.76502 4.35867 4.77952 4.34616 4.7905 4.33082C4.80148 4.31548 4.80862 4.29776 4.81134 4.27912C4.81406 4.26048 4.81228 4.24147 4.80614 4.22366L4.71683 3.96566C4.71183 3.95086 4.70394 3.93719 4.69361 3.92545C4.68327 3.9137 4.67071 3.90411 4.65663 3.89722C4.64256 3.89033 4.62725 3.88628 4.61159 3.88531C4.59594 3.88434 4.58024 3.88646 4.56542 3.89155C4.55059 3.89665 4.53692 3.90461 4.5252 3.91499C4.51348 3.92536 4.50394 3.93794 4.49713 3.95201C4.49032 3.96607 4.48638 3.98133 4.48552 3.99692C4.48467 4.01251 4.48693 4.02811 4.49216 4.04282L4.58153 4.30083C4.5896 4.32408 4.60475 4.34426 4.62488 4.35855C4.64501 4.37283 4.66911 4.38052 4.69384 4.38054ZM3.79071 5.84771C3.80534 5.84771 3.81984 5.84502 3.8335 5.83979L4.09126 5.7408C4.12067 5.72951 4.14438 5.70705 4.15715 5.67836C4.16993 5.64968 4.17073 5.61712 4.15938 5.58785C4.14804 5.55857 4.12547 5.53499 4.09665 5.52227C4.06783 5.50956 4.03511 5.50876 4.00569 5.52005L3.74793 5.61904C3.722 5.62895 3.70038 5.64759 3.68683 5.67171C3.67327 5.69583 3.66863 5.72392 3.67371 5.75109C3.6788 5.77826 3.69328 5.80281 3.71466 5.82046C3.73603 5.83811 3.76294 5.84775 3.79071 5.84771ZM4.24842 4.2032C4.22732 4.17989 4.19778 4.16588 4.1663 4.16425C4.13482 4.16262 4.10398 4.1735 4.08056 4.1945C4.05714 4.2155 4.04307 4.2449 4.04143 4.27623C4.03979 4.30756 4.05073 4.33825 4.07183 4.36156L4.25318 4.56202C4.26363 4.57356 4.27626 4.58295 4.29035 4.58963C4.30444 4.59632 4.31972 4.60018 4.33531 4.60099C4.3509 4.6018 4.3665 4.59954 4.38121 4.59435C4.39593 4.58916 4.40947 4.58114 4.42107 4.57074C4.43267 4.56035 4.4421 4.54778 4.44881 4.53375C4.45553 4.51973 4.45941 4.50452 4.46022 4.48901C4.46104 4.47349 4.45877 4.45797 4.45356 4.44333C4.44834 4.42868 4.44028 4.4152 4.42983 4.40366L4.24842 4.2032ZM3.71994 5.10044C3.68843 5.10004 3.65804 5.11213 3.63548 5.13403C3.61291 5.15593 3.60001 5.18586 3.59962 5.21723C3.59922 5.24859 3.61137 5.27883 3.63338 5.30129C3.65538 5.32374 3.68545 5.33658 3.71697 5.33697L3.98947 5.34365C3.99046 5.34368 3.99145 5.34368 3.99244 5.34365C4.02336 5.34314 4.05286 5.33066 4.07468 5.30886C4.0965 5.28706 4.10892 5.25765 4.10931 5.22688C4.10969 5.19611 4.09802 5.1664 4.07675 5.14406C4.05549 5.12173 4.02631 5.10851 3.99541 5.10724L3.72291 5.10049H3.71994V5.10044ZM4.04556 6.28252C4.07553 6.28258 4.10441 6.27134 4.12638 6.25106L4.33137 6.06207C4.34283 6.05151 4.35207 6.03881 4.35859 6.02469C4.36511 6.01057 4.36877 5.99531 4.36936 5.97979C4.36996 5.96426 4.36747 5.94877 4.36205 5.9342C4.35663 5.91963 4.34837 5.90627 4.33776 5.89487C4.32715 5.88347 4.31439 5.87427 4.3002 5.86778C4.28601 5.8613 4.27068 5.85765 4.25508 5.85706C4.23948 5.85647 4.22391 5.85895 4.20927 5.86434C4.19463 5.86974 4.1812 5.87795 4.16975 5.88851L3.96475 6.07745C3.94721 6.0936 3.93496 6.11465 3.92963 6.13784C3.92429 6.16103 3.9261 6.18528 3.93483 6.20743C3.94355 6.22958 3.95879 6.2486 3.97855 6.26199C3.9983 6.27539 4.02166 6.28254 4.04556 6.28252ZM5.11999 4.31141C5.14988 4.31138 5.17866 4.30015 5.20059 4.27996C5.22253 4.25976 5.23601 4.23208 5.23836 4.20243L5.26023 3.92639C5.26145 3.91091 5.2596 3.89533 5.25478 3.88056C5.24995 3.86579 5.24225 3.85211 5.23212 3.84029C5.21165 3.81644 5.18249 3.80166 5.15107 3.79919C5.13551 3.79797 5.11986 3.79982 5.10502 3.80462C5.09018 3.80942 5.07643 3.81708 5.06456 3.82716C5.04059 3.84754 5.02573 3.87655 5.02326 3.90782L5.00139 4.18386C5.00017 4.19934 5.00202 4.21492 5.00684 4.22969C5.01166 4.24446 5.01936 4.25815 5.0295 4.26996C5.03963 4.28177 5.05201 4.29148 5.06591 4.29853C5.07982 4.30558 5.09499 4.30984 5.11055 4.31106C5.11376 4.31129 5.11685 4.31141 5.12005 4.31141H5.11999ZM4.32781 5.5751C4.36226 5.6709 4.41555 5.75891 4.48459 5.83396C4.55362 5.90902 4.637 5.96962 4.72984 6.01222C4.75836 6.02464 4.79064 6.02542 4.81973 6.01441C4.84883 6.00339 4.87242 5.98146 4.88543 5.95331C4.89845 5.92517 4.89985 5.89307 4.88933 5.86391C4.87881 5.83476 4.85722 5.81087 4.82919 5.79739C4.7649 5.76774 4.70719 5.72564 4.65943 5.67354C4.61168 5.62145 4.57483 5.5604 4.55105 5.49397C4.52406 5.41941 4.51227 5.34025 4.51636 5.26111C4.52045 5.18197 4.54035 5.10443 4.57488 5.03302C4.71392 4.73836 5.05463 4.60294 5.33402 4.73108C5.36265 4.74421 5.39535 4.74548 5.42491 4.73462C5.45448 4.72376 5.47851 4.70165 5.4917 4.67316C5.50489 4.64467 5.50616 4.61214 5.49525 4.58271C5.48433 4.55328 5.46212 4.52938 5.43349 4.51625C5.03568 4.33382 4.55402 4.52069 4.35978 4.93255C4.3118 5.03218 4.28427 5.14032 4.27878 5.25066C4.27329 5.36099 4.28996 5.47131 4.32781 5.57516V5.5751ZM9.42425 7.4652C9.42425 7.43384 9.41173 7.40375 9.38944 7.38157C9.36716 7.35939 9.33693 7.34693 9.30541 7.34693C9.27389 7.34693 9.24366 7.35939 9.22138 7.38157C9.19909 7.40375 9.18657 7.43384 9.18657 7.4652V7.70174C9.18657 7.7331 9.19909 7.76319 9.22138 7.78537C9.24366 7.80755 9.27389 7.82001 9.30541 7.82001C9.33693 7.82001 9.36716 7.80755 9.38944 7.78537C9.41173 7.76319 9.42425 7.7331 9.42425 7.70174V7.4652ZM9.89961 7.4652C9.89961 7.43384 9.88709 7.40375 9.8648 7.38157C9.84251 7.35939 9.81229 7.34693 9.78077 7.34693C9.74925 7.34693 9.71902 7.35939 9.69674 7.38157C9.67445 7.40375 9.66193 7.43384 9.66193 7.4652V7.70174C9.66193 7.7331 9.67445 7.76319 9.69674 7.78537C9.71902 7.80755 9.74925 7.82001 9.78077 7.82001C9.81229 7.82001 9.84251 7.80755 9.8648 7.78537C9.88709 7.76319 9.89961 7.7331 9.89961 7.70174V7.4652ZM9.42425 8.17481C9.42425 8.14344 9.41173 8.11336 9.38944 8.09118C9.36716 8.069 9.33693 8.05654 9.30541 8.05654C9.27389 8.05654 9.24366 8.069 9.22138 8.09118C9.19909 8.11336 9.18657 8.14344 9.18657 8.17481V8.41135C9.18657 8.44271 9.19909 8.47279 9.22138 8.49497C9.24366 8.51715 9.27389 8.52961 9.30541 8.52961C9.33693 8.52961 9.36716 8.51715 9.38944 8.49497C9.41173 8.47279 9.42425 8.44271 9.42425 8.41135V8.17481ZM9.89961 8.17481C9.89961 8.14344 9.88709 8.11336 9.8648 8.09118C9.84251 8.069 9.81229 8.05654 9.78077 8.05654C9.74925 8.05654 9.71902 8.069 9.69674 8.09118C9.67445 8.11336 9.66193 8.14344 9.66193 8.17481V8.41135C9.66193 8.44271 9.67445 8.47279 9.69674 8.49497C9.71902 8.51715 9.74925 8.52961 9.78077 8.52961C9.81229 8.52961 9.84251 8.51715 9.8648 8.49497C9.88709 8.47279 9.89961 8.44271 9.89961 8.41135V8.17481ZM9.42425 8.88442C9.42425 8.85305 9.41173 8.82297 9.38944 8.80079C9.36716 8.77861 9.33693 8.76615 9.30541 8.76615C9.27389 8.76615 9.24366 8.77861 9.22138 8.80079C9.19909 8.82297 9.18657 8.85305 9.18657 8.88442V9.12095C9.18657 9.15232 9.19909 9.1824 9.22138 9.20458C9.24366 9.22676 9.27389 9.23922 9.30541 9.23922C9.33693 9.23922 9.36716 9.22676 9.38944 9.20458C9.41173 9.1824 9.42425 9.15232 9.42425 9.12095V8.88442ZM9.89961 8.88442C9.89961 8.85305 9.88709 8.82297 9.8648 8.80079C9.84251 8.77861 9.81229 8.76615 9.78077 8.76615C9.74925 8.76615 9.71902 8.77861 9.69674 8.80079C9.67445 8.82297 9.66193 8.85305 9.66193 8.88442V9.12095C9.66193 9.15232 9.67445 9.1824 9.69674 9.20458C9.71902 9.22676 9.74925 9.23922 9.78077 9.23922C9.81229 9.23922 9.84251 9.22676 9.8648 9.20458C9.88709 9.1824 9.89961 9.15232 9.89961 9.12095V8.88442ZM9.30541 9.47576C9.27389 9.47576 9.24366 9.48822 9.22138 9.5104C9.19909 9.53258 9.18657 9.56266 9.18657 9.59402V9.83056C9.18657 9.86193 9.19909 9.89201 9.22138 9.91419C9.24366 9.93637 9.27389 9.94883 9.30541 9.94883C9.33693 9.94883 9.36716 9.93637 9.38944 9.91419C9.41173 9.89201 9.42425 9.86193 9.42425 9.83056V9.59402C9.42425 9.56266 9.41173 9.53258 9.38944 9.5104C9.36716 9.48822 9.33693 9.47576 9.30541 9.47576ZM9.78077 9.47576C9.74925 9.47576 9.71902 9.48822 9.69674 9.5104C9.67445 9.53258 9.66193 9.56266 9.66193 9.59402V9.83056C9.66193 9.86193 9.67445 9.89201 9.69674 9.91419C9.71902 9.93637 9.74925 9.94883 9.78077 9.94883C9.81229 9.94883 9.84251 9.93637 9.8648 9.91419C9.88709 9.89201 9.89961 9.86193 9.89961 9.83056V9.59402C9.89961 9.56266 9.88709 9.53258 9.8648 9.5104C9.84251 9.48822 9.81229 9.47576 9.78077 9.47576ZM5.62138 7.4652C5.62138 7.43384 5.60886 7.40375 5.58657 7.38157C5.56429 7.35939 5.53406 7.34693 5.50254 7.34693C5.47102 7.34693 5.44079 7.35939 5.41851 7.38157C5.39622 7.40375 5.3837 7.43384 5.3837 7.4652V7.70174C5.3837 7.7331 5.39622 7.76319 5.41851 7.78537C5.44079 7.80755 5.47102 7.82001 5.50254 7.82001C5.53406 7.82001 5.56429 7.80755 5.58657 7.78537C5.60886 7.76319 5.62138 7.7331 5.62138 7.70174V7.4652ZM5.14602 7.4652C5.14602 7.43384 5.1335 7.40375 5.11121 7.38157C5.08893 7.35939 5.0587 7.34693 5.02718 7.34693C4.99566 7.34693 4.96544 7.35939 4.94315 7.38157C4.92086 7.40375 4.90834 7.43384 4.90834 7.4652V7.70174C4.90834 7.7331 4.92086 7.76319 4.94315 7.78537C4.96544 7.80755 4.99566 7.82001 5.02718 7.82001C5.0587 7.82001 5.08893 7.80755 5.11121 7.78537C5.1335 7.76319 5.14602 7.7331 5.14602 7.70174V7.4652ZM5.62138 8.17481C5.62138 8.14344 5.60886 8.11336 5.58657 8.09118C5.56429 8.069 5.53406 8.05654 5.50254 8.05654C5.47102 8.05654 5.44079 8.069 5.41851 8.09118C5.39622 8.11336 5.3837 8.14344 5.3837 8.17481V8.41135C5.3837 8.44271 5.39622 8.47279 5.41851 8.49497C5.44079 8.51715 5.47102 8.52961 5.50254 8.52961C5.53406 8.52961 5.56429 8.51715 5.58657 8.49497C5.60886 8.47279 5.62138 8.44271 5.62138 8.41135V8.17481ZM5.14602 8.17481C5.14602 8.14344 5.1335 8.11336 5.11121 8.09118C5.08893 8.069 5.0587 8.05654 5.02718 8.05654C4.99566 8.05654 4.96544 8.069 4.94315 8.09118C4.92086 8.11336 4.90834 8.14344 4.90834 8.17481V8.41135C4.90834 8.44271 4.92086 8.47279 4.94315 8.49497C4.96544 8.51715 4.99566 8.52961 5.02718 8.52961C5.0587 8.52961 5.08893 8.51715 5.11121 8.49497C5.1335 8.47279 5.14602 8.44271 5.14602 8.41135V8.17481ZM5.62138 8.88442C5.62138 8.85305 5.60886 8.82297 5.58657 8.80079C5.56429 8.77861 5.53406 8.76615 5.50254 8.76615C5.47102 8.76615 5.44079 8.77861 5.41851 8.80079C5.39622 8.82297 5.3837 8.85305 5.3837 8.88442V9.12095C5.3837 9.15232 5.39622 9.1824 5.41851 9.20458C5.44079 9.22676 5.47102 9.23922 5.50254 9.23922C5.53406 9.23922 5.56429 9.22676 5.58657 9.20458C5.60886 9.1824 5.62138 9.15232 5.62138 9.12095V8.88442ZM5.14602 8.88442C5.14602 8.85305 5.1335 8.82297 5.11121 8.80079C5.08893 8.77861 5.0587 8.76615 5.02718 8.76615C4.99566 8.76615 4.96544 8.77861 4.94315 8.80079C4.92086 8.82297 4.90834 8.85305 4.90834 8.88442V9.12095C4.90834 9.15232 4.92086 9.1824 4.94315 9.20458C4.96544 9.22676 4.99566 9.23922 5.02718 9.23922C5.0587 9.23922 5.08893 9.22676 5.11121 9.20458C5.1335 9.1824 5.14602 9.15232 5.14602 9.12095V8.88442ZM5.50254 9.47576C5.47102 9.47576 5.44079 9.48822 5.41851 9.5104C5.39622 9.53258 5.3837 9.56266 5.3837 9.59402V9.83056C5.3837 9.86193 5.39622 9.89201 5.41851 9.91419C5.44079 9.93637 5.47102 9.94883 5.50254 9.94883C5.53406 9.94883 5.56429 9.93637 5.58657 9.91419C5.60886 9.89201 5.62138 9.86193 5.62138 9.83056V9.59402C5.62138 9.56266 5.60886 9.53258 5.58657 9.5104C5.56429 9.48822 5.53406 9.47576 5.50254 9.47576ZM5.02718 9.47576C4.99566 9.47576 4.96544 9.48822 4.94315 9.5104C4.92086 9.53258 4.90834 9.56266 4.90834 9.59402V9.83056C4.90834 9.86193 4.92086 9.89201 4.94315 9.91419C4.96544 9.93637 4.99566 9.94883 5.02718 9.94883C5.0587 9.94883 5.08893 9.93637 5.11121 9.91419C5.1335 9.89201 5.14602 9.86193 5.14602 9.83056V9.59402C5.14602 9.56266 5.1335 9.53258 5.11121 9.5104C5.08893 9.48822 5.0587 9.47576 5.02718 9.47576Z" fill="#F8A5A5"/>
<path d="M11.2496 10.2009C11.2496 10.0556 11.1755 9.81156 11.0294 9.47557C11.0136 9.43555 10.9863 9.40123 10.951 9.37705C10.9157 9.35287 10.874 9.33994 10.8313 9.33993C10.7886 9.33992 10.7469 9.35284 10.7115 9.37701C10.6762 9.40119 10.6489 9.4355 10.6331 9.47551C10.487 9.81156 10.4129 10.0556 10.4129 10.2009C10.4129 10.4707 10.5372 10.6922 10.7117 10.7626V11.2081H10.4727V10.8967C10.3997 10.8367 10.3389 10.7632 10.2934 10.6801V11.2081H9.99453V10.6055C9.99447 10.5416 9.96926 10.4803 9.92444 10.4351C9.87962 10.3899 9.81885 10.3645 9.75547 10.3644H9.39687C9.33349 10.3645 9.27272 10.3899 9.2279 10.4351C9.18308 10.4803 9.15788 10.5416 9.15781 10.6055V11.2081H8.85898V4.94029C8.85898 4.87635 8.8338 4.81504 8.78896 4.76983C8.74413 4.72462 8.68332 4.69922 8.61992 4.69922H6.2293C6.16589 4.69922 6.10509 4.72462 6.06025 4.76983C6.01542 4.81504 5.99023 4.87635 5.99023 4.94029V11.2081H5.69141V10.6055C5.69134 10.5416 5.66614 10.4803 5.62132 10.4351C5.5765 10.3899 5.51573 10.3645 5.45234 10.3644H5.09375C5.03037 10.3645 4.9696 10.3899 4.92478 10.4351C4.87996 10.4803 4.85475 10.5416 4.85469 10.6055V11.2081H4.55586V10.6801C4.51036 10.7632 4.4495 10.8367 4.37656 10.8967V11.2081H4.1375V10.7625C4.31202 10.6922 4.43633 10.4707 4.43633 10.2009C4.43633 10.0556 4.36222 9.81156 4.21609 9.47557C4.19999 9.43578 4.1726 9.40168 4.13735 9.37754C4.10211 9.35339 4.06058 9.34028 4.01797 9.33984C3.97537 9.34027 3.93384 9.35338 3.8986 9.37751C3.86335 9.40165 3.83596 9.43574 3.81985 9.47551C3.67372 9.81156 3.59961 10.0556 3.59961 10.2009C3.59961 10.4707 3.72392 10.6922 3.89844 10.7626V11.2081H3.71914C3.68744 11.2081 3.65704 11.2208 3.63462 11.2435C3.6122 11.2661 3.59961 11.2967 3.59961 11.3287C3.59961 11.3607 3.6122 11.3913 3.63462 11.4139C3.65704 11.4365 3.68744 11.4492 3.71914 11.4492H11.1301C11.1618 11.4492 11.1922 11.4365 11.2146 11.4139C11.237 11.3913 11.2496 11.3607 11.2496 11.3287C11.2496 11.2967 11.237 11.2661 11.2146 11.2435C11.1922 11.2208 11.1618 11.2081 11.1301 11.2081H10.9508V10.7625C11.1253 10.6922 11.2496 10.4707 11.2496 10.2009ZM5.45234 11.2081H5.09375V10.6055H5.45234V11.2081ZM7.54414 5.3019C7.54414 5.26993 7.55673 5.23927 7.57915 5.21667C7.60157 5.19406 7.63197 5.18136 7.66367 5.18136C7.69537 5.18136 7.72578 5.19406 7.74819 5.21667C7.77061 5.23927 7.7832 5.26993 7.7832 5.3019V5.54297C7.7832 5.57494 7.77061 5.6056 7.74819 5.6282C7.72578 5.65081 7.69537 5.6635 7.66367 5.6635C7.63197 5.6635 7.60157 5.65081 7.57915 5.6282C7.55673 5.6056 7.54414 5.57494 7.54414 5.54297V5.3019ZM7.54414 6.02511C7.54414 5.99314 7.55673 5.96248 7.57915 5.93988C7.60157 5.91728 7.63197 5.90458 7.66367 5.90458C7.69537 5.90458 7.72578 5.91728 7.74819 5.93988C7.77061 5.96248 7.7832 5.99314 7.7832 6.02511V6.26618C7.7832 6.29815 7.77061 6.32881 7.74819 6.35141C7.72578 6.37402 7.69537 6.38672 7.66367 6.38672C7.63197 6.38672 7.60157 6.37402 7.57915 6.35141C7.55673 6.32881 7.54414 6.29815 7.54414 6.26618V6.02511ZM7.54414 6.74833C7.54414 6.71636 7.55673 6.6857 7.57915 6.66309C7.60157 6.64049 7.63197 6.62779 7.66367 6.62779C7.69537 6.62779 7.72578 6.64049 7.74819 6.66309C7.77061 6.6857 7.7832 6.71636 7.7832 6.74833V6.9894C7.7832 7.02137 7.77061 7.05202 7.74819 7.07463C7.72578 7.09723 7.69537 7.10993 7.66367 7.10993C7.63197 7.10993 7.60157 7.09723 7.57915 7.07463C7.55673 7.05202 7.54414 7.02137 7.54414 6.9894V6.74833ZM7.54414 7.47154C7.54414 7.43957 7.55673 7.40891 7.57915 7.38631C7.60157 7.3637 7.63197 7.351 7.66367 7.351C7.69537 7.351 7.72578 7.3637 7.74819 7.38631C7.77061 7.40891 7.7832 7.43957 7.7832 7.47154V7.71261C7.7832 7.74458 7.77061 7.77524 7.74819 7.79784C7.72578 7.82045 7.69537 7.83315 7.66367 7.83315C7.63197 7.83315 7.60157 7.82045 7.57915 7.79784C7.55673 7.77524 7.54414 7.74458 7.54414 7.71261V7.47154ZM7.54414 8.19475C7.54414 8.16279 7.55673 8.13213 7.57915 8.10952C7.60157 8.08692 7.63197 8.07422 7.66367 8.07422C7.69537 8.07422 7.72578 8.08692 7.74819 8.10952C7.77061 8.13213 7.7832 8.16279 7.7832 8.19475V8.43583C7.7832 8.46779 7.77061 8.49845 7.74819 8.52106C7.72578 8.54366 7.69537 8.55636 7.66367 8.55636C7.63197 8.55636 7.60157 8.54366 7.57915 8.52106C7.55673 8.49845 7.54414 8.46779 7.54414 8.43583V8.19475ZM7.54414 8.91797C7.54414 8.886 7.55673 8.85534 7.57915 8.83274C7.60157 8.81013 7.63197 8.79743 7.66367 8.79743C7.69537 8.79743 7.72578 8.81013 7.74819 8.83274C7.77061 8.85534 7.7832 8.886 7.7832 8.91797V9.15904C7.7832 9.19101 7.77061 9.22167 7.74819 9.24427C7.72578 9.26688 7.69537 9.27958 7.66367 9.27958C7.63197 9.27958 7.60157 9.26688 7.57915 9.24427C7.55673 9.22167 7.54414 9.19101 7.54414 9.15904V8.91797ZM7.06602 5.3019C7.06602 5.26993 7.07861 5.23927 7.10103 5.21667C7.12344 5.19406 7.15384 5.18136 7.18555 5.18136C7.21725 5.18136 7.24765 5.19406 7.27007 5.21667C7.29248 5.23927 7.30508 5.26993 7.30508 5.3019V5.54297C7.30508 5.57494 7.29248 5.6056 7.27007 5.6282C7.24765 5.65081 7.21725 5.6635 7.18555 5.6635C7.15384 5.6635 7.12344 5.65081 7.10103 5.6282C7.07861 5.6056 7.06602 5.57494 7.06602 5.54297V5.3019ZM7.06602 6.02511C7.06602 5.99314 7.07861 5.96248 7.10103 5.93988C7.12344 5.91728 7.15384 5.90458 7.18555 5.90458C7.21725 5.90458 7.24765 5.91728 7.27007 5.93988C7.29248 5.96248 7.30508 5.99314 7.30508 6.02511V6.26618C7.30508 6.29815 7.29248 6.32881 7.27007 6.35141C7.24765 6.37402 7.21725 6.38672 7.18555 6.38672C7.15384 6.38672 7.12344 6.37402 7.10103 6.35141C7.07861 6.32881 7.06602 6.29815 7.06602 6.26618V6.02511ZM7.06602 6.74833C7.06602 6.71636 7.07861 6.6857 7.10103 6.66309C7.12344 6.64049 7.15384 6.62779 7.18555 6.62779C7.21725 6.62779 7.24765 6.64049 7.27007 6.66309C7.29248 6.6857 7.30508 6.71636 7.30508 6.74833V6.9894C7.30508 7.02137 7.29248 7.05202 7.27007 7.07463C7.24765 7.09723 7.21725 7.10993 7.18555 7.10993C7.15384 7.10993 7.12344 7.09723 7.10103 7.07463C7.07861 7.05202 7.06602 7.02137 7.06602 6.9894V6.74833ZM7.06602 7.47154C7.06602 7.43957 7.07861 7.40891 7.10103 7.38631C7.12344 7.3637 7.15384 7.351 7.18555 7.351C7.21725 7.351 7.24765 7.3637 7.27007 7.38631C7.29248 7.40891 7.30508 7.43957 7.30508 7.47154V7.71261C7.30508 7.74458 7.29248 7.77524 7.27007 7.79784C7.24765 7.82045 7.21725 7.83315 7.18555 7.83315C7.15384 7.83315 7.12344 7.82045 7.10103 7.79784C7.07861 7.77524 7.06602 7.74458 7.06602 7.71261V7.47154ZM7.06602 8.19475C7.06602 8.16279 7.07861 8.13213 7.10103 8.10952C7.12344 8.08692 7.15384 8.07422 7.18555 8.07422C7.21725 8.07422 7.24765 8.08692 7.27007 8.10952C7.29248 8.13213 7.30508 8.16279 7.30508 8.19475V8.43583C7.30508 8.46779 7.29248 8.49845 7.27007 8.52106C7.24765 8.54366 7.21725 8.55636 7.18555 8.55636C7.15384 8.55636 7.12344 8.54366 7.10103 8.52106C7.07861 8.49845 7.06602 8.46779 7.06602 8.43583V8.19475ZM7.06602 8.91797C7.06602 8.886 7.07861 8.85534 7.10103 8.83274C7.12344 8.81013 7.15384 8.79743 7.18555 8.79743C7.21725 8.79743 7.24765 8.81013 7.27007 8.83274C7.29248 8.85534 7.30508 8.886 7.30508 8.91797V9.15904C7.30508 9.19101 7.29248 9.22167 7.27007 9.24427C7.24765 9.26688 7.21725 9.27958 7.18555 9.27958C7.15384 9.27958 7.12344 9.26688 7.10103 9.24427C7.07861 9.22167 7.06602 9.19101 7.06602 9.15904V8.91797ZM6.58789 5.3019C6.58789 5.26993 6.60048 5.23927 6.6229 5.21667C6.64532 5.19406 6.67572 5.18136 6.70742 5.18136C6.73912 5.18136 6.76953 5.19406 6.79194 5.21667C6.81436 5.23927 6.82695 5.26993 6.82695 5.3019V5.54297C6.82695 5.57494 6.81436 5.6056 6.79194 5.6282C6.76953 5.65081 6.73912 5.6635 6.70742 5.6635C6.67572 5.6635 6.64532 5.65081 6.6229 5.6282C6.60048 5.6056 6.58789 5.57494 6.58789 5.54297V5.3019ZM6.58789 6.02511C6.58789 5.99314 6.60048 5.96248 6.6229 5.93988C6.64532 5.91728 6.67572 5.90458 6.70742 5.90458C6.73912 5.90458 6.76953 5.91728 6.79194 5.93988C6.81436 5.96248 6.82695 5.99314 6.82695 6.02511V6.26618C6.82695 6.29815 6.81436 6.32881 6.79194 6.35141C6.76953 6.37402 6.73912 6.38672 6.70742 6.38672C6.67572 6.38672 6.64532 6.37402 6.6229 6.35141C6.60048 6.32881 6.58789 6.29815 6.58789 6.26618V6.02511ZM6.58789 6.74833C6.58789 6.71636 6.60048 6.6857 6.6229 6.66309C6.64532 6.64049 6.67572 6.62779 6.70742 6.62779C6.73912 6.62779 6.76953 6.64049 6.79194 6.66309C6.81436 6.6857 6.82695 6.71636 6.82695 6.74833V6.9894C6.82695 7.02137 6.81436 7.05202 6.79194 7.07463C6.76953 7.09723 6.73912 7.10993 6.70742 7.10993C6.67572 7.10993 6.64532 7.09723 6.6229 7.07463C6.60048 7.05202 6.58789 7.02137 6.58789 6.9894V6.74833ZM6.58789 7.47154C6.58789 7.43957 6.60048 7.40891 6.6229 7.38631C6.64532 7.3637 6.67572 7.351 6.70742 7.351C6.73912 7.351 6.76953 7.3637 6.79194 7.38631C6.81436 7.40891 6.82695 7.43957 6.82695 7.47154V7.71261C6.82695 7.74458 6.81436 7.77524 6.79194 7.79784C6.76953 7.82045 6.73912 7.83315 6.70742 7.83315C6.67572 7.83315 6.64532 7.82045 6.6229 7.79784C6.60048 7.77524 6.58789 7.74458 6.58789 7.71261V7.47154ZM6.58789 8.19475C6.58789 8.16279 6.60048 8.13213 6.6229 8.10952C6.64532 8.08692 6.67572 8.07422 6.70742 8.07422C6.73912 8.07422 6.76953 8.08692 6.79194 8.10952C6.81436 8.13213 6.82695 8.16279 6.82695 8.19475V8.43583C6.82695 8.46779 6.81436 8.49845 6.79194 8.52106C6.76953 8.54366 6.73912 8.55636 6.70742 8.55636C6.67572 8.55636 6.64532 8.54366 6.6229 8.52106C6.60048 8.49845 6.58789 8.46779 6.58789 8.43583V8.19475ZM6.70742 9.27958C6.67572 9.27958 6.64532 9.26688 6.6229 9.24427C6.60048 9.22167 6.58789 9.19101 6.58789 9.15904V8.91797C6.58789 8.886 6.60048 8.85534 6.6229 8.83274C6.64532 8.81013 6.67572 8.79743 6.70742 8.79743C6.73912 8.79743 6.76953 8.81013 6.79194 8.83274C6.81436 8.85534 6.82695 8.886 6.82695 8.91797V9.15904C6.82695 9.19101 6.81436 9.22167 6.79194 9.24427C6.76953 9.26688 6.73912 9.27958 6.70742 9.27958ZM8.02226 11.2081H6.82695V9.88225C6.82695 9.85029 6.83955 9.81963 6.86196 9.79702C6.88438 9.77442 6.91478 9.76172 6.94648 9.76172H7.90273C7.93444 9.76172 7.96484 9.77442 7.98726 9.79702C8.00967 9.81963 8.02226 9.85029 8.02226 9.88225V11.2081ZM8.26133 9.15904C8.26133 9.19101 8.24873 9.22167 8.22632 9.24427C8.2039 9.26688 8.1735 9.27958 8.1418 9.27958C8.11009 9.27958 8.07969 9.26688 8.05727 9.24427C8.03486 9.22167 8.02226 9.19101 8.02226 9.15904V8.91797C8.02226 8.886 8.03486 8.85534 8.05727 8.83274C8.07969 8.81013 8.11009 8.79743 8.1418 8.79743C8.1735 8.79743 8.2039 8.81013 8.22632 8.83274C8.24873 8.85534 8.26133 8.886 8.26133 8.91797V9.15904ZM8.26133 8.43583C8.26133 8.46779 8.24873 8.49845 8.22632 8.52106C8.2039 8.54366 8.1735 8.55636 8.1418 8.55636C8.11009 8.55636 8.07969 8.54366 8.05727 8.52106C8.03486 8.49845 8.02226 8.46779 8.02226 8.43583V8.19475C8.02226 8.16279 8.03486 8.13213 8.05727 8.10952C8.07969 8.08692 8.11009 8.07422 8.1418 8.07422C8.1735 8.07422 8.2039 8.08692 8.22632 8.10952C8.24873 8.13213 8.26133 8.16279 8.26133 8.19475V8.43583ZM8.26133 7.71261C8.26133 7.74458 8.24873 7.77524 8.22632 7.79784C8.2039 7.82045 8.1735 7.83315 8.1418 7.83315C8.11009 7.83315 8.07969 7.82045 8.05727 7.79784C8.03486 7.77524 8.02226 7.74458 8.02226 7.71261V7.47154C8.02226 7.43957 8.03486 7.40891 8.05727 7.38631C8.07969 7.3637 8.11009 7.351 8.1418 7.351C8.1735 7.351 8.2039 7.3637 8.22632 7.38631C8.24873 7.40891 8.26133 7.43957 8.26133 7.47154V7.71261ZM8.26133 6.9894C8.26133 7.02137 8.24873 7.05202 8.22632 7.07463C8.2039 7.09723 8.1735 7.10993 8.1418 7.10993C8.11009 7.10993 8.07969 7.09723 8.05727 7.07463C8.03486 7.05202 8.02226 7.02137 8.02226 6.9894V6.74833C8.02226 6.71636 8.03486 6.6857 8.05727 6.66309C8.07969 6.64049 8.11009 6.62779 8.1418 6.62779C8.1735 6.62779 8.2039 6.64049 8.22632 6.66309C8.24873 6.6857 8.26133 6.71636 8.26133 6.74833V6.9894ZM8.26133 6.26618C8.26133 6.29815 8.24873 6.32881 8.22632 6.35141C8.2039 6.37402 8.1735 6.38672 8.1418 6.38672C8.11009 6.38672 8.07969 6.37402 8.05727 6.35141C8.03486 6.32881 8.02226 6.29815 8.02226 6.26618V6.02511C8.02226 5.99314 8.03486 5.96248 8.05727 5.93988C8.07969 5.91728 8.11009 5.90458 8.1418 5.90458C8.1735 5.90458 8.2039 5.91728 8.22632 5.93988C8.24873 5.96248 8.26133 5.99314 8.26133 6.02511V6.26618ZM8.26133 5.54297C8.26133 5.57494 8.24873 5.6056 8.22632 5.6282C8.2039 5.65081 8.1735 5.6635 8.1418 5.6635C8.11009 5.6635 8.07969 5.65081 8.05727 5.6282C8.03486 5.6056 8.02226 5.57494 8.02226 5.54297V5.3019C8.02226 5.26993 8.03486 5.23927 8.05727 5.21667C8.07969 5.19406 8.11009 5.18136 8.1418 5.18136C8.1735 5.18136 8.2039 5.19406 8.22632 5.21667C8.24873 5.23927 8.26133 5.26993 8.26133 5.3019V5.54297ZM9.75547 11.2081H9.39687V10.6055H9.75547V11.2081Z" fill="#F8A5A5"/>
<path d="M10.3826 9.35549C10.4095 9.29411 10.4494 9.23928 10.4996 9.19477V6.84349C10.4996 6.69605 10.3961 6.59956 10.2293 6.5765L9.08038 6.34967V6.59018L10.2293 6.81253C10.2379 6.81219 10.2463 6.81527 10.2526 6.82108C10.2589 6.8269 10.2627 6.83498 10.2631 6.84355V9.64949C10.2999 9.55027 10.3397 9.4522 10.3826 9.35543V9.35549ZM5.76884 6.34961L4.61991 6.5765C4.4667 6.59584 4.34961 6.69605 4.34961 6.84349V9.19477C4.3998 9.23928 4.43973 9.29411 4.46664 9.35549C4.50949 9.45228 4.54935 9.55037 4.58615 9.64961V6.84343C4.58652 6.83486 4.59028 6.82678 4.59661 6.82097C4.60293 6.81515 4.61132 6.81207 4.61991 6.81241L5.76884 6.59006V6.34961Z" fill="#F8A5A5"/>
</g>
</svg>
