<svg width="25" height="25" viewBox="0 0 25 25" fill="none" xmlns="http://www.w3.org/2000/svg">
<path d="M25 12.5C25 19.4036 19.4036 25 12.5 25C5.59644 25 0 19.4036 0 12.5C0 5.59644 5.59644 0 12.5 0C19.4036 0 25 5.59644 25 12.5Z" fill="#E05151"/>
<rect width="17.5" height="17.5" transform="translate(3.75 3.125)" fill="#E05151"/>
<mask id="mask0_5236_1031" style="mask-type:alpha" maskUnits="userSpaceOnUse" x="3" y="3" width="19" height="18">
<rect x="3.75" y="3.125" width="17.5" height="17.5" fill="#D9D9D9"/>
</mask>
<g mask="url(#mask0_5236_1031)">
<path d="M8.81756 15.5391H13.8672V14.3176H8.81756V15.5391ZM8.81756 12.4766H16.1824V11.2734H8.81756V12.4766ZM8.81756 9.43244H16.1824V8.21094H8.81756V9.43244ZM7.159 18.4375C6.83087 18.4375 6.54519 18.316 6.30194 18.0731C6.05898 17.8298 5.9375 17.5441 5.9375 17.216V6.534C5.9375 6.20587 6.05898 5.92019 6.30194 5.67694C6.54519 5.43398 6.83087 5.3125 7.159 5.3125H17.841C18.1691 5.3125 18.4548 5.43398 18.6981 5.67694C18.941 5.92019 19.0625 6.20587 19.0625 6.534V17.216C19.0625 17.5441 18.941 17.8298 18.6981 18.0731C18.4548 18.316 18.1691 18.4375 17.841 18.4375H7.159ZM7.159 17.216H17.841V6.534H7.159V17.216Z" fill="white"/>
</g>
</svg>
