<svg width="36" height="35" viewBox="0 0 36 35" fill="none" xmlns="http://www.w3.org/2000/svg">
<path d="M35.7656 17.5C35.7656 27.165 27.9306 35 18.2656 35C8.60064 35 0.765625 27.165 0.765625 17.5C0.765625 7.83502 8.60064 0 18.2656 0C27.9306 0 35.7656 7.83502 35.7656 17.5Z" fill="#81D4FA"/>
<g clip-path="url(#clip0_2243_32855)">
<path d="M27.7981 22.4582H11.0086V8.35645C11.0086 7.85435 10.6015 7.44727 10.0994 7.44727C9.59733 7.44727 9.19025 7.85435 9.19025 8.35645V22.4582H6.34131C5.83927 22.4582 5.43213 22.8652 5.43213 23.3673C5.43213 23.8694 5.83927 24.2765 6.34131 24.2765H9.19025V26.6413C9.19025 27.1435 9.59733 27.5505 10.0994 27.5505C10.6015 27.5505 11.0086 27.1435 11.0086 26.6413V24.2765H27.7981C28.3001 24.2765 28.7073 23.8694 28.7073 23.3673C28.7073 22.8652 28.3001 22.4582 27.7981 22.4582Z" fill="white"/>
<path d="M13.1711 20.6467H15.6731C15.8339 20.6467 15.9641 20.5164 15.9641 20.3557V14.5605C15.9641 14.3998 15.8339 14.2695 15.6731 14.2695H13.1711C13.0104 14.2695 12.8801 14.3998 12.8801 14.5605V20.3557C12.8801 20.5164 13.0104 20.6467 13.1711 20.6467Z" fill="white"/>
<path d="M17.2442 20.6481H19.7463C19.907 20.6481 20.0372 20.5179 20.0372 20.3572V17.8053C19.7911 17.6412 19.5595 17.4517 19.3456 17.2379C18.4969 16.3891 18.0295 15.2607 18.0295 14.0604C18.0295 13.2639 18.2365 12.4996 18.6229 11.8271H17.2442C17.0835 11.8271 16.9532 11.9574 16.9532 12.1181V20.3573C16.9532 20.5179 17.0835 20.6481 17.2442 20.6481Z" fill="white"/>
<path d="M21.0266 18.3001V20.3578C21.0266 20.5185 21.1568 20.6488 21.3176 20.6488H23.8196C23.9803 20.6488 24.1106 20.5185 24.1106 20.3578V18.2666C23.6081 18.4565 23.0726 18.5547 22.5236 18.5547C22.0056 18.5547 21.5011 18.4672 21.0266 18.3001Z" fill="white"/>
<path d="M22.5234 17.7089C23.2838 17.7089 24.0082 17.477 24.6174 17.0482L27.685 20.1158C27.8086 20.2394 27.9706 20.3011 28.1325 20.3011C28.2945 20.3011 28.4565 20.2393 28.5801 20.1158C28.8272 19.8686 28.8272 19.4678 28.5801 19.2207L25.5125 16.1531C25.9413 15.5438 26.1731 14.8195 26.1731 14.059C26.1731 13.0841 25.7935 12.1676 25.1041 11.4782C24.4147 10.7888 23.4982 10.4092 22.5233 10.4092C21.5484 10.4092 20.6319 10.7889 19.9424 11.4782C19.2532 12.1676 18.8735 13.0842 18.8735 14.0591C18.8735 15.034 19.2532 15.9505 19.9425 16.6398C20.632 17.3293 21.5485 17.7089 22.5234 17.7089ZM20.6884 12.2242C21.1786 11.7341 21.8302 11.4641 22.5234 11.4641C23.2165 11.4641 23.8682 11.7341 24.3583 12.2242C24.8485 12.7143 25.1183 13.366 25.1183 14.0591C25.1183 14.7523 24.8485 15.4039 24.3583 15.894C23.8682 16.3842 23.2165 16.6541 22.5234 16.6541C21.8302 16.6541 21.1786 16.3842 20.6884 15.894C20.1984 15.4039 19.9284 14.7522 19.9284 14.0591C19.9284 13.3659 20.1984 12.7143 20.6884 12.2242Z" fill="white"/>
<path d="M22.2697 15.2603V15.7551C22.2697 15.8075 22.3122 15.8499 22.3645 15.8499H22.7069C22.7592 15.8499 22.8016 15.8075 22.8016 15.7551V15.2761C23.3348 15.2103 23.6653 14.8996 23.6653 14.4627C23.6653 13.8841 23.1653 13.741 22.7636 13.6259C22.4525 13.5369 22.2636 13.471 22.2636 13.3072C22.2636 13.1945 22.3642 13.1298 22.5395 13.1298C22.7349 13.1298 23.0442 13.2241 23.3091 13.3646C23.3319 13.3767 23.3585 13.3791 23.3831 13.3709C23.4075 13.3629 23.4276 13.3452 23.4389 13.322L23.6254 12.935C23.6468 12.8904 23.6304 12.8369 23.5875 12.812C23.3654 12.6829 23.0868 12.5944 22.8017 12.5619V12.1133C22.8017 12.061 22.7593 12.0186 22.707 12.0186H22.3645C22.3122 12.0186 22.2698 12.061 22.2698 12.1133V12.5819C21.8024 12.6753 21.5238 12.9683 21.5238 13.3678C21.5238 13.9303 22.0177 14.0656 22.4146 14.1743C22.7325 14.2614 22.9254 14.3266 22.9254 14.4969C22.9254 14.6843 22.7194 14.7122 22.5965 14.7122C22.3403 14.7122 21.9804 14.5748 21.7216 14.3781C21.6992 14.361 21.6703 14.3549 21.643 14.3612C21.6155 14.3675 21.5923 14.3858 21.5796 14.4109L21.3913 14.7847C21.3708 14.8255 21.3823 14.8751 21.4186 14.9028C21.6552 15.0827 21.957 15.2094 22.2697 15.2603Z" fill="white"/>
</g>
<defs>
<clipPath id="clip0_2243_32855">
<rect width="23.3333" height="23.3333" fill="white" transform="translate(5.43225 5.83301)"/>
</clipPath>
</defs>
</svg>
