<svg width="31" height="31" viewBox="0 0 31 31" fill="none" xmlns="http://www.w3.org/2000/svg">
<path d="M28.0527 30.7048L17.2607 19.9138C16.4274 20.6078 15.4554 21.1562 14.3447 21.5588C13.2334 21.9622 12.0667 22.1638 10.8447 22.1638C7.81673 22.1638 5.26107 21.1222 3.17773 19.0388C1.0944 16.9555 0.0527344 14.4275 0.0527344 11.4548C0.0527344 8.48283 1.0944 5.94817 3.17773 3.85083C5.26107 1.7535 7.80273 0.704834 10.8027 0.704834C13.7747 0.704834 16.3024 1.7535 18.3857 3.85083C20.4691 5.94817 21.5107 8.48283 21.5107 11.4548C21.5107 12.6495 21.3164 13.7955 20.9277 14.8928C20.5391 15.9902 19.9697 17.0108 19.2197 17.9548L30.0527 28.7048L28.0527 30.7048ZM10.8027 19.3718C12.9974 19.3718 14.8654 18.6008 16.4067 17.0588C17.9487 15.5175 18.7197 13.6495 18.7197 11.4548C18.7197 9.26083 17.9487 7.38583 16.4067 5.82983C14.8654 4.2745 12.9974 3.49683 10.8027 3.49683C8.58074 3.49683 6.69873 4.2745 5.15673 5.82983C3.6154 7.38583 2.84473 9.26083 2.84473 11.4548C2.84473 13.6495 3.6154 15.5175 5.15673 17.0588C6.69873 18.6008 8.58074 19.3718 10.8027 19.3718Z" fill="#CCCCCC"/>
</svg>
