<svg width="36" height="35" viewBox="0 0 36 35" fill="none" xmlns="http://www.w3.org/2000/svg">
<path d="M35.7656 17.5C35.7656 27.165 27.9306 35 18.2656 35C8.60064 35 0.765625 27.165 0.765625 17.5C0.765625 7.83502 8.60064 0 18.2656 0C27.9306 0 35.7656 7.83502 35.7656 17.5Z" fill="#56C474"/>
<rect width="24.5" height="24.5" transform="translate(5.66473 4.89941)" fill="#56C474"/>
<mask id="mask0_2243_32838" style="mask-type:alpha" maskUnits="userSpaceOnUse" x="5" y="4" width="26" height="26">
<rect x="5.66473" y="4.90039" width="24.5" height="24.5" fill="#D9D9D9"/>
</mask>
<g mask="url(#mask0_2243_32838)">
</g>
<g clip-path="url(#clip0_2243_32838)">
<path d="M27.7984 22.4601H11.0089V8.3584C11.0089 7.8563 10.6018 7.44922 10.0997 7.44922C9.59764 7.44922 9.19056 7.8563 9.19056 8.3584V22.4602H6.34162C5.83957 22.4601 5.43243 22.8672 5.43243 23.3693C5.43243 23.8713 5.83957 24.2785 6.34162 24.2785H9.19056V26.6432C9.19056 27.1455 9.59764 27.5524 10.0997 27.5524C10.6018 27.5524 11.0089 27.1455 11.0089 26.6432V24.2785H27.7984C28.3004 24.2785 28.7076 23.8713 28.7076 23.3693C28.7076 22.8672 28.3004 22.4601 27.7984 22.4601Z" fill="white"/>
<path d="M13.1714 20.6486H15.6735C15.8342 20.6486 15.9645 20.5184 15.9645 20.3577V14.5624C15.9645 14.4018 15.8342 14.2715 15.6735 14.2715H13.1714C13.0107 14.2715 12.8805 14.4018 12.8805 14.5624V20.3577C12.8805 20.5184 13.0107 20.6486 13.1714 20.6486Z" fill="white"/>
<path d="M17.2445 20.6501H19.7466C19.9073 20.6501 20.0375 20.5198 20.0375 20.3592V17.8072C19.7914 17.6432 19.5598 17.4537 19.3459 17.2398C18.4972 16.3911 18.0299 15.2627 18.0299 14.0624C18.0299 13.2658 18.2368 12.5016 18.6233 11.8291H17.2445C17.0838 11.8291 16.9536 11.9594 16.9536 12.12V20.3592C16.9536 20.5198 17.0838 20.6501 17.2445 20.6501Z" fill="white"/>
<path d="M21.0269 18.302V20.3598C21.0269 20.5204 21.1571 20.6507 21.3179 20.6507H23.8199C23.9806 20.6507 24.1109 20.5204 24.1109 20.3598V18.2686C23.6084 18.4584 23.0729 18.5567 22.5239 18.5567C22.0059 18.5566 21.5014 18.4692 21.0269 18.302Z" fill="white"/>
<path d="M22.5238 17.7109C23.2842 17.7109 24.0086 17.4789 24.6178 17.0502L27.6853 20.1177C27.809 20.2413 27.971 20.3031 28.1329 20.3031C28.2949 20.3031 28.4569 20.2413 28.5805 20.1177C28.8276 19.8706 28.8276 19.4698 28.5805 19.2226L25.5128 16.1551C25.9416 15.5457 26.1735 14.8214 26.1735 14.061C26.1735 13.0861 25.7939 12.1695 25.1045 11.4802C24.4151 10.7908 23.4986 10.4111 22.5237 10.4111C21.5487 10.4111 20.6322 10.7908 19.9428 11.4802C19.2535 12.1696 18.8739 13.0861 18.8739 14.061C18.8739 15.0359 19.2535 15.9525 19.9429 16.6418C20.6323 17.3312 21.5489 17.7109 22.5238 17.7109ZM20.6888 12.2261C21.179 11.736 21.8306 11.4661 22.5238 11.4661C23.2169 11.4661 23.8686 11.736 24.3586 12.2261C24.8489 12.7163 25.1187 13.3679 25.1187 14.0611C25.1187 14.7542 24.8489 15.4059 24.3586 15.896C23.8686 16.3862 23.2169 16.6561 22.5238 16.6561C21.8306 16.6561 21.179 16.3862 20.6888 15.896C20.1987 15.4059 19.9288 14.7542 19.9288 14.0611C19.9288 13.3679 20.1987 12.7163 20.6888 12.2261Z" fill="white"/>
<path d="M22.27 15.2623V15.7571C22.27 15.8094 22.3125 15.8518 22.3648 15.8518H22.7072C22.7595 15.8518 22.802 15.8094 22.802 15.7571V15.2781C23.3351 15.2123 23.6656 14.9016 23.6656 14.4647C23.6656 13.8861 23.1656 13.7429 22.7639 13.6279C22.4528 13.5388 22.2639 13.4729 22.2639 13.3091C22.2639 13.1964 22.3645 13.1318 22.5398 13.1318C22.7352 13.1318 23.0445 13.2261 23.3094 13.3666C23.3322 13.3787 23.3588 13.3811 23.3834 13.3729C23.4078 13.3648 23.4279 13.3472 23.4392 13.324L23.6257 12.937C23.6471 12.8924 23.6307 12.8388 23.5878 12.814C23.3657 12.6849 23.0871 12.5963 22.802 12.5639V12.1152C22.802 12.0629 22.7596 12.0205 22.7073 12.0205H22.3648C22.3125 12.0205 22.2701 12.0629 22.2701 12.1152V12.5839C21.8028 12.6772 21.5241 12.9703 21.5241 13.3698C21.5241 13.9323 22.018 14.0676 22.4149 14.1763C22.7328 14.2634 22.9257 14.3285 22.9257 14.4988C22.9257 14.6862 22.7197 14.7141 22.5968 14.7141C22.3406 14.7141 21.9807 14.5768 21.7219 14.38C21.6995 14.363 21.6706 14.3568 21.6433 14.3632C21.6158 14.3695 21.5926 14.3877 21.5799 14.4128L21.3917 14.7867C21.3711 14.8275 21.3826 14.8771 21.4189 14.9047C21.6555 15.0846 21.9573 15.2114 22.27 15.2623Z" fill="white"/>
</g>
<defs>
<clipPath id="clip0_2243_32838">
<rect width="23.3333" height="23.3333" fill="white" transform="translate(5.43237 5.83496)"/>
</clipPath>
</defs>
</svg>
