<svg width="19" height="21" viewBox="0 0 19 21" fill="none" xmlns="http://www.w3.org/2000/svg">
<g clip-path="url(#clip0_323_5492)">
<path d="M6.05469 9.95361H4.05469V11.9536H6.05469V9.95361ZM10.0547 9.95361H8.05469V11.9536H10.0547V9.95361ZM14.0547 9.95361H12.0547V11.9536H14.0547V9.95361ZM16.0547 2.95361H15.0547V0.953613H13.0547V2.95361H5.05469V0.953613H3.05469V2.95361H2.05469C0.944687 2.95361 0.0646875 3.85361 0.0646875 4.95361L0.0546875 18.9536C0.0546875 19.484 0.265401 19.9928 0.640474 20.3678C1.01555 20.7429 1.52425 20.9536 2.05469 20.9536H16.0547C17.1547 20.9536 18.0547 20.0536 18.0547 18.9536V4.95361C18.0547 3.85361 17.1547 2.95361 16.0547 2.95361ZM16.0547 18.9536H2.05469V7.95361H16.0547V18.9536Z" fill="#FCFCFC"/>
</g>
<defs>
<clipPath id="clip0_323_5492">
<rect width="18" height="20" fill="white" transform="translate(0.0546875 0.953613)"/>
</clipPath>
</defs>
</svg>
