<svg width="20" height="20" viewBox="0 0 20 20" fill="none" xmlns="http://www.w3.org/2000/svg">
<path d="M19.2085 9.78001C19.2085 15.0293 14.9531 19.2846 9.70384 19.2846C4.45458 19.2846 0.199219 15.0293 0.199219 9.78001C0.199219 4.53075 4.45458 0.275391 9.70384 0.275391C14.9531 0.275391 19.2085 4.53075 19.2085 9.78001Z" fill="#059669"/>
<g clip-path="url(#clip0_3192_16879)">
<path d="M14.8818 12.4711H5.76308V4.81216C5.76308 4.53945 5.54196 4.31836 5.26926 4.31836C4.99658 4.31836 4.77549 4.53945 4.77549 4.81216V12.4711H3.22817C2.9555 12.4711 2.73438 12.6922 2.73438 12.9649C2.73438 13.2376 2.9555 13.4587 3.22817 13.4587H4.77549V14.743C4.77549 15.0158 4.99658 15.2368 5.26926 15.2368C5.54196 15.2368 5.76308 15.0158 5.76308 14.743V13.4587H14.8818C15.1544 13.4587 15.3756 13.2376 15.3756 12.9649C15.3756 12.6922 15.1544 12.4711 14.8818 12.4711Z" fill="#FCFCFC"/>
<path d="M6.93731 11.487H8.29624C8.38353 11.487 8.45426 11.4162 8.45426 11.329V8.18145C8.45426 8.0942 8.38353 8.02344 8.29624 8.02344H6.93731C6.85002 8.02344 6.7793 8.0942 6.7793 8.18145V11.329C6.7793 11.4162 6.85002 11.487 6.93731 11.487Z" fill="#FCFCFC"/>
<path d="M9.1502 11.4881H10.5091C10.5964 11.4881 10.6671 11.4174 10.6671 11.3301V9.9441C10.5335 9.85501 10.4077 9.75208 10.2915 9.63594C9.83058 9.17498 9.57675 8.5621 9.57675 7.91019C9.57675 7.47758 9.68916 7.0625 9.89904 6.69727H9.1502C9.06292 6.69727 8.99219 6.76802 8.99219 6.85528V11.3301C8.99219 11.4174 9.06292 11.4881 9.1502 11.4881Z" fill="#FCFCFC"/>
<path d="M11.2041 10.2115V11.3291C11.2041 11.4164 11.2748 11.4872 11.3621 11.4872H12.721C12.8083 11.4872 12.8791 11.4164 12.8791 11.3291V10.1934C12.6062 10.2965 12.3153 10.3499 12.0171 10.3499C11.7358 10.3498 11.4618 10.3023 11.2041 10.2115Z" fill="#FCFCFC"/>
<path d="M12.0165 9.89237C12.4295 9.89237 12.8229 9.7664 13.1538 9.53355L14.8199 11.1996C14.887 11.2667 14.975 11.3003 15.0629 11.3003C15.1509 11.3003 15.2389 11.2667 15.306 11.1996C15.4402 11.0653 15.4402 10.8477 15.306 10.7134L13.6399 9.0474C13.8728 8.71645 13.9987 8.32306 13.9987 7.91004C13.9987 7.38056 13.7926 6.88275 13.4181 6.50835C13.0437 6.13391 12.5459 5.92773 12.0164 5.92773C11.4869 5.92773 10.9892 6.13394 10.6147 6.50835C10.2404 6.88278 10.0342 7.38059 10.0342 7.91007C10.0342 8.43954 10.2404 8.93736 10.6148 9.31173C10.9892 9.68619 11.487 9.89237 12.0165 9.89237ZM11.0199 6.9135C11.2861 6.6473 11.64 6.5007 12.0165 6.5007C12.3929 6.5007 12.7469 6.6473 13.0131 6.9135C13.2793 7.17972 13.4259 7.53364 13.4259 7.9101C13.4259 8.28655 13.2793 8.64048 13.0131 8.90667C12.7469 9.17289 12.3929 9.3195 12.0165 9.3195C11.64 9.3195 11.2861 9.17289 11.0199 8.90667C10.7537 8.64048 10.6071 8.28652 10.6071 7.9101C10.6071 7.53361 10.7537 7.17972 11.0199 6.9135Z" fill="#FCFCFC"/>
<path d="M11.879 8.56145V8.8302C11.879 8.85861 11.9021 8.88165 11.9305 8.88165H12.1165C12.1449 8.88165 12.1679 8.85861 12.1679 8.8302V8.57005C12.4575 8.5343 12.637 8.36554 12.637 8.12827C12.637 7.81401 12.3655 7.73626 12.1473 7.67378C11.9783 7.6254 11.8757 7.58962 11.8757 7.50066C11.8757 7.43945 11.9304 7.40434 12.0256 7.40434C12.1317 7.40434 12.2997 7.45556 12.4436 7.53185C12.4559 7.53843 12.4704 7.53972 12.4837 7.53527C12.497 7.53091 12.5079 7.52133 12.514 7.50872L12.6153 7.29853C12.627 7.27432 12.618 7.24521 12.5948 7.23172C12.4741 7.16162 12.3228 7.11352 12.168 7.09589V6.85223C12.168 6.82382 12.145 6.80078 12.1165 6.80078H11.9305C11.9021 6.80078 11.8791 6.82382 11.8791 6.85223V7.10676C11.6253 7.15745 11.4739 7.31661 11.4739 7.53359C11.4739 7.8391 11.7422 7.91258 11.9578 7.97161C12.1304 8.01892 12.2352 8.05432 12.2352 8.14682C12.2352 8.24858 12.1233 8.26375 12.0565 8.26375C11.9174 8.26375 11.7219 8.18913 11.5814 8.08229C11.5692 8.07303 11.5535 8.06968 11.5386 8.07312C11.5237 8.07656 11.5111 8.08646 11.5042 8.10011L11.402 8.30316C11.3908 8.32531 11.3971 8.35224 11.4168 8.36725C11.5453 8.46497 11.7092 8.5338 11.879 8.56145Z" fill="#FCFCFC"/>
</g>
<defs>
<clipPath id="clip0_3192_16879">
<rect width="12.6728" height="12.6728" fill="white" transform="translate(2.73438 3.44336)"/>
</clipPath>
</defs>
</svg>
