<svg width="21" height="21" viewBox="0 0 21 21" fill="none" xmlns="http://www.w3.org/2000/svg">
<path fill-rule="evenodd" clip-rule="evenodd" d="M10.0307 19.3758L10.0891 19.4092L10.1124 19.4225C10.2049 19.4725 10.3085 19.4987 10.4136 19.4987C10.5188 19.4987 10.6224 19.4725 10.7149 19.4225L10.7382 19.41L10.7974 19.3758C11.1233 19.1826 11.4414 18.9763 11.7507 18.7575C12.5516 18.1921 13.2999 17.5556 13.9866 16.8558C15.6066 15.1975 17.2891 12.7058 17.2891 9.5C17.2891 7.67664 16.5647 5.92795 15.2754 4.63864C13.9861 3.34933 12.2374 2.625 10.4141 2.625C8.5907 2.625 6.84202 3.34933 5.5527 4.63864C4.26339 5.92795 3.53906 7.67664 3.53906 9.5C3.53906 12.705 5.2224 15.1975 6.84156 16.8558C7.52793 17.5556 8.27596 18.192 9.07656 18.7575C9.3862 18.9763 9.70452 19.1826 10.0307 19.3758ZM10.4141 12C11.0771 12 11.713 11.7366 12.1818 11.2678C12.6507 10.7989 12.9141 10.163 12.9141 9.5C12.9141 8.83696 12.6507 8.20107 12.1818 7.73223C11.713 7.26339 11.0771 7 10.4141 7C9.75102 7 9.11514 7.26339 8.6463 7.73223C8.17745 8.20107 7.91406 8.83696 7.91406 9.5C7.91406 10.163 8.17745 10.7989 8.6463 11.2678C9.11514 11.7366 9.75102 12 10.4141 12Z" fill="#333333"/>
</svg>
