<svg width="19" height="19" viewBox="0 0 19 19" fill="none" xmlns="http://www.w3.org/2000/svg">
<path d="M0.0546875 18.9536V5.02881H4.12989V0.953613H13.9795V9.12861H18.0547V18.9536H10.2799V14.8784H7.82949V18.9536H0.0546875ZM1.72989 17.2784H4.12989V14.8784H1.72989V17.2784ZM1.72989 13.2038H4.12989V10.7786H1.72989V13.2038ZM1.72989 9.12861H4.12989V6.70341H1.72989V9.12861ZM5.80449 13.2038H8.22969V10.7786H5.80449V13.2038ZM5.80449 9.12861H8.22969V6.70341H5.80449V9.12861ZM5.80449 5.02881H8.22969V2.62881H5.80449V5.02881ZM9.87969 13.2038H12.3049V10.7786H9.87969V13.2038ZM9.87969 9.12861H12.3049V6.70341H9.87969V9.12861ZM9.87969 5.02881H12.3049V2.62881H9.87969V5.02881ZM13.9795 17.2784H16.3795V14.8784H13.9795V17.2784ZM13.9795 13.2038H16.3795V10.7786H13.9795V13.2038Z" fill="#FCFCFC"/>
</svg>
