<svg width="36" height="35" viewBox="0 0 36 35" fill="none" xmlns="http://www.w3.org/2000/svg">
<path d="M35.7656 17.5C35.7656 27.165 27.9306 35 18.2656 35C8.60064 35 0.765625 27.165 0.765625 17.5C0.765625 7.83502 8.60064 0 18.2656 0C27.9306 0 35.7656 7.83502 35.7656 17.5Z" fill="#F27932"/>
<g clip-path="url(#clip0_2243_32806)">
<path d="M27.7983 22.4582H11.0089V8.35645C11.0089 7.85435 10.6017 7.44727 10.0996 7.44727C9.59758 7.44727 9.19049 7.85435 9.19049 8.35645V22.4582H6.34156C5.83951 22.4582 5.43237 22.8652 5.43237 23.3673C5.43237 23.8694 5.83951 24.2765 6.34156 24.2765H9.19049V26.6413C9.19049 27.1435 9.59758 27.5505 10.0996 27.5505C10.6017 27.5505 11.0089 27.1435 11.0089 26.6413V24.2765H27.7983C28.3003 24.2765 28.7075 23.8694 28.7075 23.3673C28.7075 22.8652 28.3003 22.4582 27.7983 22.4582Z" fill="white"/>
<path d="M13.1713 20.6467H15.6734C15.8341 20.6467 15.9643 20.5164 15.9643 20.3557V14.5605C15.9643 14.3998 15.8341 14.2695 15.6734 14.2695H13.1713C13.0106 14.2695 12.8804 14.3998 12.8804 14.5605V20.3557C12.8804 20.5164 13.0106 20.6467 13.1713 20.6467Z" fill="white"/>
<path d="M17.2444 20.6481H19.7465C19.9072 20.6481 20.0374 20.5179 20.0374 20.3572V17.8053C19.7914 17.6412 19.5598 17.4517 19.3459 17.2379C18.4972 16.3891 18.0298 15.2607 18.0298 14.0604C18.0298 13.2639 18.2368 12.4996 18.6232 11.8271H17.2444C17.0837 11.8271 16.9535 11.9574 16.9535 12.1181V20.3573C16.9535 20.5179 17.0837 20.6481 17.2444 20.6481Z" fill="white"/>
<path d="M21.0269 18.3001V20.3578C21.0269 20.5185 21.1571 20.6488 21.3178 20.6488H23.8199C23.9806 20.6488 24.1108 20.5185 24.1108 20.3578V18.2666C23.6084 18.4565 23.0728 18.5547 22.5238 18.5547C22.0058 18.5547 21.5014 18.4672 21.0269 18.3001Z" fill="white"/>
<path d="M22.5237 17.7089C23.2841 17.7089 24.0085 17.477 24.6177 17.0482L27.6852 20.1158C27.8089 20.2394 27.9709 20.3011 28.1327 20.3011C28.2947 20.3011 28.4567 20.2393 28.5803 20.1158C28.8275 19.8686 28.8275 19.4678 28.5803 19.2207L25.5127 16.1531C25.9415 15.5438 26.1733 14.8195 26.1733 14.059C26.1733 13.0841 25.7938 12.1676 25.1044 11.4782C24.415 10.7888 23.4984 10.4092 22.5236 10.4092C21.5486 10.4092 20.6321 10.7889 19.9427 11.4782C19.2534 12.1676 18.8738 13.0842 18.8738 14.0591C18.8738 15.034 19.2534 15.9505 19.9427 16.6398C20.6322 17.3293 21.5487 17.7089 22.5237 17.7089ZM20.6887 12.2242C21.1789 11.7341 21.8305 11.4641 22.5237 11.4641C23.2167 11.4641 23.8685 11.7341 24.3585 12.2242C24.8487 12.7143 25.1186 13.366 25.1186 14.0591C25.1186 14.7523 24.8487 15.4039 24.3585 15.894C23.8685 16.3842 23.2167 16.6541 22.5237 16.6541C21.8305 16.6541 21.1789 16.3842 20.6887 15.894C20.1986 15.4039 19.9287 14.7522 19.9287 14.0591C19.9287 13.3659 20.1986 12.7143 20.6887 12.2242Z" fill="white"/>
<path d="M22.2699 15.2603V15.7551C22.2699 15.8075 22.3124 15.8499 22.3647 15.8499H22.7072C22.7595 15.8499 22.8019 15.8075 22.8019 15.7551V15.2761C23.3351 15.2103 23.6656 14.8996 23.6656 14.4627C23.6656 13.8841 23.1656 13.741 22.7638 13.6259C22.4528 13.5369 22.2639 13.471 22.2639 13.3072C22.2639 13.1945 22.3644 13.1298 22.5398 13.1298C22.7351 13.1298 23.0445 13.2241 23.3093 13.3646C23.3322 13.3767 23.3587 13.3791 23.3833 13.3709C23.4077 13.3629 23.4279 13.3452 23.4391 13.322L23.6256 12.935C23.6471 12.8904 23.6306 12.8369 23.5878 12.812C23.3657 12.6829 23.0871 12.5944 22.802 12.5619V12.1133C22.802 12.061 22.7596 12.0186 22.7072 12.0186H22.3648C22.3125 12.0186 22.27 12.061 22.27 12.1133V12.5819C21.8027 12.6753 21.5241 12.9683 21.5241 13.3678C21.5241 13.9303 22.0179 14.0656 22.4149 14.1743C22.7327 14.2614 22.9257 14.3266 22.9257 14.4969C22.9257 14.6843 22.7196 14.7122 22.5968 14.7122C22.3405 14.7122 21.9807 14.5748 21.7219 14.3781C21.6994 14.361 21.6705 14.3549 21.6432 14.3612C21.6157 14.3675 21.5926 14.3858 21.5799 14.4109L21.3916 14.7847C21.3711 14.8255 21.3826 14.8751 21.4189 14.9028C21.6554 15.0827 21.9572 15.2094 22.2699 15.2603Z" fill="white"/>
</g>
<defs>
<clipPath id="clip0_2243_32806">
<rect width="23.3333" height="23.3333" fill="white" transform="translate(5.43225 5.83301)"/>
</clipPath>
</defs>
</svg>
