<svg width="36" height="37" viewBox="0 0 36 37" fill="none" xmlns="http://www.w3.org/2000/svg">
<path d="M36 18.1355C36 28.0766 27.9411 36.1355 18 36.1355C8.05887 36.1355 0 28.0766 0 18.1355C0 8.19437 8.05887 0.135498 18 0.135498C27.9411 0.135498 36 8.19437 36 18.1355Z" fill="#059669"/>
<path d="M22.725 18.1355C24.174 18.1355 25.3395 16.9595 25.3395 15.5105C25.3395 14.0615 24.174 12.8855 22.725 12.8855C21.276 12.8855 20.1 14.0615 20.1 15.5105C20.1 16.9595 21.276 18.1355 22.725 18.1355ZM14.85 17.0855C16.593 17.0855 17.9895 15.6785 17.9895 13.9355C17.9895 12.1925 16.593 10.7855 14.85 10.7855C13.107 10.7855 11.7 12.1925 11.7 13.9355C11.7 15.6785 13.107 17.0855 14.85 17.0855ZM22.725 20.2355C20.8035 20.2355 16.95 21.2015 16.95 23.123V25.4855H28.5V23.123C28.5 21.2015 24.6465 20.2355 22.725 20.2355ZM14.85 19.1855C12.4035 19.1855 7.5 20.414 7.5 22.8605V25.4855H14.85V23.123C14.85 22.2305 15.1965 20.666 17.3385 19.4795C16.425 19.2905 15.543 19.1855 14.85 19.1855Z" fill="white"/>
</svg>
