<svg width="20" height="21" viewBox="0 0 20 21" fill="none" xmlns="http://www.w3.org/2000/svg">
<path d="M20 10.5C20 16.0228 15.5228 20.5 10 20.5C4.47715 20.5 0 16.0228 0 10.5C0 4.97715 4.47715 0.5 10 0.5C15.5228 0.5 20 4.97715 20 10.5Z" fill="#059669"/>
<mask id="mask0_5529_1884" style="mask-type:alpha" maskUnits="userSpaceOnUse" x="3" y="4" width="14" height="13">
<rect x="3.75" y="4.25" width="12.5" height="12.5" fill="#D9D9D9"/>
</mask>
<g mask="url(#mask0_5529_1884)">
<path d="M3.75 13.625V12.9349C3.75 12.5964 3.93229 12.3229 4.29687 12.1146C4.66146 11.9062 5.13021 11.8021 5.70312 11.8021C5.81597 11.8021 5.92014 11.8043 6.01562 11.8086C6.11111 11.8129 6.2066 11.8238 6.30208 11.8411C6.23264 11.9887 6.18056 12.1385 6.14583 12.2904C6.11111 12.4423 6.09375 12.605 6.09375 12.7786V13.625H3.75ZM6.875 13.625V12.7786C6.875 12.2144 7.16363 11.7587 7.74089 11.4115C8.31814 11.0642 9.07118 10.8906 10 10.8906C10.9375 10.8906 11.6927 11.0642 12.2656 11.4115C12.8385 11.7587 13.125 12.2144 13.125 12.7786V13.625H6.875ZM13.9062 13.625V12.7786C13.9062 12.605 13.8911 12.4423 13.8607 12.2904C13.8303 12.1385 13.7804 11.9887 13.7109 11.8411C13.8064 11.8238 13.9019 11.8129 13.9974 11.8086C14.0929 11.8043 14.1927 11.8021 14.2969 11.8021C14.8872 11.8021 15.3602 11.9062 15.7161 12.1146C16.072 12.3229 16.25 12.5964 16.25 12.9349V13.625H13.9062ZM10 11.6719C9.30556 11.6719 8.74132 11.776 8.30729 11.9844C7.87326 12.1927 7.65625 12.4575 7.65625 12.7786V12.8438H12.3438V12.7656C12.3438 12.4531 12.1289 12.1927 11.6992 11.9844C11.2695 11.776 10.7031 11.6719 10 11.6719ZM5.70312 11.4115C5.45139 11.4115 5.23655 11.3225 5.05859 11.1445C4.88064 10.9666 4.79167 10.7517 4.79167 10.5C4.79167 10.2483 4.88064 10.0334 5.05859 9.85547C5.23655 9.67752 5.45139 9.58854 5.70312 9.58854C5.95486 9.58854 6.1697 9.67752 6.34766 9.85547C6.52561 10.0334 6.61458 10.2483 6.61458 10.5C6.61458 10.7517 6.52561 10.9666 6.34766 11.1445C6.1697 11.3225 5.95486 11.4115 5.70312 11.4115ZM14.2969 11.4115C14.0451 11.4115 13.8303 11.3225 13.6523 11.1445C13.4744 10.9666 13.3854 10.7517 13.3854 10.5C13.3854 10.2483 13.4744 10.0334 13.6523 9.85547C13.8303 9.67752 14.0451 9.58854 14.2969 9.58854C14.5486 9.58854 14.7635 9.67752 14.9414 9.85547C15.1194 10.0334 15.2083 10.2483 15.2083 10.5C15.2083 10.7517 15.1194 10.9666 14.9414 11.1445C14.7635 11.3225 14.5486 11.4115 14.2969 11.4115ZM10 10.5C9.56597 10.5 9.19705 10.3481 8.89323 10.0443C8.58941 9.74045 8.4375 9.37153 8.4375 8.9375C8.4375 8.49479 8.58941 8.1237 8.89323 7.82422C9.19705 7.52474 9.56597 7.375 10 7.375C10.4427 7.375 10.8138 7.52474 11.1133 7.82422C11.4128 8.1237 11.5625 8.49479 11.5625 8.9375C11.5625 9.37153 11.4128 9.74045 11.1133 10.0443C10.8138 10.3481 10.4427 10.5 10 10.5ZM10 8.15625C9.78299 8.15625 9.59852 8.23003 9.44661 8.3776C9.2947 8.52517 9.21875 8.71181 9.21875 8.9375C9.21875 9.15451 9.2947 9.33898 9.44661 9.49089C9.59852 9.6428 9.78299 9.71875 10 9.71875C10.2257 9.71875 10.4123 9.6428 10.5599 9.49089C10.7075 9.33898 10.7812 9.15451 10.7812 8.9375C10.7812 8.71181 10.7075 8.52517 10.5599 8.3776C10.4123 8.23003 10.2257 8.15625 10 8.15625Z" fill="#34D399"/>
</g>
</svg>
