<svg width="25" height="25" viewBox="0 0 25 25" fill="none" xmlns="http://www.w3.org/2000/svg">
<g clip-path="url(#clip0_323_5485)">
<path fill-rule="evenodd" clip-rule="evenodd" d="M23.9662 11.5026C24.2981 14.2272 23.686 16.9832 22.232 19.311C20.7779 21.6389 18.5698 23.398 15.9758 24.2949C13.3818 25.1919 10.5587 25.1725 7.97729 24.24C5.39587 23.3075 3.21212 21.5183 1.79019 19.1706C1.63543 18.9154 1.5884 18.6092 1.65943 18.3193C1.73046 18.0294 1.91373 17.7796 2.16894 17.6249C2.42414 17.4701 2.73037 17.4231 3.02025 17.4941C3.31014 17.5651 3.55993 17.7484 3.71469 18.0036C4.48065 19.2685 5.52427 20.3425 6.76657 21.1445C8.00888 21.9465 9.41732 22.4554 10.8853 22.6327C12.3533 22.8101 13.8425 22.6512 15.24 22.1681C16.6375 21.685 17.9069 20.8903 18.952 19.8443C19.9971 18.7982 20.7906 17.5282 21.2725 16.1302C21.7543 14.7322 21.9119 13.243 21.7332 11.7751C21.5546 10.3073 21.0444 8.89928 20.2413 7.65769C19.4382 6.41611 18.3632 5.37345 17.0977 4.60862C16.8423 4.45427 16.6587 4.20478 16.5872 3.91503C16.5158 3.62529 16.5623 3.31903 16.7167 3.06363C16.871 2.80822 17.1205 2.6246 17.4103 2.55315C17.7 2.48169 18.0063 2.52827 18.2617 2.68263C19.8191 3.62401 21.142 4.90726 22.1302 6.43531C23.1185 7.96335 23.7463 9.69616 23.9662 11.5026ZM13.5547 2.45312C13.5547 2.85095 13.3967 3.23248 13.1153 3.51379C12.834 3.79509 12.4525 3.95312 12.0547 3.95312C11.6569 3.95312 11.2753 3.79509 10.994 3.51379C10.7127 3.23248 10.5547 2.85095 10.5547 2.45312C10.5547 2.0553 10.7127 1.67377 10.994 1.39246C11.2753 1.11116 11.6569 0.953125 12.0547 0.953125C12.4525 0.953125 12.834 1.11116 13.1153 1.39246C13.3967 1.67377 13.5547 2.0553 13.5547 2.45312ZM4.26069 8.45312C4.36073 8.28247 4.42604 8.09371 4.45283 7.89771C4.47963 7.70172 4.4674 7.50235 4.41684 7.31111C4.36627 7.11986 4.27838 6.9405 4.15822 6.78336C4.03805 6.62621 3.88799 6.49439 3.71668 6.39548C3.54536 6.29657 3.35617 6.23252 3.16 6.20702C2.96383 6.18152 2.76456 6.19508 2.57365 6.24691C2.38274 6.29874 2.20397 6.38782 2.04763 6.50902C1.89128 6.63023 1.76046 6.78116 1.66269 6.95312C1.46691 7.29746 1.41528 7.70526 1.51906 8.08752C1.62285 8.46979 1.87361 8.79548 2.21665 8.99354C2.55968 9.19159 2.96712 9.24593 3.35006 9.14468C3.73301 9.04344 4.06036 8.79483 4.26069 8.45312ZM1.55469 11.4531C1.95251 11.4531 2.33404 11.6112 2.61535 11.8925C2.89665 12.1738 3.05469 12.5553 3.05469 12.9531C3.05469 13.3509 2.89665 13.7325 2.61535 14.0138C2.33404 14.2951 1.95251 14.4531 1.55469 14.4531C1.15686 14.4531 0.775332 14.2951 0.494027 14.0138C0.212723 13.7325 0.0546875 13.3509 0.0546875 12.9531C0.0546875 12.5553 0.212723 12.1738 0.494027 11.8925C0.775332 11.6112 1.15686 11.4531 1.55469 11.4531ZM7.55469 5.15912C7.72666 5.06135 7.87759 4.93053 7.99879 4.77419C8.11999 4.61784 8.20907 4.43907 8.2609 4.24816C8.31273 4.05725 8.32629 3.85798 8.30079 3.66181C8.27529 3.46564 8.21124 3.27645 8.11233 3.10513C8.01342 2.93382 7.8816 2.78376 7.72446 2.6636C7.56731 2.54343 7.38796 2.45554 7.19671 2.40498C7.00546 2.35441 6.8061 2.34218 6.6101 2.36898C6.4141 2.39578 6.22534 2.46108 6.05469 2.56113C5.71298 2.76145 5.46437 3.0888 5.36313 3.47175C5.26189 3.85469 5.31622 4.26214 5.51428 4.60517C5.71233 4.9482 6.03803 5.19897 6.42029 5.30275C6.80255 5.40653 7.21035 5.3549 7.55469 5.15912Z" fill="#FCFCFC"/>
</g>
<defs>
<clipPath id="clip0_323_5485">
<rect width="23.9996" height="24.0007" fill="white" transform="translate(0.0546875 0.953125)"/>
</clipPath>
</defs>
</svg>
