<svg width="76" height="76" viewBox="0 0 76 76" fill="none" xmlns="http://www.w3.org/2000/svg">
<circle cx="38.0547" cy="37.7949" r="37.5" fill="#FCFCFC"/>
<circle cx="38.0547" cy="37.7949" r="30.9121" fill="#059669"/>
<path d="M52.2109 23.61C50.3688 21.7592 48.1751 20.2919 45.7576 19.2936C43.3401 18.2952 40.7472 17.7858 38.13 17.795C27.1632 17.795 18.2255 26.69 18.2154 37.61C18.2154 41.1075 19.1345 44.51 20.8699 47.5225L18.0547 57.7949L28.6122 55.0399C31.5328 56.6222 34.8049 57.4516 38.13 57.4524H38.1401C49.1094 57.4524 58.0446 48.5575 58.0547 37.6275C58.0572 35.0226 57.5419 32.443 56.5385 30.0372C55.5351 27.6314 54.0635 25.4471 52.2084 23.61H52.2109ZM38.13 54.0974C35.1642 54.0984 32.2528 53.3039 29.7021 51.7974L29.0994 51.4374L22.8362 53.0724L24.5087 46.99L24.117 46.3625C22.459 43.7383 21.5822 40.7 21.5881 37.6C21.5881 28.535 29.014 21.14 38.1401 21.14C40.3142 21.1362 42.4676 21.5607 44.4761 22.3893C46.4847 23.2178 48.3086 24.4339 49.8427 25.9675C51.3822 27.4951 52.6027 29.3111 53.4337 31.3106C54.2647 33.3101 54.6898 35.4536 54.6845 37.6175C54.6745 46.715 47.2486 54.0974 38.13 54.0974ZM47.2084 41.7625C46.7136 41.515 44.2701 40.3175 43.8106 40.1475C43.3535 39.985 43.0195 39.9 42.6931 40.395C42.359 40.8875 41.4048 42.01 41.1185 42.3325C40.8322 42.665 40.5358 42.7025 40.0386 42.4575C39.5439 42.2075 37.9392 41.6875 36.0406 39.995C34.559 38.6825 33.567 37.0575 33.2707 36.565C32.9844 36.07 33.243 35.805 33.4916 35.5575C33.7101 35.3375 33.9864 34.9775 34.235 34.6925C34.4861 34.4075 34.569 34.1975 34.7322 33.8675C34.8955 33.5325 34.8176 33.2475 34.6946 33C34.569 32.7525 33.577 30.31 33.1576 29.325C32.7558 28.3525 32.3465 28.4875 32.0401 28.475C31.7538 28.4575 31.4198 28.4575 31.0858 28.4575C30.8336 28.4638 30.5854 28.5218 30.3568 28.6281C30.1282 28.7344 29.9241 28.8865 29.7573 29.075C29.3003 29.57 28.022 30.7675 28.022 33.21C28.022 35.6525 29.8051 38 30.0562 38.3325C30.3023 38.665 33.5569 43.6625 38.5519 45.8125C39.7322 46.325 40.6614 46.6275 41.3872 46.8575C42.58 47.2375 43.6574 47.18 44.5163 47.0575C45.4706 46.9125 47.457 45.8575 47.8764 44.7C48.2882 43.54 48.2882 42.55 48.1627 42.3425C48.0396 42.1325 47.7056 42.01 47.2084 41.7625Z" fill="#FCFCFC"/>
</svg>
