<svg width="31" height="31" viewBox="0 0 31 31" fill="none" xmlns="http://www.w3.org/2000/svg">
<g clip-path="url(#clip0_323_5496)">
<path d="M15.0547 16.8911C17.0922 16.8911 18.8922 17.3786 20.3547 18.0161C21.7047 18.6161 22.5547 19.9661 22.5547 21.4286V23.4536H7.55469V21.4411C7.55469 19.9661 8.40469 18.6161 9.75469 18.0286C11.2172 17.3786 13.0172 16.8911 15.0547 16.8911ZM5.05469 17.2036C6.42969 17.2036 7.55469 16.0786 7.55469 14.7036C7.55469 13.3286 6.42969 12.2036 5.05469 12.2036C3.67969 12.2036 2.55469 13.3286 2.55469 14.7036C2.55469 16.0786 3.67969 17.2036 5.05469 17.2036ZM6.46719 18.5786C6.00469 18.5036 5.54219 18.4536 5.05469 18.4536C3.81719 18.4536 2.64219 18.7161 1.57969 19.1786C0.654688 19.5786 0.0546875 20.4786 0.0546875 21.4911V23.4536H5.67969V21.4411C5.67969 20.4036 5.96719 19.4286 6.46719 18.5786ZM25.0547 17.2036C26.4297 17.2036 27.5547 16.0786 27.5547 14.7036C27.5547 13.3286 26.4297 12.2036 25.0547 12.2036C23.6797 12.2036 22.5547 13.3286 22.5547 14.7036C22.5547 16.0786 23.6797 17.2036 25.0547 17.2036ZM30.0547 21.4911C30.0547 20.4786 29.4547 19.5786 28.5297 19.1786C27.4672 18.7161 26.2922 18.4536 25.0547 18.4536C24.5672 18.4536 24.1047 18.5036 23.6422 18.5786C24.1422 19.4286 24.4297 20.4036 24.4297 21.4411V23.4536H30.0547V21.4911ZM15.0547 8.45361C17.1297 8.45361 18.8047 10.1286 18.8047 12.2036C18.8047 14.2786 17.1297 15.9536 15.0547 15.9536C12.9797 15.9536 11.3047 14.2786 11.3047 12.2036C11.3047 10.1286 12.9797 8.45361 15.0547 8.45361Z" fill="#FCFCFC"/>
</g>
<defs>
<clipPath id="clip0_323_5496">
<rect width="30" height="30" fill="white" transform="translate(0.0546875 0.953613)"/>
</clipPath>
</defs>
</svg>
