<svg xmlns="http://www.w3.org/2000/svg" width="29" height="29" viewBox="0 0 29 29" fill="none">
  <path d="M20.196 14.5007C21.806 14.5007 23.101 13.194 23.101 11.584C23.101 9.97398 21.806 8.66732 20.196 8.66732C18.586 8.66732 17.2793 9.97398 17.2793 11.584C17.2793 13.194 18.586 14.5007 20.196 14.5007ZM11.446 13.334C13.3826 13.334 14.9343 11.7707 14.9343 9.83398C14.9343 7.89732 13.3826 6.33398 11.446 6.33398C9.5093 6.33398 7.94596 7.89732 7.94596 9.83398C7.94596 11.7707 9.5093 13.334 11.446 13.334ZM20.196 16.834C18.061 16.834 13.7793 17.9073 13.7793 20.0423V22.6673H26.6126V20.0423C26.6126 17.9073 22.331 16.834 20.196 16.834ZM11.446 15.6673C8.72763 15.6673 3.2793 17.0323 3.2793 19.7507V22.6673H11.446V20.0423C11.446 19.0507 11.831 17.3123 14.211 15.994C13.196 15.784 12.216 15.6673 11.446 15.6673Z" fill="white"/>
</svg>