<svg width="18" height="18" viewBox="0 0 18 18" fill="none" xmlns="http://www.w3.org/2000/svg">
<g clip-path="url(#clip0_1676_23315)">
<path d="M13.2813 0.562414C15.4546 0.583227 17.4161 2.46723 17.4374 4.71854C17.4466 7.58185 17.4642 10.4452 17.4371 13.3081C17.4029 15.461 15.5326 17.416 13.2813 17.4374C10.418 17.4466 7.55469 17.4642 4.69175 17.437C2.53925 17.4029 0.583998 15.5326 0.562435 13.2813C0.553435 10.418 0.535623 7.55466 0.56281 4.69173C0.596935 2.53885 2.46725 0.583977 4.71856 0.562414C7.57287 0.553414 10.427 0.553414 13.2813 0.562414ZM4.7465 1.68741C3.16025 1.69248 1.70337 3.05354 1.68744 4.72566C1.67844 7.58185 1.66044 10.438 1.68762 13.2939C1.71256 14.8657 3.07794 16.2967 4.72569 16.3124C7.58187 16.3216 10.4381 16.3392 13.2939 16.3122C14.8666 16.2871 16.2967 14.9219 16.3124 13.2742C16.3216 10.418 16.3392 7.56179 16.3122 4.70598C16.2871 3.13341 14.924 1.70316 13.2742 1.68741C10.4317 1.67841 7.589 1.68741 4.7465 1.68741Z" fill="#BF0C0C"/>
<path d="M9.04659 2.89042C11.0958 2.92923 12.8757 4.92854 12.5836 7.01411C12.3445 8.71961 10.7326 10.1275 8.9999 10.1275C6.91509 10.1275 5.05209 8.02511 5.43777 5.86904C5.72952 4.23742 7.23702 2.92304 8.95321 2.89042C8.9999 2.89004 8.9999 2.89004 9.04659 2.89042ZM8.96765 4.01523C7.31971 4.04654 5.98059 5.98923 6.75196 7.58898C7.4279 8.99129 9.5534 9.42592 10.7198 8.31367C12.0833 7.01373 11.3624 4.05967 9.03215 4.01523C8.9999 4.01504 8.9999 4.01504 8.96765 4.01523ZM9.05577 10.8777C11.2737 10.9083 13.4108 12.2274 14.3988 14.2587C14.6067 14.6862 14.186 15.2613 13.7056 15.0704C13.3491 14.9287 13.2524 14.4597 13.0238 14.1264C11.644 12.1134 8.65452 11.4061 6.5069 12.6882C5.68077 13.1814 5.01084 13.9229 4.59327 14.7914C4.59327 14.7914 4.40165 15.0957 4.11327 15.1096C3.67227 15.1306 3.39234 14.6442 3.69627 14.0714C4.71552 12.1495 6.82059 10.8676 9.05577 10.8777Z" fill="#BF0C0C"/>
</g>
<defs>
<clipPath id="clip0_1676_23315">
<rect width="18" height="18" fill="white"/>
</clipPath>
</defs>
</svg>
