<svg width="36" height="35" viewBox="0 0 36 35" fill="none" xmlns="http://www.w3.org/2000/svg">
<path d="M35.7656 17.5C35.7656 27.165 27.9306 35 18.2656 35C8.60064 35 0.765625 27.165 0.765625 17.5C0.765625 7.83502 8.60064 0 18.2656 0C27.9306 0 35.7656 7.83502 35.7656 17.5Z" fill="#495894"/>
<rect width="24.5" height="24.5" transform="translate(5.66467 4.89941)" fill="#495894"/>
<mask id="mask0_2243_32821" style="mask-type:alpha" maskUnits="userSpaceOnUse" x="5" y="4" width="26" height="26">
<rect x="5.66467" y="4.90039" width="24.5" height="24.5" fill="#D9D9D9"/>
</mask>
<g mask="url(#mask0_2243_32821)">
</g>
<g clip-path="url(#clip0_2243_32821)">
<path d="M27.7983 22.4601H11.0089V8.3584C11.0089 7.8563 10.6017 7.44922 10.0996 7.44922C9.59758 7.44922 9.19049 7.8563 9.19049 8.3584V22.4602H6.34156C5.83951 22.4601 5.43237 22.8672 5.43237 23.3693C5.43237 23.8713 5.83951 24.2785 6.34156 24.2785H9.19049V26.6432C9.19049 27.1455 9.59758 27.5524 10.0996 27.5524C10.6017 27.5524 11.0089 27.1455 11.0089 26.6432V24.2785H27.7983C28.3003 24.2785 28.7075 23.8713 28.7075 23.3693C28.7075 22.8672 28.3003 22.4601 27.7983 22.4601Z" fill="white"/>
<path d="M13.1713 20.6486H15.6734C15.8341 20.6486 15.9643 20.5184 15.9643 20.3577V14.5624C15.9643 14.4018 15.8341 14.2715 15.6734 14.2715H13.1713C13.0106 14.2715 12.8804 14.4018 12.8804 14.5624V20.3577C12.8804 20.5184 13.0106 20.6486 13.1713 20.6486Z" fill="white"/>
<path d="M17.2444 20.6501H19.7465C19.9072 20.6501 20.0374 20.5198 20.0374 20.3592V17.8072C19.7914 17.6432 19.5598 17.4537 19.3459 17.2398C18.4972 16.3911 18.0298 15.2627 18.0298 14.0624C18.0298 13.2658 18.2368 12.5016 18.6232 11.8291H17.2444C17.0837 11.8291 16.9535 11.9594 16.9535 12.12V20.3592C16.9535 20.5198 17.0837 20.6501 17.2444 20.6501Z" fill="white"/>
<path d="M21.0269 18.302V20.3598C21.0269 20.5204 21.1571 20.6507 21.3178 20.6507H23.8199C23.9806 20.6507 24.1108 20.5204 24.1108 20.3598V18.2686C23.6084 18.4584 23.0728 18.5567 22.5238 18.5567C22.0058 18.5566 21.5014 18.4692 21.0269 18.302Z" fill="white"/>
<path d="M22.5237 17.7109C23.2841 17.7109 24.0085 17.4789 24.6177 17.0502L27.6852 20.1177C27.8089 20.2413 27.9709 20.3031 28.1327 20.3031C28.2947 20.3031 28.4567 20.2413 28.5803 20.1177C28.8275 19.8706 28.8275 19.4698 28.5803 19.2226L25.5127 16.1551C25.9415 15.5457 26.1733 14.8214 26.1733 14.061C26.1733 13.0861 25.7938 12.1695 25.1044 11.4802C24.415 10.7908 23.4984 10.4111 22.5236 10.4111C21.5486 10.4111 20.6321 10.7908 19.9427 11.4802C19.2534 12.1696 18.8738 13.0861 18.8738 14.061C18.8738 15.0359 19.2534 15.9525 19.9427 16.6418C20.6322 17.3312 21.5487 17.7109 22.5237 17.7109ZM20.6887 12.2261C21.1789 11.736 21.8305 11.4661 22.5237 11.4661C23.2167 11.4661 23.8685 11.736 24.3585 12.2261C24.8487 12.7163 25.1186 13.3679 25.1186 14.0611C25.1186 14.7542 24.8487 15.4059 24.3585 15.896C23.8685 16.3862 23.2167 16.6561 22.5237 16.6561C21.8305 16.6561 21.1789 16.3862 20.6887 15.896C20.1986 15.4059 19.9287 14.7542 19.9287 14.0611C19.9287 13.3679 20.1986 12.7163 20.6887 12.2261Z" fill="white"/>
<path d="M22.2699 15.2623V15.7571C22.2699 15.8094 22.3124 15.8518 22.3647 15.8518H22.7072C22.7595 15.8518 22.8019 15.8094 22.8019 15.7571V15.2781C23.3351 15.2123 23.6656 14.9016 23.6656 14.4647C23.6656 13.8861 23.1656 13.7429 22.7638 13.6279C22.4528 13.5388 22.2639 13.4729 22.2639 13.3091C22.2639 13.1964 22.3644 13.1318 22.5398 13.1318C22.7352 13.1318 23.0445 13.2261 23.3093 13.3666C23.3322 13.3787 23.3587 13.3811 23.3833 13.3729C23.4077 13.3648 23.4279 13.3472 23.4391 13.324L23.6256 12.937C23.6471 12.8924 23.6306 12.8388 23.5878 12.814C23.3657 12.6849 23.0871 12.5963 22.802 12.5639V12.1152C22.802 12.0629 22.7596 12.0205 22.7072 12.0205H22.3648C22.3125 12.0205 22.27 12.0629 22.27 12.1152V12.5839C21.8027 12.6772 21.5241 12.9703 21.5241 13.3698C21.5241 13.9323 22.0179 14.0676 22.4149 14.1763C22.7327 14.2634 22.9257 14.3285 22.9257 14.4988C22.9257 14.6862 22.7196 14.7141 22.5968 14.7141C22.3405 14.7141 21.9807 14.5768 21.7219 14.38C21.6994 14.363 21.6705 14.3568 21.6432 14.3632C21.6157 14.3695 21.5926 14.3877 21.5799 14.4128L21.3916 14.7867C21.3711 14.8275 21.3826 14.8771 21.4189 14.9047C21.6554 15.0846 21.9572 15.2114 22.2699 15.2623Z" fill="white"/>
</g>
<defs>
<clipPath id="clip0_2243_32821">
<rect width="23.3333" height="23.3333" fill="white" transform="translate(5.43225 5.83496)"/>
</clipPath>
</defs>
</svg>
