<svg width="25" height="25" viewBox="0 0 25 25" fill="none" xmlns="http://www.w3.org/2000/svg">
<path fill-rule="evenodd" clip-rule="evenodd" d="M23.9662 11.2961C24.2981 14.0206 23.686 16.7766 22.232 19.1045C20.7779 21.4324 18.5698 23.1915 15.9758 24.0884C13.3818 24.9854 10.5587 24.966 7.97729 24.0335C5.39587 23.101 3.21212 21.3117 1.79019 18.9641C1.63543 18.7089 1.5884 18.4026 1.65943 18.1128C1.73046 17.8229 1.91373 17.5731 2.16894 17.4183C2.42414 17.2636 2.73037 17.2165 3.02025 17.2876C3.31014 17.3586 3.55993 17.5419 3.71469 17.7971C4.48065 19.0619 5.52427 20.136 6.76657 20.9379C8.00888 21.7399 9.41732 22.2488 10.8853 22.4262C12.3533 22.6035 13.8425 22.4446 15.24 21.9615C16.6375 21.4784 17.9069 20.6838 18.952 19.6377C19.9971 18.5917 20.7906 17.3216 21.2725 15.9237C21.7543 14.5257 21.9119 13.0364 21.7332 11.5686C21.5546 10.1007 21.0444 8.69274 20.2413 7.45115C19.4382 6.20957 18.3632 5.16691 17.0977 4.40208C16.8423 4.24773 16.6587 3.99823 16.5872 3.70849C16.5158 3.41875 16.5623 3.11249 16.7167 2.85708C16.871 2.60168 17.1205 2.41805 17.4103 2.3466C17.7 2.27515 18.0063 2.32173 18.2617 2.47608C19.8191 3.41746 21.142 4.70072 22.1302 6.22877C23.1185 7.75681 23.7463 9.48962 23.9662 11.2961ZM13.5547 2.24658C13.5547 2.64441 13.3967 3.02594 13.1153 3.30724C12.834 3.58855 12.4525 3.74658 12.0547 3.74658C11.6569 3.74658 11.2753 3.58855 10.994 3.30724C10.7127 3.02594 10.5547 2.64441 10.5547 2.24658C10.5547 1.84876 10.7127 1.46723 10.994 1.18592C11.2753 0.904617 11.6569 0.746582 12.0547 0.746582C12.4525 0.746582 12.834 0.904617 13.1153 1.18592C13.3967 1.46723 13.5547 1.84876 13.5547 2.24658ZM4.26069 8.24658C4.36073 8.07593 4.42604 7.88717 4.45283 7.69117C4.47963 7.49517 4.4674 7.29581 4.41684 7.10456C4.36627 6.91331 4.27838 6.73395 4.15822 6.57681C4.03805 6.41967 3.88799 6.28785 3.71668 6.18894C3.54536 6.09002 3.35617 6.02598 3.16 6.00048C2.96383 5.97498 2.76456 5.98854 2.57365 6.04037C2.38274 6.0922 2.20397 6.18128 2.04763 6.30248C1.89128 6.42368 1.76046 6.57461 1.66269 6.74658C1.46691 7.09092 1.41528 7.49872 1.51906 7.88098C1.62285 8.26324 1.87361 8.58894 2.21665 8.78699C2.55968 8.98505 2.96712 9.03938 3.35006 8.93814C3.73301 8.83689 4.06036 8.58829 4.26069 8.24658ZM1.55469 11.2466C1.95251 11.2466 2.33404 11.4046 2.61535 11.6859C2.89665 11.9672 3.05469 12.3488 3.05469 12.7466C3.05469 13.1444 2.89665 13.5259 2.61535 13.8072C2.33404 14.0885 1.95251 14.2466 1.55469 14.2466C1.15686 14.2466 0.775332 14.0885 0.494027 13.8072C0.212723 13.5259 0.0546875 13.1444 0.0546875 12.7466C0.0546875 12.3488 0.212723 11.9672 0.494027 11.6859C0.775332 11.4046 1.15686 11.2466 1.55469 11.2466ZM7.55469 4.95258C7.72666 4.85481 7.87759 4.72398 7.99879 4.56764C8.11999 4.4113 8.20907 4.23253 8.2609 4.04162C8.31273 3.85071 8.32629 3.65144 8.30079 3.45527C8.27529 3.2591 8.21124 3.06991 8.11233 2.89859C8.01342 2.72727 7.8816 2.57722 7.72446 2.45705C7.56731 2.33689 7.38796 2.249 7.19671 2.19843C7.00546 2.14787 6.8061 2.13564 6.6101 2.16243C6.4141 2.18923 6.22534 2.25454 6.05469 2.35458C5.71298 2.55491 5.46437 2.88226 5.36313 3.2652C5.26189 3.64815 5.31622 4.05559 5.51428 4.39862C5.71233 4.74165 6.03803 4.99242 6.42029 5.09621C6.80255 5.19999 7.21035 5.14836 7.55469 4.95258Z" fill="#CCCCCC"/>
</svg>
