<svg width="25" height="25" viewBox="0 0 25 25" fill="none" xmlns="http://www.w3.org/2000/svg">
<path d="M11.4453 4.59375H14.4453C14.4453 4.19593 14.2873 3.81439 14.006 3.53309C13.7247 3.25179 13.3431 3.09375 12.9453 3.09375C12.5475 3.09375 12.166 3.25179 11.8847 3.53309C11.6033 3.81439 11.4453 4.19593 11.4453 4.59375ZM9.94531 4.59375C9.94531 3.7981 10.2614 3.03504 10.824 2.47243C11.3866 1.90982 12.1497 1.59375 12.9453 1.59375C13.741 1.59375 14.504 1.90982 15.0666 2.47243C15.6292 3.03504 15.9453 3.7981 15.9453 4.59375H21.9453C22.1442 4.59375 22.335 4.67277 22.4756 4.81342C22.6163 4.95407 22.6953 5.14484 22.6953 5.34375C22.6953 5.54266 22.6163 5.73343 22.4756 5.87408C22.335 6.01473 22.1442 6.09375 21.9453 6.09375H21.0993L19.2918 19.3507C19.1692 20.2491 18.7253 21.0727 18.0422 21.6689C17.359 22.2652 16.483 22.5937 15.5763 22.5938H10.3143C9.40759 22.5937 8.53158 22.2652 7.84846 21.6689C7.16535 21.0727 6.7214 20.2491 6.59881 19.3507L4.79131 6.09375H3.94531C3.7464 6.09375 3.55563 6.01473 3.41498 5.87408C3.27433 5.73343 3.19531 5.54266 3.19531 5.34375C3.19531 5.14484 3.27433 4.95407 3.41498 4.81342C3.55563 4.67277 3.7464 4.59375 3.94531 4.59375H9.94531ZM11.4453 9.84375C11.4453 9.64484 11.3663 9.45407 11.2256 9.31342C11.085 9.17277 10.8942 9.09375 10.6953 9.09375C10.4964 9.09375 10.3056 9.17277 10.165 9.31342C10.0243 9.45407 9.94531 9.64484 9.94531 9.84375V17.3438C9.94531 17.5427 10.0243 17.7334 10.165 17.8741C10.3056 18.0147 10.4964 18.0938 10.6953 18.0938C10.8942 18.0938 11.085 18.0147 11.2256 17.8741C11.3663 17.7334 11.4453 17.5427 11.4453 17.3438V9.84375ZM15.1953 9.09375C15.3942 9.09375 15.585 9.17277 15.7256 9.31342C15.8663 9.45407 15.9453 9.64484 15.9453 9.84375V17.3438C15.9453 17.5427 15.8663 17.7334 15.7256 17.8741C15.585 18.0147 15.3942 18.0938 15.1953 18.0938C14.9964 18.0938 14.8056 18.0147 14.665 17.8741C14.5243 17.7334 14.4453 17.5427 14.4453 17.3438V9.84375C14.4453 9.64484 14.5243 9.45407 14.665 9.31342C14.8056 9.17277 14.9964 9.09375 15.1953 9.09375ZM8.08531 19.1483C8.15893 19.6872 8.42528 20.1812 8.83508 20.5389C9.24488 20.8966 9.77037 21.0937 10.3143 21.0938H15.5763C16.1205 21.094 16.6464 20.8971 17.0565 20.5394C17.4666 20.1817 17.7332 19.6874 17.8068 19.1483L19.5858 6.09375H6.30481L8.08531 19.1483Z" fill="#BF0C0C"/>
</svg>
