<svg width="60" height="60" viewBox="0 0 60 60" fill="none" xmlns="http://www.w3.org/2000/svg">
<path d="M60 30C60 46.5685 46.5685 60 30 60C13.4315 60 0 46.5685 0 30C0 13.4315 13.4315 0 30 0C46.5685 0 60 13.4315 60 30Z" fill="#34D399"/>
<g clip-path="url(#clip0_5237_5650)">
<path d="M38.8516 35.0244H40.1641C40.5391 35.0244 40.9141 34.6494 40.9141 34.2744V20.7744C40.9141 20.3994 40.5391 20.0244 40.1641 20.0244H38.8516C38.4766 20.0244 38.1016 20.3994 38.1016 20.7744V34.2744C38.1016 34.6494 38.4766 35.0244 38.8516 35.0244ZM27.6016 35.0244H28.9141C29.2891 35.0244 29.6641 34.6494 29.6641 34.2744V22.6494C29.6641 22.2744 29.2891 21.8994 28.9141 21.8994H27.6016C27.2266 21.8994 26.8516 22.2744 26.8516 22.6494V34.2744C26.8516 34.6494 27.2266 35.0244 27.6016 35.0244ZM33.2266 35.0244H34.5391C34.9141 35.0244 35.2891 34.6494 35.2891 34.2744V26.3994C35.2891 26.0244 34.9141 25.6494 34.5391 25.6494H33.2266C32.8516 25.6494 32.4766 26.0244 32.4766 26.3994V34.2744C32.4766 34.6494 32.8516 35.0244 33.2266 35.0244ZM44.6641 37.8369H18.4141V19.0869C18.4141 18.5689 17.9945 18.1494 17.4766 18.1494H16.5391C16.0211 18.1494 15.6016 18.5689 15.6016 19.0869V38.7744C15.6016 39.8098 16.4412 40.6494 17.4766 40.6494H44.6641C45.182 40.6494 45.6016 40.2299 45.6016 39.7119V38.7744C45.6016 38.2564 45.182 37.8369 44.6641 37.8369ZM21.9766 35.0244H23.2891C23.6641 35.0244 24.0391 34.6494 24.0391 34.2744V30.1494C24.0391 29.7744 23.6641 29.3994 23.2891 29.3994H21.9766C21.6016 29.3994 21.2266 29.7744 21.2266 30.1494V34.2744C21.2266 34.6494 21.6016 35.0244 21.9766 35.0244Z" fill="white"/>
</g>
<defs>
<clipPath id="clip0_5237_5650">
<rect width="30" height="30" fill="white" transform="translate(15.6016 14.3994)"/>
</clipPath>
</defs>
</svg>
