<svg width="40" height="40" viewBox="0 0 40 40" fill="none" xmlns="http://www.w3.org/2000/svg">
<path d="M40 20C40 31.0457 31.0457 40 20 40C8.9543 40 0 31.0457 0 20C0 8.9543 8.9543 0 20 0C31.0457 0 40 8.9543 40 20Z" fill="#56C474"/>
<path d="M25.2507 20.0007C26.8607 20.0007 28.1557 18.694 28.1557 17.084C28.1557 15.474 26.8607 14.1673 25.2507 14.1673C23.6407 14.1673 22.334 15.474 22.334 17.084C22.334 18.694 23.6407 20.0007 25.2507 20.0007ZM16.5007 18.834C18.4373 18.834 19.989 17.2707 19.989 15.334C19.989 13.3973 18.4373 11.834 16.5007 11.834C14.564 11.834 13.0007 13.3973 13.0007 15.334C13.0007 17.2707 14.564 18.834 16.5007 18.834ZM25.2507 22.334C23.1157 22.334 18.834 23.4073 18.834 25.5423V28.1673H31.6673V25.5423C31.6673 23.4073 27.3857 22.334 25.2507 22.334ZM16.5007 21.1673C13.7823 21.1673 8.33398 22.5323 8.33398 25.2507V28.1673H16.5007V25.5423C16.5007 24.5507 16.8857 22.8123 19.2657 21.494C18.2507 21.284 17.2707 21.1673 16.5007 21.1673Z" fill="#FCFCFC"/>
</svg>
