<svg width="20" height="20" viewBox="0 0 20 20" fill="none" xmlns="http://www.w3.org/2000/svg">
<path d="M19.5581 9.78001C19.5581 15.0293 15.3027 19.2846 10.0534 19.2846C4.80419 19.2846 0.548828 15.0293 0.548828 9.78001C0.548828 4.53075 4.80419 0.275391 10.0534 0.275391C15.3027 0.275391 19.5581 4.53075 19.5581 9.78001Z" fill="#F46F31"/>
<g clip-path="url(#clip0_3192_14082)">
<path d="M15.2314 12.4711H6.11269V4.81216C6.11269 4.53945 5.89157 4.31836 5.61887 4.31836C5.34619 4.31836 5.1251 4.53945 5.1251 4.81216V12.4711H3.57778C3.30511 12.4711 3.08398 12.6922 3.08398 12.9649C3.08398 13.2376 3.30511 13.4587 3.57778 13.4587H5.1251V14.743C5.1251 15.0158 5.34619 15.2368 5.61887 15.2368C5.89157 15.2368 6.11269 15.0158 6.11269 14.743V13.4587H15.2314C15.504 13.4587 15.7252 13.2376 15.7252 12.9649C15.7252 12.6922 15.504 12.4711 15.2314 12.4711Z" fill="#FCFCFC"/>
<path d="M7.28692 11.487H8.64585C8.73314 11.487 8.80387 11.4162 8.80387 11.329V8.18145C8.80387 8.0942 8.73314 8.02344 8.64585 8.02344H7.28692C7.19963 8.02344 7.12891 8.0942 7.12891 8.18145V11.329C7.12891 11.4162 7.19963 11.487 7.28692 11.487Z" fill="#FCFCFC"/>
<path d="M9.49981 11.4881H10.8587C10.946 11.4881 11.0168 11.4174 11.0168 11.3301V9.9441C10.8831 9.85501 10.7573 9.75208 10.6412 9.63594C10.1802 9.17498 9.92636 8.5621 9.92636 7.91019C9.92636 7.47758 10.0388 7.0625 10.2486 6.69727H9.49981C9.41252 6.69727 9.3418 6.76802 9.3418 6.85528V11.3301C9.3418 11.4174 9.41252 11.4881 9.49981 11.4881Z" fill="#FCFCFC"/>
<path d="M11.5537 10.2115V11.3291C11.5537 11.4164 11.6244 11.4872 11.7117 11.4872H13.0707C13.1579 11.4872 13.2287 11.4164 13.2287 11.3291V10.1934C12.9558 10.2965 12.6649 10.3499 12.3667 10.3499C12.0854 10.3498 11.8114 10.3023 11.5537 10.2115Z" fill="#FCFCFC"/>
<path d="M12.3661 9.89237C12.7791 9.89237 13.1725 9.7664 13.5034 9.53355L15.1695 11.1996C15.2366 11.2667 15.3246 11.3003 15.4125 11.3003C15.5005 11.3003 15.5885 11.2667 15.6556 11.1996C15.7898 11.0653 15.7898 10.8477 15.6556 10.7134L13.9895 9.0474C14.2224 8.71645 14.3483 8.32306 14.3483 7.91004C14.3483 7.38056 14.1422 6.88275 13.7677 6.50835C13.3933 6.13391 12.8955 5.92773 12.3661 5.92773C11.8365 5.92773 11.3388 6.13394 10.9643 6.50835C10.59 6.88278 10.3838 7.38059 10.3838 7.91007C10.3838 8.43954 10.59 8.93736 10.9644 9.31173C11.3388 9.68619 11.8366 9.89237 12.3661 9.89237ZM11.3695 6.9135C11.6357 6.6473 11.9896 6.5007 12.3661 6.5007C12.7425 6.5007 13.0965 6.6473 13.3627 6.9135C13.6289 7.17972 13.7755 7.53364 13.7755 7.9101C13.7755 8.28655 13.6289 8.64048 13.3627 8.90667C13.0965 9.17289 12.7425 9.3195 12.3661 9.3195C11.9896 9.3195 11.6357 9.17289 11.3695 8.90667C11.1033 8.64048 10.9567 8.28652 10.9567 7.9101C10.9567 7.53361 11.1033 7.17972 11.3695 6.9135Z" fill="#FCFCFC"/>
<path d="M12.2286 8.56145V8.8302C12.2286 8.85861 12.2517 8.88165 12.2801 8.88165H12.4661C12.4945 8.88165 12.5176 8.85861 12.5176 8.8302V8.57005C12.8071 8.5343 12.9866 8.36554 12.9866 8.12827C12.9866 7.81401 12.7151 7.73626 12.4969 7.67378C12.3279 7.6254 12.2254 7.58962 12.2254 7.50066C12.2254 7.43945 12.28 7.40434 12.3752 7.40434C12.4813 7.40434 12.6493 7.45556 12.7932 7.53185C12.8056 7.53843 12.82 7.53972 12.8333 7.53527C12.8466 7.53091 12.8575 7.52133 12.8636 7.50872L12.9649 7.29853C12.9766 7.27432 12.9676 7.24521 12.9444 7.23172C12.8238 7.16162 12.6724 7.11352 12.5176 7.09589V6.85223C12.5176 6.82382 12.4946 6.80078 12.4661 6.80078H12.2802C12.2517 6.80078 12.2287 6.82382 12.2287 6.85223V7.10676C11.9749 7.15745 11.8236 7.31661 11.8236 7.53359C11.8236 7.8391 12.0918 7.91258 12.3074 7.97161C12.48 8.01892 12.5848 8.05432 12.5848 8.14682C12.5848 8.24858 12.4729 8.26375 12.4062 8.26375C12.267 8.26375 12.0715 8.18913 11.931 8.08229C11.9188 8.07303 11.9031 8.06968 11.8882 8.07312C11.8733 8.07656 11.8607 8.08646 11.8539 8.10011L11.7516 8.30316C11.7404 8.32531 11.7467 8.35224 11.7664 8.36725C11.8949 8.46497 12.0588 8.5338 12.2286 8.56145Z" fill="#FCFCFC"/>
</g>
<defs>
<clipPath id="clip0_3192_14082">
<rect width="12.6728" height="12.6728" fill="white" transform="translate(3.08398 3.44336)"/>
</clipPath>
</defs>
</svg>
