<svg width="25" height="25" viewBox="0 0 25 25" fill="none" xmlns="http://www.w3.org/2000/svg">
<path d="M7.94531 7.09386H6.94531C6.41488 7.09386 5.90617 7.30458 5.5311 7.67965C5.15603 8.05472 4.94531 8.56343 4.94531 9.09386V18.0939C4.94531 18.6243 5.15603 19.133 5.5311 19.5081C5.90617 19.8831 6.41488 20.0939 6.94531 20.0939H15.9453C16.4757 20.0939 16.9845 19.8831 17.3595 19.5081C17.7346 19.133 17.9453 18.6243 17.9453 18.0939V17.0939M16.9452 5.09386L19.9452 8.09386M21.3302 6.67886C21.7241 6.28501 21.9453 5.75084 21.9453 5.19386C21.9453 4.63687 21.7241 4.1027 21.3302 3.70886C20.9364 3.31501 20.4022 3.09375 19.8452 3.09375C19.2882 3.09375 18.7541 3.31501 18.3602 3.70886L9.9452 12.0939V15.0939H12.9452L21.3302 6.67886Z" stroke="#BF0C0C" stroke-width="1.5" stroke-linecap="round" stroke-linejoin="round"/>
</svg>
