<svg width="828" height="745" viewBox="0 0 828 745" fill="none" xmlns="http://www.w3.org/2000/svg">
<path d="M626.721 129.076H152.392C135.03 129.076 120.955 145.828 120.955 166.492V523.916C120.955 544.581 135.03 561.332 152.392 561.332H626.721C644.085 561.332 658.159 544.581 658.159 523.916V166.492C658.159 145.828 644.085 129.076 626.721 129.076Z" fill="url(#paint0_linear_2913_5849)"/>
<path d="M156.904 129.076H622.973C632.407 129.076 641.456 133.536 648.122 141.474C654.796 149.412 658.544 160.179 658.544 171.405H121.339C121.339 160.179 125.085 149.412 131.756 141.474C138.425 133.536 147.471 129.076 156.904 129.076Z" fill="#F46F31"/>
<path d="M404.134 198.272H623.547C627.309 198.272 630.926 200.052 633.584 203.219C636.249 206.388 637.745 210.685 637.745 215.165V344.251C637.745 348.731 636.249 353.028 633.584 356.196C630.926 359.364 627.309 361.143 623.547 361.143H404.134C400.37 361.143 396.76 359.364 394.097 356.196C391.436 353.028 389.94 348.731 389.94 344.251V215.165C389.94 212.947 390.307 210.75 391.02 208.7C391.734 206.651 392.779 204.788 394.097 203.22C395.415 201.652 396.98 200.407 398.702 199.558C400.424 198.709 402.27 198.272 404.134 198.272Z" stroke="#5661AE" stroke-miterlimit="10" stroke-dasharray="11.93 11.93"/>
<path d="M564.654 385.02H345.239C337.4 385.02 331.046 392.582 331.046 401.913V530.999C331.046 540.328 337.4 547.891 345.239 547.891H564.654C572.492 547.891 578.848 540.328 578.848 530.999V401.913C578.848 392.582 572.492 385.02 564.654 385.02Z" fill="white"/>
<path d="M304.459 385.02H151.139C144.508 385.02 139.133 391.417 139.133 399.31V533.601C139.133 541.493 144.508 547.891 151.139 547.891H304.459C311.09 547.891 316.466 541.493 316.466 533.601V399.31C316.466 391.417 311.09 385.02 304.459 385.02Z" fill="white"/>
<path d="M351.237 503.464C351.237 503.464 367.683 501.402 377.57 510.212C390.832 522.027 401.512 531.147 415.61 502.108C431.055 470.293 433.482 459.182 444.75 459.05C459.212 458.882 464.857 504.761 491.523 508.003C518.189 511.245 536.32 506.058 536.32 506.058" fill="white"/>
<path d="M351.237 503.464C351.237 503.464 367.683 501.402 377.57 510.212C390.832 522.027 401.512 531.147 415.61 502.108C431.055 470.293 433.482 459.182 444.75 459.05C459.212 458.882 464.857 504.761 491.523 508.003C518.189 511.245 536.32 506.058 536.32 506.058" stroke="#BF0C0C" stroke-width="10" stroke-miterlimit="10" stroke-linecap="round"/>
<path d="M351.237 411.9H389.556H351.237Z" fill="#BF0C0C"/>
<path d="M351.237 411.9H389.556" stroke="#CC3100" stroke-width="16" stroke-miterlimit="10" stroke-linecap="round"/>
<path d="M351.237 433.183H430.426" stroke="#F46F31" stroke-width="16" stroke-miterlimit="10" stroke-linecap="round"/>
<path d="M153.839 159.814C157.195 159.814 159.916 156.575 159.916 152.581C159.916 148.586 157.195 145.347 153.839 145.347C150.483 145.347 147.762 148.586 147.762 152.581C147.762 156.575 150.483 159.814 153.839 159.814Z" fill="white"/>
<path d="M174.434 159.814C177.791 159.814 180.511 156.575 180.511 152.581C180.511 148.586 177.791 145.347 174.434 145.347C171.077 145.347 168.357 148.586 168.357 152.581C168.357 156.575 171.077 159.814 174.434 159.814Z" fill="white"/>
<path d="M194.443 159.814C197.8 159.814 200.52 156.575 200.52 152.581C200.52 148.586 197.8 145.347 194.443 145.347C191.086 145.347 188.365 148.586 188.365 152.581C188.365 156.575 191.086 159.814 194.443 159.814Z" fill="white"/>
<path d="M514.192 308.975C527.773 308.975 538.783 295.872 538.783 279.708C538.783 263.544 527.773 250.44 514.192 250.44C500.611 250.44 489.601 263.544 489.601 279.708C489.601 295.872 500.611 308.975 514.192 308.975Z" fill="#CC3100"/>
<path d="M516.132 265.88C516.132 264.604 515.263 263.57 514.191 263.57C513.119 263.57 512.25 264.604 512.25 265.88V295.392C512.25 296.668 513.119 297.703 514.191 297.703C515.263 297.703 516.132 296.668 516.132 295.392V265.88Z" fill="white"/>
<path d="M526.59 282.946C527.661 282.946 528.53 281.911 528.53 280.636C528.53 279.36 527.661 278.325 526.59 278.325H501.793C500.72 278.325 499.852 279.36 499.852 280.636C499.852 281.911 500.72 282.946 501.793 282.946H526.59Z" fill="white"/>
<path d="M386.424 729.818C599.844 729.818 772.851 724.558 772.851 718.069C772.851 711.579 599.844 706.319 386.424 706.319C173.008 706.319 0 711.579 0 718.069C0 724.558 173.008 729.818 386.424 729.818Z" fill="#F5F8FF"/>
<path d="M725.328 487.308H454.946V714.637H725.328V487.308Z" fill="#064E3B"/>
<path d="M562.96 487.308H454.946V714.637H562.96V487.308Z" fill="url(#paint1_linear_2913_5849)"/>
<path d="M66.2105 629.194L55.1146 714.001L50.8901 713.218C49.4646 712.954 48.1857 712.026 47.3346 710.64C46.4834 709.254 46.1298 707.521 46.352 705.825L55.774 633.812C55.9962 632.116 56.7754 630.594 57.9403 629.581C59.1051 628.568 60.5605 628.147 61.9861 628.411L66.2105 629.194Z" fill="#064E3B"/>
<path d="M100.889 643.467L83.5401 637.289L78.0244 666.057L97.0056 673.15L100.889 643.467Z" fill="#BC775C"/>
<path d="M88.9514 670.14L85.7437 668.942L93.6239 640.88L96.5535 641.923L88.9514 670.14Z" fill="#93523E"/>
<path d="M85.7402 637.696C85.7402 637.696 78.9428 651.753 82.6886 667.8L59.3363 713.237C57.3065 715.002 54.2223 713.955 52.5084 712.87C52.1336 712.629 51.8308 712.256 51.6427 711.801C51.4539 711.348 51.3885 710.834 51.4561 710.334L61.5287 633.352C61.6958 632.067 62.2804 630.912 63.1555 630.134C64.0313 629.357 65.1279 629.019 66.2107 629.194C70.5419 629.893 77.1338 631.023 79.7264 631.816C83.7337 633.04 85.847 634.774 85.7402 637.696Z" fill="#047857"/>
<path d="M78.0317 677.45L74.6033 670.943C74.4776 670.705 74.3055 670.507 74.1007 670.368C73.8966 670.228 73.6664 670.15 73.4311 670.141C73.1951 670.132 72.9613 670.192 72.7499 670.316C72.5386 670.44 72.3556 670.624 72.2176 670.851C72.0491 671.131 71.9547 671.463 71.9467 671.807C71.9395 672.151 72.0194 672.489 72.1755 672.779L76.4558 680.687L78.0317 677.45Z" fill="white"/>
<path d="M74.1451 684.422L70.7501 677.93C70.6244 677.692 70.4523 677.494 70.2482 677.355C70.0435 677.215 69.8133 677.137 69.578 677.128C69.3419 677.119 69.1081 677.179 68.8968 677.303C68.6854 677.427 68.5024 677.611 68.3652 677.838C68.196 678.117 68.1016 678.45 68.0943 678.794C68.0863 679.138 68.1662 679.477 68.3223 679.765L72.5126 687.6L74.1451 684.422Z" fill="white"/>
<path d="M70.1169 692.26L66.7843 685.814C66.6594 685.576 66.4865 685.379 66.2824 685.239C66.0777 685.099 65.8474 685.021 65.6121 685.013C65.3768 685.003 65.143 685.064 64.931 685.187C64.7196 685.311 64.5373 685.495 64.3994 685.722C64.2302 686.001 64.1357 686.335 64.1285 686.678C64.1205 687.022 64.2004 687.361 64.3572 687.65L68.5272 695.354L70.1169 692.26Z" fill="white"/>
<path d="M256.943 703.074H329.058V708.163C329.058 709.013 328.917 709.855 328.644 710.64C328.371 711.426 327.97 712.139 327.464 712.74C326.96 713.342 326.36 713.819 325.7 714.144C325.04 714.47 324.333 714.637 323.618 714.637H262.383C260.94 714.637 259.557 713.955 258.537 712.74C257.516 711.527 256.943 709.88 256.943 708.163V703.074Z" fill="#064E3B"/>
<path d="M263.457 660.096L260.997 681.448L285.73 683.509L288.697 660.096H263.457Z" fill="#BC775C"/>
<path d="M288.442 662.118L287.808 667.115L262.41 669.186L263.224 662.118H288.442Z" fill="#93523E"/>
<path d="M260.998 678.799C260.998 678.799 273.714 684.631 286.46 677.757L327.775 698.227C329.553 700.342 329.159 704.131 328.52 706.313C328.379 706.791 328.115 707.204 327.767 707.496C327.419 707.788 327.003 707.943 326.577 707.941H261.116C260.024 707.942 258.975 707.432 258.195 706.522C257.415 705.612 256.966 704.374 256.944 703.074C256.858 697.873 256.782 689.948 257.041 686.777C257.441 681.875 258.556 679.123 260.998 678.799Z" fill="#047857"/>
<path d="M295.189 681.747L290.313 686.781C290.135 686.964 289.998 687.198 289.913 687.459C289.828 687.721 289.799 688.004 289.828 688.282C289.857 688.561 289.942 688.827 290.078 689.056C290.213 689.286 290.394 689.473 290.604 689.6C290.862 689.755 291.153 689.815 291.44 689.771C291.726 689.727 291.995 689.581 292.211 689.352L298.117 683.103L295.189 681.747Z" fill="white"/>
<path d="M301.574 685.245L296.706 690.237C296.527 690.421 296.39 690.654 296.306 690.916C296.221 691.178 296.192 691.46 296.221 691.739C296.249 692.017 296.336 692.283 296.471 692.512C296.606 692.742 296.787 692.929 296.997 693.056C297.254 693.211 297.546 693.271 297.832 693.227C298.118 693.183 298.388 693.038 298.604 692.809L304.463 686.676L301.574 685.245Z" fill="white"/>
<path d="M308.701 688.776L303.862 693.688C303.684 693.871 303.546 694.104 303.462 694.366C303.377 694.628 303.348 694.911 303.377 695.189C303.405 695.467 303.491 695.734 303.627 695.964C303.762 696.193 303.943 696.379 304.153 696.506C304.411 696.662 304.702 696.722 304.989 696.678C305.275 696.634 305.543 696.488 305.76 696.259L311.514 690.17L308.701 688.776Z" fill="white"/>
<path d="M220.981 380.247L235.927 345.224C235.927 345.224 226.828 346.639 225.243 339.918C223.657 333.196 268.242 327.182 268.242 327.182C268.242 327.182 264.675 342.041 259.325 343.809L244.612 395.105L220.981 380.247Z" fill="#BC775C"/>
<path d="M223.207 375.03L246.552 388.34L244.611 395.105L221.925 378.036L223.207 375.03Z" fill="#93523E"/>
<path d="M365.547 192.817L150.646 234.687C146.959 235.405 144.459 239.545 145.063 243.934L159.096 345.958C159.699 350.346 163.178 353.322 166.866 352.604L381.766 310.733C385.454 310.015 387.953 305.875 387.35 301.486L373.317 199.462C372.714 195.074 369.235 192.098 365.547 192.817Z" fill="#F46F31"/>
<path d="M255.73 256.786L343.068 239.769" stroke="white" stroke-width="16.5208" stroke-miterlimit="10" stroke-linecap="round"/>
<path opacity="0.7" d="M261.936 288.348L318.908 277.248" stroke="white" stroke-width="16.5208" stroke-miterlimit="10" stroke-linecap="round"/>
<path d="M203.525 326.4C220.584 326.4 234.414 309.941 234.414 289.638C234.414 269.334 220.584 252.874 203.525 252.874C186.466 252.874 172.636 269.334 172.636 289.638C172.636 309.941 186.466 326.4 203.525 326.4Z" stroke="#EF6A77" stroke-width="16.5208" stroke-miterlimit="10"/>
<path d="M234.008 283.698C234.995 290.874 234.172 298.236 231.643 304.855C229.114 311.474 224.993 317.051 219.801 320.883C214.608 324.714 208.578 326.626 202.472 326.379C196.366 326.131 190.46 323.734 185.499 319.491C180.538 315.248 176.745 309.349 174.601 302.54C172.457 295.732 172.057 288.319 173.453 281.241C174.848 274.162 177.975 267.735 182.44 262.771C186.905 257.808 192.506 254.532 198.535 253.357" stroke="white" stroke-width="16.5208" stroke-miterlimit="10" stroke-linecap="round"/>
<path d="M213.59 564.927L222.505 685.012C222.505 710.753 200.437 713.682 193.372 710.648C183.408 706.368 86.896 677.126 86.896 677.126L97.1241 639.843L171.197 652.096C171.197 652.096 169.172 627.078 149.308 550.685L213.59 564.927Z" fill="#BF0C0C"/>
<path d="M155.399 576.716L215.459 596.787L212.082 548.567L148.781 550.256L155.399 576.716Z" fill="#9B0303"/>
<path d="M212.718 301.83C212.718 301.83 224.612 317.899 228.148 324.403C231.684 330.907 231.811 343.664 224.417 346.916C217.024 350.168 210.976 350.714 200.181 348.315C191.782 346.448 180.893 329.951 184.108 321.534C187.323 313.117 202.27 297.813 212.718 301.83Z" fill="#BC775C"/>
<path d="M214.969 346.785L213.2 373.949L187.323 367.254L198.896 341.62L214.969 346.785Z" fill="#BC775C"/>
<path d="M214.969 349.612H207.933L213.952 362.402" fill="#93523E"/>
<path d="M184.43 365.532L188.289 361.082C188.79 360.504 189.405 360.086 190.078 359.866C190.75 359.646 191.459 359.63 192.138 359.822L213.297 365.786C213.807 365.929 214.276 366.229 214.661 366.652C215.044 367.076 215.329 367.611 215.487 368.205L217.016 373.949L184.43 365.532Z" fill="url(#paint2_linear_2913_5849)"/>
<path d="M150.916 502.872L147.128 524.712C142.864 558.031 162.934 580.069 193.609 574.063C221.004 568.699 302.151 531.254 302.151 531.254L298.917 471.991L230.698 485.386C230.698 485.386 169.38 471.866 150.916 502.872Z" fill="#BF0C0C"/>
<path d="M303.998 523.817C316.187 523.817 326.067 512.058 326.067 497.553C326.067 483.047 316.187 471.288 303.998 471.288C291.811 471.288 281.931 483.047 281.931 497.553C281.931 512.058 291.811 523.817 303.998 523.817Z" fill="#5661AE"/>
<path d="M303.998 523.817C316.187 523.817 326.067 512.058 326.067 497.553C326.067 483.047 316.187 471.288 303.998 471.288C291.811 471.288 281.931 483.047 281.931 497.553C281.931 512.058 291.811 523.817 303.998 523.817Z" fill="#BF0C0C"/>
<path d="M200.437 712.03C212.625 712.03 222.505 700.271 222.505 685.766C222.505 671.26 212.625 659.501 200.437 659.501C188.25 659.501 178.37 671.26 178.37 685.766C178.37 700.271 188.25 712.03 200.437 712.03Z" fill="#BF0C0C"/>
<path d="M324.989 505.143L293.967 662.118H256.863L281.93 497.553L324.989 505.143Z" fill="#BF0C0C"/>
<path d="M230.17 484.958L148.462 515.223L150.389 502.443L230.17 484.958Z" fill="#9B0303"/>
<path d="M249.034 396.712L257.152 403.741L284.261 350.782C284.261 350.782 280.652 333.436 280.404 330.482L289.224 328.985C289.224 328.985 296.368 312.96 298.405 309.789C300.442 306.62 302.792 307.179 304.045 309.789C304.045 309.789 307.962 310.535 308.588 316.875C308.588 316.875 312.035 317.808 313.445 326.011C313.445 326.011 316.421 329.741 315.795 333.843C315.168 337.945 307.335 354.022 306.081 355.679C305.116 357.031 304.227 358.456 303.418 359.946L277.309 434.411C277.309 434.411 270.929 450.698 255.977 444.521L237.441 434.297C228.933 427.736 249.034 396.712 249.034 396.712Z" fill="#BC775C"/>
<path d="M262.698 446.447C271.316 446.447 278.303 438.131 278.303 427.874C278.303 417.616 271.316 409.3 262.698 409.3C254.079 409.3 247.092 417.616 247.092 427.874C247.092 438.131 254.079 446.447 262.698 446.447Z" fill="#BC775C"/>
<path d="M197.288 315.221C197.288 315.221 212.558 309.1 215.611 296.283C218.665 283.465 212.237 276.77 203.879 283.274C203.879 283.274 197.932 271.988 187.805 279.831C177.679 287.675 179.608 306.23 179.93 309.865C179.93 309.865 168.518 319.429 173.983 334.542C179.448 349.654 194.443 353.288 194.443 353.288C196.098 350.458 197.282 347.276 197.932 343.916C197.932 343.916 189.668 336.455 194.443 329.186C199.217 321.916 204.682 333.585 204.682 333.585C204.682 333.585 208.861 317.134 197.288 315.221Z" fill="black"/>
<path d="M184.43 365.532C184.43 365.532 173.83 371.805 171.429 378.561C169.21 384.803 153.776 466.791 149.05 499.796C148.936 500.579 148.987 501.383 149.196 502.136C149.405 502.891 149.768 503.572 150.25 504.121C150.732 504.67 151.321 505.069 151.963 505.283C152.605 505.498 153.282 505.522 153.934 505.352L230.698 485.386C230.698 485.386 226.943 437.369 228.259 423.277C229.574 409.185 217.017 373.949 217.017 373.949L184.43 365.532Z" fill="url(#paint3_linear_2913_5849)"/>
<path d="M227.987 429.922L208.634 416.233L228.772 455.66L227.987 429.922Z" fill="#96BAFD"/>
<path d="M257.151 403.74L262.787 408.415L268.241 382.076L257.151 403.74Z" fill="#93523E"/>
<path d="M217.016 373.949C217.016 373.949 247.819 393.99 251.559 397.276C252.044 397.702 252.385 398.32 252.52 399.018C252.656 399.718 252.578 400.451 252.299 401.087L238.151 433.415C237.993 433.778 237.774 434.099 237.507 434.357C237.24 434.616 236.932 434.808 236.602 434.919C236.271 435.032 235.924 435.062 235.583 435.009C235.242 434.956 234.914 434.821 234.618 434.612L198.715 409.218C198.715 409.218 196.805 375.415 217.016 373.949Z" fill="url(#paint4_linear_2913_5849)"/>
<path d="M213.087 325.935C213.825 325.279 213.741 323.66 212.9 322.32C212.059 320.978 210.778 320.423 210.04 321.079C209.302 321.735 209.386 323.354 210.227 324.695C211.068 326.035 212.348 326.591 213.087 325.935Z" fill="#080B09"/>
<path d="M223.209 316.819C223.947 316.163 223.863 314.544 223.022 313.204C222.181 311.862 220.9 311.307 220.163 311.963C219.424 312.619 219.508 314.238 220.349 315.579C221.19 316.919 222.47 317.475 223.209 316.819Z" fill="#080B09"/>
<path d="M219.111 319.316C219.111 319.316 218.936 323.282 220.978 322.237C222.898 321.16 224.54 321.902 223.336 324.912" stroke="#93523E" stroke-width="1.20877" stroke-linecap="round" stroke-linejoin="round"/>
<path d="M224.011 327.742C222.852 328.493 220.533 329.993 219.003 331.023C218.911 331.084 218.834 331.173 218.782 331.282C218.729 331.392 218.702 331.515 218.705 331.641C218.707 331.767 218.739 331.889 218.796 331.995C218.853 332.101 218.933 332.186 219.028 332.241C221.174 333.344 225.769 334.95 224.805 328.257C224.804 328.147 224.779 328.04 224.731 327.946C224.684 327.851 224.616 327.775 224.535 327.722C224.454 327.67 224.363 327.644 224.271 327.647C224.179 327.651 224.089 327.684 224.011 327.742Z" fill="white"/>
<path d="M204.382 321.971L204.597 322.181C204.888 322.518 205.279 322.704 205.685 322.699C206.091 322.694 206.48 322.498 206.764 322.154L211.536 316.084C211.777 315.801 211.92 315.422 211.937 315.02C211.953 314.617 211.843 314.222 211.626 313.912C211.502 313.715 211.343 313.552 211.162 313.434C210.979 313.314 210.778 313.243 210.572 313.224C210.365 313.205 210.157 313.237 209.962 313.32C209.767 313.404 209.588 313.536 209.439 313.707L204.453 319.568C204.313 319.718 204.199 319.9 204.12 320.104C204.04 320.307 203.995 320.527 203.989 320.752C203.982 320.976 204.014 321.2 204.081 321.41C204.149 321.619 204.25 321.81 204.382 321.971Z" fill="#080B09"/>
<path d="M221.721 304.746L215.16 307.676C214.967 307.766 214.792 307.903 214.646 308.079C214.501 308.255 214.389 308.466 214.317 308.698C214.245 308.929 214.215 309.177 214.23 309.423C214.244 309.669 214.302 309.909 214.4 310.126C214.546 310.489 214.8 310.775 215.114 310.925C215.428 311.075 215.778 311.08 216.095 310.938L222.725 308.328C223.107 308.164 223.419 307.827 223.594 307.39C223.767 306.954 223.79 306.452 223.655 305.997L223.585 305.677C223.517 305.467 223.413 305.277 223.282 305.116C223.151 304.955 222.993 304.827 222.819 304.741C222.645 304.654 222.458 304.609 222.27 304.61C222.082 304.611 221.895 304.658 221.721 304.746Z" fill="#080B09"/>
<path d="M725.327 171.405L668.609 223.903H778.37L725.327 171.405Z" fill="#F8A5A5"/>
<path d="M545.748 441.016C545.748 441.016 524.949 419.407 508.039 437.771C491.128 456.133 421.262 582.234 421.262 582.234L442.393 599.627L521.646 493.549L535.441 519.977L545.748 441.016Z" fill="#FCBA9F"/>
<path fill-rule="evenodd" clip-rule="evenodd" d="M531.597 682.3C540.309 674.724 549.289 666.913 558.745 664.391C558.958 664.333 559.179 664.332 559.393 664.385C559.606 664.439 559.807 664.548 559.982 664.703C560.157 664.859 560.302 665.058 560.406 665.287C560.51 665.516 560.571 665.768 560.584 666.028L561.62 686.908C561.641 687.338 561.531 687.763 561.31 688.103C561.088 688.445 560.771 688.678 560.416 688.761L495.639 703.999C490.863 705.123 487.8 702.651 486.331 698.261C486.283 698.11 486.272 697.945 486.301 697.786C486.329 697.628 486.396 697.483 486.492 697.368C486.588 697.254 486.71 697.174 486.843 697.141C486.976 697.106 487.115 697.118 487.242 697.175C495.751 700.895 505.145 700.506 513.416 696.087C519.391 692.917 525.427 687.667 531.597 682.3Z" fill="#BF0C0C"/>
<path fill-rule="evenodd" clip-rule="evenodd" d="M551.477 613.892C551.477 613.892 552.704 646.847 553.35 650.2C553.794 652.032 554.352 653.823 555.017 655.558C556.128 658.708 557.365 662.218 557.478 664.768C548.486 667.619 539.92 675.068 531.599 682.304C525.428 687.669 519.393 692.917 513.417 696.087C505.546 700.291 496.642 700.857 488.439 697.674C487.313 691.977 490.582 685.671 498.83 682.83C513.613 677.738 521.691 674.511 526.846 659.795C530.509 649.337 524.374 612.931 524.374 612.931L551.477 613.892Z" fill="#FFCCB3"/>
<path fill-rule="evenodd" clip-rule="evenodd" d="M527.492 654.231C530.399 654.018 541.949 653.114 553.006 651.393C555.155 651.059 557.073 655.862 556.155 658.917C555.555 661.148 555.106 663.434 554.814 665.751C551.206 667.32 547.745 669.33 544.484 671.748C545.153 666.303 542.363 663.893 538.218 664.141C534.943 664.337 527.546 666.812 523.733 668.156C523.523 668.23 523.3 668.23 523.091 668.158C522.881 668.085 522.693 667.943 522.549 667.747C522.405 667.552 522.31 667.312 522.278 667.054C522.245 666.798 522.274 666.535 522.363 666.297L526.515 655.044C526.599 654.815 526.735 654.617 526.907 654.474C527.08 654.331 527.282 654.247 527.492 654.231Z" fill="#E05151"/>
<path fill-rule="evenodd" clip-rule="evenodd" d="M496.906 699.617C504.431 700.318 508.983 697.99 508.983 697.99L505.955 679.757L494.181 683.204L496.906 699.617Z" fill="#E05151"/>
<path fill-rule="evenodd" clip-rule="evenodd" d="M402.544 616.473C413.304 617.427 424.394 618.412 432.967 623.789C433.161 623.909 433.331 624.078 433.464 624.284C433.598 624.49 433.691 624.727 433.74 624.982C433.789 625.235 433.79 625.497 433.744 625.752C433.699 626.007 433.607 626.246 433.476 626.453L422.89 643.15C422.672 643.494 422.357 643.731 422.002 643.82C421.649 643.909 421.279 643.842 420.964 643.631L363.348 605.244C359.099 602.413 358.114 598.167 359.387 593.691C359.432 593.539 359.515 593.406 359.623 593.307C359.731 593.209 359.86 593.149 359.996 593.136C360.132 593.123 360.268 593.157 360.387 593.234C360.507 593.31 360.606 593.427 360.672 593.568C365.123 602.967 372.488 609.92 381.191 612.938C387.467 615.136 394.922 615.797 402.544 616.473Z" fill="#BF0C0C"/>
<path fill-rule="evenodd" clip-rule="evenodd" d="M454.946 579.734L436.592 608.82C435.932 610.558 435.381 612.352 434.942 614.187C434.072 617.442 433.101 621.068 431.798 623.097C423.399 618.329 412.819 617.389 402.543 616.476C394.922 615.799 387.469 615.137 381.192 612.939C372.909 610.065 365.822 603.624 361.312 594.871C363.557 589.665 369.482 587.387 377.309 591.589C391.337 599.121 399.246 602.898 411.186 595.672C413.111 594.324 414.835 592.607 416.291 590.592L434.836 558.087L454.946 579.734Z" fill="#FCBA9F"/>
<path fill-rule="evenodd" clip-rule="evenodd" d="M414.71 591.936C417.039 594.018 426.325 602.241 435.681 609.464C437.498 610.869 436.341 616.005 433.978 617.623C432.306 618.858 430.719 620.251 429.235 621.79C425.633 620.201 421.903 619.06 418.104 618.384C421.579 614.756 420.768 610.767 417.476 607.757C414.877 605.379 407.898 601.556 404.262 599.636C404.062 599.53 403.892 599.358 403.773 599.141C403.652 598.924 403.587 598.671 403.583 598.411C403.58 598.151 403.64 597.895 403.754 597.674C403.869 597.453 404.035 597.275 404.232 597.163L413.524 591.801C413.712 591.691 413.924 591.646 414.133 591.669C414.342 591.694 414.542 591.786 414.71 591.936Z" fill="#E05151"/>
<path fill-rule="evenodd" clip-rule="evenodd" d="M366.699 602.885C372.046 609.226 376.78 610.966 376.78 610.966L384.408 594.747L373.566 588.286L366.699 602.885Z" fill="#E05151"/>
<path d="M574.271 425.337L519.43 436.933L530.224 488.6H565.353C565.353 488.6 582.052 445.882 574.271 425.337Z" fill="#FFCCB3"/>
<path d="M526.458 488.094C538.645 488.094 548.526 476.336 548.526 461.83C548.526 447.325 538.645 435.566 526.458 435.566C514.27 435.566 504.39 447.325 504.39 461.83C504.39 476.336 514.27 488.094 526.458 488.094Z" fill="#FFCCB3"/>
<path d="M504.664 465.968L526.746 630.53L552.216 631.795L549.242 469.126L504.664 465.968Z" fill="#FFCCB3"/>
<path d="M539.258 429.864C539.258 429.864 547.71 432.961 551.198 449.368C554.687 465.774 550.88 488.6 550.88 488.6H556.315C556.315 488.6 575.694 461.515 561.437 426.997L539.258 429.864Z" fill="#FF967C"/>
<path d="M592.58 289.138L585.677 293.079C583.03 294.591 580.697 296.78 578.843 299.488C576.989 302.198 575.66 305.361 574.952 308.751L559.348 383.478L524.168 403.497L532.188 418.659L598.704 415.851L592.58 289.138Z" fill="#BF0C0C"/>
<path d="M582.639 316.039C582.639 316.039 570.526 336.292 576.388 355.582C582.249 374.873 579.856 378.45 578.39 395.54C576.924 412.63 581.711 408.656 581.711 408.656L598.703 399.117C598.703 399.117 605.791 318.277 582.639 316.039Z" fill="#9B0303"/>
<path d="M653.903 409.057C653.903 409.057 660.621 448.173 651.819 464.519C640.679 485.209 627.055 488.378 616.982 488.6H550.88C550.88 488.6 550.758 439.517 518.192 431.132C518.192 431.132 625.37 395.605 653.903 409.057Z" fill="#2A0F0F"/>
<path d="M655.385 420.447L585.329 423.192L586.074 417.368L599.727 415.49H655.283L655.385 420.447Z" fill="black"/>
<path d="M564.779 402.119C564.779 402.119 556.209 405.083 552.359 406.431C548.51 407.778 540.897 411.014 540.897 411.014L546.471 420.447L571.731 418.659L564.779 402.119Z" fill="#FFCCB3"/>
<path d="M606.306 282.162C606.306 282.162 591.924 288.937 589.727 291.028C587.531 293.119 585.445 310.186 581.711 318.29C577.977 326.394 572.515 341.351 580.493 355.09C588.471 368.829 587.623 379.739 587.623 379.739L585.925 414.203L652.479 416.613C653.082 416.635 653.685 416.505 654.244 416.229C654.803 415.954 655.312 415.541 655.726 415.016C656.14 414.492 656.459 413.868 656.655 413.187C656.851 412.505 656.924 411.782 656.873 411.064C656.111 401.015 654.825 386.003 654.549 370.003C654.179 348.319 653.903 275.863 653.903 275.863L623.946 274.744C617.919 275.982 606.306 282.162 606.306 282.162Z" fill="#BF0C0C"/>
<path d="M653.903 314.332C662.828 314.332 670.061 305.72 670.061 295.098C670.061 284.475 662.828 275.863 653.903 275.863C644.977 275.863 637.744 284.475 637.744 295.098C637.744 305.72 644.977 314.332 653.903 314.332Z" fill="#BF0C0C"/>
<path d="M655.555 402.688C655.555 402.688 654.175 408.701 639.397 415.729C639.397 415.729 604.749 414.833 587.535 415.263C570.322 415.694 589.38 410.29 598.99 404.588C608.598 398.886 654.466 383.049 654.466 383.049L655.555 402.688Z" fill="#9B0303"/>
<path d="M641.589 305.053C641.589 305.053 631.567 315.926 630.979 323.994C630.383 332.061 629.025 354.556 616.149 356.8C600.361 359.55 596.229 362.228 603.55 364.333C610.863 366.437 627.471 363.027 627.471 372.049C627.471 378.47 633.92 383.274 637.166 379.766C640.405 376.259 666.23 322.942 641.589 305.053Z" fill="#9B0303"/>
<path d="M669.887 297.912C668.529 305.63 655.602 386.946 655.602 386.946C655.602 386.946 653.903 399.111 643.917 402.119L574.27 423.192L562.015 401.313L625.181 375.603L637.744 295.098C637.744 295.098 671.702 287.615 669.887 297.912Z" fill="#BF0C0C"/>
<path d="M604.688 267.187L605.348 293.871C605.348 293.871 605.174 298.474 609.865 297.854C614.564 297.233 624.012 293.055 626.619 287.675C629.226 282.293 627.578 280.448 627.578 280.448L613.25 247.205L604.688 267.187Z" fill="#FFCCB3"/>
<path d="M604.688 270.288L610.555 262.008L605.189 287.48L604.688 270.288Z" fill="#FF967C"/>
<path d="M609.916 201.411C609.662 196.321 610.591 191.244 612.61 186.744C615.951 179.563 622.879 169.632 633.409 173.91C643.932 178.188 651.637 187.814 647.658 201.411C643.678 215.01 632.625 219.361 626.989 217.912C621.354 216.464 609.916 201.411 609.916 201.411Z" fill="#080B09"/>
<path d="M606.524 203.303C607.134 202.086 608.035 201.122 609.124 200.543C610.206 199.964 611.412 199.798 612.581 200.068C616.75 200.981 621.129 204.895 624.862 209.591C628.587 214.288 628.464 217.697 626.771 219.776C625.079 221.855 606.524 203.303 606.524 203.303Z" fill="#870000"/>
<path d="M514.191 339.449L540.897 427.507H594.593C594.593 424.818 593.692 422.238 592.097 420.338C590.5 418.436 588.333 417.368 586.074 417.368H547.228L524.167 339.449H514.191Z" fill="white"/>
<path d="M514.191 339.449H442.148L470.01 427.507H540.897L514.191 339.449Z" fill="#6EE7B7"/>
<path d="M491.523 393.873C495.111 393.873 498.02 390.411 498.02 386.14C498.02 381.87 495.111 378.408 491.523 378.408C487.935 378.408 485.026 381.87 485.026 386.14C485.026 390.411 487.935 393.873 491.523 393.873Z" fill="white"/>
<path d="M575.527 234.375C575.527 234.375 577.748 259.916 588.189 271.546C595 279.129 601.245 277.187 610.555 262.009C619.088 248.091 619.836 241.323 619.836 241.323L610.817 217.164C610.817 217.164 574.466 211.006 575.527 234.375Z" fill="#FFCCB3"/>
<path d="M579.221 229.375C579.221 229.375 584.359 239.107 593.765 239.265C595.74 241.184 598.086 242.469 600.591 242.993C603.104 243.518 605.682 243.266 608.079 242.261C608.079 242.261 604.331 235.487 608.079 233.113C614.455 229.082 616.648 242.524 613.249 247.205C610.94 250.387 613.38 254.091 615.101 257.403C616.83 260.716 622.392 268.918 622.392 268.918C622.392 268.918 621.862 264.186 624.382 260.716C626.902 257.246 635.065 221.72 619.894 208.652C604.723 195.584 588.752 206.038 585.758 208.652C585.758 208.652 569.815 211.966 569.787 231.699C569.763 248.569 579.851 252.582 579.851 252.582L576.84 238.966C576.84 238.966 578.702 239.202 579.221 229.375Z" fill="#080B09"/>
<path d="M596.176 260.835C596.176 260.835 597.352 265.213 593.358 267.246C590.659 268.303 588.773 265.157 588.773 265.157L596.176 260.835Z" fill="#E56441"/>
<path d="M582.189 254.414C583.02 254.171 583.449 252.791 583.146 251.334C582.844 249.877 581.926 248.894 581.095 249.138C580.264 249.382 579.836 250.761 580.138 252.218C580.44 253.675 581.359 254.658 582.189 254.414Z" fill="#080B09"/>
<path d="M594.506 251.017C595.334 250.773 595.763 249.395 595.465 247.937C595.16 246.48 594.245 245.496 593.41 245.741C592.58 245.985 592.152 247.364 592.455 248.821C592.756 250.278 593.678 251.262 594.506 251.017Z" fill="#080B09"/>
<path d="M577.411 246.558L583.679 244.846C583.784 244.806 583.872 244.722 583.929 244.61C583.986 244.499 584.007 244.367 583.988 244.238C583.918 244.018 583.811 243.818 583.675 243.649C583.538 243.48 583.375 243.345 583.193 243.253C583.012 243.162 582.817 243.115 582.62 243.116C582.423 243.116 582.228 243.164 582.047 243.257L577.132 245.735C576.723 245.855 576.899 246.708 577.411 246.558Z" fill="#080B09"/>
<path d="M598.457 239.881L590.293 242.925C590.239 242.622 590.238 242.309 590.292 242.005C590.345 241.701 590.452 241.414 590.604 241.163C590.756 240.911 590.951 240.7 591.176 240.543C591.401 240.387 591.651 240.288 591.911 240.253L598.435 239.241C598.638 239.182 598.762 239.79 598.457 239.881Z" fill="#080B09"/>
<path d="M586.584 249.542L585.699 257.409L588.033 258.75" stroke="#E56441" stroke-width="0.94666" stroke-linecap="round"/>
<path d="M725.326 171.405V53.3087" stroke="#5661AE" stroke-miterlimit="10"/>
<path d="M689.112 618.034C689.112 618.034 682.509 603.24 699.059 593.915C715.608 584.59 738.588 593.825 736.53 597.053C733.322 602.309 729.678 607.26 725.64 611.848C720.41 617.855 705.404 627.18 689.112 618.034Z" fill="#6DAFA7"/>
<path d="M733.614 596.425C733.614 596.425 697.258 587.907 689.026 618.034C680.794 648.161 683.367 677.033 683.367 677.033" stroke="#22272E" stroke-width="1.8" stroke-linecap="round" stroke-linejoin="round"/>
<path d="M656.357 651.927L662.274 724.824C662.274 727.603 673.078 729.755 686.454 729.755C699.831 729.755 710.635 727.514 710.635 724.824L716.552 651.927H656.357Z" fill="#22272E"/>
<path d="M686.454 656.679C703.029 656.679 716.465 654.552 716.465 651.927C716.465 649.303 703.029 647.175 686.454 647.175C669.879 647.175 656.442 649.303 656.442 651.927C656.442 654.552 669.879 656.679 686.454 656.679Z" fill="#6DAFA7"/>
<path d="M678.822 636.774C678.822 636.774 669.133 631.753 662.873 643.05C656.614 654.348 661.244 671.384 665.532 673.894C669.819 676.405 687.654 667.887 687.654 650.761C687.654 635.518 678.822 636.774 678.822 636.774Z" fill="#6DAFA7"/>
<path d="M678.822 636.774C678.822 636.774 669.133 636.056 666.218 671.563" stroke="#22272E" stroke-width="1.8" stroke-linecap="round" stroke-linejoin="round"/>
<path d="M671.449 616.062C671.449 616.062 661.245 599.474 640.837 610.144C620.429 620.814 621.03 650.224 624.202 651.927C627.375 653.631 675.136 636.236 671.449 616.062Z" fill="#6DAFA7"/>
<path d="M687.654 650.761C687.654 650.761 681.309 627.449 671.448 615.972C661.587 604.495 630.975 617.676 625.573 645.382" stroke="#22272E" stroke-width="1.8" stroke-linecap="round" stroke-linejoin="round"/>
<path d="M699.059 625.387C699.059 625.387 690.398 622.248 686.454 633.456C682.595 644.395 687.14 669.322 709.434 676.854C710.01 677.04 710.625 677.046 711.204 676.87C711.783 676.695 712.301 676.346 712.692 675.867C718.27 668.811 721.278 659.916 721.181 650.762C721.095 632.56 711.492 619.379 699.059 625.387Z" fill="#6DAFA7"/>
<path d="M699.06 625.387C699.06 625.387 717.066 634.622 710.464 673.446" stroke="#22272E" stroke-width="1.8" stroke-linecap="round" stroke-linejoin="round"/>
<path d="M706.701 689.755L709.634 738.276C709.634 741.773 719.778 744.396 732.244 744.396C744.71 744.396 754.854 741.555 754.854 738.276L757.787 689.755H706.701Z" fill="#22272E"/>
<path d="M757.787 689.755C757.787 693.689 746.299 696.749 732.244 696.749C718.189 696.749 706.701 693.689 706.701 689.755C706.701 685.821 718.189 682.761 732.244 682.761C746.299 682.761 757.787 686.039 757.787 689.755Z" fill="#FFE779"/>
<path d="M725.4 689.755C725.4 689.755 711.712 680.138 713.178 661.342C714.645 642.545 724.789 681.45 727.355 675.548C729.922 669.647 726.622 641.015 732.244 638.393C737.866 635.77 736.399 675.986 736.399 675.986C739.879 672.836 743.022 668.619 745.687 663.527C749.232 656.096 754.364 672.707 739.821 689.755C735.202 693.16 730.018 693.16 725.4 689.755Z" fill="#36867C"/>
<path d="M732.734 425.453L776.332 410.96C776.821 410.803 777.332 410.767 777.833 410.855C778.334 410.942 778.815 411.151 779.247 411.468C779.678 411.785 780.051 412.204 780.342 412.699C780.634 413.194 780.837 413.754 780.941 414.346L786.324 447.717C786.574 449.119 786.398 450.58 785.826 451.839C785.254 453.098 784.324 454.071 783.203 454.584L740.67 474.918C740.182 475.151 739.657 475.253 739.132 475.218C738.607 475.182 738.095 475.009 737.632 474.711C737.169 474.413 736.767 473.997 736.453 473.493C736.14 472.989 735.922 472.409 735.817 471.794L729.229 432.63C729.064 431.884 729.024 431.106 729.11 430.341C729.197 429.576 729.409 428.84 729.735 428.173C730.06 427.507 730.493 426.923 731.007 426.457C731.522 425.99 732.109 425.649 732.734 425.453Z" stroke="#CC3100" stroke-width="1.8" stroke-linecap="round" stroke-linejoin="round"/>
<path d="M730.18 427.578L759.503 435.501C760.447 435.729 761.426 435.639 762.33 435.242C763.233 434.845 764.027 434.157 764.621 433.253L779.015 411.343" stroke="#CC3100" stroke-width="1.8" stroke-linecap="round" stroke-linejoin="round"/>
<path d="M789.695 355.68L823.661 360.61C824.041 360.67 824.406 360.821 824.735 361.055C825.063 361.29 825.349 361.601 825.573 361.972C825.797 362.342 825.955 362.763 826.038 363.209C826.121 363.655 826.126 364.117 826.055 364.566L821.688 389.722C821.522 390.787 821.043 391.747 820.337 392.428C819.631 393.109 818.745 393.468 817.838 393.439L783.193 392.953C782.795 392.948 782.404 392.838 782.046 392.632C781.689 392.426 781.373 392.128 781.123 391.76C780.872 391.393 780.692 390.963 780.596 390.503C780.5 390.043 780.489 389.563 780.566 389.098L785.5 359.481C785.567 358.903 785.728 358.346 785.975 357.842C786.222 357.338 786.549 356.897 786.939 356.544C787.328 356.191 787.772 355.933 788.245 355.785C788.718 355.636 789.21 355.601 789.695 355.68Z" stroke="#CC3100" stroke-width="1.8" stroke-linecap="round" stroke-linejoin="round"/>
<path d="M787.395 356.282L805.938 371.935C806.542 372.42 807.247 372.695 807.974 372.73C808.702 372.765 809.423 372.558 810.058 372.132L825.442 361.804" stroke="#CC3100" stroke-width="1.8" stroke-linecap="round" stroke-linejoin="round"/>
<ellipse cx="33.8046" cy="390.1" rx="12.9784" ry="12.1003" fill="#F46F31"/>
<ellipse cx="29.1694" cy="113.779" rx="8.34328" ry="7.77876" fill="#F46F31"/>
<ellipse cx="93.5239" cy="51.7788" rx="8.34328" ry="7.77876" fill="url(#paint5_linear_2913_5849)"/>
<ellipse cx="669.495" cy="37.7788" rx="8.34328" ry="7.77876" fill="#F46F31"/>
<ellipse cx="86.0156" cy="252.779" rx="8.34328" ry="7.77876" fill="#10B981"/>
<ellipse cx="574.262" cy="15.9897" rx="17.1501" ry="15.9897" fill="url(#paint6_linear_2913_5849)"/>
<ellipse cx="804.321" cy="159.482" rx="6.95273" ry="6.4823" fill="#10B981"/>
<ellipse cx="797.449" cy="389.075" rx="9.73382" ry="9.07522" fill="url(#paint7_linear_2913_5849)"/>
<ellipse cx="711.471" cy="219.914" rx="7.41625" ry="6.91445" fill="#10B981"/>
<defs>
<linearGradient id="paint0_linear_2913_5849" x1="389.557" y1="129.076" x2="389.889" y2="713.105" gradientUnits="userSpaceOnUse">
<stop stop-color="white"/>
<stop offset="1" stop-color="#F9A5A4"/>
</linearGradient>
<linearGradient id="paint1_linear_2913_5849" x1="508.846" y1="487.687" x2="508.846" y2="770.578" gradientUnits="userSpaceOnUse">
<stop stop-color="white"/>
<stop offset="1" stop-color="#064E3B" stop-opacity="0"/>
</linearGradient>
<linearGradient id="paint2_linear_2913_5849" x1="199.912" y1="359.655" x2="201.36" y2="390.176" gradientUnits="userSpaceOnUse">
<stop stop-color="white"/>
<stop offset="1" stop-color="#94B9FF"/>
</linearGradient>
<linearGradient id="paint3_linear_2913_5849" x1="187.81" y1="365.199" x2="241.688" y2="655.369" gradientUnits="userSpaceOnUse">
<stop stop-color="white"/>
<stop offset="1" stop-color="#94B9FF"/>
</linearGradient>
<linearGradient id="paint4_linear_2913_5849" x1="224.284" y1="373.803" x2="240.14" y2="502.892" gradientUnits="userSpaceOnUse">
<stop stop-color="white"/>
<stop offset="1" stop-color="#94B9FF"/>
</linearGradient>
<linearGradient id="paint5_linear_2913_5849" x1="93.5239" y1="44" x2="93.5239" y2="59.5575" gradientUnits="userSpaceOnUse">
<stop stop-color="#E05151"/>
<stop offset="1" stop-color="#C60707" stop-opacity="0"/>
</linearGradient>
<linearGradient id="paint6_linear_2913_5849" x1="574.262" y1="0" x2="574.262" y2="31.9793" gradientUnits="userSpaceOnUse">
<stop stop-color="#E05151"/>
<stop offset="1" stop-color="#C60707" stop-opacity="0"/>
</linearGradient>
<linearGradient id="paint7_linear_2913_5849" x1="797.449" y1="380" x2="797.449" y2="398.15" gradientUnits="userSpaceOnUse">
<stop stop-color="#E05151"/>
<stop offset="1" stop-color="#C60707" stop-opacity="0"/>
</linearGradient>
</defs>
</svg>
