<svg width="930" height="937" viewBox="0 0 930 937" fill="none" xmlns="http://www.w3.org/2000/svg">
<path fill-rule="evenodd" clip-rule="evenodd" d="M777.477 110.989C777.477 105.466 773 100.989 767.477 100.989H343.935L269.701 176.511V761.027C269.701 766.55 274.178 771.027 279.701 771.027H767.477C773 771.027 777.477 766.55 777.477 761.027V110.989Z" fill="#FCD9D9" fill-opacity="0.5"/>
<path d="M630.511 563.239H470.178V640.856H630.511V563.239Z" fill="#FFCCB3"/>
<path d="M469.233 611.09C450.429 629.532 443.03 720.358 444.022 771.261H667.855C667.855 771.261 667.452 660.255 650.482 622.848C634.877 588.448 608.936 639.193 469.233 611.09Z" fill="#EB650D"/>
<path d="M603.57 210C603.57 210 622.142 188.884 658.191 185.811C694.241 182.739 705.028 214.213 703.487 233.55C701.946 252.887 673.694 292.825 679.345 309.722C684.994 326.619 658.425 318.426 655.53 284.633C652.634 250.838 641.847 203.732 612.567 220.629L603.57 210Z" fill="#080B09"/>
<path d="M609.207 200.115C609.207 200.115 613.649 197.551 616.865 203.536C620.081 209.52 626.089 221.672 618.475 224.894C610.862 228.115 609.207 200.115 609.207 200.115Z" fill="#BF0C0C"/>
<path d="M506.23 394.735C506.23 394.735 535.029 426.954 525.451 437.288C506.482 458.529 456.03 498.449 439.498 511.664C438.784 512.208 437.97 512.607 437.101 512.837C436.232 513.066 435.326 513.121 434.435 513C433.545 512.878 432.688 512.582 431.912 512.129C431.137 511.676 430.459 511.074 429.918 510.358L390.827 459.127C389.299 457.155 388.586 454.674 388.835 452.194C389.085 449.714 390.277 447.424 392.168 445.792L467.887 380.707L506.23 394.735Z" fill="#BF0C0C"/>
<path d="M460.767 435.696C460.767 435.696 424.878 456.959 421.644 499.681L428.791 508.834C428.791 508.834 433.279 516.63 439.498 511.664C445.717 506.698 474.486 483.726 474.486 483.726L460.767 435.696Z" fill="#AE0707"/>
<path d="M494.323 451.892C516.709 451.892 534.857 433.802 534.857 411.488C534.857 389.173 516.709 371.083 494.323 371.083C471.936 371.083 453.789 389.173 453.789 411.488C453.789 433.802 471.936 451.892 494.323 451.892Z" fill="#BF0C0C"/>
<path d="M388.774 538.142L353.35 491.39L386.884 465.438L392.139 461.22L428.884 509.119L422.486 513.706L388.774 538.142Z" fill="#FFCCB3"/>
<path d="M422.485 513.706C412.997 501.042 395.152 476.293 386.884 465.438L392.14 461.22L428.791 508.834L422.485 513.706Z" fill="#FF967C"/>
<path d="M370.522 544.627C386.773 544.627 399.947 531.495 399.947 515.296C399.947 499.097 386.773 485.965 370.522 485.965C354.272 485.965 341.098 499.097 341.098 515.296C341.098 531.495 354.272 544.627 370.522 544.627Z" fill="#FFCCB3"/>
<path d="M395.438 499.518C395.438 499.518 300.519 360.567 296.13 348.767C291.861 337.243 269.44 364.974 269.44 364.974L342.903 524.741L395.438 499.518Z" fill="#FFCCB3"/>
<path d="M526.113 305.746L514.702 385.047C514.702 385.047 511.707 395.573 525.001 397.167C538.295 398.76 566.641 395.2 576.765 384.445C586.888 373.691 583.346 368.363 583.346 368.363L561.876 282.29L526.113 305.746Z" fill="#FFCCB3"/>
<path d="M524.525 316.008L552.437 306.18L517.857 357.268L524.525 316.008Z" fill="#FF967C"/>
<path d="M494.533 207.794C494.533 207.794 470.587 263.879 483.067 302.319C491.206 327.387 508.931 331.894 549.523 313.108C586.742 295.883 596.409 282.852 596.409 282.852L601.898 220.331C601.898 220.331 518.852 157.804 494.533 207.794Z" fill="#FFCCB3"/>
<path d="M514.501 362.247C514.501 362.247 483.826 370.742 477.6 375.707C471.376 380.671 466.848 421.022 457.647 440.953C444.026 470.46 435.206 486.157 458.09 518.584C471.893 538.142 467.2 587.863 467.2 587.863H635.238C630.147 490.096 652.676 374.846 652.676 374.846L576.837 357.427C559.737 360.365 514.501 362.247 514.501 362.247Z" fill="#BF0C0C"/>
<path d="M509.136 363.824C509.136 363.824 511.404 348.456 518.654 347.375C525.904 346.292 570.203 339.65 577.093 342.542C583.984 345.434 592.324 363.824 592.324 363.824C592.324 363.824 578.181 398.211 557.872 400.019C537.565 401.826 502.611 395.586 506.307 382.801C510.003 370.015 509.136 363.824 509.136 363.824Z" fill="#BF0C0C"/>
<path d="M495.34 368.496C495.34 368.496 500.241 398.155 526.854 397.686C553.468 397.219 592.14 357.427 592.14 357.427" stroke="white" stroke-width="1.35709" stroke-miterlimit="10"/>
<path d="M615.918 411.487C615.918 411.487 589.473 428.915 597.263 446.501C606.022 466.275 605.946 517.2 580.808 520.392C535.953 526.086 555.442 533.904 576.181 538.901C596.921 543.896 588.43 543.902 588.43 565.319C588.43 580.562 636.486 593.778 635.237 581.461C626.88 499.058 661.615 446.88 615.918 411.487Z" fill="#AE0707"/>
<path d="M492.399 290.309L514.675 291.408C514.596 291.681 514.474 292.055 514.3 292.494C513.92 293.449 513.292 294.706 512.295 295.924C510.319 298.336 506.868 300.631 500.904 300.03C497.139 299.311 494.997 296.787 493.785 294.398C493.178 293.2 492.81 292.046 492.593 291.191C492.505 290.84 492.442 290.54 492.399 290.309Z" fill="#E56441" stroke="#E56441"/>
<path d="M493.869 253.44C494.8 250 493.656 246.702 491.314 246.072C488.973 245.442 486.32 247.72 485.39 251.16C484.458 254.6 485.602 257.899 487.943 258.529C490.285 259.159 492.938 256.88 493.869 253.44Z" fill="#080B09"/>
<path d="M528.33 263.235C529.261 259.795 528.117 256.497 525.776 255.867C523.434 255.237 520.781 257.515 519.851 260.955C518.919 264.395 520.063 267.694 522.405 268.324C524.746 268.954 527.399 266.675 528.33 263.235Z" fill="#080B09"/>
<path d="M485.155 235.673L502.673 240.692C502.978 240.753 503.294 240.701 503.564 240.546C503.834 240.392 504.039 240.145 504.14 239.852C504.22 239.301 504.187 238.74 504.044 238.202C503.9 237.664 503.649 237.16 503.305 236.722C502.96 236.283 502.531 235.918 502.041 235.65C501.552 235.382 501.013 235.216 500.458 235.16L485.411 233.582C484.258 233.272 483.713 235.285 485.155 235.673Z" fill="#080B09"/>
<path d="M545.046 250.6L521.29 245.753C521.504 245.049 521.865 244.397 522.348 243.84C522.831 243.283 523.426 242.832 524.094 242.517C524.762 242.203 525.489 242.032 526.228 242.014C526.966 241.997 527.7 242.134 528.383 242.417L545.724 249.239C546.3 249.395 545.911 250.832 545.046 250.6Z" fill="#080B09"/>
<path d="M504.463 254.424L493.195 269.55L497.438 275.53" stroke="#E56441" stroke-width="2.23881" stroke-linecap="round"/>
<path d="M525.419 419.446C527.601 419.446 529.369 414.575 529.369 408.567C529.369 402.558 527.601 397.687 525.419 397.687C523.237 397.687 521.469 402.558 521.469 408.567C521.469 414.575 523.237 419.446 525.419 419.446Z" fill="white"/>
<path d="M707.509 569.134L648.928 573.919L638.929 531.6L626.882 499.058L688.53 491.704L696.238 528.124L707.509 569.134Z" fill="#FFCCB3"/>
<path d="M690.611 501.539L692.773 511.751L632.062 513.054L628.068 502.266L690.611 501.539Z" fill="#FF967C"/>
<path d="M642.597 454.386C664.983 454.386 683.131 436.297 683.131 413.982C683.131 391.667 664.983 373.578 642.597 373.578C620.211 373.578 602.062 391.667 602.062 413.982C602.062 436.297 620.211 454.386 642.597 454.386Z" fill="#BF0C0C"/>
<path d="M634.778 394.986C634.778 394.986 677.498 387.996 681.125 401.594C688.962 428.937 698.596 472.833 700.939 493.825C701.018 494.718 700.919 495.618 700.648 496.472C700.377 497.326 699.939 498.119 699.359 498.803C698.779 499.488 698.07 500.051 697.27 500.461C696.471 500.871 695.598 501.119 694.702 501.191L630.365 506.665C627.875 506.895 625.391 506.167 623.423 504.629C621.455 503.091 620.153 500.86 619.784 498.396L602.361 419.753L634.778 394.986Z" fill="#BF0C0C"/>
<path d="M509.463 202.462C509.463 202.462 510.978 229.704 534.131 242.906C534.131 242.906 540.901 263.799 566.168 268.713C566.168 268.713 564.676 249.509 576.719 249.712C597.17 250.058 587.111 280.979 573.284 286.053C563.889 289.5 558.229 301.737 572.177 329.624C604.203 318.237 626.727 272.252 617.897 221.233C610.825 180.377 560.012 167.034 549.572 168.365C549.572 168.365 506.216 153.436 483.387 194.382C463.872 229.386 482.097 250.277 482.097 250.277L492.498 219.124C492.498 219.124 496.842 222.164 509.463 202.462Z" fill="#080B09"/>
<path d="M707.724 670.086H552.568C549.567 670.086 546.668 668.993 544.418 667.014C542.168 665.034 540.72 662.304 540.348 659.335L526.026 545.404C525.809 543.676 525.963 541.922 526.477 540.259C526.993 538.595 527.857 537.059 529.013 535.754C530.168 534.448 531.589 533.403 533.181 532.687C534.774 531.971 536.5 531.6 538.247 531.6H722.045C723.792 531.6 725.519 531.971 727.111 532.687C728.703 533.403 730.124 534.448 731.28 535.754C732.436 537.059 733.299 538.595 733.814 540.259C734.329 541.922 734.483 543.676 734.266 545.404L719.945 659.335C719.572 662.304 718.124 665.034 715.874 667.014C713.624 668.993 710.726 670.086 707.724 670.086Z" fill="url(#paint0_linear_2896_6144)"/>
<path d="M630.51 609.574C636.525 609.574 641.401 604.714 641.401 598.719C641.401 592.723 636.525 587.863 630.51 587.863C624.496 587.863 619.62 592.723 619.62 598.719C619.62 604.714 624.496 609.574 630.51 609.574Z" fill="white"/>
<path d="M273.475 374.102L264.125 356.221C264.125 356.221 231.065 337.37 227.234 330.555C223.402 323.739 221.896 304.279 228.68 299.296C228.68 299.296 202.302 279.548 206.792 275.546C211.269 271.255 263.09 309.63 263.09 309.63C263.09 309.63 256.782 281.358 266.369 280.034C268.966 290.991 273.416 301.429 279.527 310.897C289.621 326.456 290.865 340.389 290.865 340.389L302.762 363.15L273.475 374.102Z" fill="#FFCCB3"/>
<path d="M230.457 299.796L246.43 309.83" stroke="#FF967C" stroke-width="2.87188" stroke-linecap="round" stroke-linejoin="round"/>
<path d="M228.075 311.276L241.633 319.676" stroke="#FF967C" stroke-width="2.87188" stroke-linecap="round" stroke-linejoin="round"/>
<path d="M230.71 323.687L239.753 329.383" stroke="#FF967C" stroke-width="2.87188" stroke-linecap="round" stroke-linejoin="round"/>
<path d="M676.131 665.436C676.131 665.436 684.332 666.116 683.097 670.24C681.862 674.366 674.54 672.461 667.855 676.587C661.17 680.711 634.741 683.655 621.54 681.463C608.338 679.269 604.671 665.436 604.671 665.436C604.671 665.436 602.464 652.314 625.783 650.967C649.102 649.619 659.954 657.077 664.009 665.162L676.131 665.436Z" fill="#FFCCB3"/>
<path d="M614.584 653.006L619.62 666.508" stroke="#E56441" stroke-width="2.23881" stroke-linecap="round"/>
<path d="M627.628 650.808L632.664 664.31" stroke="#E56441" stroke-width="2.23881" stroke-linecap="round"/>
<path d="M641.401 651.951L646.437 665.453" stroke="#E56441" stroke-width="2.23881" stroke-linecap="round"/>
<path d="M233.287 655.623V673.785" stroke="white" stroke-width="2.42819" stroke-miterlimit="10"/>
<path fill-rule="evenodd" clip-rule="evenodd" d="M705.878 64.106C749.787 64.106 785.383 99.6876 785.383 143.58H705.878V64.106Z" fill="#E05151"/>
<defs>
<linearGradient id="paint0_linear_2896_6144" x1="624.957" y1="531.271" x2="646.246" y2="826.807" gradientUnits="userSpaceOnUse">
<stop stop-color="white"/>
<stop offset="1" stop-color="#94B9FF"/>
</linearGradient>
</defs>
</svg>
