<svg width="71" height="70" viewBox="0 0 71 70" fill="none" xmlns="http://www.w3.org/2000/svg">
<path d="M70.334 35C70.334 54.33 54.664 70 35.334 70C16.004 70 0.333984 54.33 0.333984 35C0.333984 15.67 16.004 0 35.334 0C54.664 0 70.334 15.67 70.334 35Z" fill="#34D399"/>
<mask id="mask0_8019_37977" style="mask-type:alpha" maskUnits="userSpaceOnUse" x="10" y="9" width="50" height="50">
<rect x="10.1328" y="9.79932" width="49" height="49" fill="#D9D9D9"/>
</mask>
<g mask="url(#mask0_8019_37977)">
<path d="M17.7981 19.4093C17.7366 19.5423 17.7306 19.6941 17.7816 19.8314C17.8326 19.9687 17.9362 20.0802 18.0698 20.1414L19.215 20.6663C19.3481 20.7242 19.4986 20.7278 19.6343 20.6765C19.77 20.6251 19.88 20.5228 19.9408 20.3916C20.0016 20.2604 20.0082 20.1107 19.9593 19.9747C19.9104 19.8386 19.8099 19.7271 19.6792 19.664L18.5337 19.1389C18.4676 19.1085 18.3961 19.0913 18.3233 19.0885C18.2505 19.0856 18.1779 19.097 18.1095 19.1222C18.0412 19.1473 17.9785 19.1856 17.925 19.2349C17.8716 19.2841 17.8285 19.3434 17.7981 19.4093ZM22.2392 18.114C22.3275 18.1138 22.4145 18.0926 22.4929 18.0523C22.5714 18.0119 22.6391 17.9535 22.6903 17.8819C22.7415 17.8104 22.7749 17.7277 22.7876 17.6407C22.8003 17.5537 22.7919 17.465 22.7633 17.3819L22.3465 16.1778C22.3232 16.1088 22.2863 16.045 22.2381 15.9902C22.1899 15.9354 22.1313 15.8906 22.0656 15.8585C21.9999 15.8263 21.9285 15.8075 21.8554 15.8029C21.7823 15.7984 21.7091 15.8083 21.6399 15.832C21.5707 15.8558 21.5069 15.893 21.4522 15.9414C21.3976 15.9898 21.353 16.0485 21.3213 16.1142C21.2895 16.1798 21.2711 16.251 21.2671 16.3238C21.2631 16.3965 21.2736 16.4693 21.2981 16.538L21.7151 17.742C21.7528 17.8505 21.8235 17.9447 21.9174 18.0113C22.0113 18.078 22.1238 18.1139 22.2392 18.114ZM18.0246 24.9608C18.0929 24.9608 18.1606 24.9482 18.2243 24.9238L19.4272 24.4618C19.5644 24.4091 19.6751 24.3043 19.7347 24.1705C19.7943 24.0366 19.798 23.8847 19.7451 23.7481C19.6921 23.6115 19.5868 23.5014 19.4523 23.4421C19.3178 23.3827 19.1651 23.379 19.0279 23.4317L17.825 23.8936C17.704 23.9399 17.6031 24.0269 17.5398 24.1394C17.4766 24.252 17.4549 24.3831 17.4786 24.5099C17.5023 24.6367 17.57 24.7512 17.6697 24.8336C17.7694 24.916 17.895 24.961 18.0246 24.9608ZM20.1606 17.2864C20.0621 17.1776 19.9243 17.1122 19.7774 17.1046C19.6305 17.097 19.4865 17.1478 19.3773 17.2458C19.268 17.3438 19.2023 17.481 19.1946 17.6272C19.187 17.7734 19.238 17.9166 19.3365 18.0254L20.1828 18.9609C20.2316 19.0148 20.2905 19.0585 20.3563 19.0897C20.422 19.1209 20.4933 19.1389 20.5661 19.1427C20.6388 19.1465 20.7116 19.136 20.7803 19.1118C20.849 19.0876 20.9122 19.0501 20.9663 19.0016C21.0204 18.9531 21.0644 18.8944 21.0958 18.829C21.1271 18.7635 21.1452 18.6926 21.149 18.6202C21.1528 18.5478 21.1422 18.4753 21.1179 18.407C21.0936 18.3386 21.0559 18.2757 21.0072 18.2219L20.1606 17.2864ZM17.6944 21.4735C17.5473 21.4717 17.4055 21.5281 17.3002 21.6303C17.1949 21.7325 17.1347 21.8721 17.1329 22.0185C17.131 22.1649 17.1877 22.306 17.2904 22.4108C17.3931 22.5156 17.5334 22.5755 17.6805 22.5773L18.9522 22.6085C18.9568 22.6086 18.9614 22.6086 18.966 22.6085C19.1103 22.6061 19.248 22.5479 19.3498 22.4461C19.4516 22.3444 19.5096 22.2072 19.5114 22.0636C19.5132 21.92 19.4587 21.7813 19.3595 21.6771C19.2602 21.5728 19.1241 21.5112 18.9799 21.5052L17.7082 21.4738H17.6944V21.4735ZM19.2139 26.9899C19.3538 26.9902 19.4885 26.9377 19.5911 26.8431L20.5477 25.9611C20.6012 25.9118 20.6443 25.8526 20.6747 25.7867C20.7052 25.7208 20.7222 25.6496 20.725 25.5771C20.7278 25.5047 20.7162 25.4324 20.6909 25.3644C20.6656 25.2964 20.627 25.234 20.5775 25.1809C20.528 25.1277 20.4684 25.0847 20.4022 25.0544C20.336 25.0242 20.2645 25.0072 20.1917 25.0044C20.1189 25.0017 20.0462 25.0132 19.9779 25.0384C19.9096 25.0636 19.8469 25.1019 19.7935 25.1512L18.8368 26.0329C18.7549 26.1083 18.6978 26.2065 18.6729 26.3147C18.648 26.4229 18.6564 26.5361 18.6972 26.6395C18.7379 26.7428 18.809 26.8316 18.9012 26.8941C18.9934 26.9566 19.1024 26.99 19.2139 26.9899ZM24.2279 17.7914C24.3674 17.7913 24.5017 17.7388 24.6041 17.6446C24.7064 17.5503 24.7694 17.4211 24.7803 17.2828L24.8824 15.9946C24.8881 15.9224 24.8794 15.8497 24.8569 15.7807C24.8344 15.7118 24.7985 15.6479 24.7512 15.5928C24.6557 15.4815 24.5196 15.4125 24.373 15.401C24.3004 15.3953 24.2273 15.4039 24.1581 15.4263C24.0888 15.4487 24.0246 15.4845 23.9692 15.5316C23.8574 15.6266 23.7881 15.762 23.7765 15.908L23.6745 17.1961C23.6687 17.2684 23.6774 17.3411 23.6999 17.41C23.7224 17.479 23.7583 17.5428 23.8056 17.5979C23.8529 17.6531 23.9107 17.6984 23.9756 17.7313C24.0405 17.7642 24.1112 17.784 24.1839 17.7897C24.1988 17.7908 24.2132 17.7914 24.2282 17.7914H24.2279ZM20.5311 23.6886C20.6918 24.1357 20.9406 24.5464 21.2627 24.8966C21.5848 25.2469 21.9739 25.5297 22.4072 25.7285C22.5403 25.7864 22.691 25.7901 22.8267 25.7387C22.9625 25.6873 23.0726 25.5849 23.1333 25.4536C23.1941 25.3223 23.2006 25.1725 23.1515 25.0364C23.1024 24.9003 23.0017 24.7889 22.8709 24.7259C22.5708 24.5876 22.3015 24.3911 22.0787 24.148C21.8558 23.9049 21.6838 23.62 21.5729 23.31C21.4469 22.9621 21.3919 22.5926 21.411 22.2233C21.4301 21.854 21.5229 21.4921 21.6841 21.1589C22.3329 19.7838 23.9229 19.1519 25.2268 19.7499C25.3603 19.8111 25.5129 19.817 25.6509 19.7664C25.7889 19.7157 25.901 19.6125 25.9625 19.4796C26.0241 19.3466 26.0301 19.1948 25.9791 19.0574C25.9282 18.9201 25.8245 18.8086 25.6909 18.7473C23.8345 17.896 21.5867 18.768 20.6803 20.69C20.4564 21.1549 20.3279 21.6596 20.3023 22.1745C20.2766 22.6894 20.3544 23.2042 20.5311 23.6889V23.6886ZM44.3145 32.5091C44.3145 32.3627 44.256 32.2223 44.152 32.1188C44.048 32.0153 43.907 31.9572 43.7599 31.9572C43.6128 31.9572 43.4717 32.0153 43.3677 32.1188C43.2637 32.2223 43.2053 32.3627 43.2053 32.5091V33.6129C43.2053 33.7593 43.2637 33.8997 43.3677 34.0032C43.4717 34.1067 43.6128 34.1648 43.7599 34.1648C43.907 34.1648 44.048 34.1067 44.152 34.0032C44.256 33.8997 44.3145 33.7593 44.3145 33.6129V32.5091ZM46.5328 32.5091C46.5328 32.3627 46.4744 32.2223 46.3704 32.1188C46.2664 32.0153 46.1253 31.9572 45.9782 31.9572C45.8311 31.9572 45.6901 32.0153 45.5861 32.1188C45.4821 32.2223 45.4236 32.3627 45.4236 32.5091V33.6129C45.4236 33.7593 45.4821 33.8997 45.5861 34.0032C45.6901 34.1067 45.8311 34.1648 45.9782 34.1648C46.1253 34.1648 46.2664 34.1067 46.3704 34.0032C46.4744 33.8997 46.5328 33.7593 46.5328 33.6129V32.5091ZM44.3145 35.8206C44.3145 35.6742 44.256 35.5338 44.152 35.4303C44.048 35.3268 43.907 35.2687 43.7599 35.2687C43.6128 35.2687 43.4717 35.3268 43.3677 35.4303C43.2637 35.5338 43.2053 35.6742 43.2053 35.8206V36.9244C43.2053 37.0708 43.2637 37.2112 43.3677 37.3147C43.4717 37.4182 43.6128 37.4763 43.7599 37.4763C43.907 37.4763 44.048 37.4182 44.152 37.3147C44.256 37.2112 44.3145 37.0708 44.3145 36.9244V35.8206ZM46.5328 35.8206C46.5328 35.6742 46.4744 35.5338 46.3704 35.4303C46.2664 35.3268 46.1253 35.2687 45.9782 35.2687C45.8311 35.2687 45.6901 35.3268 45.5861 35.4303C45.4821 35.5338 45.4236 35.6742 45.4236 35.8206V36.9244C45.4236 37.0708 45.4821 37.2112 45.5861 37.3147C45.6901 37.4182 45.8311 37.4763 45.9782 37.4763C46.1253 37.4763 46.2664 37.4182 46.3704 37.3147C46.4744 37.2112 46.5328 37.0708 46.5328 36.9244V35.8206ZM44.3145 39.1321C44.3145 38.9857 44.256 38.8453 44.152 38.7418C44.048 38.6383 43.907 38.5802 43.7599 38.5802C43.6128 38.5802 43.4717 38.6383 43.3677 38.7418C43.2637 38.8453 43.2053 38.9857 43.2053 39.1321V40.2359C43.2053 40.3823 43.2637 40.5227 43.3677 40.6262C43.4717 40.7297 43.6128 40.7878 43.7599 40.7878C43.907 40.7878 44.048 40.7297 44.152 40.6262C44.256 40.5227 44.3145 40.3823 44.3145 40.2359V39.1321ZM46.5328 39.1321C46.5328 38.9857 46.4744 38.8453 46.3704 38.7418C46.2664 38.6383 46.1253 38.5802 45.9782 38.5802C45.8311 38.5802 45.6901 38.6383 45.5861 38.7418C45.4821 38.8453 45.4236 38.9857 45.4236 39.1321V40.2359C45.4236 40.3823 45.4821 40.5227 45.5861 40.6262C45.6901 40.7297 45.8311 40.7878 45.9782 40.7878C46.1253 40.7878 46.2664 40.7297 46.3704 40.6262C46.4744 40.5227 46.5328 40.3823 46.5328 40.2359V39.1321ZM43.7599 41.8917C43.6128 41.8917 43.4717 41.9498 43.3677 42.0533C43.2637 42.1568 43.2053 42.2972 43.2053 42.4436V43.5474C43.2053 43.6938 43.2637 43.8342 43.3677 43.9377C43.4717 44.0412 43.6128 44.0993 43.7599 44.0993C43.907 44.0993 44.048 44.0412 44.152 43.9377C44.256 43.8342 44.3145 43.6938 44.3145 43.5474V42.4436C44.3145 42.2972 44.256 42.1568 44.152 42.0533C44.048 41.9498 43.907 41.8917 43.7599 41.8917ZM45.9782 41.8917C45.8311 41.8917 45.6901 41.9498 45.5861 42.0533C45.4821 42.1568 45.4236 42.2972 45.4236 42.4436V43.5474C45.4236 43.6938 45.4821 43.8342 45.5861 43.9377C45.6901 44.0412 45.8311 44.0993 45.9782 44.0993C46.1253 44.0993 46.2664 44.0412 46.3704 43.9377C46.4744 43.8342 46.5328 43.6938 46.5328 43.5474V42.4436C46.5328 42.2972 46.4744 42.1568 46.3704 42.0533C46.2664 41.9498 46.1253 41.8917 45.9782 41.8917ZM26.5677 32.5091C26.5677 32.3627 26.5093 32.2223 26.4053 32.1188C26.3013 32.0153 26.1602 31.9572 26.0132 31.9572C25.8661 31.9572 25.725 32.0153 25.621 32.1188C25.517 32.2223 25.4586 32.3627 25.4586 32.5091V33.6129C25.4586 33.7593 25.517 33.8997 25.621 34.0032C25.725 34.1067 25.8661 34.1648 26.0132 34.1648C26.1602 34.1648 26.3013 34.1067 26.4053 34.0032C26.5093 33.8997 26.5677 33.7593 26.5677 33.6129V32.5091ZM24.3494 32.5091C24.3494 32.3627 24.291 32.2223 24.187 32.1188C24.083 32.0153 23.9419 31.9572 23.7948 31.9572C23.6477 31.9572 23.5067 32.0153 23.4027 32.1188C23.2987 32.2223 23.2402 32.3627 23.2402 32.5091V33.6129C23.2402 33.7593 23.2987 33.8997 23.4027 34.0032C23.5067 34.1067 23.6477 34.1648 23.7948 34.1648C23.9419 34.1648 24.083 34.1067 24.187 34.0032C24.291 33.8997 24.3494 33.7593 24.3494 33.6129V32.5091ZM26.5677 35.8206C26.5677 35.6742 26.5093 35.5338 26.4053 35.4303C26.3013 35.3268 26.1602 35.2687 26.0132 35.2687C25.8661 35.2687 25.725 35.3268 25.621 35.4303C25.517 35.5338 25.4586 35.6742 25.4586 35.8206V36.9244C25.4586 37.0708 25.517 37.2112 25.621 37.3147C25.725 37.4182 25.8661 37.4763 26.0132 37.4763C26.1602 37.4763 26.3013 37.4182 26.4053 37.3147C26.5093 37.2112 26.5677 37.0708 26.5677 36.9244V35.8206ZM24.3494 35.8206C24.3494 35.6742 24.291 35.5338 24.187 35.4303C24.083 35.3268 23.9419 35.2687 23.7948 35.2687C23.6477 35.2687 23.5067 35.3268 23.4027 35.4303C23.2987 35.5338 23.2402 35.6742 23.2402 35.8206V36.9244C23.2402 37.0708 23.2987 37.2112 23.4027 37.3147C23.5067 37.4182 23.6477 37.4763 23.7948 37.4763C23.9419 37.4763 24.083 37.4182 24.187 37.3147C24.291 37.2112 24.3494 37.0708 24.3494 36.9244V35.8206ZM26.5677 39.1321C26.5677 38.9857 26.5093 38.8453 26.4053 38.7418C26.3013 38.6383 26.1602 38.5802 26.0132 38.5802C25.8661 38.5802 25.725 38.6383 25.621 38.7418C25.517 38.8453 25.4586 38.9857 25.4586 39.1321V40.2359C25.4586 40.3823 25.517 40.5227 25.621 40.6262C25.725 40.7297 25.8661 40.7878 26.0132 40.7878C26.1602 40.7878 26.3013 40.7297 26.4053 40.6262C26.5093 40.5227 26.5677 40.3823 26.5677 40.2359V39.1321ZM24.3494 39.1321C24.3494 38.9857 24.291 38.8453 24.187 38.7418C24.083 38.6383 23.9419 38.5802 23.7948 38.5802C23.6477 38.5802 23.5067 38.6383 23.4027 38.7418C23.2987 38.8453 23.2402 38.9857 23.2402 39.1321V40.2359C23.2402 40.3823 23.2987 40.5227 23.4027 40.6262C23.5067 40.7297 23.6477 40.7878 23.7948 40.7878C23.9419 40.7878 24.083 40.7297 24.187 40.6262C24.291 40.5227 24.3494 40.3823 24.3494 40.2359V39.1321ZM26.0132 41.8917C25.8661 41.8917 25.725 41.9498 25.621 42.0533C25.517 42.1568 25.4586 42.2972 25.4586 42.4436V43.5474C25.4586 43.6938 25.517 43.8342 25.621 43.9377C25.725 44.0412 25.8661 44.0993 26.0132 44.0993C26.1602 44.0993 26.3013 44.0412 26.4053 43.9377C26.5093 43.8342 26.5677 43.6938 26.5677 43.5474V42.4436C26.5677 42.2972 26.5093 42.1568 26.4053 42.0533C26.3013 41.9498 26.1602 41.8917 26.0132 41.8917ZM23.7948 41.8917C23.6477 41.8917 23.5067 41.9498 23.4027 42.0533C23.2987 42.1568 23.2402 42.2972 23.2402 42.4436V43.5474C23.2402 43.6938 23.2987 43.8342 23.4027 43.9377C23.5067 44.0412 23.6477 44.0993 23.7948 44.0993C23.9419 44.0993 24.083 44.0412 24.187 43.9377C24.291 43.8342 24.3494 43.6938 24.3494 43.5474V42.4436C24.3494 42.2972 24.291 42.1568 24.187 42.0533C24.083 41.9498 23.9419 41.8917 23.7948 41.8917Z" fill="white"/>
<path d="M52.8328 45.2738C52.8328 44.5957 52.487 43.4569 51.805 41.8889C51.7315 41.7022 51.6041 41.542 51.4393 41.4292C51.2744 41.3163 51.0798 41.256 50.8806 41.256C50.6813 41.2559 50.4867 41.3162 50.3218 41.429C50.157 41.5418 50.0295 41.7019 49.9559 41.8886C49.274 43.4569 48.9281 44.5957 48.9281 45.2738C48.9281 46.5329 49.5082 47.5665 50.3227 47.895V49.9743H49.207V48.5208C48.8667 48.2408 48.5826 47.8977 48.3703 47.51V49.9743H46.9758V47.1618C46.9755 46.8635 46.8578 46.5776 46.6487 46.3666C46.4395 46.1557 46.1559 46.0371 45.8602 46.0368H44.1867C43.8909 46.0371 43.6073 46.1557 43.3982 46.3666C43.189 46.5776 43.0714 46.8635 43.0711 47.1618V49.9743H41.6766V20.7243C41.6766 20.4259 41.559 20.1398 41.3498 19.9288C41.1406 19.7178 40.8568 19.5993 40.5609 19.5993H29.4047C29.1088 19.5993 28.825 19.7178 28.6158 19.9288C28.4066 20.1398 28.2891 20.4259 28.2891 20.7243V49.9743H26.8945V47.1618C26.8942 46.8635 26.7766 46.5776 26.5674 46.3666C26.3583 46.1557 26.0747 46.0371 25.7789 46.0368H24.1055C23.8097 46.0371 23.5261 46.1557 23.3169 46.3666C23.1078 46.5776 22.9901 46.8635 22.9898 47.1618V49.9743H21.5953V47.51C21.383 47.8977 21.0989 48.2408 20.7586 48.5208V49.9743H19.643V47.8947C20.4574 47.5665 21.0375 46.5329 21.0375 45.2738C21.0375 44.5957 20.6917 43.4569 20.0097 41.8889C19.9346 41.7033 19.8068 41.5441 19.6423 41.4315C19.4778 41.3188 19.284 41.2576 19.0852 41.2556C18.8864 41.2576 18.6926 41.3187 18.5281 41.4313C18.3636 41.544 18.2358 41.703 18.1606 41.8886C17.4787 43.4569 17.1328 44.5957 17.1328 45.2738C17.1328 46.5329 17.7129 47.5665 18.5273 47.895V49.9743H17.6906C17.5427 49.9743 17.4008 50.0336 17.2962 50.1391C17.1916 50.2445 17.1328 50.3876 17.1328 50.5368C17.1328 50.686 17.1916 50.8291 17.2962 50.9346C17.4008 51.04 17.5427 51.0993 17.6906 51.0993H52.275C52.4229 51.0993 52.5648 51.04 52.6694 50.9346C52.774 50.8291 52.8328 50.686 52.8328 50.5368C52.8328 50.3876 52.774 50.2445 52.6694 50.1391C52.5648 50.0336 52.4229 49.9743 52.275 49.9743H51.4383V47.8947C52.2527 47.5665 52.8328 46.5329 52.8328 45.2738ZM25.7789 49.9743H24.1055V47.1618H25.7789V49.9743ZM35.5406 22.4118C35.5406 22.2626 35.5994 22.1195 35.704 22.0141C35.8086 21.9086 35.9505 21.8493 36.0984 21.8493C36.2464 21.8493 36.3883 21.9086 36.4929 22.0141C36.5975 22.1195 36.6562 22.2626 36.6562 22.4118V23.5368C36.6562 23.686 36.5975 23.8291 36.4929 23.9346C36.3883 24.04 36.2464 24.0993 36.0984 24.0993C35.9505 24.0993 35.8086 24.04 35.704 23.9346C35.5994 23.8291 35.5406 23.686 35.5406 23.5368V22.4118ZM35.5406 25.7868C35.5406 25.6376 35.5994 25.4945 35.704 25.3891C35.8086 25.2836 35.9505 25.2243 36.0984 25.2243C36.2464 25.2243 36.3883 25.2836 36.4929 25.3891C36.5975 25.4945 36.6562 25.6376 36.6562 25.7868V26.9118C36.6562 27.061 36.5975 27.2041 36.4929 27.3096C36.3883 27.415 36.2464 27.4743 36.0984 27.4743C35.9505 27.4743 35.8086 27.415 35.704 27.3096C35.5994 27.2041 35.5406 27.061 35.5406 26.9118V25.7868ZM35.5406 29.1618C35.5406 29.0126 35.5994 28.8695 35.704 28.7641C35.8086 28.6586 35.9505 28.5993 36.0984 28.5993C36.2464 28.5993 36.3883 28.6586 36.4929 28.7641C36.5975 28.8695 36.6562 29.0126 36.6562 29.1618V30.2868C36.6562 30.436 36.5975 30.5791 36.4929 30.6846C36.3883 30.79 36.2464 30.8493 36.0984 30.8493C35.9505 30.8493 35.8086 30.79 35.704 30.6846C35.5994 30.5791 35.5406 30.436 35.5406 30.2868V29.1618ZM35.5406 32.5368C35.5406 32.3876 35.5994 32.2445 35.704 32.1391C35.8086 32.0336 35.9505 31.9743 36.0984 31.9743C36.2464 31.9743 36.3883 32.0336 36.4929 32.1391C36.5975 32.2445 36.6562 32.3876 36.6562 32.5368V33.6618C36.6562 33.811 36.5975 33.9541 36.4929 34.0596C36.3883 34.165 36.2464 34.2243 36.0984 34.2243C35.9505 34.2243 35.8086 34.165 35.704 34.0596C35.5994 33.9541 35.5406 33.811 35.5406 33.6618V32.5368ZM35.5406 35.9118C35.5406 35.7626 35.5994 35.6195 35.704 35.5141C35.8086 35.4086 35.9505 35.3493 36.0984 35.3493C36.2464 35.3493 36.3883 35.4086 36.4929 35.5141C36.5975 35.6195 36.6562 35.7626 36.6562 35.9118V37.0368C36.6562 37.186 36.5975 37.3291 36.4929 37.4346C36.3883 37.54 36.2464 37.5993 36.0984 37.5993C35.9505 37.5993 35.8086 37.54 35.704 37.4346C35.5994 37.3291 35.5406 37.186 35.5406 37.0368V35.9118ZM35.5406 39.2868C35.5406 39.1376 35.5994 38.9945 35.704 38.8891C35.8086 38.7836 35.9505 38.7243 36.0984 38.7243C36.2464 38.7243 36.3883 38.7836 36.4929 38.8891C36.5975 38.9945 36.6562 39.1376 36.6562 39.2868V40.4118C36.6562 40.561 36.5975 40.7041 36.4929 40.8096C36.3883 40.915 36.2464 40.9743 36.0984 40.9743C35.9505 40.9743 35.8086 40.915 35.704 40.8096C35.5994 40.7041 35.5406 40.561 35.5406 40.4118V39.2868ZM33.3094 22.4118C33.3094 22.2626 33.3681 22.1195 33.4728 22.0141C33.5774 21.9086 33.7192 21.8493 33.8672 21.8493C34.0151 21.8493 34.157 21.9086 34.2616 22.0141C34.3662 22.1195 34.425 22.2626 34.425 22.4118V23.5368C34.425 23.686 34.3662 23.8291 34.2616 23.9346C34.157 24.04 34.0151 24.0993 33.8672 24.0993C33.7192 24.0993 33.5774 24.04 33.4728 23.9346C33.3681 23.8291 33.3094 23.686 33.3094 23.5368V22.4118ZM33.3094 25.7868C33.3094 25.6376 33.3681 25.4945 33.4728 25.3891C33.5774 25.2836 33.7192 25.2243 33.8672 25.2243C34.0151 25.2243 34.157 25.2836 34.2616 25.3891C34.3662 25.4945 34.425 25.6376 34.425 25.7868V26.9118C34.425 27.061 34.3662 27.2041 34.2616 27.3096C34.157 27.415 34.0151 27.4743 33.8672 27.4743C33.7192 27.4743 33.5774 27.415 33.4728 27.3096C33.3681 27.2041 33.3094 27.061 33.3094 26.9118V25.7868ZM33.3094 29.1618C33.3094 29.0126 33.3681 28.8695 33.4728 28.7641C33.5774 28.6586 33.7192 28.5993 33.8672 28.5993C34.0151 28.5993 34.157 28.6586 34.2616 28.7641C34.3662 28.8695 34.425 29.0126 34.425 29.1618V30.2868C34.425 30.436 34.3662 30.5791 34.2616 30.6846C34.157 30.79 34.0151 30.8493 33.8672 30.8493C33.7192 30.8493 33.5774 30.79 33.4728 30.6846C33.3681 30.5791 33.3094 30.436 33.3094 30.2868V29.1618ZM33.3094 32.5368C33.3094 32.3876 33.3681 32.2445 33.4728 32.1391C33.5774 32.0336 33.7192 31.9743 33.8672 31.9743C34.0151 31.9743 34.157 32.0336 34.2616 32.1391C34.3662 32.2445 34.425 32.3876 34.425 32.5368V33.6618C34.425 33.811 34.3662 33.9541 34.2616 34.0596C34.157 34.165 34.0151 34.2243 33.8672 34.2243C33.7192 34.2243 33.5774 34.165 33.4728 34.0596C33.3681 33.9541 33.3094 33.811 33.3094 33.6618V32.5368ZM33.3094 35.9118C33.3094 35.7626 33.3681 35.6195 33.4728 35.5141C33.5774 35.4086 33.7192 35.3493 33.8672 35.3493C34.0151 35.3493 34.157 35.4086 34.2616 35.5141C34.3662 35.6195 34.425 35.7626 34.425 35.9118V37.0368C34.425 37.186 34.3662 37.3291 34.2616 37.4346C34.157 37.54 34.0151 37.5993 33.8672 37.5993C33.7192 37.5993 33.5774 37.54 33.4728 37.4346C33.3681 37.3291 33.3094 37.186 33.3094 37.0368V35.9118ZM33.3094 39.2868C33.3094 39.1376 33.3681 38.9945 33.4728 38.8891C33.5774 38.7836 33.7192 38.7243 33.8672 38.7243C34.0151 38.7243 34.157 38.7836 34.2616 38.8891C34.3662 38.9945 34.425 39.1376 34.425 39.2868V40.4118C34.425 40.561 34.3662 40.7041 34.2616 40.8096C34.157 40.915 34.0151 40.9743 33.8672 40.9743C33.7192 40.9743 33.5774 40.915 33.4728 40.8096C33.3681 40.7041 33.3094 40.561 33.3094 40.4118V39.2868ZM31.0781 22.4118C31.0781 22.2626 31.1369 22.1195 31.2415 22.0141C31.3461 21.9086 31.488 21.8493 31.6359 21.8493C31.7839 21.8493 31.9258 21.9086 32.0304 22.0141C32.135 22.1195 32.1937 22.2626 32.1937 22.4118V23.5368C32.1937 23.686 32.135 23.8291 32.0304 23.9346C31.9258 24.04 31.7839 24.0993 31.6359 24.0993C31.488 24.0993 31.3461 24.04 31.2415 23.9346C31.1369 23.8291 31.0781 23.686 31.0781 23.5368V22.4118ZM31.0781 25.7868C31.0781 25.6376 31.1369 25.4945 31.2415 25.3891C31.3461 25.2836 31.488 25.2243 31.6359 25.2243C31.7839 25.2243 31.9258 25.2836 32.0304 25.3891C32.135 25.4945 32.1937 25.6376 32.1937 25.7868V26.9118C32.1937 27.061 32.135 27.2041 32.0304 27.3096C31.9258 27.415 31.7839 27.4743 31.6359 27.4743C31.488 27.4743 31.3461 27.415 31.2415 27.3096C31.1369 27.2041 31.0781 27.061 31.0781 26.9118V25.7868ZM31.0781 29.1618C31.0781 29.0126 31.1369 28.8695 31.2415 28.7641C31.3461 28.6586 31.488 28.5993 31.6359 28.5993C31.7839 28.5993 31.9258 28.6586 32.0304 28.7641C32.135 28.8695 32.1937 29.0126 32.1937 29.1618V30.2868C32.1937 30.436 32.135 30.5791 32.0304 30.6846C31.9258 30.79 31.7839 30.8493 31.6359 30.8493C31.488 30.8493 31.3461 30.79 31.2415 30.6846C31.1369 30.5791 31.0781 30.436 31.0781 30.2868V29.1618ZM31.0781 32.5368C31.0781 32.3876 31.1369 32.2445 31.2415 32.1391C31.3461 32.0336 31.488 31.9743 31.6359 31.9743C31.7839 31.9743 31.9258 32.0336 32.0304 32.1391C32.135 32.2445 32.1937 32.3876 32.1937 32.5368V33.6618C32.1937 33.811 32.135 33.9541 32.0304 34.0596C31.9258 34.165 31.7839 34.2243 31.6359 34.2243C31.488 34.2243 31.3461 34.165 31.2415 34.0596C31.1369 33.9541 31.0781 33.811 31.0781 33.6618V32.5368ZM31.0781 35.9118C31.0781 35.7626 31.1369 35.6195 31.2415 35.5141C31.3461 35.4086 31.488 35.3493 31.6359 35.3493C31.7839 35.3493 31.9258 35.4086 32.0304 35.5141C32.135 35.6195 32.1937 35.7626 32.1937 35.9118V37.0368C32.1937 37.186 32.135 37.3291 32.0304 37.4346C31.9258 37.54 31.7839 37.5993 31.6359 37.5993C31.488 37.5993 31.3461 37.54 31.2415 37.4346C31.1369 37.3291 31.0781 37.186 31.0781 37.0368V35.9118ZM31.6359 40.9743C31.488 40.9743 31.3461 40.915 31.2415 40.8096C31.1369 40.7041 31.0781 40.561 31.0781 40.4118V39.2868C31.0781 39.1376 31.1369 38.9945 31.2415 38.8891C31.3461 38.7836 31.488 38.7243 31.6359 38.7243C31.7839 38.7243 31.9258 38.7836 32.0304 38.8891C32.135 38.9945 32.1937 39.1376 32.1937 39.2868V40.4118C32.1937 40.561 32.135 40.7041 32.0304 40.8096C31.9258 40.915 31.7839 40.9743 31.6359 40.9743ZM37.7719 49.9743H32.1937V43.7868C32.1937 43.6376 32.2525 43.4945 32.3571 43.3891C32.4617 43.2836 32.6036 43.2243 32.7516 43.2243H37.2141C37.362 43.2243 37.5039 43.2836 37.6085 43.3891C37.7131 43.4945 37.7719 43.6376 37.7719 43.7868V49.9743ZM38.8875 40.4118C38.8875 40.561 38.8287 40.7041 38.7241 40.8096C38.6195 40.915 38.4776 40.9743 38.3297 40.9743C38.1817 40.9743 38.0399 40.915 37.9353 40.8096C37.8306 40.7041 37.7719 40.561 37.7719 40.4118V39.2868C37.7719 39.1376 37.8306 38.9945 37.9353 38.8891C38.0399 38.7836 38.1817 38.7243 38.3297 38.7243C38.4776 38.7243 38.6195 38.7836 38.7241 38.8891C38.8287 38.9945 38.8875 39.1376 38.8875 39.2868V40.4118ZM38.8875 37.0368C38.8875 37.186 38.8287 37.3291 38.7241 37.4346C38.6195 37.54 38.4776 37.5993 38.3297 37.5993C38.1817 37.5993 38.0399 37.54 37.9353 37.4346C37.8306 37.3291 37.7719 37.186 37.7719 37.0368V35.9118C37.7719 35.7626 37.8306 35.6195 37.9353 35.5141C38.0399 35.4086 38.1817 35.3493 38.3297 35.3493C38.4776 35.3493 38.6195 35.4086 38.7241 35.5141C38.8287 35.6195 38.8875 35.7626 38.8875 35.9118V37.0368ZM38.8875 33.6618C38.8875 33.811 38.8287 33.9541 38.7241 34.0596C38.6195 34.165 38.4776 34.2243 38.3297 34.2243C38.1817 34.2243 38.0399 34.165 37.9353 34.0596C37.8306 33.9541 37.7719 33.811 37.7719 33.6618V32.5368C37.7719 32.3876 37.8306 32.2445 37.9353 32.1391C38.0399 32.0336 38.1817 31.9743 38.3297 31.9743C38.4776 31.9743 38.6195 32.0336 38.7241 32.1391C38.8287 32.2445 38.8875 32.3876 38.8875 32.5368V33.6618ZM38.8875 30.2868C38.8875 30.436 38.8287 30.5791 38.7241 30.6846C38.6195 30.79 38.4776 30.8493 38.3297 30.8493C38.1817 30.8493 38.0399 30.79 37.9353 30.6846C37.8306 30.5791 37.7719 30.436 37.7719 30.2868V29.1618C37.7719 29.0126 37.8306 28.8695 37.9353 28.7641C38.0399 28.6586 38.1817 28.5993 38.3297 28.5993C38.4776 28.5993 38.6195 28.6586 38.7241 28.7641C38.8287 28.8695 38.8875 29.0126 38.8875 29.1618V30.2868ZM38.8875 26.9118C38.8875 27.061 38.8287 27.2041 38.7241 27.3096C38.6195 27.415 38.4776 27.4743 38.3297 27.4743C38.1817 27.4743 38.0399 27.415 37.9353 27.3096C37.8306 27.2041 37.7719 27.061 37.7719 26.9118V25.7868C37.7719 25.6376 37.8306 25.4945 37.9353 25.3891C38.0399 25.2836 38.1817 25.2243 38.3297 25.2243C38.4776 25.2243 38.6195 25.2836 38.7241 25.3891C38.8287 25.4945 38.8875 25.6376 38.8875 25.7868V26.9118ZM38.8875 23.5368C38.8875 23.686 38.8287 23.8291 38.7241 23.9346C38.6195 24.04 38.4776 24.0993 38.3297 24.0993C38.1817 24.0993 38.0399 24.04 37.9353 23.9346C37.8306 23.8291 37.7719 23.686 37.7719 23.5368V22.4118C37.7719 22.2626 37.8306 22.1195 37.9353 22.0141C38.0399 21.9086 38.1817 21.8493 38.3297 21.8493C38.4776 21.8493 38.6195 21.9086 38.7241 22.0141C38.8287 22.1195 38.8875 22.2626 38.8875 22.4118V23.5368ZM45.8602 49.9743H44.1867V47.1618H45.8602V49.9743Z" fill="white"/>
<path d="M48.7867 41.3267C48.9122 41.0403 49.0986 40.7844 49.3328 40.5767V29.6041C49.3328 28.916 48.8499 28.4657 48.0714 28.3581L42.7097 27.2996V28.422L48.0714 29.4596C48.1115 29.458 48.1506 29.4724 48.1802 29.4995C48.2097 29.5267 48.2272 29.5644 48.229 29.6044V42.6988C48.4007 42.2357 48.5867 41.7781 48.7867 41.3265V41.3267ZM27.2559 27.2993L21.8942 28.3581C21.1792 28.4484 20.6328 28.916 20.6328 29.6041V40.5767C20.867 40.7844 21.0534 41.0403 21.1789 41.3267C21.3789 41.7784 21.5649 42.2362 21.7367 42.6993V29.6038C21.7384 29.5638 21.7559 29.5261 21.7855 29.499C21.815 29.4718 21.8541 29.4575 21.8942 29.4591L27.2559 28.4214V27.2993Z" fill="white"/>
</g>
</svg>
