<svg width="594" height="711" viewBox="0 0 594 711" fill="none" xmlns="http://www.w3.org/2000/svg">
<path d="M501.256 389.106C501.256 331.89 438.975 285.485 362.242 285.485C285.509 285.485 223.229 331.89 223.229 389.106C223.229 446.323 285.509 492.728 362.242 492.728V527.651C362.242 529.469 363.764 531 365.57 531C366.236 531 366.996 530.809 367.472 530.33L450.29 469.191C481.478 450.246 501.256 421.351 501.256 389.106Z" stroke="#83A2EA" stroke-miterlimit="10"/>
<path d="M320.215 400.875C315.384 400.875 311.468 396.934 311.468 392.072C311.468 387.211 315.384 383.27 320.215 383.27C325.047 383.27 328.963 387.211 328.963 392.072C328.963 396.934 325.047 400.875 320.215 400.875Z" fill="#FFCCB3"/>
<path d="M362.242 400.875C357.411 400.875 353.495 396.934 353.495 392.072C353.495 387.211 357.411 383.27 362.242 383.27C367.074 383.27 370.99 387.211 370.99 392.072C370.99 396.934 367.074 400.875 362.242 400.875Z" fill="#FFCCB3"/>
<path d="M404.365 400.875C399.533 400.875 395.617 396.934 395.617 392.072C395.617 387.211 399.533 383.27 404.365 383.27C409.196 383.27 413.112 387.211 413.112 392.072C413.112 396.934 409.196 400.875 404.365 400.875Z" fill="#FFCCB3"/>
<path opacity="0.37" d="M362.242 492.632H391.433L362.242 508.994V492.632Z" fill="#E56441"/>
<path d="M181.553 115.688C183.35 112.796 187.182 111.952 190.056 113.76C190.296 113.88 190.415 114.001 190.535 114.121L190.894 130.872V130.993L182.631 123.762C180.356 121.714 179.877 118.219 181.553 115.688Z" fill="#FFCCB3"/>
<path d="M345.502 210.287L344.903 235.353L313.407 233.666L318.437 189.56L330.173 171.845L350.771 191.849L345.502 210.287Z" fill="#FFCCB3"/>
<path d="M335.802 150.997V218.482C335.802 221.013 337.837 223.061 340.352 223.061C342.867 223.061 344.903 221.013 344.903 218.482V150.997" fill="#FBD7AD"/>
<path d="M226.821 186.788L227.181 142.562H200.115L186.343 179.678" fill="#FFCCB3"/>
<path d="M200.115 142.562H227.181L227.061 156.782C222.39 160.276 216.642 162.084 210.774 161.843C205.145 161.602 199.636 159.553 195.325 155.817L200.115 142.562Z" fill="#E56441"/>
<path d="M156.165 617.726L156.763 641.587L179.038 654C179.038 654 186.823 636.164 186.703 635.923C186.583 635.682 184.068 597.963 184.068 597.963L156.165 617.726Z" fill="#FFCCB3"/>
<path d="M214.965 155.215C227.061 155.215 240.713 145.092 241.671 131.113L243.468 110.145C244.546 98.2143 235.803 87.7301 223.947 86.6455C223.229 86.6455 222.63 86.525 221.911 86.525H210.295C197.72 86.525 188.978 97.3708 190.056 110.024L190.535 130.993C191.133 144.249 205.385 155.215 214.965 155.215Z" fill="#FFCCB3"/>
<path d="M229.816 191.729V178.353L189.458 166.784L182.392 181.245L133.77 178.473C123.83 177.87 114.609 183.173 109.938 191.97L71.8553 264.757C67.544 272.952 66.8254 282.592 70.0589 291.389L104.43 387.796L133.171 365.141L113.531 281.026L143.111 234.75L148.62 314.889L229.696 306.332L243.708 277.29L294.366 333.085C301.551 341.882 314.485 343.208 323.227 335.978C325.383 334.17 327.179 331.88 328.497 329.35L349.574 227.881L313.168 225.953L301.791 277.41L273.648 216.313C269.217 207.877 261.552 201.49 252.331 198.718L229.816 191.729Z" fill="#D21B1B"/>
<path d="M230.175 305.489L240.354 334.17C245.983 349.836 248.258 366.466 247.181 383.096L230.175 644.118H175.805L182.032 580.851L189.098 375.022L157.362 479.383L182.391 577.477L180.116 600.614L145.506 630.5L103.471 499.869C100.237 489.867 100.118 479.142 103.112 469.019L148.739 315.25L230.175 305.489Z" fill="#F9845F"/>
<path d="M240.354 284.4L258.078 241.137" stroke="#F27676" stroke-miterlimit="10"/>
<path d="M293.681 123.67C287.571 97.632 303.594 71.5397 329.47 65.3914C355.346 59.2431 381.276 75.3669 387.386 101.405C393.496 127.443 377.473 153.535 351.597 159.684C325.721 165.832 299.791 149.708 293.681 123.67Z" fill="white" stroke="#FBD7AD" stroke-miterlimit="9.9984"/>
<path d="M250.893 115.809C249.097 112.916 245.265 112.073 242.39 113.881C242.151 114.001 242.031 114.122 241.911 114.242L241.552 130.993V131.113L249.815 123.883C252.091 121.834 252.57 118.339 250.893 115.809Z" fill="#FFCCB3"/>
<path d="M185.146 345.377L189.098 378.758" stroke="white" stroke-miterlimit="10"/>
<path d="M188.14 370.564L174.248 370.925" stroke="white" stroke-miterlimit="10"/>
<path d="M242.39 121.834L244.905 102.673C245.264 95.8042 241.073 89.4173 234.606 87.1276L224.666 83.5124L228.738 79.4151C221.193 75.6793 212.69 74.3537 204.307 75.3178C195.206 76.4024 188.499 84.2354 188.619 93.5146L190.056 117.857L191.254 108.458C192.93 100.384 200.235 94.8402 208.379 95.4427L226.103 96.6478C234.127 97.1298 240.594 103.396 241.432 111.47L241.911 115.809L242.39 121.834Z" fill="#4B4065"/>
<path d="M130.776 367.189C130.776 367.189 137.842 388.158 138.68 390.568C138.68 390.568 134.249 391.653 128.74 382.373L113.052 435.277C110.177 432.987 108.621 429.372 108.74 425.756C108.74 419.249 109.818 401.293 109.818 401.293L104.429 388.037" fill="#FFCCB3"/>
<path d="M223.828 135.451C219.158 135.451 211.733 135.09 207.182 135.09C208.26 137.259 209.936 139.187 211.852 140.633C213.768 141.838 216.044 142.079 218.2 141.236C220.235 140.392 223.589 137.259 223.828 135.451Z" fill="white"/>
<path d="M302.509 273.554L296.281 293.559" stroke="#F27676" stroke-miterlimit="10"/>
<path d="M113.65 281.146L95.9262 286.087" stroke="#F27676" stroke-miterlimit="10"/>
<path d="M252.57 287.172L256.762 244.753L243.828 277.41L252.57 287.172Z" fill="#F27676"/>
<path d="M229.815 191.729L182.511 181.365" stroke="#F27676" stroke-miterlimit="10"/>
<path d="M221.074 643.515L222.271 664.002L254.486 672.196C258.079 673.16 261.073 675.811 262.271 679.427L263.588 683.042L182.871 679.306C179.518 679.065 177.123 676.173 177.362 672.919C177.362 672.799 177.362 672.799 177.362 672.678L180.117 643.154" fill="#FFCCB3"/>
<path d="M177.362 627.97L237.001 623.511L234.007 643.997H175.925L177.362 627.97Z" fill="#E56441"/>
<path d="M138.8 606.881L182.512 577.236L134.728 609.532L143.59 632.067L180.117 600.373" fill="#E56441"/>
<path d="M265.983 685.332L174.847 680.993V664.243L198.919 664.363C202.032 663.038 204.547 660.386 206.703 657.856C208.859 655.325 211.254 652.553 214.367 651.107C217.481 649.661 221.553 649.541 223.948 651.951C224.906 655.566 226.104 659.663 227.062 663.399C236.762 665.448 247.181 668.099 257.001 670.268C259.516 670.75 261.672 672.317 263.109 674.486C265.145 677.619 265.744 681.596 266.941 684.247C267.181 684.729 266.941 685.211 266.462 685.452C266.342 685.332 266.342 685.332 265.983 685.332Z" fill="#4B4065"/>
<path d="M156.164 640.021L151.733 652.674L128.86 658.94C124.788 660.025 122.393 664.243 123.59 668.34C123.59 668.461 123.59 668.581 123.71 668.581L124.429 670.75H168.14C168.14 670.75 179.517 662.676 178.679 662.917L179.757 646.89L172.332 645.684L162.751 638.092C160.955 636.646 158.44 636.887 157.003 638.695C156.524 639.177 156.284 639.538 156.164 640.021Z" fill="#4B4065"/>
<path d="M157.362 479.262L141.195 482.636" stroke="#4B4065" stroke-miterlimit="10"/>
<path opacity="0.32" d="M317.319 149.967C296.725 137.161 290.348 109.982 303.073 89.2594C315.799 68.5371 342.81 62.1193 363.403 74.9249C383.996 87.7305 390.374 114.91 377.648 135.633C364.922 156.355 337.912 162.773 317.319 149.967Z" fill="#F7C689"/>
<path d="M359.753 98.2144V103.517C359.753 104.481 358.915 105.324 357.957 105.324C356.998 105.324 356.16 104.481 356.16 103.517V98.2144C356.16 97.2503 356.998 96.4067 357.957 96.4067C358.915 96.4067 359.753 97.2503 359.753 98.2144Z" fill="#F27676"/>
<path d="M328.736 98.2144V103.517C328.736 104.481 327.898 105.324 326.94 105.324C325.982 105.324 325.144 104.481 325.144 103.517V98.2144C325.144 97.2503 325.982 96.4067 326.94 96.4067C327.898 96.4067 328.736 97.2503 328.736 98.2144Z" fill="#F27676"/>
<path d="M327.539 114.363C330.054 123.039 339.035 127.98 347.658 125.329C353.047 123.762 357.239 119.424 358.676 114.001" stroke="#F27676" stroke-width="2" stroke-miterlimit="10" stroke-linecap="round" stroke-linejoin="round"/>
<path d="M231.013 127.257C226.185 127.257 222.271 123.318 222.271 118.46C222.271 113.601 226.185 109.663 231.013 109.663C235.842 109.663 239.756 113.601 239.756 118.46C239.756 123.318 235.842 127.257 231.013 127.257Z" stroke="#E56441" stroke-miterlimit="10"/>
<path d="M202.391 127.257C197.563 127.257 193.649 123.318 193.649 118.46C193.649 113.601 197.563 109.663 202.391 109.663C207.22 109.663 211.134 113.601 211.134 118.46C211.134 123.318 207.22 127.257 202.391 127.257Z" stroke="#E56441" stroke-miterlimit="10"/>
<path d="M222.271 118.098C218.917 115.688 214.366 115.688 210.893 118.098" stroke="#E56441" stroke-miterlimit="10"/>
<path d="M231.612 623.872L177.362 627.97" stroke="#4B4065" stroke-miterlimit="10"/>
<path d="M134.728 609.532L182.271 577.236" stroke="#4B4065" stroke-miterlimit="10"/>
<path d="M350.413 174.617L334.006 184.378C334.245 187.27 336.76 189.319 339.634 189.078C340.353 188.957 341.071 188.716 341.79 188.355L356.76 179.437L356.401 177.388C356.041 175.219 353.886 173.773 351.73 174.255C351.371 174.255 350.772 174.376 350.413 174.617Z" fill="#FFCCB3"/>
<path d="M356.4 177.991L332.329 191.729C332.568 195.585 337.119 197.513 340.712 195.465L357.598 185.704L356.4 177.991Z" fill="#FFCCB3"/>
<path d="M357.358 183.414L336.041 196.067C336.28 198.959 338.795 201.008 341.67 200.767C342.388 200.647 343.107 200.406 343.825 200.044L358.795 191.126L357.358 183.414Z" fill="#FFCCB3"/>
<path d="M358.556 190.042L339.993 201.129C340.233 203.659 342.388 205.467 344.903 205.226C345.502 205.105 346.221 204.985 346.819 204.623L359.873 196.79L358.556 190.042Z" fill="#FFCCB3"/>
<path d="M324.664 206.431L317.598 191.247C317.239 189.801 317.239 188.234 317.838 186.909L325.263 167.266L346.46 164.012C346.46 164.012 349.214 171.966 335.083 173.773L329.694 188.355L324.664 206.431Z" fill="#FFCCB3"/>
<path d="M358.556 190.042L339.993 201.129" stroke="#E56441" stroke-width="0.25" stroke-miterlimit="10"/>
<path d="M357.358 183.414L334.964 196.429" stroke="#E56441" stroke-width="0.25" stroke-miterlimit="10"/>
<path d="M356.28 177.388L335.442 189.078" stroke="#E56441" stroke-width="0.25" stroke-miterlimit="10"/>
<path d="M223.469 119.785C225.145 115.206 230.175 112.916 234.606 114.604C236.283 115.206 237.84 116.411 238.798 117.978C234.127 121.593 228.618 121.593 223.469 119.785Z" fill="white"/>
<path d="M216.762 112.917L220.235 126.293L216.762 128.703" stroke="#4B4065" stroke-miterlimit="10" stroke-linecap="round" stroke-linejoin="round"/>
<path d="M229.815 117.134C229.815 115.929 230.175 114.965 230.773 114.001C232.091 113.88 233.408 114.001 234.725 114.483C236.402 115.086 237.959 116.291 238.917 117.857C236.522 119.785 233.767 120.749 231.013 120.87C230.175 119.906 229.815 118.58 229.815 117.134Z" fill="#4B4065"/>
<path d="M194.487 118.098C197.121 114.001 202.511 112.796 206.463 115.447C208.019 116.411 209.217 117.857 209.936 119.544C204.666 122.196 199.038 120.991 194.487 118.098Z" fill="white"/>
<path d="M201.074 116.893C201.313 115.809 201.912 114.845 202.631 114.001C203.948 114.121 205.146 114.604 206.343 115.327C207.9 116.291 209.098 117.737 209.816 119.424C207.062 120.749 204.188 121.111 201.433 120.749C201.074 119.665 200.834 118.339 201.074 116.893Z" fill="#4B4065"/>
<path d="M225.505 107.494C229.337 104.601 234.486 104.722 238.079 107.735C233.768 107.494 229.816 107.614 225.505 107.494Z" fill="#4B4065" stroke="#4B4065" stroke-linecap="round" stroke-linejoin="round"/>
<path d="M208.738 107.494C204.906 104.601 199.756 104.722 196.164 107.735C200.475 107.494 204.427 107.614 208.738 107.494Z" fill="#4B4065" stroke="#4B4065" stroke-linecap="round" stroke-linejoin="round"/>
<path opacity="0.32" d="M426.578 202.213C422.506 201.129 418.554 199.442 414.962 197.272C418.554 194.983 422.506 193.296 426.578 192.211C430.77 191.126 434.003 187.873 435.081 183.655C436.159 179.558 437.716 175.581 439.991 171.966C442.267 175.581 443.943 179.558 444.901 183.655C445.979 187.873 449.212 191.126 453.404 192.211C457.476 193.296 461.428 194.983 465.021 197.152C461.428 199.442 457.476 201.129 453.404 202.093C449.212 203.177 445.979 206.431 444.901 210.649C443.823 214.746 442.147 218.723 439.991 222.338C437.716 218.723 436.039 214.746 434.961 210.649C433.883 206.552 430.77 203.298 426.578 202.213Z" fill="#F98A01"/>
<path opacity="0.32" d="M37.3645 462.512C33.2927 461.427 29.3407 459.74 25.748 457.571C29.3407 455.281 33.2927 453.594 37.3645 452.509C41.556 451.425 44.7895 448.171 45.8673 443.953C46.9451 439.856 48.502 435.879 50.7774 432.264C53.0528 435.879 54.7294 439.856 55.6875 443.953C56.7653 448.171 59.9988 451.425 64.1903 452.509C68.2621 453.594 72.2141 455.281 75.8068 457.45C72.2141 459.74 68.2621 461.427 64.1903 462.391C59.9988 463.476 56.7653 466.729 55.6875 470.947C54.6097 475.044 52.933 479.021 50.7774 482.636C48.502 479.021 46.8254 475.044 45.7476 470.947C44.6698 466.85 41.556 463.596 37.3645 462.512Z" fill="#F98A01"/>
<path d="M380.352 22.7761L376.759 27.958C376.52 28.199 376.28 28.44 376.041 28.44L370.053 30.3681C369.334 30.6091 368.855 31.4527 369.095 32.1757C369.095 32.2963 369.215 32.4168 369.334 32.6578L373.047 37.7191C373.286 37.9602 373.286 38.3217 373.286 38.5627L373.167 44.8291C373.167 45.6727 373.765 46.2752 374.604 46.2752C374.723 46.2752 374.963 46.2752 375.083 46.1547L381.071 44.2266C381.31 44.1061 381.669 44.1061 382.029 44.2266L388.017 46.2752C388.735 46.5163 389.573 46.1547 389.813 45.4317C389.813 45.3112 389.933 45.0702 389.933 44.9496L389.813 38.6832C389.813 38.3217 389.933 38.0807 390.052 37.8396L393.765 32.7783C394.244 32.1757 394.124 31.2117 393.525 30.7296C393.406 30.6091 393.286 30.6091 393.046 30.4886L387.059 28.5605C386.699 28.44 386.46 28.3195 386.34 28.0785L382.747 22.8966C382.268 22.1735 381.43 22.053 380.711 22.5351C380.592 22.5351 380.472 22.6556 380.352 22.7761Z" fill="#F7C689"/>
<path d="M344.544 22.7761L340.951 27.958C340.831 28.199 340.472 28.44 340.233 28.44L334.245 30.3681C333.526 30.6092 333.047 31.4527 333.287 32.1758C333.287 32.2963 333.406 32.4168 333.526 32.6578L337.239 37.7192C337.478 37.9602 337.478 38.3217 337.478 38.5627L337.358 44.8292C337.358 45.6727 337.957 46.2753 338.796 46.2753C338.915 46.2753 339.155 46.2753 339.275 46.1547L345.143 44.2266C345.382 44.1061 345.742 44.1061 346.101 44.2266L352.089 46.2753C352.807 46.5163 353.646 46.1547 353.885 45.4317C353.885 45.3112 354.005 45.0702 354.005 44.9497L353.885 38.6832C353.885 38.3217 354.005 38.0807 354.125 37.8397L357.837 32.7783C358.316 32.1758 358.196 31.2117 357.598 30.7297C357.478 30.6092 357.358 30.6092 357.119 30.4886L351.131 28.5605C350.771 28.44 350.532 28.3195 350.412 28.0785L346.819 22.8966C346.46 22.1736 345.502 22.053 344.903 22.4146C344.903 22.4146 344.664 22.5351 344.544 22.7761Z" fill="#F7C689"/>
<path d="M308.856 22.7761L305.263 27.958C305.144 28.199 304.784 28.44 304.545 28.44L298.557 30.3681C297.838 30.6091 297.359 31.4527 297.599 32.1758C297.599 32.2963 297.719 32.5373 297.838 32.6578L301.551 37.7191C301.79 37.9602 301.79 38.3217 301.79 38.5627L301.671 44.8291C301.671 45.6727 302.269 46.2753 303.108 46.2753C303.227 46.2753 303.467 46.2752 303.587 46.1547L309.575 44.1061C309.814 43.9856 310.173 43.9856 310.533 44.1061L316.401 46.1547C317.119 46.3958 317.958 46.0342 318.197 45.3112C318.197 45.1907 318.317 44.9497 318.317 44.8291L318.197 38.5627C318.197 38.2012 318.317 37.9602 318.437 37.7191L322.149 32.6578C322.628 32.0553 322.508 31.0912 321.79 30.6091C321.67 30.4886 321.55 30.4886 321.311 30.3681L315.323 28.44C314.964 28.3195 314.724 28.199 314.604 27.958L311.012 22.7761C310.533 22.1736 309.694 21.9325 308.976 22.4146C309.096 22.5351 308.976 22.6556 308.856 22.7761Z" fill="#F7C689"/>
</svg>
