<svg width="325" height="288" viewBox="0 0 325 288" fill="none" xmlns="http://www.w3.org/2000/svg">
<g clip-path="url(#clip0_1359_17353)">
<path d="M156.038 252.639C206.785 252.639 247.924 247.017 247.924 240.082C247.924 233.147 206.785 227.525 156.038 227.525C105.291 227.525 64.1517 233.147 64.1517 240.082C64.1517 247.017 105.291 252.639 156.038 252.639Z" fill="#D9872A"/>
<path d="M101.212 214.796L100.733 215.712C100.43 216.291 100.715 216.978 101.369 217.246L126.159 227.42C126.813 227.689 127.589 227.437 127.892 226.857L128.371 225.942C128.674 225.362 128.389 224.675 127.735 224.407L102.945 214.233C102.291 213.965 101.515 214.217 101.212 214.796Z" fill="black"/>
<path d="M101.735 207.239L114.072 210.114L130.736 216.955L127.892 222.395C127.631 222.893 127.158 223.278 126.576 223.466C125.995 223.655 125.353 223.632 124.791 223.402L102.855 214.402L101.735 207.239Z" fill="white"/>
<path d="M125.769 224.164C125.337 224.164 124.91 224.081 124.519 223.919L102.261 214.79L100.963 206.451L114.351 209.582L131.599 216.688L128.479 222.651C128.236 223.105 127.852 223.489 127.372 223.757C126.892 224.025 126.336 224.166 125.769 224.164ZM103.453 214.011L125.064 222.881C125.266 222.965 125.484 223.013 125.707 223.022C125.929 223.031 126.152 223 126.361 222.932C126.57 222.864 126.762 222.76 126.926 222.626C127.089 222.492 127.221 222.33 127.314 222.151L129.888 217.231L113.851 210.649L102.511 208.007L103.453 214.011Z" fill="black"/>
<path d="M104.589 218.562L90.558 212.811C90.0421 212.599 89.6422 212.215 89.4462 211.742C89.2502 211.269 89.2741 210.747 89.5127 210.29C90.4947 208.414 92.2774 206.96 94.469 206.249C96.6606 205.537 99.0816 205.625 101.2 206.494C102.249 206.924 103.191 207.534 103.974 208.287C104.757 209.04 105.365 209.922 105.763 210.884C106.161 211.845 106.341 212.866 106.294 213.889C106.246 214.912 105.971 215.917 105.485 216.846L104.589 218.562Z" fill="black"/>
<path d="M215.022 97.3241L207.825 97.7123C204.536 97.8893 201.303 96.9021 198.836 94.9678C196.369 93.0336 194.871 90.3107 194.67 87.398L194.264 81.4717C194.177 80.1896 194.375 78.9047 194.848 77.6905C195.321 76.4763 196.059 75.3565 197.021 74.3952C197.983 73.4338 199.149 72.6498 200.453 72.0878C201.757 71.5258 203.173 71.197 204.62 71.12L210.23 70.8181C214.289 70.6026 218.279 71.8232 221.323 74.2117C224.366 76.6002 226.215 79.9613 226.462 83.5564L226.612 85.7417C226.809 88.6389 225.698 91.4868 223.525 93.6589C221.351 95.831 218.293 97.1494 215.022 97.3241Z" fill="black"/>
<path d="M92.1325 240.841C91.9778 240.843 91.8274 240.796 91.7084 240.709C91.5893 240.621 91.5095 240.499 91.4832 240.364L74.0727 151.797L47.5171 240.318C47.469 240.461 47.3604 240.581 47.2141 240.654C47.0678 240.727 46.8953 240.747 46.7327 240.71C46.5701 240.673 46.4301 240.581 46.3421 240.454C46.2541 240.328 46.225 240.176 46.2608 240.03L74.3325 146.437L92.772 240.177C92.8015 240.326 92.7634 240.479 92.6662 240.604C92.569 240.728 92.4204 240.813 92.2526 240.841C92.2127 240.845 92.1725 240.845 92.1325 240.841Z" fill="black"/>
<path d="M193.261 141.112H61.7916C60.2156 141.112 58.938 142.243 58.938 143.639V146.59C58.938 147.985 60.2156 149.117 61.7916 149.117H193.261C194.837 149.117 196.115 147.985 196.115 146.59V143.639C196.115 142.243 194.837 141.112 193.261 141.112Z" fill="black"/>
<path d="M184.201 57.7146H160.878C157.492 57.7146 154.746 60.1465 154.746 63.1464C154.746 66.1462 157.492 68.5781 160.878 68.5781H184.201C187.587 68.5781 190.333 66.1462 190.333 63.1464C190.333 60.1465 187.587 57.7146 184.201 57.7146Z" fill="white"/>
<path d="M184.204 69.1504H160.878C159.975 69.1679 159.078 69.0255 158.238 68.7316C157.398 68.4377 156.633 67.9981 155.987 67.4387C155.342 66.8793 154.829 66.2114 154.479 65.4741C154.129 64.7368 153.948 63.9449 153.948 63.145C153.948 62.3451 154.129 61.5533 154.479 60.816C154.829 60.0787 155.342 59.4107 155.987 58.8513C156.633 58.292 157.398 57.8524 158.238 57.5585C159.078 57.2645 159.975 57.1221 160.878 57.1396H184.204C185.107 57.1221 186.004 57.2645 186.844 57.5585C187.684 57.8524 188.449 58.292 189.095 58.8513C189.74 59.4107 190.253 60.0787 190.603 60.816C190.954 61.5533 191.134 62.3451 191.134 63.145C191.134 63.9449 190.954 64.7368 190.603 65.4741C190.253 66.2114 189.74 66.8793 189.095 67.4387C188.449 67.9981 187.684 68.4377 186.844 68.7316C186.004 69.0255 185.107 69.1679 184.204 69.1504ZM160.878 58.2898C160.147 58.274 159.42 58.388 158.739 58.6249C158.059 58.8618 157.439 59.2169 156.915 59.6693C156.392 60.1217 155.976 60.6623 155.692 61.2592C155.408 61.8561 155.262 62.4973 155.262 63.145C155.262 63.7928 155.408 64.4339 155.692 65.0309C155.976 65.6278 156.392 66.1683 156.915 66.6207C157.439 67.0731 158.059 67.4282 158.739 67.6652C159.42 67.9021 160.147 68.016 160.878 68.0002H184.204C184.935 68.016 185.662 67.9021 186.343 67.6652C187.023 67.4282 187.644 67.0731 188.167 66.6207C188.69 66.1683 189.106 65.6278 189.39 65.0309C189.674 64.4339 189.82 63.7928 189.82 63.145C189.82 62.4973 189.674 61.8561 189.39 61.2592C189.106 60.6623 188.69 60.1217 188.167 59.6693C187.644 59.2169 187.023 58.8618 186.343 58.6249C185.662 58.388 184.935 58.274 184.204 58.2898H160.878Z" fill="black"/>
<path d="M164.872 65.763L163.209 64.9866C163.185 64.9753 163.158 64.9694 163.13 64.9694C163.102 64.9694 163.075 64.9753 163.05 64.9866L161.388 65.763C161.36 65.7755 161.328 65.7809 161.296 65.7785C161.265 65.7761 161.235 65.766 161.209 65.7494C161.184 65.7327 161.164 65.7101 161.152 65.6841C161.14 65.6581 161.136 65.6297 161.141 65.602L161.466 63.9629C161.47 63.9384 161.467 63.9134 161.458 63.8899C161.449 63.8664 161.434 63.8451 161.414 63.8278L160.07 62.6776C160.047 62.6581 160.031 62.6334 160.023 62.6061C160.016 62.5788 160.017 62.5502 160.027 62.5235C160.036 62.4968 160.055 62.4731 160.079 62.4551C160.103 62.4371 160.133 62.4255 160.164 62.4217L162.024 62.1802C162.051 62.1772 162.077 62.1683 162.099 62.1542C162.121 62.1402 162.139 62.1214 162.151 62.0996L162.985 60.6073C162.999 60.5817 163.021 60.5601 163.048 60.5449C163.075 60.5298 163.106 60.5217 163.138 60.5217C163.17 60.5217 163.201 60.5298 163.228 60.5449C163.255 60.5601 163.277 60.5817 163.291 60.6073L164.122 62.0996C164.134 62.1215 164.153 62.1402 164.175 62.1542C164.198 62.1683 164.224 62.1772 164.251 62.1802L166.108 62.4217C166.14 62.4255 166.169 62.4371 166.194 62.4551C166.218 62.4731 166.236 62.4968 166.246 62.5235C166.256 62.5502 166.257 62.5788 166.249 62.6061C166.242 62.6334 166.225 62.6581 166.203 62.6776L164.859 63.8278C164.839 63.8453 164.824 63.8667 164.816 63.8902C164.807 63.9137 164.805 63.9386 164.81 63.9629L165.134 65.602C165.142 65.6317 165.14 65.6628 165.127 65.6912C165.115 65.7196 165.093 65.7441 165.065 65.7614C165.036 65.7788 165.003 65.7882 164.968 65.7885C164.934 65.7887 164.9 65.7799 164.872 65.763Z" fill="#D9872A"/>
<path d="M174.283 65.763L172.621 64.9866C172.596 64.9752 172.569 64.9693 172.541 64.9693C172.513 64.9693 172.486 64.9752 172.462 64.9866L170.799 65.763C170.771 65.7763 170.739 65.7823 170.707 65.7803C170.675 65.7783 170.644 65.7683 170.618 65.7515C170.592 65.7347 170.571 65.7118 170.559 65.6854C170.547 65.6589 170.544 65.63 170.549 65.6019L170.874 63.9629C170.879 63.9386 170.877 63.9135 170.869 63.8899C170.86 63.8663 170.845 63.845 170.825 63.8278L169.481 62.6776C169.459 62.6581 169.442 62.6333 169.435 62.6061C169.427 62.5788 169.428 62.5502 169.438 62.5235C169.448 62.4968 169.466 62.4731 169.49 62.4551C169.515 62.437 169.544 62.4255 169.576 62.4217L171.436 62.1801C171.463 62.1772 171.489 62.1683 171.511 62.1542C171.533 62.1401 171.551 62.1214 171.562 62.0996L172.393 60.6073C172.408 60.5818 172.43 60.5604 172.457 60.5454C172.484 60.5304 172.516 60.5225 172.548 60.5225C172.58 60.5225 172.611 60.5304 172.638 60.5454C172.666 60.5604 172.688 60.5818 172.702 60.6073L173.533 62.0996C173.545 62.1214 173.562 62.1401 173.585 62.1542C173.607 62.1683 173.632 62.1772 173.659 62.1801L175.52 62.4217C175.551 62.4255 175.581 62.437 175.605 62.4551C175.629 62.4731 175.647 62.4968 175.657 62.5235C175.667 62.5502 175.668 62.5788 175.661 62.6061C175.653 62.6333 175.637 62.6581 175.614 62.6776L174.27 63.8278C174.25 63.845 174.235 63.8663 174.226 63.8899C174.218 63.9135 174.216 63.9386 174.221 63.9629L174.546 65.6019C174.553 65.6317 174.551 65.6627 174.538 65.6912C174.526 65.7196 174.504 65.7441 174.476 65.7614C174.448 65.7788 174.414 65.7882 174.38 65.7884C174.345 65.7887 174.311 65.7798 174.283 65.763Z" fill="#D9872A"/>
<path d="M183.694 65.763L182.032 64.9866C182.007 64.9753 181.98 64.9694 181.952 64.9694C181.925 64.9694 181.897 64.9753 181.873 64.9866L180.211 65.763C180.182 65.7763 180.15 65.7823 180.118 65.7803C180.086 65.7783 180.055 65.7683 180.029 65.7515C180.003 65.7348 179.983 65.7119 179.971 65.6854C179.959 65.659 179.955 65.6301 179.961 65.602L180.285 63.9629C180.29 63.9386 180.288 63.9137 180.28 63.8902C180.271 63.8667 180.256 63.8453 180.237 63.8278L178.893 62.6776C178.87 62.6581 178.854 62.6334 178.846 62.6061C178.838 62.5788 178.839 62.5502 178.849 62.5235C178.859 62.4968 178.877 62.4731 178.902 62.4551C178.926 62.4371 178.955 62.4255 178.987 62.4217L180.844 62.1802C180.871 62.1769 180.897 62.1679 180.92 62.1539C180.942 62.1399 180.961 62.1213 180.974 62.0996L181.805 60.6073C181.818 60.5817 181.84 60.5601 181.867 60.5449C181.894 60.5298 181.925 60.5217 181.957 60.5217C181.989 60.5217 182.021 60.5298 182.048 60.5449C182.075 60.5601 182.096 60.5817 182.11 60.6073L182.941 62.0996C182.954 62.1213 182.972 62.1399 182.995 62.1539C183.017 62.1679 183.044 62.1769 183.071 62.1802L184.931 62.4217C184.962 62.4255 184.992 62.4371 185.016 62.4551C185.041 62.4731 185.059 62.4968 185.069 62.5235C185.079 62.5502 185.08 62.5788 185.072 62.6061C185.064 62.6334 185.048 62.6581 185.025 62.6776L183.678 63.8278C183.658 63.8453 183.644 63.8667 183.635 63.8902C183.627 63.9137 183.625 63.9386 183.629 63.9629L183.954 65.602C183.961 65.6313 183.958 65.6618 183.946 65.6896C183.933 65.7175 183.912 65.7416 183.884 65.7588C183.857 65.7759 183.824 65.7855 183.79 65.7863C183.756 65.787 183.723 65.7789 183.694 65.763Z" fill="#D9872A"/>
<path d="M167.894 74.2427H85.2728C81.8268 74.2427 79.0332 76.717 79.0332 79.7693V124.997C79.0332 128.05 81.8268 130.524 85.2728 130.524H167.894C171.34 130.524 174.133 128.05 174.133 124.997V79.7693C174.133 76.717 171.34 74.2427 167.894 74.2427Z" fill="black"/>
<path d="M163.083 79.0994H90.084C87.4573 79.0994 85.328 80.9854 85.328 83.3119V122.588C85.328 124.914 87.4573 126.8 90.084 126.8H163.083C165.709 126.8 167.839 124.914 167.839 122.588V83.3119C167.839 80.9854 165.709 79.0994 163.083 79.0994Z" fill="white"/>
<path d="M132.342 87.0703H111.624C109.784 87.0703 108.293 88.3912 108.293 90.0205V117.375C108.293 119.004 109.784 120.325 111.624 120.325H132.342C134.182 120.325 135.673 119.004 135.673 117.375V90.0205C135.673 88.3912 134.182 87.0703 132.342 87.0703Z" fill="#D9872A"/>
<path d="M100.878 86.1672H93.5642C92.795 86.1672 92.1715 86.7195 92.1715 87.4008V93.8792C92.1715 94.5605 92.795 95.1128 93.5642 95.1128H100.878C101.648 95.1128 102.271 94.5605 102.271 93.8792V87.4008C102.271 86.7195 101.648 86.1672 100.878 86.1672Z" fill="#D9872A"/>
<path d="M100.609 99.3198H93.8337C92.9157 99.3198 92.1715 99.979 92.1715 100.792V106.793C92.1715 107.606 92.9157 108.265 93.8337 108.265H100.609C101.527 108.265 102.271 107.606 102.271 106.793V100.792C102.271 99.979 101.527 99.3198 100.609 99.3198Z" fill="#DB2828"/>
<path d="M100.589 112.469H93.8531C92.9244 112.469 92.1715 113.136 92.1715 113.959V119.925C92.1715 120.748 92.9244 121.415 93.8531 121.415H100.589C101.518 121.415 102.271 120.748 102.271 119.925V113.959C102.271 113.136 101.518 112.469 100.589 112.469Z" fill="#D9872A"/>
<path d="M162.722 88.2952H141.049C140.877 88.2952 140.712 88.2346 140.59 88.1268C140.468 88.0189 140.4 87.8726 140.4 87.7201C140.4 87.5676 140.468 87.4213 140.59 87.3135C140.712 87.2056 140.877 87.145 141.049 87.145H162.722C162.895 87.145 163.06 87.2056 163.181 87.3135C163.303 87.4213 163.372 87.5676 163.372 87.7201C163.372 87.8726 163.303 88.0189 163.181 88.1268C163.06 88.2346 162.895 88.2952 162.722 88.2952Z" fill="black"/>
<path d="M162.722 93.6177H141.049C140.877 93.6177 140.712 93.5571 140.59 93.4493C140.468 93.3414 140.4 93.1951 140.4 93.0426C140.4 92.8901 140.468 92.7438 140.59 92.636C140.712 92.5281 140.877 92.4675 141.049 92.4675H162.722C162.895 92.4675 163.06 92.5281 163.181 92.636C163.303 92.7438 163.372 92.8901 163.372 93.0426C163.372 93.1951 163.303 93.3414 163.181 93.4493C163.06 93.5571 162.895 93.6177 162.722 93.6177Z" fill="black"/>
<path d="M155.993 98.9143H141.059C140.887 98.9143 140.722 98.8538 140.6 98.7459C140.478 98.6381 140.41 98.4918 140.41 98.3393C140.41 98.1867 140.478 98.0405 140.6 97.9326C140.722 97.8247 140.887 97.7642 141.059 97.7642H155.993C156.165 97.7642 156.33 97.8247 156.452 97.9326C156.573 98.0405 156.642 98.1867 156.642 98.3393C156.642 98.4918 156.573 98.6381 156.452 98.7459C156.33 98.8538 156.165 98.9143 155.993 98.9143Z" fill="black"/>
<path d="M152.334 102.917H143.302C141.712 102.917 140.423 104.059 140.423 105.468C140.423 106.876 141.712 108.018 143.302 108.018H152.334C153.924 108.018 155.213 106.876 155.213 105.468C155.213 104.059 153.924 102.917 152.334 102.917Z" fill="#DB2828"/>
<path d="M161.226 107.866C162.719 107.866 163.93 106.793 163.93 105.47C163.93 104.148 162.719 103.075 161.226 103.075C159.732 103.075 158.521 104.148 158.521 105.47C158.521 106.793 159.732 107.866 161.226 107.866Z" fill="#FB6D6D"/>
<path d="M127.44 141.112H104.819L114.081 130.524H137.631L127.44 141.112Z" fill="black"/>
<path d="M225.258 178.202C225.204 178.202 225.151 178.196 225.099 178.185C225.016 178.167 224.938 178.134 224.87 178.089C224.801 178.044 224.744 177.987 224.7 177.922C224.656 177.857 224.627 177.785 224.615 177.711C224.603 177.636 224.607 177.56 224.628 177.486L233.173 147.581C233.216 147.434 233.323 147.307 233.472 147.229C233.62 147.151 233.798 147.129 233.965 147.167C234.132 147.206 234.275 147.301 234.363 147.432C234.45 147.564 234.475 147.721 234.432 147.869L225.888 177.774C225.851 177.897 225.769 178.006 225.655 178.083C225.541 178.161 225.402 178.203 225.258 178.202Z" fill="black"/>
<path d="M178.331 239.585C178.302 239.588 178.273 239.588 178.243 239.585C178.159 239.575 178.077 239.55 178.003 239.512C177.929 239.475 177.865 239.424 177.813 239.364C177.761 239.304 177.723 239.235 177.701 239.162C177.679 239.089 177.674 239.013 177.685 238.938L186.428 181.771C186.439 181.695 186.467 181.622 186.51 181.556C186.553 181.491 186.61 181.433 186.679 181.386C186.747 181.34 186.825 181.306 186.908 181.286C186.991 181.267 187.078 181.262 187.163 181.272C187.248 181.282 187.33 181.307 187.405 181.345C187.479 181.383 187.545 181.434 187.597 181.494C187.649 181.555 187.687 181.624 187.71 181.697C187.732 181.771 187.737 181.848 187.726 181.923L178.974 239.087C178.953 239.225 178.876 239.351 178.758 239.443C178.64 239.534 178.488 239.585 178.331 239.585Z" fill="black"/>
<path d="M234.795 116.763L228.209 142.457C227.654 144.624 229.187 146.779 231.633 147.27L236.591 148.267C239.037 148.759 241.47 147.401 242.025 145.235L248.61 119.541C249.166 117.374 247.633 115.219 245.187 114.727L240.229 113.73C237.783 113.239 235.35 114.596 234.795 116.763Z" fill="#CF660F"/>
<path d="M225.716 239.585C225.558 239.586 225.405 239.537 225.286 239.446C225.166 239.355 225.088 239.228 225.066 239.09L215.941 181.92C215.917 181.768 215.962 181.613 216.067 181.49C216.171 181.367 216.327 181.286 216.499 181.265C216.671 181.243 216.846 181.283 216.985 181.376C217.124 181.469 217.215 181.607 217.239 181.759L226.362 238.929C226.386 239.08 226.341 239.233 226.238 239.355C226.134 239.477 225.98 239.558 225.81 239.579C225.779 239.584 225.747 239.586 225.716 239.585Z" fill="black"/>
<path d="M222.693 220.636H181.227C181.055 220.636 180.89 220.575 180.768 220.467C180.646 220.359 180.578 220.213 180.578 220.06C180.578 219.908 180.646 219.762 180.768 219.654C180.89 219.546 181.055 219.485 181.227 219.485H222.693C222.865 219.485 223.031 219.546 223.152 219.654C223.274 219.762 223.343 219.908 223.343 220.06C223.343 220.213 223.274 220.359 223.152 220.467C223.031 220.575 222.865 220.636 222.693 220.636Z" fill="black"/>
<path d="M222.119 168.348H182.818C180.34 168.348 178.331 170.127 178.331 172.322V177.866C178.331 180.061 180.34 181.84 182.818 181.84H222.119C224.596 181.84 226.605 180.061 226.605 177.866V172.322C226.605 170.127 224.596 168.348 222.119 168.348Z" fill="#CF660F"/>
<path d="M227.8 81.0232C233.116 81.0232 237.425 77.2061 237.425 72.4974C237.425 67.7888 233.116 63.9717 227.8 63.9717C222.484 63.9717 218.174 67.7888 218.174 72.4974C218.174 77.2061 222.484 81.0232 227.8 81.0232Z" fill="black"/>
<path d="M245.473 76.2442C252.609 76.2442 258.394 71.1204 258.394 64.7998C258.394 58.4793 252.609 53.3555 245.473 53.3555C238.337 53.3555 232.553 58.4793 232.553 64.7998C232.553 71.1204 238.337 76.2442 245.473 76.2442Z" fill="black"/>
<path d="M221.512 88.6344C221.512 87.643 221.067 86.6922 220.275 85.9912C219.484 85.2901 218.411 84.8963 217.291 84.8963C217.093 84.8981 216.896 84.9115 216.7 84.9366L215.892 75.1255L200.137 76.6236C198.519 76.7763 197.022 77.4537 195.934 78.5256C194.846 79.5974 194.245 80.9879 194.245 82.4292V84.0078C194.259 85.8373 193.685 87.6326 192.589 89.1836L192.56 89.221V89.2354C192.441 89.3952 192.361 89.5757 192.326 89.7649C192.292 89.9541 192.303 90.1477 192.36 90.3327C192.416 90.5177 192.516 90.69 192.654 90.8379C192.792 90.9859 192.963 91.1061 193.157 91.1907L194.255 91.668V95.3659C194.255 96.101 194.434 96.8273 194.781 97.4951C195.128 98.1628 195.634 98.756 196.265 99.2339C196.896 99.7118 197.636 100.063 198.434 100.264C199.232 100.464 200.07 100.509 200.89 100.395L204.935 99.8372L205.747 105.982L218.626 104.636L217.752 98.0774H217.791L217.32 92.3696C218.434 92.3628 219.5 91.9664 220.285 91.2667C221.07 90.567 221.511 89.6209 221.512 88.6344Z" fill="white"/>
<path d="M205.179 106.621L204.364 100.519L200.988 100.985C200.075 101.111 199.143 101.061 198.254 100.837C197.366 100.614 196.543 100.223 195.841 99.6908C195.14 99.1588 194.577 98.4985 194.191 97.7554C193.805 97.0124 193.605 96.2041 193.605 95.3861V92.0419L192.868 91.7228C192.594 91.6044 192.351 91.4358 192.156 91.2281C191.961 91.0204 191.817 90.7784 191.735 90.5179C191.654 90.2519 191.636 89.9737 191.684 89.7012C191.731 89.4288 191.843 89.1683 192.011 88.9364L192.047 88.8875C193.081 87.4279 193.622 85.7367 193.605 84.0136V82.435C193.602 80.8518 194.261 79.3236 195.455 78.1456C196.65 76.9677 198.295 76.2237 200.072 76.0572L216.496 74.4958L217.307 84.3271C218.52 84.3488 219.68 84.7706 220.56 85.51C221.44 86.2493 221.977 87.2531 222.066 88.3246C222.154 89.3961 221.788 90.4583 221.039 91.3033C220.29 92.1483 219.211 92.7152 218.015 92.8931L218.479 98.5606L219.356 105.14L205.179 106.621ZM205.503 99.1903L206.322 105.344L217.911 104.133L217.041 97.5973H217.106L216.629 91.8033H217.324C218.271 91.801 219.178 91.4655 219.846 90.8707C220.514 90.2759 220.888 89.4705 220.885 88.6316C220.882 87.7927 220.504 86.9891 219.832 86.3976C219.161 85.806 218.251 85.475 217.304 85.4772C217.137 85.4787 216.97 85.4902 216.804 85.5118L216.116 85.598L215.291 75.7668L200.202 77.2045C198.743 77.3411 197.393 77.9516 196.413 78.9181C195.433 79.8846 194.892 81.1386 194.894 82.4379V84.0165C194.91 85.9587 194.299 87.8644 193.131 89.5086L193.099 89.5547C193.028 89.6507 192.98 89.7591 192.96 89.8725C192.939 89.986 192.945 90.1021 192.979 90.2131C193.011 90.3172 193.067 90.4139 193.145 90.4968C193.223 90.5797 193.32 90.6467 193.43 90.6933L194.894 91.3259V95.3832C194.894 96.035 195.054 96.6789 195.361 97.2709C195.669 97.863 196.118 98.389 196.677 98.813C197.235 99.2369 197.891 99.5487 198.599 99.7271C199.307 99.9054 200.05 99.9459 200.777 99.8459L205.503 99.1903Z" fill="black"/>
<path d="M198.41 95.9668C198.245 95.9669 198.08 95.9544 197.917 95.9294C197.289 95.8333 196.707 95.5775 196.242 95.1933C196.112 95.0904 196.035 94.9462 196.026 94.7925C196.016 94.6388 196.077 94.4882 196.193 94.3738C196.309 94.2594 196.472 94.1906 196.645 94.1825C196.819 94.1744 196.989 94.2277 197.118 94.3307C197.4 94.5621 197.75 94.7185 198.128 94.7821C199.329 94.9575 200.274 93.9195 200.283 93.9195C200.392 93.8062 200.545 93.7345 200.712 93.7193C200.879 93.7042 201.046 93.7467 201.178 93.8381C201.31 93.9296 201.397 94.0627 201.421 94.2097C201.445 94.3567 201.404 94.5062 201.306 94.6268C201.238 94.693 200.092 95.9668 198.41 95.9668Z" fill="black"/>
<path d="M201.069 88.1716C201.634 88.1716 202.092 87.7661 202.092 87.2659C202.092 86.7656 201.634 86.3601 201.069 86.3601C200.504 86.3601 200.046 86.7656 200.046 87.2659C200.046 87.7661 200.504 88.1716 201.069 88.1716Z" fill="black"/>
<path d="M216.863 90.5755C216.517 90.5755 216.18 90.4847 215.892 90.3147C215.605 90.1447 215.381 89.9031 215.249 89.6205C215.117 89.3378 215.082 89.0267 215.15 88.7266C215.217 88.4266 215.383 88.1509 215.628 87.9346C215.872 87.7182 216.183 87.5709 216.522 87.5112C216.861 87.4515 217.212 87.4821 217.531 87.5992C217.85 87.7163 218.123 87.9146 218.315 88.169C218.507 88.4234 218.609 88.7225 218.609 89.0285C218.609 89.4387 218.425 89.8322 218.098 90.1223C217.77 90.4125 217.326 90.5755 216.863 90.5755ZM216.863 88.6316C216.774 88.6316 216.687 88.6549 216.614 88.6985C216.54 88.7421 216.483 88.8041 216.449 88.8766C216.415 88.9491 216.406 89.0289 216.423 89.1059C216.441 89.1828 216.483 89.2535 216.546 89.309C216.609 89.3645 216.688 89.4023 216.775 89.4176C216.862 89.433 216.952 89.4251 217.034 89.3951C217.116 89.365 217.186 89.3142 217.235 89.2489C217.284 89.1837 217.311 89.1069 217.311 89.0285C217.311 88.9232 217.263 88.8223 217.179 88.7479C217.095 88.6734 216.981 88.6316 216.863 88.6316Z" fill="black"/>
<path d="M206.409 104.429L226.167 103.636C229.122 103.49 232.023 104.384 234.237 106.123C237.085 108.424 239.312 112.648 236.211 120.325L231.848 127.528L207.175 124.883L202.913 132.227L187.428 133.794C187.044 133.831 185.86 132.025 185.694 131.798C184.461 130.135 183.659 128.25 183.344 126.28C182.532 120.667 187.239 116.159 190.885 112.055C194.755 107.679 199.897 104.691 206.409 104.429Z" fill="#DB2828"/>
<path d="M215.804 89.8567C215.652 89.8593 215.503 89.8143 215.385 89.7297C215.266 89.645 215.185 89.5261 215.155 89.3937C215.067 89.0068 215.095 88.6061 215.236 88.2318C215.377 87.8574 215.627 87.5224 215.96 87.2601C216.283 87.0215 216.664 86.8541 217.074 86.7716C217.484 86.6891 217.91 86.694 218.317 86.7857C218.399 86.8059 218.476 86.8402 218.544 86.8868C218.611 86.9333 218.667 86.9912 218.709 87.057C218.751 87.1228 218.778 87.1953 218.789 87.2704C218.799 87.3454 218.793 87.4216 218.77 87.4945C218.747 87.5673 218.708 87.6355 218.656 87.6951C218.603 87.7547 218.538 87.8046 218.464 87.8418C218.389 87.8791 218.307 87.903 218.223 87.9122C218.138 87.9215 218.052 87.9158 217.97 87.8956C217.771 87.8528 217.563 87.8511 217.364 87.8904C217.164 87.9298 216.977 88.0093 216.817 88.1228C216.655 88.2516 216.534 88.4157 216.466 88.5988C216.397 88.7819 216.384 88.9776 216.428 89.1666C216.445 89.2406 216.445 89.3168 216.429 89.391C216.413 89.4652 216.38 89.5358 216.333 89.5988C216.286 89.6618 216.226 89.716 216.155 89.7583C216.084 89.8005 216.005 89.8301 215.921 89.8452C215.883 89.8512 215.844 89.855 215.804 89.8567Z" fill="black"/>
<path d="M200.144 76.6295C200.144 76.6295 199.933 88.2147 216.833 84.9252L215.898 75.1313L200.144 76.6295Z" fill="black"/>
<path d="M201.306 92.2978C198.624 92.2978 196.436 90.0579 196.436 87.3003C196.436 84.5427 198.621 82.3027 201.306 82.3027C203.991 82.3027 206.175 84.5456 206.175 87.3003C206.175 90.055 203.991 92.2978 201.306 92.2978ZM201.306 83.4529C199.339 83.4529 197.735 85.1782 197.735 87.3003C197.735 89.4224 199.335 91.1477 201.306 91.1477C203.276 91.1477 204.877 89.4224 204.877 87.3003C204.877 85.1782 203.28 83.4529 201.306 83.4529Z" fill="black"/>
<path d="M223.55 152.821H198.735V138.23H221.664C223.284 142.953 223.928 147.896 223.563 152.821H223.55Z" fill="black"/>
<path d="M160.989 141.112H148.204C147.492 141.113 146.79 140.967 146.152 140.686C145.514 140.405 144.959 139.996 144.531 139.493C144.102 138.989 143.812 138.404 143.682 137.783C143.553 137.163 143.589 136.525 143.786 135.918C144.054 135.104 144.613 134.389 145.38 133.88C146.146 133.371 147.078 133.097 148.036 133.098H161.154C162.078 133.097 162.978 133.353 163.73 133.829C164.481 134.305 165.045 134.977 165.342 135.752C165.576 136.363 165.641 137.015 165.533 137.654C165.425 138.292 165.146 138.899 164.721 139.423C164.295 139.947 163.734 140.373 163.085 140.667C162.436 140.961 161.718 141.113 160.989 141.112Z" fill="#F3EAD6"/>
<path d="M206.792 124.883L202.591 132.226L178.396 134.36C177.491 134.44 176.58 134.285 175.773 133.914L165.297 129.095C165.297 129.095 161.638 127.281 156.35 129.236L147.442 132.816C147.067 132.959 146.753 133.203 146.544 133.512C146.334 133.822 146.239 134.182 146.273 134.541V134.559C146.295 134.706 146.353 134.847 146.442 134.973C146.531 135.099 146.649 135.206 146.789 135.288C146.929 135.37 147.088 135.424 147.253 135.447C147.419 135.47 147.588 135.461 147.75 135.421L157.181 133.078L152.762 136.617C152.112 137.133 151.658 137.816 151.464 138.57C151.165 139.798 151.525 141.462 155.116 142.222C155.116 142.222 156.768 144.68 159.58 143.372C159.596 143.372 159.995 143.685 160.028 143.705C160.467 144.005 160.936 144.268 161.43 144.49C162.977 145.172 164.671 145.553 166.397 145.609C167.469 145.655 168.475 145.241 168.615 144.211L169.517 144.295C172.331 144.55 175.132 144.916 177.922 145.393L199.261 149.048C205.104 149.781 209.286 148.674 211.418 147.927C217.652 145.744 221.69 141.862 224.93 136.931L231.098 127.525L206.792 124.883Z" fill="white"/>
<path d="M203.075 149.87C201.772 149.868 200.47 149.784 199.179 149.62H199.147L177.795 145.951C175.042 145.48 172.234 145.114 169.449 144.859L169.098 144.827C168.702 145.71 167.67 146.236 166.362 146.178C164.542 146.117 162.759 145.714 161.128 144.997C160.6 144.757 160.097 144.476 159.625 144.157L159.499 144.059L159.476 144.042C157.203 144.884 155.457 143.665 154.707 142.716C150.659 141.776 150.532 139.642 150.811 138.441C151.035 137.566 151.564 136.776 152.324 136.183L154.7 134.28L147.902 135.962C147.653 136.024 147.391 136.038 147.134 136.003C146.878 135.968 146.633 135.886 146.416 135.76C146.198 135.635 146.014 135.469 145.874 135.276C145.735 135.082 145.644 134.864 145.607 134.636C145.549 134.152 145.666 133.664 145.94 133.243C146.215 132.821 146.634 132.487 147.136 132.29L156.08 128.704C161.615 126.657 165.453 128.506 165.615 128.586L176.059 133.394C176.757 133.717 177.547 133.851 178.331 133.779L202.169 131.677L206.416 124.256L232.173 127.062L225.495 137.224C221.768 142.892 217.379 146.463 211.662 148.464C208.926 149.41 206.012 149.887 203.075 149.87ZM199.365 148.482C203.617 149.014 207.594 148.648 211.178 147.395C216.678 145.468 220.745 142.153 224.365 136.646L230.053 127.991L207.175 125.504L203.02 132.767L178.471 134.932C177.44 135.024 176.402 134.847 175.484 134.424L165.021 129.607C164.865 129.532 161.528 127.951 156.622 129.768L147.708 133.339C147.46 133.431 147.25 133.589 147.108 133.791C146.965 133.993 146.897 134.229 146.912 134.467C146.922 134.533 146.947 134.598 146.987 134.655C147.027 134.712 147.08 134.761 147.143 134.799C147.206 134.837 147.278 134.862 147.353 134.873C147.428 134.884 147.504 134.881 147.578 134.863L159.667 131.861L153.21 137.037C152.653 137.468 152.262 138.044 152.094 138.682C151.74 140.134 152.805 141.135 155.262 141.652L155.528 141.71L155.668 141.92C155.807 142.121 157.09 143.872 159.275 142.854C159.684 142.665 159.953 142.877 160.362 143.199L160.437 143.26C160.845 143.532 161.279 143.772 161.735 143.976C163.201 144.616 164.803 144.975 166.436 145.028C166.861 145.045 167.861 144.999 167.975 144.137L168.05 143.562L169.592 143.703C172.413 143.959 175.26 144.329 178.052 144.81L199.365 148.482Z" fill="black"/>
<path d="M169.9 235.855H142.578C141.858 235.855 141.273 236.373 141.273 237.011V238.021C141.273 238.659 141.858 239.177 142.578 239.177H169.9C170.621 239.177 171.205 238.659 171.205 238.021V237.011C171.205 236.373 170.621 235.855 169.9 235.855Z" fill="black"/>
<path d="M138.16 229.964L150.717 227.979H169.085V233.978C169.085 234.526 168.839 235.052 168.402 235.44C167.964 235.827 167.37 236.045 166.751 236.045H142.572L138.16 229.964Z" fill="white"/>
<path d="M166.751 236.62H142.225L137.085 229.549L150.72 227.404H169.738V233.978C169.737 234.679 169.422 235.351 168.862 235.846C168.302 236.342 167.543 236.62 166.751 236.62ZM142.932 235.47H166.751C167.198 235.469 167.626 235.312 167.942 235.032C168.257 234.752 168.435 234.373 168.436 233.978V228.554H150.776L139.231 230.378L142.932 235.47Z" fill="black"/>
<path d="M122.584 216.636L115.036 211.748C113.872 210.996 112.887 210.049 112.137 208.96C111.386 207.871 110.885 206.662 110.663 205.402C110.44 204.141 110.5 202.854 110.838 201.615C111.177 200.375 111.788 199.206 112.637 198.175L145.523 158.229C146.767 156.717 148.336 155.437 150.139 154.462C151.942 153.487 153.944 152.836 156.031 152.547C158.118 152.258 160.249 152.335 162.303 152.775C164.356 153.215 166.291 154.01 167.998 155.112C169.705 156.215 171.15 157.604 172.251 159.201C173.352 160.798 174.087 162.571 174.413 164.42C174.74 166.269 174.653 168.156 174.156 169.975C173.659 171.794 172.762 173.508 171.517 175.019L139.157 214.338C137.303 216.589 134.515 218.096 131.407 218.527C128.3 218.958 125.126 218.278 122.584 216.636Z" fill="black"/>
<path d="M201.053 173.268H143.591V163.267C143.592 159.42 145.318 155.73 148.39 153.009C151.462 150.289 155.629 148.76 159.973 148.76H223.55V153.341C223.55 158.626 221.18 163.695 216.961 167.432C212.742 171.169 207.019 173.268 201.053 173.268Z" fill="black"/>
<path d="M163.914 229.386H154.584C151.675 229.386 148.885 228.362 146.828 226.541C144.771 224.719 143.615 222.249 143.614 219.672V172.04H175.786V218.879C175.786 220.259 175.479 221.627 174.883 222.902C174.286 224.177 173.412 225.336 172.309 226.312C171.206 227.288 169.897 228.062 168.457 228.589C167.016 229.116 165.473 229.387 163.914 229.386Z" fill="black"/>
<path d="M126.441 216.837C126.322 216.837 126.206 216.808 126.104 216.753C126.003 216.698 125.921 216.62 125.866 216.526C125.811 216.433 125.787 216.328 125.795 216.223C125.803 216.118 125.843 216.017 125.911 215.931L143.072 194.365C143.171 194.241 143.323 194.156 143.493 194.13C143.662 194.104 143.837 194.139 143.978 194.227C144.118 194.315 144.214 194.449 144.243 194.6C144.272 194.75 144.233 194.905 144.133 195.03L126.973 216.596C126.913 216.671 126.833 216.732 126.74 216.774C126.647 216.816 126.545 216.838 126.441 216.837Z" fill="white"/>
<path d="M165.589 229.854C165.417 229.854 165.252 229.794 165.13 229.686C165.008 229.578 164.94 229.432 164.94 229.279V170.855C164.941 168.692 165.912 166.618 167.639 165.088C169.366 163.558 171.707 162.697 174.15 162.695H199.4C202.053 162.693 204.597 161.758 206.472 160.097C208.348 158.435 209.403 156.182 209.406 153.833V148.76C209.406 148.608 209.474 148.462 209.596 148.354C209.718 148.246 209.883 148.185 210.055 148.185C210.227 148.185 210.392 148.246 210.514 148.354C210.636 148.462 210.704 148.608 210.704 148.76V153.833C210.701 156.487 209.509 159.032 207.39 160.909C205.27 162.786 202.397 163.842 199.4 163.845H174.15C172.052 163.847 170.04 164.587 168.557 165.901C167.074 167.215 166.24 168.997 166.238 170.855V229.279C166.238 229.432 166.17 229.578 166.048 229.686C165.926 229.794 165.761 229.854 165.589 229.854Z" fill="white"/>
<path d="M155.11 142.788C154.97 142.787 154.834 142.747 154.722 142.672C154.61 142.598 154.529 142.493 154.489 142.374C152.983 137.805 158.512 134.981 158.57 134.952C158.644 134.915 158.726 134.89 158.811 134.881C158.896 134.871 158.982 134.876 159.065 134.896C159.147 134.915 159.225 134.949 159.292 134.996C159.36 135.042 159.417 135.1 159.46 135.165C159.502 135.231 159.53 135.303 159.541 135.379C159.552 135.454 159.546 135.53 159.524 135.603C159.502 135.676 159.463 135.745 159.411 135.805C159.359 135.865 159.294 135.915 159.219 135.953C158.373 136.416 157.613 136.992 156.966 137.661C155.668 139.047 155.243 140.522 155.749 142.052C155.797 142.198 155.778 142.356 155.695 142.49C155.612 142.623 155.473 142.722 155.308 142.765C155.243 142.781 155.176 142.789 155.11 142.788Z" fill="black"/>
<path d="M159.577 143.938C159.471 143.938 159.367 143.915 159.273 143.871C159.18 143.827 159.1 143.763 159.041 143.685C158.69 143.263 158.447 142.779 158.328 142.266C158.209 141.752 158.218 141.222 158.353 140.712C159.002 138.291 162.304 136.643 162.446 136.574C162.521 136.532 162.605 136.504 162.692 136.492C162.779 136.479 162.869 136.483 162.955 136.502C163.04 136.521 163.121 136.556 163.191 136.604C163.261 136.652 163.319 136.712 163.362 136.78C163.405 136.849 163.432 136.924 163.441 137.002C163.45 137.08 163.441 137.159 163.414 137.234C163.387 137.308 163.343 137.377 163.285 137.437C163.227 137.496 163.156 137.544 163.076 137.578C163.024 137.607 160.128 139.062 159.616 140.979C159.524 141.334 159.521 141.702 159.606 142.058C159.692 142.413 159.865 142.748 160.112 143.038C160.179 143.125 160.218 143.226 160.225 143.33C160.232 143.435 160.206 143.539 160.151 143.631C160.096 143.724 160.013 143.802 159.912 143.856C159.811 143.91 159.695 143.938 159.577 143.938Z" fill="black"/>
<path d="M168.611 144.801C168.452 144.802 168.298 144.751 168.178 144.658C168.058 144.564 167.981 144.435 167.962 144.295C167.836 143.375 165.722 142.282 164.716 141.905L163.82 141.566L166.93 138.9C167.055 138.803 167.218 138.751 167.385 138.757C167.552 138.763 167.709 138.825 167.826 138.932C167.942 139.038 168.007 139.18 168.009 139.327C168.01 139.475 167.947 139.618 167.832 139.726L166.089 141.221C167.228 141.762 169.066 142.831 169.248 144.157C169.268 144.308 169.22 144.46 169.114 144.579C169.008 144.699 168.853 144.776 168.683 144.795L168.611 144.801Z" fill="black"/>
<path d="M146.114 239.179H130.651C130.082 239.179 129.536 238.979 129.134 238.623C128.731 238.266 128.505 237.783 128.505 237.279C128.506 235.211 129.434 233.228 131.085 231.765C132.736 230.303 134.975 229.481 137.31 229.48C139.645 229.48 141.884 230.302 143.535 231.765C145.186 233.227 146.114 235.21 146.114 237.279V239.179Z" fill="black"/>
<path d="M205.526 87.053C205.354 87.0613 205.185 87.0088 205.057 86.9069C204.928 86.805 204.851 86.662 204.841 86.5095C204.832 86.357 204.891 86.2073 205.006 86.0936C205.121 85.9798 205.283 85.9112 205.455 85.9028L215.694 84.8992C215.866 84.8824 216.039 84.9269 216.174 85.0229C216.309 85.1189 216.396 85.2585 216.415 85.4111C216.434 85.5636 216.383 85.7165 216.275 85.8362C216.167 85.956 216.009 86.0326 215.837 86.0494L205.598 87.0501L205.526 87.053Z" fill="black"/>
<path d="M205.013 99.2622L205.471 102.713L212.25 98.7532C212.297 98.7261 212.333 98.6853 212.351 98.6376C212.368 98.59 212.367 98.5384 212.347 98.4915C212.327 98.4446 212.289 98.4053 212.24 98.3802C212.191 98.3551 212.133 98.3457 212.077 98.3535L205.013 99.2622Z" fill="black"/>
<path d="M206.792 125.458C206.703 125.458 206.615 125.443 206.533 125.412C206.377 125.349 206.256 125.234 206.195 125.093C206.134 124.951 206.139 124.794 206.208 124.655L208.87 119.227C208.903 119.156 208.952 119.092 209.013 119.039C209.074 118.985 209.147 118.943 209.226 118.915C209.306 118.886 209.391 118.872 209.477 118.873C209.564 118.874 209.648 118.89 209.727 118.92C209.806 118.95 209.878 118.994 209.937 119.049C209.997 119.104 210.044 119.169 210.075 119.24C210.106 119.311 210.121 119.387 210.118 119.463C210.116 119.539 210.097 119.614 210.061 119.684L207.396 125.113C207.345 125.216 207.26 125.304 207.153 125.366C207.046 125.427 206.92 125.459 206.792 125.458Z" fill="black"/>
<path d="M143.799 208.38C143.627 208.38 143.462 208.32 143.34 208.212C143.218 208.104 143.15 207.958 143.15 207.805V161.016C143.15 160.863 143.218 160.717 143.34 160.609C143.462 160.501 143.627 160.441 143.799 160.441C143.971 160.441 144.136 160.501 144.258 160.609C144.38 160.717 144.448 160.863 144.448 161.016V207.805C144.448 207.958 144.38 208.104 144.258 208.212C144.136 208.32 143.971 208.38 143.799 208.38Z" fill="white"/>
<path d="M308.259 86.3513H249.21C245.244 86.3513 242.029 89.199 242.029 92.7118V124.652C242.029 128.165 245.244 131.013 249.21 131.013H308.259C312.225 131.013 315.44 128.165 315.44 124.652V92.7118C315.44 89.199 312.225 86.3513 308.259 86.3513Z" fill="white"/>
<path d="M308.259 131.588H249.21C247.134 131.586 245.144 130.855 243.676 129.554C242.208 128.254 241.382 126.491 241.38 124.653V92.712C241.382 90.8732 242.208 89.1105 243.676 87.8103C245.144 86.5101 247.134 85.7786 249.21 85.7764H308.259C310.335 85.7786 312.325 86.5101 313.793 87.8103C315.261 89.1105 316.086 90.8732 316.089 92.712V124.653C316.086 126.491 315.261 128.254 313.793 129.554C312.325 130.855 310.335 131.586 308.259 131.588ZM249.21 86.9266C247.478 86.9281 245.818 87.5381 244.593 88.6227C243.369 89.7074 242.68 91.1781 242.678 92.712V124.653C242.68 126.187 243.369 127.657 244.593 128.742C245.818 129.827 247.478 130.437 249.21 130.438H308.259C309.99 130.436 311.65 129.826 312.875 128.741C314.099 127.657 314.788 126.186 314.791 124.653V92.712C314.789 91.1781 314.1 89.7074 312.875 88.6227C311.651 87.5381 309.991 86.9281 308.259 86.9266H249.21Z" fill="black"/>
<path d="M282.057 102.681C283.267 102.681 284.248 101.812 284.248 100.74C284.248 99.6683 283.267 98.7993 282.057 98.7993C280.847 98.7993 279.866 99.6683 279.866 100.74C279.866 101.812 280.847 102.681 282.057 102.681Z" fill="#DB2828"/>
<path d="M289.647 102.681C290.857 102.681 291.838 101.812 291.838 100.74C291.838 99.6683 290.857 98.7993 289.647 98.7993C288.437 98.7993 287.456 99.6683 287.456 100.74C287.456 101.812 288.437 102.681 289.647 102.681Z" fill="#DB2828"/>
<path d="M297.24 102.681C298.451 102.681 299.432 101.812 299.432 100.74C299.432 99.6683 298.451 98.7993 297.24 98.7993C296.03 98.7993 295.049 99.6683 295.049 100.74C295.049 101.812 296.03 102.681 297.24 102.681Z" fill="#DB2828"/>
<path d="M304.834 102.681C306.044 102.681 307.025 101.812 307.025 100.74C307.025 99.6683 306.044 98.7993 304.834 98.7993C303.624 98.7993 302.642 99.6683 302.642 100.74C302.642 101.812 303.624 102.681 304.834 102.681Z" fill="#DB2828"/>
<path d="M260.877 110.221C263.228 110.221 265.133 108.533 265.133 106.451C265.133 104.369 263.228 102.681 260.877 102.681C258.527 102.681 256.621 104.369 256.621 106.451C256.621 108.533 258.527 110.221 260.877 110.221Z" fill="#D9872A"/>
<path d="M260.501 112.147C259.083 112.139 257.685 112.449 256.439 113.05C255.194 113.65 254.14 114.521 253.378 115.581C255.426 117.016 257.943 117.827 260.554 117.891C263.164 117.956 265.728 117.272 267.864 115.94C267.133 114.781 266.064 113.818 264.769 113.151C263.473 112.483 261.999 112.137 260.501 112.147Z" fill="#D9872A"/>
<path d="M307.025 108.57H279.431C279.258 108.57 279.093 108.51 278.972 108.402C278.85 108.294 278.781 108.148 278.781 107.995C278.781 107.842 278.85 107.696 278.972 107.588C279.093 107.481 279.258 107.42 279.431 107.42H307.025C307.197 107.42 307.362 107.481 307.484 107.588C307.606 107.696 307.674 107.842 307.674 107.995C307.674 108.148 307.606 108.294 307.484 108.402C307.362 108.51 307.197 108.57 307.025 108.57Z" fill="black"/>
<path d="M307.025 113.085H279.431C279.258 113.085 279.093 113.024 278.972 112.916C278.85 112.808 278.781 112.662 278.781 112.509C278.781 112.357 278.85 112.211 278.972 112.103C279.093 111.995 279.258 111.934 279.431 111.934H307.025C307.197 111.934 307.362 111.995 307.484 112.103C307.606 112.211 307.674 112.357 307.674 112.509C307.674 112.662 307.606 112.808 307.484 112.916C307.362 113.024 307.197 113.085 307.025 113.085Z" fill="black"/>
<path d="M296.776 117.605H279.444C279.272 117.605 279.106 117.544 278.985 117.436C278.863 117.328 278.794 117.182 278.794 117.03C278.794 116.877 278.863 116.731 278.985 116.623C279.106 116.515 279.272 116.455 279.444 116.455H296.776C296.948 116.455 297.114 116.515 297.235 116.623C297.357 116.731 297.426 116.877 297.426 117.03C297.426 117.182 297.357 117.328 297.235 117.436C297.114 117.544 296.948 117.605 296.776 117.605Z" fill="black"/>
<path d="M260.621 118.163C258.356 118.163 256.143 117.568 254.26 116.453C252.377 115.339 250.909 113.755 250.042 111.902C249.176 110.049 248.949 108.01 249.391 106.042C249.833 104.075 250.923 102.268 252.525 100.85C254.126 99.4313 256.166 98.4653 258.387 98.074C260.608 97.6827 262.911 97.8835 265.003 98.6511C267.095 99.4188 268.883 100.719 270.141 102.386C271.4 104.054 272.071 106.015 272.071 108.021C272.068 110.71 270.86 113.288 268.714 115.189C266.567 117.09 263.657 118.16 260.621 118.163ZM260.621 99.0322C258.613 99.0322 256.65 99.5596 254.981 100.548C253.311 101.536 252.01 102.94 251.242 104.584C250.474 106.227 250.273 108.035 250.665 109.779C251.057 111.523 252.024 113.125 253.444 114.383C254.864 115.64 256.673 116.496 258.643 116.843C260.612 117.19 262.653 117.011 264.508 116.33C266.363 115.649 267.948 114.496 269.063 113.017C270.178 111.538 270.773 109.799 270.772 108.021C270.769 105.637 269.698 103.352 267.795 101.667C265.892 99.9822 263.312 99.0345 260.621 99.0322Z" fill="black"/>
<path d="M274.288 148.76H252.869C250.15 148.76 247.947 150.712 247.947 153.12V172.092C247.947 174.5 250.15 176.451 252.869 176.451H274.288C277.006 176.451 279.21 174.5 279.21 172.092V153.12C279.21 150.712 277.006 148.76 274.288 148.76Z" fill="white"/>
<path d="M274.288 177.026H252.862C251.385 177.026 249.968 176.506 248.923 175.58C247.878 174.655 247.29 173.401 247.288 172.092V153.114C247.29 151.805 247.878 150.551 248.923 149.626C249.968 148.7 251.385 148.18 252.862 148.18H274.288C275.766 148.18 277.183 148.7 278.228 149.626C279.273 150.551 279.861 151.805 279.862 153.114V172.092C279.861 173.401 279.273 174.655 278.228 175.58C277.183 176.506 275.766 177.026 274.288 177.026ZM252.862 149.336C251.729 149.336 250.642 149.735 249.841 150.445C249.039 151.154 248.588 152.116 248.587 153.12V172.098C248.588 173.101 249.039 174.063 249.841 174.773C250.642 175.482 251.729 175.881 252.862 175.882H274.288C275.421 175.881 276.508 175.482 277.309 174.773C278.111 174.063 278.562 173.101 278.564 172.098V153.12C278.562 152.116 278.111 151.154 277.309 150.445C276.508 149.735 275.421 149.336 274.288 149.336H252.862Z" fill="black"/>
<path d="M75.6506 75.3038C79.9518 75.3038 83.4387 72.2154 83.4387 68.4056C83.4387 64.5958 79.9518 61.5073 75.6506 61.5073C71.3493 61.5073 67.8624 64.5958 67.8624 68.4056C67.8624 72.2154 71.3493 75.3038 75.6506 75.3038Z" fill="#D9872A"/>
<path d="M76.0847 88.4075C80.0051 81.813 78.8003 74.4229 73.3938 71.9013C67.9872 69.3796 60.4262 72.6813 56.5057 79.2757C52.5853 85.8702 53.7901 93.2603 59.1967 95.7819C64.6033 98.3036 72.1643 95.0019 76.0847 88.4075Z" fill="#D9872A"/>
<path d="M74.3385 112.829C75.9299 102.861 69.8052 93.8521 60.6586 92.7064C51.5119 91.5607 42.807 98.7124 41.2156 108.68C39.6242 118.648 45.7489 127.657 54.8956 128.803C64.0422 129.948 72.7471 122.797 74.3385 112.829Z" fill="#D9872A"/>
<path d="M16.5107 97.3903C20.4875 97.3903 23.7112 94.5349 23.7112 91.0125C23.7112 87.4902 20.4875 84.6348 16.5107 84.6348C12.534 84.6348 9.31018 87.4902 9.31018 91.0125C9.31018 94.5349 12.534 97.3903 16.5107 97.3903Z" fill="#D9872A"/>
<path d="M24.2497 116.964C29.6737 115.839 32.7314 109.862 31.0794 103.614C29.4274 97.3652 23.6912 93.2119 18.2673 94.337C12.8434 95.462 9.78562 101.439 11.4376 107.688C13.0896 113.936 18.8258 118.089 24.2497 116.964Z" fill="#D9872A"/>
<path d="M31.0372 145.094C38.9124 143.893 43.9437 135.961 42.2749 127.376C40.6061 118.792 32.8691 112.807 24.9939 114.008C17.1186 115.209 12.0873 123.142 13.7562 131.726C15.425 140.31 23.1619 146.296 31.0372 145.094Z" fill="#D9872A"/>
<path d="M40.3815 173.515C40.2225 173.516 40.0685 173.466 39.9489 173.373C39.8292 173.28 39.7521 173.152 39.7322 173.012C35.8982 146.072 25.3344 122.66 25.2273 122.438C25.1923 122.368 25.1738 122.292 25.1727 122.215C25.1715 122.138 25.1879 122.061 25.2208 121.99C25.2537 121.919 25.3024 121.854 25.3641 121.8C25.4258 121.745 25.4992 121.702 25.5799 121.674C25.6606 121.645 25.747 121.631 25.834 121.632C25.921 121.634 26.0067 121.651 26.0862 121.682C26.1656 121.713 26.2372 121.759 26.2965 121.815C26.3559 121.871 26.4018 121.938 26.4317 122.01C26.5388 122.243 37.1643 145.776 41.0405 172.868C41.0514 172.943 41.0455 173.02 41.0229 173.093C41.0004 173.166 40.9618 173.235 40.9093 173.294C40.8568 173.354 40.7915 173.404 40.717 173.442C40.6426 173.479 40.5606 173.503 40.4757 173.512L40.3815 173.515Z" fill="black"/>
<path d="M48.2249 173.811C48.0527 173.811 47.8875 173.751 47.7658 173.643C47.644 173.535 47.5756 173.389 47.5756 173.236C47.4944 146.207 51.7959 124.535 55.4157 111.1C59.3438 96.5304 63.3596 88.2318 63.3921 88.1542C63.4621 88.0163 63.5905 87.9084 63.7496 87.8538C63.9088 87.7992 64.0858 87.8022 64.2424 87.8623C64.399 87.9224 64.5226 88.0347 64.5864 88.1749C64.6502 88.3151 64.6492 88.4719 64.5835 88.6114C64.5446 88.6919 60.571 96.9215 56.6688 111.408C53.0685 124.773 48.793 146.354 48.8774 173.231C48.8774 173.383 48.809 173.529 48.6872 173.637C48.5655 173.745 48.4003 173.806 48.2281 173.806L48.2249 173.811Z" fill="black"/>
<path d="M51.955 173.236H35.5801C30.637 173.236 26.6298 176.786 26.6298 181.164V235.97C26.6298 240.349 30.637 243.898 35.5801 243.898H51.955C56.8981 243.898 60.9053 240.349 60.9053 235.97V181.164C60.9053 176.786 56.8981 173.236 51.955 173.236Z" fill="#D9872A"/>
<path d="M28.2984 240.122C28.1714 240.123 28.047 240.09 27.9408 240.028C27.8347 239.966 27.7513 239.878 27.7011 239.775C27.6319 239.636 27.6271 239.479 27.6879 239.337C27.7487 239.196 27.8701 239.081 28.0257 239.018C33.1057 237.07 38.5719 236.034 44.1074 235.97C49.6428 235.907 55.1374 236.818 60.2723 238.65C60.4268 238.71 60.5488 238.821 60.6126 238.959C60.6764 239.098 60.6769 239.253 60.614 239.391C60.5512 239.53 60.4299 239.641 60.2758 239.702C60.1217 239.763 59.947 239.768 59.7886 239.717C54.8123 237.942 49.4876 237.059 44.1233 237.12C38.759 237.182 33.4617 238.185 28.5387 240.074C28.4629 240.103 28.3813 240.12 28.2984 240.122Z" fill="black"/>
<path d="M56.1526 184.96H31.8695C31.6973 184.96 31.5321 184.899 31.4104 184.791C31.2886 184.683 31.2202 184.537 31.2202 184.385C31.2202 184.232 31.2886 184.086 31.4104 183.978C31.5321 183.87 31.6973 183.81 31.8695 183.81H56.1526C56.3248 183.81 56.49 183.87 56.6117 183.978C56.7335 184.086 56.8019 184.232 56.8019 184.385C56.8019 184.537 56.7335 184.683 56.6117 184.791C56.49 184.899 56.3248 184.96 56.1526 184.96Z" fill="black"/>
<path d="M49.9227 237.118C49.7505 237.118 49.5854 237.057 49.4636 236.949C49.3418 236.841 49.2734 236.695 49.2734 236.542V184.554C49.2734 184.402 49.3418 184.255 49.4636 184.147C49.5854 184.04 49.7505 183.979 49.9227 183.979C50.0949 183.979 50.2601 184.04 50.3818 184.147C50.5036 184.255 50.572 184.402 50.572 184.554V236.542C50.572 236.695 50.5036 236.841 50.3818 236.949C50.2601 237.057 50.0949 237.118 49.9227 237.118Z" fill="black"/>
<path d="M38.0831 237.118C37.9109 237.118 37.7458 237.057 37.624 236.949C37.5022 236.841 37.4338 236.695 37.4338 236.542V184.554C37.4338 184.402 37.5022 184.255 37.624 184.147C37.7458 184.04 37.9109 183.979 38.0831 183.979C38.2553 183.979 38.4205 184.04 38.5422 184.147C38.664 184.255 38.7324 184.402 38.7324 184.554V236.542C38.7324 236.695 38.664 236.841 38.5422 236.949C38.4205 237.057 38.2553 237.118 38.0831 237.118Z" fill="black"/>
</g>
<defs>
<clipPath id="clip0_1359_17353">
<rect width="324.641" height="287.546" fill="white" transform="translate(0.0546875 0.452637)"/>
</clipPath>
</defs>
</svg>
