<svg width="641" height="369" viewBox="0 0 641 369" fill="none" xmlns="http://www.w3.org/2000/svg">
<path d="M200.048 217.626V20.4642C200.048 10.0826 208.725 1.63672 219.391 1.63672H621.017C631.682 1.63672 640.36 10.0826 640.36 20.4642V217.626C640.36 228.007 631.682 236.453 621.017 236.453H219.391C208.725 236.453 200.048 228.007 200.048 217.626ZM638.398 20.4642C638.398 11.1204 630.617 3.5458 621.017 3.5458H219.391C209.791 3.5458 202.009 11.1206 202.009 20.4646V217.626C202.009 226.97 209.791 234.544 219.391 234.544H492.571C573.109 234.544 638.398 170.994 638.398 92.5997V20.4642H638.398Z" fill="#D9D9D9"/>
<path d="M341.541 37.5006H116.449C109.775 37.5006 104.348 42.7833 104.348 49.2799V129.766C104.348 136.263 109.775 141.545 116.449 141.545H341.541C348.216 141.545 353.643 136.263 353.643 129.766V49.2799C353.643 42.7833 348.216 37.5006 341.541 37.5006Z" fill="white"/>
<path d="M341.541 37.5006H116.449C109.775 37.5006 104.348 42.7833 104.348 49.2799V129.766C104.348 136.263 109.775 141.545 116.449 141.545H341.541C348.216 141.545 353.643 136.263 353.643 129.766V49.2799C353.643 42.7833 348.216 37.5006 341.541 37.5006ZM352.37 129.766C352.37 135.581 347.516 140.307 341.541 140.307H116.449C110.475 140.307 105.62 135.581 105.62 129.766V49.2799C105.62 43.4646 110.475 38.7392 116.449 38.7392H341.541C347.516 38.7392 352.37 43.4646 352.37 49.2799V129.766Z" fill="#3F3D56"/>
<path d="M126.989 74.1813H327.042C328.937 74.1813 330.474 75.677 330.474 77.5222C330.474 79.3673 328.937 80.8631 327.042 80.8631H126.989C125.093 80.8631 123.557 79.3673 123.557 77.5222C123.557 75.677 125.093 74.1813 126.989 74.1813Z" fill="#EB650D"/>
<path d="M126.989 96.1364H199.557C201.453 96.1364 202.989 97.6321 202.989 99.4772C202.989 101.322 201.453 102.818 199.557 102.818H126.989C125.093 102.818 123.557 101.322 123.557 99.4772C123.557 97.6321 125.093 96.1364 126.989 96.1364Z" fill="#EB650D"/>
<path d="M563.822 63.9752H426.531C424.368 63.9752 422.608 62.2623 422.608 60.157C422.608 58.0517 424.368 56.3389 426.531 56.3389H563.822C565.985 56.3389 567.745 58.0517 567.745 60.157C567.745 62.2623 565.985 63.9752 563.822 63.9752Z" fill="#D9D9D9"/>
<path d="M589.85 146.78H398.544V145.826C461.534 155.229 525.366 154.455 589.85 145.826V146.78Z" fill="#D9D9D9"/>
<path d="M563.822 112.657H426.531C424.368 112.657 422.608 110.944 422.608 108.839C422.608 106.734 424.368 105.021 426.531 105.021H563.822C565.985 105.021 567.745 106.734 567.745 108.839C567.745 110.944 565.985 112.657 563.822 112.657Z" fill="#D9D9D9"/>
<path d="M590.83 159.189H399.523V160.144H590.83V159.189Z" fill="#D9D9D9"/>
<path d="M563.822 87.5445H426.531C424.368 87.5445 422.608 85.8317 422.608 83.7264C422.608 81.6211 424.368 79.9082 426.531 79.9082H563.822C565.985 79.9082 567.745 81.6211 567.745 83.7264C567.745 85.8317 565.985 87.5445 563.822 87.5445Z" fill="#D9D9D9"/>
<path d="M590.83 172.553C524.796 168.181 460.666 167.485 399.523 172.553V171.599H590.83V172.553Z" fill="#D9D9D9"/>
<path d="M326.81 157.02L318.739 153.298C322.049 157.795 324.902 164.818 326.429 170.406C329.014 165.201 333.182 158.831 337.308 155.027L328.778 157.163C334.034 132.089 353.803 114.088 376.442 114.088V112.179C352.795 112.179 332.177 130.934 326.81 157.02Z" fill="#3F3D56"/>
<path d="M363.957 195.225H312.964C310.801 195.225 309.041 193.512 309.041 191.407C309.041 189.301 310.801 187.588 312.964 187.588H363.957C366.12 187.588 367.88 189.301 367.88 191.407C367.88 193.512 366.12 195.225 363.957 195.225Z" fill="#EB650D"/>
<path d="M233.39 112.364C240.973 112.364 247.119 106.381 247.119 99.0006C247.119 91.6202 240.973 85.6371 233.39 85.6371C225.808 85.6371 219.661 91.6202 219.661 99.0006C219.661 106.381 225.808 112.364 233.39 112.364Z" fill="#EB650D"/>
<path d="M240.532 91.1748C239.877 90.8023 238.878 90.9954 238.519 91.6885C236.887 94.8352 235.255 97.9819 233.623 101.129C232.307 99.1213 230.623 97.3686 228.669 95.8996C228.04 95.4264 227.021 95.8064 226.657 96.4132C226.212 97.1529 226.554 97.8979 227.184 98.3722C229.463 100.085 231.219 102.388 232.402 104.929C232.852 105.895 234.473 105.834 234.942 104.929C236.981 100.997 239.02 97.0654 241.059 93.1338C241.417 92.4438 241.247 91.5819 240.532 91.1748V91.1748V91.1748Z" fill="white"/>
<path d="M398.138 73.2286C405.721 73.2286 411.867 67.2455 411.867 59.865C411.867 52.4845 405.721 46.5015 398.138 46.5015C390.556 46.5015 384.409 52.4845 384.409 59.865C384.409 67.2455 390.556 73.2286 398.138 73.2286Z" fill="#EB650D"/>
<path d="M405.28 52.0392C404.625 51.6667 403.626 51.8598 403.267 52.5528C401.635 55.6995 400.003 58.8463 398.371 61.993C397.055 59.9857 395.371 58.233 393.417 56.764C392.788 56.2908 391.769 56.6707 391.405 57.2776C390.96 58.0173 391.302 58.7623 391.932 59.2366C394.211 60.9496 395.967 63.2521 397.15 65.7932C397.6 66.7592 399.221 66.6982 399.69 65.7932C401.729 61.8615 403.768 57.9298 405.807 53.9982C406.165 53.3081 405.995 52.4462 405.28 52.0392V52.0391V52.0392Z" fill="white"/>
<path d="M595.249 95.1834C602.831 95.1834 608.978 89.2003 608.978 81.8199C608.978 74.4394 602.831 68.4563 595.249 68.4563C587.666 68.4563 581.52 74.4394 581.52 81.8199C581.52 89.2003 587.666 95.1834 595.249 95.1834Z" fill="#EB650D"/>
<path d="M602.39 73.994C601.736 73.6215 600.737 73.8147 600.377 74.5077C598.745 77.6544 597.114 80.8011 595.482 83.9479C594.165 81.9405 592.481 80.1878 590.528 78.7188C589.898 78.2457 588.88 78.6256 588.515 79.2324C588.071 79.9721 588.412 80.7171 589.043 81.1914C591.321 82.9045 593.078 85.2069 594.261 87.748C594.71 88.714 596.332 88.653 596.801 87.748C598.84 83.8163 600.879 79.8847 602.918 75.953C603.275 75.263 603.105 74.4011 602.39 73.994V73.994V73.994Z" fill="white"/>
<path d="M287.537 165.417H254.468C252.415 165.417 250.745 163.792 250.745 161.793C246.373 149.354 246.459 137.165 250.745 125.212C250.745 123.214 252.415 121.588 254.468 121.588H287.537C289.591 121.588 291.261 123.214 291.261 125.212V161.793C291.261 163.792 289.591 165.417 287.537 165.417H287.537Z" fill="#D9D9D9"/>
<path d="M261.554 122.669C256.197 122.669 251.854 126.896 251.854 132.11V161.018C251.854 162.852 253.382 164.339 255.266 164.339H273.553C282.72 164.339 290.152 157.105 290.152 148.182V125.989C290.152 124.155 288.624 122.669 286.74 122.669H261.554Z" fill="white"/>
<path d="M278.704 133.297H263.222C262.831 133.297 262.514 132.988 262.514 132.608C262.514 132.228 262.831 131.919 263.222 131.919H278.704C279.094 131.919 279.412 132.228 279.412 132.608C279.412 132.988 279.094 133.297 278.704 133.297Z" fill="#D9D9D9"/>
<path d="M278.704 147.991H263.222C262.831 147.991 262.514 147.682 262.514 147.302C262.514 146.922 262.831 146.613 263.222 146.613H278.704C279.094 146.613 279.412 146.922 279.412 147.302C279.412 147.682 279.094 147.991 278.704 147.991Z" fill="#D9D9D9"/>
<path d="M287.012 140.648H254.914C254.524 140.648 254.206 140.339 254.206 139.959C254.206 139.579 254.524 139.27 254.914 139.27H287.012C287.403 139.27 287.72 139.579 287.72 139.959C287.72 140.339 287.403 140.648 287.012 140.648Z" fill="#D9D9D9"/>
<path d="M287.392 153.966H273.998C273.608 153.966 273.29 153.657 273.29 153.277C273.29 152.897 273.608 152.588 273.998 152.588H287.392C287.782 152.588 288.099 152.897 288.099 153.277C288.099 153.657 287.782 153.966 287.392 153.966Z" fill="#D9D9D9"/>
<path d="M59.7048 65.3385C60.5758 61.4283 60.8317 64.3087 62.7263 60.7621C61.4259 65.3452 63.8256 63.8444 67.0132 67.4381C89.4142 70.857 90.8258 63.389 99.1159 63.6179L99.1583 63.6175C100.982 63.5888 101.92 61.4627 100.82 60.0457C98.1045 56.547 95.1111 51.1483 97.944 47.7495C102.963 41.7283 98.54 29.3808 96.3769 32.0503C96.3769 21.7536 83.3497 15.0012 78.2964 16.6742C68.959 19.7655 60.3118 23.9348 59.2645 33.2637C59.101 34.7204 58.8895 36.1687 58.6207 37.6105C58.0747 40.5385 55.8259 41.316 56.5999 44.1915L59.0198 46.5876C60.1555 50.8075 59.7967 55.2376 58.2409 59.3286C57.3809 61.59 57.2617 63.5288 59.7048 65.3384V65.3385Z" fill="black"/>
<path d="M83.0259 51.5201C90.7808 51.5201 97.0673 45.4009 97.0673 37.8524C97.0673 30.304 90.7808 24.1848 83.0259 24.1848C75.271 24.1848 68.9844 30.304 68.9844 37.8524C68.9844 45.4009 75.271 51.5201 83.0259 51.5201Z" fill="#A0616A"/>
<path d="M61.1553 349.433L68.3864 349.599L72.4172 317.977L61.7458 317.731L61.1553 349.433Z" fill="#A0616A"/>
<path d="M85.9638 364.117C85.9638 365.306 85.0969 366.27 84.0275 366.27H69.6743C69.6743 366.27 68.2618 360.743 62.5029 358.365L62.1055 366.27H54.7012L55.5983 353.559C55.5983 353.559 53.6176 346.758 57.7311 343.282C61.8446 339.806 58.5128 340.29 58.5128 340.29L60.131 332.423L71.3197 333.704L71.4019 346.053L76.8317 358.311L84.7959 362.14C85.5048 362.481 85.9637 363.258 85.9637 364.116L85.9638 364.117H85.9637H85.9638Z" fill="#D21B1B"/>
<path d="M69.1045 320.743L74.8481 325.022L97.2378 301.777L88.7621 295.461L69.1045 320.743Z" fill="#A0616A"/>
<path d="M80.2709 346.831C79.5515 347.792 78.2677 348.074 77.4034 347.461L65.8033 339.234C65.8033 339.234 68.0055 333.957 64.7902 328.734L59.6863 334.895L53.7021 330.65L62.1176 320.892C62.1176 320.892 64.6312 314.261 70.0589 313.809C75.4866 313.358 72.5011 311.839 72.5011 311.839L78.5687 306.408L86.8364 313.857L79.4312 323.885L76.4031 336.905L80.5228 344.565C80.8894 345.247 80.7904 346.137 80.2709 346.831L80.271 346.831H80.2709Z" fill="#D21B1B"/>
<path d="M48.4147 187.746C48.8507 189.486 48.0476 197.584 48.4966 200.37C49.6383 207.454 60.0697 246.08 58.2702 257.091C51.6769 297.435 60.7957 323.317 60.7957 323.317H75.5055L83.3507 201.136L91.0075 210.96L105.99 254.517L79.4868 300.899L93.3253 312.024L134.644 248.078L105.283 141.109L103.509 134.65L63.8387 133.573L66.046 136.792L61.0246 141.622C61.0246 141.622 61.0179 141.635 60.9913 141.661C60.2178 142.712 43.0266 166.254 48.4147 187.746V187.746L48.4147 187.746Z" fill="#2A0F0F"/>
<path d="M60.9912 141.661C65.5858 143.257 96.6338 141.609 105.283 141.109L103.509 134.65L63.8386 133.573L66.0459 136.792L61.0246 141.622C61.0246 141.622 61.0179 141.635 60.9912 141.661V141.661H60.9912Z" fill="#A0616A"/>
<path d="M112.339 89.9372L110.91 97.3174L110.564 99.0875L102.964 114.272L103.962 136.532C104.602 139.137 77.6154 133.225 63.5962 139.333L52.6836 88.5324L63.7487 65.1183L72.4083 60.4354L73.8516 54.816H92.1957C93.1727 59.2694 92.1136 61.4638 90.2151 62.7267L94.8103 74.6553L112.339 89.9373V89.9372L112.339 89.9372Z" fill="#DF3131"/>
<path d="M126.686 46.4081C126.459 48.3193 125.807 50.0221 124.907 51.3059L123.925 69.6456L114.974 68.9357L116.933 50.4083C116.357 48.9584 116.122 47.1558 116.349 45.2446C116.868 40.8784 119.602 37.5995 122.457 37.9208C125.311 38.2421 127.205 42.0419 126.686 46.4081L126.686 46.4081V46.4081Z" fill="#A0616A"/>
<path d="M91.0078 65.6814L92.1756 68.4557C92.1756 68.4557 75.1121 66.7918 75.4765 75.4638C75.7873 82.8628 107.906 112.186 109.441 112.871V112.871C113.986 114.899 119.269 112.17 120.091 107.369C127.323 89.2071 128.822 72.8326 125.518 57.9558H115.711L112.518 69.6918L112.338 78.619L107.167 89.3561L90.2143 68.4558L91.0078 65.6814V65.6814Z" fill="#DF3131"/>
<path d="M34.1571 167.62C34.7876 165.75 34.9319 163.897 34.6608 162.329L41.823 144.884L33.1954 141.81L26.8589 159.837C25.6859 160.943 24.6738 162.52 24.0433 164.39C22.6029 168.661 23.6994 172.848 26.4922 173.74C29.2851 174.632 32.7168 171.892 34.1571 167.62V167.62Z" fill="#A0616A"/>
<path d="M75.4713 65.6905C75.4713 65.6905 64.8777 61.7805 58.8639 66.5582C56.3838 68.5285 45.4155 82.1052 43.7259 100.383C43.5935 101.816 42.5909 103.048 42.0261 104.388C38.5429 112.65 32.5463 116.456 29.9964 123.522C29 126.284 30.8276 133.426 30.198 135.808C26.9012 148.283 28.0909 155.396 28.0909 155.396L36.9937 158.281L41.8231 154.958L49.7553 126.763L75.4713 65.6904L75.4713 65.6905Z" fill="#DF3131"/>
<path d="M155.15 44.1909H122.081C120.028 44.1909 118.357 42.5651 118.357 40.5666C113.985 28.1273 114.071 15.9385 118.357 3.98568C118.357 1.98718 120.028 0.361328 122.081 0.361328H155.15C157.203 0.361328 158.873 1.98718 158.873 3.98568V40.5666C158.873 42.5651 157.203 44.1909 155.15 44.1909Z" fill="#D9D9D9"/>
<path d="M129.166 1.43982C123.809 1.43982 119.467 5.66676 119.467 10.8809V39.789C119.467 41.623 120.994 43.1096 122.878 43.1096H141.165C150.332 43.1096 157.764 35.8761 157.764 26.9531V4.76041C157.764 2.92651 156.236 1.43982 154.352 1.43982H129.166Z" fill="white"/>
<path d="M146.317 12.0734H130.835C130.445 12.0734 130.127 11.7643 130.127 11.3844C130.127 11.0044 130.445 10.6954 130.835 10.6954H146.317C146.708 10.6954 147.025 11.0044 147.025 11.3844C147.025 11.7643 146.708 12.0734 146.317 12.0734Z" fill="#D9D9D9"/>
<path d="M146.317 26.7674H130.835C130.445 26.7674 130.127 26.4583 130.127 26.0783C130.127 25.6984 130.445 25.3894 130.835 25.3894H146.317C146.708 25.3894 147.025 25.6984 147.025 26.0783C147.025 26.4583 146.708 26.7674 146.317 26.7674Z" fill="#D9D9D9"/>
<path d="M154.625 19.4238H122.526C122.136 19.4238 121.818 19.1146 121.818 18.7347C121.818 18.3548 122.136 18.0458 122.526 18.0458H154.625C155.015 18.0458 155.333 18.3548 155.333 18.7347C155.333 19.1146 155.015 19.4238 154.625 19.4238Z" fill="#D9D9D9"/>
<path d="M155.002 32.7392H141.608C141.218 32.7392 140.9 32.4301 140.9 32.0501C140.9 31.6702 141.218 31.3612 141.608 31.3612H155.002C155.392 31.3612 155.71 31.6702 155.71 32.0501C155.71 32.4301 155.392 32.7392 155.002 32.7392Z" fill="#D9D9D9"/>
<path d="M164.668 350.524C166.694 350.648 167.814 348.197 166.281 346.77L166.129 346.179C166.149 346.132 166.169 346.085 166.189 346.038C168.238 341.282 175.182 341.315 177.213 346.078C179.016 350.305 181.312 354.539 181.877 359.008C182.13 360.981 182.016 362.991 181.566 364.926C185.791 355.944 188.014 346.135 188.014 336.27C188.014 333.792 187.875 331.313 187.59 328.841C187.356 326.819 187.033 324.809 186.614 322.818C184.353 312.053 179.457 301.8 172.395 293.237C169 291.431 166.169 288.607 164.459 285.222C163.844 284.001 163.363 282.688 163.135 281.35C163.521 281.4 164.592 275.672 164.3 275.321C164.839 274.525 165.802 274.13 166.39 273.354C169.315 269.495 173.344 270.168 175.448 275.413C179.941 277.621 179.985 281.282 177.228 284.803C175.474 287.043 175.233 290.074 173.693 292.472C173.852 292.67 174.016 292.861 174.175 293.058C177.079 296.683 179.59 300.58 181.707 304.674C181.109 300.124 181.992 294.643 183.498 291.11C185.213 287.084 188.426 283.694 191.256 280.214C194.655 276.034 201.624 277.858 202.223 283.157C202.229 283.208 202.235 283.26 202.24 283.311C201.82 283.542 201.408 283.787 201.006 284.046C198.712 285.523 199.505 288.984 202.223 289.393L202.285 289.402C202.133 290.876 201.873 292.337 201.493 293.773C205.123 307.438 197.286 312.415 186.095 312.639C185.848 312.762 185.607 312.886 185.36 313.003C186.494 316.11 187.4 319.297 188.071 322.528C188.673 325.383 189.091 328.268 189.325 331.166C189.617 334.821 189.591 338.496 189.275 342.146L189.294 342.016C190.098 337.997 192.34 334.242 195.596 331.64C200.446 327.762 207.298 326.334 212.53 323.217C215.049 321.717 218.276 323.656 217.837 326.498L217.815 326.634C217.036 326.942 216.276 327.3 215.541 327.701C215.121 327.932 214.709 328.177 214.307 328.436C212.013 329.913 212.806 333.374 215.524 333.783L215.586 333.792C215.63 333.798 215.668 333.804 215.712 333.811C214.376 336.899 212.514 339.766 210.183 342.238C207.913 354.167 198.164 355.299 187.736 351.825H187.729C186.589 356.659 184.923 361.381 182.783 365.882H165.111C165.048 365.691 164.991 365.494 164.934 365.302C166.568 365.401 168.215 365.309 169.823 365.019C168.512 363.453 167.201 361.875 165.89 360.309C165.858 360.278 165.833 360.247 165.808 360.216C165.143 359.415 164.471 358.619 163.806 357.818L163.806 357.817C163.764 355.357 164.067 352.904 164.668 350.524L164.668 350.524V350.524V350.524Z" fill="#A7F3D0"/>
<path d="M0.359375 367.359C0.359375 367.989 0.879149 368.495 1.52641 368.495H215.592C216.24 368.495 216.759 367.989 216.759 367.359C216.759 366.729 216.24 366.223 215.592 366.223H1.52641C0.879149 366.223 0.359375 366.729 0.359375 367.359Z" fill="#CCCCCC"/>
<path d="M86.8326 21.6835H83.974C75.611 21.6926 61.3165 33.2065 66.8478 41.2824C62.1246 53.5455 61.9524 59.926 63.9574 63.2653C64.6955 64.4946 66.1609 65.0546 67.62 64.9549C67.8146 64.9416 68.0104 64.9375 68.2077 64.9439C69.6214 64.9894 71.5175 71.4577 72.8333 71.955L76.3262 70.9215L82.0554 65.349L79.1483 56.8498L73.5231 52.5659L74.2895 42.6446C70.5245 34.2217 74.6206 33.8094 76.9257 31.0923L77.1589 39.8092L80.4603 36.708C83.1493 36.7759 86.2919 37.9106 88.381 35.5503C92.1758 31.2288 96.1098 36.4464 100.592 37.501L101.982 36.4297C102.03 33.9994 101.661 31.6529 100.944 29.5518C100.606 28.5627 99.7436 27.7476 99.7074 26.7644C99.5714 23.0747 92.4072 19.4958 86.8327 21.6834H86.8326V21.6835Z" fill="black"/>
</svg>
