<svg width="40" height="40" viewBox="0 0 40 40" fill="none" xmlns="http://www.w3.org/2000/svg">
<path d="M26.079 11.7374L26.0799 11.7377C26.6103 11.9439 27.0029 12.1995 27.4023 12.5989C27.8018 12.9985 28.0561 13.3898 28.2622 13.921C28.4195 14.3233 28.5933 14.9072 28.6395 15.9363C28.6888 17.0013 28.6987 17.3273 28.6987 19.9975C28.6987 22.6677 28.6888 22.9949 28.6395 24.0599L26.079 11.7374ZM26.079 11.7374C25.6777 11.5823 25.0946 11.4068 24.064 11.3605C22.9985 11.3112 22.6725 11.3025 20.0013 11.3025H19.6038V11.2997L19.1034 11.3C17.2348 11.3013 16.8693 11.3138 15.937 11.3568L15.9369 11.3568C14.9075 11.4043 14.3253 11.5782 13.9225 11.7353C13.3912 11.9413 12.9998 12.1956 12.6002 12.5952C12.2008 12.9946 11.9452 13.3871 11.7391 13.9173C11.5819 14.3202 11.408 14.9038 11.3605 15.9332L11.3605 15.9337M26.079 11.7374L11.3605 15.9337M24.0643 28.6345L24.0638 28.6345C22.9988 28.6825 22.6738 28.6938 20.0013 28.6938C17.3287 28.6938 17.0024 28.6825 15.9375 28.6345L15.9369 28.6345C14.9108 28.5871 14.329 28.4142 13.9264 28.2575C13.426 28.0723 12.9731 27.7782 12.6004 27.3964C12.2175 27.0238 11.9223 26.5706 11.7362 26.0698C11.5812 25.6693 11.4066 25.0863 11.3605 24.0588L24.0643 28.6345ZM24.0643 28.6345C25.094 28.587 25.6779 28.4134 26.0794 28.2558M24.0643 28.6345L28.264 26.0704M11.3605 15.9337C11.3125 16.9989 11.3025 17.3229 11.3025 19.995C11.3025 22.6683 11.3125 22.9935 11.3605 24.0587L11.3605 15.9337ZM28.264 26.0704C28.0781 26.5723 27.7823 27.0262 27.3982 27.3989C26.9997 27.7967 26.6091 28.0502 26.0794 28.2558M28.264 26.0704C28.4187 25.6695 28.5933 25.0881 28.6395 24.0606L28.264 26.0704ZM26.0794 28.2558C26.079 28.2559 26.0786 28.256 26.0782 28.2562L25.8975 27.79M26.0794 28.2558C26.0797 28.2556 26.08 28.2555 26.0803 28.2554L25.8975 27.79M25.8975 27.79C25.5475 27.9275 25.0175 28.09 24.0413 28.135M25.8975 27.79C26.365 27.6088 26.6975 27.3925 27.0475 27.0425C27.38 26.7205 27.6359 26.3279 27.7963 25.8938L24.0413 28.135M24.0413 28.135C22.9875 28.1825 22.6713 28.1938 20.0013 28.1938C17.3313 28.1938 17.0138 28.1825 15.96 28.135H24.0413ZM15.9016 10.5595C16.9562 10.5125 17.2894 10.5 19.9975 10.5L29.94 15.8763C29.9875 16.9438 30 17.2838 30 20C30 22.7163 29.9875 23.0563 29.94 24.1225L29.4405 24.0991C29.4405 24.0991 29.4405 24.0991 29.4405 24.0991C29.3928 25.1166 29.2334 25.7888 29.0091 26.3686C28.776 26.9666 28.4713 27.4641 27.9677 27.9677L27.9642 27.9712C27.5162 28.428 26.9739 28.7816 26.375 29.0071L26.375 29.007L26.37 29.009C25.7911 29.2342 25.1169 29.3927 24.0997 29.4405C23.0435 29.4875 22.7129 29.5 20 29.5C17.287 29.5 16.9552 29.4875 15.8989 29.4405C14.8815 29.3939 14.2107 29.2345 13.6297 29.0089L13.6295 29.0088C13.0325 28.7773 12.5352 28.4717 12.0327 27.9681L12.0323 27.9677C11.5287 27.4641 11.224 26.9665 10.9909 26.3684C10.7657 25.7895 10.6073 25.1178 10.5595 24.0997C10.5125 23.0447 10.5 22.7129 10.5 20.0013C10.5 17.287 10.5125 16.9552 10.5595 15.8976C10.6061 14.8824 10.7656 14.2095 10.9909 13.6316L10.9909 13.6316L10.9929 13.6263C11.2187 13.027 11.5723 12.4842 12.0291 12.0355L12.0292 12.0355L12.0357 12.0289C12.484 11.5719 13.0268 11.2184 13.626 10.993L13.626 10.993L13.6313 10.991C14.2102 10.7658 14.882 10.6073 15.9016 10.5595ZM29.0088 13.6308C29.2331 14.2092 29.3927 14.8825 29.4405 15.8991L20 10.5C20.0004 10.5 20.0008 10.5 20.0013 10.5C22.7121 10.5 23.0428 10.5125 24.0987 10.5595C25.115 10.6061 25.7882 10.7656 26.369 10.9911L26.369 10.9911L26.3741 10.993C26.9734 11.2182 27.5161 11.5717 27.9642 12.0288L27.9642 12.0289L27.9709 12.0355C28.4278 12.4842 28.7814 13.027 29.0071 13.6263L29.0071 13.6263L29.0088 13.6308ZM25.0709 14.0158C25.1558 13.9806 25.2468 13.9625 25.3387 13.9625C25.5244 13.9625 25.7024 14.0362 25.8337 14.1675C25.965 14.2988 26.0387 14.4768 26.0387 14.6625C26.0387 14.8482 25.965 15.0262 25.8337 15.1575C25.7024 15.2888 25.5244 15.3625 25.3387 15.3625C25.2468 15.3625 25.1558 15.3444 25.0709 15.3092C24.9859 15.274 24.9088 15.2225 24.8438 15.1575C24.7788 15.0925 24.7272 15.0153 24.692 14.9304C24.6569 14.8455 24.6388 14.7544 24.6388 14.6625C24.6388 14.5706 24.6569 14.4795 24.692 14.3946C24.7272 14.3097 24.7788 14.2325 24.8438 14.1675C24.9088 14.1025 24.9859 14.051 25.0709 14.0158ZM18.1971 15.6968C18.768 15.4682 19.3786 15.3553 19.9935 15.3649C21.2104 15.3839 22.3711 15.8807 23.2249 16.748C24.0788 17.6153 24.5574 18.7835 24.5574 20.0006C24.5574 21.2177 24.0788 22.386 23.2249 23.2533C22.3711 24.1206 21.2104 24.6173 19.9935 24.6363C19.3786 24.6459 18.768 24.5331 18.1971 24.3044C17.6263 24.0758 17.1067 23.7358 16.6685 23.3044C16.2303 22.873 15.8823 22.3587 15.6447 21.7915C15.4072 21.2243 15.2849 20.6156 15.2849 20.0006C15.2849 19.3857 15.4072 18.7769 15.6447 18.2097C15.8823 17.6425 16.2303 17.1282 16.6685 16.6968C17.1067 16.2654 17.6263 15.9255 18.1971 15.6968ZM22.7121 17.2891C21.9932 16.5702 21.018 16.1663 20.0013 16.1663C18.9845 16.1663 18.0093 16.5702 17.2904 17.2891C16.5714 18.0081 16.1675 18.9832 16.1675 20C16.1675 21.0168 16.5714 21.9919 17.2904 22.7109C18.0093 23.4298 18.9845 23.8337 20.0013 23.8337C21.018 23.8337 21.9932 23.4298 22.7121 22.7109C23.4311 21.9919 23.835 21.0168 23.835 20C23.835 18.9832 23.4311 18.0081 22.7121 17.2891Z" fill="#D21B1B" stroke="#D21B1B"/>
<circle cx="20" cy="20" r="19.5" stroke="#D21B1B"/>
</svg>
