<svg width="100" height="78" viewBox="0 0 100 78" fill="none" xmlns="http://www.w3.org/2000/svg">
<path d="M94.137 0.00942831C84.623 0.549368 65.713 2.51468 54.0391 9.66064C53.2336 10.1537 52.777 11.0305 52.777 11.9471V75.1201C52.777 77.1254 54.9697 78.3927 56.8187 77.4622C68.8293 71.4169 86.1994 69.7676 94.7881 69.3162C97.7204 69.1617 100 66.8109 100 63.9932V5.33938C100.002 2.26468 97.335 -0.17113 94.137 0.00942831ZM45.9609 9.66064C34.2888 2.51468 15.3787 0.551104 5.86469 0.00942831C2.66671 -0.17113 0 2.26468 0 5.33938V63.9949C0 66.8144 2.27955 69.1651 5.2119 69.3179C13.8041 69.7693 31.1828 71.4204 43.1935 77.4691C45.0372 78.3979 47.223 77.1323 47.223 75.1323V11.9159C47.223 10.9975 46.7682 10.1554 45.9609 9.66064Z" fill="#E05151"/>
</svg>
