<svg width="100" height="101" viewBox="0 0 100 101" fill="none" xmlns="http://www.w3.org/2000/svg">
<path d="M70.5536 68.6144C70.5536 68.6144 85.1968 54.0736 90.1632 48.9536C105.882 33.5936 98.048 1.95201 98.048 1.95201C98.048 1.95201 66.56 -5.88158 51.2 9.83681C39.2192 21.5104 31.4368 29.6 31.4368 29.6C31.4368 29.6 11.776 25.504 0 37.28L62.72 100.154C74.496 88.224 70.5536 68.6144 70.5536 68.6144ZM62.8736 22.5344C63.8246 21.5823 64.954 20.827 66.1971 20.3117C67.4402 19.7964 68.7727 19.5312 70.1184 19.5312C71.4641 19.5312 72.7966 19.7964 74.0397 20.3117C75.2828 20.827 76.4122 21.5823 77.3632 22.5344C78.7941 23.967 79.7683 25.7916 80.1625 27.7776C80.5566 29.7637 80.3532 31.822 79.5778 33.6925C78.8024 35.5629 77.49 37.1615 75.8062 38.2862C74.1225 39.4109 72.1432 40.0112 70.1184 40.0112C68.0936 40.0112 66.1142 39.4109 64.4305 38.2862C62.7468 37.1615 61.4343 35.5629 60.659 33.6925C59.8836 31.822 59.6801 29.7637 60.0743 27.7776C60.4685 25.7916 61.4426 23.967 62.8736 22.5344ZM5.12 95.0336C14.5975 94.7632 23.6705 91.134 30.72 84.7936L15.36 69.4336C5.12 74.5536 5.12 95.0336 5.12 95.0336Z" fill="#E05151"/>
</svg>
