<svg width="100" height="100" viewBox="0 0 100 100" fill="none" xmlns="http://www.w3.org/2000/svg">
<path d="M50.0011 95.2222C51.7509 95.182 53.4301 94.5241 54.7416 93.3651C56.0532 92.206 56.9126 90.6205 57.1678 88.8889H42.5566C42.8191 90.6676 43.7187 92.2903 45.088 93.4553C46.4574 94.6203 48.2034 95.2482 50.0011 95.2222V95.2222Z" fill="#E05151"/>
<path d="M91.2495 78.1385L90.305 77.3052C87.6257 74.918 85.2805 72.1803 83.3328 69.1663C81.2056 65.0067 79.9307 60.4641 79.5828 55.8052V42.083C79.5715 40.4162 79.4229 38.7531 79.1384 37.1107C74.4331 36.1436 70.2066 33.5802 67.1745 29.8546C64.1423 26.1289 62.4908 21.4699 62.4995 16.6663V14.9163C59.5992 13.489 56.4833 12.5505 53.2772 12.1385V8.63851C53.2772 7.655 52.8865 6.71177 52.1911 6.01632C51.4956 5.32087 50.5524 4.93018 49.5689 4.93018C48.5854 4.93018 47.6422 5.32087 46.9467 6.01632C46.2513 6.71177 45.8606 7.655 45.8606 8.63851V12.2774C38.682 13.29 32.1122 16.8656 27.364 22.3439C22.6158 27.8222 20.0098 34.8333 20.0272 42.083V55.8052C19.6793 60.4641 18.4044 65.0067 16.2772 69.1663C14.363 72.1728 12.0556 74.91 9.41612 77.3052L8.47168 78.1385V85.9718H91.2495V78.1385Z" fill="#E05151"/>
<path d="M83.3332 30.5556C91.0038 30.5556 97.2221 24.3373 97.2221 16.6667C97.2221 8.9961 91.0038 2.77783 83.3332 2.77783C75.6626 2.77783 69.4443 8.9961 69.4443 16.6667C69.4443 24.3373 75.6626 30.5556 83.3332 30.5556Z" fill="#E05151"/>
</svg>
