<svg width="150" height="105" viewBox="0 0 150 105" fill="none" xmlns="http://www.w3.org/2000/svg">
<path d="M22.5 45C30.7734 45 37.5 38.2734 37.5 30C37.5 21.7266 30.7734 15 22.5 15C14.2266 15 7.5 21.7266 7.5 30C7.5 38.2734 14.2266 45 22.5 45ZM127.5 45C135.773 45 142.5 38.2734 142.5 30C142.5 21.7266 135.773 15 127.5 15C119.227 15 112.5 21.7266 112.5 30C112.5 38.2734 119.227 45 127.5 45ZM135 52.5H120C115.875 52.5 112.148 54.1641 109.43 56.8594C118.875 62.0391 125.578 71.3906 127.031 82.5H142.5C146.648 82.5 150 79.1484 150 75V67.5C150 59.2266 143.273 52.5 135 52.5ZM75 52.5C89.5078 52.5 101.25 40.7578 101.25 26.25C101.25 11.7422 89.5078 0 75 0C60.4922 0 48.75 11.7422 48.75 26.25C48.75 40.7578 60.4922 52.5 75 52.5ZM93 60H91.0547C86.1797 62.3438 80.7656 63.75 75 63.75C69.2344 63.75 63.8438 62.3438 58.9453 60H57C42.0938 60 30 72.0938 30 87V93.75C30 99.9609 35.0391 105 41.25 105H108.75C114.961 105 120 99.9609 120 93.75V87C120 72.0938 107.906 60 93 60ZM40.5703 56.8594C37.8516 54.1641 34.125 52.5 30 52.5H15C6.72656 52.5 0 59.2266 0 67.5V75C0 79.1484 3.35156 82.5 7.5 82.5H22.9453C24.4219 71.3906 31.125 62.0391 40.5703 56.8594Z" fill="#E05151"/>
</svg>
