<svg width="30" height="30" viewBox="0 0 30 30" fill="none" xmlns="http://www.w3.org/2000/svg">
<path d="M28.7377 11.5501L28.3777 11.1901C28.6106 10.7062 28.6904 10.1627 28.6066 9.63226C28.5228 9.10179 28.2793 8.60946 27.9085 8.22091C27.6556 7.96918 27.3518 7.7743 27.0176 7.64927C26.6833 7.52425 26.3262 7.47197 25.9702 7.49591C25.6356 7.51548 25.307 7.5936 24.9994 7.72675V1.66675H1.66602V28.3334H24.9994V14.8501L27.5744 12.2751L27.7944 12.4942C27.8231 12.523 27.8459 12.5571 27.8615 12.5946C27.877 12.6321 27.885 12.6724 27.885 12.713C27.885 12.7536 27.877 12.7939 27.8615 12.8314C27.8459 12.8689 27.8231 12.903 27.7944 12.9317L25.8335 14.8934C25.7084 15.0184 25.6381 15.188 25.638 15.3648C25.6379 15.5416 25.7081 15.7112 25.8331 15.8363C25.9581 15.9614 26.1276 16.0317 26.3045 16.0318C26.4813 16.0319 26.6509 15.9617 26.776 15.8367L28.7377 13.8751C29.0458 13.5666 29.2188 13.1485 29.2188 12.7126C29.2188 12.2766 29.0458 11.8585 28.7377 11.5501V11.5501ZM6.66602 6.83341H20.001V8.16675H6.66602V6.83341ZM6.66602 10.1667H20.001V11.5001H6.66602V10.1667ZM6.66602 13.5001H15.416V14.8334H6.66602V13.5001ZM18.9919 24.9134H12.4893C11.7377 24.9134 11.0343 24.8417 10.661 24.2267C10.2785 23.5976 10.6585 22.8667 10.936 22.3317C10.9852 22.2376 10.876 22.1209 10.751 22.2501C10.3843 22.6267 9.80102 23.3051 9.33185 23.8501C8.83602 24.4267 8.63935 24.6526 8.53435 24.7476C8.42326 24.8766 8.27238 24.965 8.1055 24.9988C7.93861 25.0326 7.76523 25.0099 7.61268 24.9342C7.47573 24.8552 7.36843 24.7334 7.30719 24.5876C7.24594 24.4418 7.23412 24.2799 7.27352 24.1267C7.30852 23.9184 7.90352 21.6001 8.44268 19.5159C7.72602 20.7884 5.45102 24.5992 5.34435 24.7784C5.26501 24.9114 5.1361 25.0073 4.98599 25.0452C4.83589 25.0831 4.67687 25.0598 4.54393 24.9805C4.41099 24.9012 4.31502 24.7723 4.27712 24.6221C4.23922 24.472 4.26251 24.313 4.34185 24.1801C4.37102 24.1326 7.22102 19.3567 7.58018 18.6634C7.69727 18.3863 7.91519 18.1639 8.18991 18.0412C8.46463 17.9186 8.77567 17.9048 9.06018 18.0026C9.317 18.107 9.5247 18.3048 9.64145 18.5563C9.7582 18.8077 9.77532 19.094 9.68935 19.3576C9.38935 20.5142 9.08352 21.7009 8.84768 22.6242C9.22852 22.1842 9.62685 21.7326 9.91435 21.4367C10.1356 21.1707 10.438 20.9846 10.7751 20.9068C11.1122 20.829 11.4656 20.8638 11.781 21.0059C11.977 21.1057 12.134 21.2682 12.2271 21.4675C12.3201 21.6669 12.3438 21.8916 12.2943 22.1059C12.2148 22.3714 12.1063 22.6274 11.971 22.8692C11.7485 23.3317 11.8543 23.7459 12.4893 23.7459H18.9919C19.1466 23.7459 19.2949 23.8074 19.4043 23.9168C19.5137 24.0262 19.5752 24.1745 19.5752 24.3292C19.5752 24.484 19.5137 24.6323 19.4043 24.7417C19.2949 24.8511 19.1466 24.9126 18.9919 24.9126V24.9134ZM17.2585 20.7051L15.0885 21.2776C15.0569 21.2865 15.0235 21.2868 14.9918 21.2783C14.9602 21.2697 14.9314 21.2528 14.9085 21.2292C14.8846 21.2067 14.8673 21.1779 14.8587 21.1462C14.85 21.1144 14.8502 21.0809 14.8594 21.0492L15.4127 18.8834L20.9044 13.3917L22.7377 15.2251L17.2585 20.7051ZM26.8135 11.1492L23.6802 14.2826L21.8468 12.4492L24.9802 9.31591C25.2604 9.0278 25.6375 8.85381 26.0385 8.82758L26.1135 8.82508C26.2709 8.82227 26.4272 8.85081 26.5735 8.90904C26.7197 8.96727 26.8528 9.05403 26.9652 9.16425C27.206 9.44857 27.3252 9.81634 27.2968 10.1879C27.2684 10.5594 27.0948 10.9048 26.8135 11.1492V11.1492Z" fill="#BF0C0C"/>
</svg>
