<svg xmlns="http://www.w3.org/2000/svg" width="71" height="71" viewBox="0 0 71 71" fill="none">
  <g clip-path="url(#clip0_4004_27046)">
    <path d="M35.5823 16.9053H23.2782C22.1456 16.9053 21.2275 17.8235 21.2275 18.9559C21.2275 20.0884 22.1457 21.0066 23.2782 21.0066H35.5823C36.7149 21.0066 37.633 20.0884 37.633 18.9559C37.633 17.8235 36.7148 16.9053 35.5823 16.9053Z" fill="#6A6A6A" fill-opacity="0.9"/>
    <path d="M68.3166 15.4919C65.1103 12.2856 59.895 12.2859 56.689 15.4919C55.8774 16.3035 55.0408 17.1393 54.1873 17.9918V6.65361C54.1873 3.26134 51.4398 0.501537 48.0626 0.501537H15.1443C15.0594 0.498666 14.9746 0.501811 14.8904 0.509467C14.2915 0.554721 13.7657 0.856323 13.4206 1.30572L1.62729 13.1255C1.08041 13.4938 0.720703 14.1185 0.720703 14.8273V64.3199C0.720703 67.6842 3.46766 70.4563 6.84406 70.4992C6.85281 70.4993 6.86143 70.4993 6.87018 70.4993L48.0624 70.4985C48.0702 70.4985 48.078 70.4985 48.0858 70.4984C51.4461 70.46 54.1872 67.7663 54.1872 64.349V41.1279C59.128 36.1933 64.0239 31.303 68.3166 27.0105C71.5213 23.8058 71.523 18.6981 68.3166 15.4919ZM13.0248 7.50906V12.8084L7.72549 12.8202L13.0248 7.50906ZM50.086 64.349C50.0859 65.4815 49.1915 66.3793 48.0482 66.3971L6.88576 66.3979C5.74689 66.3777 4.82227 65.4477 4.82227 64.3199V16.9072H15.0803C16.2111 16.9048 17.1264 15.9855 17.1264 14.8548V4.60296H48.0627C49.1785 4.60296 50.086 5.52294 50.086 6.65361V22.0845C48.5537 23.6126 46.9899 25.1712 45.4198 26.7358C45.1345 25.9465 44.3806 25.3813 43.493 25.3813H10.9742C9.84162 25.3813 8.92355 26.2995 8.92355 27.432C8.92355 28.5646 9.84176 29.4826 10.9742 29.4826H42.6625C41.3862 30.7541 39.8094 32.3247 38.5455 33.5841H10.9742C9.84162 33.5841 8.92355 34.5023 8.92355 35.6347C8.92355 36.7673 9.84176 37.6853 10.9742 37.6853H34.4297C33.0354 39.0751 31.6585 40.4482 30.317 41.7868H10.9742C9.84162 41.7868 8.92355 42.705 8.92355 43.8374C8.92355 44.9699 9.84176 45.8881 10.9742 45.8881H26.2105C25.7998 46.2986 25.5017 46.5427 25.3246 47.0958L24.3983 49.9895H10.9742C9.84162 49.9895 8.92355 50.9077 8.92355 52.0401C8.92355 53.1727 9.84176 54.0908 10.9742 54.0908H23.0856L21.3253 59.5903C20.8234 61.1582 22.2877 62.6516 23.8654 62.1803L36.5652 58.3859C36.8912 58.2886 37.1877 58.1117 37.4283 57.871C41.2846 54.0148 45.6409 49.6631 50.0862 45.2235V64.349H50.086ZM28.1841 51.6164L32.029 55.4614L26.4167 57.1381C26.8278 55.8532 27.7713 52.9057 28.1841 51.6164ZM35.9338 53.5659L30.1338 47.7659C37.1193 40.7861 45.5681 32.3826 53.108 24.8629L58.8843 30.6391C51.8236 37.6934 42.7746 46.727 35.9338 53.5659ZM65.4167 24.1103C64.2473 25.2796 63.0333 26.4933 61.7856 27.7403L56.0115 21.9662C57.2417 20.7382 58.4393 19.5421 59.5892 18.3921C61.1926 16.7888 63.8137 16.7891 65.4167 18.3921C67.0184 19.9938 67.0196 22.5071 65.4167 24.1103Z" fill="#6A6A6A" fill-opacity="0.9"/>
  </g>
  <defs>
    <clipPath id="clip0_4004_27046">
      <rect width="70" height="70" fill="white" transform="translate(0.720703 0.5)"/>
    </clipPath>
  </defs>
</svg>