<svg xmlns="http://www.w3.org/2000/svg" width="71" height="71" viewBox="0 0 71 71" fill="none">
  <g clip-path="url(#clip0_4004_27032)">
    <path d="M40.3618 26.753C41.0191 25.7741 41.4033 24.5972 41.4033 23.332C41.4033 19.9396 38.6434 17.1797 35.251 17.1797C31.8586 17.1797 29.0986 19.9396 29.0986 23.332C29.0986 24.5972 29.4828 25.7741 30.1402 26.753C27.0696 28.5265 24.9971 31.843 24.9971 35.6367C24.9971 36.7693 25.9153 37.6875 27.0479 37.6875H43.4541C44.5867 37.6875 45.5049 36.7693 45.5049 35.6367C45.5049 31.843 43.4324 28.5265 40.3618 26.753ZM35.251 21.2812C36.3818 21.2812 37.3018 22.2012 37.3018 23.332C37.3018 24.4628 36.3818 25.3828 35.251 25.3828C34.1202 25.3828 33.2002 24.4628 33.2002 23.332C33.2002 22.2012 34.1202 21.2812 35.251 21.2812ZM29.45 33.5859C30.2963 31.1987 32.5772 29.4844 35.251 29.4844C37.9248 29.4844 40.2055 31.1987 41.052 33.5859H29.45Z" fill="#6A6A6A" fill-opacity="0.9"/>
    <path d="M63.9619 58.1953H6.54004C3.14764 58.1953 0.387695 60.9553 0.387695 64.3477C0.387695 67.7401 3.14764 70.5 6.54004 70.5H63.9619C67.3543 70.5 70.1143 67.7401 70.1143 64.3477C70.1143 60.9553 67.3543 58.1953 63.9619 58.1953ZM18.8447 66.3984H6.54004C5.40924 66.3984 4.48926 65.4785 4.48926 64.3477C4.48926 63.2169 5.40924 62.2969 6.54004 62.2969H18.8447C19.9755 62.2969 20.8955 63.2169 20.8955 64.3477C20.8955 65.4785 19.9755 66.3984 18.8447 66.3984ZM63.9619 66.3984H24.6443C25.1008 65.1111 25.1285 63.662 24.6443 62.2969H63.9619C65.0927 62.2969 66.0127 63.2169 66.0127 64.3477C66.0127 65.4785 65.0927 66.3984 63.9619 66.3984Z" fill="#6A6A6A" fill-opacity="0.9"/>
    <path d="M64.2354 0.5H47.5557C44.1633 0.5 41.4033 3.25994 41.4033 6.65234V8.70312H29.0986V6.65234C29.0986 3.25994 26.3387 0.5 22.9463 0.5H6.54004C3.14764 0.5 0.387695 3.25994 0.387695 6.65234V27.4336C0.387695 30.826 3.14764 33.5859 6.54004 33.5859H8.59082V39.7383C8.59082 41.575 10.8329 42.4855 12.1132 41.1666L16.7939 36.3441V39.7383C16.7939 43.1307 19.5539 45.8906 22.9463 45.8906H28.6848L33.5447 53.1805C34.3536 54.3941 36.1453 54.399 36.9574 53.1805L41.8172 45.8906H47.5557C50.9481 45.8906 53.708 43.1307 53.708 39.7383V36.3441L58.3887 41.1666C59.6676 42.4841 61.9111 41.5767 61.9111 39.7383V33.5859H64.2354C67.6278 33.5859 70.3877 30.826 70.3877 27.4336V6.65234C70.3877 3.25994 67.6278 0.5 64.2354 0.5ZM16.7939 14.8555V30.4551L12.6924 34.6809V31.5352C12.6924 30.4026 11.7742 29.4844 10.6416 29.4844H6.54004C5.40924 29.4844 4.48926 28.5644 4.48926 27.4336V6.65234C4.48926 5.52154 5.40924 4.60156 6.54004 4.60156H22.9463C24.0771 4.60156 24.9971 5.52154 24.9971 6.65234V8.70312H22.9463C19.5539 8.70312 16.7939 11.4631 16.7939 14.8555ZM49.6064 39.7383C49.6064 40.8691 48.6865 41.7891 47.5557 41.7891H40.7197C40.0339 41.7891 39.3937 42.1317 39.0135 42.7023L35.251 48.3458L31.4885 42.7022C31.1083 42.1317 30.4679 41.7889 29.7822 41.7889H22.9463C21.8155 41.7889 20.8955 40.8689 20.8955 39.7381V14.8555C20.8955 13.7247 21.8155 12.8047 22.9463 12.8047H47.5557C48.6865 12.8047 49.6064 13.7247 49.6064 14.8555V39.7383ZM66.2861 27.4336C66.2861 28.5644 65.3661 29.4844 64.2354 29.4844H59.8604C58.7278 29.4844 57.8096 30.4026 57.8096 31.5352V34.6809L53.708 30.4551V14.8555C53.708 11.4631 50.9481 8.70312 47.5557 8.70312H45.5049V6.65234C45.5049 5.52154 46.4249 4.60156 47.5557 4.60156H64.2354C65.3661 4.60156 66.2861 5.52154 66.2861 6.65234V27.4336Z" fill="#6A6A6A" fill-opacity="0.9"/>
  </g>
  <defs>
    <clipPath id="clip0_4004_27032">
      <rect width="70" height="70" fill="white" transform="translate(0.387695 0.5)"/>
    </clipPath>
  </defs>
</svg>