<svg xmlns="http://www.w3.org/2000/svg" width="70" height="71" viewBox="0 0 70 71" fill="none">
  <g clip-path="url(#clip0_4004_27057)">
    <path d="M53.3203 26.2204V10.7539C53.3203 8.52949 51.8265 5.38004 44.71 3.00783C39.8584 1.39072 33.4481 0.5 26.6602 0.5C19.8722 0.5 13.4619 1.39072 8.61027 3.00783C1.49379 5.38004 0 8.52949 0 10.7539V60.2461C0 62.4705 1.49379 65.62 8.61027 67.9922C13.4619 69.6093 19.8722 70.5 26.6602 70.5C31.3162 70.5 35.8515 70.0752 39.823 69.2713C42.1266 70.0667 44.5975 70.5 47.168 70.5C59.6076 70.5 70 60.4442 70 47.9414C70 37.448 62.7032 28.833 53.3203 26.2204ZM26.6602 4.60156C41.0584 4.60156 49.2188 8.62697 49.2188 10.7539C49.2188 12.9113 40.9793 16.9062 26.6602 16.9062C12.2619 16.9062 4.10156 12.8808 4.10156 10.7539C4.10156 8.59648 12.3411 4.60156 26.6602 4.60156ZM4.10156 16.5063C9.8901 19.9667 19.7539 21.0078 26.6602 21.0078C33.5688 21.0078 43.4428 19.9592 49.2188 16.5063V25.4752C48.5404 25.4149 47.8565 25.3829 47.168 25.3829C40.211 25.3828 33.9804 28.5491 29.8389 33.5154C14.2445 34.2045 4.10156 29.8907 4.10156 27.4336V16.5063ZM4.10156 33.186C10.0198 36.7239 20.1508 37.7226 27.0789 37.6846C25.5005 40.7634 24.6094 44.2503 24.6094 47.9414C24.6094 48.6238 24.6416 49.2986 24.7013 49.9657C11.3924 49.6103 4.10156 45.8405 4.10156 43.8398V33.186ZM4.10156 60.2461V49.5923C9.65098 52.9096 18.9703 53.9833 25.4596 54.0842C26.8317 58.9266 29.7843 63.1113 33.7221 66.0438C17.1608 67.7481 4.10156 63.168 4.10156 60.2461ZM47.168 66.3984C36.9908 66.3984 28.7109 58.1186 28.7109 47.9414C28.7109 37.7642 36.9908 29.4844 47.168 29.4844C57.4325 29.4844 65.8984 37.7083 65.8984 47.9414C65.8984 58.1186 57.496 66.3984 47.168 66.3984Z" fill="#6A6A6A" fill-opacity="0.9"/>
    <path d="M59.1454 42.3898C58.3447 41.5888 57.0461 41.5888 56.2453 42.3898L45.3907 53.2443L38.6376 46.4914C37.8368 45.6905 36.5383 45.6905 35.7374 46.4914C34.9365 47.2923 34.9365 48.5907 35.7374 49.3916L43.9405 57.5947C44.7413 58.3956 46.04 58.3956 46.8407 57.5947L59.1454 45.2901C59.9463 44.4892 59.9463 43.1907 59.1454 42.3898Z" fill="#6A6A6A" fill-opacity="0.9"/>
  </g>
  <defs>
    <clipPath id="clip0_4004_27057">
      <rect width="70" height="70" fill="white" transform="translate(0 0.5)"/>
    </clipPath>
  </defs>
</svg>