<svg width="210" height="250" viewBox="0 0 210 250" fill="none" xmlns="http://www.w3.org/2000/svg">
<g clip-path="url(#clip0_810_79)">
<path d="M167.631 86.3799H147.011V79.5905C147.011 68.2102 156.251 58.9709 167.631 58.9709H167.631V86.3799V86.3799Z" fill="#2F2E41"/>
<path d="M163.06 73.7057L166.605 89.6517L145.83 86.2021L154.296 71.1211L163.06 73.7057Z" fill="#A0616A"/>
<path opacity="0.1" d="M163.06 73.7057L166.605 89.6517L145.83 86.2021L154.296 71.1211L163.06 73.7057Z" fill="black"/>
<path d="M143.143 137.248H163.061V107.77H143.143V137.248Z" fill="#A0616A"/>
<path d="M176.007 161.349L171.625 184.851C171.625 184.851 174.413 201.184 166.048 217.915L160.471 235.044L152.105 233.849C152.105 233.849 157.284 221.102 157.284 215.525C157.284 209.948 158.479 188.437 158.479 188.437L157.882 163.891L176.007 161.349Z" fill="#2F2E41"/>
<path d="M150.911 233.451C150.911 233.451 160.471 229.866 161.268 235.044L160.869 237.434C160.869 237.434 164.455 248.19 159.276 248.987C154.097 249.783 149.317 250.978 148.919 248.588C148.52 246.198 148.527 243.215 149.52 241.121C150.512 239.028 150.911 233.451 150.911 233.451Z" fill="#2F2E41"/>
<path d="M145.851 157.703L143.523 181.497C143.523 181.497 136.303 196.41 139.685 214.807L140.278 232.812L148.646 233.99C148.646 233.99 147.217 220.306 148.768 214.949C150.319 209.592 155.153 188.597 155.153 188.597L162.554 165.186L145.851 157.703V157.703Z" fill="#2F2E41"/>
<path d="M149.905 233.941C149.905 233.941 141.718 227.838 139.513 232.591L139.231 234.997C139.231 234.997 132.796 244.331 137.549 246.537C142.301 248.742 146.561 251.22 147.608 249.035C148.655 246.85 149.479 243.982 149.108 241.695C148.736 239.408 149.905 233.941 149.905 233.941V233.941Z" fill="#2F2E41"/>
<path d="M171.227 123.704C180.596 132.447 181.291 146.28 175.808 162.743C175.808 162.743 158.28 174.693 145.533 159.556L139.159 128.883L171.227 123.704Z" fill="#2F2E41"/>
<path d="M155.492 81.0799L165.45 82.6733L164.654 107.77L175.808 130.077L161.467 137.248C161.467 137.248 150.313 116.135 148.321 102.989C146.329 89.8437 147.525 80.2832 147.525 80.2832L155.492 81.0799Z" fill="#DF3131"/>
<path d="M147.922 81.8768L137.964 83.4702L138.76 108.566L136.37 131.671L141.947 138.045C141.947 138.045 153.101 116.932 155.093 103.786C157.085 90.6406 155.889 81.0801 155.889 81.0801L147.922 81.8768Z" fill="#AE0707"/>
<path d="M159.873 82.4743L162.064 81.8768C162.064 81.8768 169.832 80.8809 171.027 84.0678C172.222 87.2546 171.824 105.977 171.824 105.977C171.824 105.977 173.879 128.956 165.881 129.218C157.882 129.48 159.475 110.359 159.475 110.359L159.873 82.4743Z" fill="#DF3131"/>
<path d="M159.584 78.0825C165.278 78.0825 169.894 73.4666 169.894 67.7727C169.894 62.0787 165.278 57.4629 159.584 57.4629C153.89 57.4629 149.274 62.0787 149.274 67.7727C149.274 73.4666 153.89 78.0825 159.584 78.0825Z" fill="#A0616A"/>
<path d="M146.728 83.2712L144.537 82.6737C144.537 82.6737 136.769 81.6778 135.574 84.8646C134.379 88.0515 134.777 106.774 134.777 106.774C134.777 106.774 132.721 129.753 140.72 130.015C148.719 130.277 147.126 111.156 147.126 111.156L146.728 83.2712Z" fill="#6C63FF"/>
<path d="M153.628 81.9614C151.417 81.4002 148.909 83.7624 148.027 87.239C147.656 88.6229 147.621 90.0756 147.926 91.4756L146.976 95.4274L146.906 95.4238L139.409 113.09C137.666 117.198 137.851 121.914 140.074 125.783C141.396 128.084 143.132 129.631 145.171 128.052C148.553 125.431 150.762 110.425 151.771 101.805L154.103 93.043C155.04 91.9576 155.702 90.6638 156.036 89.2698C156.918 85.7947 155.84 82.5225 153.628 81.9614V81.9614Z" fill="#A0616A"/>
<path d="M139.846 76.1133C140.37 74.5188 141.405 73.1228 141.868 71.5094C142.483 69.3672 143.793 74.1196 143.921 71.8945C144.163 67.6653 150.618 56.7865 154.303 54.6968C157.988 52.6071 160.104 53.2372 163.858 55.1997C163.858 55.1997 165.681 55.3156 167.949 56.4357C170.218 57.5557 172.26 59.3496 173.143 61.7208C173.842 63.6004 173.765 65.6645 173.998 67.6563C174.649 73.2053 177.76 78.4827 177.092 84.0298C176.884 85.7604 176.226 87.5501 174.811 88.568C173.396 89.5859 171.11 89.4752 170.179 88.0018C169.861 87.499 169.726 86.9024 169.454 86.3736C169.182 85.8448 168.689 85.3519 168.095 85.3683C167.201 85.3931 166.746 86.5923 167.098 87.414C167.451 88.2357 168.279 88.7318 169.057 89.1731C167.205 90.0063 164.907 89.7468 163.288 88.5216C161.668 87.2964 160.794 85.1562 161.092 83.1474C161.512 80.3167 165.636 80.9026 166.121 78.0824C166.475 76.0294 167.717 72.5942 167.379 70.5387C167.04 68.4831 165.416 70.972 167.127 69.7843C165.244 70.692 161.217 64.4823 159.246 63.7867C157.274 63.0912 155.603 61.5852 154.707 59.6968C152.616 62.7275 150.777 61.9045 150.028 65.5095C149.279 69.1145 149.972 77.3046 153.055 79.3173C151.821 80.1592 150.837 81.3631 150.258 82.74C149.93 83.5201 149.718 84.3736 149.173 85.0215C148.134 86.2588 146.214 86.3341 144.684 85.8138C142.786 85.1687 141.164 83.7519 140.27 81.9585C139.375 80.1652 139.219 78.017 139.846 76.1134L139.846 76.1133Z" fill="#2F2E41"/>
<path d="M0 249.423C0 249.686 0.211139 249.897 0.474065 249.897H208.53C208.793 249.897 209.004 249.686 209.004 249.423C209.004 249.16 208.793 248.949 208.53 248.949H0.474065C0.211139 248.949 0 249.16 0 249.423Z" fill="#3F3D56"/>
<path d="M135.455 0.398438H53.5266C44.2358 0.398438 36.7041 7.93011 36.7041 17.2209V232.504C36.7041 241.795 44.2358 249.327 53.5265 249.327H135.455C144.746 249.327 152.278 241.795 152.278 232.504V17.2209C152.278 7.93011 144.746 0.398438 135.455 0.398438H135.455Z" fill="white"/>
<path d="M135.455 249.725H53.5265C44.031 249.725 36.3057 242 36.3057 232.504V17.2208C36.3057 7.7253 44.031 0 53.5265 0H135.455C144.951 0 152.676 7.7253 152.676 17.2208V232.504C152.676 242 144.951 249.725 135.455 249.725H135.455ZM53.5265 0.796707C44.4702 0.796707 37.1024 8.1645 37.1024 17.2208V232.504C37.1024 241.56 44.4702 248.928 53.5265 248.928H135.455C144.512 248.928 151.88 241.56 151.88 232.504V17.2208C151.88 8.1645 144.512 0.796707 135.455 0.796707H53.5265Z" fill="#3F3D56"/>
<path d="M29.9341 37.6709C29.2148 37.6709 28.6299 38.2558 28.6299 38.9751V49.4085C28.6299 50.1278 29.2148 50.7127 29.9341 50.7127C30.6533 50.7127 31.2382 50.1278 31.2382 49.4085V38.9751C31.2382 38.2558 30.6533 37.6709 29.9341 37.6709Z" fill="#3F3D56"/>
<path d="M141.39 34.8407H108.459C107.062 34.8407 105.926 33.7043 105.926 32.3076C105.926 30.9108 107.062 29.7744 108.459 29.7744H141.39C142.787 29.7744 143.923 30.9108 143.923 32.3076C143.923 33.7043 142.787 34.8407 141.39 34.8407Z" fill="#E6E6E6"/>
<path d="M110.497 54.761H78.4861C77.6791 54.761 77.0225 54.1044 77.0225 53.2973C77.0225 52.4903 77.6791 51.834 78.4861 51.834H110.497C111.304 51.834 111.96 52.4903 111.96 53.2973C111.96 54.1044 111.304 54.761 110.497 54.761V54.761Z" fill="#E05151"/>
<path d="M31.2004 61.9842C45.4785 61.9842 57.0532 50.6534 57.0532 36.6762C57.0532 22.699 45.4785 11.3682 31.2004 11.3682C16.9223 11.3682 5.34766 22.699 5.34766 36.6762C5.34766 50.6534 16.9223 61.9842 31.2004 61.9842Z" fill="#E05151"/>
<path d="M39.9749 23.9105C36.5331 30.1777 33.0912 36.4449 29.6494 42.7121C27.4558 38.8363 25.2742 34.9537 23.0752 31.0809C22.3158 29.7434 20.2501 30.9464 21.0114 32.2872C23.5606 36.7766 26.0833 41.281 28.6324 45.7704C29.0682 46.538 30.2648 46.5558 30.6962 45.7704C34.477 38.8859 38.2578 32.0014 42.0387 25.1169C42.7795 23.7679 40.7163 22.5605 39.9749 23.9105H39.9749Z" fill="white"/>
<path d="M65.2526 5.83887H46.9771C46.9088 5.83887 46.8535 5.89419 46.8535 5.96244V8.09C46.8535 8.15824 46.9088 8.21357 46.9771 8.21357H65.2526C65.3209 8.21357 65.3762 8.15824 65.3762 8.09V5.96244C65.3762 5.89419 65.3209 5.83887 65.2526 5.83887Z" fill="#E6E6E6"/>
<path d="M126.811 8.21358C127.86 8.21358 128.711 7.36303 128.711 6.31382C128.711 5.26461 127.86 4.41406 126.811 4.41406C125.762 4.41406 124.911 5.26461 124.911 6.31382C124.911 7.36303 125.762 8.21358 126.811 8.21358Z" fill="#E6E6E6"/>
<path d="M132.035 8.21358C133.085 8.21358 133.935 7.36303 133.935 6.31382C133.935 5.26461 133.085 4.41406 132.035 4.41406C130.986 4.41406 130.136 5.26461 130.136 6.31382C130.136 7.36303 130.986 8.21358 132.035 8.21358Z" fill="#E6E6E6"/>
<path d="M137.259 8.21358C138.308 8.21358 139.159 7.36303 139.159 6.31382C139.159 5.26461 138.308 4.41406 137.259 4.41406C136.21 4.41406 135.359 5.26461 135.359 6.31382C135.359 7.36303 136.21 8.21358 137.259 8.21358Z" fill="#E6E6E6"/>
<path d="M53.3271 62.5951C53.3271 62.8581 53.5383 63.0692 53.8012 63.0692H135.181C135.444 63.0692 135.655 62.8581 135.655 62.5951C135.655 62.3322 135.444 62.1211 135.181 62.1211H53.8012C53.5383 62.1211 53.3271 62.3322 53.3271 62.5951V62.5951Z" fill="#3F3D56"/>
<path d="M127.377 99.8538H78.5398C77.7328 99.8538 77.0762 99.1971 77.0762 98.3901C77.0762 97.5831 77.7328 96.9268 78.5398 96.9268H127.377C128.184 96.9268 128.841 97.5831 128.841 98.3901C128.841 99.1971 128.184 99.8538 127.377 99.8538Z" fill="#E05151"/>
<path d="M127.377 120.967H78.5398C77.7328 120.967 77.0762 120.31 77.0762 119.503C77.0762 118.696 77.7328 118.04 78.5398 118.04H127.377C128.184 118.04 128.841 118.696 128.841 119.503C128.841 120.31 128.184 120.967 127.377 120.967V120.967Z" fill="#E05151"/>
<path d="M127.377 142.079H78.5398C77.7328 142.079 77.0762 141.423 77.0762 140.616C77.0762 139.809 77.7328 139.152 78.5398 139.152H127.377C128.184 139.152 128.841 139.809 128.841 140.616C128.841 141.423 128.184 142.079 127.377 142.079V142.079Z" fill="#E05151"/>
<path d="M63.7268 101.794C65.7068 101.794 67.312 100.189 67.312 98.2092C67.312 96.2292 65.7068 94.624 63.7268 94.624C61.7467 94.624 60.1416 96.2292 60.1416 98.2092C60.1416 100.189 61.7467 101.794 63.7268 101.794Z" fill="#E05151"/>
<path d="M63.3281 104.185V103.388C66.2934 103.388 68.7059 100.976 68.7059 98.0104C68.7059 95.0451 66.2934 92.6326 63.3281 92.6326V91.8359C66.7328 91.8359 69.5026 94.6057 69.5026 98.0104C69.5026 101.415 66.7328 104.185 63.3281 104.185Z" fill="#3F3D56"/>
<path d="M63.7268 122.908C65.7068 122.908 67.312 121.303 67.312 119.322C67.312 117.342 65.7068 115.737 63.7268 115.737C61.7467 115.737 60.1416 117.342 60.1416 119.322C60.1416 121.303 61.7467 122.908 63.7268 122.908Z" fill="#E05151"/>
<path d="M63.3281 125.297V124.5C66.2934 124.5 68.7059 122.088 68.7059 119.123C68.7059 116.157 66.2934 113.745 63.3281 113.745V112.948C66.7328 112.948 69.5026 115.718 69.5026 119.123C69.5026 122.527 66.7328 125.297 63.3281 125.297Z" fill="#3F3D56"/>
<path d="M63.7268 144.02C65.7068 144.02 67.312 142.415 67.312 140.435C67.312 138.455 65.7068 136.85 63.7268 136.85C61.7467 136.85 60.1416 138.455 60.1416 140.435C60.1416 142.415 61.7467 144.02 63.7268 144.02Z" fill="#E05151"/>
<path d="M63.3281 146.41V145.614C66.2934 145.614 68.7059 143.201 68.7059 140.236C68.7059 137.271 66.2934 134.858 63.3281 134.858V134.062C66.7328 134.062 69.5026 136.831 69.5026 140.236C69.5026 143.641 66.7328 146.41 63.3281 146.41Z" fill="#3F3D56"/>
<path d="M152.972 81.1645C155.184 80.6034 157.691 82.9656 158.574 86.4421C158.945 87.826 158.98 89.2787 158.674 90.6787L159.625 94.6306L159.695 94.6269L167.191 112.293C168.934 116.401 168.75 121.117 166.527 124.986C165.204 127.287 163.468 128.835 161.43 127.255C158.047 124.634 155.838 109.628 154.829 101.008L152.497 92.2461C151.561 91.1608 150.898 89.8669 150.565 88.473C149.683 84.9978 150.76 81.7256 152.972 81.1645V81.1645Z" fill="#A0616A"/>
<path d="M161.488 90.8457L153.102 96.8074L157.295 123.216L162.554 130.018L168.681 127.899L170.472 115.415L168.364 103.342L161.488 90.8457Z" fill="#DF3131"/>
</g>
<defs>
<clipPath id="clip0_810_79">
<rect width="209.004" height="250" fill="white"/>
</clipPath>
</defs>
</svg>
