<svg width="427" height="310" viewBox="0 0 427 310" fill="none" xmlns="http://www.w3.org/2000/svg">
<g clip-path="url(#clip0_9100_44045)">
<path d="M360.67 140.134L318.779 134.968L321.075 98.2322H360.67V140.134Z" fill="#FFB6B6"/>
<path d="M384.508 185.023C383.85 185.022 383.206 184.828 382.657 184.466C382.108 184.103 381.677 183.588 381.417 182.983L375.6 169.409L392.841 169.469L404.687 156.937L410.368 170.206C410.713 171.019 410.725 171.935 410.403 172.756C410.08 173.578 409.449 174.241 408.644 174.603L385.872 184.731C385.443 184.923 384.978 185.023 384.508 185.023Z" fill="#E6E6E6"/>
<path d="M390.222 171.179C390.078 171.179 389.935 171.175 389.791 171.167L375.937 170.383L375.562 169.541L375.825 169.424L404.639 156.59L405.014 157.432L396.199 168.328C395.477 169.218 394.566 169.935 393.532 170.428C392.498 170.922 391.367 171.178 390.222 171.179Z" fill="#CCCCCC"/>
<path d="M365.824 45.5008L324.923 46.0122C324.155 46.0113 323.419 45.7059 322.876 45.1629C322.334 44.6199 322.028 43.8837 322.027 43.1158V29.598C322.027 23.879 324.299 18.3942 328.341 14.3503C332.384 10.3063 337.868 8.03442 343.585 8.03442C349.302 8.03442 354.786 10.3063 358.829 14.3503C362.871 18.3942 365.143 23.879 365.143 29.598L368.72 42.6044C368.719 43.3723 368.414 44.1085 367.871 44.6515C367.328 45.1945 366.592 45.4999 365.824 45.5008H365.824Z" fill="#2F2E41"/>
<path d="M385.849 165.69C385.168 165.074 384.631 164.316 384.275 163.47C383.918 162.623 383.752 161.709 383.788 160.792C383.823 159.874 384.059 158.975 384.479 158.159C384.899 157.343 385.493 156.628 386.219 156.066L379.104 134.911L390.315 137.874L395.355 157.509C396.223 158.792 396.589 160.348 396.384 161.884C396.18 163.419 395.418 164.825 394.244 165.835C393.071 166.845 391.567 167.388 390.019 167.362C388.471 167.335 386.987 166.74 385.849 165.69V165.69Z" fill="#FFB6B6"/>
<path d="M337.352 301.772L328.957 300.41L330.216 267.372L342.607 269.381L337.352 301.772Z" fill="#FFB6B6"/>
<path d="M379.194 284.257L371.6 288.089L351.488 258.895L362.695 253.239L379.194 284.257Z" fill="#FFB6B6"/>
<path d="M343.406 45.8721C351.651 45.8721 358.335 39.1862 358.335 30.9388C358.335 22.6914 351.651 16.0055 343.406 16.0055C335.161 16.0055 328.477 22.6914 328.477 30.9388C328.477 39.1862 335.161 45.8721 343.406 45.8721Z" fill="#FFB8B8"/>
<path d="M355.228 273.642L320.264 184.462C307.751 150.272 318.931 126.707 319.046 126.474L319.103 126.359L319.222 126.315C320.658 131.905 353.212 131.524 360.672 122.914C365.027 126.573 370.822 135.187 372.064 145.482C373.361 156.525 372.377 167.718 369.173 178.366L355.401 225.067L372.44 263.462L355.228 273.642Z" fill="#2F2E41"/>
<path d="M338.367 218.326L325.742 282.359L342.556 285.53L353.135 230.103L338.367 218.326Z" fill="#2F2E41"/>
<path d="M319.928 109.138C322.618 109.857 349.205 120.816 361.819 109.712L371.717 60.8276L359.859 57.0862L355.72 52.0525C355.272 51.5066 354.707 51.0687 354.066 50.7713C353.426 50.474 352.727 50.3248 352.021 50.335L337.309 50.5317C336.659 50.5412 336.017 50.6851 335.424 50.9545C334.832 51.2239 334.301 51.6129 333.866 52.097L329.154 57.3536L318.51 59.8315L319.928 109.138Z" fill="#DB2828"/>
<path d="M367.204 64.6406L370.426 60.3478C370.426 60.3478 376.331 61.8998 379.331 70.3634C382.331 78.8271 394.623 146.449 394.623 146.449L381.386 152.596L363.461 92.8334L367.204 64.6406Z" fill="#DB2828"/>
<path d="M261.133 145.171C261.258 144.261 261.581 143.39 262.079 142.619C262.577 141.847 263.238 141.195 264.016 140.706C264.793 140.218 265.668 139.907 266.579 139.793C267.49 139.68 268.415 139.768 269.289 140.051L282.742 122.243L286.617 133.175L273.246 148.41C272.676 149.849 271.597 151.028 270.215 151.723C268.833 152.418 267.243 152.582 265.749 152.182C264.254 151.782 262.958 150.848 262.107 149.555C261.256 148.262 260.909 146.702 261.133 145.171H261.133Z" fill="#FFB6B6"/>
<path d="M323.239 63.6931L318.781 59.7738C318.781 59.7738 314.111 60.9522 311.111 69.4159C308.111 77.8796 269.818 134.623 269.818 134.623L283.055 140.77L326.982 91.8835L323.239 63.6931Z" fill="#DB2828"/>
<path d="M358.963 29.9536H338.097C337.705 29.9532 337.326 29.8098 337.032 29.5503C336.738 29.2908 336.549 28.9329 336.5 28.5439L336.23 26.3822C336.204 26.1745 336.111 25.981 335.965 25.8308C335.819 25.6806 335.628 25.5819 335.422 25.5495C335.215 25.5171 335.003 25.5528 334.819 25.6512C334.634 25.7496 334.486 25.9055 334.398 26.0952L333.029 29.0249C332.899 29.3018 332.693 29.5361 332.435 29.7004C332.177 29.8647 331.877 29.9523 331.571 29.953H328.402C327.976 29.9537 327.567 29.785 327.265 29.484C326.964 29.183 326.794 28.7745 326.793 28.3482C326.793 28.2955 326.795 28.2428 326.801 28.1903L328.05 15.1323C328.077 14.853 328.176 14.5855 328.337 14.3558C328.497 14.1262 328.715 13.9422 328.968 13.8218C338.525 9.35949 348.216 9.36523 357.772 13.839C358.014 13.953 358.225 14.1257 358.384 14.3414C358.542 14.557 358.645 14.8089 358.682 15.0743L360.555 28.1151C360.588 28.3434 360.571 28.5761 360.506 28.7974C360.441 29.0187 360.329 29.2234 360.178 29.3976C360.027 29.5719 359.84 29.7116 359.631 29.8072C359.421 29.9029 359.193 29.9522 358.962 29.9519L358.963 29.9536Z" fill="#2F2E41"/>
<path d="M22.3632 10.3298C21.6375 10.3291 20.9411 10.6162 20.4268 11.1283C19.9125 11.6404 19.6222 12.3356 19.6196 13.0615L18.9453 306.056C18.9445 306.781 19.2316 307.478 19.7436 307.992C20.2555 308.507 20.9506 308.797 21.6762 308.8L257.649 309.343C258.375 309.344 259.071 309.056 259.585 308.544C260.1 308.032 260.39 307.337 260.392 306.611L261.067 13.6166C261.067 12.8906 260.78 12.194 260.268 11.6795C259.756 11.165 259.061 10.8747 258.335 10.8723L22.3632 10.3298Z" fill="#E6E6E6"/>
<path d="M31.1053 19.1127C30.3796 19.1119 29.6832 19.3991 29.1689 19.9112C28.6546 20.4232 28.3643 21.1185 28.3617 21.8444L27.7305 297.313C27.7297 298.039 28.0168 298.736 28.5287 299.25C29.0407 299.765 29.7357 300.055 30.4614 300.058L248.914 300.561C249.64 300.561 250.336 300.274 250.85 299.762C251.365 299.25 251.655 298.555 251.658 297.829L252.289 22.3598C252.29 21.6338 252.002 20.9372 251.49 20.4227C250.978 19.9082 250.283 19.6179 249.557 19.6155L31.1053 19.1127Z" fill="white"/>
<path d="M220.536 138.732L59.5728 138.362C58.4921 138.347 57.4608 137.906 56.7027 137.136C55.9447 136.365 55.521 135.326 55.5234 134.245C55.5259 133.164 55.9545 132.128 56.7161 131.36C57.4777 130.593 58.5109 130.157 59.5917 130.147L220.555 130.518C221.636 130.533 222.667 130.974 223.425 131.744C224.183 132.515 224.607 133.554 224.605 134.635C224.602 135.716 224.174 136.752 223.412 137.52C222.65 138.287 221.617 138.723 220.536 138.733V138.732Z" fill="#E6E6E6"/>
<path d="M222.096 62.2008L115.307 61.9551C113.802 61.9517 112.587 60.1097 112.592 57.8412C112.597 55.5728 113.821 53.7366 115.326 53.74L222.115 53.9857C223.619 53.9891 224.835 55.8311 224.83 58.0996C224.824 60.368 223.6 62.2065 222.096 62.2008Z" fill="#E6E6E6"/>
<path d="M222.041 85.7499L115.252 85.5042C113.747 85.5008 112.532 83.6588 112.537 81.3903C112.542 79.1219 113.766 77.2856 115.271 77.2891L222.06 77.5347C223.565 77.5382 224.78 79.3802 224.775 81.6486C224.77 83.9171 223.546 85.7533 222.041 85.7499Z" fill="#E6E6E6"/>
<path d="M220.474 165.293L59.5103 164.923C58.4296 164.908 57.3983 164.467 56.6402 163.696C55.8822 162.926 55.4585 161.887 55.4609 160.806C55.4634 159.725 55.892 158.688 56.6536 157.921C57.4152 157.154 58.4484 156.718 59.5292 156.708L220.493 157.078C221.582 157.068 222.63 157.491 223.408 158.255C224.185 159.018 224.627 160.058 224.637 161.148C224.647 162.237 224.224 163.286 223.461 164.063C222.698 164.841 221.658 165.283 220.569 165.293C220.537 165.294 220.506 165.293 220.474 165.293Z" fill="#E6E6E6"/>
<path d="M220.417 191.854L59.4537 191.483C58.3729 191.468 57.3417 191.027 56.5836 190.257C55.8256 189.486 55.4018 188.448 55.4043 187.366C55.4068 186.285 55.8353 185.249 56.5969 184.482C57.3585 183.714 58.3918 183.279 59.4726 183.269L220.436 183.639C220.976 183.633 221.512 183.734 222.013 183.935C222.514 184.136 222.97 184.435 223.356 184.812C223.741 185.19 224.049 185.641 224.26 186.137C224.472 186.634 224.583 187.168 224.588 187.708C224.593 188.248 224.492 188.784 224.29 189.284C224.088 189.785 223.789 190.241 223.411 190.626C223.032 191.011 222.581 191.318 222.084 191.529C221.587 191.739 221.054 191.85 220.514 191.854C220.482 191.854 220.449 191.854 220.417 191.854V191.854Z" fill="#E6E6E6"/>
<path d="M220.355 218.415L59.3912 218.045C58.3104 218.03 57.2792 217.589 56.5211 216.818C55.7631 216.048 55.3393 215.009 55.3418 213.928C55.3443 212.847 55.7728 211.81 56.5344 211.043C57.296 210.276 58.3293 209.84 59.4101 209.83L220.374 210.201C221.462 210.192 222.509 210.615 223.285 211.378C224.062 212.141 224.504 213.181 224.514 214.269C224.524 215.358 224.102 216.406 223.34 217.183C222.579 217.961 221.54 218.404 220.451 218.416C220.419 218.416 220.387 218.416 220.355 218.415Z" fill="#E6E6E6"/>
<path d="M141.102 243.828L59.3287 243.457C58.2479 243.442 57.2167 243.002 56.4586 242.231C55.7006 241.46 55.2768 240.422 55.2793 239.341C55.2818 238.26 55.7103 237.223 56.4719 236.456C57.2335 235.689 58.2668 235.253 59.3476 235.243L141.121 235.614C142.208 235.605 143.255 236.029 144.031 236.792C144.807 237.555 145.248 238.594 145.259 239.682C145.269 240.77 144.847 241.818 144.086 242.596C143.325 243.373 142.286 243.816 141.198 243.828C141.166 243.829 141.134 243.829 141.102 243.828Z" fill="#E6E6E6"/>
<path d="M141.041 270.39L59.2681 270.019C58.1873 270.004 57.1561 269.563 56.3981 268.793C55.64 268.022 55.2163 266.983 55.2188 265.902C55.2213 264.821 55.6498 263.785 56.4114 263.017C57.173 262.25 58.2062 261.814 59.287 261.804L141.06 262.175C142.148 262.167 143.195 262.59 143.97 263.353C144.746 264.116 145.188 265.156 145.198 266.244C145.208 267.332 144.786 268.38 144.025 269.157C143.264 269.934 142.225 270.378 141.138 270.39C141.105 270.39 141.073 270.39 141.041 270.39Z" fill="#E6E6E6"/>
<path d="M186.792 30.8439V11.3003C186.824 9.84862 186.57 8.40485 186.044 7.05144C185.518 5.69803 184.731 4.46149 183.727 3.41241C182.724 2.36333 181.523 1.52225 180.195 0.937209C178.866 0.352166 177.435 0.0346098 175.984 0.00267464C174.533 -0.0292605 173.089 0.225055 171.736 0.751089C170.383 1.27712 169.147 2.06457 168.098 3.06849C167.049 4.07241 166.209 5.27313 165.624 6.6021C165.039 7.93107 164.721 9.36225 164.689 10.8139H167.122C167.209 8.58582 168.154 6.47767 169.759 4.93078C171.365 3.38389 173.506 2.51818 175.736 2.51484H175.862C178.151 2.55152 180.332 3.4955 181.925 5.1394C183.519 6.78329 184.394 8.99265 184.36 11.2821V31C184.34 32.5213 183.722 33.9736 182.64 35.043C181.558 36.1123 180.099 36.7129 178.578 36.7149H178.507C176.972 36.6936 175.507 36.0632 174.436 34.9625C173.365 33.8618 172.775 32.3807 172.795 30.8448L172.808 11.4327C172.806 10.6599 173.11 9.9177 173.655 9.36944C174.199 8.82119 174.939 8.51175 175.712 8.50922C176.485 8.50669 177.227 8.81127 177.775 9.35595C178.323 9.90063 178.632 10.6408 178.635 11.4136V17.0535C178.635 17.3761 178.763 17.6855 178.991 17.9137C179.219 18.1418 179.528 18.27 179.851 18.27C180.173 18.27 180.483 18.1418 180.711 17.9137C180.939 17.6855 181.067 17.3761 181.067 17.0535V11.3943C181.066 10.6923 180.926 9.99731 180.656 9.34915C180.387 8.70098 179.992 8.1123 179.495 7.61671C178.998 7.12113 178.408 6.72835 177.759 6.4608C177.11 6.19324 176.415 6.05616 175.713 6.05737C175.011 6.05858 174.316 6.19805 173.668 6.46784C173.02 6.73763 172.432 7.13244 171.936 7.62974C171.441 8.12703 171.048 8.71707 170.781 9.36616C170.513 10.0152 170.376 10.7107 170.377 11.4127L170.365 30.8292C170.341 33.0078 171.182 35.1068 172.703 36.666C174.224 38.2251 176.302 39.117 178.48 39.1459H178.581C180.742 39.1425 182.815 38.2886 184.352 36.7687C185.889 35.2488 186.766 33.185 186.794 31.0234C186.793 30.9607 186.793 30.8972 186.792 30.8439Z" fill="#DB2828"/>
<path d="M220.079 253.064C220.083 256.3 219.506 259.511 218.375 262.543C217.862 263.932 217.232 265.275 216.493 266.558C214.116 270.707 210.685 274.155 206.549 276.553C202.413 278.95 197.717 280.213 192.936 280.213C188.155 280.213 183.459 278.95 179.323 276.553C175.187 274.155 171.756 270.707 169.379 266.558C169.139 266.141 168.911 265.717 168.695 265.288C166.85 261.627 165.858 257.595 165.792 253.496C165.727 249.397 166.591 245.336 168.319 241.618C170.047 237.901 172.594 234.623 175.77 232.03C178.945 229.438 182.666 227.598 186.653 226.65C190.641 225.701 194.791 225.668 198.793 226.553C202.795 227.438 206.545 229.218 209.761 231.76C212.977 234.301 215.576 237.538 217.363 241.228C219.15 244.918 220.078 248.964 220.079 253.064H220.079Z" fill="#E4E4E4"/>
<path d="M194.347 257.648C197.213 257.648 199.536 255.324 199.536 252.457C199.536 249.59 197.213 247.267 194.347 247.267C191.481 247.267 189.158 249.59 189.158 252.457C189.158 255.324 191.481 257.648 194.347 257.648Z" fill="#DB2828"/>
<path d="M168.695 265.288C170.982 262.816 174.038 258.892 176.905 261.728C178.343 263.065 180.595 266.379 182.75 264.213L199.58 247.378C199.897 247.065 200.273 246.818 200.686 246.653C201.1 246.488 201.542 246.407 201.987 246.414C202.432 246.422 202.872 246.519 203.279 246.699C203.686 246.88 204.053 247.139 204.359 247.463L218.376 262.544C217.862 263.932 217.233 265.275 216.493 266.558H169.38L168.695 265.288Z" fill="#3F3D56"/>
<path d="M98.4243 68.8089C98.4283 72.0452 97.8514 75.2559 96.7209 78.2882C96.2076 79.6771 95.5778 81.0202 94.8384 82.303C92.4613 86.452 89.0312 89.8996 84.8948 92.2973C80.7584 94.6949 76.0625 95.9576 71.2818 95.9576C66.5011 95.9576 61.8051 94.6949 57.6687 92.2973C53.5324 89.8996 50.1022 86.452 47.7251 82.303C47.4845 81.8858 47.2563 81.4622 47.0406 81.0325C45.1955 77.3715 44.2032 73.3402 44.1382 69.2409C44.0731 65.1415 44.937 61.0807 46.6649 57.363C48.3928 53.6453 50.94 50.3673 54.1153 47.7748C57.2906 45.1824 61.0116 43.3429 64.9991 42.3943C68.9866 41.4458 73.137 41.4127 77.1391 42.2978C81.1412 43.1828 84.8909 44.9628 88.107 47.5044C91.3232 50.046 93.9221 53.283 95.709 56.9728C97.4958 60.6625 98.4241 64.7091 98.4243 68.8089H98.4243Z" fill="#E4E4E4"/>
<path d="M72.693 73.3924C75.5589 73.3924 77.8821 71.0685 77.8821 68.2019C77.8821 65.3352 75.5589 63.0114 72.693 63.0114C69.8271 63.0114 67.5039 65.3352 67.5039 68.2019C67.5039 71.0685 69.8271 73.3924 72.693 73.3924Z" fill="#DB2828"/>
<path d="M47.0391 81.0326C49.3253 78.5611 52.3817 74.6372 55.2482 77.4725C56.6869 78.8098 58.9384 82.1238 61.0936 79.9573L77.9238 63.1225C78.2406 62.8096 78.6168 62.5632 79.0302 62.3978C79.4436 62.2324 79.8859 62.1513 80.331 62.1592C80.7762 62.1672 81.2153 62.2641 81.6225 62.4442C82.0297 62.6243 82.3968 62.884 82.7022 63.2081L96.7194 78.2883C96.206 79.6772 95.5763 81.0202 94.8369 82.3031H47.7236L47.0391 81.0326Z" fill="#3F3D56"/>
<path d="M177.615 34.5176C179.2 34.5176 180.485 33.2327 180.485 31.6476C180.485 30.0625 179.2 28.7776 177.615 28.7776C176.031 28.7776 174.746 30.0625 174.746 31.6476C174.746 33.2327 176.031 34.5176 177.615 34.5176Z" fill="#DB2828"/>
<path d="M341.661 309.466H336.2L335.225 304.308L332.729 309.466H318.244C317.55 309.466 316.874 309.244 316.315 308.832C315.756 308.421 315.342 307.841 315.136 307.178C314.929 306.515 314.94 305.803 315.166 305.147C315.393 304.49 315.823 303.923 316.394 303.529L327.961 295.538V290.324L340.127 291.051L341.661 309.466Z" fill="#2F2E41"/>
<path d="M390.054 296.681L385.466 299.644L381.85 295.84L382.55 301.527L370.382 309.387C369.798 309.763 369.11 309.944 368.417 309.902C367.724 309.859 367.063 309.596 366.53 309.152C365.996 308.707 365.619 308.103 365.454 307.429C365.288 306.754 365.342 306.045 365.608 305.403L370.991 292.414L368.164 288.034L378.778 282.043L390.054 296.681Z" fill="#2F2E41"/>
<path d="M427 308.852H0V310H427V308.852Z" fill="#CCCCCC"/>
</g>
<defs>
<clipPath id="clip0_9100_44045">
<rect width="427" height="310" fill="white"/>
</clipPath>
</defs>
</svg>
