<svg width="163" height="40" viewBox="0 0 163 40" fill="none" xmlns="http://www.w3.org/2000/svg">
<path d="M91.7981 6.90363V13.7679L90.8071 12.9442C89.082 11.5321 87.4302 10.983 84.6774 10.983C80.1627 10.983 77.0428 13.2188 75.0974 17.7296C73.7393 20.946 73.2621 24.5154 73.776 28.2025C74.8038 35.459 78.3274 39.5384 83.8699 39.9306C86.9531 40.1267 89.1554 39.5776 90.6236 38.244C91.9449 37.0672 92.2753 37.028 91.9816 38.0086C91.6513 39.1069 92.4955 39.4599 95.175 39.303L97.5975 39.1461L97.7443 20.8675C97.8177 10.7868 97.781 1.96135 97.7076 1.25531L97.5975 0.000125885H94.6978H91.7981V6.90363ZM88.7883 17.2589C90.8071 18.5925 91.6146 21.0244 91.6146 25.6921C91.6146 29.1439 91.5045 29.8107 90.697 31.3405C89.3389 33.9293 88.1276 34.7138 85.5583 34.7138C82.9889 34.7138 81.7043 33.8901 80.6031 31.5366C80.0158 30.2814 79.869 29.2223 79.869 25.6921C79.869 21.9658 79.9791 21.1421 80.7132 19.6908C81.1904 18.7886 82.0713 17.6511 82.732 17.2589C84.3103 16.1998 87.1733 16.239 88.7883 17.2589Z" fill="white"/>
<path d="M151.81 5.02048C151.7 5.13815 151.627 6.62868 151.627 8.31534V11.3748H148.507H145.387V14.1206V16.8663H148.507H151.627V20.2003V23.5344H154.196H156.765V20.2003V16.9055L159.812 16.7878L162.822 16.6701L162.932 14.9443C163.152 11.5317 163.005 11.3748 159.702 11.3748H156.765V8.23689C156.765 6.51101 156.655 5.09893 156.508 5.09893C156.325 5.05971 155.26 5.02048 154.122 4.94203C152.948 4.90281 151.92 4.90281 151.81 5.02048Z" fill="black"/>
<path d="M6.64358 5.45216L4.25777 5.68751L4.14765 8.51167L4.03754 11.3358L2.12888 11.4535L0.220229 11.5712L0.110115 14.1992L0 16.8665H1.98206H3.96413L4.14765 24.9859C4.29447 32.0463 4.40458 33.38 5.06527 34.9097C5.98289 37.1455 8.00166 39.0675 10.0204 39.6559C11.8924 40.205 17.4715 39.8912 18.2423 39.1852C18.6461 38.8322 18.7562 38.0477 18.6828 36.3218C18.5727 34.1645 18.4993 33.9291 17.8386 34.0468C17.4348 34.1252 16.04 34.2821 14.7187 34.3998C12.6999 34.5567 12.186 34.4783 11.4152 33.8114C10.4976 33.027 10.4976 32.9877 10.3875 25.0252L10.2774 17.0234L13.6909 16.9057C15.7831 16.8665 17.2146 16.6311 17.3614 16.3566C17.6917 15.8074 17.7285 12.8656 17.4348 12.0026C17.2513 11.4927 16.5539 11.3751 13.7643 11.3751H10.3508L10.2407 8.35477C10.1305 4.90302 10.3508 5.09914 6.64358 5.45216Z" fill="white"/>
<path d="M28.6652 11.6496C26.2794 12.5517 22.7557 16.435 21.7647 19.2591C19.7092 25.1428 20.7003 31.8894 24.2973 36.2433C24.9213 36.9886 26.3528 38.1261 27.4907 38.7145C29.3626 39.6951 29.9499 39.8127 33.4369 39.8127C36.9238 39.8127 37.4744 39.6951 39.4198 38.7145C41.8423 37.4201 43.6775 34.9489 43.9712 32.517L44.1914 30.9872H41.2183C38.2819 30.9872 38.2452 30.9872 38.1351 32.0463C37.9516 33.6937 36.41 34.6351 33.8773 34.6351C30.3537 34.5959 27.821 32.5562 27.0135 29.1437L26.573 27.2609L35.2354 27.0648L43.8978 26.8687L44.0079 23.8092C44.1547 19.6906 43.4206 17.141 41.4385 14.7091C39.1995 12.0026 36.9605 10.9828 33.2533 11.022C31.5649 11.022 29.6196 11.2966 28.6652 11.6496ZM36.0796 17.0626C36.8504 17.3764 38.025 19.3768 38.3553 20.8673L38.5755 21.9656H32.8863C28.812 21.9656 27.197 21.8479 27.197 21.4949C27.197 20.6712 29.069 17.6509 29.8765 17.1802C31.6016 16.1996 34.0608 16.1212 36.0796 17.0626Z" fill="white"/>
<path d="M57.1138 11.924C56.1228 12.3947 55.0216 13.1399 54.728 13.5322C54.2141 14.199 54.1774 14.1598 53.9939 12.9046L53.8103 11.571H51.0575H48.3046L48.1945 25.378L48.1211 39.2242H51.0575H53.9939V31.7716C53.9939 27.6922 54.1774 23.456 54.3976 22.3185C55.3887 17.337 60.6375 14.8658 63.3903 18.0822C64.0143 18.8275 64.0877 19.8473 64.2712 28.9866L64.4548 39.0281L67.3177 39.1458L70.144 39.2634L70.2174 32.0854C70.3642 18.3176 70.144 16.1995 68.2721 13.9637C65.7761 10.9042 60.8944 10.002 57.1138 11.924Z" fill="white"/>
<path d="M108.793 11.8064C104.278 13.65 100.975 19.5336 100.975 25.6919C101.011 31.301 103.691 36.5178 107.728 38.7144C110.188 40.0872 114.886 40.401 118.006 39.4596C121.346 38.4006 124.429 34.7919 124.466 31.8501C124.466 31.0264 124.319 30.9872 121.566 30.9872H118.703L118.483 32.1639C118.336 32.7915 117.822 33.576 117.345 33.9682C116.024 34.8704 112.39 34.7919 110.628 33.8505C109.086 32.9876 107.435 30.3988 107.068 28.3591L106.884 27.0647L115.583 26.9863L124.282 26.8686V23.3384C124.282 17.5724 122.374 13.8853 118.409 11.9241C115.987 10.7081 111.619 10.6689 108.793 11.8064ZM116.537 17.2978C117.639 18.2392 118.593 20.0043 118.593 21.181C118.593 21.9263 118.409 21.9655 113.087 21.9655C108.242 21.9655 107.581 21.8871 107.581 21.3379C107.581 20.2789 109.086 18.0039 110.298 17.2194C111.913 16.1603 115.216 16.1995 116.537 17.2978Z" fill="white"/>
<path d="M137.497 11.7278C136.689 12.12 135.661 12.8261 135.221 13.2968L134.377 14.1597V12.983C134.377 11.5709 133.679 11.2571 130.669 11.4532L128.687 11.5709L128.577 25.3779L128.504 39.2241H131.44H134.377V31.2616C134.377 21.7692 134.744 19.8472 136.836 18.1606C137.937 17.2584 138.524 17.0623 140.213 17.1015C141.351 17.1408 142.709 17.2584 143.296 17.4545L144.287 17.7291V14.8265C144.287 13.1006 144.103 11.7278 143.847 11.4532C143.149 10.7079 139.185 10.9041 137.497 11.7278Z" fill="white"/>
</svg>
