<svg width="251" height="73" viewBox="0 0 251 73" fill="none" xmlns="http://www.w3.org/2000/svg">
<path d="M0.264585 50.1449C0.264585 46.5215 0.195499 43.4817 0 40.7697H6.8557L7.17761 45.425H7.3687C8.91946 42.9643 11.7667 40.0539 17.0672 40.0539C21.205 40.0539 24.4359 42.3911 25.7927 45.8777H25.9249C27.0289 44.13 28.3194 42.8423 29.8026 41.9339C31.5474 40.7065 33.5538 40.0539 36.1438 40.0539C41.3738 40.0539 46.6699 43.6111 46.6699 53.7021V72.251H38.9146V54.8604C38.9146 49.626 37.1066 46.5215 33.2981 46.5215C30.5772 46.5215 28.5693 48.4633 27.7344 50.727C27.5404 51.5016 27.3449 52.4703 27.3449 53.3713V72.251H19.5852V54.0211C19.5852 49.626 17.8419 46.5215 14.1583 46.5215C11.1831 46.5215 9.18258 48.8484 8.47114 51.043C8.14923 51.825 8.01252 52.7275 8.01252 53.633V72.251H0.264585V50.1449Z" fill="#003A70"/>
<path d="M69.1355 56.8693C63.5101 56.737 58.1478 57.9614 58.1478 62.7489C58.1478 65.8475 60.1528 67.2748 62.6737 67.2748C65.8355 67.2748 68.1683 65.2066 68.8724 62.9444C69.0679 62.3638 69.1355 61.7141 69.1355 61.1996V56.8693ZM76.8908 64.6892C76.8908 67.532 77.0216 70.3014 77.3479 72.2505H70.1703L69.6543 68.758H69.453C67.5171 71.2157 64.2215 72.959 60.1528 72.959C53.8145 72.959 50.2617 68.3787 50.2617 63.5853C50.2617 55.6345 57.3026 51.6305 68.94 51.6937V51.1763C68.94 49.1066 68.0977 45.6802 62.5444 45.6802C59.4384 45.6802 56.2017 46.6548 54.0732 48.0115L52.5195 42.8418C54.8464 41.4145 58.9225 40.0534 63.8996 40.0534C73.9847 40.0534 76.8908 46.4593 76.8908 53.3091V64.6892Z" fill="#003A70"/>
<path d="M82.3891 50.1449C82.3891 46.5215 82.3171 43.4817 82.1289 40.7697H89.1037L89.4932 45.4882H89.6843C91.041 43.0364 94.4718 40.0539 99.7032 40.0539C105.204 40.0539 110.891 43.6111 110.891 53.5668V72.251H102.937V54.4753C102.937 49.9494 101.255 46.5215 96.9266 46.5215C93.7589 46.5215 91.5658 48.7808 90.7206 51.1753C90.4678 51.8897 90.3987 52.8613 90.3987 53.7565V72.251H82.3891V50.1449Z" fill="#003A70"/>
<path d="M137.41 53.8883C137.41 53.2459 137.344 52.4698 137.218 51.823C136.505 48.72 133.987 46.2006 130.365 46.2006C125.258 46.2006 122.416 50.7279 122.416 56.6091C122.416 62.3623 125.258 66.5693 130.303 66.5693C133.531 66.5693 136.378 64.3688 137.151 60.9424C137.344 60.2295 137.41 59.4475 137.41 58.6082V53.8883ZM145.36 28.1206V63.3928C145.36 66.6236 145.492 70.1176 145.618 72.2475H138.508L138.191 67.2748H138.058C136.184 70.76 132.361 72.959 127.778 72.959C120.281 72.959 114.332 66.5693 114.332 56.8693C114.269 46.3285 120.865 40.0534 128.428 40.0534C132.755 40.0534 135.861 41.8658 137.281 44.2015H137.41V28.1206H145.36Z" fill="#003A70"/>
<path d="M150.98 40.7692H159.008V72.2476H150.98V40.7692Z" fill="#003A70"/>
<path d="M164.623 50.92C164.623 46.6543 164.559 43.6116 164.363 40.7717H171.282L171.538 46.7778H171.801C173.35 42.3181 177.037 40.7717 180.399 40.7717C181.173 40.7717 181.626 40.6379 182.273 40.7717V47.7553C181.626 47.623 180.916 47.4936 179.941 47.4936C176.131 47.4936 173.546 49.9484 172.837 53.5027C172.708 54.2126 172.58 55.0593 172.58 55.9677V72.2485H164.623V50.92Z" fill="#003A70"/>
<path d="M185.957 40.7692H193.968V72.2476H185.957V40.7692Z" fill="#003A70"/>
<path fill-rule="evenodd" clip-rule="evenodd" d="M243.432 7.51479C239.476 3.00949 235.278 5.04386 231.927 6.70487C230.523 7.39867 225.427 10.7912 220.376 13.1563C216.778 14.8423 211.613 14.3323 208.78 10.8339C208.608 10.6222 204.029 5.07472 203.544 4.39121C200.571 0.662029 193.049 -2.43068 184.062 2.71257C179.247 5.49953 167.899 12.0113 163.657 14.4337C161.078 15.7493 155.093 16.324 151.712 11.757C151.656 11.682 147.214 6.13895 147.036 5.92581C146.905 5.77588 144.036 1.52046 137.641 1.38964C136.7 1.36612 132.002 1.33819 127.411 3.94436C121.324 7.42659 107.157 15.5258 107.157 15.5258C107.147 15.5258 107.147 15.5332 107.147 15.5332C101.323 18.867 96.7812 21.4555 96.7812 21.4555L102.144 28.0466C104.654 31.1584 110.307 33.5706 115.214 30.7542C115.214 30.7542 133.338 20.259 133.401 20.2296C141.242 15.9271 147.292 15.9271 151.301 17.5293C154.906 19.0478 158.04 22.8402 158.04 22.8402C158.04 22.8402 162.14 27.9202 162.86 28.808C165.191 31.6773 169.047 30.5513 169.047 30.5513C169.047 30.5513 170.471 30.3867 172.635 29.1079C172.635 29.1079 190.186 18.9316 190.196 18.9287C195.773 15.6581 200.888 15.0481 203.497 15.2862C211.68 16.0315 214.225 21.748 217.776 25.7344C219.865 28.0848 221.748 29.4136 224.63 29.346C226.528 29.3034 228.667 28.1583 228.983 27.9525L250.003 15.8184C250.003 15.8184 247.849 12.5728 243.432 7.51479" fill="#FFB700"/>
</svg>
