<svg width="26" height="26" viewBox="0 0 26 26" fill="none" xmlns="http://www.w3.org/2000/svg">
<path d="M1.75 5.5C1.0625 5.5 0.5 6.0625 0.5 6.75V23C0.5 24.375 1.625 25.5 3 25.5H19.25C19.9375 25.5 20.5 24.9375 20.5 24.25C20.5 23.5625 19.9375 23 19.25 23H4.25C3.5625 23 3 22.4375 3 21.75V6.75C3 6.0625 2.4375 5.5 1.75 5.5ZM23 0.5H8C6.625 0.5 5.5 1.625 5.5 3V18C5.5 19.375 6.625 20.5 8 20.5H23C24.375 20.5 25.5 19.375 25.5 18V3C25.5 1.625 24.375 0.5 23 0.5ZM20.5 11.75H10.5C9.8125 11.75 9.25 11.1875 9.25 10.5C9.25 9.8125 9.8125 9.25 10.5 9.25H20.5C21.1875 9.25 21.75 9.8125 21.75 10.5C21.75 11.1875 21.1875 11.75 20.5 11.75ZM15.5 16.75H10.5C9.8125 16.75 9.25 16.1875 9.25 15.5C9.25 14.8125 9.8125 14.25 10.5 14.25H15.5C16.1875 14.25 16.75 14.8125 16.75 15.5C16.75 16.1875 16.1875 16.75 15.5 16.75ZM20.5 6.75H10.5C9.8125 6.75 9.25 6.1875 9.25 5.5C9.25 4.8125 9.8125 4.25 10.5 4.25H20.5C21.1875 4.25 21.75 4.8125 21.75 5.5C21.75 6.1875 21.1875 6.75 20.5 6.75Z" fill="#D21B1B"/>
</svg>
