<svg width="30" height="20" viewBox="0 0 30 20" fill="none" xmlns="http://www.w3.org/2000/svg">
<path d="M6.647 15H0.69V14.126H1.702V1.269H0.69V0.394999H8.786C10.3193 0.394999 11.2777 0.433332 11.661 0.509999C12.0443 0.586666 12.4047 0.678666 12.742 0.785999C13.0793 0.877999 13.34 1.00067 13.524 1.154C13.7233 1.292 13.9303 1.46833 14.145 1.683C14.3597 1.89767 14.5207 2.15067 14.628 2.442C14.904 3.10133 15.042 3.86033 15.042 4.719C15.042 6.11433 14.7507 7.12633 14.168 7.755C13.5853 8.38367 12.7497 8.78233 11.661 8.951V9.48H12.696C13.2173 9.48 13.5777 9.57967 13.777 9.779C13.9763 9.963 14.1067 10.3233 14.168 10.86L14.559 14.126H15.778V15H10.097V10.17H6.647V15ZM10.097 8.514V2.005H6.647V8.514H10.097ZM16.463 2.35H19.292L20.212 4.098H20.511C20.833 3.224 21.2546 2.65667 21.776 2.396C22.2973 2.13533 23.0793 2.005 24.122 2.005C25.3026 2.005 26.0386 2.051 26.33 2.143C26.6366 2.21967 26.928 2.304 27.204 2.396C27.48 2.47267 27.6946 2.58767 27.848 2.741C28.0166 2.89433 28.2006 3.07067 28.4 3.27C28.5993 3.46933 28.7603 3.71467 28.883 4.006C29.0056 4.29733 29.1206 4.61933 29.228 4.972C29.4273 5.64667 29.527 6.582 29.527 7.778V9.227C29.527 11.159 29.2203 12.516 28.607 13.298C28.377 13.5893 28.17 13.827 27.986 14.011C27.802 14.195 27.5336 14.356 27.181 14.494C26.8283 14.6167 26.537 14.7163 26.307 14.793C26.077 14.8543 25.7396 14.9003 25.295 14.931C24.651 14.977 23.9763 15 23.271 15C22.581 15 22.0826 14.9847 21.776 14.954V18.266H23.018V19.14H17.383V3.224H16.463V2.35ZM25.157 13.275V4.098H21.776V13.275H25.157Z" fill="#D21B1B"/>
</svg>
