<svg width="36" height="34" viewBox="0 0 36 34" fill="none" xmlns="http://www.w3.org/2000/svg">
<path d="M28.6673 15V17.5C32.3507 17.5 35.334 20.4833 35.334 24.1667C35.334 25.5333 34.934 26.8 34.2173 27.85L32.4007 26.0333C32.684 25.4667 32.834 24.8333 32.834 24.1667C32.834 23.0616 32.395 22.0018 31.6136 21.2204C30.8322 20.439 29.7724 20 28.6673 20V22.5L24.9173 18.75L28.6673 15ZM28.6673 33.3333V30.8333C24.984 30.8333 22.0007 27.85 22.0007 24.1667C22.0007 22.8 22.4173 21.5333 23.1173 20.4833L24.934 22.3C24.6507 22.8667 24.5007 23.5 24.5007 24.1667C24.5007 25.2717 24.9396 26.3315 25.721 27.1129C26.5024 27.8943 27.5622 28.3333 28.6673 28.3333V25.8333L32.4173 29.5833L28.6673 33.3333ZM3.66732 0H27.0007C27.8847 0 28.7326 0.351189 29.3577 0.976311C29.9828 1.60143 30.334 2.44928 30.334 3.33333V13.3333H29.5007C26.434 13.3333 23.6673 14.6167 21.684 16.6667H17.0007V23.3333H18.6673V24.1667C18.6673 25 18.7673 25.8333 18.9507 26.6667H3.66732C2.78326 26.6667 1.93542 26.3155 1.31029 25.6904C0.685174 25.0652 0.333984 24.2174 0.333984 23.3333V3.33333C0.333984 1.5 1.83398 0 3.66732 0ZM3.66732 6.66667V13.3333H13.6673V6.66667H3.66732ZM17.0007 6.66667V13.3333H27.0007V6.66667H17.0007ZM3.66732 16.6667V23.3333H13.6673V16.6667H3.66732Z" fill="white"/>
</svg>
