<svg width="25" height="25" viewBox="0 0 25 25" fill="none" xmlns="http://www.w3.org/2000/svg">
<g clip-path="url(#clip0_884_14930)">
<g clip-path="url(#clip1_884_14930)">
<path fill-rule="evenodd" clip-rule="evenodd" d="M23.9662 11.4792C24.2981 14.2037 23.686 16.9597 22.232 19.2876C20.7779 21.6155 18.5698 23.3746 15.9758 24.2715C13.3818 25.1685 10.5587 25.1491 7.97729 24.2166C5.39587 23.2841 3.21212 21.4948 1.79019 19.1472C1.63543 18.892 1.5884 18.5858 1.65943 18.2959C1.73046 18.006 1.91373 17.7562 2.16894 17.6014C2.42414 17.4467 2.73037 17.3996 3.02025 17.4707C3.31014 17.5417 3.55993 17.725 3.71469 17.9802C4.48065 19.245 5.52427 20.3191 6.76657 21.121C8.00888 21.923 9.41732 22.4319 10.8853 22.6093C12.3533 22.7866 13.8425 22.6277 15.24 22.1446C16.6375 21.6615 17.9069 20.8669 18.952 19.8208C19.9971 18.7748 20.7906 17.5047 21.2725 16.1068C21.7543 14.7088 21.9119 13.2195 21.7332 11.7517C21.5546 10.2838 21.0444 8.87584 20.2413 7.63426C19.4382 6.39267 18.3632 5.35002 17.0977 4.58519C16.8423 4.43083 16.6587 4.18134 16.5872 3.8916C16.5158 3.60185 16.5623 3.29559 16.7167 3.04019C16.871 2.78478 17.1205 2.60116 17.4103 2.52971C17.7 2.45826 18.0063 2.50483 18.2617 2.65919C19.8191 3.60057 21.142 4.88383 22.1302 6.41187C23.1185 7.93992 23.7463 9.67272 23.9662 11.4792ZM13.5547 2.42969C13.5547 2.82751 13.3967 3.20904 13.1153 3.49035C12.834 3.77165 12.4525 3.92969 12.0547 3.92969C11.6569 3.92969 11.2753 3.77165 10.994 3.49035C10.7127 3.20904 10.5547 2.82751 10.5547 2.42969C10.5547 2.03186 10.7127 1.65033 10.994 1.36903C11.2753 1.08772 11.6569 0.929688 12.0547 0.929688C12.4525 0.929688 12.834 1.08772 13.1153 1.36903C13.3967 1.65033 13.5547 2.03186 13.5547 2.42969ZM4.26069 8.42969C4.36073 8.25903 4.42604 8.07027 4.45283 7.87428C4.47963 7.67828 4.4674 7.47892 4.41684 7.28767C4.36627 7.09642 4.27838 6.91706 4.15822 6.75992C4.03805 6.60278 3.88799 6.47095 3.71668 6.37204C3.54536 6.27313 3.35617 6.20908 3.16 6.18358C2.96383 6.15809 2.76456 6.17164 2.57365 6.22347C2.38274 6.2753 2.20397 6.36438 2.04763 6.48559C1.89128 6.60679 1.76046 6.75772 1.66269 6.92969C1.46691 7.27402 1.41528 7.68182 1.51906 8.06408C1.62285 8.44635 1.87361 8.77204 2.21665 8.9701C2.55968 9.16815 2.96712 9.22249 3.35006 9.12124C3.73301 9.02 4.06036 8.7714 4.26069 8.42969ZM1.55469 11.4297C1.95251 11.4297 2.33404 11.5877 2.61535 11.869C2.89665 12.1503 3.05469 12.5319 3.05469 12.9297C3.05469 13.3275 2.89665 13.709 2.61535 13.9903C2.33404 14.2717 1.95251 14.4297 1.55469 14.4297C1.15686 14.4297 0.775332 14.2717 0.494027 13.9903C0.212723 13.709 0.0546875 13.3275 0.0546875 12.9297C0.0546875 12.5319 0.212723 12.1503 0.494027 11.869C0.775332 11.5877 1.15686 11.4297 1.55469 11.4297ZM7.55469 5.13569C7.72666 5.03791 7.87759 4.90709 7.99879 4.75075C8.11999 4.59441 8.20907 4.41564 8.2609 4.22473C8.31273 4.03382 8.32629 3.83454 8.30079 3.63837C8.27529 3.4422 8.21124 3.25301 8.11233 3.0817C8.01342 2.91038 7.8816 2.76032 7.72446 2.64016C7.56731 2.52 7.38796 2.4321 7.19671 2.38154C7.00546 2.33098 6.8061 2.31874 6.6101 2.34554C6.4141 2.37234 6.22534 2.43764 6.05469 2.53769C5.71298 2.73801 5.46437 3.06537 5.36313 3.44831C5.26189 3.83125 5.31622 4.2387 5.51428 4.58173C5.71233 4.92476 6.03803 5.17553 6.42029 5.27931C6.80255 5.38309 7.21035 5.33146 7.55469 5.13569Z" fill="#CCCCCC"/>
</g>
</g>
<defs>
<clipPath id="clip0_884_14930">
<rect width="23.9996" height="24.0007" fill="white" transform="translate(0.0546875 0.929688)"/>
</clipPath>
<clipPath id="clip1_884_14930">
<rect width="23.9996" height="24.0007" fill="white" transform="translate(0.0546875 0.929688)"/>
</clipPath>
</defs>
</svg>
