<svg width="111" height="90" viewBox="0 0 111 90" fill="none" xmlns="http://www.w3.org/2000/svg">
<circle cx="35" cy="43" r="32" fill="#DD4B39" fill-opacity="0.2"/>
<circle cx="12" cy="19" r="12" fill="#DD4B39" fill-opacity="0.2"/>
<circle cx="14" cy="31" r="8" fill="#DD4B39" fill-opacity="0.2"/>
<mask id="mask0_1007_1486" style="mask-type:alpha" maskUnits="userSpaceOnUse" x="21" y="0" width="90" height="90">
<rect x="21" width="90" height="90" fill="#D9D9D9"/>
</mask>
<g mask="url(#mask0_1007_1486)">
<path d="M28.5 75.0002V64.5002C28.5 62.4377 29.0312 60.5002 30.0938 58.6877C31.1563 56.8752 32.625 55.5002 34.5 54.5627C37.6875 52.9377 41.2813 51.5627 45.2813 50.4377C49.2813 49.3127 53.6875 48.7502 58.5 48.7502C60.375 48.7502 62.2038 48.844 63.9863 49.0315C65.7663 49.219 67.5 49.5002 69.1875 49.8752L62.625 56.4377C61.9375 56.3127 61.265 56.2502 60.6075 56.2502H58.5C54.0625 56.2502 50.0775 56.7815 46.545 57.844C43.015 58.9065 40.125 60.0627 37.875 61.3127C37.3125 61.6252 36.86 62.0627 36.5175 62.6252C36.1725 63.1877 36 63.8127 36 64.5002V67.5002H59.4375L66.9375 75.0002H28.5ZM79.3125 76.5002L66.375 63.5627L71.625 58.3127L79.3125 66.0002L98.25 47.0627L103.5 52.3127L79.3125 76.5002ZM58.5 45.0002C54.375 45.0002 50.8438 43.5315 47.9063 40.594C44.9688 37.6565 43.5 34.1252 43.5 30.0002C43.5 25.8752 44.9688 22.344 47.9063 19.4065C50.8438 16.469 54.375 15.0002 58.5 15.0002C62.625 15.0002 66.1563 16.469 69.0938 19.4065C72.0313 22.344 73.5 25.8752 73.5 30.0002C73.5 34.1252 72.0313 37.6565 69.0938 40.594C66.1563 43.5315 62.625 45.0002 58.5 45.0002ZM58.5 37.5002C60.5625 37.5002 62.3288 36.7652 63.7988 35.2952C65.2663 33.8277 66 32.0627 66 30.0002C66 27.9377 65.2663 26.1727 63.7988 24.7052C62.3288 23.2352 60.5625 22.5002 58.5 22.5002C56.4375 22.5002 54.6725 23.2352 53.205 24.7052C51.735 26.1727 51 27.9377 51 30.0002C51 32.0627 51.735 33.8277 53.205 35.2952C54.6725 36.7652 56.4375 37.5002 58.5 37.5002Z" fill="#DD4B39" fill-opacity="0.7"/>
</g>
</svg>
