<svg width="58" height="57" viewBox="0 0 58 57" fill="none" xmlns="http://www.w3.org/2000/svg">
<rect x="1.5" y="1" width="55" height="55" rx="27.5" fill="white"/>
<path d="M24.4998 33C20.0498 33 11.1665 35.2333 11.1665 39.6667V43H37.8332V39.6667C37.8332 35.2333 28.9498 33 24.4998 33Z" fill="#BF0C0C"/>
<path d="M46.3332 19.4C46.3499 19.2167 46.3666 19.0333 46.3666 18.8333C46.3666 18.6333 46.3499 18.45 46.3166 18.2667L47.5499 17.3C47.6666 17.2167 47.6832 17.05 47.6166 16.9333L46.4499 14.9167C46.3832 14.7833 46.2166 14.75 46.0999 14.7833L44.6666 15.3667C44.3666 15.1333 44.0332 14.95 43.6832 14.8L43.4666 13.25C43.4332 13.1 43.3166 13 43.1666 13H40.8332C40.6832 13 40.5666 13.1 40.5499 13.25L40.3332 14.8C39.9832 14.95 39.6499 15.15 39.3499 15.3667L37.8999 14.7833C37.7666 14.7333 37.6166 14.7833 37.5499 14.9167L36.3832 16.9333C36.3166 17.0667 36.3332 17.2167 36.4499 17.3L37.6832 18.2667C37.6499 18.45 37.6332 18.65 37.6332 18.8333C37.6332 19.0167 37.6499 19.2167 37.6832 19.4L36.4499 20.3667C36.3332 20.45 36.3166 20.6167 36.3832 20.7333L37.5499 22.75C37.6166 22.8833 37.7832 22.9167 37.8999 22.8833L39.3499 22.3C39.6499 22.5333 39.9832 22.7167 40.3332 22.8667L40.5499 24.4167C40.5666 24.5667 40.6832 24.6667 40.8332 24.6667H43.1666C43.3166 24.6667 43.4332 24.5667 43.4499 24.4167L43.6666 22.8667C44.0166 22.7167 44.3499 22.5167 44.6499 22.3L46.0999 22.8833C46.2332 22.9333 46.3832 22.8833 46.4499 22.75L47.6166 20.7333C47.6832 20.6 47.6666 20.45 47.5499 20.3667L46.3332 19.4ZM41.9999 20.9167C40.8499 20.9167 39.9166 19.9833 39.9166 18.8333C39.9166 17.6833 40.8499 16.75 41.9999 16.75C43.1499 16.75 44.0832 17.6833 44.0832 18.8333C44.0832 19.9833 43.1499 20.9167 41.9999 20.9167Z" fill="#BF0C0C"/>
<path d="M42.7001 27.4667L41.8668 26.0167C41.8168 25.9167 41.7001 25.8834 41.6168 25.9167L40.5835 26.3334C40.3668 26.1667 40.1335 26.0334 39.8835 25.9334L39.7335 24.8334C39.7001 24.7334 39.6001 24.6667 39.5001 24.6667H37.8335C37.7335 24.6667 37.6501 24.7334 37.6335 24.8501L37.4835 25.9501C37.2335 26.0501 37.0001 26.2001 36.7835 26.3501L35.7501 25.9334C35.6501 25.9001 35.5501 25.9334 35.5001 26.0334L34.6668 27.4834C34.6168 27.5834 34.6335 27.6834 34.7168 27.7501L35.6001 28.4334C35.5835 28.5667 35.5668 28.7001 35.5668 28.8334C35.5668 28.9667 35.5835 29.1167 35.6001 29.2334L34.7168 29.9167C34.6335 29.9834 34.6168 30.1001 34.6668 30.1834L35.5001 31.6334C35.5501 31.7334 35.6668 31.7667 35.7501 31.7334L36.7835 31.3167C37.0001 31.4834 37.2335 31.6167 37.4835 31.7167L37.6335 32.8168C37.6501 32.9334 37.7335 33.0001 37.8335 33.0001H39.5001C39.6001 33.0001 39.7001 32.9334 39.7001 32.8168L39.8501 31.7167C40.1001 31.6167 40.3335 31.4667 40.5501 31.3167L41.5835 31.7334C41.6835 31.7667 41.7835 31.7334 41.8335 31.6334L42.6668 30.1834C42.7168 30.0834 42.7001 29.9834 42.6168 29.9167L41.7501 29.2334C41.7668 29.1001 41.7835 28.9667 41.7835 28.8334C41.7835 28.7001 41.7668 28.5501 41.7501 28.4334L42.6335 27.7501C42.7168 27.6834 42.7335 27.5667 42.7001 27.4667ZM38.6668 30.2167C37.9001 30.2167 37.2835 29.5834 37.2835 28.8334C37.2835 28.0667 37.9168 27.4501 38.6668 27.4501C39.4168 27.4501 40.0501 28.0834 40.0501 28.8334C40.0501 29.6001 39.4335 30.2167 38.6668 30.2167Z" fill="#BF0C0C"/>
<path d="M17.4002 23.0001H31.6168C32.0668 23.0001 32.4335 22.6334 32.4335 22.1834V22.1501C32.4335 21.7001 32.0668 21.3334 31.6168 21.3334H31.1668C31.1668 18.8667 29.8168 16.7501 27.8335 15.5834V17.1667C27.8335 17.6334 27.4668 18.0001 27.0002 18.0001C26.5335 18.0001 26.1668 17.6334 26.1668 17.1667V14.9001C25.6335 14.7667 25.0835 14.6667 24.5002 14.6667C23.9168 14.6667 23.3668 14.7667 22.8335 14.9001V17.1667C22.8335 17.6334 22.4668 18.0001 22.0002 18.0001C21.5335 18.0001 21.1668 17.6334 21.1668 17.1667V15.5834C19.1835 16.7501 17.8335 18.8667 17.8335 21.3334H17.4002C16.9502 21.3334 16.5835 21.7001 16.5835 22.1501V22.2001C16.5835 22.6334 16.9502 23.0001 17.4002 23.0001Z" fill="#BF0C0C"/>
<path d="M24.5002 29.6667C27.6002 29.6667 30.1836 27.5334 30.9336 24.6667H18.0669C18.8169 27.5334 21.4002 29.6667 24.5002 29.6667Z" fill="#BF0C0C"/>
<rect x="1.5" y="1" width="55" height="55" rx="27.5" stroke="#BF0C0C" stroke-width="2"/>
</svg>
