<svg width="40" height="40" viewBox="0 0 40 40" fill="none" xmlns="http://www.w3.org/2000/svg">
<mask id="mask0_3434_9384" style="mask-type:alpha" maskUnits="userSpaceOnUse" x="0" y="0" width="40" height="40">
<rect width="40" height="40" fill="#D9D9D9"/>
</mask>
<g mask="url(#mask0_3434_9384)">
<path d="M5 35V11.792H11.792V5H28.208V18.625H35V35H22.042V28.208H17.958V35H5ZM7.792 32.208H11.792V28.208H7.792V32.208ZM7.792 25.417H11.792V21.375H7.792V25.417ZM7.792 18.625H11.792V14.583H7.792V18.625ZM14.583 25.417H18.625V21.375H14.583V25.417ZM14.583 18.625H18.625V14.583H14.583V18.625ZM14.583 11.792H18.625V7.792H14.583V11.792ZM21.375 25.417H25.417V21.375H21.375V25.417ZM21.375 18.625H25.417V14.583H21.375V18.625ZM21.375 11.792H25.417V7.792H21.375V11.792ZM28.208 32.208H32.208V28.208H28.208V32.208ZM28.208 25.417H32.208V21.375H28.208V25.417Z" fill="white"/>
</g>
</svg>
