<svg width="88" height="65" viewBox="0 0 88 65" fill="none" xmlns="http://www.w3.org/2000/svg">
<path d="M23.1289 1.03125C24.6914 2.00781 26.1562 2.88672 27.5234 3.66797C29.0859 4.44922 29.9648 5.71875 30.1602 7.47656C30.1602 8.25781 29.7695 9.625 28.9883 11.5781C28.4023 13.5312 27.6211 15.6797 26.6445 18.0234C25.8633 20.3672 25.082 22.7109 24.3008 25.0547C23.7148 27.2031 23.4219 28.9609 23.4219 30.3281C24.7891 29.5469 26.3516 28.8633 28.1094 28.2773C30.0625 27.6914 32.1133 27.8867 34.2617 28.8633C36.8008 30.0352 38.6562 31.8906 39.8281 34.4297C41 36.9687 41.5859 39.7031 41.5859 42.6328C41.5859 45.5625 41 48.5898 39.8281 51.7148C38.8516 54.6445 37.4844 57.1836 35.7266 59.332C33.9688 61.4805 32.2109 62.9453 30.4531 63.7266C28.6953 64.3125 26.8398 64.6055 24.8867 64.6055C22.9336 64.6055 20.7852 64.4102 18.4414 64.0195C16.293 63.4336 13.9492 62.9453 11.4102 62.5547C8.48047 60.0156 5.94141 56.9883 3.79297 53.4727C1.83984 49.957 1.35156 45.3672 2.32812 39.7031C2.71875 36.9687 3.30469 33.6484 4.08594 29.7422C5.0625 25.6406 6.13672 22.418 7.30859 20.0742C9.06641 16.7539 11.4102 13.3359 14.3398 9.82031C17.2695 6.30469 20.1992 3.375 23.1289 1.03125ZM66.7812 0.445312C67.9531 1.42188 69.125 2.30078 70.2969 3.08203C71.4688 3.86328 72.543 4.83984 73.5195 6.01172C72.543 8.94141 71.1758 12.6523 69.418 17.1445C67.8555 21.4414 66.6836 25.25 65.9023 28.5703C67.8555 27.3984 70.1016 26.9102 72.6406 27.1055C75.1797 27.3008 77.5234 27.9844 79.6719 29.1562C81.8203 30.3281 83.5781 31.9883 84.9453 34.1367C86.5078 36.0898 87.2891 38.5312 87.2891 41.4609C87.4844 45.3672 86.4102 49.4688 84.0664 53.7656C81.7227 57.8672 78.8906 60.7969 75.5703 62.5547C72.6406 64.1172 69.418 64.8008 65.9023 64.6055C62.582 64.2148 59.6523 63.043 57.1133 61.0898C56.5273 60.6992 56.0391 60.0156 55.6484 59.0391C55.4531 58.0625 54.9648 57.0859 54.1836 56.1094C52.8164 54.3516 51.3516 52.7891 49.7891 51.4219C48.2266 50.0547 47.25 47.8086 46.8594 44.6836C46.4688 39.9961 46.7617 35.5039 47.7383 31.207C48.9102 26.7148 50.4727 22.6133 52.4258 18.9023C54.3789 14.9961 56.625 11.4805 59.1641 8.35547C61.7031 5.23047 64.2422 2.59375 66.7812 0.445312Z" fill="#BF0C0C"/>
</svg>
