<svg width="88" height="65" viewBox="0 0 88 65" fill="none" xmlns="http://www.w3.org/2000/svg">
<path d="M64.8711 63.9688C63.3086 62.9922 61.8438 62.1133 60.4766 61.332C58.9141 60.5508 58.0352 59.2812 57.8398 57.5234C57.8398 56.7422 58.2305 55.375 59.0117 53.4219C59.5977 51.4688 60.3789 49.3203 61.3555 46.9766C62.1367 44.6328 62.918 42.2891 63.6992 39.9453C64.2852 37.7969 64.5781 36.0391 64.5781 34.6719C63.2109 35.4531 61.6484 36.1367 59.8906 36.7227C57.9375 37.3086 55.8867 37.1133 53.7383 36.1367C51.1992 34.9648 49.3438 33.1094 48.1719 30.5703C47 28.0313 46.4141 25.2969 46.4141 22.3672C46.4141 19.4375 47 16.4102 48.1719 13.2852C49.1484 10.3555 50.5156 7.81641 52.2734 5.66797C54.0312 3.51953 55.7891 2.05469 57.5469 1.27344C59.3047 0.6875 61.1602 0.394531 63.1133 0.394531C65.0664 0.394531 67.2148 0.589844 69.5586 0.980469C71.707 1.56641 74.0508 2.05469 76.5898 2.44531C79.5195 4.98438 82.0586 8.01172 84.207 11.5273C86.1602 15.043 86.6484 19.6328 85.6719 25.2969C85.2812 28.0313 84.6953 31.3516 83.9141 35.2578C82.9375 39.3594 81.8633 42.582 80.6914 44.9258C78.9336 48.2461 76.5898 51.6641 73.6602 55.1797C70.7305 58.6953 67.8008 61.625 64.8711 63.9688ZM21.2188 64.5547C20.0469 63.5781 18.875 62.6992 17.7031 61.918C16.5312 61.1367 15.457 60.1602 14.4805 58.9883C15.457 56.0586 16.8242 52.3477 18.582 47.8555C20.1445 43.5586 21.3164 39.75 22.0977 36.4297C20.1445 37.6016 17.8984 38.0898 15.3594 37.8945C12.8203 37.6992 10.4766 37.0156 8.32812 35.8438C6.17969 34.6719 4.42188 33.0117 3.05469 30.8633C1.49219 28.9102 0.710938 26.4688 0.710938 23.5391C0.515625 19.6328 1.58984 15.5312 3.93359 11.2344C6.27734 7.13281 9.10938 4.20312 12.4297 2.44531C15.3594 0.882812 18.582 0.199219 22.0977 0.394531C25.418 0.785156 28.3477 1.95703 30.8867 3.91016C31.4727 4.30078 31.9609 4.98438 32.3516 5.96094C32.5469 6.9375 33.0352 7.91406 33.8164 8.89062C35.1836 10.6484 36.6484 12.2109 38.2109 13.5781C39.7734 14.9453 40.75 17.1914 41.1406 20.3164C41.5312 25.0039 41.2383 29.4961 40.2617 33.793C39.0898 38.2852 37.5273 42.3867 35.5742 46.0977C33.6211 50.0039 31.375 53.5195 28.8359 56.6445C26.2969 59.7695 23.7578 62.4062 21.2188 64.5547Z" fill="#BF0C0C"/>
</svg>
