<svg width="20" height="20" viewBox="0 0 20 20" fill="none" xmlns="http://www.w3.org/2000/svg">
<path d="M7.41657 4.25682L11.3563 8.18672C12.2087 9.03839 13.3148 9.59009 14.508 9.75873L9.7804 14.4746C9.61412 13.2822 9.0604 12.1775 8.20451 11.3307L4.26481 7.40074L7.41657 4.25682ZM8.20449 0.326915L0.32508 8.18672C0.116591 8.39567 -0.000343059 8.67887 7.56032e-07 8.97402C0.000344571 9.26917 0.117939 9.5521 0.326914 9.76056C0.535889 9.96902 0.819126 10.0859 1.11432 10.0856C1.40951 10.0853 1.69247 9.96768 1.90096 9.75873L2.68896 8.9727L6.62867 12.9026C6.93955 13.2116 7.18627 13.579 7.35463 13.9836C7.52298 14.3883 7.60966 14.8223 7.60966 15.2605C7.60966 15.6988 7.52298 16.1328 7.35463 16.5374C7.18627 16.9421 6.93955 17.3095 6.62867 17.6185L8.20455 19.1905L12.9086 14.4982L18.4241 20H20V18.428L14.4845 12.9262L19.2357 8.18672L17.6599 6.61476C17.0328 7.24134 16.1826 7.59331 15.296 7.59331C14.4095 7.59331 13.5593 7.24134 12.9322 6.61476L8.99246 2.68486L9.7804 1.89888C9.98889 1.68993 10.1058 1.40673 10.1055 1.11158C10.1051 0.816427 9.98754 0.533499 9.77856 0.325038C9.56959 0.116576 9.28635 -0.000343014 8.99116 7.55933e-07C8.69597 0.000344526 8.41298 0.117968 8.20449 0.326915Z" fill="#BF0C0C"/>
</svg>
