<?xml version="1.0" encoding="UTF-8"?>
<!DOCTYPE svg PUBLIC "-//W3C//DTD SVG 1.1//EN" "http://www.w3.org/Graphics/SVG/1.1/DTD/svg11.dtd">
<!-- Creator: CorelDRAW 2020 (64-Bit) -->
<svg xmlns="http://www.w3.org/2000/svg" xml:space="preserve" width="126.984mm" height="125.452mm" version="1.1" style="shape-rendering:geometricPrecision; text-rendering:geometricPrecision; image-rendering:optimizeQuality; fill-rule:evenodd; clip-rule:evenodd"
viewBox="0 0 781.35 771.92"
 xmlns:xlink="http://www.w3.org/1999/xlink"
 xmlns:xodm="http://www.corel.com/coreldraw/odm/2003">
 <defs>
  <style type="text/css">
   <![CDATA[
    .fil0 {fill:#BF0C0C}
   ]]>
  </style>
 </defs>
 <g id="Layer_x0020_1">
  <metadata id="CorelCorpID_0Corel-Layer"/>
  <g id="_2363894693648">
   <path class="fil0" d="M149.76 385.79c0,132.38 108.61,240.92 240.92,240.92 132.35,0 240.92,-108.56 240.92,-240.92 0,-132.37 -108.53,-240.92 -240.92,-240.92 -132.42,0 -240.92,108.5 -240.92,240.92zm97.4 -12.02l110.83 116.95 -53.72 -117.28 -57.11 0.33zm144.36 135.68l60.93 -136.86 -123.42 0.71 62.49 136.15zm-86.84 -158.65l35.68 -68.1 -46.33 0.27 -50.53 68.19 61.18 -0.35zm120.15 139.53l109.48 -118.21 -57.11 0.33 -52.37 117.89zm-94.52 -139.68l120.59 -0.69 -36.46 -67.69 -48.45 0.28 -35.68 68.1zm146.23 -0.84l61.18 -0.35 -51.31 -67.61 -46.33 0.27 36.46 67.69zm24.44 -86.08l68.42 90.14c1.66,2.11 2.44,4.55 2.34,7.32 -0.1,2.77 -1.09,5.16 -2.96,7.18l-168.71 182.03c-2.11,2.37 -4.87,3.56 -8.29,3.58 -3.42,0.02 -6.2,-1.14 -8.33,-3.49l-170.78 -180.09c-1.9,-1.99 -2.91,-4.37 -3.05,-7.15 -0.13,-2.77 0.62,-5.22 2.26,-7.35l67.38 -90.92c2.1,-3.08 5.1,-4.63 8.99,-4.65l203.69 -1.17c3.89,-0.02 6.91,1.49 9.05,4.55z"/>
   <path class="fil0" d="M125.34 393.93c0,-79.03 18.87,-123.43 61.84,-179.07 21.84,-28.28 59.24,-54.27 91.15,-70.01 80.11,-39.52 193.83,-30.24 264.91,23.26 6.65,5 12.19,9.42 18.36,14.19 28.28,21.84 54.27,59.24 70.01,91.15 39.53,80.13 30.22,193.86 -23.26,264.91 -30.7,40.79 -58.64,65.33 -105.34,88.37 -80.13,39.53 -193.86,30.22 -264.91,-23.26 -6.65,-5 -12.19,-9.42 -18.36,-14.19 -15.58,-12.03 -34.06,-34.18 -46.04,-50 -27.14,-35.85 -48.36,-95.08 -48.36,-145.35zm-125.34 -60.23c0,35.37 6.37,40.11 22.24,72.17 7.57,15.29 23.34,38.77 23.34,59.68 0,53.42 -33.42,123.59 35.78,159.56 12.17,6.33 26.29,11.37 39.65,17.32 12.98,5.78 28.24,10.99 38.55,18.43 18.03,13.02 34.32,42.6 48.48,63.84 9.71,14.56 12.31,19.99 26.13,30.85 52.28,41.08 108.48,-8.38 158.14,-8.38 16.62,0 35.57,7.73 49.88,11.98 37.21,11.05 67.66,23.41 104.08,-2.9 29.59,-21.37 46.15,-74.18 75.53,-95.39 39.05,-28.2 122.12,-27.13 122.12,-110.66 0,-28.47 -8.14,-54.84 -8.14,-83.02 0,-36.39 45.58,-84.83 45.58,-120.46 0,-18.07 -0.17,-29.68 -10.43,-46.55 -11.65,-19.16 -28.49,-30.53 -43.7,-45.83 -7.97,-8.02 -14.75,-14.82 -22.82,-22.76 -42.03,-41.43 -1.54,-161.42 -129.79,-159.96 -14.01,0.16 -53.33,-3.31 -62.1,-6.27 -10.24,-3.47 -19.84,-9.96 -27.91,-16.04 -24.74,-18.64 -58.59,-49.31 -87.43,-49.31 -37.65,0 -44.47,7.32 -72.55,28.37 -15.02,11.26 -36.9,29.56 -53.42,36.11 -30.88,12.24 -86.4,1.21 -118.23,16.87 -12.25,6.03 -17.34,10.37 -25.67,19.91 -17.25,19.77 -17.94,35.79 -25.07,64.46 -7.27,29.25 -7.99,48.33 -27.52,68.52l-42.57 40.45c-14.71,14.73 -32.15,33.47 -32.15,59.01z"/>
  </g>
 </g>
</svg>
