<svg width="150" height="150" viewBox="0 0 150 150" fill="none" xmlns="http://www.w3.org/2000/svg">
<circle cx="115.5" cy="59.5" r="27.5" fill="#F8A5A5"/>
<path d="M43.0862 74.3877L80.8736 97.8788L58.3203 70.3058L43.0862 74.3877ZM91.1399 100.537L97.844 59.7154L64.9233 68.5365L91.1399 100.537ZM56.8441 64.2308L61.6128 43.5416L49.2557 46.8527L40.5253 68.6034L56.8441 64.2308ZM98.7017 93.1017L119.681 53.8642L104.447 57.9461L98.7017 93.1017ZM63.683 62.3984L95.849 53.7795L81.3747 38.2465L68.4516 41.7092L63.683 62.3984ZM102.688 51.947L119.007 47.5744L100.571 33.1029L88.2135 36.414L102.688 51.947ZM103.196 27.2432L127.778 46.5385C128.37 46.9866 128.749 47.5842 128.915 48.3316C129.082 49.0789 128.985 49.7872 128.625 50.4566L96.2885 110.885C95.8911 111.665 95.2364 112.178 94.3246 112.422C93.4127 112.667 92.5896 112.55 91.8551 112.073L33.6364 75.9088C32.9901 75.5091 32.5522 74.9439 32.3228 74.2135C32.0933 73.483 32.1229 72.7758 32.4114 72.0919L44.0521 43.0909C44.399 42.1217 45.0912 41.4981 46.1289 41.2201L100.462 26.6615C101.5 26.3835 102.411 26.5774 103.196 27.2432Z" fill="#BF0C0C"/>
</svg>
