<svg width="23" height="26" viewBox="0 0 23 26" fill="none" xmlns="http://www.w3.org/2000/svg">
<path d="M20.3594 2.54492H15.1344C14.6094 1.09492 13.2344 0.0449219 11.6094 0.0449219C9.98438 0.0449219 8.60938 1.09492 8.08438 2.54492H2.85938C1.48438 2.54492 0.359375 3.66992 0.359375 5.04492V22.5449C0.359375 23.9199 1.48438 25.0449 2.85938 25.0449H20.3594C21.7344 25.0449 22.8594 23.9199 22.8594 22.5449V5.04492C22.8594 3.66992 21.7344 2.54492 20.3594 2.54492ZM11.6094 2.54492C12.2969 2.54492 12.8594 3.10742 12.8594 3.79492C12.8594 4.48242 12.2969 5.04492 11.6094 5.04492C10.9219 5.04492 10.3594 4.48242 10.3594 3.79492C10.3594 3.10742 10.9219 2.54492 11.6094 2.54492ZM11.6094 7.54492C13.6844 7.54492 15.3594 9.21992 15.3594 11.2949C15.3594 13.3699 13.6844 15.0449 11.6094 15.0449C9.53438 15.0449 7.85938 13.3699 7.85938 11.2949C7.85938 9.21992 9.53438 7.54492 11.6094 7.54492ZM19.1094 22.5449H4.10938V20.7949C4.10938 18.2949 9.10938 16.9199 11.6094 16.9199C14.1094 16.9199 19.1094 18.2949 19.1094 20.7949V22.5449Z" fill="#D21B1B"/>
</svg>
