<svg width="23" height="26" viewBox="0 0 23 26" fill="none" xmlns="http://www.w3.org/2000/svg">
<path d="M20.4141 3.04492H15.1891C14.6641 1.59492 13.2891 0.544922 11.6641 0.544922C10.0391 0.544922 8.66406 1.59492 8.13906 3.04492H2.91406C1.53906 3.04492 0.414062 4.16992 0.414062 5.54492V23.0449C0.414062 24.4199 1.53906 25.5449 2.91406 25.5449H20.4141C21.7891 25.5449 22.9141 24.4199 22.9141 23.0449V5.54492C22.9141 4.16992 21.7891 3.04492 20.4141 3.04492ZM11.6641 3.04492C12.3516 3.04492 12.9141 3.60742 12.9141 4.29492C12.9141 4.98242 12.3516 5.54492 11.6641 5.54492C10.9766 5.54492 10.4141 4.98242 10.4141 4.29492C10.4141 3.60742 10.9766 3.04492 11.6641 3.04492ZM14.1641 20.5449H5.41406V18.0449H14.1641V20.5449ZM17.9141 15.5449H5.41406V13.0449H17.9141V15.5449ZM17.9141 10.5449H5.41406V8.04492H17.9141V10.5449Z" fill="#D21B1B"/>
</svg>
