<svg width="23" height="24" viewBox="0 0 23 24" fill="none" xmlns="http://www.w3.org/2000/svg">
<path d="M0.414062 23.0449V5.63892H5.50806V0.544922H17.8201V10.7637H22.9141V23.0449H13.1956V17.9509H10.1326V23.0449H0.414062ZM2.50806 20.9509H5.50806V17.9509H2.50806V20.9509ZM2.50806 15.8577H5.50806V12.8262H2.50806V15.8577ZM2.50806 10.7637H5.50806V7.73217H2.50806V10.7637ZM7.60131 15.8577H10.6328V12.8262H7.60131V15.8577ZM7.60131 10.7637H10.6328V7.73217H7.60131V10.7637ZM7.60131 5.63892H10.6328V2.63892H7.60131V5.63892ZM12.6953 15.8577H15.7268V12.8262H12.6953V15.8577ZM12.6953 10.7637H15.7268V7.73217H12.6953V10.7637ZM12.6953 5.63892H15.7268V2.63892H12.6953V5.63892ZM17.8201 20.9509H20.8201V17.9509H17.8201V20.9509ZM17.8201 15.8577H20.8201V12.8262H17.8201V15.8577Z" fill="#BF0C0C"/>
</svg>
