<svg width="24" height="25" viewBox="0 0 24 25" fill="none" xmlns="http://www.w3.org/2000/svg">
<path d="M0.804688 24.5452V7.07617H8.46069V4.32667L12.0547 0.794922L15.6487 4.32667V12.2017H23.3047V24.5452H0.804688ZM2.89869 22.4512H5.92944V19.4204H2.89869V22.4512ZM2.89869 17.3264H5.92944V14.2949H2.89869V17.3264ZM2.89869 12.2017H5.92944V9.17017H2.89869V12.2017ZM10.5232 22.4512H13.5862V19.4204H10.5232V22.4512ZM10.5232 17.3264H13.5862V14.2949H10.5232V17.3264ZM10.5232 12.2017H13.5862V9.17017H10.5232V12.2017ZM10.5232 7.07617H13.5862V4.04542H10.5232V7.07617ZM18.1799 22.4512H21.2107V19.4204H18.1799V22.4512ZM18.1799 17.3264H21.2107V14.2949H18.1799V17.3264Z" fill="#BF0C0C"/>
</svg>
