<svg width="76" height="76" viewBox="0 0 76 76" fill="none" xmlns="http://www.w3.org/2000/svg">
<circle cx="38.0547" cy="38.2949" r="37.5" fill="#FCFCFC"/>
<circle cx="38.0547" cy="38.2949" r="30.9121" fill="#BF0C0C"/>
<path d="M52.2109 24.11C50.3688 22.2592 48.1751 20.7919 45.7576 19.7936C43.3401 18.7952 40.7472 18.2858 38.13 18.295C27.1632 18.295 18.2255 27.19 18.2154 38.11C18.2154 41.6075 19.1345 45.01 20.8699 48.0225L18.0547 58.2949L28.6122 55.5399C31.5328 57.1222 34.8049 57.9516 38.13 57.9524H38.1401C49.1094 57.9524 58.0446 49.0575 58.0547 38.1275C58.0572 35.5226 57.5419 32.943 56.5385 30.5372C55.5351 28.1314 54.0635 25.9471 52.2084 24.11H52.2109ZM38.13 54.5974C35.1642 54.5984 32.2528 53.8039 29.7021 52.2974L29.0994 51.9374L22.8362 53.5724L24.5087 47.49L24.117 46.8625C22.459 44.2383 21.5822 41.2 21.5881 38.1C21.5881 29.035 29.014 21.64 38.1401 21.64C40.3142 21.6362 42.4676 22.0607 44.4761 22.8893C46.4847 23.7178 48.3086 24.9339 49.8427 26.4675C51.3822 27.9951 52.6027 29.8111 53.4337 31.8106C54.2647 33.8101 54.6898 35.9536 54.6845 38.1175C54.6745 47.215 47.2486 54.5974 38.13 54.5974ZM47.2084 42.2625C46.7136 42.015 44.2701 40.8175 43.8106 40.6475C43.3535 40.485 43.0195 40.4 42.6931 40.895C42.359 41.3875 41.4048 42.51 41.1185 42.8325C40.8322 43.165 40.5358 43.2025 40.0386 42.9575C39.5439 42.7075 37.9392 42.1875 36.0406 40.495C34.559 39.1825 33.567 37.5575 33.2707 37.065C32.9844 36.57 33.243 36.305 33.4916 36.0575C33.7101 35.8375 33.9864 35.4775 34.235 35.1925C34.4861 34.9075 34.569 34.6975 34.7322 34.3675C34.8955 34.0325 34.8176 33.7475 34.6946 33.5C34.569 33.2525 33.577 30.81 33.1576 29.825C32.7558 28.8525 32.3465 28.9875 32.0401 28.975C31.7538 28.9575 31.4198 28.9575 31.0858 28.9575C30.8336 28.9638 30.5854 29.0218 30.3568 29.1281C30.1282 29.2344 29.9241 29.3865 29.7573 29.575C29.3003 30.07 28.022 31.2675 28.022 33.71C28.022 36.1525 29.8051 38.5 30.0562 38.8325C30.3023 39.165 33.5569 44.1625 38.5519 46.3125C39.7322 46.825 40.6614 47.1275 41.3872 47.3575C42.58 47.7375 43.6574 47.68 44.5163 47.5575C45.4706 47.4125 47.457 46.3575 47.8764 45.2C48.2882 44.04 48.2882 43.05 48.1627 42.8425C48.0396 42.6325 47.7056 42.51 47.2084 42.2625Z" fill="#FCFCFC"/>
</svg>
