<svg width="41" height="41" viewBox="0 0 41 41" fill="none" xmlns="http://www.w3.org/2000/svg">
<path d="M12.222 19.1289V22.4622H28.8887V19.1289H12.222ZM20.5553 4.12891C11.3553 4.12891 3.88867 11.5956 3.88867 20.7956C3.88867 29.9956 11.3553 37.4622 20.5553 37.4622C29.7553 37.4622 37.222 29.9956 37.222 20.7956C37.222 11.5956 29.7553 4.12891 20.5553 4.12891ZM20.5553 34.1289C13.2053 34.1289 7.22201 28.1456 7.22201 20.7956C7.22201 13.4456 13.2053 7.46224 20.5553 7.46224C27.9053 7.46224 33.8887 13.4456 33.8887 20.7956C33.8887 28.1456 27.9053 34.1289 20.5553 34.1289Z" fill="#F8A5A5"/>
</svg>
