<svg width="676" height="369" viewBox="0 0 676 369" fill="none" xmlns="http://www.w3.org/2000/svg">
<path d="M113.5 366C176.185 366 227 364.657 227 363C227 361.343 176.185 360 113.5 360C50.8156 360 0 361.343 0 363C0 364.657 50.8156 366 113.5 366Z" fill="#EBEBEB"/>
<path d="M235.688 217.264V20.1028C235.688 9.72129 244.365 1.27539 255.03 1.27539H656.656C667.322 1.27539 675.999 9.72129 675.999 20.1028V217.264C675.999 227.646 667.322 236.092 656.656 236.092H255.03C244.365 236.092 235.688 227.646 235.688 217.264V217.264ZM674.038 20.1028C674.038 10.7591 666.256 3.18447 656.657 3.18447H255.03C245.431 3.18447 237.649 10.7593 237.649 20.1033V217.264C237.649 226.608 245.431 234.183 255.03 234.183H528.211C608.749 234.183 674.038 170.632 674.038 92.2384V20.1028H674.038Z" fill="#D9D9D9"/>
<path d="M377.182 37.1396H152.09C145.416 37.1396 139.988 42.4224 139.988 48.919V129.405C139.988 135.902 145.416 141.184 152.09 141.184H377.182C383.856 141.184 389.284 135.902 389.284 129.405V48.919C389.284 42.4224 383.856 37.1396 377.182 37.1396V37.1396Z" fill="white"/>
<path d="M377.182 37.1396H152.09C145.416 37.1396 139.988 42.4224 139.988 48.919V129.405C139.988 135.902 145.416 141.184 152.09 141.184H377.182C383.856 141.184 389.284 135.902 389.284 129.405V48.919C389.284 42.4224 383.856 37.1396 377.182 37.1396V37.1396ZM388.011 129.405C388.011 135.22 383.156 139.946 377.182 139.946H152.09C146.115 139.946 141.261 135.22 141.261 129.405V48.919C141.261 43.1036 146.115 38.3783 152.09 38.3783H377.182C383.156 38.3783 388.011 43.1036 388.011 48.919V129.405V129.405Z" fill="#3F3D56"/>
<path d="M162.63 73.8203H362.682C364.578 73.8203 366.114 75.3161 366.114 77.1612C366.114 79.0063 364.578 80.5021 362.682 80.5021H162.63C160.734 80.5021 159.197 79.0063 159.197 77.1612C159.197 75.3161 160.734 73.8203 162.63 73.8203Z" fill="#EB650D"/>
<path d="M162.63 95.7754H235.198C237.093 95.7754 238.63 97.2712 238.63 99.1163C238.63 100.961 237.093 102.457 235.198 102.457H162.63C160.734 102.457 159.197 100.961 159.197 99.1163C159.197 97.2712 160.734 95.7754 162.63 95.7754Z" fill="#EB650D"/>
<path d="M599.464 63.6139H462.173C460.01 63.6139 458.25 61.901 458.25 59.7957C458.25 57.6904 460.01 55.9775 462.173 55.9775H599.464C601.626 55.9775 603.386 57.6904 603.386 59.7957C603.386 61.901 601.626 63.6139 599.464 63.6139Z" fill="#D9D9D9"/>
<path d="M625.49 146.419H434.184V145.465C497.173 154.868 561.006 154.094 625.49 145.465V146.419Z" fill="#D9D9D9"/>
<path d="M599.464 112.295H462.173C460.01 112.295 458.25 110.583 458.25 108.477C458.25 106.372 460.01 104.659 462.173 104.659H599.464C601.626 104.659 603.386 106.372 603.386 108.477C603.386 110.583 601.626 112.295 599.464 112.295Z" fill="#D9D9D9"/>
<path d="M626.47 158.828H435.164V159.783H626.47V158.828Z" fill="#D9D9D9"/>
<path d="M599.464 87.1832H462.173C460.01 87.1832 458.25 85.4703 458.25 83.365C458.25 81.2597 460.01 79.5469 462.173 79.5469H599.464C601.626 79.5469 603.386 81.2597 603.386 83.365C603.386 85.4703 601.626 87.1832 599.464 87.1832Z" fill="#D9D9D9"/>
<path d="M626.47 172.191C560.436 167.819 496.307 167.123 435.164 172.191V171.237H626.47V172.191Z" fill="#D9D9D9"/>
<path d="M362.452 156.659L354.381 152.938C357.691 157.434 360.543 164.457 362.07 170.045C364.656 164.84 368.824 158.47 372.95 154.666L364.42 156.802C369.676 131.728 389.445 113.727 412.084 113.727V111.818C388.437 111.818 367.818 130.573 362.452 156.659Z" fill="#3F3D56"/>
<path d="M399.598 194.864H348.604C346.441 194.864 344.682 193.151 344.682 191.046C344.682 188.94 346.441 187.228 348.604 187.228H399.598C401.761 187.228 403.521 188.94 403.521 191.046C403.521 193.151 401.761 194.864 399.598 194.864Z" fill="#EB650D"/>
<path d="M269.03 112.002C276.612 112.002 282.759 106.019 282.759 98.6389C282.759 91.2585 276.612 85.2754 269.03 85.2754C261.448 85.2754 255.301 91.2585 255.301 98.6389C255.301 106.019 261.448 112.002 269.03 112.002Z" fill="#EB650D"/>
<path d="M276.172 90.8133C275.518 90.4409 274.519 90.634 274.16 91.327C272.528 94.4737 270.896 97.6204 269.264 100.767C267.948 98.7599 266.264 97.0072 264.31 95.5381C263.681 95.065 262.662 95.4449 262.297 96.0518C261.853 96.7914 262.194 97.5365 262.825 98.0108C265.103 99.7238 266.86 102.026 268.043 104.567C268.492 105.533 270.114 105.472 270.583 104.567C272.622 100.636 274.661 96.704 276.7 92.7723C277.058 92.0823 276.887 91.2204 276.172 90.8133V90.8133V90.8133Z" fill="white"/>
<path d="M433.78 72.8668C441.362 72.8668 447.509 66.8837 447.509 59.5032C447.509 52.1227 441.362 46.1396 433.78 46.1396C426.198 46.1396 420.051 52.1227 420.051 59.5032C420.051 66.8837 426.198 72.8668 433.78 72.8668Z" fill="#EB650D"/>
<path d="M440.922 51.6776C440.268 51.3051 439.269 51.4983 438.91 52.1913C437.278 55.338 435.646 58.4847 434.014 61.6314C432.698 59.6241 431.014 57.8714 429.06 56.4024C428.431 55.9293 427.412 56.3092 427.047 56.916C426.603 57.6557 426.944 58.4007 427.575 58.875C429.853 60.5881 431.61 62.8905 432.793 65.4316C433.242 66.3976 434.864 66.3366 435.333 65.4316C437.372 61.4999 439.411 57.5683 441.45 53.6366C441.808 52.9466 441.637 52.0847 440.922 51.6776V51.6776V51.6776Z" fill="white"/>
<path d="M630.889 94.8218C638.472 94.8218 644.618 88.8388 644.618 81.4583C644.618 74.0778 638.472 68.0947 630.889 68.0947C623.307 68.0947 617.16 74.0778 617.16 81.4583C617.16 88.8388 623.307 94.8218 630.889 94.8218Z" fill="#EB650D"/>
<path d="M638.032 73.6327C637.377 73.2602 636.378 73.4533 636.019 74.1463C634.387 77.2931 632.755 80.4398 631.123 83.5865C629.807 81.5792 628.123 79.8265 626.169 78.3575C625.54 77.8843 624.521 78.2642 624.157 78.8711C623.712 79.6108 624.054 80.3558 624.684 80.8301C626.963 82.5431 628.719 84.8456 629.902 87.3867C630.352 88.3527 631.973 88.2917 632.442 87.3867C634.481 83.455 636.52 79.5233 638.559 75.5917C638.917 74.9016 638.747 74.0397 638.032 73.6327V73.6326V73.6327Z" fill="white"/>
<path d="M323.178 165.056H290.109C288.056 165.056 286.386 163.43 286.386 161.432C282.013 148.993 282.1 136.804 286.386 124.851C286.386 122.852 288.056 121.227 290.109 121.227H323.178C325.231 121.227 326.901 122.852 326.901 124.851V161.432C326.901 163.43 325.231 165.056 323.178 165.056H323.178V165.056Z" fill="#D9D9D9"/>
<path d="M297.195 122.308C291.839 122.308 287.496 126.535 287.496 131.749V160.657C287.496 162.491 289.023 163.977 290.908 163.977H309.195C318.362 163.977 325.793 156.744 325.793 147.821V125.628C325.793 123.794 324.266 122.308 322.382 122.308H297.195V122.308Z" fill="white"/>
<path d="M314.347 132.937H298.864C298.474 132.937 298.156 132.627 298.156 132.248C298.156 131.868 298.474 131.559 298.864 131.559H314.347C314.737 131.559 315.054 131.868 315.054 132.248C315.054 132.627 314.737 132.937 314.347 132.937Z" fill="#D9D9D9"/>
<path d="M314.347 147.63H298.864C298.474 147.63 298.156 147.321 298.156 146.941C298.156 146.561 298.474 146.252 298.864 146.252H314.347C314.737 146.252 315.054 146.561 315.054 146.941C315.054 147.321 314.737 147.63 314.347 147.63Z" fill="#D9D9D9"/>
<path d="M322.654 140.287H290.556C290.165 140.287 289.848 139.978 289.848 139.598C289.848 139.218 290.165 138.909 290.556 138.909H322.654C323.044 138.909 323.362 139.218 323.362 139.598C323.362 139.978 323.044 140.287 322.654 140.287Z" fill="#D9D9D9"/>
<path d="M323.031 153.605H309.638C309.247 153.605 308.93 153.295 308.93 152.915C308.93 152.536 309.247 152.227 309.638 152.227H323.031C323.422 152.227 323.739 152.536 323.739 152.915C323.739 153.295 323.421 153.605 323.031 153.605Z" fill="#D9D9D9"/>
<path d="M95.3455 64.977C96.2165 61.0669 96.4724 63.9473 98.367 60.4006C97.0665 64.9837 99.4662 63.483 102.654 67.0766C125.055 70.4955 126.466 63.0275 134.757 63.2564L134.799 63.2561C136.623 63.2273 137.56 61.1012 136.461 59.6843C133.745 56.1855 130.752 50.7868 133.585 47.3881C138.603 41.3669 134.181 29.0194 132.017 31.6888C132.017 21.3921 118.99 14.6398 113.937 16.3127C104.6 19.404 95.9524 23.5733 94.9051 32.9023C94.7416 34.359 94.5301 35.8072 94.2613 37.249C93.7153 40.177 91.4666 40.9545 92.2405 43.8301L94.6604 46.2262C95.7962 50.446 95.4374 54.8762 93.8816 58.9671C93.0215 61.2285 92.9023 63.1673 95.3455 64.977V64.977Z" fill="black"/>
<path d="M118.666 51.1585C126.421 51.1585 132.708 45.0393 132.708 37.4909C132.708 29.9424 126.421 23.8232 118.666 23.8232C110.912 23.8232 104.625 29.9424 104.625 37.4909C104.625 45.0393 110.912 51.1585 118.666 51.1585Z" fill="#A0616A"/>
<path d="M96.7949 349.072L104.026 349.238L108.057 317.616L97.3855 317.37L96.7949 349.072Z" fill="#A0616A"/>
<path d="M121.604 363.755C121.604 364.944 120.737 365.908 119.668 365.908H105.315C105.315 365.908 103.902 360.382 98.1436 358.003L97.7461 365.908H90.3418L91.2389 353.197C91.2389 353.197 89.2582 346.397 93.3717 342.921C97.4852 339.445 94.1534 339.929 94.1534 339.929L95.7716 332.062L106.96 333.342L107.043 345.692L112.472 357.95L120.437 361.779C121.145 362.12 121.604 362.896 121.604 363.755L121.604 363.755H121.604H121.604Z" fill="#D21B1B"/>
<path d="M104.746 320.382L110.49 324.661L132.879 301.416L124.404 295.1L104.746 320.382Z" fill="#A0616A"/>
<path d="M115.913 346.47C115.193 347.431 113.909 347.713 113.045 347.1L101.445 338.872C101.445 338.872 103.647 333.596 100.432 328.372L95.3279 334.533L89.3438 330.289L97.7592 320.53C97.7592 320.53 100.273 313.899 105.7 313.448C111.128 312.996 108.143 311.477 108.143 311.477L114.21 306.047L122.478 313.496L115.073 323.524L112.045 336.543L116.164 344.203C116.531 344.885 116.432 345.776 115.913 346.47L115.913 346.47H115.913Z" fill="#D21B1B"/>
<path d="M84.0553 187.385C84.4913 189.125 83.6882 197.223 84.1372 200.009C85.2789 207.093 95.7103 245.718 93.9108 256.729C87.3175 297.074 96.4364 322.956 96.4364 322.956H111.146L118.991 200.774L126.648 210.599L141.63 254.156L115.127 300.538L128.966 311.663L170.284 247.717L140.923 140.748L139.15 134.289L99.4793 133.212L101.687 136.431L96.6653 141.261C96.6653 141.261 96.6586 141.274 96.6319 141.3C95.8584 142.351 78.6672 165.893 84.0553 187.385V187.385L84.0553 187.385Z" fill="#2A0F0F"/>
<path d="M96.6309 141.299C101.225 142.896 132.273 141.248 140.922 140.748L139.149 134.289L99.4783 133.212L101.686 136.431L96.6642 141.261C96.6642 141.261 96.6575 141.274 96.6309 141.3V141.299H96.6309Z" fill="#A0616A"/>
<path d="M147.98 89.5763L146.551 96.9564L146.204 98.7265L138.604 113.911L139.603 136.171C140.242 138.776 113.256 132.864 99.2368 138.972L88.3242 88.1714L99.3893 64.7573L108.049 60.0745L109.492 54.4551H127.836C128.813 58.9085 127.754 61.1028 125.856 62.3658L130.451 74.2943L147.98 89.5763V89.5763L147.98 89.5763Z" fill="#DF3131"/>
<path d="M162.328 46.0471C162.101 47.9583 161.449 49.6612 160.549 50.9449L159.567 69.2846L150.615 68.5747L152.575 50.0474C151.999 48.5975 151.764 46.7948 151.991 44.8836C152.509 40.5175 155.244 37.2385 158.098 37.5598C160.953 37.8811 162.846 41.681 162.328 46.0471L162.328 46.0471V46.0471Z" fill="#A0616A"/>
<path d="M126.648 65.3203L127.816 68.0947C127.816 68.0947 110.753 66.4307 111.117 75.1027C111.428 82.5018 143.546 111.825 145.081 112.51V112.51C149.627 114.538 154.91 111.809 155.732 107.008C162.964 88.846 164.463 72.4716 161.158 57.5947H151.352L148.158 69.3307L147.979 78.2579L142.808 88.995L125.855 68.0947L126.648 65.3203V65.3203V65.3203Z" fill="#DF3131"/>
<path d="M69.7968 167.259C70.4273 165.389 70.5716 163.536 70.3004 161.967L77.4627 144.523L68.835 141.448L62.4985 159.475C61.3255 160.582 60.3134 162.158 59.6829 164.028C58.2426 168.3 59.339 172.486 62.1319 173.379C64.9248 174.271 68.3564 171.531 69.7968 167.259V167.259Z" fill="#A0616A"/>
<path d="M111.113 65.3289C111.113 65.3289 100.519 61.4189 94.5055 66.1966C92.0254 68.1669 81.0571 81.7437 79.3675 100.021C79.2351 101.454 78.2325 102.686 77.6677 104.026C74.1845 112.289 68.1879 116.094 65.638 123.161C64.6416 125.922 66.4692 133.064 65.8396 135.447C62.5428 147.921 63.7325 155.034 63.7325 155.034L72.6353 157.919L77.4647 154.597L85.3969 126.402L111.113 65.3289L111.113 65.3289Z" fill="#DF3131"/>
<path d="M190.789 43.8296H157.72C155.667 43.8296 153.997 42.2037 153.997 40.2052C149.625 27.766 149.711 15.5772 153.997 3.62435C153.997 1.62585 155.667 0 157.72 0H190.789C192.842 0 194.513 1.62585 194.513 3.62435V40.2052C194.513 42.2037 192.842 43.8296 190.789 43.8296V43.8296Z" fill="#D9D9D9"/>
<path d="M164.805 1.07812C159.448 1.07812 155.105 5.30507 155.105 10.5192V39.4274C155.105 41.2613 156.633 42.7479 158.517 42.7479H176.804C185.971 42.7479 193.402 35.5144 193.402 26.5914V4.39872C193.402 2.56481 191.875 1.07812 189.991 1.07812H164.805V1.07812Z" fill="white"/>
<path d="M181.958 11.712H166.476C166.085 11.712 165.768 11.4028 165.768 11.0229C165.768 10.643 166.085 10.334 166.476 10.334H181.958C182.348 10.334 182.666 10.643 182.666 11.0229C182.666 11.4028 182.348 11.712 181.958 11.712Z" fill="#D9D9D9"/>
<path d="M181.958 26.4063H166.476C166.085 26.4063 165.768 26.0972 165.768 25.7173C165.768 25.3373 166.085 25.0283 166.476 25.0283H181.958C182.348 25.0283 182.666 25.3373 182.666 25.7173C182.666 26.0972 182.348 26.4063 181.958 26.4063Z" fill="#D9D9D9"/>
<path d="M190.265 19.0626H158.167C157.777 19.0626 157.459 18.7534 157.459 18.3735C157.459 17.9936 157.777 17.6846 158.167 17.6846H190.265C190.656 17.6846 190.973 17.9936 190.973 18.3735C190.973 18.7534 190.656 19.0626 190.265 19.0626Z" fill="#D9D9D9"/>
<path d="M190.642 32.378H177.249C176.859 32.378 176.541 32.0689 176.541 31.6889C176.541 31.309 176.859 31 177.249 31H190.642C191.033 31 191.35 31.309 191.35 31.6889C191.35 32.0689 191.033 32.378 190.642 32.378Z" fill="#D9D9D9"/>
<path d="M200.309 350.163C202.335 350.286 203.454 347.836 201.922 346.408L201.769 345.818C201.789 345.771 201.809 345.724 201.83 345.676C203.879 340.921 210.822 340.954 212.854 345.716C214.657 349.943 216.952 354.177 217.517 358.646C217.771 360.619 217.657 362.629 217.207 364.565C221.432 355.582 223.655 345.773 223.655 335.909C223.655 333.431 223.516 330.952 223.231 328.48C222.996 326.458 222.673 324.448 222.255 322.456C219.994 311.692 215.098 301.439 208.036 292.876C204.641 291.069 201.809 288.246 200.099 284.861C199.485 283.64 199.003 282.327 198.775 280.989C199.162 281.038 200.232 275.311 199.941 274.959C200.479 274.164 201.443 273.769 202.031 272.993C204.956 269.133 208.985 269.807 211.089 275.052C215.582 277.259 215.626 280.921 212.868 284.442C211.114 286.682 210.873 289.713 209.334 292.111C209.492 292.308 209.657 292.5 209.815 292.697C212.719 296.322 215.231 300.219 217.348 304.312C216.749 299.763 217.633 294.282 219.139 290.749C220.853 286.723 224.067 283.333 226.896 279.853C230.295 275.672 237.265 277.497 237.864 282.796C237.87 282.847 237.875 282.898 237.881 282.95C237.461 283.18 237.049 283.426 236.647 283.684C234.352 285.161 235.145 288.623 237.864 289.032L237.925 289.041C237.773 290.514 237.513 291.975 237.133 293.412C240.764 307.077 232.926 312.054 221.736 312.278C221.489 312.401 221.248 312.524 221.001 312.641C222.135 315.749 223.041 318.936 223.712 322.167C224.314 325.021 224.732 327.907 224.966 330.804C225.257 334.46 225.232 338.135 224.915 341.785L224.934 341.655C225.739 337.635 227.981 333.881 231.237 331.279C236.087 327.401 242.939 325.973 248.171 322.856C250.689 321.355 253.917 323.294 253.477 326.137L253.456 326.273C252.677 326.581 251.917 326.939 251.182 327.339C250.762 327.57 250.35 327.815 249.948 328.074C247.653 329.551 248.446 333.013 251.165 333.421L251.226 333.431C251.271 333.437 251.309 333.443 251.353 333.449C250.017 336.538 248.154 339.405 245.824 341.877C243.554 353.806 233.805 354.938 223.376 351.464H223.37C222.23 356.298 220.564 361.02 218.423 365.521H200.752C200.688 365.33 200.631 365.132 200.574 364.941C202.208 365.04 203.855 364.947 205.464 364.658C204.153 363.092 202.842 361.513 201.531 359.947C201.499 359.917 201.474 359.886 201.448 359.855C200.783 359.053 200.112 358.258 199.447 357.457L199.446 357.456C199.405 354.995 199.708 352.543 200.308 350.163L200.309 350.163V350.163V350.163Z" fill="#A7F3D0"/>
<path d="M36 366.998C36 367.628 36.5198 368.134 37.167 368.134H251.233C251.88 368.134 252.4 367.628 252.4 366.998C252.4 366.368 251.88 365.862 251.233 365.862H37.167C36.5198 365.862 36 366.368 36 366.998Z" fill="#CCCCCC"/>
<path d="M122.472 21.322H119.614C111.251 21.3311 96.9562 32.845 102.487 40.9209C97.7642 53.184 97.5921 59.5645 99.5971 62.9039C100.335 64.1331 101.801 64.6931 103.26 64.5934C103.454 64.5802 103.65 64.5761 103.847 64.5824C105.261 64.6279 107.157 71.0962 108.473 71.5935L111.966 70.56L117.695 64.9876L114.788 56.4884L109.163 52.2044L109.929 42.2832C106.164 33.8602 110.26 33.4479 112.565 30.7309L112.799 39.4478L116.1 36.3466C118.789 36.4144 121.932 37.5492 124.021 35.1889C127.815 30.8674 131.749 36.085 136.232 37.1396L137.622 36.0682C137.67 33.638 137.3 31.2915 136.583 29.1903C136.246 28.2012 135.383 27.3861 135.347 26.403C135.211 22.7133 128.047 19.1344 122.472 21.322H122.472V21.322Z" fill="black"/>
</svg>
