<?xml version="1.0" encoding="UTF-8"?>
<!DOCTYPE svg PUBLIC "-//W3C//DTD SVG 1.1//EN" "http://www.w3.org/Graphics/SVG/1.1/DTD/svg11.dtd">
<!-- Creator: CorelDRAW 2020 (64-Bit) -->
<svg xmlns="http://www.w3.org/2000/svg" xml:space="preserve" width="126.984mm" height="125.452mm" version="1.1" style="shape-rendering:geometricPrecision; text-rendering:geometricPrecision; image-rendering:optimizeQuality; fill-rule:evenodd; clip-rule:evenodd"
viewBox="0 0 906.06 895.13"
 xmlns:xlink="http://www.w3.org/1999/xlink"
 xmlns:xodm="http://www.corel.com/coreldraw/odm/2003">
 <defs>
  <style type="text/css">
   <![CDATA[
    .fil0 {fill:#BF0C0C}
   ]]>
  </style>
 </defs>
 <g id="Layer_x0020_1">
  <metadata id="CorelCorpID_0Corel-Layer"/>
  <g id="_2364018224224">
   <path class="fil0" d="M145.35 456.81c0,-91.64 21.88,-143.13 71.71,-207.66 25.32,-32.79 68.7,-62.93 105.7,-81.18 92.9,-45.83 224.77,-35.07 307.2,26.97 7.71,5.8 14.13,10.93 21.3,16.46 32.79,25.32 62.93,68.7 81.18,105.7 45.84,92.92 35.05,224.8 -26.97,307.2 -35.6,47.31 -67.99,75.76 -122.15,102.47 -92.92,45.84 -224.8,35.05 -307.2,-26.97 -7.71,-5.8 -14.13,-10.93 -21.3,-16.46 -18.06,-13.95 -39.5,-39.63 -53.39,-57.98 -31.47,-41.58 -56.08,-110.25 -56.08,-168.55zm-145.35 -69.84c0,41.02 7.38,46.52 25.79,83.69 8.78,17.73 27.06,44.96 27.06,69.21 0,61.94 -38.76,143.31 41.49,185.02 14.11,7.34 30.48,13.19 45.98,20.08 15.06,6.7 32.75,12.74 44.7,21.37 20.91,15.1 39.79,49.4 56.21,74.03 11.25,16.88 14.27,23.18 30.3,35.77 60.63,47.63 125.8,-9.72 183.38,-9.72 19.27,0 41.25,8.96 57.84,13.89 43.15,12.81 78.46,27.15 120.69,-3.36 34.31,-24.79 53.52,-86.02 87.58,-110.62 45.28,-32.7 141.61,-31.46 141.61,-128.32 0,-33.02 -9.44,-63.59 -9.44,-96.27 0,-42.19 52.85,-98.37 52.85,-139.68 0,-20.95 -0.19,-34.42 -12.09,-53.98 -13.51,-22.21 -33.04,-35.41 -50.68,-53.14 -9.24,-9.3 -17.11,-17.18 -26.46,-26.4 -48.74,-48.04 -1.79,-187.18 -150.51,-185.49 -16.25,0.18 -61.85,-3.83 -72.01,-7.28 -11.87,-4.02 -23.01,-11.55 -32.36,-18.6 -28.68,-21.62 -67.94,-57.18 -101.38,-57.18 -43.66,0 -51.57,8.49 -84.14,32.9 -17.42,13.06 -42.79,34.28 -61.95,41.87 -35.81,14.19 -100.19,1.4 -137.1,19.57 -14.21,6.99 -20.11,12.02 -29.77,23.09 -20,22.93 -20.8,41.5 -29.07,74.75 -8.43,33.92 -9.27,56.05 -31.92,79.45l-49.36 46.91c-17.06,17.08 -37.28,38.81 -37.28,68.43z"/>
   <path class="fil0" d="M417.17 571.95c-23.79,0 -39.57,-21.64 -52.38,-34.45 -14.93,-14.93 -28.48,-28.48 -43.42,-43.42 -13.14,-13.14 -33.66,-27.98 -37.32,-49.66 -4.01,-23.72 13.73,-46.13 42.51,-46.13 32.4,0 74.76,68.88 92.49,73.62 2.33,-8.73 11.39,-14.22 17.46,-20.29l58.52 -58.52c13.36,-13.36 25.34,-25.34 38.7,-38.7 15.09,-15.09 43.99,-51.02 75.57,-19.89 35.67,35.17 -6.78,66.24 -29.32,88.78 -8.96,8.96 -16.53,16.53 -25.48,25.48l-102.87 104.77c-8.22,8.28 -18.89,18.4 -34.45,18.4zm-243.5 -124.58c0,153.51 125.94,279.37 279.37,279.37 153.48,0 279.37,-125.89 279.37,-279.37 0,-153.5 -125.85,-279.37 -279.37,-279.37 -153.55,0 -279.37,125.82 -279.37,279.37z"/>
  </g>
 </g>
</svg>
