<svg width="257" height="204" viewBox="0 0 257 204" fill="none" xmlns="http://www.w3.org/2000/svg">
<path d="M151.7 59.5531C151.7 59.5531 149.492 61.795 153.593 78.795C157.694 95.795 167.016 108.779 167.016 108.779C170.669 105.261 173.36 100.84 174.827 95.95C176.294 91.0595 176.487 85.8661 175.386 80.8775C171.891 63.2187 151.7 59.5531 151.7 59.5531Z" fill="#22272E"/>
<path d="M154.048 109.581C154.048 109.581 150.91 110.543 143.471 118.4C136.033 126.257 125.163 130.263 112.211 136.197C99.2586 142.131 92.9448 114.548 96.2612 100.603C99.3999 86.6522 113.628 77.0313 113.628 77.0313L141.238 80.8775C141.238 80.8775 150.397 69.8116 154.027 77.0259C157.522 84.2456 157.208 100.438 154.048 109.581Z" fill="#F4C2C9"/>
<path d="M130.367 160.73L36.2667 182.697C35.2908 182.929 34.2793 182.964 33.2903 182.798C32.3013 182.633 31.3542 182.271 30.5032 181.733C29.6523 181.195 28.9143 180.491 28.3315 179.663C27.7487 178.835 27.3327 177.898 27.1072 176.906L0.428958 59.5531C0.199156 58.5634 0.163883 57.5375 0.325158 56.5339C0.486434 55.5304 0.84109 54.569 1.36881 53.7049C1.89653 52.8408 2.58694 52.0909 3.40049 51.4982C4.21404 50.9055 5.13474 50.4817 6.10985 50.2509L100.211 28.2838C101.185 28.0512 102.195 28.0162 103.183 28.1807C104.171 28.3452 105.117 28.706 105.967 29.2424C106.818 29.7788 107.556 30.4803 108.139 31.3067C108.722 32.1331 109.138 33.0682 109.365 34.0584L135.891 151.406C136.155 152.387 136.221 153.413 136.084 154.42C135.946 155.428 135.609 156.396 135.093 157.268C134.577 158.139 133.892 158.896 133.08 159.491C132.267 160.086 131.345 160.507 130.367 160.73Z" fill="#22272E"/>
<path d="M90.7373 61.9545L29.4768 76.2291C28.9993 76.342 28.5043 76.3564 28.0213 76.2713C27.5382 76.1863 27.0768 76.0036 26.6646 75.734C26.2524 75.4645 25.8976 75.1136 25.6214 74.7022C25.3452 74.2909 25.1531 73.8273 25.0566 73.3391C24.9454 72.8546 24.9311 72.3522 25.0145 71.8619C25.0979 71.3716 25.2774 70.9033 25.5423 70.4847C25.8071 70.0661 26.152 69.7057 26.5565 69.425C26.961 69.1442 27.4168 68.9487 27.8971 68.8501L89.1576 54.5807C89.6347 54.4678 90.1293 54.4532 90.6121 54.5379C91.0949 54.6227 91.5561 54.8049 91.9682 55.0739C92.3804 55.3429 92.7352 55.6932 93.0117 56.1039C93.2882 56.5147 93.4807 56.9777 93.5778 57.4654C93.7196 58.4361 93.5098 59.426 92.9875 60.2515C92.4651 61.0771 91.6656 61.6821 90.7373 61.9545Z" fill="#F9845F"/>
<path d="M29.3199 92.7404L97.841 76.7073" stroke="#FCD9D9" stroke-width="5.43" stroke-linecap="round" stroke-linejoin="round"/>
<path d="M32.0034 104.449L100.525 88.4106" stroke="#FCD9D9" stroke-width="5.43" stroke-linecap="round" stroke-linejoin="round"/>
<path d="M72.8943 150.625L47.6337 156.559C47.1565 156.672 46.6619 156.687 46.1791 156.602C45.6963 156.517 45.2352 156.335 44.823 156.066C44.4108 155.797 44.056 155.447 43.7795 155.036C43.5031 154.625 43.3106 154.162 43.2135 153.675L37.3704 128.031C37.2593 127.546 37.2452 127.044 37.3289 126.553C37.4126 126.062 37.5925 125.594 37.8579 125.175C38.1233 124.757 38.4688 124.396 38.8739 124.116C39.279 123.835 39.7354 123.64 40.2161 123.542L65.4767 117.613C65.9538 117.5 66.4485 117.486 66.9313 117.571C67.414 117.655 67.8752 117.838 68.2874 118.107C68.6995 118.376 69.0544 118.726 69.3308 119.137C69.6073 119.547 69.7998 120.01 69.8969 120.498L75.7399 146.152C75.8751 147.121 75.6618 148.106 75.1391 148.928C74.6163 149.75 73.8193 150.352 72.8943 150.625Z" fill="#F9845F"/>
<path d="M79.2134 114.229L104.945 108.136" stroke="#FCD9D9" stroke-width="5.43" stroke-linecap="round" stroke-linejoin="round"/>
<path d="M82.0538 126.894L107.947 120.96" stroke="#FCD9D9" stroke-width="5.43" stroke-linecap="round" stroke-linejoin="round"/>
<path d="M84.8942 139.724L100.525 136.037" stroke="#FCD9D9" stroke-width="5.43" stroke-linecap="round" stroke-linejoin="round"/>
<path d="M70.8437 38.8663L37.3704 46.75C36.8256 46.8657 36.261 46.8412 35.7279 46.6786C35.1948 46.5161 34.7103 46.2208 34.3183 45.8195C33.9263 45.4182 33.6393 44.9238 33.4835 44.3811C33.3277 43.8385 33.308 43.2649 33.4262 42.7125L33.7401 41.1188C33.8869 40.4959 34.2007 39.9265 34.6467 39.4736C35.0926 39.0207 35.6533 38.702 36.2667 38.5529L68.3171 31.0091C68.9178 30.8594 69.5478 30.8852 70.1347 31.0835C70.7215 31.2819 71.2411 31.6447 71.6336 32.13L72.5804 33.4157C74.1602 35.4982 73.2343 38.3882 70.8437 38.8663Z" fill="#BF0C0C"/>
<path d="M143.471 71.0973C143.471 71.0973 139.522 73.1798 131.963 71.0973C124.404 69.0148 123.123 67.0863 115.224 65.0038C107.325 62.9213 96.4339 65.1632 94.5402 68.5313C92.6466 71.8994 97.6789 73.9819 104.479 74.7841C111.28 75.5863 114.418 88.7348 125.32 93.7019C143.471 101.883 159.572 76.8666 143.471 71.0973Z" fill="#F4C2C9"/>
<path d="M94.5246 68.5312C92.6309 71.8994 97.6632 73.9819 104.463 74.7841C111.264 75.5863 114.402 88.7347 125.304 93.7019C128.655 95.2816 132.416 95.732 136.038 94.9875" stroke="#E26E85" stroke-width="5.43" stroke-linecap="round" stroke-linejoin="round"/>
<path d="M155.471 63.7181C155.471 63.7181 147.102 69.1741 143.471 71.0972C143.471 71.0972 150.575 78.1522 153.41 90.8172C156.245 103.482 154.043 109.581 154.043 109.581C154.043 109.581 163.36 108.614 167.937 105.251C167.937 105.251 172.357 97.8722 168.727 83.4435C165.096 69.0147 155.471 63.7181 155.471 63.7181Z" fill="white"/>
<path d="M254.62 44.1575C253.174 39.2515 250.601 34.7649 247.112 31.0676C243.623 27.3703 239.318 24.5684 234.553 22.8929C229.788 21.2174 224.699 20.7163 219.706 21.431C214.713 22.1457 209.959 24.0557 205.835 27.0035C195.415 34.3772 184.519 41.5916 175.836 46.4047L151.7 59.7125C151.7 59.7125 165.436 73.4985 167.492 88.7347C169.548 103.971 167.016 108.922 167.016 108.922C167.016 108.922 204.753 99.4607 238.064 82.9441C252.114 75.7297 259.218 59.3725 254.641 44.1628L254.62 44.1575Z" fill="#BF0C0C"/>
<path d="M163.836 97.2188C163.835 96.8387 163.723 96.4674 163.514 96.1519C163.305 95.8363 163.009 95.5906 162.663 95.4459C162.317 95.3011 161.936 95.2638 161.569 95.3386C161.202 95.4134 160.865 95.597 160.601 95.8662C160.337 96.1353 160.157 96.478 160.084 96.8509C160.012 97.2238 160.049 97.6102 160.193 97.9613C160.336 98.3124 160.579 98.6125 160.89 98.8235C161.202 99.0346 161.568 99.1473 161.942 99.1473C162.194 99.157 162.445 99.1138 162.679 99.0202C162.913 98.9267 163.126 98.7849 163.304 98.6038C163.482 98.4226 163.621 98.2061 163.712 97.9677C163.804 97.7294 163.846 97.4744 163.836 97.2188Z" fill="#22272E"/>
</svg>
