<svg width="333" height="248" viewBox="0 0 333 248" fill="none" xmlns="http://www.w3.org/2000/svg">
<g clip-path="url(#clip0_7977_12355)">
<path d="M248.948 184.094L80.3546 179.283C76.5639 179.178 72.9416 177.7 70.1663 175.126C67.3911 172.552 65.6532 169.059 65.2784 165.301L57.1405 85.2173C56.9238 83.0737 57.1566 80.9086 57.8239 78.8592C58.4913 76.8098 59.5787 74.9208 61.0174 73.3119C62.456 71.703 64.2145 70.4092 66.1814 69.5125C68.1483 68.6158 70.2807 68.1357 72.4436 68.1027L260.101 65.5194C262.333 65.4893 264.545 65.9356 266.589 66.8282C268.633 67.7207 270.461 69.0389 271.951 70.694C273.441 72.3491 274.558 74.3027 275.226 76.4235C275.894 78.5443 276.099 80.7831 275.826 82.9892L264.9 170.467C264.419 174.308 262.518 177.831 259.568 180.351C256.619 182.871 252.832 184.205 248.948 184.094Z" fill="#EAF9F3"/>
<path d="M224.666 205.827H359.379C360.669 205.827 361.906 205.317 362.818 204.408C363.73 203.5 364.242 202.268 364.242 200.983V124.904C364.242 123.619 363.73 122.387 362.818 121.479C361.906 120.571 360.669 120.06 359.379 120.06H224.666C223.376 120.06 222.139 120.571 221.227 121.479C220.315 122.387 219.803 123.619 219.803 124.904V200.983C219.803 202.268 220.315 203.5 221.227 204.408C222.139 205.317 223.376 205.827 224.666 205.827Z" stroke="#3B1E1E" stroke-width="1.8" stroke-linecap="round" stroke-linejoin="round"/>
<path d="M46.6368 200.725H182.517C183.807 200.725 185.044 200.214 185.956 199.306C186.868 198.398 187.38 197.166 187.38 195.881V84.7008C187.38 83.4162 186.868 82.1841 185.956 81.2758C185.044 80.3674 183.807 79.8571 182.517 79.8571H46.6368C45.347 79.8571 44.11 80.3674 43.198 81.2758C42.2859 82.1841 41.7736 83.4162 41.7736 84.7008V195.881C41.7736 197.166 42.2859 198.398 43.198 199.306C44.11 200.214 45.347 200.725 46.6368 200.725V200.725Z" stroke="#3B1E1E" stroke-width="1.8" stroke-linecap="round" stroke-linejoin="round"/>
<path d="M256.99 97.3271H286.137V94.4531H256.99C256.913 94.4527 256.837 94.4674 256.766 94.4965C256.695 94.5256 256.63 94.5684 256.576 94.6224C256.522 94.6765 256.479 94.7407 256.449 94.8114C256.42 94.8822 256.406 94.9579 256.406 95.0344V96.7136C256.4 96.793 256.41 96.8729 256.437 96.9481C256.463 97.0232 256.505 97.092 256.56 97.1498C256.616 97.2077 256.682 97.2534 256.756 97.2839C256.83 97.3144 256.91 97.3292 256.99 97.3271V97.3271Z" stroke="#3B1E1E" stroke-width="1.8" stroke-linecap="round" stroke-linejoin="round"/>
<path d="M262.275 94.4529H268.856C269.199 94.4538 269.531 94.3294 269.788 94.1032C270.044 93.8771 270.209 93.5649 270.25 93.2258L270.769 88.5758C270.791 88.3807 270.771 88.1832 270.71 87.9963C270.65 87.8094 270.551 87.6373 270.419 87.4911C270.288 87.3449 270.127 87.2279 269.947 87.1477C269.767 87.0675 269.572 87.026 269.375 87.0258H261.756C261.559 87.0265 261.364 87.0684 261.185 87.1487C261.005 87.229 260.844 87.346 260.713 87.4921C260.582 87.6382 260.482 87.8102 260.422 87.9969C260.361 88.1835 260.341 88.3808 260.362 88.5758L260.881 93.2258C260.917 93.5669 261.08 93.882 261.338 94.1091C261.596 94.3362 261.93 94.4589 262.275 94.4529V94.4529Z" stroke="#3B1E1E" stroke-width="1.8" stroke-linecap="round" stroke-linejoin="round"/>
<path d="M266.327 87.0586C266.327 87.0586 268.921 86.8002 269.44 83.3127C269.44 83.3127 267.106 83.9908 266.36 85.6377C266.36 85.6377 266.036 81.9565 264.285 81.6013C264.285 81.6013 263.507 84.346 264.739 85.7023C264.739 85.7023 263.799 84.1523 261.399 84.1846C261.626 84.8647 262.016 85.4792 262.536 85.9745C263.056 86.4698 263.69 86.8309 264.382 87.0263" fill="#3B1E1E"/>
<path d="M225.703 136.11H254.948C255.308 136.107 255.653 135.963 255.908 135.71C256.163 135.456 256.307 135.112 256.31 134.753V125.905C256.307 125.546 256.163 125.203 255.908 124.949C255.653 124.695 255.308 124.552 254.948 124.549H225.703C225.343 124.552 224.998 124.695 224.743 124.949C224.489 125.203 224.344 125.546 224.342 125.905V134.753C224.344 135.112 224.489 135.456 224.743 135.71C224.998 135.963 225.343 136.107 225.703 136.11V136.11Z" stroke="#3B1E1E" stroke-width="1.8" stroke-linecap="round" stroke-linejoin="round"/>
<path d="M236.953 127.649H243.697C243.824 127.645 243.946 127.593 244.037 127.503C244.127 127.413 244.18 127.292 244.183 127.164C244.18 127.037 244.127 126.916 244.037 126.825C243.946 126.735 243.824 126.683 243.697 126.68H236.953C236.825 126.683 236.703 126.735 236.613 126.825C236.522 126.916 236.47 127.037 236.466 127.164C236.465 127.228 236.477 127.292 236.501 127.351C236.525 127.411 236.561 127.465 236.606 127.51C236.651 127.555 236.706 127.591 236.765 127.615C236.825 127.638 236.889 127.65 236.953 127.649Z" fill="#3B1E1E"/>
<path d="M225.702 150.899H254.947C255.307 150.896 255.652 150.753 255.907 150.499C256.162 150.245 256.306 149.902 256.309 149.543V140.695C256.306 140.336 256.162 139.992 255.907 139.739C255.652 139.485 255.307 139.341 254.947 139.339H225.702C225.342 139.341 224.997 139.485 224.742 139.739C224.488 139.992 224.343 140.336 224.341 140.695V149.51C224.339 149.691 224.372 149.87 224.439 150.037C224.507 150.204 224.606 150.357 224.733 150.486C224.859 150.615 225.01 150.717 225.176 150.788C225.343 150.859 225.521 150.897 225.702 150.899Z" stroke="#3B1E1E" stroke-width="1.8" stroke-linecap="round" stroke-linejoin="round"/>
<path d="M236.953 142.438H243.697C243.824 142.435 243.946 142.383 244.037 142.293C244.127 142.202 244.18 142.081 244.183 141.954C244.18 141.826 244.127 141.705 244.037 141.615C243.946 141.525 243.824 141.473 243.697 141.469H236.953C236.825 141.473 236.703 141.525 236.613 141.615C236.522 141.705 236.47 141.826 236.466 141.954C236.465 142.018 236.477 142.081 236.501 142.141C236.525 142.2 236.561 142.254 236.606 142.299C236.651 142.344 236.706 142.38 236.765 142.404C236.825 142.428 236.889 142.439 236.953 142.438Z" fill="#3B1E1E"/>
<path d="M75.5253 161.329H104.77C105.13 161.326 105.475 161.183 105.73 160.929C105.985 160.675 106.129 160.332 106.132 159.973V151.125C106.129 150.766 105.985 150.422 105.73 150.169C105.475 149.915 105.13 149.771 104.77 149.769H75.5253C75.1649 149.771 74.82 149.915 74.5652 150.169C74.3104 150.422 74.1661 150.766 74.1636 151.125V159.973C74.1661 160.332 74.3104 160.675 74.5652 160.929C74.82 161.183 75.1649 161.326 75.5253 161.329V161.329Z" stroke="#3B1E1E" stroke-width="1.8" stroke-linecap="round" stroke-linejoin="round"/>
<path d="M86.8075 152.901H93.5513C93.6792 152.898 93.801 152.845 93.8915 152.755C93.982 152.665 94.0343 152.544 94.0376 152.416C94.0343 152.289 93.982 152.168 93.8915 152.078C93.801 151.987 93.6792 151.935 93.5513 151.932H86.8075C86.6796 151.935 86.5578 151.987 86.4673 152.078C86.3768 152.168 86.3245 152.289 86.3212 152.416C86.3199 152.48 86.3315 152.544 86.3555 152.603C86.3795 152.663 86.4153 152.717 86.4607 152.762C86.5061 152.807 86.5603 152.843 86.6199 152.867C86.6795 152.89 86.7433 152.902 86.8075 152.901Z" fill="#3B1E1E"/>
<path d="M113.07 161.329H142.314C142.675 161.326 143.02 161.183 143.274 160.929C143.529 160.675 143.674 160.332 143.676 159.973V151.125C143.674 150.766 143.529 150.422 143.274 150.169C143.02 149.915 142.675 149.771 142.314 149.769H113.07C112.709 149.771 112.365 149.915 112.11 150.169C111.855 150.422 111.711 150.766 111.708 151.125V159.973C111.711 160.332 111.855 160.675 112.11 160.929C112.365 161.183 112.709 161.326 113.07 161.329V161.329Z" stroke="#3B1E1E" stroke-width="1.8" stroke-linecap="round" stroke-linejoin="round"/>
<path d="M124.352 152.901H131.096C131.224 152.898 131.346 152.845 131.436 152.755C131.527 152.665 131.579 152.544 131.582 152.416C131.579 152.289 131.527 152.168 131.436 152.078C131.346 151.987 131.224 151.935 131.096 151.932H124.352C124.224 151.935 124.102 151.987 124.012 152.078C123.921 152.168 123.869 152.289 123.866 152.416C123.864 152.48 123.876 152.544 123.9 152.603C123.924 152.663 123.96 152.717 124.005 152.762C124.051 152.807 124.105 152.843 124.164 152.867C124.224 152.89 124.288 152.902 124.352 152.901Z" fill="#3B1E1E"/>
<path d="M262.989 136.11H292.233C292.593 136.107 292.938 135.963 293.193 135.71C293.448 135.456 293.592 135.112 293.595 134.753V125.905C293.592 125.546 293.448 125.203 293.193 124.949C292.938 124.695 292.593 124.552 292.233 124.549H262.989C262.628 124.552 262.283 124.695 262.028 124.949C261.774 125.203 261.629 125.546 261.627 125.905V134.753C261.629 135.112 261.774 135.456 262.028 135.71C262.283 135.963 262.628 136.107 262.989 136.11V136.11Z" stroke="#3B1E1E" stroke-width="1.8" stroke-linecap="round" stroke-linejoin="round"/>
<path d="M274.238 127.649H280.982C281.11 127.645 281.231 127.593 281.322 127.503C281.412 127.413 281.465 127.292 281.468 127.164C281.465 127.037 281.412 126.916 281.322 126.825C281.231 126.735 281.11 126.683 280.982 126.68H274.238C274.11 126.683 273.988 126.735 273.898 126.825C273.807 126.916 273.755 127.037 273.752 127.164C273.75 127.228 273.762 127.292 273.786 127.351C273.81 127.411 273.846 127.465 273.891 127.51C273.937 127.555 273.991 127.591 274.05 127.615C274.11 127.638 274.174 127.65 274.238 127.649Z" fill="#3B1E1E"/>
<path d="M262.988 150.899H292.232C292.592 150.896 292.937 150.753 293.192 150.499C293.447 150.245 293.591 149.902 293.594 149.543V140.695C293.591 140.336 293.447 139.992 293.192 139.739C292.937 139.485 292.592 139.341 292.232 139.339H262.988C262.627 139.341 262.282 139.485 262.027 139.739C261.773 139.992 261.628 140.336 261.626 140.695V149.51C261.624 149.691 261.657 149.87 261.724 150.037C261.792 150.204 261.891 150.357 262.018 150.486C262.144 150.615 262.295 150.717 262.461 150.788C262.628 150.859 262.807 150.897 262.988 150.899Z" stroke="#3B1E1E" stroke-width="1.8" stroke-linecap="round" stroke-linejoin="round"/>
<path d="M274.238 142.438H280.982C281.11 142.435 281.231 142.383 281.322 142.293C281.412 142.202 281.465 142.081 281.468 141.954C281.465 141.826 281.412 141.705 281.322 141.615C281.231 141.525 281.11 141.473 280.982 141.469H274.238C274.11 141.473 273.988 141.525 273.898 141.615C273.807 141.705 273.755 141.826 273.752 141.954C273.75 142.018 273.762 142.081 273.786 142.141C273.81 142.2 273.846 142.254 273.891 142.299C273.937 142.344 273.991 142.38 274.05 142.404C274.11 142.428 274.174 142.439 274.238 142.438Z" fill="#3B1E1E"/>
<path d="M32.9548 113.699H180.474C180.869 113.695 181.245 113.537 181.524 113.259C181.803 112.982 181.961 112.606 181.966 112.214V86.4773C181.961 86.0846 181.803 85.7093 181.524 85.4316C181.245 85.1539 180.869 84.9961 180.474 84.9919H32.9548C32.5606 84.9961 32.1837 85.1539 31.9049 85.4316C31.6261 85.7093 31.4676 86.0846 31.4634 86.4773V112.214C31.463 112.409 31.5012 112.602 31.576 112.783C31.6508 112.963 31.7607 113.127 31.8993 113.265C32.0378 113.403 32.2024 113.512 32.3835 113.587C32.5647 113.661 32.7588 113.7 32.9548 113.699V113.699Z" stroke="#3B1E1E" stroke-width="1.8" stroke-linecap="round" stroke-linejoin="round"/>
<path d="M32.9548 145.668H180.474C180.869 145.664 181.245 145.506 181.524 145.228C181.803 144.951 181.961 144.575 181.966 144.183V118.446C181.961 118.053 181.803 117.678 181.524 117.4C181.245 117.123 180.869 116.965 180.474 116.961H32.9548C32.5605 116.965 32.1836 117.123 31.9049 117.4C31.6261 117.678 31.4676 118.053 31.4634 118.446V144.183C31.4676 144.575 31.6261 144.951 31.9049 145.228C32.1836 145.506 32.5605 145.664 32.9548 145.668V145.668Z" stroke="#3B1E1E" stroke-width="1.8" stroke-linecap="round" stroke-linejoin="round"/>
<path d="M172.054 97.4628H168.845V113.706H172.054V97.4628Z" stroke="#3B1E1E" stroke-width="1.8" stroke-linecap="round" stroke-linejoin="round"/>
<path d="M168.832 101.893H165.492V113.712H168.832V101.893Z" stroke="#3B1E1E" stroke-width="1.8" stroke-linecap="round" stroke-linejoin="round"/>
<path d="M75.3143 129.379H72.1045V145.622H75.3143V129.379Z" stroke="#3B1E1E" stroke-width="1.8" stroke-linecap="round" stroke-linejoin="round"/>
<path d="M72.0914 133.81H68.752V145.629H72.0914V133.81Z" stroke="#3B1E1E" stroke-width="1.8" stroke-linecap="round" stroke-linejoin="round"/>
<path d="M81.8271 129.379H78.6173V145.622H81.8271V129.379Z" stroke="#3B1E1E" stroke-width="1.8" stroke-linecap="round" stroke-linejoin="round"/>
<path d="M84.8316 129.013L81.7708 129.975L86.6802 145.464L89.741 144.502L84.8316 129.013Z" stroke="#3B1E1E" stroke-width="1.8" stroke-linecap="round" stroke-linejoin="round"/>
<path d="M78.6372 133.81H75.2978V145.629H78.6372V133.81Z" stroke="#3B1E1E" stroke-width="1.8" stroke-linecap="round" stroke-linejoin="round"/>
<path d="M72.1531 99.5869L71.7965 94.7754C71.7896 94.7001 71.7988 94.6242 71.8236 94.5527C71.8484 94.4812 71.8882 94.4158 71.9403 94.3608C71.9924 94.3059 72.0557 94.2626 72.126 94.2338C72.1962 94.2051 72.2718 94.1916 72.3477 94.1942H75.136C75.211 94.1945 75.2852 94.21 75.3541 94.2398C75.4229 94.2695 75.485 94.3129 75.5366 94.3672C75.5881 94.4216 75.628 94.4858 75.6539 94.5559C75.6798 94.6261 75.6911 94.7008 75.6871 94.7754L75.3305 99.5869C75.3305 99.5869 78.2485 101.46 78.216 103.01C78.1836 104.205 77.4703 109.92 77.1461 112.439C77.1048 112.778 76.9401 113.09 76.6832 113.316C76.4262 113.543 76.0949 113.667 75.752 113.666H71.7317C71.3888 113.667 71.0574 113.543 70.8005 113.316C70.5435 113.09 70.3788 112.778 70.3375 112.439C70.0133 109.92 69.3 104.205 69.2676 103.01C69.2352 101.46 72.1531 99.5869 72.1531 99.5869Z" fill="#3B1E1E"/>
<path d="M279.361 176.118H-30.5272" stroke="#3B1E1E" stroke-width="1.8" stroke-linecap="round" stroke-linejoin="round"/>
<path d="M137.936 145.667H110.961C110.54 145.666 110.137 145.499 109.839 145.203C109.541 144.906 109.374 144.504 109.373 144.085V139.822C109.374 139.403 109.541 139.001 109.839 138.705C110.137 138.408 110.54 138.241 110.961 138.24H137.936C138.357 138.241 138.761 138.408 139.059 138.705C139.357 139.001 139.524 139.403 139.525 139.822V144.053C139.528 144.263 139.489 144.471 139.411 144.667C139.332 144.862 139.216 145.039 139.068 145.19C138.921 145.34 138.745 145.459 138.55 145.541C138.356 145.623 138.147 145.666 137.936 145.667V145.667Z" stroke="#3B1E1E" stroke-width="1.8" stroke-linecap="round" stroke-linejoin="round"/>
<path d="M134.143 131.459H114.69V138.24H134.143V131.459Z" stroke="#3B1E1E" stroke-width="1.8" stroke-linecap="round" stroke-linejoin="round"/>
<path d="M112.42 141.211C112.688 141.211 112.906 140.994 112.906 140.727C112.906 140.459 112.688 140.242 112.42 140.242C112.151 140.242 111.933 140.459 111.933 140.727C111.933 140.994 112.151 141.211 112.42 141.211Z" fill="#3B1E1E"/>
<path d="M132.716 149.51H129.377L129.02 153.644H132.23L132.716 149.51Z" fill="#FFD6D3"/>
<path d="M129.021 153.644L124.774 201.758C124.765 201.888 124.782 202.018 124.825 202.141C124.868 202.264 124.936 202.377 125.023 202.474C125.111 202.57 125.217 202.648 125.336 202.703C125.455 202.757 125.583 202.787 125.714 202.791C125.947 202.791 126.172 202.706 126.345 202.551C126.518 202.396 126.628 202.183 126.654 201.952L132.231 153.644H129.021Z" fill="#B0D7C0"/>
<path d="M161.897 149.51H158.557L159.044 153.644H162.253L161.897 149.51Z" fill="#B0D7C0"/>
<path d="M159.043 153.644L164.62 201.952C164.658 202.19 164.786 202.404 164.978 202.551C165.17 202.698 165.411 202.766 165.652 202.741C165.892 202.716 166.114 202.6 166.272 202.418C166.43 202.235 166.511 201.999 166.5 201.758L162.253 153.644H159.043Z" fill="#B0D7C0"/>
<path d="M163.128 175.667H128.696V177.314H163.128V175.667Z" fill="#B0D7C0"/>
<path d="M165.333 150.706H125.94C125.791 150.707 125.643 150.678 125.505 150.621C125.367 150.565 125.241 150.482 125.136 150.377C125.03 150.271 124.947 150.147 124.89 150.009C124.833 149.872 124.805 149.724 124.805 149.575V149.479C124.805 149.33 124.833 149.183 124.89 149.045C124.947 148.908 125.03 148.783 125.136 148.678C125.241 148.572 125.367 148.489 125.505 148.433C125.643 148.376 125.791 148.348 125.94 148.348H165.365C165.515 148.348 165.662 148.376 165.801 148.433C165.939 148.489 166.064 148.572 166.17 148.678C166.275 148.783 166.359 148.908 166.415 149.045C166.472 149.183 166.501 149.33 166.5 149.479V149.575C166.495 149.879 166.369 150.169 166.151 150.38C165.932 150.592 165.638 150.709 165.333 150.706Z" fill="#130F26"/>
<path d="M226.059 130.717L197.042 128.941C196.531 128.913 196.033 128.777 195.579 128.541C195.126 128.306 194.728 127.978 194.412 127.578C194.096 127.177 193.869 126.715 193.747 126.22C193.624 125.726 193.609 125.211 193.702 124.711L204.758 63.0014C204.948 61.9725 205.468 61.0326 206.24 60.3224C207.011 59.6123 207.993 59.17 209.038 59.0618L238.185 56.2524C238.739 56.2003 239.298 56.2757 239.818 56.4727C240.338 56.6698 240.806 56.9833 241.185 57.389C241.564 57.7947 241.844 58.2817 242.004 58.8125C242.164 59.3434 242.2 59.9037 242.108 60.4504L231.085 126.713C230.898 127.884 230.279 128.943 229.35 129.684C228.421 130.424 227.247 130.793 226.059 130.717Z" fill="#F8AB5D"/>
<path d="M224.47 130.523L195.452 128.747C194.942 128.718 194.443 128.582 193.99 128.347C193.537 128.112 193.139 127.783 192.823 127.383C192.507 126.983 192.28 126.52 192.158 126.026C192.035 125.532 192.02 125.017 192.113 124.516L203.169 62.807C203.359 61.778 203.879 60.8382 204.651 60.128C205.422 59.4179 206.404 58.9756 207.448 58.8674L236.596 56.058C237.15 56.0059 237.708 56.0812 238.228 56.2783C238.749 56.4754 239.216 56.7888 239.595 57.1945C239.975 57.6002 240.255 58.0873 240.415 58.6181C240.575 59.1489 240.611 59.7093 240.519 60.2559L229.495 126.518C229.303 127.687 228.683 128.743 227.755 129.482C226.827 130.222 225.656 130.592 224.47 130.523Z" fill="#BF0C0C"/>
<path d="M253.715 95.648L209.037 96.423C208.765 96.4273 208.495 96.3714 208.246 96.2594C207.998 96.1474 207.778 95.9821 207.601 95.7753C207.424 95.5685 207.296 95.3254 207.225 95.0633C207.153 94.8013 207.141 94.5268 207.189 94.2595L210.464 75.6918C210.557 75.1794 210.817 74.7118 211.204 74.3616C211.591 74.0113 212.083 73.7978 212.604 73.7543L256.697 70.8157C257.05 70.793 257.403 70.8498 257.73 70.982C258.057 71.1142 258.35 71.3183 258.587 71.5792C258.824 71.84 258.999 72.1508 259.098 72.4883C259.198 72.8258 259.219 73.1813 259.161 73.5282L255.919 93.7105C255.859 94.2485 255.6 94.7448 255.192 95.103C254.785 95.4611 254.258 95.6554 253.715 95.648Z" fill="#F8AB5D"/>
<path d="M248.787 125.583L204.11 123.645C203.847 123.631 203.59 123.562 203.356 123.443C203.121 123.324 202.915 123.157 202.75 122.952C202.584 122.748 202.464 122.512 202.397 122.258C202.33 122.005 202.317 121.74 202.359 121.481L205.731 102.462C205.828 101.922 206.111 101.433 206.531 101.079C206.951 100.726 207.483 100.529 208.033 100.524L252.191 100.169C252.532 100.168 252.87 100.241 253.18 100.383C253.49 100.524 253.765 100.731 253.987 100.989C254.209 101.247 254.372 101.549 254.465 101.876C254.558 102.203 254.579 102.546 254.526 102.881L251.219 123.645C251.12 124.208 250.818 124.715 250.371 125.071C249.923 125.428 249.36 125.61 248.787 125.583Z" fill="#F8AB5D"/>
<path d="M202.488 66.5208L239.968 63.55" stroke="#F8AB5D" stroke-width="1.8" stroke-linecap="round" stroke-linejoin="round"/>
<path d="M221.552 62.0326L218.342 62.3233C218.05 62.3555 217.888 62.1295 217.921 61.8066C217.948 61.6537 218.021 61.5127 218.131 61.403C218.242 61.2932 218.383 61.2199 218.537 61.193L221.746 60.9024C222.038 60.8701 222.233 61.0962 222.168 61.4191C222.136 61.5698 222.061 61.7081 221.951 61.817C221.842 61.926 221.703 62.0009 221.552 62.0326Z" fill="#130F26"/>
<path d="M223.693 61.8382C223.401 61.8705 223.206 61.6444 223.271 61.3215C223.298 61.1686 223.372 61.0277 223.482 60.9179C223.592 60.8081 223.734 60.7348 223.887 60.708C224.179 60.6757 224.374 60.9017 224.309 61.2247C224.292 61.3818 224.222 61.5286 224.11 61.6404C223.998 61.7521 223.851 61.822 223.693 61.8382Z" fill="#130F26"/>
<path d="M259.81 64.034L247.457 64.9705C247.355 64.983 247.251 64.971 247.154 64.9354C247.057 64.8998 246.97 64.8417 246.9 64.7659C246.831 64.69 246.78 64.5987 246.753 64.4995C246.726 64.4003 246.723 64.2961 246.744 64.1955L247.976 56.7361C248.01 56.5148 248.119 56.3115 248.283 56.1592C248.448 56.0068 248.66 55.9142 248.884 55.8965L261.107 54.6049C261.228 54.5918 261.35 54.6064 261.465 54.6477C261.579 54.689 261.683 54.7559 261.767 54.8432C261.852 54.9304 261.915 55.0358 261.952 55.1512C261.99 55.2667 262 55.389 261.982 55.509L260.783 63.1944C260.725 63.4158 260.601 63.6145 260.427 63.7643C260.253 63.9142 260.038 64.0082 259.81 64.034V64.034Z" stroke="#FFD6D3" stroke-width="1.8" stroke-linecap="round" stroke-linejoin="round"/>
<path d="M248.301 56.0902L253.683 59.5454C253.827 59.64 253.996 59.6904 254.169 59.6904C254.342 59.6904 254.511 59.64 254.656 59.5454L261.659 54.7662" stroke="#FFD6D3" stroke-width="1.8" stroke-linecap="round" stroke-linejoin="round"/>
<path d="M204.077 77.9839L193.929 78.5329L192.437 79.5016C192.36 79.5522 192.269 79.5788 192.177 79.578C192.084 79.5772 191.994 79.5491 191.918 79.4972C191.841 79.4453 191.782 79.372 191.748 79.2866C191.713 79.2011 191.705 79.1074 191.724 79.0172L193.313 70.2339C193.375 69.8924 193.548 69.5808 193.806 69.3473C194.064 69.1138 194.392 68.9715 194.739 68.9422L205.309 68.135C205.47 68.1208 205.632 68.1436 205.783 68.2018C205.934 68.2599 206.07 68.3518 206.179 68.4704C206.289 68.5889 206.37 68.731 206.416 68.8856C206.461 69.0402 206.471 69.2032 206.444 69.362L205.082 77.0475C205.046 77.2942 204.927 77.5215 204.745 77.6918C204.562 77.862 204.326 77.9651 204.077 77.9839Z" fill="#FFD6D3"/>
<path d="M195.291 71.5256L203.85 70.912" stroke="#130F26" stroke-width="1.8" stroke-linecap="round" stroke-linejoin="round"/>
<path d="M194.902 73.69L203.461 73.1088" stroke="#130F26" stroke-width="1.8" stroke-linecap="round" stroke-linejoin="round"/>
<path d="M194.513 75.8208L198.987 75.5625" stroke="#130F26" stroke-width="1.8" stroke-linecap="round" stroke-linejoin="round"/>
<path d="M251.315 93.6776L206.638 94.4525C206.365 94.4568 206.095 94.4009 205.847 94.2889C205.599 94.1769 205.378 94.0116 205.202 93.8048C205.025 93.5981 204.897 93.3549 204.825 93.0928C204.754 92.8308 204.742 92.5563 204.79 92.289L208.065 73.7213C208.158 73.2089 208.418 72.7413 208.805 72.3911C209.191 72.0408 209.683 71.8273 210.204 71.7838L254.298 68.8453C254.651 68.8225 255.004 68.8793 255.331 69.0115C255.658 69.1437 255.951 69.3479 256.188 69.6087C256.425 69.8695 256.6 70.1803 256.699 70.5178C256.799 70.8553 256.82 71.2108 256.762 71.5578L253.52 91.7401C253.455 92.276 253.194 92.7694 252.788 93.1266C252.381 93.4838 251.857 93.6799 251.315 93.6776Z" fill="#130F26"/>
<path d="M218.213 79.6307C217.986 80.9547 216.819 82.0849 215.619 82.1495C214.42 82.214 213.641 81.1807 213.868 79.8568C214.095 78.5328 215.263 77.4026 216.462 77.338C217.662 77.2734 218.44 78.3068 218.213 79.6307Z" fill="#BF0C0C"/>
<path d="M217.37 88.1236L212.053 88.2851C211.883 88.2919 211.714 88.2608 211.559 88.1943C211.403 88.1277 211.264 88.0273 211.152 87.9004C211.04 87.7735 210.958 87.6233 210.912 87.4608C210.866 87.2983 210.857 87.1276 210.885 86.9611L210.983 86.3799C211.404 83.9903 213.479 81.9559 215.651 81.8914C217.824 81.7945 219.283 83.6997 218.861 86.1216L218.731 86.9611C218.668 87.2788 218.499 87.5659 218.252 87.7767C218.005 87.9875 217.695 88.1097 217.37 88.1236Z" fill="#BF0C0C"/>
<path d="M246.518 79.8576L225.346 80.8263C225.242 80.8339 225.137 80.8173 225.04 80.7779C224.944 80.7385 224.857 80.6773 224.788 80.5991C224.719 80.5209 224.669 80.4279 224.642 80.3272C224.615 80.2266 224.612 80.1211 224.633 80.0191L224.86 78.5982C224.902 78.3659 225.02 78.1542 225.196 77.9963C225.372 77.8384 225.596 77.7434 225.832 77.7263L247.036 76.6284C247.141 76.6188 247.247 76.634 247.345 76.6727C247.442 76.7114 247.53 76.7727 247.599 76.8514C247.669 76.9301 247.719 77.024 247.745 77.1256C247.771 77.2271 247.773 77.3334 247.75 77.4357L247.49 78.9857C247.459 79.2225 247.344 79.4404 247.165 79.6001C246.987 79.7599 246.757 79.8512 246.518 79.8576Z" fill="#FFD6D3"/>
<path d="M225.119 84.636L225.443 85.6371L226.448 85.7985L225.573 86.6704L225.508 87.8006L224.665 87.3485L223.627 87.8652L223.952 86.735L223.368 85.9277L224.438 85.6693L225.119 84.636Z" fill="#BF0C0C"/>
<path d="M229.982 84.4745L230.339 85.4756L231.344 85.6371L230.468 86.5089L230.436 87.6391L229.528 87.187L228.491 87.7037L228.815 86.5735L228.231 85.7339L229.301 85.5079L229.982 84.4745Z" fill="#BF0C0C"/>
<path d="M234.975 84.2812L235.332 85.2823L236.369 85.476L235.461 86.3479L235.429 87.5104L234.521 87.026L233.451 87.575L233.775 86.4125L233.159 85.5729L234.294 85.3146L234.975 84.2812Z" fill="#BF0C0C"/>
<path d="M240.065 84.088L240.422 85.1213L241.492 85.2827L240.584 86.1869L240.552 87.3494L239.611 86.865L238.509 87.414L238.866 86.2192L238.217 85.4119L239.352 85.1536L240.065 84.088Z" fill="#BF0C0C"/>
<path d="M245.285 83.8937L245.642 84.9271L246.744 85.1208L245.804 85.9927L245.771 87.1875L244.799 86.7031L243.696 87.2521L244.053 86.0573L243.405 85.2177L244.539 84.9594L245.285 83.8937Z" fill="#BF0C0C"/>
<path d="M246.355 123.613L201.711 121.643C201.448 121.629 201.191 121.56 200.956 121.441C200.722 121.321 200.516 121.154 200.35 120.95C200.185 120.746 200.065 120.51 199.998 120.256C199.93 120.003 199.918 119.738 199.96 119.479L203.332 100.459C203.428 99.9198 203.711 99.4309 204.132 99.0771C204.552 98.7233 205.083 98.5269 205.634 98.5219L249.792 98.1667C250.133 98.1658 250.47 98.2387 250.78 98.3802C251.09 98.5218 251.366 98.7286 251.588 98.9865C251.81 99.2444 251.973 99.5472 252.066 99.8739C252.159 100.201 252.18 100.544 252.127 100.879L248.82 121.643C248.721 122.214 248.416 122.729 247.962 123.092C247.508 123.455 246.937 123.64 246.355 123.613Z" fill="#130F26"/>
<path d="M213.447 107.111C213.22 108.468 212.053 109.566 210.821 109.533C209.589 109.501 208.843 108.403 209.07 107.047C209.297 105.691 210.464 104.625 211.664 104.625C212.863 104.625 213.706 105.755 213.447 107.111Z" fill="#BF0C0C"/>
<path d="M212.507 115.831L207.19 115.669C207.027 115.661 206.869 115.62 206.723 115.547C206.578 115.475 206.449 115.373 206.346 115.249C206.242 115.124 206.166 114.98 206.121 114.824C206.077 114.669 206.065 114.505 206.087 114.345L206.217 113.667C206.638 111.213 208.714 109.275 210.886 109.308C213.058 109.34 214.517 111.374 214.063 113.861L213.933 114.668C213.876 115 213.7 115.301 213.438 115.514C213.176 115.728 212.845 115.84 212.507 115.831Z" fill="#BF0C0C"/>
<path d="M241.686 109.114L220.515 108.823C220.414 108.821 220.316 108.798 220.225 108.755C220.134 108.713 220.054 108.651 219.989 108.574C219.925 108.498 219.877 108.408 219.851 108.312C219.824 108.215 219.818 108.114 219.834 108.016L220.093 106.53C220.134 106.286 220.26 106.063 220.45 105.903C220.641 105.744 220.882 105.657 221.131 105.658L242.335 105.82C242.435 105.821 242.534 105.844 242.625 105.887C242.715 105.93 242.796 105.992 242.86 106.069C242.925 106.145 242.972 106.235 242.999 106.331C243.026 106.427 243.031 106.528 243.016 106.627L242.756 108.242C242.703 108.486 242.568 108.705 242.374 108.863C242.18 109.022 241.937 109.11 241.686 109.114Z" fill="#FFD6D3"/>
<path d="M220.32 112.73L220.644 113.763L221.649 113.989L220.774 114.829L220.741 115.991L219.866 115.442L218.828 115.927L219.153 114.764L218.601 113.925L219.639 113.731L220.32 112.73Z" fill="#BF0C0C"/>
<path d="M225.216 112.828L225.54 113.861L226.578 114.119L225.67 114.959L225.638 116.121L224.73 115.605L223.692 116.089L224.016 114.927L223.433 114.022L224.535 113.861L225.216 112.828Z" fill="#BF0C0C"/>
<path d="M230.208 112.956L230.533 113.989L231.603 114.248L230.695 115.087L230.63 116.282L229.722 115.733L228.652 116.217L229.009 115.055L228.393 114.151L229.495 113.989L230.208 112.956Z" fill="#BF0C0C"/>
<path d="M235.299 113.053L235.655 114.118L236.725 114.377L235.785 115.249L235.753 116.443L234.812 115.894L233.71 116.379L234.067 115.184L233.451 114.28L234.585 114.086L235.299 113.053Z" fill="#FFD6D3"/>
<path d="M240.487 113.182L240.876 114.248L241.946 114.506L241.005 115.378L240.973 116.605L240.033 116.024L238.898 116.541L239.255 115.314L238.606 114.442L239.773 114.248L240.487 113.182Z" fill="#FFD6D3"/>
<path d="M245.577 49.1802C245.404 48.9926 245.18 48.86 244.932 48.799C244.684 48.738 244.423 48.7513 244.183 48.8372C243.942 48.9232 243.733 49.078 243.58 49.2822C243.428 49.4864 243.339 49.731 243.326 49.9851C243.312 50.2392 243.375 50.4916 243.505 50.7106C243.635 50.9296 243.827 51.1055 244.057 51.2161C244.287 51.3268 244.545 51.3673 244.798 51.3325C245.051 51.2978 245.288 51.1893 245.48 51.0208C245.609 50.9072 245.714 50.7691 245.789 50.6146C245.864 50.46 245.907 50.2922 245.916 50.1208C245.925 49.9495 245.9 49.7781 245.842 49.6165C245.783 49.455 245.693 49.3067 245.577 49.1802Z" fill="#130F26"/>
<path d="M243.826 46.1449L243.599 45.8866C243.416 45.6862 243.196 45.5237 242.95 45.4086C242.704 45.2935 242.438 45.228 242.167 45.216C241.895 45.204 241.624 45.2457 241.369 45.3386C241.114 45.4315 240.88 45.5739 240.681 45.7574C240.48 45.9391 240.316 46.1586 240.201 46.4034C240.085 46.6482 240.02 46.9134 240.008 47.1836C239.995 47.4539 240.037 47.7238 240.131 47.9778C240.224 48.2319 240.367 48.465 240.551 48.6637L240.778 48.922C241.042 49.2174 241.231 49.5718 241.329 49.9553C241.394 50.246 241.491 50.6012 241.589 50.9241C241.63 51.0851 241.712 51.2329 241.827 51.3532C241.942 51.4734 242.087 51.5621 242.246 51.6108C242.406 51.6594 242.575 51.6664 242.738 51.6309C242.901 51.5955 243.053 51.5189 243.177 51.4085L244.636 50.0845L246.095 48.7606C246.216 48.6479 246.306 48.5063 246.357 48.3493C246.407 48.1923 246.417 48.0251 246.384 47.8634C246.352 47.7017 246.278 47.551 246.171 47.4254C246.064 47.2999 245.926 47.2037 245.771 47.146C245.447 47.0168 245.123 46.9199 244.831 46.8231C244.46 46.6543 244.12 46.4251 243.826 46.1449Z" fill="#FFD6D3"/>
<path d="M121.985 91.1914L83.208 97.6497C82.8757 97.7029 82.536 97.6898 82.2087 97.6111C81.8815 97.5325 81.5732 97.3899 81.3017 97.1916C81.0303 96.9933 80.801 96.7433 80.6274 96.4561C80.4537 96.1689 80.3391 95.8502 80.2901 95.5184L75.3295 60.1914C75.2832 59.8682 75.312 59.5388 75.4136 59.2284C75.5151 58.9181 75.6868 58.6351 75.9154 58.4012C76.144 58.1673 76.4234 57.9887 76.7321 57.8792C77.0409 57.7697 77.3707 57.7321 77.6963 57.7695L116.019 62.2903C116.556 62.3524 117.059 62.583 117.455 62.9488C117.851 63.3145 118.121 63.7964 118.224 64.3247L123.152 89.5445C123.216 89.917 123.129 90.2995 122.91 90.6082C122.691 90.917 122.358 91.1267 121.985 91.1914Z" fill="#F8AB5D"/>
<path d="M123.606 90.7399L84.8298 97.1983C84.4974 97.2515 84.1577 97.2383 83.8305 97.1597C83.5032 97.0811 83.1949 96.9385 82.9234 96.7402C82.652 96.5419 82.4227 96.2919 82.2491 96.0047C82.0754 95.7175 81.9608 95.3987 81.9118 95.067L76.9188 59.74C76.8725 59.4168 76.9013 59.0874 77.0029 58.777C77.1044 58.4667 77.2761 58.1837 77.5047 57.9498C77.7333 57.7159 78.0127 57.5373 78.3214 57.4278C78.6302 57.3183 78.96 57.2807 79.2856 57.3181L117.608 61.8389C118.145 61.901 118.648 62.1316 119.044 62.4974C119.441 62.8631 119.71 63.345 119.813 63.8733L124.741 89.0931C124.779 89.2758 124.78 89.4643 124.743 89.6473C124.707 89.8304 124.633 90.0041 124.527 90.158C124.421 90.3119 124.285 90.4428 124.126 90.5428C123.968 90.6428 123.791 90.7099 123.606 90.7399Z" fill="#BF0C0C"/>
<path d="M98.8356 88.9635L89.2711 90.0614C88.9316 90.1075 88.5876 90.0179 88.3143 89.8122C88.0409 89.6065 87.8604 89.3014 87.8121 88.9635L84.3106 65.6489C84.2859 65.4963 84.2968 65.3401 84.3424 65.1923C84.3881 65.0446 84.4672 64.9093 84.5738 64.7969C84.6804 64.6845 84.8115 64.598 84.957 64.5442C85.1025 64.4904 85.2585 64.4706 85.4129 64.4864L94.9774 65.1969C95.2732 65.2158 95.5536 65.335 95.7719 65.5348C95.9901 65.7346 96.1331 66.0028 96.177 66.2948L99.7434 87.801C99.7698 88.0736 99.6904 88.3459 99.5216 88.5621C99.3528 88.7783 99.1073 88.9219 98.8356 88.9635Z" fill="#130F26"/>
<path d="M99.6137 88.5437L90.0492 89.6417C89.7098 89.6877 89.3658 89.5981 89.0924 89.3924C88.819 89.1867 88.6385 88.8816 88.5903 88.5437L85.0887 65.2292C85.064 65.0765 85.0749 64.9203 85.1205 64.7725C85.1662 64.6248 85.2454 64.4895 85.352 64.3771C85.4585 64.2647 85.5896 64.1782 85.7351 64.1244C85.8806 64.0706 86.0366 64.0508 86.191 64.0667L95.7555 64.7771C96.0513 64.796 96.3317 64.9152 96.55 65.115C96.7683 65.3148 96.9112 65.583 96.9551 65.875L100.522 87.3812C100.555 87.6551 100.478 87.9308 100.308 88.1485C100.138 88.3662 99.8883 88.5083 99.6137 88.5437Z" fill="#FFD6D3"/>
<path d="M90.1789 65.875L91.6703 65.9719" stroke="#130F26" stroke-width="1.8" stroke-linecap="round" stroke-linejoin="round"/>
<path d="M92.4484 66.0365H92.5458" stroke="#130F26" stroke-width="1.8" stroke-linecap="round" stroke-linejoin="round"/>
<path d="M85.3804 67.0698L97.2468 67.6833" stroke="#130F26" stroke-width="1.8" stroke-linecap="round" stroke-linejoin="round"/>
<path d="M88.3314 86.7356L100.198 85.6377" stroke="#130F26" stroke-width="1.8" stroke-linecap="round" stroke-linejoin="round"/>
<path d="M112.486 68.7809C112.648 69.685 112.226 70.3954 111.545 70.3631C110.865 70.3308 110.119 69.5559 109.957 68.6517C109.795 67.7475 110.216 67.0048 110.929 67.0694C111.643 67.134 112.291 67.8767 112.486 68.7809Z" fill="#130F26"/>
<path d="M113.75 74.5618H110.832C110.583 74.5635 110.342 74.4766 110.152 74.3167C109.961 74.1569 109.835 73.9346 109.794 73.6899L109.697 73.1733C109.405 71.4618 110.216 70.1378 111.48 70.1701C112.745 70.2024 113.977 71.5587 114.269 73.2055L114.366 73.7868C114.391 73.8796 114.395 73.9771 114.375 74.0713C114.356 74.1656 114.315 74.254 114.255 74.3295C114.195 74.4049 114.118 74.4652 114.03 74.5056C113.942 74.546 113.846 74.5652 113.75 74.5618Z" fill="#130F26"/>
<path d="M110.345 79.6638C110.507 80.6326 110.053 81.4399 109.308 81.5045C108.562 81.569 107.784 80.794 107.622 79.793C107.459 78.792 107.913 77.9847 108.691 77.9524C109.47 77.9201 110.15 78.6951 110.345 79.6638Z" fill="#130F26"/>
<path d="M111.643 85.8313L108.562 86.1543C108.293 86.183 108.023 86.109 107.807 85.9472C107.59 85.7854 107.443 85.5478 107.395 85.2824L107.298 84.7657C106.974 82.9574 107.849 81.4074 109.243 81.3105C110.573 81.2136 111.902 82.5699 112.226 84.3136L112.323 84.8949C112.348 85.0016 112.349 85.1123 112.327 85.2196C112.305 85.3268 112.261 85.4282 112.196 85.5169C112.132 85.6055 112.049 85.6794 111.953 85.7337C111.858 85.7879 111.752 85.8212 111.643 85.8313Z" fill="#130F26"/>
<path d="M118.257 79.2766C118.419 80.1808 118.062 80.9235 117.414 80.9881C116.765 81.0526 116.084 80.3099 115.922 79.4058C115.76 78.5016 116.149 77.7266 116.798 77.6943C117.446 77.662 118.095 78.4047 118.257 79.2766Z" fill="#130F26"/>
<path d="M119.424 85.0243L117.025 85.2826C116.759 85.3106 116.493 85.2356 116.282 85.0732C116.071 84.9108 115.93 84.6735 115.89 84.4107L115.825 83.9909C115.501 82.3118 116.247 80.8909 117.414 80.7941C118.581 80.7295 119.748 81.9889 120.04 83.6034L120.137 84.0878C120.167 84.3061 120.108 84.5272 119.975 84.7027C119.841 84.8782 119.643 84.9938 119.424 85.0243Z" fill="#130F26"/>
<path d="M101.332 75.175L104.315 75.1427" stroke="#130F26" stroke-width="1.8" stroke-linecap="round" stroke-linejoin="round"/>
<path d="M104.25 76.4986L105.936 75.4007C105.982 75.3734 106.02 75.3339 106.045 75.2866C106.07 75.2392 106.082 75.1859 106.079 75.1325C106.075 75.079 106.057 75.0275 106.026 74.9837C105.995 74.9398 105.953 74.9053 105.904 74.884L103.829 73.8184C103.779 73.7888 103.722 73.7746 103.665 73.7778C103.608 73.781 103.553 73.8014 103.507 73.8363C103.461 73.8712 103.428 73.919 103.41 73.9734C103.392 74.0278 103.391 74.0864 103.407 74.1413L103.796 76.3048C103.801 76.3548 103.82 76.4025 103.849 76.443C103.879 76.4835 103.919 76.5153 103.966 76.5351C104.012 76.5549 104.063 76.5619 104.113 76.5555C104.163 76.5491 104.21 76.5294 104.25 76.4986Z" fill="#130F26"/>
<path d="M178.691 185.516C178.691 185.516 179.145 189.94 179.534 192.232C179.631 192.91 182.192 193.685 184.527 193.201C187.412 192.62 187.574 190.973 187.574 190.973C187.574 190.973 187.023 183.223 186.958 182.674C186.893 182.125 179.112 183.578 178.691 185.516Z" fill="#FFD6D3"/>
<path d="M186.861 188.39C184.624 189.52 181.706 189.552 179.987 189.455C179.606 189.435 179.244 189.281 178.965 189.022C178.687 188.762 178.509 188.412 178.464 188.034C178.302 186.614 178.172 185.516 178.172 185.516C178.626 183.352 187.347 181.737 187.412 182.351C187.445 182.642 187.607 184.741 187.769 186.84C187.783 187.158 187.705 187.473 187.544 187.748C187.383 188.023 187.146 188.246 186.861 188.39Z" fill="#130F26"/>
<path d="M179.468 191.974C179.468 191.974 179.047 192.523 179.241 193.783C179.436 195.042 179.209 200.693 179.922 201.371C180.636 202.049 188.676 201.565 192.275 200.758C196.133 199.886 198.565 198.368 198.824 197.561C199.213 196.398 198.889 196.237 194.901 195.074C190.913 193.912 188.903 192.265 188.06 191.328C187.893 191.133 187.687 190.974 187.456 190.86C187.226 190.746 186.974 190.679 186.717 190.664C186.459 190.649 186.202 190.686 185.959 190.772C185.716 190.859 185.494 190.993 185.304 191.167C184.818 191.587 184.234 193.105 183.164 193.105C180.603 193.072 179.728 191.845 179.468 191.974Z" fill="#130F26"/>
<path d="M193.443 194.203C193.443 194.203 190.46 194.461 188.287 197.561" stroke="white" stroke-width="1.8" stroke-linecap="round" stroke-linejoin="round"/>
<path d="M190.979 193.072C190.042 193.231 189.148 193.583 188.356 194.106C187.563 194.629 186.888 195.311 186.375 196.108" stroke="white" stroke-width="1.8" stroke-linecap="round" stroke-linejoin="round"/>
<path d="M151.586 185.612C151.586 185.612 151.133 191.844 151.068 192.135C151.003 192.425 151.522 193.943 154.602 194.363C157.682 194.783 158.719 192.91 158.719 192.91C158.719 192.91 159.822 187.194 160.016 186.161C160.211 185.128 152.592 184.546 151.586 185.612Z" fill="#FFD6D3"/>
<path d="M160.599 186.032C160.502 186.452 160.275 187.615 160.048 188.906C159.986 189.251 159.814 189.567 159.557 189.806C159.299 190.045 158.971 190.194 158.621 190.23C156.381 190.481 154.113 190.193 152.007 189.391C151.67 189.264 151.383 189.032 151.19 188.729C150.997 188.426 150.908 188.069 150.937 187.712C151.034 186.42 151.099 185.354 151.099 185.354C152.202 184.159 160.826 184.87 160.599 186.032Z" fill="#130F26"/>
<path d="M151.067 191.909C151.067 191.909 150.289 192.103 150.225 193.427C150.16 194.751 148.636 200.789 148.701 201.435C148.766 202.081 149.122 202.888 154.018 202.824C158.914 202.759 161.637 203.017 162.545 202.242C163.453 201.467 162.221 199.691 161.313 198.077C160.405 196.462 159.043 194.04 158.816 192.716C158.486 192.946 158.126 193.131 157.746 193.265C157.455 193.298 157.163 191.909 155.347 191.909C153.24 191.909 152.494 193.072 152.3 193.039C151.762 192.828 151.323 192.425 151.067 191.909Z" fill="#130F26"/>
<path d="M152.396 195.816C152.396 195.816 156.027 194.46 159.237 195.816" stroke="white" stroke-width="1.8" stroke-linecap="round" stroke-linejoin="round"/>
<path d="M152.137 197.657C152.137 197.657 156.449 196.301 160.015 197.657" stroke="white" stroke-width="1.8" stroke-linecap="round" stroke-linejoin="round"/>
<path d="M159.821 127.746C159.821 127.746 166.695 129.619 174.93 132.525C182.711 135.27 185.759 136.884 186.602 142.277C187.445 147.67 186.407 166.883 187.445 171.953C188.482 177.023 189.682 180.607 188.677 183.223C188.507 183.73 188.235 184.198 187.878 184.597C187.522 184.997 187.088 185.32 186.602 185.548C186.602 185.548 182.419 187.324 178.691 186.484C177.982 186.265 177.324 185.906 176.756 185.429C176.188 184.952 175.721 184.367 175.384 183.707C174.152 181.415 175.351 174.02 174.411 168.498C173.471 162.976 172.433 153.87 171.299 147.767C170.164 141.664 151.683 139.209 149.317 134.398C146.95 129.587 148.182 125.356 148.182 125.356C148.182 125.356 157.746 125.163 159.821 127.746Z" fill="#130F26"/>
<path d="M155.023 133.881C155.013 133.069 154.937 132.259 154.796 131.459" stroke="#FFD6D3" stroke-width="1.8" stroke-linecap="round" stroke-linejoin="round"/>
<path d="M186.893 145.829C186.49 145.933 186.076 145.987 185.661 145.991C182.808 145.991 180.376 143.601 180.246 140.695C180.2 139.759 180.411 138.829 180.857 138.003C181.302 137.178 181.966 136.49 182.775 136.013C185.012 137.498 186.147 139.339 186.601 142.31C186.731 143.149 186.828 144.376 186.893 145.829Z" stroke="#FFD6D3" stroke-width="1.8" stroke-linecap="round" stroke-linejoin="round"/>
<path d="M127.821 128.166C127.821 128.166 127.561 130.555 127.788 136.013C128.015 141.341 132.1 148.316 140.854 148.413C149.608 148.509 154.763 148.413 154.763 148.413C154.763 148.413 154.082 151.513 153.758 159.424C153.434 167.335 151.035 172.76 149.479 177.701C148.117 182.028 148.117 185.064 151.262 186.517C154.133 187.515 157.173 187.943 160.21 187.776C160.21 187.776 162.609 187.582 163.323 181.867C164.036 176.151 167.084 165.107 169.58 158.003C172.077 150.899 174.054 141.793 170.196 138.693C166.338 135.593 153.207 133.72 152.526 133.397C151.845 133.074 151.943 128.715 151.132 126.034C150.354 123.29 130.447 122.773 127.821 128.166Z" fill="#130F26"/>
<path d="M169.612 157.971C172.109 150.899 174.087 141.76 170.229 138.66C166.37 135.56 153.239 133.687 152.559 133.365" stroke="#FFD6D3" stroke-width="1.8" stroke-linecap="round" stroke-linejoin="round"/>
<path d="M152.59 133.365C152.59 133.365 149.219 132.719 147.857 132.945" stroke="#FFD6D3" stroke-width="1.8" stroke-linecap="round" stroke-linejoin="round"/>
<path d="M128.404 139.532C129.539 139.048 131.224 137.853 132.262 134.914" stroke="#FFD6D3" stroke-width="1.8" stroke-linecap="round" stroke-linejoin="round"/>
<path d="M154.763 148.413C155.14 147.406 155.713 146.484 156.449 145.7" stroke="#FFD6D3" stroke-width="1.8" stroke-linecap="round" stroke-linejoin="round"/>
<path d="M172.368 146.088C171.963 146.918 171.332 147.619 170.547 148.11C169.761 148.601 168.853 148.863 167.926 148.865C165.073 148.865 162.641 146.475 162.512 143.569C162.468 142.889 162.564 142.208 162.795 141.567C163.027 140.926 163.387 140.339 163.855 139.843C164.323 139.347 164.889 138.951 165.517 138.681C166.144 138.411 166.821 138.272 167.505 138.273C168.213 138.276 168.914 138.42 169.566 138.697C170.217 138.975 170.806 139.379 171.298 139.888C172.238 141.405 172.53 143.601 172.368 146.088Z" stroke="#FFD6D3" stroke-width="1.8" stroke-linecap="round" stroke-linejoin="round"/>
<path d="M152.591 189.617C152.52 189.276 152.52 188.924 152.591 188.583" stroke="#FFD6D3" stroke-width="1.8" stroke-linecap="round" stroke-linejoin="round"/>
<path d="M155.412 190.23C155.579 189.872 155.688 189.491 155.736 189.1" stroke="#FFD6D3" stroke-width="1.8" stroke-linecap="round" stroke-linejoin="round"/>
<path d="M158.395 190.23C158.594 189.921 158.747 189.583 158.848 189.229" stroke="#FFD6D3" stroke-width="1.8" stroke-linecap="round" stroke-linejoin="round"/>
<path d="M180.441 189.455C180.258 189.031 180.127 188.586 180.052 188.131" stroke="#FFD6D3" stroke-width="1.8" stroke-linecap="round" stroke-linejoin="round"/>
<path d="M184.04 189.261C184.095 188.775 184.062 188.283 183.943 187.808" stroke="#FFD6D3" stroke-width="1.8" stroke-linecap="round" stroke-linejoin="round"/>
<path d="M187.218 188.131C187.314 187.672 187.303 187.197 187.185 186.743" stroke="#FFD6D3" stroke-width="1.8" stroke-linecap="round" stroke-linejoin="round"/>
<path d="M153.174 90.7714C153.174 90.7714 156.384 91.3204 161.507 92.5152C164.676 93.2254 167.879 93.7751 171.103 94.162C171.103 94.162 176.388 91.8048 182.646 89.1245C186.237 87.5533 189.905 86.163 193.637 84.9589C193.637 84.9589 195.258 85.0881 196.198 87.4454C196.56 88.3467 196.704 89.32 196.619 90.287C196.599 90.535 196.52 90.7747 196.391 90.9876C196.262 91.2005 196.085 91.3806 195.874 91.5141C194.447 92.4506 190.524 95.0662 184.364 99.2964C176.518 104.689 173.243 105.077 169.353 104.915C165.041 104.721 154.341 102.978 154.341 102.978C154.341 102.978 151.456 102.429 150.451 97.2943C149.51 92.16 152.169 90.5777 153.174 90.7714Z" fill="#BF0C0C"/>
<path d="M171.039 104.916C171.039 104.916 169.775 104.561 170.618 103.14C171.461 101.719 174.768 100.589 176.81 101.429C178.529 102.139 177.491 103.334 177.491 103.334" stroke="#F8AB5D" stroke-width="1.8" stroke-linecap="round" stroke-linejoin="round"/>
<path d="M191.627 85.6377C191.463 86.8637 191.666 88.1108 192.211 89.2221C193.281 91.3211 194.578 91.9992 194.967 92.1283" stroke="#F8AB5D" stroke-width="1.8" stroke-linecap="round" stroke-linejoin="round"/>
<path d="M193.637 84.9589C193.637 84.9589 193.378 86.9287 194.189 88.5755C194.489 89.2444 194.919 89.8478 195.453 90.3516C195.612 90.4969 195.808 90.595 196.02 90.6349C196.232 90.6749 196.451 90.655 196.653 90.5776C197.033 90.4004 197.437 90.2807 197.852 90.2224C198.566 90.1578 200.511 90.5776 201.646 89.7703C202.78 88.963 203.04 88.8662 203.202 88.8339C203.364 88.8016 205.082 88.8016 205.374 88.6724C205.958 88.4141 206.087 87.4453 205.796 87.0578C205.536 86.7349 203.85 86.7026 203.526 86.2182C203.202 85.7339 203.494 85.2172 205.309 84.7651C207.125 84.313 210.335 83.312 210.237 82.537C210.14 81.762 208.422 82.3432 206.217 82.5693C204.012 82.7953 202.975 82.8599 202.067 82.5047C201.159 82.1495 199.927 82.1818 198.533 82.8599C197.625 83.312 196.653 83.6995 194.934 84.4422C194.518 84.6528 194.084 84.8257 193.637 84.9589Z" fill="#FFD6D3"/>
<path d="M205.601 84.701C205.785 85.2214 205.894 85.7649 205.925 86.3156C205.957 87.026 204.92 88.9635 204.174 89.3187C203.429 89.674 202.942 89.2864 202.618 88.7698C202.294 88.2531 201.451 85.1854 203.072 84.8302C204.693 84.475 205.277 84.4104 205.601 84.701Z" fill="#FFD6D3"/>
<path d="M205.762 87.0579C205.503 86.735 203.817 86.7027 203.493 86.2183C203.169 85.7339 203.46 85.2173 205.276 84.7652C207.092 84.3131 210.301 83.312 210.204 82.537" stroke="#FDA797" stroke-width="1.8" stroke-linecap="round" stroke-linejoin="round"/>
<path d="M202.813 82.7313C202.203 82.699 201.591 82.7534 200.997 82.8927" stroke="#FDA797" stroke-width="1.8" stroke-linecap="round" stroke-linejoin="round"/>
<path d="M201.613 89.7704C202.748 88.9308 203.008 88.8662 203.17 88.8339C203.332 88.8016 205.05 88.8016 205.342 88.6725" stroke="#FDA797" stroke-width="1.8" stroke-linecap="round" stroke-linejoin="round"/>
<path d="M141.243 87.3485C141.243 87.3485 141.599 86.0245 144.031 86.1537C146.463 86.2829 149.997 87.5423 150.224 89.3506C150.451 91.1589 142.378 92.16 141.243 87.3485Z" fill="#130F26"/>
<path d="M158.589 101.977C158.264 91.7727 153.207 90.7716 153.207 90.7716C149.053 90.1616 144.857 89.8916 140.659 89.9643C133.786 90.0935 128.404 91.256 125.616 95.1956C123.151 98.6831 117.769 114.151 119.164 118.446C120.331 122.062 123.767 122.934 129.928 121.869C129.539 124.129 129.085 125.905 129.085 125.905C131.678 127.778 137.417 129.619 146.009 129.619C153.66 129.619 157.519 127.132 157.519 127.132C157.227 124.839 158.88 112.181 158.589 101.977Z" fill="#BF0C0C"/>
<path d="M150.29 93.1611C150.646 95.3246 150.808 100.039 151.392 104.495C151.976 108.952 152.073 115.507 152.105 121.771C152.121 125.523 152.501 129.265 153.24 132.944C157.617 131.491 160.73 128.068 160.73 128.068C160.73 128.068 161.151 127.552 160.016 123.386C158.881 119.22 158.59 104.495 158.59 104.495C158.763 102.045 158.632 99.5835 158.201 97.1652C157.487 93.6454 155.088 91.159 153.24 90.5777C152.235 90.2551 151.183 90.1023 150.128 90.1256C150.128 90.1256 150.192 91.7725 150.29 93.1611Z" fill="#FFD6D3"/>
<path d="M141.763 83.6678C141.763 83.6678 141.568 87.349 141.568 89.1573C141.568 92.3219 145.913 95.5834 147.534 95.5834C150.16 95.5834 150.614 92.5157 150.484 91.1594C150.354 89.8032 150.322 85.8636 150.354 85.7667C150.387 85.6698 143.384 81.924 141.763 83.6678Z" fill="#FFD6D3"/>
<path d="M143.318 85.6048C143.804 89.6089 147.014 91.7079 150.483 91.5787C150.49 91.4487 150.479 91.3183 150.451 91.1912C150.386 90.6423 150.353 89.6735 150.353 88.7371C147.857 90.0287 144.777 87.9298 143.318 85.6048Z" fill="#FDA797"/>
<path d="M145.62 94.8727C145.393 98.7154 146.819 108.274 146.819 119.124C146.819 129.974 145.231 134.43 145.231 134.43C131.84 136.012 125.032 130.394 125.032 130.394C125.032 130.394 125.551 129.263 126.685 126.131C127.82 122.999 127.82 119.156 127.82 119.156C127.82 119.156 129.376 104.98 128.825 101.815C128.274 98.6508 126.231 94.4529 126.231 94.4529C126.231 94.4529 127.853 92.0956 132.197 90.9008C135.569 89.9644 139.233 89.8675 140.692 89.8675L140.659 90.029C142.151 93.355 145.62 94.8727 145.62 94.8727Z" fill="#FFD6D3"/>
<path d="M134.046 123.87C136.227 124.486 138.492 124.758 140.757 124.678C141.179 124.645 141.503 124.904 141.471 125.227V125.259C141.432 125.402 141.348 125.53 141.231 125.623C141.115 125.716 140.971 125.769 140.822 125.776C139.363 125.872 135.602 125.646 133.657 124.871C133.516 124.829 133.396 124.736 133.318 124.611C133.24 124.487 133.211 124.338 133.236 124.193C133.3 123.903 133.69 123.773 134.046 123.87Z" fill="#EAF9F3"/>
<path d="M155.282 123.774C155.931 123.613 157.39 123.29 158.978 122.741C159.205 122.677 159.465 122.87 159.53 123.193V123.226C159.567 123.325 159.568 123.435 159.533 123.535C159.497 123.636 159.427 123.72 159.335 123.774C158.589 124.065 156.709 124.743 155.509 124.808C155.395 124.794 155.288 124.747 155.202 124.672C155.115 124.597 155.053 124.498 155.023 124.388C154.958 124.097 155.055 123.839 155.282 123.774Z" fill="#EAF9F3"/>
<path d="M155.606 107.789H155.444C152.98 109.113 151.554 109.049 151.391 107.821C151.651 107.66 151.878 107.499 152.105 107.337C152.645 106.99 153.253 106.759 153.888 106.659C154.36 106.58 154.836 106.526 155.314 106.497C155.314 106.497 156.028 106.336 156.157 106.594C156.287 106.788 156.255 107.272 155.606 107.789Z" fill="#FFD6D3"/>
<path d="M171.947 119.124L153.532 119.091C153.395 119.092 153.26 119.064 153.135 119.01C153.011 118.955 152.899 118.875 152.807 118.774C152.715 118.674 152.646 118.555 152.603 118.426C152.56 118.297 152.545 118.161 152.559 118.026L153.953 103.817C153.983 103.511 154.132 103.228 154.368 103.029C154.604 102.829 154.909 102.73 155.218 102.752L173.698 103.979C173.903 103.999 174.093 104.097 174.226 104.254C174.359 104.411 174.426 104.614 174.411 104.818L172.92 118.252C172.896 118.492 172.783 118.714 172.603 118.875C172.423 119.036 172.189 119.125 171.947 119.124Z" fill="#130F26"/>
<path d="M165.657 105.562C165.666 105.514 165.665 105.465 165.654 105.418C165.642 105.371 165.619 105.328 165.588 105.29C165.557 105.253 165.518 105.223 165.474 105.203C165.429 105.183 165.381 105.173 165.333 105.174C165.224 105.179 165.121 105.22 165.039 105.29C164.957 105.361 164.9 105.456 164.879 105.562C164.869 105.609 164.87 105.658 164.882 105.705C164.894 105.752 164.916 105.796 164.947 105.833C164.978 105.87 165.017 105.9 165.062 105.92C165.106 105.94 165.154 105.95 165.203 105.949C165.309 105.939 165.41 105.897 165.491 105.827C165.573 105.758 165.63 105.665 165.657 105.562Z" fill="#FFD6D3"/>
<path d="M149.025 115.604C148.991 115.744 148.923 115.873 148.827 115.98C148.73 116.087 148.609 116.169 148.473 116.218C143.7 118.247 138.766 119.878 133.721 121.094C132.36 121.417 131.063 121.707 129.896 121.901C123.703 122.934 120.299 122.095 119.132 118.478C117.738 114.183 123.12 98.7479 125.584 95.2281C125.782 94.9451 125.998 94.6755 126.232 94.4208C129.636 91.7729 133.17 94.3563 133.948 98.6833C134.338 100.976 133.365 103.495 132.554 106.369C131.971 108.435 130.479 111.761 130.479 111.761L147.468 110.018C147.62 109.994 147.775 110.012 147.918 110.069C148.061 110.125 148.185 110.219 148.279 110.341C149.835 112.052 149.316 114.603 149.025 115.604Z" fill="#BF0C0C"/>
<path d="M130.479 111.729C130.479 111.729 127.172 112.117 125.908 112.956" stroke="#F8AB5D" stroke-width="1.8" stroke-linecap="round" stroke-linejoin="round"/>
<path d="M145.167 110.211C145.167 110.211 144.259 111.245 144.616 113.408C145.005 115.765 146.042 116.411 146.756 116.896" stroke="#F8AB5D" stroke-width="1.8" stroke-linecap="round" stroke-linejoin="round"/>
<path d="M119.132 118.769C119.132 118.769 118.775 116.832 121.596 116.799C124.417 116.767 127.594 120.642 125.616 122.321" stroke="#F8AB5D" stroke-width="1.8" stroke-linecap="round" stroke-linejoin="round"/>
<path d="M161.961 112.633C161.766 113.247 160.275 112.666 159.14 112.343C157.681 111.923 156.709 111.6 156.611 111.568C157.555 112.074 158.455 112.657 159.302 113.311C160.47 114.183 161.345 115.12 160.956 115.572C160.567 116.024 158.232 114.668 158.232 114.668C158.232 114.668 159.075 115.249 159.27 115.927C159.464 116.605 158.33 116.379 156.19 115.087C156.19 115.087 155.379 115.12 153.855 115.798C152.332 116.476 150.062 116.153 149.349 115.927C149.065 115.844 148.77 115.8 148.473 115.798C148.31 115.796 148.149 115.758 148.003 115.685C147.857 115.612 147.73 115.507 147.63 115.378C147.026 114.65 146.644 113.765 146.528 112.827C146.398 111.632 146.69 110.954 146.917 110.631C147.022 110.463 147.182 110.337 147.371 110.276C147.761 110.144 148.141 109.982 148.506 109.792C148.798 109.63 149.868 108.855 150.938 108.145C151.094 108.045 151.246 107.937 151.391 107.822C152.742 107.891 154.095 107.88 155.444 107.79H155.606C157 107.693 160.729 108.016 161.118 108.435C161.507 108.855 160.956 109.404 159.205 109.372C158.261 109.37 157.319 109.434 156.384 109.566C157.351 109.807 158.295 110.131 159.205 110.534C160.567 111.148 162.188 112.02 161.961 112.633Z" fill="#FFD6D3"/>
<path d="M156.644 111.568C156.644 111.568 156.125 111.374 155.736 111.277C155.502 111.219 155.263 111.186 155.023 111.18" stroke="#FDA797" stroke-width="1.8" stroke-linecap="round" stroke-linejoin="round"/>
<path d="M158.232 114.668C158.232 114.668 157.162 113.57 155.93 113.311C155.379 113.215 155.023 113.182 155.023 113.182" stroke="#FDA797" stroke-width="1.8" stroke-linecap="round" stroke-linejoin="round"/>
<path d="M156.417 109.566C155.948 109.548 155.48 109.591 155.023 109.695" stroke="#FDA797" stroke-width="1.8" stroke-linecap="round" stroke-linejoin="round"/>
<path d="M153.596 107.854C153.335 107.858 153.075 107.836 152.818 107.79" stroke="#FDA797" stroke-width="1.8" stroke-linecap="round" stroke-linejoin="round"/>
<path d="M150.192 91.5473C150.159 91.1174 150.159 90.6856 150.192 90.2557C150.233 89.9562 150.244 89.6532 150.224 89.3515V88.6088C150.224 88.6088 150.419 89.0286 150.808 89.7067C151.197 90.3848 150.613 93.3557 150.321 93.7109L150.192 91.5473Z" fill="#130F26"/>
<path d="M153.726 77.1771C153.601 79.1449 153.601 81.1186 153.726 83.0865C153.811 84.5637 153.402 86.0273 152.563 87.2485C151.724 88.4697 150.503 89.3794 149.089 89.8354C146.917 90.5136 142.832 88.8344 141.859 84.0229C140.887 79.2115 138.779 73.7865 144.421 71.8167C150.062 69.8469 153.791 72.5917 153.726 77.1771Z" fill="#FFD6D3"/>
<path d="M141.536 80.5683C141.536 80.5683 142.216 80.1485 142.443 78.7276C142.457 78.5692 142.508 78.4162 142.592 78.2814C142.677 78.1466 142.793 78.0339 142.93 77.9526C143.254 77.8119 143.539 77.5941 143.76 77.3182C143.98 77.0424 144.129 76.7169 144.194 76.3703C144.259 75.7568 144.518 75.3047 145.167 75.6599C150.257 78.5985 153.629 75.9183 153.629 75.9183L153.661 77.7589C155.639 77.2099 156.839 74.6266 156.45 72.7214C155.963 70.3318 155.056 70.7839 153.921 68.9756C152.786 67.1672 150.711 65.9079 148.052 66.8443C145.394 67.7808 144.421 68.2006 142.346 68.1683C140.271 68.136 138.293 69.0079 138.131 70.9454C137.969 72.8828 136.186 73.4641 135.862 75.2724C135.538 77.0808 136.251 77.9849 136.932 78.6953C137.613 79.4058 136.316 81.4078 138.034 83.087C139.752 84.7662 140.887 85.2828 141.6 86.3808C141.698 86.3808 141.957 83.4099 141.536 80.5683Z" fill="#130F26"/>
<path d="M142.119 81.117C142.119 81.117 140.887 79.0504 139.233 79.9868C137.58 80.9233 139.331 84.1525 141.892 83.991" fill="#FFD6D3"/>
<path d="M150.97 79.5341C151.086 79.8581 151.25 80.1629 151.457 80.4383C151.546 80.5531 151.643 80.661 151.748 80.7612C151.92 80.8798 152.064 81.0341 152.17 81.2133C152.27 81.4013 152.326 81.6101 152.331 81.823C152.337 82.036 152.293 82.2474 152.202 82.4404C152.133 82.6243 152.022 82.79 151.878 82.9248C151.75 83.0692 151.58 83.1707 151.392 83.2154C151.593 82.953 151.716 82.6398 151.748 82.3112C151.786 82.0383 151.753 81.7601 151.651 81.5039C151.586 81.3748 151.521 81.3425 151.359 81.181C151.221 81.0292 151.112 80.8543 151.035 80.6644C150.901 80.3025 150.878 79.9089 150.97 79.5341Z" fill="#130F26"/>
<path d="M149.219 85.8954C148.79 85.9311 148.36 85.8474 147.977 85.6535C147.593 85.4596 147.271 85.1632 147.047 84.7975" stroke="#130F26" stroke-width="1.8" stroke-linecap="round" stroke-linejoin="round"/>
<path d="M147.371 80.8906C147.311 80.892 147.251 80.8812 147.196 80.8589C147.14 80.8367 147.09 80.8034 147.047 80.7612C147.005 80.7189 146.971 80.6685 146.949 80.6131C146.927 80.5577 146.916 80.4983 146.917 80.4385V79.9865C146.916 79.9267 146.927 79.8674 146.949 79.8119C146.971 79.7565 147.005 79.7061 147.047 79.6638C147.09 79.6216 147.14 79.5883 147.196 79.5661C147.251 79.5438 147.311 79.5331 147.371 79.5344C147.431 79.5331 147.491 79.5438 147.546 79.5661C147.602 79.5883 147.653 79.6216 147.695 79.6638C147.737 79.7061 147.771 79.7565 147.793 79.8119C147.815 79.8674 147.826 79.9267 147.825 79.9865V80.4385C147.822 80.5577 147.774 80.6712 147.689 80.7555C147.605 80.8397 147.491 80.8882 147.371 80.8906Z" fill="#130F26"/>
<path d="M152.396 80.8905C152.336 80.8918 152.276 80.881 152.221 80.8588C152.165 80.8365 152.115 80.8033 152.072 80.761C152.03 80.7188 151.996 80.6684 151.974 80.613C151.952 80.5575 151.941 80.4982 151.942 80.4384V79.9863C151.941 79.9266 151.952 79.8672 151.974 79.8118C151.996 79.7563 152.03 79.706 152.072 79.6637C152.115 79.6215 152.165 79.5882 152.221 79.566C152.276 79.5437 152.336 79.5329 152.396 79.5343C152.456 79.5329 152.516 79.5437 152.571 79.566C152.627 79.5882 152.678 79.6215 152.72 79.6637C152.762 79.706 152.796 79.7563 152.818 79.8118C152.84 79.8672 152.851 79.9266 152.85 79.9863V80.4384C152.847 80.5575 152.799 80.6711 152.714 80.7554C152.63 80.8396 152.516 80.888 152.396 80.8905Z" fill="#130F26"/>
<path d="M148.019 78.5334C147.695 78.6626 147.468 78.2751 146.981 78.4042C146.236 78.6303 145.879 78.8886 145.749 78.5657C145.652 78.3396 146.106 77.7584 146.819 77.5646C147.857 77.3386 148.603 78.3073 148.019 78.5334Z" fill="#130F26"/>
<path d="M151.78 78.5333C152.039 78.6302 152.234 78.275 152.59 78.3719C153.077 78.5333 153.336 78.7271 153.401 78.4688C153.466 78.275 153.206 77.7583 152.72 77.5969C151.942 77.3385 151.261 78.3396 151.78 78.5333Z" fill="#130F26"/>
<path d="M139.493 81.3424C139.512 81.2736 139.544 81.2094 139.589 81.1538C139.633 81.0982 139.689 81.0525 139.753 81.0195C139.82 80.9653 139.898 80.9257 139.982 80.9035C140.066 80.8812 140.153 80.8768 140.239 80.8903C140.421 80.9274 140.583 81.031 140.693 81.181C140.78 81.3028 140.856 81.4325 140.92 81.5685C141.007 81.7988 141.072 82.0366 141.114 82.2789C141.147 82.3758 141.147 82.4403 141.212 82.5049C141.305 82.584 141.416 82.6394 141.536 82.6664C141.411 82.7473 141.262 82.7816 141.114 82.7632C140.945 82.717 140.796 82.6145 140.693 82.4726C140.558 82.2604 140.449 82.0327 140.369 81.7945C140.331 81.695 140.288 81.598 140.239 81.5039C140.215 81.4374 140.169 81.3806 140.109 81.3424C140.012 81.2132 139.753 81.2455 139.493 81.3424Z" fill="#130F26"/>
<path d="M142.411 101.267C142.54 102.494 141.73 103.818 140.562 103.915C139.995 103.936 139.44 103.741 139.011 103.37C138.582 102.998 138.311 102.478 138.253 101.915C138.196 101.352 138.355 100.788 138.7 100.338C139.044 99.8874 139.548 99.5847 140.109 99.491C141.308 99.3619 142.313 100.04 142.411 101.267Z" fill="#BF0C0C"/>
<path d="M145.62 94.8729C145.62 94.8729 142.151 93.3552 140.627 89.9969L141.243 87.3489C141.957 88.7074 143.064 89.8211 144.421 90.5458C144.788 90.7334 145.098 91.0146 145.32 91.3606C145.542 91.7067 145.668 92.1052 145.685 92.5156C145.71 93.302 145.689 94.0891 145.62 94.8729Z" fill="#130F26"/>
<path d="M103.116 113.763C103.117 113.997 103.071 114.228 102.982 114.444C102.892 114.66 102.761 114.856 102.595 115.021C102.43 115.186 102.233 115.317 102.016 115.406C101.799 115.495 101.567 115.54 101.333 115.539C100.861 115.535 100.41 115.347 100.076 115.015C99.7428 114.682 99.5536 114.233 99.5494 113.763C99.5494 113.292 99.7372 112.841 100.072 112.507C100.406 112.174 100.86 111.987 101.333 111.987C101.806 111.987 102.259 112.174 102.593 112.507C102.928 112.841 103.116 113.292 103.116 113.763Z" fill="#130F26"/>
<path d="M103.115 119.995H99.5488C99.357 119.996 99.1669 119.959 98.9895 119.886C98.8121 119.814 98.6509 119.707 98.5153 119.572C98.3796 119.437 98.2722 119.276 98.1992 119.099C98.1262 118.923 98.089 118.733 98.0899 118.542C98.0899 117.686 98.4314 116.864 99.0395 116.259C99.6475 115.653 100.472 115.313 101.332 115.313C102.192 115.313 103.017 115.653 103.625 116.259C104.233 116.864 104.574 117.686 104.574 118.542C104.575 118.733 104.538 118.923 104.465 119.099C104.392 119.276 104.284 119.437 104.149 119.572C104.013 119.707 103.852 119.814 103.675 119.886C103.497 119.959 103.307 119.996 103.115 119.995Z" fill="#130F26"/>
<path d="M92.2539 115.992C92.2516 117.895 92.8523 119.75 93.9705 121.294C95.0888 122.837 96.6675 123.99 98.4818 124.587C100.296 125.185 102.253 125.197 104.075 124.622C105.897 124.047 107.49 122.914 108.627 121.384" stroke="#FFD6D3" stroke-width="1.8" stroke-linecap="round" stroke-linejoin="round"/>
<path d="M109.6 122.45L109.664 119.544L107.103 120.932L109.6 122.45Z" fill="#FFD6D3"/>
<path d="M110.378 115.992C110.376 114.062 109.754 112.183 108.603 110.63C107.452 109.077 105.833 107.932 103.981 107.362C102.13 106.792 100.144 106.826 98.3136 107.461C96.4835 108.096 94.9054 109.298 93.8102 110.89" stroke="#FFD6D3" stroke-width="1.8" stroke-linecap="round" stroke-linejoin="round"/>
<path d="M92.8057 109.856L92.8705 112.73L95.367 111.245L92.8057 109.856Z" fill="#FFD6D3"/>
</g>
<defs>
<clipPath id="clip0_7977_12355">
<rect width="332" height="248" fill="white" transform="translate(0.5)"/>
</clipPath>
</defs>
</svg>
