<svg width="58" height="57" viewBox="0 0 58 57" fill="none" xmlns="http://www.w3.org/2000/svg">
<rect x="1.5" y="1" width="55" height="55" rx="27.5" fill="white"/>
<path d="M26.1667 28.0001C29.8486 28.0001 32.8333 25.0153 32.8333 21.3334C32.8333 17.6515 29.8486 14.6667 26.1667 14.6667C22.4848 14.6667 19.5 17.6515 19.5 21.3334C19.5 25.0153 22.4848 28.0001 26.1667 28.0001Z" fill="#BF0C0C"/>
<path d="M27.2835 29.7001C26.9168 29.6834 26.5502 29.6667 26.1668 29.6667C22.1335 29.6667 18.3668 30.7834 15.1502 32.7001C13.6835 33.5667 12.8335 35.2001 12.8335 36.9167V41.3334H28.2668C26.9502 39.4501 26.1668 37.1501 26.1668 34.6667C26.1668 32.8834 26.5835 31.2167 27.2835 29.7001Z" fill="#BF0C0C"/>
<path d="M44.0832 34.6666C44.0832 34.2999 44.0332 33.9666 43.9832 33.6166L45.8832 31.9333L44.2165 29.0499L41.7999 29.8666C41.2665 29.4166 40.6665 29.0666 39.9999 28.8166L39.4999 26.3333H36.1665L35.6665 28.8166C34.9999 29.0666 34.3999 29.4166 33.8665 29.8666L31.4499 29.0499L29.7832 31.9333L31.6832 33.6166C31.6332 33.9666 31.5832 34.2999 31.5832 34.6666C31.5832 35.0333 31.6332 35.3666 31.6832 35.7166L29.7832 37.3999L31.4499 40.2833L33.8665 39.4666C34.3999 39.9166 34.9999 40.2666 35.6665 40.5166L36.1665 42.9999H39.4999L39.9999 40.5166C40.6665 40.2666 41.2665 39.9166 41.7999 39.4666L44.2165 40.2833L45.8832 37.3999L43.9832 35.7166C44.0332 35.3666 44.0832 35.0333 44.0832 34.6666ZM37.8332 37.9999C35.9999 37.9999 34.4999 36.4999 34.4999 34.6666C34.4999 32.8333 35.9999 31.3333 37.8332 31.3333C39.6665 31.3333 41.1665 32.8333 41.1665 34.6666C41.1665 36.4999 39.6665 37.9999 37.8332 37.9999Z" fill="#BF0C0C"/>
<rect x="1.5" y="1" width="55" height="55" rx="27.5" stroke="#BF0C0C" stroke-width="2"/>
</svg>
