<svg width="269" height="207" viewBox="0 0 269 207" fill="none" xmlns="http://www.w3.org/2000/svg">
<path d="M220.268 176.813L28.6856 205.491C27.6738 205.645 26.6405 205.591 25.6512 205.33C24.6619 205.069 23.7383 204.608 22.9387 203.976C22.1392 203.344 21.4813 202.555 21.0066 201.659C20.5319 200.762 20.2509 199.778 20.1813 198.769L8.72602 28.2631C8.64748 27.1539 8.81083 26.0409 9.20503 24.9995C9.59922 23.958 10.2151 23.0124 11.011 22.2264C11.8068 21.4404 12.7642 20.8324 13.8183 20.4435C14.8724 20.0547 15.9988 19.894 17.1211 19.9723L209.041 32.0743C210.804 32.1794 212.47 32.9029 213.74 34.1146C215.01 35.3263 215.801 36.9465 215.969 38.6832L226.966 168.522C227.088 170.478 226.47 172.41 225.233 173.942C223.995 175.474 222.225 176.497 220.268 176.813Z" fill="#63737A"/>
<path d="M225.483 176.586L32.9895 205.383C31.9785 205.535 30.9465 205.478 29.9589 205.216C28.9712 204.954 28.0493 204.492 27.2516 203.86C26.4538 203.227 25.7975 202.438 25.3242 201.543C24.8508 200.647 24.5707 199.664 24.5016 198.655L12.9263 27.3682C12.848 26.2446 13.0143 25.1175 13.414 24.0628C13.8137 23.0081 14.4375 22.0502 15.2433 21.2539C16.0492 20.4575 17.0184 19.8411 18.0857 19.4461C19.153 19.0511 20.2936 18.8868 21.4305 18.9642L214.142 31.0661C215.919 31.1794 217.596 31.9209 218.866 33.1551C220.136 34.3893 220.914 36.0338 221.059 37.7882L232.17 168.187C232.39 170.174 231.812 172.166 230.562 173.736C229.311 175.307 227.488 176.33 225.483 176.586Z" fill="#22272E"/>
<path d="M99.9868 117.888L45.8031 120.799C44.9811 120.831 44.1787 120.545 43.5672 120.001C42.9557 119.457 42.5835 118.699 42.5301 117.888L39.3554 72.6063C39.3341 72.1813 39.3993 71.7563 39.547 71.3566C39.6947 70.9568 39.9219 70.5903 40.2153 70.2788C40.5087 69.9673 40.8623 69.717 41.2552 69.5427C41.6481 69.3684 42.0723 69.2737 42.5028 69.2642L96.692 69.6038C97.4991 69.5899 98.2804 69.8852 98.8722 70.4278C99.464 70.9704 99.8204 71.7183 99.8667 72.5147L103.052 114.524C103.08 114.945 103.023 115.367 102.883 115.766C102.743 116.165 102.524 116.532 102.238 116.845C101.952 117.159 101.606 117.412 101.219 117.591C100.832 117.771 100.413 117.871 99.9868 117.888Z" fill="#E05151"/>
<path d="M158.256 100.411L112.909 101.98C112.087 102.012 111.283 101.726 110.672 101.181C110.06 100.636 109.689 99.8757 109.637 99.0635L107.705 72.9621C107.682 72.5335 107.746 72.1046 107.895 71.7012C108.043 71.2978 108.272 70.9281 108.569 70.6145C108.865 70.3008 109.223 70.0496 109.62 69.8759C110.017 69.7022 110.446 69.6097 110.88 69.6038L156.227 69.938C157.024 69.9577 157.787 70.2644 158.371 70.8003C158.956 71.3363 159.322 72.0648 159.402 72.8489L161.316 97.0313C161.356 97.4551 161.307 97.8825 161.172 98.2868C161.037 98.6911 160.819 99.0635 160.532 99.3807C160.245 99.6979 159.895 99.9532 159.503 100.13C159.111 100.308 158.687 100.403 158.256 100.411Z" fill="#FFE779"/>
<path d="M209.609 98.7293L171.424 100.072C170.602 100.106 169.799 99.82 169.187 99.2759C168.575 98.7318 168.203 97.9724 168.151 97.1607L166.226 73.5228C166.201 73.094 166.265 72.6648 166.413 72.261C166.561 71.8573 166.791 71.4873 167.087 71.1735C167.384 70.8597 167.742 70.6085 168.139 70.4351C168.537 70.2616 168.966 70.1696 169.401 70.1644L207.585 70.3854C208.383 70.4053 209.146 70.7127 209.731 71.2498C210.316 71.7869 210.682 72.5167 210.76 73.3018L212.571 95.3656C212.613 95.7812 212.568 96.2009 212.44 96.5989C212.312 96.9969 212.103 97.3647 211.825 97.6798C211.548 97.9948 211.208 98.2505 210.827 98.431C210.446 98.6115 210.031 98.713 209.609 98.7293Z" fill="#F8A5A5"/>
<path d="M103.391 161.8L49.2015 167.648C48.7745 167.699 48.3414 167.663 47.9292 167.542C47.517 167.42 47.1344 167.217 46.805 166.943C46.4757 166.67 46.2067 166.332 46.0146 165.952C45.8226 165.572 45.7116 165.157 45.6885 164.732L43.6484 135.472C43.6122 134.646 43.8973 133.838 44.4451 133.214C44.9929 132.589 45.7618 132.195 46.594 132.113L100.898 128.529C101.314 128.499 101.733 128.55 102.13 128.68C102.526 128.81 102.893 129.017 103.208 129.287C103.524 129.557 103.783 129.887 103.969 130.256C104.156 130.626 104.267 131.028 104.296 131.44L106.325 158.441C106.327 159.256 106.032 160.045 105.492 160.662C104.953 161.279 104.207 161.683 103.391 161.8V161.8Z" stroke="#63737A" stroke-width="3.74" stroke-linecap="round" stroke-linejoin="round"/>
<path d="M163.357 160.678L118.124 165.945C117.698 165.996 117.265 165.96 116.853 165.839C116.441 165.718 116.059 165.514 115.73 165.241C115.401 164.969 115.131 164.632 114.939 164.252C114.747 163.873 114.635 163.458 114.611 163.034L110.984 114.75C110.924 113.918 111.2 113.097 111.753 112.466C112.305 111.835 113.088 111.447 113.93 111.386L159.276 109.257C160.099 109.225 160.902 109.511 161.514 110.056C162.126 110.601 162.497 111.361 162.549 112.173L166.177 157.32C166.226 158.129 165.962 158.926 165.438 159.55C164.915 160.174 164.17 160.577 163.357 160.678Z" fill="#F8A5A5"/>
<path d="M153.947 117.661L121.414 119.564C121.23 119.563 121.047 119.602 120.88 119.678C120.713 119.754 120.565 119.865 120.445 120.004C120.326 120.143 120.24 120.305 120.191 120.481C120.142 120.656 120.133 120.84 120.164 121.019L121.643 140.965C121.65 141.144 121.694 141.32 121.774 141.481C121.853 141.642 121.966 141.785 122.104 141.901C122.243 142.017 122.405 142.102 122.579 142.153C122.753 142.203 122.936 142.217 123.116 142.194L155.649 139.396C155.83 139.389 156.008 139.344 156.171 139.265C156.334 139.186 156.478 139.075 156.596 138.938C156.713 138.802 156.8 138.643 156.852 138.471C156.904 138.299 156.92 138.119 156.898 137.941L155.42 118.896C155.347 118.558 155.163 118.253 154.897 118.029C154.63 117.806 154.296 117.676 153.947 117.661Z" fill="#E05151"/>
<path d="M214.142 149.59L175.957 153.735C175.53 153.787 175.097 153.751 174.684 153.63C174.272 153.509 173.889 153.305 173.559 153.032C173.23 152.758 172.961 152.421 172.769 152.04C172.577 151.659 172.467 151.244 172.444 150.819L169.384 111.947C169.324 111.116 169.601 110.295 170.153 109.665C170.706 109.035 171.489 108.648 172.33 108.589L210.514 106.794C211.337 106.761 212.14 107.048 212.752 107.593C213.364 108.138 213.735 108.898 213.787 109.71L216.847 146.226C216.894 146.623 216.862 147.025 216.751 147.409C216.64 147.793 216.454 148.151 216.202 148.464C215.951 148.777 215.639 149.037 215.286 149.23C214.932 149.423 214.543 149.546 214.142 149.59Z" fill="#FFE779"/>
<path d="M75.7288 143.315L76.4106 151.606" stroke="#63737A" stroke-width="3.74" stroke-linecap="round" stroke-linejoin="round"/>
<path d="M72.1012 147.795L80.0381 147.126" stroke="#63737A" stroke-width="3.74" stroke-linecap="round" stroke-linejoin="round"/>
<path d="M130.027 152.501C129.803 150.258 128.101 148.469 126.061 148.695C124.021 148.921 122.434 150.932 122.663 153.288C122.892 155.644 124.703 157.32 126.743 157.094C128.691 156.759 130.142 154.743 130.027 152.501Z" fill="#282828"/>
<path d="M136.606 151.827L157.803 149.703" stroke="#282828" stroke-width="3.74" stroke-linecap="round" stroke-linejoin="round"/>
<path d="M183.785 119.133C183.556 117.003 182.083 115.435 180.272 115.435C178.456 115.548 177.212 117.343 177.321 119.472C177.55 121.596 179.023 123.278 180.84 123.165C182.743 123.041 183.987 121.246 183.785 119.133Z" fill="#E05151"/>
<path d="M189.546 118.782L207.798 117.661" stroke="#282828" stroke-width="3.74" stroke-linecap="round" stroke-linejoin="round"/>
<path d="M184.783 131.105C184.554 128.949 183.082 127.407 181.27 127.521C179.459 127.634 178.21 129.537 178.319 131.666C178.548 133.795 180.136 135.472 181.838 135.251C183.649 135.024 185.013 133.235 184.783 131.105Z" fill="#E05151"/>
<path d="M190.451 130.658L208.818 129.203" stroke="#282828" stroke-width="3.74" stroke-linecap="round" stroke-linejoin="round"/>
<path d="M185.803 143.089C185.574 140.965 184.102 139.396 182.291 139.504C180.479 139.612 179.23 141.526 179.339 143.649C179.569 145.779 181.156 147.347 182.858 147.234C184.669 147.013 185.918 145.218 185.803 143.089Z" fill="#E05151"/>
<path d="M191.471 142.533L209.723 140.738" stroke="#282828" stroke-width="3.74" stroke-linecap="round" stroke-linejoin="round"/>
<path d="M58.273 87.4144L50.9034 87.5276C50.5663 87.5107 50.2457 87.3782 49.9968 87.1529C49.7478 86.9276 49.5862 86.6236 49.5397 86.2932L48.9942 78.6762C48.9865 78.4979 49.0163 78.32 49.0819 78.1536C49.1474 77.9873 49.2472 77.8363 49.3749 77.7101C49.5026 77.5839 49.6554 77.4853 49.8237 77.4206C49.992 77.3558 50.172 77.3263 50.3525 77.3339H57.7221C58.0574 77.3518 58.3761 77.4841 58.6238 77.7082C58.8715 77.9324 59.0329 78.2345 59.0803 78.563L59.6258 86.0721C59.5827 86.4124 59.4265 86.7289 59.1816 86.9718C58.9368 87.2148 58.6172 87.3705 58.273 87.4144Z" fill="#FFE779"/>
<path d="M66.2045 77.3339L91.7117 77.2207" stroke="#282828" stroke-width="3.74" stroke-linecap="round" stroke-linejoin="round"/>
<path d="M66.6627 83.8297L92.1644 83.6033" stroke="#282828" stroke-width="3.74" stroke-linecap="round" stroke-linejoin="round"/>
<path d="M180.589 85.6193L174.806 85.7325C174.624 85.7074 174.452 85.6311 174.312 85.5126C174.172 85.3942 174.069 85.2385 174.015 85.0641L173.47 77.7813C173.467 77.6776 173.485 77.5744 173.524 77.478C173.563 77.3815 173.621 77.2938 173.695 77.2202C173.769 77.1466 173.857 77.0886 173.954 77.0498C174.052 77.011 174.156 76.9921 174.261 76.9943H180.043C180.226 77.0214 180.398 77.099 180.539 77.2181C180.68 77.3373 180.784 77.4933 180.84 77.6681L181.385 84.8377C181.371 85.0413 181.282 85.2328 181.136 85.3767C180.989 85.5205 180.795 85.6067 180.589 85.6193Z" fill="#282828"/>
<path d="M186.033 76.8865H204.961" stroke="#282828" stroke-width="3.74" stroke-linecap="round" stroke-linejoin="round"/>
<path d="M186.594 82.5952L205.414 82.3741" stroke="#282828" stroke-width="3.74" stroke-linecap="round" stroke-linejoin="round"/>
<path d="M174.583 91.8939L206.096 91.1123" stroke="#282828" stroke-width="3.74" stroke-linecap="round" stroke-linejoin="round"/>
<path d="M59.5167 104.778L52.1472 105.004C51.8054 105.004 51.4762 104.877 51.2246 104.648C50.9731 104.42 50.8176 104.106 50.7889 103.769L50.2434 96.1525C50.2331 95.9826 50.2575 95.8124 50.3153 95.652C50.373 95.4917 50.4629 95.3445 50.5794 95.2192C50.696 95.0939 50.837 94.9931 50.9939 94.9229C51.1508 94.8526 51.3204 94.8143 51.4926 94.8103L58.8622 94.5839C59.1983 94.602 59.5177 94.735 59.7655 94.9602C60.0133 95.1854 60.1741 95.4888 60.2204 95.8183L60.7659 103.322C60.7875 103.677 60.6697 104.026 60.437 104.298C60.2042 104.569 59.8746 104.741 59.5167 104.778Z" fill="#FFE779"/>
<path d="M67.4536 94.4707L92.9608 93.8022" stroke="#282828" stroke-width="3.74" stroke-linecap="round" stroke-linejoin="round"/>
<path d="M67.9064 101.08L93.4136 100.298" stroke="#282828" stroke-width="3.74" stroke-linecap="round" stroke-linejoin="round"/>
<path d="M78.1071 50.5587L39.9227 49.4374C39.3154 49.4217 38.7358 49.1835 38.2963 48.7691C37.8568 48.3547 37.5888 47.7936 37.5443 47.1949L37.0916 41.2653C37.0627 40.9293 37.1064 40.5912 37.2199 40.2732C37.3334 39.9553 37.514 39.6648 37.7498 39.4211C37.9855 39.1774 38.2711 38.9861 38.5874 38.8598C38.9037 38.7335 39.2436 38.6751 39.5845 38.6885L77.7689 40.2572C78.3739 40.2754 78.9509 40.5138 79.3889 40.9267C79.8268 41.3396 80.095 41.8979 80.1418 42.4943L80.6055 47.9766C80.6241 48.311 80.5732 48.6456 80.4557 48.9597C80.3383 49.2738 80.1568 49.5608 79.9227 49.8028C79.6885 50.0448 79.4065 50.2368 79.0942 50.3668C78.7819 50.4969 78.446 50.5622 78.1071 50.5587Z" fill="#E05151"/>
<path d="M116.766 77.1075L152.818 76.9943" stroke="#282828" stroke-width="3.74" stroke-linecap="round" stroke-linejoin="round"/>
<path d="M117.219 83.3822L153.27 82.9348" stroke="#282828" stroke-width="3.74" stroke-linecap="round" stroke-linejoin="round"/>
<path d="M117.901 93.2416L137.282 92.7942" stroke="#282828" stroke-width="3.74" stroke-linecap="round" stroke-linejoin="round"/>
<path d="M208.474 49.9981C208.365 48.3162 207.116 46.8607 205.643 46.7637C204.279 46.6559 203.15 48.1113 203.374 49.7878C203.488 51.5829 204.737 53.0222 206.21 53.0222C207.569 53.1354 208.589 51.6799 208.474 49.9981Z" fill="#63737A"/>
<path d="M198.388 49.6638C198.273 47.8687 196.915 46.4294 195.551 46.4294C194.079 46.3162 193.059 47.7717 193.173 49.5667C193.288 51.3618 194.646 52.8011 196.119 52.8011C197.477 52.7957 198.513 51.3403 198.388 49.6638Z" fill="#63737A"/>
<path d="M187.958 49.211C187.844 47.4213 186.485 45.9766 185.013 45.8527C183.54 45.7287 182.405 47.1949 182.514 48.99C182.623 50.7851 183.987 52.2244 185.465 52.3484C187.058 52.4616 188.073 51.0061 187.958 49.211Z" fill="#63737A"/>
<path d="M254.503 64.6875L204.17 63.7927C203.186 63.7944 202.238 63.4241 201.521 62.7576C200.804 62.0911 200.372 61.179 200.314 60.2079L195.786 5.39064C195.76 4.95913 195.826 4.52703 195.982 4.12286C196.137 3.71869 196.377 3.35165 196.686 3.04598C196.996 2.74031 197.367 2.50295 197.776 2.34958C198.185 2.19622 198.622 2.13033 199.059 2.15626L249.621 7.42291C250.542 7.50962 251.402 7.91821 252.046 8.57528C252.69 9.23235 253.075 10.0948 253.134 11.0077L257.557 61.3076C257.607 61.7328 257.564 62.1635 257.433 62.5713C257.302 62.9792 257.085 63.3551 256.797 63.6743C256.508 63.9935 256.155 64.2487 255.759 64.4234C255.364 64.598 254.936 64.688 254.503 64.6875Z" fill="#F8AB5D"/>
<path d="M257.219 63.7765L206.887 62.8817C205.903 62.8833 204.956 62.5128 204.24 61.8462C203.524 61.1796 203.093 60.2675 203.036 59.2969L198.513 4.51735C198.487 4.08584 198.554 3.65374 198.709 3.24957C198.864 2.8454 199.104 2.47836 199.414 2.17269C199.723 1.86702 200.094 1.62966 200.503 1.47629C200.912 1.32292 201.35 1.25703 201.786 1.28297L252.348 6.54961C253.27 6.63526 254.13 7.04353 254.774 7.70081C255.419 8.35809 255.804 9.22114 255.861 10.1344L260.279 60.4343C260.313 60.855 260.259 61.278 260.121 61.6775C259.984 62.0769 259.765 62.4443 259.478 62.7573C259.192 63.0702 258.844 63.322 258.455 63.4972C258.067 63.6725 257.646 63.7675 257.219 63.7765Z" fill="#FFE779"/>
<path d="M220.491 11.4604L247.133 13.924" stroke="#63737A" stroke-width="3.74" stroke-linecap="round" stroke-linejoin="round"/>
<path d="M220.944 16.8403L247.586 19.0774" stroke="#63737A" stroke-width="3.74" stroke-linecap="round" stroke-linejoin="round"/>
<path d="M221.964 29.1633L248.721 30.953" stroke="#63737A" stroke-width="3.74" stroke-linecap="round" stroke-linejoin="round"/>
<path d="M222.417 34.4246L249.059 35.9932" stroke="#63737A" stroke-width="3.74" stroke-linecap="round" stroke-linejoin="round"/>
<path d="M223.551 46.8607L250.193 47.982" stroke="#63737A" stroke-width="3.74" stroke-linecap="round" stroke-linejoin="round"/>
<path d="M224.004 52.1273L250.646 53.0222" stroke="#63737A" stroke-width="3.74" stroke-linecap="round" stroke-linejoin="round"/>
<path d="M211.311 14.4846L212.669 16.1664L214.6 13.5897" stroke="#E05151" stroke-width="3.74" stroke-linecap="round" stroke-linejoin="round"/>
<path d="M212.783 32.4084L214.142 33.9771L216.182 31.4004" stroke="#E05151" stroke-width="3.74" stroke-linecap="round" stroke-linejoin="round"/>
<path d="M214.256 49.9981L215.729 51.5668L217.66 48.8768" stroke="#E05151" stroke-width="3.74" stroke-linecap="round" stroke-linejoin="round"/>
</svg>
