<svg width="191" height="47" viewBox="0 0 191 47" fill="none" xmlns="http://www.w3.org/2000/svg">
<path d="M107.568 8.07611V16.1069L106.407 15.1432C104.386 13.4911 102.45 12.8487 99.2243 12.8487C93.9341 12.8487 90.2782 15.4644 87.9987 20.7418C86.4073 24.5048 85.8482 28.6808 86.4503 32.9944C87.6546 41.4841 91.7836 46.2567 98.2781 46.7156C101.891 46.945 104.472 46.3025 106.192 44.7423C107.74 43.3656 108.127 43.3197 107.783 44.4669C107.396 45.7519 108.385 46.1649 111.525 45.9813L114.364 45.7978L114.536 24.413C114.622 12.6192 114.579 2.29395 114.493 1.46793L114.364 -0.000549316H110.966H107.568V8.07611ZM104.041 20.1911C106.407 21.7514 107.353 24.5965 107.353 30.0575C107.353 34.0958 107.224 34.8759 106.278 36.6656C104.687 39.6944 103.267 40.6122 100.257 40.6122C97.2458 40.6122 95.7405 39.6485 94.4502 36.8951C93.762 35.4266 93.59 34.1876 93.59 30.0575C93.59 25.6979 93.719 24.7342 94.5792 23.0363C95.1384 21.9808 96.1706 20.65 96.9448 20.1911C98.7942 18.9521 102.149 18.9979 104.041 20.1911Z" fill="#B02D19"/>
<path d="M177.889 5.87259C177.76 6.01026 177.674 7.75409 177.674 9.72736V13.3068H174.018H170.362V16.5191V19.7314H174.018H177.674V23.6321V27.5327H180.685H183.695V23.6321V19.7773L187.265 19.6396L190.792 19.5019L190.921 17.4828C191.179 13.4903 191.007 13.3068 187.136 13.3068H183.695V9.63558C183.695 7.61642 183.566 5.96437 183.394 5.96437C183.179 5.91848 181.932 5.87259 180.599 5.78081C179.222 5.73492 178.018 5.73492 177.889 5.87259Z" fill="black"/>
<path d="M7.78481 6.37785L4.98916 6.65319L4.86013 9.95728L4.7311 13.2614L2.49458 13.399L0.25806 13.5367L0.12903 16.6113L0 19.7319H2.32254H4.64508L4.86013 29.2311C5.03217 37.4913 5.1612 39.0516 5.93538 40.8413C7.01063 43.457 9.37618 45.7057 11.7417 46.394C13.9352 47.0365 20.4728 46.6693 21.376 45.8433C21.8491 45.4303 21.9781 44.5125 21.8921 42.4934C21.7631 39.9694 21.677 39.6941 20.9029 39.8317C20.4298 39.9235 18.7954 40.1071 17.247 40.2447C14.8815 40.4283 14.2793 40.3365 13.3761 39.5564C12.3009 38.6386 12.3009 38.5927 12.1718 29.277L12.0428 19.9154L16.0427 19.7778C18.4943 19.7319 20.1717 19.4565 20.3437 19.1353C20.7308 18.4928 20.7738 15.0511 20.4298 14.0415C20.2147 13.4449 19.3975 13.3073 16.1288 13.3073H12.1288L11.9998 9.77372C11.8708 5.73539 12.1288 5.96484 7.78481 6.37785Z" fill="#B02D19"/>
<path d="M33.5909 13.6286C30.7952 14.684 26.6663 19.2271 25.505 22.5312C23.0964 29.4147 24.2577 37.3078 28.4727 42.4016C29.2039 43.2736 30.8812 44.6044 32.2146 45.2927C34.4081 46.44 35.0962 46.5776 39.1822 46.5776C43.2681 46.5776 43.9133 46.44 46.1928 45.2927C49.0315 43.7783 51.182 40.8873 51.526 38.0421L51.7841 36.2524H48.3003C44.8595 36.2524 44.8165 36.2524 44.6875 37.4914C44.4724 39.4188 42.666 40.5201 39.6983 40.5201C35.5693 40.4743 32.6016 38.088 31.6554 34.0955L31.1393 31.8928L41.2897 31.6634L51.44 31.4339L51.5691 27.8545C51.7411 23.036 50.8809 20.0532 48.5584 17.208C45.9347 14.0416 43.3111 12.8484 38.9671 12.8943C36.9887 12.8943 34.7091 13.2155 33.5909 13.6286ZM42.2789 19.9614C43.1821 20.3285 44.5584 22.6689 44.9455 24.4127L45.2036 25.6976H38.537C33.7629 25.6976 31.8705 25.56 31.8705 25.147C31.8705 24.1833 34.064 20.6497 35.0102 20.0991C37.0317 18.9518 39.9133 18.86 42.2789 19.9614Z" fill="#B02D19"/>
<path d="M66.9237 13.9497C65.7624 14.5004 64.4721 15.3723 64.128 15.8312C63.5259 16.6113 63.4829 16.5654 63.2678 15.0969L63.0528 13.5367H59.827H56.6013L56.4723 29.69L56.3862 45.8892H59.827H63.2678V37.1701C63.2678 32.3975 63.4829 27.4414 63.7409 26.1105C64.9022 20.2825 71.0526 17.3914 74.2784 21.1544C75.0096 22.0263 75.0956 23.2195 75.3106 33.9119L75.5257 45.6597L78.8805 45.7974L82.1922 45.9351L82.2783 37.5372C82.4503 21.4298 82.1922 18.9517 79.9987 16.336C77.074 12.7565 71.3537 11.7011 66.9237 13.9497Z" fill="#B02D19"/>
<path d="M127.481 13.8122C122.191 15.969 118.32 22.8525 118.32 30.0573C118.363 36.6196 121.503 42.7229 126.234 45.2928C129.116 46.8989 134.621 47.2661 138.277 46.1647C142.191 44.9257 145.804 40.7038 145.847 37.262C145.847 36.2983 145.675 36.2524 142.449 36.2524H139.094L138.836 37.6291C138.664 38.3634 138.062 39.2812 137.503 39.7401C135.954 40.7956 131.696 40.7038 129.632 39.6024C127.826 38.5928 125.89 35.5641 125.46 33.1778L125.245 31.6634L135.438 31.5716L145.632 31.434V27.3039C145.632 20.558 143.395 16.2444 138.75 13.9498C135.911 12.5273 130.793 12.4814 127.481 13.8122ZM136.557 20.2368C137.847 21.3382 138.965 23.4032 138.965 24.7799C138.965 25.6518 138.75 25.6977 132.514 25.6977C126.836 25.6977 126.062 25.6059 126.062 24.9635C126.062 23.7244 127.826 21.0628 129.245 20.145C131.137 18.906 135.008 18.9519 136.557 20.2368Z" fill="#B02D19"/>
<path d="M161.116 13.7202C160.169 14.1791 158.965 15.0051 158.449 15.5558L157.46 16.5654V15.1887C157.46 13.5366 156.643 13.1695 153.116 13.399L150.793 13.5366L150.664 29.69L150.578 45.8892H154.019H157.46V36.5735C157.46 25.4681 157.89 23.2195 160.341 21.2462C161.632 20.1907 162.32 19.9613 164.298 20.0072C165.632 20.053 167.223 20.1907 167.911 20.4202L169.072 20.7414V17.3455C169.072 15.3264 168.857 13.7202 168.556 13.399C167.739 12.5271 163.094 12.7565 161.116 13.7202Z" fill="#B02D19"/>
</svg>
