<svg width="151" height="37" viewBox="0 0 151 37" fill="none" xmlns="http://www.w3.org/2000/svg">
<path d="M85.041 6.38533V12.7343L84.1229 11.9724C82.5248 10.6663 80.9946 10.1584 78.4444 10.1584C74.2621 10.1584 71.3719 12.2264 69.5697 16.3985C68.3116 19.3734 67.8696 22.6749 68.3456 26.0852C69.2977 32.7969 72.562 36.57 77.6964 36.9328C80.5526 37.1142 82.5928 36.6063 83.9529 35.3728C85.177 34.2844 85.483 34.2481 85.211 35.1551C84.905 36.1709 85.687 36.4974 88.1692 36.3523L90.4134 36.2072L90.5494 19.3009C90.6174 9.97702 90.5834 1.8141 90.5154 1.16107L90.4134 0.000119405H87.7272H85.041V6.38533ZM82.2527 15.9632C84.1229 17.1967 84.871 19.446 84.871 23.7633C84.871 26.9559 84.7689 27.5726 84.0209 28.9875C82.7628 31.382 81.6407 32.1076 79.2605 32.1076C76.8803 32.1076 75.6902 31.3457 74.6701 29.1689C74.1261 28.008 73.9901 27.0284 73.9901 23.7633C73.9901 20.3167 74.0921 19.5548 74.7721 18.2125C75.2142 17.3781 76.0302 16.326 76.6423 15.9632C78.1044 14.9836 80.7566 15.0199 82.2527 15.9632Z" fill="#B02D19"/>
<path d="M140.635 4.64329C140.533 4.75212 140.465 6.13075 140.465 7.69078V10.5206H137.575H134.685V13.0602V15.5997H137.575H140.465V18.6835V21.7673H142.845H145.226V18.6835V15.636L148.048 15.5272L150.836 15.4183L150.938 13.822C151.142 10.6657 151.006 10.5206 147.946 10.5206H145.226V7.61822C145.226 6.02191 145.124 4.71585 144.988 4.71585C144.817 4.67957 143.831 4.64329 142.777 4.57073C141.689 4.53445 140.737 4.53445 140.635 4.64329Z" fill="black"/>
<path d="M6.15449 5.04272L3.94431 5.2604L3.84231 7.87253L3.7403 10.4847L1.97216 10.5935L0.204016 10.7023L0.102008 13.1331L0 15.6001H1.83615H3.67229L3.84231 23.11C3.97832 29.6403 4.08033 30.8738 4.69237 32.2887C5.54244 34.3567 7.41259 36.1344 9.28274 36.6786C11.0169 37.1865 16.1853 36.8962 16.8993 36.2432C17.2734 35.9167 17.3754 35.1911 17.3074 33.5948C17.2054 31.5994 17.1374 31.3817 16.5253 31.4906C16.1513 31.5631 14.8592 31.7083 13.6351 31.8171C11.7649 31.9622 11.2889 31.8897 10.5748 31.2729C9.72478 30.5473 9.72478 30.511 9.62277 23.1463L9.52076 15.7452L12.683 15.6364C14.6212 15.6001 15.9473 15.3824 16.0833 15.1285C16.3893 14.6205 16.4233 11.8996 16.1513 11.1014C15.9813 10.6298 15.3352 10.5209 12.751 10.5209H9.58876L9.48676 7.72741C9.38475 4.53481 9.58876 4.71621 6.15449 5.04272Z" fill="#B02D19"/>
<path d="M26.5559 10.775C24.3457 11.6094 21.0815 15.2011 20.1634 17.8132C18.2593 23.2551 19.1773 29.4952 22.5096 33.5223C23.0876 34.2116 24.4137 35.2637 25.4678 35.8079C27.202 36.7149 27.746 36.8237 30.9763 36.8237C34.2065 36.8237 34.7166 36.7149 36.5187 35.8079C38.7629 34.6107 40.463 32.3251 40.735 30.0757L40.9391 28.6608H38.1848C35.4646 28.6608 35.4306 28.6608 35.3286 29.6404C35.1586 31.1641 33.7305 32.0348 31.3843 32.0348C28.12 31.9985 25.7739 30.112 25.0258 26.9557L24.6178 25.2142L32.6424 25.0328L40.667 24.8515L40.7691 22.0216C40.9051 18.2123 40.225 15.8541 38.3889 13.6048C36.3147 11.1015 34.2405 10.1582 30.8063 10.1945C29.2421 10.1945 27.44 10.4484 26.5559 10.775ZM33.4245 15.7815C34.1385 16.0718 35.2266 17.922 35.5326 19.3007L35.7366 20.3165H30.4662C26.6919 20.3165 25.1958 20.2077 25.1958 19.8811C25.1958 19.1193 26.9299 16.3257 27.678 15.8904C29.2761 14.9834 31.5543 14.9108 33.4245 15.7815Z" fill="#B02D19"/>
<path d="M52.9081 11.0288C51.99 11.4642 50.9699 12.1535 50.6979 12.5163C50.2218 13.1331 50.1878 13.0968 50.0178 11.9358L49.8478 10.7023H47.2976H44.7474L44.6454 23.4727L44.5774 36.2795H47.2976H50.0178V29.3863C50.0178 25.6132 50.1878 21.695 50.3919 20.6429C51.3099 16.0354 56.1723 13.7498 58.7225 16.7247C59.3006 17.414 59.3686 18.3573 59.5386 26.8105L59.7086 36.0981L62.3608 36.2069L64.979 36.3157L65.047 29.6766C65.183 16.9424 64.979 14.9833 63.2449 12.9154C60.9327 10.0856 56.4103 9.25113 52.9081 11.0288Z" fill="#B02D19"/>
<path d="M100.784 10.9201C96.6015 12.6253 93.5413 18.0672 93.5413 23.7631C93.5753 28.9511 96.0575 33.7763 99.7978 35.808C102.076 37.0778 106.428 37.368 109.319 36.4973C112.413 35.5177 115.269 32.18 115.303 29.459C115.303 28.6972 115.167 28.6609 112.617 28.6609H109.965L109.761 29.7493C109.625 30.3297 109.149 31.0553 108.706 31.4181C107.482 32.2526 104.116 32.18 102.484 31.3093C101.056 30.5111 99.5257 28.1167 99.1857 26.2301L99.0157 25.0329L107.074 24.9604L115.133 24.8515V21.5864C115.133 16.2532 113.365 12.843 109.693 11.029C107.448 9.90431 103.402 9.86803 100.784 10.9201ZM107.958 15.9993C108.978 16.87 109.863 18.5026 109.863 19.591C109.863 20.2803 109.693 20.3166 104.762 20.3166C100.274 20.3166 99.6617 20.244 99.6617 19.7361C99.6617 18.7565 101.056 16.6523 102.178 15.9267C103.674 14.9472 106.734 14.9835 107.958 15.9993Z" fill="#B02D19"/>
<path d="M127.374 10.8474C126.626 11.2102 125.674 11.8633 125.266 12.2986L124.484 13.0968V12.0084C124.484 10.7023 123.838 10.4121 121.05 10.5935L119.214 10.7023L119.112 23.4727L119.044 36.2794H121.764H124.484V28.9147C124.484 20.135 124.824 18.3573 126.762 16.7973C127.782 15.9629 128.326 15.7815 129.89 15.8177C130.945 15.854 132.203 15.9629 132.747 16.1443L133.665 16.3982V13.7135C133.665 12.1172 133.495 10.8474 133.257 10.5935C132.611 9.90416 128.938 10.0856 127.374 10.8474Z" fill="#B02D19"/>
</svg>
