<svg width="92" height="74" viewBox="0 0 92 74" fill="none" xmlns="http://www.w3.org/2000/svg">
<circle cx="35" cy="36" r="32" fill="#DD4B39" fill-opacity="0.2"/>
<circle cx="12" cy="12" r="12" fill="#DD4B39" fill-opacity="0.2"/>
<circle cx="14" cy="24" r="8" fill="#DD4B39" fill-opacity="0.2"/>
<mask id="mask0_1007_1494" style="mask-type:alpha" maskUnits="userSpaceOnUse" x="22" y="4" width="70" height="70">
<rect x="22" y="4" width="70" height="70" fill="#D9D9D9"/>
</mask>
<g mask="url(#mask0_1007_1494)">
<path d="M51.1666 44.8333H62.8333V38.9999H51.1666V44.8333ZM51.1666 36.0833H74.4999V30.2499H51.1666V36.0833ZM51.1666 27.3333H74.4999V21.4999H51.1666V27.3333ZM45.3333 56.4999C43.7291 56.4999 42.3563 55.9292 41.2149 54.7878C40.0716 53.6445 39.4999 52.2708 39.4999 50.6666V15.6666C39.4999 14.0624 40.0716 12.6887 41.2149 11.5453C42.3563 10.4039 43.7291 9.83325 45.3333 9.83325H80.3333C81.9374 9.83325 83.3112 10.4039 84.4545 11.5453C85.5959 12.6887 86.1666 14.0624 86.1666 15.6666V50.6666C86.1666 52.2708 85.5959 53.6445 84.4545 54.7878C83.3112 55.9292 81.9374 56.4999 80.3333 56.4999H45.3333ZM45.3333 50.6666H80.3333V15.6666H45.3333V50.6666ZM33.6666 68.1666C32.0624 68.1666 30.6896 67.5959 29.5483 66.4545C28.4049 65.3112 27.8333 63.9374 27.8333 62.3333V21.4999H33.6666V62.3333H74.4999V68.1666H33.6666Z" fill="#DD4B39" fill-opacity="0.7"/>
</g>
</svg>
