<svg width="1920" height="1006" viewBox="0 0 1920 1006" fill="none" xmlns="http://www.w3.org/2000/svg">
<g clip-path="url(#clip0_2919_5856)">
<rect width="1920" height="1006" fill="#DF3131"/>
<ellipse cx="53" cy="61.5" rx="241" ry="242.5" fill="#ED3E3E"/>
<ellipse cx="1858.88" cy="712.15" rx="305.775" ry="357.188" transform="rotate(35.5133 1858.88 712.15)" fill="#ED3E3E"/>
<path d="M0 872C6.18724 827.708 47.0565 714.273 161.036 614.87C303.509 490.616 548.825 501.774 696.818 416.064C844.81 330.354 857.853 142.198 1000.33 56.4877C1114.31 -12.0803 1282.93 -12.655 1353 -4.37143" stroke="#ED3E3E" stroke-width="5"/>
<path d="M677 1006C698.233 959.754 775.956 848.82 916.985 775.046C1093.27 682.829 1318.23 768.506 1486.21 719.802C1654.19 671.098 1732.04 470.673 1894.87 420.314C2025.13 380.027 2182.64 429.968 2245.12 459.974" stroke="#ED3E3E" stroke-width="5"/>
<path d="M535 1006C537.303 959.599 568.491 838.585 674.826 725.734C807.743 584.671 1056.68 574.864 1198.62 473.23C1340.55 371.596 1336.95 175.635 1473.31 74.4812C1582.39 -6.4415 1752.77 -21.7192 1824.33 -19.2427" stroke="#ED3E3E" stroke-width="5"/>
<path d="M-125 473C-118.813 428.708 -77.9435 315.273 36.0356 215.87C178.509 91.6161 423.825 102.774 571.818 17.0637C719.81 -68.6462 732.853 -256.802 875.327 -342.512C989.306 -411.08 1157.93 -411.655 1228 -403.371" stroke="#ED3E3E" stroke-width="5"/>
<path d="M893 1026C899.187 981.708 940.057 868.273 1054.04 768.87C1196.51 644.616 1441.83 655.774 1589.82 570.064C1737.81 484.354 1750.85 296.198 1893.33 210.488C2007.31 141.92 2175.93 141.345 2246 149.629" stroke="#ED3E3E" stroke-width="5"/>
</g>
<defs>
<clipPath id="clip0_2919_5856">
<rect width="1920" height="1006" fill="white"/>
</clipPath>
</defs>
</svg>
