<svg width="206" height="207" viewBox="0 0 206 207" fill="none" xmlns="http://www.w3.org/2000/svg">
<g filter="url(#filter0_d_1007_1299)">
<circle cx="103" cy="103.5" r="64" fill="#DD4B39"/>
</g>
<path d="M91.0859 79.1875C92.1276 79.8385 93.1042 80.4245 94.0156 80.9453C95.0573 81.4661 95.6432 82.3125 95.7734 83.4844C95.7734 84.0052 95.513 84.9167 94.9922 86.2188C94.6016 87.5208 94.0807 88.9531 93.4297 90.5156C92.9089 92.0781 92.388 93.6406 91.8672 95.2031C91.4766 96.6354 91.2812 97.8073 91.2812 98.7188C92.1927 98.1979 93.2344 97.7422 94.4062 97.3516C95.7083 96.9609 97.0755 97.0911 98.5078 97.7422C100.201 98.5234 101.438 99.7604 102.219 101.453C103 103.146 103.391 104.969 103.391 106.922C103.391 108.875 103 110.893 102.219 112.977C101.568 114.93 100.656 116.622 99.4844 118.055C98.3125 119.487 97.1406 120.464 95.9688 120.984C94.7969 121.375 93.5599 121.57 92.2578 121.57C90.9557 121.57 89.5234 121.44 87.9609 121.18C86.5286 120.789 84.9661 120.464 83.2734 120.203C81.3203 118.51 79.6276 116.492 78.1953 114.148C76.8932 111.805 76.5677 108.745 77.2188 104.969C77.4792 103.146 77.8698 100.932 78.3906 98.3281C79.0417 95.5938 79.7578 93.4453 80.5391 91.8828C81.7109 89.6693 83.2734 87.3906 85.2266 85.0469C87.1797 82.7031 89.1328 80.75 91.0859 79.1875ZM120.188 78.7969C120.969 79.4479 121.75 80.0339 122.531 80.5547C123.312 81.0755 124.029 81.7266 124.68 82.5078C124.029 84.4609 123.117 86.9349 121.945 89.9297C120.904 92.7943 120.122 95.3333 119.602 97.5469C120.904 96.7656 122.401 96.4401 124.094 96.5703C125.786 96.7005 127.349 97.1562 128.781 97.9375C130.214 98.7188 131.385 99.8255 132.297 101.258C133.339 102.56 133.859 104.188 133.859 106.141C133.99 108.745 133.273 111.479 131.711 114.344C130.148 117.078 128.26 119.031 126.047 120.203C124.094 121.245 121.945 121.701 119.602 121.57C117.388 121.31 115.435 120.529 113.742 119.227C113.352 118.966 113.026 118.51 112.766 117.859C112.635 117.208 112.31 116.557 111.789 115.906C110.878 114.734 109.901 113.693 108.859 112.781C107.818 111.87 107.167 110.372 106.906 108.289C106.646 105.164 106.841 102.169 107.492 99.3047C108.273 96.3099 109.315 93.5755 110.617 91.1016C111.919 88.4974 113.417 86.1536 115.109 84.0703C116.802 81.987 118.495 80.2292 120.188 78.7969Z" fill="#FFD8AC"/>
<defs>
<filter id="filter0_d_1007_1299" x="0" y="0.5" width="206" height="206" filterUnits="userSpaceOnUse" color-interpolation-filters="sRGB">
<feFlood flood-opacity="0" result="BackgroundImageFix"/>
<feColorMatrix in="SourceAlpha" type="matrix" values="0 0 0 0 0 0 0 0 0 0 0 0 0 0 0 0 0 0 127 0" result="hardAlpha"/>
<feMorphology radius="9" operator="dilate" in="SourceAlpha" result="effect1_dropShadow_1007_1299"/>
<feOffset/>
<feGaussianBlur stdDeviation="15"/>
<feComposite in2="hardAlpha" operator="out"/>
<feColorMatrix type="matrix" values="0 0 0 0 0.94902 0 0 0 0 0.47451 0 0 0 0 0.196078 0 0 0 0.3 0"/>
<feBlend mode="normal" in2="BackgroundImageFix" result="effect1_dropShadow_1007_1299"/>
<feBlend mode="normal" in="SourceGraphic" in2="effect1_dropShadow_1007_1299" result="shape"/>
</filter>
</defs>
</svg>
