<svg width="20" height="20" viewBox="0 0 20 20" fill="none" xmlns="http://www.w3.org/2000/svg">
<path d="M16.079 1.73738L16.0799 1.73772C16.6103 1.94389 17.0029 2.1995 17.4023 2.59895C17.8018 2.99841 18.056 3.3897 18.262 3.92071C18.4195 4.32296 18.5933 4.90692 18.6395 5.93634C18.6888 7.00134 18.6987 7.32729 18.6987 9.9975C18.6987 12.6677 18.6888 12.9949 18.6395 14.0599L16.079 1.73738ZM16.079 1.73738C15.6777 1.58227 15.0946 1.40679 14.0639 1.36051C12.9985 1.31122 12.6724 1.3025 10.0013 1.3025H9.60375V1.29966L9.10341 1.3C7.23479 1.30125 6.86932 1.31383 5.93699 1.35678L5.93695 1.35678C4.90754 1.40429 4.32528 1.57819 3.9225 1.73526C3.39121 1.9413 2.99979 2.1956 2.6002 2.5952C2.20082 2.99458 1.94523 3.3871 1.73908 3.91732C1.58194 4.32024 1.40804 4.90378 1.36053 5.9332L1.36051 5.93373M16.079 1.73738L1.36051 5.93373M5.93748 18.6345L5.93695 18.6345C4.9108 18.5871 4.32898 18.4142 3.92634 18.2575C3.42597 18.0723 2.97306 17.7782 2.60042 17.3963C2.21749 17.0238 1.92228 16.5706 1.73622 16.0698C1.58119 15.6693 1.40663 15.0863 1.36051 14.0588L5.93748 18.6345ZM5.93748 18.6345C7.00242 18.6825 7.32867 18.6938 10.0013 18.6938C12.6738 18.6938 12.9988 18.6825 14.0638 18.6345L14.0643 18.6345L5.93748 18.6345ZM1.36051 5.93373C1.31249 6.99893 1.3025 7.3229 1.3025 9.995C1.3025 12.6682 1.31249 12.9935 1.3605 14.0587L1.36051 5.93373ZM18.2639 16.0706C18.078 16.5724 17.7822 17.0263 17.3982 17.3989C16.9997 17.7967 16.6091 18.0502 16.0794 18.2558L18.2639 16.0706ZM18.2639 16.0706C18.4186 15.6696 18.5933 15.0882 18.6395 14.0606L18.2639 16.0706ZM5.9016 0.559478C6.95618 0.512499 7.28943 0.500008 9.9975 0.5L0.990965 16.3687C0.765752 15.7897 0.607333 15.1179 0.559478 14.0997C0.512484 13.0447 0.5 12.7129 0.5 10.0013C0.5 7.28694 0.512486 6.95519 0.559491 5.89756C0.606098 4.88241 0.765616 4.20949 0.990865 3.63158L0.990894 3.63159L0.992891 3.62629C1.21867 3.02705 1.57228 2.48419 2.02912 2.03546L2.02918 2.03552L2.03565 2.02892C2.48402 1.57193 3.0268 1.21838 3.62603 0.99299L3.62604 0.99302L3.63127 0.990985C4.21022 0.765773 4.88203 0.607336 5.9016 0.559478ZM10 0.5C10.0004 0.5 10.0008 0.5 10.0013 0.5C12.7121 0.500012 13.0428 0.512508 14.0987 0.559491C15.115 0.606094 15.7882 0.765596 16.369 0.991105L16.369 0.991133L16.3741 0.99305C16.9734 1.21821 17.5161 1.57172 17.9642 2.0288L17.9642 2.02886L17.9709 2.03548C18.4278 2.48417 18.7814 3.02702 19.0071 3.62626L19.0071 3.62627L19.0088 3.63078C19.2331 4.20917 19.3927 4.88251 19.4405 5.89908C19.4875 6.95524 19.5 7.28714 19.5 10C19.5 12.7131 19.4875 13.0448 19.4405 14.0999C19.3927 15.1173 19.2332 15.7894 19.0088 16.3693C18.7758 16.967 18.4711 17.4643 17.9677 17.9677L17.9643 17.9712C17.5162 18.428 16.9739 18.7816 16.375 19.0071L16.375 19.007L16.37 19.009C15.7911 19.2342 15.1169 19.3927 14.0997 19.4405C13.0435 19.4875 12.7129 19.5 10 19.5C7.287 19.5 6.95521 19.4875 5.89891 19.4405C4.88148 19.3939 4.21073 19.2345 3.62971 19.0089L3.62955 19.0088C3.03255 18.7773 2.53522 18.4717 2.0327 17.9681L2.0323 17.9677C1.52876 17.4642 1.22405 16.9667 0.990985 16.3687L10 0.5ZM15.0709 4.01578C15.1558 3.98061 15.2468 3.9625 15.3387 3.9625C15.5244 3.9625 15.7024 4.03625 15.8337 4.16753C15.965 4.2988 16.0387 4.47685 16.0387 4.6625C16.0387 4.84815 15.965 5.0262 15.8337 5.15747C15.7024 5.28875 15.5244 5.3625 15.3387 5.3625C15.2468 5.3625 15.1558 5.34439 15.0709 5.30922C14.9859 5.27404 14.9088 5.22248 14.8438 5.15747C14.7788 5.09247 14.7272 5.01531 14.692 4.93038C14.6569 4.84545 14.6388 4.75443 14.6388 4.6625C14.6388 4.57057 14.6569 4.47955 14.692 4.39462C14.7272 4.30969 14.7788 4.23253 14.8438 4.16753C14.9088 4.10252 14.9859 4.05096 15.0709 4.01578ZM8.19715 5.69682C8.76798 5.46816 9.3786 5.35535 9.99345 5.36494C11.2104 5.38393 12.3711 5.88068 13.2249 6.74797C14.0788 7.61527 14.5574 8.78354 14.5574 10.0006C14.5574 11.2177 14.0788 12.386 13.2249 13.2533C12.3711 14.1206 11.2104 14.6173 9.99345 14.6363C9.3786 14.6459 8.76798 14.5331 8.19715 14.3044C7.62631 14.0758 7.10667 13.7358 6.66847 13.3044C6.23028 12.873 5.88228 12.3587 5.64474 11.7915C5.40721 11.2243 5.28488 10.6156 5.28488 10.0006C5.28488 9.3857 5.4072 8.77691 5.64474 8.20972C5.88228 7.64252 6.23028 7.12824 6.66847 6.69683C7.10667 6.26542 7.62631 5.92548 8.19715 5.69682ZM12.7121 7.28913C11.9932 6.57016 11.018 6.16625 10.0013 6.16625C8.98448 6.16625 8.00935 6.57016 7.29038 7.28913C6.57141 8.0081 6.1675 8.98323 6.1675 10C6.1675 11.0168 6.57141 11.9919 7.29038 12.7109C8.00935 13.4298 8.98448 13.8337 10.0013 13.8337C11.018 13.8337 11.9932 13.4298 12.7121 12.7109C13.4311 11.9919 13.835 11.0168 13.835 10C13.835 8.98323 13.4311 8.0081 12.7121 7.28913Z" fill="#D21B1B" stroke="#D21B1B"/>
</svg>
