<svg width="1621" height="336" viewBox="0 0 1621 336" fill="none" xmlns="http://www.w3.org/2000/svg">
<rect x="23.5981" y="3.98016" width="1538.05" height="270.457" rx="30" fill="#DF3131"/>
<path d="M1505.58 224.083C1511.39 221.077 1519.42 222.71 1523.53 227.717C1527.64 232.724 1526.28 239.223 1520.48 242.23C1514.67 245.236 1506.64 243.603 1502.53 238.596C1498.42 233.589 1499.78 227.09 1505.58 224.083Z" stroke="url(#paint0_linear_2896_6091)" stroke-opacity="0.1" stroke-width="1.5"/>
<path d="M1508.28 226.92C1512.18 224.896 1517.58 225.997 1520.35 229.363C1523.11 232.73 1522.2 237.102 1518.29 239.125C1514.39 241.149 1508.98 240.048 1506.22 236.682C1503.46 233.315 1504.37 228.943 1508.28 226.92Z" stroke="url(#paint1_linear_2896_6091)" stroke-opacity="0.1" stroke-width="1.5"/>
<path d="M1510.5 230.003C1512.49 228.974 1515.23 229.535 1516.63 231.242C1518.03 232.948 1517.57 235.168 1515.59 236.197C1513.6 237.225 1510.86 236.665 1509.46 234.958C1508.06 233.252 1508.52 231.032 1510.5 230.003Z" stroke="url(#paint2_linear_2896_6091)" stroke-opacity="0.1" stroke-width="1.5"/>
<path d="M916.424 28.7361C916.424 34.3426 910.741 39.1424 903.381 39.1424C896.022 39.1424 890.339 34.3426 890.339 28.7361C890.339 23.1296 896.022 18.3297 903.381 18.3297C910.741 18.3297 916.424 23.1296 916.424 28.7361Z" stroke="url(#paint3_linear_2896_6091)" stroke-opacity="0.1" stroke-width="1.5"/>
<path d="M912.18 28.9813C912.18 32.6919 908.397 35.9549 903.381 35.9549C898.365 35.9549 894.583 32.6919 894.583 28.9813C894.583 25.2706 898.365 22.0076 903.381 22.0076C908.397 22.0076 912.18 25.2706 912.18 28.9813Z" stroke="url(#paint4_linear_2896_6091)" stroke-opacity="0.1" stroke-width="1.5"/>
<path d="M907.936 28.777C907.936 30.5692 906.076 32.277 903.432 32.277C900.788 32.277 898.928 30.5692 898.928 28.777C898.928 26.9847 900.788 25.2769 903.432 25.2769C906.076 25.2769 907.936 26.9847 907.936 28.777Z" stroke="url(#paint5_linear_2896_6091)" stroke-opacity="0.1" stroke-width="1.5"/>
<path d="M731.69 170.726C731.69 176.332 726.007 181.132 718.648 181.132C711.288 181.132 705.605 176.332 705.605 170.726C705.605 165.119 711.288 160.32 718.648 160.32C726.007 160.32 731.69 165.119 731.69 170.726Z" stroke="url(#paint6_linear_2896_6091)" stroke-opacity="0.1" stroke-width="1.5"/>
<path d="M727.446 170.971C727.446 174.682 723.663 177.945 718.648 177.945C713.632 177.945 709.849 174.682 709.849 170.971C709.849 167.26 713.632 163.997 718.648 163.997C723.663 163.997 727.446 167.26 727.446 170.971Z" stroke="url(#paint7_linear_2896_6091)" stroke-opacity="0.1" stroke-width="1.5"/>
<path d="M723.203 170.767C723.203 172.559 721.343 174.267 718.699 174.267C716.055 174.267 714.194 172.559 714.194 170.767C714.194 168.975 716.055 167.267 718.699 167.267C721.343 167.267 723.203 168.975 723.203 170.767Z" stroke="url(#paint8_linear_2896_6091)" stroke-opacity="0.1" stroke-width="1.5"/>
<path d="M73.8386 36.8498C73.8386 42.4563 68.1557 47.2561 60.7962 47.2561C53.4367 47.2561 47.7539 42.4563 47.7539 36.8498C47.7539 31.2433 53.4367 26.4434 60.7962 26.4434C68.1557 26.4434 73.8386 31.2433 73.8386 36.8498Z" stroke="url(#paint9_linear_2896_6091)" stroke-opacity="0.1" stroke-width="1.5"/>
<path d="M69.5946 37.095C69.5946 40.8056 65.8118 44.0686 60.7961 44.0686C55.7804 44.0686 51.9976 40.8056 51.9976 37.095C51.9976 33.3843 55.7804 30.1213 60.7961 30.1213C65.8118 30.1213 69.5946 33.3843 69.5946 37.095Z" stroke="url(#paint10_linear_2896_6091)" stroke-opacity="0.1" stroke-width="1.5"/>
<path d="M65.3507 36.8907C65.3507 38.6829 63.4905 40.3907 60.8465 40.3907C58.2025 40.3907 56.3423 38.6829 56.3423 36.8907C56.3423 35.0984 58.2025 33.3906 60.8465 33.3906C63.4905 33.3906 65.3507 35.0984 65.3507 36.8907Z" stroke="url(#paint11_linear_2896_6091)" stroke-opacity="0.1" stroke-width="1.5"/>
<path d="M536.036 71.7025C513.312 71.9605 494.772 57.1832 494.297 39.0045C493.822 20.8257 511.579 5.63647 534.303 5.37851C557.026 5.12055 575.566 19.8978 576.041 38.0765C576.516 56.2553 558.759 71.4445 536.036 71.7025Z" stroke="url(#paint12_linear_2896_6091)" stroke-opacity="0.1" stroke-width="1.5"/>
<path d="M534.844 61.2809C519.193 61.4585 506.509 51.2879 506.185 38.8719C505.86 26.4559 518.005 16.0033 533.656 15.8257C549.307 15.648 561.991 25.8187 562.316 38.2347C562.64 50.6507 550.495 61.1032 534.844 61.2809Z" stroke="url(#paint13_linear_2896_6091)" stroke-opacity="0.1" stroke-width="1.5"/>
<path d="M535.337 50.8353C526.843 50.9317 520.084 45.4225 519.912 38.8378C519.74 32.2532 526.207 26.5938 534.701 26.4973C543.194 26.4009 549.953 31.9102 550.125 38.4948C550.297 45.0795 543.83 50.7389 535.337 50.8353Z" stroke="url(#paint14_linear_2896_6091)" stroke-opacity="0.1" stroke-width="1.5"/>
<path d="M1105.3 156.475C1103.38 163.64 1095.01 168.686 1086.45 167.537C1077.9 166.387 1072.72 159.52 1074.65 152.356C1076.57 145.191 1084.94 140.145 1093.5 141.294C1102.05 142.444 1107.23 149.311 1105.3 156.475Z" stroke="url(#paint15_linear_2896_6091)" stroke-opacity="0.1" stroke-width="1.5"/>
<path d="M1100.29 156.106C1099 160.917 1093.35 164.354 1087.53 163.571C1081.7 162.789 1078.23 158.127 1079.52 153.316C1080.81 148.504 1086.46 145.068 1092.28 145.85C1098.11 146.633 1101.58 151.295 1100.29 156.106Z" stroke="url(#paint16_linear_2896_6091)" stroke-opacity="0.1" stroke-width="1.5"/>
<path d="M1095.4 155.197C1094.75 157.627 1091.86 159.434 1088.8 159.023C1085.74 158.612 1083.99 156.182 1084.65 153.751C1085.3 151.321 1088.19 149.514 1091.25 149.925C1094.31 150.336 1096.06 152.767 1095.4 155.197Z" stroke="url(#paint17_linear_2896_6091)" stroke-opacity="0.1" stroke-width="1.5"/>
<path d="M1354.79 41.3748C1359.33 43.1924 1360.85 47.8893 1358.23 51.8492C1355.61 55.8091 1349.82 57.5809 1345.27 55.7633C1340.73 53.9456 1339.21 49.2487 1341.83 45.2888C1344.45 41.3289 1350.24 39.5572 1354.79 41.3748Z" stroke="url(#paint18_linear_2896_6091)" stroke-opacity="0.1" stroke-width="1.5"/>
<path d="M1353.4 43.8665C1356.43 45.0792 1357.44 48.2083 1355.7 50.839C1353.96 53.4697 1350.1 54.6543 1347.07 53.4415C1344.04 52.2288 1343.03 49.0997 1344.77 46.469C1346.51 43.8383 1350.37 42.6537 1353.4 43.8665Z" stroke="url(#paint19_linear_2896_6091)" stroke-opacity="0.1" stroke-width="1.5"/>
<path d="M1351.64 46.2035C1353.14 46.8042 1353.62 48.3467 1352.77 49.6324C1351.92 50.9181 1350.03 51.5085 1348.53 50.9078C1347.02 50.3071 1346.54 48.7646 1347.39 47.4789C1348.24 46.1932 1350.13 45.6028 1351.64 46.2035Z" stroke="url(#paint20_linear_2896_6091)" stroke-opacity="0.1" stroke-width="1.5"/>
<path d="M457.866 62.3352C462.411 64.1528 463.93 68.8497 461.312 72.8096C458.694 76.7695 452.899 78.5413 448.354 76.7236C443.81 74.906 442.291 70.2091 444.909 66.2492C447.527 62.2893 453.322 60.5176 457.866 62.3352Z" stroke="url(#paint21_linear_2896_6091)" stroke-opacity="0.1" stroke-width="1.5"/>
<path d="M456.48 64.8269C459.512 66.0396 460.517 69.1687 458.778 71.7994C457.039 74.4301 453.182 75.6146 450.15 74.4019C447.118 73.1891 446.112 70.0601 447.852 67.4294C449.591 64.7987 453.447 63.6141 456.48 64.8269Z" stroke="url(#paint22_linear_2896_6091)" stroke-opacity="0.1" stroke-width="1.5"/>
<path d="M454.717 67.1639C456.219 67.7646 456.704 69.3071 455.854 70.5928C455.004 71.8785 453.109 72.4689 451.607 71.8682C450.105 71.2675 449.62 69.725 450.47 68.4393C451.32 67.1536 453.215 66.5632 454.717 67.1639Z" stroke="url(#paint23_linear_2896_6091)" stroke-opacity="0.1" stroke-width="1.5"/>
<path d="M687.387 241.045C687.387 246.651 681.705 251.451 674.345 251.451C666.986 251.451 661.303 246.651 661.303 241.045C661.303 235.438 666.986 230.638 674.345 230.638C681.705 230.638 687.387 235.438 687.387 241.045Z" stroke="url(#paint24_linear_2896_6091)" stroke-opacity="0.1" stroke-width="1.5"/>
<path d="M683.143 241.29C683.143 245.001 679.361 248.263 674.345 248.263C669.329 248.263 665.546 245.001 665.546 241.29C665.546 237.579 669.329 234.316 674.345 234.316C679.361 234.316 683.143 237.579 683.143 241.29Z" stroke="url(#paint25_linear_2896_6091)" stroke-opacity="0.1" stroke-width="1.5"/>
<path d="M678.9 241.086C678.9 242.878 677.039 244.586 674.395 244.586C671.751 244.586 669.891 242.878 669.891 241.086C669.891 239.293 671.751 237.586 674.395 237.586C677.039 237.586 678.9 239.293 678.9 241.086Z" stroke="url(#paint26_linear_2896_6091)" stroke-opacity="0.1" stroke-width="1.5"/>
<path d="M955.381 248.33C948.477 287.917 904.852 317.06 857.726 313.167C810.6 309.275 778.233 273.855 785.137 234.268C792.041 194.681 835.667 165.538 882.793 169.431C929.919 173.323 962.285 208.743 955.381 248.33Z" stroke="url(#paint27_linear_2896_6091)" stroke-opacity="0.1" stroke-width="1.5"/>
<path d="M928.728 247.712C923.976 274.96 893.924 295.078 861.39 292.391C828.856 289.703 806.575 265.263 811.327 238.015C816.079 210.766 846.131 190.648 878.665 193.336C911.198 196.023 933.48 220.463 928.728 247.712Z" stroke="url(#paint28_linear_2896_6091)" stroke-opacity="0.1" stroke-width="1.5"/>
<path d="M902.507 244.231C899.933 258.994 883.616 269.979 865.848 268.511C848.08 267.044 836.004 253.714 838.578 238.951C841.153 224.188 857.47 213.203 875.238 214.671C893.005 216.138 905.082 229.468 902.507 244.231Z" stroke="url(#paint29_linear_2896_6091)" stroke-opacity="0.1" stroke-width="1.5"/>
<path d="M182.854 331C173.287 310.7 163.837 289.583 154.504 267.65C145.171 245.717 136.304 224.017 127.904 202.55C119.504 181.083 111.687 160.55 104.454 140.95C97.4539 121.35 91.3872 103.85 86.2539 88.45H146.454C151.121 102.45 156.137 117.617 161.504 133.95C167.104 150.05 172.704 166.15 178.304 182.25C184.137 198.35 189.737 213.75 195.104 228.45C200.471 243.15 205.487 255.867 210.154 266.6C214.587 255.867 219.487 243.15 224.854 228.45C230.454 213.75 236.054 198.35 241.654 182.25C247.487 166.15 253.087 150.05 258.454 133.95C264.054 117.617 269.187 102.45 273.854 88.45H331.954C326.587 103.85 320.404 121.35 313.404 140.95C306.404 160.55 298.704 181.083 290.304 202.55C281.904 224.017 273.037 245.717 263.704 267.65C254.371 289.583 244.921 310.7 235.354 331H182.854ZM411.992 331H359.842V146.9H411.992V331ZM416.892 93.7C416.892 103.267 413.742 110.85 407.442 116.45C401.375 121.817 394.142 124.5 385.742 124.5C377.342 124.5 369.992 121.817 363.692 116.45C357.625 110.85 354.592 103.267 354.592 93.7C354.592 84.1333 357.625 76.6667 363.692 71.3C369.992 65.7 377.342 62.9 385.742 62.9C394.142 62.9 401.375 65.7 407.442 71.3C413.742 76.6667 416.892 84.1333 416.892 93.7ZM513.864 293.55C523.43 293.55 530.197 292.617 534.164 290.75C538.13 288.883 540.114 285.267 540.114 279.9C540.114 275.7 537.547 272.083 532.414 269.05C527.28 265.783 519.464 262.167 508.964 258.2C500.797 255.167 493.33 252.017 486.564 248.75C480.03 245.483 474.43 241.633 469.764 237.2C465.097 232.533 461.48 227.05 458.914 220.75C456.347 214.45 455.064 206.867 455.064 198C455.064 180.733 461.48 167.083 474.314 157.05C487.147 147.017 504.764 142 527.164 142C538.364 142 549.097 143.05 559.364 145.15C569.63 147.017 577.797 149.117 583.864 151.45L574.764 192.05C568.697 189.95 562.047 188.083 554.814 186.45C547.814 184.817 539.88 184 531.014 184C514.68 184 506.514 188.55 506.514 197.65C506.514 199.75 506.864 201.617 507.564 203.25C508.264 204.883 509.664 206.517 511.764 208.15C513.864 209.55 516.664 211.183 520.164 213.05C523.897 214.683 528.564 216.55 534.164 218.65C545.597 222.85 555.047 227.05 562.514 231.25C569.98 235.217 575.814 239.65 580.014 244.55C584.447 249.217 587.48 254.467 589.114 260.3C590.98 266.133 591.914 272.9 591.914 280.6C591.914 298.8 585.03 312.567 571.264 321.9C557.73 331.233 538.48 335.9 513.514 335.9C497.18 335.9 483.53 334.5 472.564 331.7C461.83 328.9 454.364 326.567 450.164 324.7L458.914 282.35C467.78 285.85 476.88 288.65 486.214 290.75C495.547 292.617 504.764 293.55 513.864 293.55ZM683.037 331H630.887V146.9H683.037V331ZM687.937 93.7C687.937 103.267 684.787 110.85 678.487 116.45C672.42 121.817 665.187 124.5 656.787 124.5C648.387 124.5 641.037 121.817 634.737 116.45C628.67 110.85 625.637 103.267 625.637 93.7C625.637 84.1333 628.67 76.6667 634.737 71.3C641.037 65.7 648.387 62.9 656.787 62.9C665.187 62.9 672.42 65.7 678.487 71.3C684.787 76.6667 687.937 84.1333 687.937 93.7ZM884.041 88.45C888.241 96.15 893.024 105.717 898.391 117.15C903.991 128.35 909.707 140.6 915.541 153.9C921.607 166.967 927.557 180.383 933.391 194.15C939.224 207.917 944.707 220.867 949.841 233C954.974 220.867 960.457 207.917 966.291 194.15C972.124 180.383 977.957 166.967 983.791 153.9C989.857 140.6 995.574 128.35 1000.94 117.15C1006.54 105.717 1011.44 96.15 1015.64 88.45H1065.34C1067.67 104.55 1069.77 122.633 1071.64 142.7C1073.74 162.533 1075.49 183.3 1076.89 205C1078.52 226.467 1079.92 248.05 1081.09 269.75C1082.49 291.45 1083.66 311.867 1084.59 331H1031.39C1030.69 307.433 1029.76 281.767 1028.59 254C1027.42 226.233 1025.67 198.233 1023.34 170C1019.14 179.8 1014.47 190.65 1009.34 202.55C1004.21 214.45 999.074 226.35 993.941 238.25C989.041 250.15 984.257 261.583 979.591 272.55C974.924 283.283 970.957 292.5 967.691 300.2H929.541C926.274 292.5 922.307 283.283 917.641 272.55C912.974 261.583 908.074 250.15 902.941 238.25C898.041 226.35 893.024 214.45 887.891 202.55C882.757 190.65 878.091 179.8 873.891 170C871.557 198.233 869.807 226.233 868.641 254C867.474 281.767 866.541 307.433 865.841 331H812.641C813.574 311.867 814.624 291.45 815.791 269.75C817.191 248.05 818.591 226.467 819.991 205C821.624 183.3 823.374 162.533 825.241 142.7C827.341 122.633 829.557 104.55 831.891 88.45H884.041ZM1182.4 331H1130.25V146.9H1182.4V331ZM1187.3 93.7C1187.3 103.267 1184.15 110.85 1177.85 116.45C1171.79 121.817 1164.55 124.5 1156.15 124.5C1147.75 124.5 1140.4 121.817 1134.1 116.45C1128.04 110.85 1125 103.267 1125 93.7C1125 84.1333 1128.04 76.6667 1134.1 71.3C1140.4 65.7 1147.75 62.9 1156.15 62.9C1164.55 62.9 1171.79 65.7 1177.85 71.3C1184.15 76.6667 1187.3 84.1333 1187.3 93.7ZM1284.27 293.55C1293.84 293.55 1300.61 292.617 1304.57 290.75C1308.54 288.883 1310.52 285.267 1310.52 279.9C1310.52 275.7 1307.96 272.083 1302.82 269.05C1297.69 265.783 1289.87 262.167 1279.37 258.2C1271.21 255.167 1263.74 252.017 1256.97 248.75C1250.44 245.483 1244.84 241.633 1240.17 237.2C1235.51 232.533 1231.89 227.05 1229.32 220.75C1226.76 214.45 1225.47 206.867 1225.47 198C1225.47 180.733 1231.89 167.083 1244.72 157.05C1257.56 147.017 1275.17 142 1297.57 142C1308.77 142 1319.51 143.05 1329.77 145.15C1340.04 147.017 1348.21 149.117 1354.27 151.45L1345.17 192.05C1339.11 189.95 1332.46 188.083 1325.22 186.45C1318.22 184.817 1310.29 184 1301.42 184C1285.09 184 1276.92 188.55 1276.92 197.65C1276.92 199.75 1277.27 201.617 1277.97 203.25C1278.67 204.883 1280.07 206.517 1282.17 208.15C1284.27 209.55 1287.07 211.183 1290.57 213.05C1294.31 214.683 1298.97 216.55 1304.57 218.65C1316.01 222.85 1325.46 227.05 1332.92 231.25C1340.39 235.217 1346.22 239.65 1350.42 244.55C1354.86 249.217 1357.89 254.467 1359.52 260.3C1361.39 266.133 1362.32 272.9 1362.32 280.6C1362.32 298.8 1355.44 312.567 1341.67 321.9C1328.14 331.233 1308.89 335.9 1283.92 335.9C1267.59 335.9 1253.94 334.5 1242.97 331.7C1232.24 328.9 1224.77 326.567 1220.57 324.7L1229.32 282.35C1238.19 285.85 1247.29 288.65 1256.62 290.75C1265.96 292.617 1275.17 293.55 1284.27 293.55ZM1453.45 331H1401.3V146.9H1453.45V331ZM1458.35 93.7C1458.35 103.267 1455.2 110.85 1448.9 116.45C1442.83 121.817 1435.6 124.5 1427.2 124.5C1418.8 124.5 1411.45 121.817 1405.15 116.45C1399.08 110.85 1396.05 103.267 1396.05 93.7C1396.05 84.1333 1399.08 76.6667 1405.15 71.3C1411.45 65.7 1418.8 62.9 1427.2 62.9C1435.6 62.9 1442.83 65.7 1448.9 71.3C1455.2 76.6667 1458.35 84.1333 1458.35 93.7Z" fill="url(#paint30_linear_2896_6091)" fill-opacity="0.15"/>
<path d="M182.854 331L181.045 331.853L181.585 333H182.854V331ZM154.504 267.65L156.344 266.867L154.504 267.65ZM127.904 202.55L129.766 201.821L127.904 202.55ZM104.454 140.95L102.57 141.623L102.574 141.633L102.578 141.642L104.454 140.95ZM86.2539 88.45V86.45H83.4791L84.3565 89.0825L86.2539 88.45ZM146.454 88.45L148.351 87.8175L147.895 86.45H146.454V88.45ZM161.504 133.95L159.604 134.574L159.609 134.591L159.615 134.607L161.504 133.95ZM178.304 182.25L176.415 182.907L176.419 182.919L176.424 182.931L178.304 182.25ZM195.104 228.45L196.983 227.764L195.104 228.45ZM210.154 266.6L208.32 267.397L210.201 271.725L212.002 267.364L210.154 266.6ZM224.854 228.45L222.985 227.738L222.98 227.751L222.975 227.764L224.854 228.45ZM241.654 182.25L239.774 181.569L239.769 181.581L239.765 181.593L241.654 182.25ZM258.454 133.95L256.562 133.301L256.559 133.309L256.557 133.318L258.454 133.95ZM273.854 88.45V86.45H272.412L271.957 87.8175L273.854 88.45ZM331.954 88.45L333.843 89.1081L334.769 86.45H331.954V88.45ZM313.404 140.95L315.287 141.623V141.623L313.404 140.95ZM290.304 202.55L292.166 203.279L290.304 202.55ZM263.704 267.65L261.864 266.867L263.704 267.65ZM235.354 331V333H236.622L237.163 331.853L235.354 331ZM184.663 330.147C175.108 309.872 165.668 288.778 156.344 266.867L152.664 268.433C162.006 290.388 171.467 311.528 181.045 331.853L184.663 330.147ZM156.344 266.867C147.018 244.951 138.159 223.269 129.766 201.821L126.041 203.279C134.449 224.764 143.323 246.482 152.664 268.433L156.344 266.867ZM129.766 201.821C121.371 180.365 113.559 159.844 106.33 140.258L102.578 141.642C109.816 161.256 117.637 181.801 126.041 203.279L129.766 201.821ZM106.337 140.277C99.3409 120.687 93.2791 103.201 88.1513 87.8175L84.3565 89.0825C89.4954 104.499 95.5669 122.013 102.57 141.623L106.337 140.277ZM86.2539 90.45H146.454V86.45H86.2539V90.45ZM144.557 89.0825C149.222 103.079 154.238 118.243 159.604 134.574L163.404 133.326C158.037 116.99 153.019 101.821 148.351 87.8175L144.557 89.0825ZM159.615 134.607C165.215 150.707 170.815 166.807 176.415 182.907L180.193 181.593C174.593 165.493 168.993 149.393 163.393 133.293L159.615 134.607ZM176.424 182.931C182.257 199.033 187.858 214.434 193.225 229.136L196.983 227.764C191.617 213.066 186.017 197.667 180.184 181.569L176.424 182.931ZM193.225 229.136C198.601 243.862 203.633 256.618 208.32 267.397L211.988 265.803C207.342 255.116 202.34 242.438 196.983 227.764L193.225 229.136ZM212.002 267.364C216.449 256.597 221.359 243.854 226.733 229.136L222.975 227.764C217.615 242.446 212.725 255.136 208.305 265.836L212.002 267.364ZM226.723 229.162C232.33 214.442 237.937 199.024 243.543 182.907L239.765 181.593C234.171 197.676 228.577 213.058 222.985 227.738L226.723 229.162ZM243.534 182.931C249.373 166.815 254.979 150.699 260.351 134.582L256.557 133.318C251.195 149.401 245.601 165.485 239.774 181.569L243.534 182.931ZM260.346 134.599C265.947 118.261 271.083 103.089 275.751 89.0825L271.957 87.8175C267.292 101.811 262.16 116.973 256.562 133.301L260.346 134.599ZM273.854 90.45H331.954V86.45H273.854V90.45ZM330.065 87.7918C324.701 103.186 318.519 120.681 311.52 140.277L315.287 141.623C322.289 122.019 328.474 104.514 333.843 89.1081L330.065 87.7918ZM311.52 140.277C304.528 159.857 296.835 180.371 288.441 201.821L292.166 203.279C300.573 181.795 308.28 161.243 315.287 141.623L311.52 140.277ZM288.441 201.821C280.049 223.269 271.19 244.951 261.864 266.867L265.544 268.433C274.885 246.482 283.759 224.764 292.166 203.279L288.441 201.821ZM261.864 266.867C252.54 288.778 243.1 309.872 233.545 330.147L237.163 331.853C246.741 311.528 256.202 290.388 265.544 268.433L261.864 266.867ZM235.354 329H182.854V333H235.354V329ZM411.992 331V333H413.992V331H411.992ZM359.842 331H357.842V333H359.842V331ZM359.842 146.9V144.9H357.842V146.9H359.842ZM411.992 146.9H413.992V144.9H411.992V146.9ZM407.442 116.45L408.767 117.948L408.771 117.945L407.442 116.45ZM363.692 116.45L362.335 117.92L362.365 117.947L362.395 117.972L363.692 116.45ZM363.692 71.3L365.017 72.798L365.021 72.7948L363.692 71.3ZM407.442 71.3L406.085 72.7696L406.115 72.7966L406.145 72.8225L407.442 71.3ZM411.992 329H359.842V333H411.992V329ZM361.842 331V146.9H357.842V331H361.842ZM359.842 148.9H411.992V144.9H359.842V148.9ZM409.992 146.9V331H413.992V146.9H409.992ZM414.892 93.7C414.892 102.781 411.926 109.788 406.113 114.955L408.771 117.945C415.558 111.912 418.892 103.752 418.892 93.7H414.892ZM406.117 114.952C400.43 119.982 393.673 122.5 385.742 122.5V126.5C394.61 126.5 402.32 123.651 408.767 117.948L406.117 114.952ZM385.742 122.5C377.809 122.5 370.921 119.981 364.989 114.927L362.395 117.972C369.063 123.652 376.874 126.5 385.742 126.5V122.5ZM365.048 114.98C359.458 109.82 356.592 102.806 356.592 93.7H352.592C352.592 103.728 355.792 111.88 362.335 117.92L365.048 114.98ZM356.592 93.7C356.592 84.5924 359.458 77.7156 365.017 72.798L362.367 69.802C355.792 75.6177 352.592 83.6742 352.592 93.7H356.592ZM365.021 72.7948C370.956 67.519 377.833 64.9 385.742 64.9V60.9C376.85 60.9 369.028 63.881 362.363 69.8052L365.021 72.7948ZM385.742 64.9C393.649 64.9 400.395 67.5172 406.085 72.7696L408.798 69.8304C402.355 63.8828 394.635 60.9 385.742 60.9V64.9ZM406.145 72.8225C411.927 77.7478 414.892 84.6177 414.892 93.7H418.892C418.892 83.6489 415.557 75.5854 408.739 69.7775L406.145 72.8225ZM534.164 290.75L535.015 292.56L534.164 290.75ZM532.414 269.05L531.34 270.737L531.368 270.755L531.396 270.772L532.414 269.05ZM508.964 258.2L509.671 256.329L509.66 256.325L508.964 258.2ZM486.564 248.75L485.669 250.539L485.682 250.545L485.694 250.551L486.564 248.75ZM469.764 237.2L468.349 238.614L468.368 238.632L468.386 238.65L469.764 237.2ZM458.914 220.75L460.766 219.995L458.914 220.75ZM474.314 157.05L475.546 158.626H475.546L474.314 157.05ZM559.364 145.15L558.963 147.109L558.984 147.114L559.006 147.118L559.364 145.15ZM583.864 151.45L585.815 151.887L586.193 150.203L584.582 149.583L583.864 151.45ZM574.764 192.05L574.109 193.94L576.225 194.672L576.715 192.487L574.764 192.05ZM554.814 186.45L554.359 188.398L554.366 188.399L554.373 188.401L554.814 186.45ZM511.764 208.15L510.536 209.729L510.593 209.774L510.654 209.814L511.764 208.15ZM520.164 213.05L519.223 214.815L519.291 214.851L519.362 214.882L520.164 213.05ZM534.164 218.65L533.461 220.523L533.474 220.527L534.164 218.65ZM562.514 231.25L561.533 232.993L561.554 233.005L561.575 233.016L562.514 231.25ZM580.014 244.55L578.495 245.852L578.528 245.89L578.564 245.927L580.014 244.55ZM589.114 260.3L587.188 260.839L587.198 260.875L587.209 260.91L589.114 260.3ZM571.264 321.9L570.141 320.245L570.135 320.249L570.128 320.254L571.264 321.9ZM472.564 331.7L472.059 333.635L472.069 333.638L472.564 331.7ZM450.164 324.7L448.205 324.295L447.879 325.873L449.351 326.528L450.164 324.7ZM458.914 282.35L459.648 280.49L457.436 279.617L456.955 281.945L458.914 282.35ZM486.214 290.75L485.775 292.701L485.798 292.706L485.821 292.711L486.214 290.75ZM513.864 295.55C523.457 295.55 530.616 294.63 535.015 292.56L533.312 288.94C529.778 290.603 523.404 291.55 513.864 291.55V295.55ZM535.015 292.56C537.356 291.458 539.172 289.802 540.38 287.599C541.575 285.421 542.114 282.821 542.114 279.9H538.114C538.114 282.345 537.661 284.238 536.873 285.676C536.097 287.089 534.938 288.175 533.312 288.94L535.015 292.56ZM542.114 279.9C542.114 274.716 538.891 270.554 533.431 267.328L531.396 270.772C536.203 273.612 538.114 276.684 538.114 279.9H542.114ZM533.487 267.363C528.179 263.985 520.211 260.311 509.67 256.329L508.257 260.071C518.717 264.022 526.381 267.582 531.34 270.737L533.487 267.363ZM509.66 256.325C501.543 253.31 494.135 250.184 487.433 246.949L485.694 250.551C492.525 253.849 500.051 257.023 508.267 260.075L509.66 256.325ZM487.458 246.961C481.078 243.771 475.647 240.03 471.141 235.75L468.386 238.65C473.214 243.236 478.982 247.195 485.669 250.539L487.458 246.961ZM471.178 235.786C466.706 231.313 463.235 226.056 460.766 219.995L457.061 221.505C459.726 228.044 463.488 233.753 468.349 238.614L471.178 235.786ZM460.766 219.995C458.322 213.996 457.064 206.683 457.064 198H453.064C453.064 207.051 454.372 214.904 457.061 221.505L460.766 219.995ZM457.064 198C457.064 181.306 463.23 168.254 475.546 158.626L473.082 155.474C459.731 165.912 453.064 180.161 453.064 198H457.064ZM475.546 158.626C487.916 148.954 505.045 144 527.164 144V140C504.483 140 486.378 145.079 473.082 155.474L475.546 158.626ZM527.164 144C538.238 144 548.837 145.038 558.963 147.109L559.764 143.191C549.357 141.062 538.489 140 527.164 140V144ZM559.006 147.118C569.214 148.974 577.244 151.047 583.146 153.317L584.582 149.583C578.35 147.187 570.047 145.06 559.721 143.182L559.006 147.118ZM581.912 151.013L572.812 191.613L576.715 192.487L585.815 151.887L581.912 151.013ZM575.418 190.16C569.271 188.032 562.549 186.146 555.254 184.499L554.373 188.401C561.545 190.02 568.123 191.868 574.109 193.94L575.418 190.16ZM555.268 184.502C548.089 182.827 539.999 182 531.014 182V186C539.761 186 547.538 186.806 554.359 188.398L555.268 184.502ZM531.014 182C522.727 182 516.193 183.143 511.665 185.665C509.371 186.943 507.559 188.595 506.329 190.651C505.097 192.71 504.514 195.066 504.514 197.65H508.514C508.514 195.684 508.952 194.058 509.761 192.705C510.573 191.349 511.823 190.157 513.612 189.16C517.251 187.132 522.967 186 531.014 186V182ZM504.514 197.65C504.514 199.972 504.901 202.115 505.725 204.038L509.402 202.462C508.826 201.119 508.514 199.528 508.514 197.65H504.514ZM505.725 204.038C506.609 206.099 508.291 207.983 510.536 209.729L512.992 206.571C511.036 205.05 509.919 203.668 509.402 202.462L505.725 204.038ZM510.654 209.814C512.83 211.265 515.693 212.932 519.223 214.815L521.105 211.285C517.634 209.434 514.897 207.835 512.873 206.486L510.654 209.814ZM519.362 214.882C523.139 216.535 527.842 218.415 533.461 220.523L534.866 216.777C529.286 214.685 524.655 212.832 520.965 211.218L519.362 214.882ZM533.474 220.527C544.845 224.704 554.189 228.862 561.533 232.993L563.494 229.507C555.905 225.238 546.349 220.996 534.853 216.773L533.474 220.527ZM561.575 233.016C568.886 236.9 574.5 241.19 578.495 245.852L581.532 243.248C577.128 238.11 571.074 233.533 563.452 229.484L561.575 233.016ZM578.564 245.927C582.787 250.373 585.648 255.34 587.188 260.839L591.04 259.761C589.313 253.594 586.107 248.06 581.464 243.173L578.564 245.927ZM587.209 260.91C588.999 266.503 589.914 273.056 589.914 280.6H593.914C593.914 272.744 592.962 265.764 591.019 259.69L587.209 260.91ZM589.914 280.6C589.914 298.21 583.301 311.323 570.141 320.245L572.386 323.555C586.76 313.81 593.914 299.39 593.914 280.6H589.914ZM570.128 320.254C557.061 329.266 538.272 333.9 513.514 333.9V337.9C538.689 337.9 558.4 333.201 572.399 323.546L570.128 320.254ZM513.514 333.9C497.28 333.9 483.809 332.507 473.058 329.762L472.069 333.638C483.251 336.493 497.08 337.9 513.514 337.9V333.9ZM473.069 329.765C462.335 326.965 455.011 324.666 450.976 322.872L449.351 326.528C453.716 328.468 461.326 330.835 472.059 333.635L473.069 329.765ZM452.122 325.105L460.872 282.755L456.955 281.945L448.205 324.295L452.122 325.105ZM458.179 284.21C467.142 287.748 476.341 290.579 485.775 292.701L486.653 288.799C477.42 286.721 468.418 283.952 459.648 280.49L458.179 284.21ZM485.821 292.711C495.278 294.602 504.626 295.55 513.864 295.55V291.55C504.901 291.55 495.816 290.631 486.606 288.789L485.821 292.711ZM683.037 331V333H685.037V331H683.037ZM630.887 331H628.887V333H630.887V331ZM630.887 146.9V144.9H628.887V146.9H630.887ZM683.037 146.9H685.037V144.9H683.037V146.9ZM678.487 116.45L679.812 117.948L679.815 117.945L678.487 116.45ZM634.737 116.45L633.38 117.92L633.409 117.947L633.44 117.972L634.737 116.45ZM634.737 71.3L636.062 72.798L636.065 72.7948L634.737 71.3ZM678.487 71.3L677.13 72.7696L677.159 72.7966L677.19 72.8225L678.487 71.3ZM683.037 329H630.887V333H683.037V329ZM632.887 331V146.9H628.887V331H632.887ZM630.887 148.9H683.037V144.9H630.887V148.9ZM681.037 146.9V331H685.037V146.9H681.037ZM685.937 93.7C685.937 102.781 682.971 109.788 677.158 114.955L679.815 117.945C686.602 111.912 689.937 103.752 689.937 93.7H685.937ZM677.162 114.952C671.475 119.982 664.718 122.5 656.787 122.5V126.5C665.655 126.5 673.365 123.651 679.812 117.948L677.162 114.952ZM656.787 122.5C648.854 122.5 641.966 119.981 636.034 114.927L633.44 117.972C640.108 123.652 647.919 126.5 656.787 126.5V122.5ZM636.093 114.98C630.503 109.82 627.637 102.806 627.637 93.7H623.637C623.637 103.728 626.837 111.88 633.38 117.92L636.093 114.98ZM627.637 93.7C627.637 84.5924 630.503 77.7156 636.062 72.798L633.412 69.802C626.837 75.6177 623.637 83.6742 623.637 93.7H627.637ZM636.065 72.7948C642.001 67.519 648.878 64.9 656.787 64.9V60.9C647.895 60.9 640.073 63.881 633.408 69.8052L636.065 72.7948ZM656.787 64.9C664.694 64.9 671.44 67.5172 677.13 72.7696L679.843 69.8304C673.4 63.8828 665.68 60.9 656.787 60.9V64.9ZM677.19 72.8225C682.972 77.7478 685.937 84.6177 685.937 93.7H689.937C689.937 83.6489 686.602 75.5854 679.784 69.7775L677.19 72.8225ZM884.041 88.45L885.796 87.4923L885.228 86.45H884.041V88.45ZM898.391 117.15L896.58 118L896.591 118.022L896.602 118.044L898.391 117.15ZM915.541 153.9L913.709 154.703L913.718 154.723L913.727 154.742L915.541 153.9ZM933.391 194.15L935.232 193.37L933.391 194.15ZM949.841 233L947.999 233.779L949.841 238.133L951.683 233.779L949.841 233ZM966.291 194.15L964.449 193.37L966.291 194.15ZM983.791 153.9L981.971 153.07L981.968 153.077L981.964 153.085L983.791 153.9ZM1000.94 117.15L999.145 116.27L999.141 116.278L999.137 116.286L1000.94 117.15ZM1015.64 88.45V86.45H1014.45L1013.88 87.4923L1015.64 88.45ZM1065.34 88.45L1067.32 88.1631L1067.07 86.45H1065.34V88.45ZM1071.64 142.7L1069.65 142.885L1069.65 142.898L1069.65 142.911L1071.64 142.7ZM1076.89 205L1074.89 205.129L1074.9 205.14L1074.9 205.152L1076.89 205ZM1081.09 269.75L1079.09 269.857L1079.09 269.868L1079.09 269.879L1081.09 269.75ZM1084.59 331V333H1086.69L1086.59 330.903L1084.59 331ZM1031.39 331L1029.39 331.059L1029.45 333H1031.39V331ZM1028.59 254L1030.59 253.916L1028.59 254ZM1023.34 170L1025.33 169.835L1021.5 169.212L1023.34 170ZM993.941 238.25L992.104 237.458L992.098 237.473L992.091 237.488L993.941 238.25ZM979.591 272.55L981.425 273.347L981.428 273.34L981.431 273.333L979.591 272.55ZM967.691 300.2V302.2H969.015L969.532 300.981L967.691 300.2ZM929.541 300.2L927.699 300.981L928.217 302.2H929.541V300.2ZM917.641 272.55L915.8 273.333L915.803 273.34L915.807 273.347L917.641 272.55ZM902.941 238.25L901.091 239.011L901.098 239.027L901.104 239.042L902.941 238.25ZM887.891 202.55L886.054 203.342L887.891 202.55ZM873.891 170L875.729 169.212L871.897 169.835L873.891 170ZM868.641 254L870.639 254.084L868.641 254ZM865.841 331V333H867.782L867.84 331.059L865.841 331ZM812.641 331L810.643 330.903L810.541 333H812.641V331ZM815.791 269.75L813.795 269.621L813.794 269.632L813.794 269.643L815.791 269.75ZM819.991 205L817.996 204.85L817.996 204.86L817.995 204.87L819.991 205ZM825.241 142.7L823.251 142.492L823.25 142.502L823.249 142.513L825.241 142.7ZM831.891 88.45V86.45H830.16L829.911 88.1631L831.891 88.45ZM882.285 89.4077C886.459 97.0607 891.224 106.589 896.58 118L900.201 116.3C894.824 104.845 890.022 95.2393 885.796 87.4923L882.285 89.4077ZM896.602 118.044C902.185 129.21 907.887 141.429 913.709 154.703L917.372 153.097C911.527 139.771 905.797 127.49 900.18 116.256L896.602 118.044ZM913.727 154.742C919.783 167.788 925.724 181.184 931.549 194.93L935.232 193.37C929.39 179.583 923.431 166.146 917.355 153.058L913.727 154.742ZM931.549 194.93C937.382 208.697 942.866 221.646 947.999 233.779L951.683 232.221C946.549 220.087 941.066 207.137 935.232 193.37L931.549 194.93ZM951.683 233.779C956.816 221.646 962.299 208.697 968.132 194.93L964.449 193.37C958.616 207.137 953.132 220.087 947.999 232.221L951.683 233.779ZM968.132 194.93C973.961 181.175 979.789 167.77 985.617 154.715L981.964 153.085C976.126 166.163 970.287 179.592 964.449 193.37L968.132 194.93ZM985.61 154.73C991.673 141.44 997.384 129.201 1002.74 118.014L999.137 116.286C993.764 127.499 988.042 139.76 981.971 153.07L985.61 154.73ZM1002.74 118.03C1008.33 106.612 1013.22 97.0734 1017.4 89.4077L1013.88 87.4923C1009.67 95.2266 1004.75 104.821 999.145 116.27L1002.74 118.03ZM1015.64 90.45H1065.34V86.45H1015.64V90.45ZM1063.36 88.7369C1065.69 104.796 1067.79 122.845 1069.65 142.885L1073.63 142.515C1071.76 122.422 1069.66 104.304 1067.32 88.1631L1063.36 88.7369ZM1069.65 142.911C1071.75 162.714 1073.5 183.454 1074.89 205.129L1078.89 204.871C1077.48 183.146 1075.73 162.352 1073.63 142.489L1069.65 142.911ZM1074.9 205.152C1076.53 226.603 1077.93 248.172 1079.09 269.857L1083.09 269.643C1081.92 247.928 1080.52 226.33 1078.88 204.848L1074.9 205.152ZM1079.09 269.879C1080.49 291.57 1081.66 311.976 1082.59 331.097L1086.59 330.903C1085.65 311.758 1084.49 291.33 1083.09 269.621L1079.09 269.879ZM1084.59 329H1031.39V333H1084.59V329ZM1033.39 330.941C1032.69 307.364 1031.76 281.689 1030.59 253.916L1026.59 254.084C1027.76 281.844 1028.69 307.502 1029.39 331.059L1033.39 330.941ZM1030.59 253.916C1029.42 226.122 1027.67 198.095 1025.33 169.835L1021.35 170.165C1023.68 198.372 1025.43 226.345 1026.59 254.084L1030.59 253.916ZM1021.5 169.212C1017.3 179.01 1012.64 189.859 1007.5 201.758L1011.18 203.342C1016.31 191.441 1020.98 180.59 1025.18 170.788L1021.5 169.212ZM1007.5 201.758C1007.5 201.761 1007.45 201.894 1007.44 201.897C1007.44 201.9 1007.39 202.034 1007.38 202.037C1007.38 202.04 1007.32 202.173 1007.32 202.176C1007.29 202.261 1007.3 202.231 1007.26 202.316C1007.25 202.339 1007.24 202.362 1007.23 202.385C1007.22 202.409 1007.21 202.432 1007.2 202.455C1007.19 202.478 1007.18 202.502 1007.17 202.525C1007.16 202.548 1007.15 202.571 1007.14 202.595C1007.13 202.618 1007.12 202.641 1007.11 202.664C1007.1 202.688 1007.09 202.711 1007.08 202.734C1007.07 202.757 1007.06 202.78 1007.05 202.804C1007.04 202.827 1007.03 202.85 1007.02 202.873C1007.01 202.897 1007 202.92 1006.99 202.943C1006.98 202.966 1006.97 202.99 1006.96 203.013C1006.95 203.036 1006.94 203.059 1006.93 203.083C1006.92 203.106 1006.91 203.129 1006.9 203.152C1006.89 203.176 1006.88 203.199 1006.87 203.222C1006.86 203.245 1006.85 203.269 1006.84 203.292C1006.83 203.315 1006.82 203.338 1006.81 203.362C1006.8 203.385 1006.79 203.408 1006.78 203.431C1006.77 203.454 1006.76 203.478 1006.75 203.501C1006.74 203.524 1006.73 203.547 1006.72 203.571C1006.71 203.594 1006.7 203.617 1006.69 203.64C1006.68 203.664 1006.67 203.687 1006.66 203.71C1006.65 203.733 1006.64 203.757 1006.63 203.78C1006.62 203.803 1006.61 203.826 1006.6 203.85C1006.59 203.873 1006.58 203.896 1006.57 203.919C1006.56 203.943 1006.55 203.966 1006.54 203.989C1006.53 204.012 1006.52 204.036 1006.51 204.059C1006.5 204.082 1006.49 204.105 1006.48 204.129C1006.47 204.152 1006.46 204.175 1006.45 204.198C1006.44 204.221 1006.43 204.245 1006.42 204.268C1006.41 204.291 1006.4 204.314 1006.39 204.338C1006.38 204.361 1006.37 204.384 1006.36 204.407C1006.35 204.431 1006.34 204.454 1006.33 204.477C1006.32 204.5 1006.31 204.524 1006.3 204.547C1006.29 204.57 1006.28 204.593 1006.27 204.617C1006.26 204.64 1006.25 204.663 1006.24 204.686C1006.23 204.71 1006.22 204.733 1006.21 204.756C1006.2 204.779 1006.19 204.803 1006.18 204.826C1006.17 204.849 1006.16 204.872 1006.15 204.896C1006.14 204.919 1006.13 204.942 1006.12 204.965C1006.11 204.988 1006.1 205.012 1006.09 205.035C1006.08 205.058 1006.07 205.081 1006.06 205.105C1006.05 205.128 1006.04 205.151 1006.03 205.174C1006.02 205.198 1006.01 205.221 1006 205.244C1005.99 205.267 1005.98 205.291 1005.97 205.314C1005.96 205.337 1005.95 205.36 1005.94 205.384C1005.93 205.407 1005.92 205.43 1005.91 205.453C1005.9 205.477 1005.89 205.5 1005.88 205.523C1005.87 205.546 1005.86 205.57 1005.85 205.593C1005.84 205.616 1005.83 205.639 1005.82 205.663C1005.81 205.686 1005.8 205.709 1005.79 205.732C1005.78 205.755 1005.77 205.779 1005.76 205.802C1005.75 205.825 1005.74 205.848 1005.73 205.872C1005.72 205.895 1005.71 205.918 1005.7 205.941C1005.69 205.965 1005.68 205.988 1005.67 206.011C1005.66 206.034 1005.65 206.058 1005.64 206.081C1005.63 206.104 1005.62 206.127 1005.61 206.151C1005.6 206.174 1005.59 206.197 1005.58 206.22C1005.57 206.244 1005.56 206.267 1005.55 206.29C1005.54 206.313 1005.53 206.337 1005.52 206.36C1005.51 206.383 1005.5 206.406 1005.49 206.429C1005.48 206.453 1005.47 206.476 1005.46 206.499C1005.45 206.522 1005.44 206.546 1005.43 206.569C1005.42 206.592 1005.41 206.615 1005.4 206.639C1005.39 206.662 1005.38 206.685 1005.37 206.708C1005.36 206.732 1005.35 206.755 1005.34 206.778C1005.33 206.801 1005.32 206.825 1005.31 206.848C1005.3 206.871 1005.29 206.894 1005.28 206.918C1005.27 206.941 1005.26 206.964 1005.25 206.987C1005.24 207.011 1005.23 207.034 1005.22 207.057C1005.21 207.08 1005.2 207.104 1005.19 207.127C1005.18 207.15 1005.17 207.173 1005.16 207.196C1005.15 207.22 1005.14 207.243 1005.13 207.266C1005.12 207.289 1005.11 207.313 1005.1 207.336C1005.09 207.359 1005.08 207.382 1005.07 207.406C1005.06 207.429 1005.05 207.452 1005.04 207.475C1005.03 207.499 1005.02 207.522 1005.01 207.545C1005 207.568 1004.99 207.592 1004.98 207.615C1004.97 207.638 1004.96 207.661 1004.95 207.685C1004.94 207.708 1004.93 207.731 1004.92 207.754C1004.91 207.778 1004.9 207.801 1004.89 207.824C1004.88 207.847 1004.87 207.871 1004.86 207.894C1004.85 207.917 1004.84 207.94 1004.83 207.963C1004.82 207.987 1004.81 208.01 1004.8 208.033C1004.79 208.056 1004.78 208.08 1004.77 208.103C1004.76 208.126 1004.75 208.149 1004.74 208.173C1004.73 208.196 1004.72 208.219 1004.71 208.242C1004.7 208.266 1004.69 208.289 1004.68 208.312C1004.67 208.335 1004.66 208.359 1004.65 208.382C1004.64 208.405 1004.63 208.428 1004.62 208.452C1004.61 208.475 1004.6 208.498 1004.59 208.521C1004.58 208.545 1004.57 208.568 1004.56 208.591C1004.55 208.614 1004.54 208.637 1004.53 208.661C1004.52 208.684 1004.51 208.707 1004.5 208.73C1004.49 208.754 1004.48 208.777 1004.47 208.8C1004.46 208.823 1004.45 208.847 1004.44 208.87C1004.43 208.893 1004.42 208.916 1004.41 208.94C1004.4 208.963 1004.39 208.986 1004.38 209.009C1004.37 209.033 1004.36 209.056 1004.35 209.079C1004.34 209.102 1004.33 209.126 1004.32 209.149C1004.31 209.172 1004.3 209.195 1004.29 209.219C1004.28 209.242 1004.27 209.265 1004.26 209.288C1004.25 209.312 1004.24 209.335 1004.23 209.358C1004.22 209.381 1004.21 209.404 1004.2 209.428C1004.19 209.451 1004.18 209.474 1004.17 209.497C1004.16 209.521 1004.15 209.544 1004.14 209.567C1004.13 209.59 1004.12 209.614 1004.11 209.637C1004.1 209.66 1004.09 209.683 1004.08 209.707C1004.07 209.73 1004.06 209.753 1004.05 209.776C1004.04 209.8 1004.03 209.823 1004.02 209.846C1004.01 209.869 1004 209.893 1003.99 209.916C1003.98 209.939 1003.97 209.962 1003.96 209.986C1003.94 210.009 1003.93 210.032 1003.92 210.055C1003.91 210.079 1003.9 210.102 1003.89 210.125C1003.88 210.148 1003.87 210.171 1003.86 210.195C1003.85 210.218 1003.84 210.241 1003.83 210.264C1003.82 210.288 1003.81 210.311 1003.8 210.334C1003.79 210.357 1003.78 210.381 1003.77 210.404C1003.76 210.427 1003.75 210.45 1003.74 210.474C1003.73 210.497 1003.72 210.52 1003.71 210.543C1003.7 210.567 1003.69 210.59 1003.68 210.613C1003.67 210.636 1003.66 210.66 1003.65 210.683C1003.64 210.706 1003.63 210.729 1003.62 210.753C1003.61 210.776 1003.6 210.799 1003.59 210.822C1003.58 210.846 1003.57 210.869 1003.56 210.892C1003.55 210.915 1003.54 210.938 1003.53 210.962C1003.52 210.985 1003.51 211.008 1003.5 211.031C1003.49 211.055 1003.48 211.078 1003.47 211.101C1003.46 211.124 1003.45 211.148 1003.44 211.171C1003.43 211.194 1003.42 211.217 1003.41 211.241C1003.4 211.264 1003.39 211.287 1003.38 211.31C1003.37 211.334 1003.36 211.357 1003.35 211.38C1003.34 211.403 1003.33 211.427 1003.32 211.45C1003.31 211.473 1003.3 211.496 1003.29 211.52C1003.28 211.543 1003.27 211.566 1003.26 211.589C1003.25 211.613 1003.24 211.636 1003.23 211.659C1003.22 211.682 1003.21 211.705 1003.2 211.729C1003.19 211.752 1003.18 211.775 1003.17 211.798C1003.16 211.822 1003.15 211.845 1003.14 211.868C1003.13 211.891 1003.12 211.915 1003.11 211.938C1003.1 211.961 1003.09 211.984 1003.08 212.008C1003.07 212.031 1003.06 212.054 1003.05 212.077C1003.04 212.101 1003.03 212.124 1003.02 212.147C1003.01 212.17 1003 212.194 1002.99 212.217C1002.98 212.24 1002.97 212.263 1002.96 212.287C1002.95 212.31 1002.94 212.333 1002.93 212.356C1002.92 212.379 1002.91 212.403 1002.9 212.426C1002.89 212.449 1002.88 212.472 1002.87 212.496C1002.86 212.519 1002.85 212.542 1002.84 212.565C1002.83 212.589 1002.82 212.612 1002.81 212.635C1002.8 212.658 1002.79 212.682 1002.78 212.705C1002.77 212.728 1002.76 212.751 1002.75 212.775C1002.74 212.798 1002.73 212.821 1002.72 212.844C1002.71 212.868 1002.7 212.891 1002.69 212.914C1002.68 212.937 1002.67 212.961 1002.66 212.984C1002.65 213.007 1002.64 213.03 1002.63 213.054C1002.62 213.077 1002.61 213.1 1002.6 213.123C1002.59 213.146 1002.58 213.17 1002.57 213.193C1002.56 213.216 1002.55 213.239 1002.54 213.263C1002.53 213.286 1002.52 213.309 1002.51 213.332C1002.5 213.356 1002.49 213.379 1002.48 213.402C1002.47 213.425 1002.46 213.449 1002.45 213.472C1002.44 213.495 1002.43 213.518 1002.42 213.542C1002.41 213.565 1002.4 213.588 1002.39 213.611C1002.38 213.635 1002.37 213.658 1002.36 213.681C1002.35 213.704 1002.34 213.728 1002.33 213.751C1002.32 213.774 1002.31 213.797 1002.3 213.821C1002.29 213.844 1002.28 213.867 1002.27 213.89C1002.26 213.913 1002.25 213.937 1002.24 213.96C1002.23 213.983 1002.22 214.006 1002.21 214.03C1002.2 214.053 1002.19 214.076 1002.18 214.099C1002.17 214.123 1002.16 214.146 1002.15 214.169C1002.14 214.192 1002.13 214.216 1002.12 214.239C1002.11 214.262 1002.1 214.285 1002.09 214.309C1002.08 214.332 1002.07 214.355 1002.06 214.378C1002.05 214.402 1002.04 214.425 1002.03 214.448C1002.02 214.471 1002.01 214.495 1002 214.518C1001.99 214.541 1001.98 214.564 1001.97 214.587C1001.96 214.611 1001.95 214.634 1001.94 214.657C1001.93 214.68 1001.92 214.704 1001.91 214.727C1001.9 214.75 1001.89 214.773 1001.88 214.797C1001.87 214.82 1001.86 214.843 1001.85 214.866C1001.84 214.89 1001.83 214.913 1001.82 214.936C1001.81 214.959 1001.8 214.983 1001.79 215.006C1001.78 215.029 1001.77 215.052 1001.76 215.076C1001.75 215.099 1001.74 215.122 1001.73 215.145C1001.72 215.169 1001.71 215.192 1001.7 215.215C1001.69 215.238 1001.68 215.262 1001.67 215.285C1001.66 215.308 1001.65 215.331 1001.64 215.354C1001.63 215.378 1001.62 215.401 1001.61 215.424C1001.6 215.447 1001.59 215.471 1001.58 215.494C1001.57 215.517 1001.56 215.54 1001.55 215.564C1001.54 215.587 1001.53 215.61 1001.52 215.633C1001.51 215.657 1001.5 215.68 1001.49 215.703C1001.48 215.726 1001.47 215.75 1001.46 215.773C1001.45 215.796 1001.44 215.819 1001.43 215.843C1001.42 215.866 1001.41 215.889 1001.4 215.912C1001.39 215.936 1001.38 215.959 1001.37 215.982C1001.36 216.005 1001.35 216.029 1001.34 216.052C1001.33 216.075 1001.32 216.098 1001.31 216.121C1001.3 216.145 1001.29 216.168 1001.28 216.191C1001.27 216.214 1001.26 216.238 1001.25 216.261C1001.24 216.284 1001.23 216.307 1001.22 216.331C1001.21 216.354 1001.2 216.377 1001.19 216.4C1001.18 216.424 1001.17 216.447 1001.16 216.47C1001.15 216.493 1001.14 216.517 1001.13 216.54C1001.12 216.563 1001.11 216.586 1001.1 216.61C1001.09 216.633 1001.08 216.656 1001.07 216.679C1001.06 216.703 1001.05 216.726 1001.04 216.749C1001.03 216.772 1001.02 216.796 1001.01 216.819C1001 216.842 1000.99 216.865 1000.98 216.888C1000.97 216.912 1000.96 216.935 1000.95 216.958C1000.94 216.981 1000.93 217.005 1000.92 217.028C1000.91 217.051 1000.9 217.074 1000.89 217.098C1000.88 217.121 1000.87 217.144 1000.86 217.167C1000.85 217.191 1000.84 217.214 1000.83 217.237C1000.82 217.26 1000.81 217.284 1000.8 217.307C1000.79 217.33 1000.78 217.353 1000.77 217.377C1000.76 217.4 1000.75 217.423 1000.74 217.446C1000.73 217.47 1000.72 217.493 1000.71 217.516C1000.7 217.539 1000.69 217.562 1000.68 217.586C1000.67 217.609 1000.66 217.632 1000.65 217.655C1000.64 217.679 1000.63 217.702 1000.62 217.725C1000.61 217.748 1000.6 217.772 1000.59 217.795C1000.58 217.818 1000.57 217.841 1000.56 217.865C1000.55 217.888 1000.54 217.911 1000.53 217.934C1000.52 217.958 1000.51 217.981 1000.5 218.004C1000.49 218.027 1000.48 218.051 1000.47 218.074C1000.46 218.097 1000.45 218.12 1000.44 218.144C1000.43 218.167 1000.42 218.19 1000.41 218.213C1000.4 218.237 1000.39 218.26 1000.38 218.283C1000.37 218.306 1000.36 218.329 1000.35 218.353C1000.34 218.376 1000.33 218.399 1000.32 218.422C1000.31 218.446 1000.3 218.469 1000.29 218.492C1000.28 218.515 1000.27 218.539 1000.26 218.562C1000.25 218.585 1000.24 218.608 1000.23 218.632C1000.22 218.655 1000.21 218.678 1000.2 218.701C1000.19 218.725 1000.18 218.748 1000.17 218.771C1000.16 218.794 1000.15 218.818 1000.14 218.841C1000.13 218.864 1000.11 218.887 1000.1 218.911C1000.09 218.934 1000.08 218.957 1000.07 218.98C1000.06 219.004 1000.05 219.027 1000.04 219.05C1000.03 219.073 1000.02 219.096 1000.01 219.12C1000 219.143 999.995 219.166 999.985 219.189C999.975 219.213 999.965 219.236 999.955 219.259C999.945 219.282 999.935 219.306 999.924 219.329C999.914 219.352 999.904 219.375 999.894 219.399C999.884 219.422 999.874 219.445 999.864 219.468C999.854 219.492 999.844 219.515 999.834 219.538C999.824 219.561 999.814 219.585 999.804 219.608C999.717 219.811 999.771 219.684 999.684 219.887C999.596 220.09 999.651 219.963 999.564 220.166C999.476 220.369 999.531 220.242 999.443 220.445C999.356 220.647 999.41 220.521 999.323 220.723C999.235 220.926 999.29 220.799 999.203 221.002C999.115 221.205 999.17 221.078 999.082 221.281C998.995 221.484 999.05 221.357 998.962 221.56C998.875 221.763 998.929 221.636 998.842 221.839C998.754 222.042 998.809 221.915 998.721 222.118C998.634 222.321 998.689 222.194 998.601 222.397C998.514 222.6 998.568 222.473 998.481 222.676C998.393 222.879 998.448 222.752 998.36 222.955C998.273 223.158 998.328 223.031 998.24 223.234C998.153 223.436 998.207 223.31 998.12 223.512C998.032 223.715 998.087 223.589 998 223.791C997.912 223.994 997.967 223.867 997.879 224.07C997.792 224.273 997.846 224.146 997.759 224.349C997.671 224.552 997.726 224.425 997.639 224.628C997.551 224.831 997.606 224.704 997.518 224.907C997.431 225.11 997.485 224.983 997.398 225.186C997.31 225.389 997.365 225.262 997.278 225.465C997.19 225.668 997.245 225.541 997.157 225.744C997.07 225.947 997.125 225.82 997.037 226.023C996.95 226.226 997.004 226.099 996.917 226.302C996.829 226.504 996.884 226.378 996.796 226.58C996.709 226.783 996.764 226.656 996.676 226.859C996.589 227.062 996.643 226.935 996.556 227.138C996.468 227.341 996.523 227.214 996.435 227.417C996.348 227.62 996.403 227.493 996.315 227.696C996.228 227.899 996.282 227.772 996.195 227.975C996.107 228.178 996.162 228.051 996.075 228.254C995.987 228.457 996.042 228.33 995.954 228.533C995.867 228.736 995.921 228.609 995.834 228.812C995.746 229.015 995.801 228.888 995.714 229.091C995.626 229.294 995.681 229.167 995.593 229.37C995.506 229.572 995.56 229.446 995.473 229.648C995.385 229.851 995.44 229.724 995.353 229.927C995.265 230.13 995.32 230.003 995.232 230.206C995.145 230.409 995.2 230.282 995.112 230.485C995.024 230.688 995.079 230.561 994.992 230.764C994.904 230.967 994.959 230.84 994.871 231.043C994.784 231.246 994.839 231.119 994.751 231.322C994.664 231.525 994.718 231.398 994.631 231.601C994.543 231.804 994.598 231.677 994.51 231.88C994.423 232.083 994.478 231.956 994.39 232.159C994.303 232.361 994.357 232.235 994.27 232.438C994.182 232.64 994.237 232.514 994.15 232.716C994.062 232.919 994.117 232.792 994.029 232.995C993.942 233.198 993.996 233.071 993.909 233.274C993.821 233.477 993.876 233.35 993.789 233.553C993.701 233.756 993.756 233.629 993.668 233.832C993.581 234.035 993.635 233.908 993.548 234.111C993.46 234.314 993.515 234.187 993.428 234.39C993.34 234.593 993.395 234.466 993.307 234.669C993.22 234.872 993.275 234.745 993.187 234.948C993.099 235.151 993.154 235.024 993.067 235.227C992.979 235.429 993.034 235.303 992.946 235.505C992.859 235.708 992.914 235.581 992.826 235.784C992.739 235.987 992.793 235.86 992.706 236.063C992.618 236.266 992.673 236.139 992.585 236.342C992.498 236.545 992.553 236.418 992.465 236.621C992.378 236.824 992.432 236.697 992.345 236.9C992.257 237.103 992.312 236.976 992.225 237.179C992.137 237.382 992.192 237.255 992.104 237.458L995.777 239.042C995.787 239.019 995.797 238.996 995.807 238.972C995.817 238.949 995.827 238.926 995.837 238.903C995.847 238.879 995.857 238.856 995.867 238.833C995.877 238.81 995.887 238.787 995.897 238.763C995.907 238.74 995.917 238.717 995.927 238.694C995.937 238.67 995.948 238.647 995.958 238.624C995.968 238.601 995.978 238.577 995.988 238.554C995.998 238.531 996.008 238.508 996.018 238.484C996.028 238.461 996.038 238.438 996.048 238.415C996.058 238.391 996.068 238.368 996.078 238.345C996.088 238.322 996.098 238.298 996.108 238.275C996.118 238.252 996.128 238.229 996.138 238.205C996.148 238.182 996.158 238.159 996.168 238.136C996.178 238.112 996.188 238.089 996.198 238.066C996.208 238.043 996.218 238.02 996.228 237.996C996.238 237.973 996.248 237.95 996.258 237.927C996.268 237.903 996.278 237.88 996.288 237.857C996.298 237.834 996.308 237.81 996.318 237.787C996.328 237.764 996.339 237.741 996.349 237.717C996.359 237.694 996.369 237.671 996.379 237.648C996.389 237.624 996.399 237.601 996.409 237.578C996.419 237.555 996.429 237.531 996.439 237.508C996.449 237.485 996.459 237.462 996.469 237.438C996.479 237.415 996.489 237.392 996.499 237.369C996.509 237.346 996.519 237.322 996.529 237.299C996.539 237.276 996.549 237.253 996.559 237.229C996.569 237.206 996.579 237.183 996.589 237.16C996.599 237.136 996.609 237.113 996.619 237.09C996.629 237.067 996.639 237.043 996.649 237.02C996.659 236.997 996.669 236.974 996.679 236.95C996.689 236.927 996.699 236.904 996.709 236.881C996.719 236.857 996.73 236.834 996.74 236.811C996.75 236.788 996.76 236.764 996.77 236.741C996.78 236.718 996.79 236.695 996.8 236.671C996.81 236.648 996.82 236.625 996.83 236.602C996.84 236.579 996.85 236.555 996.86 236.532C996.87 236.509 996.88 236.486 996.89 236.462C996.9 236.439 996.91 236.416 996.92 236.393C996.93 236.369 996.94 236.346 996.95 236.323C996.96 236.3 996.97 236.276 996.98 236.253C996.99 236.23 997 236.207 997.01 236.183C997.02 236.16 997.03 236.137 997.04 236.114C997.05 236.09 997.06 236.067 997.07 236.044C997.08 236.021 997.09 235.997 997.1 235.974C997.111 235.951 997.121 235.928 997.131 235.904C997.141 235.881 997.151 235.858 997.161 235.835C997.171 235.812 997.181 235.788 997.191 235.765C997.201 235.742 997.211 235.719 997.221 235.695C997.231 235.672 997.241 235.649 997.251 235.626C997.261 235.602 997.271 235.579 997.281 235.556C997.291 235.533 997.301 235.509 997.311 235.486C997.321 235.463 997.331 235.44 997.341 235.416C997.351 235.393 997.361 235.37 997.371 235.347C997.381 235.323 997.391 235.3 997.401 235.277C997.411 235.254 997.421 235.23 997.431 235.207C997.441 235.184 997.451 235.161 997.461 235.137C997.471 235.114 997.482 235.091 997.492 235.068C997.502 235.045 997.512 235.021 997.522 234.998C997.532 234.975 997.542 234.952 997.552 234.928C997.562 234.905 997.572 234.882 997.582 234.859C997.592 234.835 997.602 234.812 997.612 234.789C997.622 234.766 997.632 234.742 997.642 234.719C997.652 234.696 997.662 234.673 997.672 234.649C997.682 234.626 997.692 234.603 997.702 234.58C997.712 234.556 997.722 234.533 997.732 234.51C997.742 234.487 997.752 234.463 997.762 234.44C997.772 234.417 997.782 234.394 997.792 234.37C997.802 234.347 997.812 234.324 997.822 234.301C997.832 234.278 997.842 234.254 997.852 234.231C997.862 234.208 997.872 234.185 997.883 234.161C997.893 234.138 997.903 234.115 997.913 234.092C997.923 234.068 997.933 234.045 997.943 234.022C997.953 233.999 997.963 233.975 997.973 233.952C997.983 233.929 997.993 233.906 998.003 233.882C998.013 233.859 998.023 233.836 998.033 233.813C998.043 233.789 998.053 233.766 998.063 233.743C998.073 233.72 998.083 233.696 998.093 233.673C998.103 233.65 998.113 233.627 998.123 233.604C998.133 233.58 998.143 233.557 998.153 233.534C998.163 233.511 998.173 233.487 998.183 233.464C998.193 233.441 998.203 233.418 998.213 233.394C998.223 233.371 998.233 233.348 998.243 233.325C998.253 233.301 998.263 233.278 998.274 233.255C998.284 233.232 998.294 233.208 998.304 233.185C998.314 233.162 998.324 233.139 998.334 233.115C998.344 233.092 998.354 233.069 998.364 233.046C998.374 233.022 998.384 232.999 998.394 232.976C998.404 232.953 998.414 232.929 998.424 232.906C998.434 232.883 998.444 232.86 998.454 232.837C998.464 232.813 998.474 232.79 998.484 232.767C998.494 232.744 998.504 232.72 998.514 232.697C998.524 232.674 998.534 232.651 998.544 232.627C998.554 232.604 998.564 232.581 998.574 232.558C998.584 232.534 998.594 232.511 998.604 232.488C998.614 232.465 998.624 232.441 998.634 232.418C998.644 232.395 998.655 232.372 998.665 232.348C998.675 232.325 998.685 232.302 998.695 232.279C998.705 232.255 998.715 232.232 998.725 232.209C998.735 232.186 998.745 232.162 998.755 232.139C998.765 232.116 998.775 232.093 998.785 232.07C998.795 232.046 998.805 232.023 998.815 232C998.825 231.977 998.835 231.953 998.845 231.93C998.855 231.907 998.865 231.884 998.875 231.86C998.885 231.837 998.895 231.814 998.905 231.791C998.915 231.767 998.925 231.744 998.935 231.721C998.945 231.698 998.955 231.674 998.965 231.651C998.975 231.628 998.985 231.605 998.995 231.581C999.005 231.558 999.015 231.535 999.026 231.512C999.036 231.488 999.046 231.465 999.056 231.442C999.066 231.419 999.076 231.395 999.086 231.372C999.096 231.349 999.106 231.326 999.116 231.303C999.126 231.279 999.136 231.256 999.146 231.233C999.156 231.21 999.166 231.186 999.176 231.163C999.186 231.14 999.196 231.117 999.206 231.093C999.216 231.07 999.226 231.047 999.236 231.024C999.246 231 999.256 230.977 999.266 230.954C999.276 230.931 999.286 230.907 999.296 230.884C999.306 230.861 999.316 230.838 999.326 230.814C999.336 230.791 999.346 230.768 999.356 230.745C999.366 230.721 999.376 230.698 999.386 230.675C999.396 230.652 999.406 230.629 999.417 230.605C999.427 230.582 999.437 230.559 999.447 230.536C999.457 230.512 999.467 230.489 999.477 230.466C999.487 230.443 999.497 230.419 999.507 230.396C999.517 230.373 999.527 230.35 999.537 230.326C999.547 230.303 999.557 230.28 999.567 230.257C999.577 230.233 999.587 230.21 999.597 230.187C999.607 230.164 999.617 230.14 999.627 230.117C999.637 230.094 999.647 230.071 999.657 230.047C999.667 230.024 999.677 230.001 999.687 229.978C999.697 229.954 999.707 229.931 999.717 229.908C999.727 229.885 999.737 229.862 999.747 229.838C999.757 229.815 999.767 229.792 999.777 229.769C999.787 229.745 999.797 229.722 999.807 229.699C999.818 229.676 999.828 229.652 999.838 229.629C999.848 229.606 999.858 229.583 999.868 229.559C999.878 229.536 999.888 229.513 999.898 229.49C999.908 229.466 999.918 229.443 999.928 229.42C999.938 229.397 999.948 229.373 999.958 229.35C999.968 229.327 999.978 229.304 999.988 229.28C999.998 229.257 1000.01 229.234 1000.02 229.211C1000.03 229.187 1000.04 229.164 1000.05 229.141C1000.06 229.118 1000.07 229.095 1000.08 229.071C1000.09 229.048 1000.1 229.025 1000.11 229.002C1000.12 228.978 1000.13 228.955 1000.14 228.932C1000.15 228.909 1000.16 228.885 1000.17 228.862C1000.18 228.839 1000.19 228.816 1000.2 228.792C1000.21 228.769 1000.22 228.746 1000.23 228.723C1000.24 228.699 1000.25 228.676 1000.26 228.653C1000.27 228.63 1000.28 228.606 1000.29 228.583C1000.3 228.56 1000.31 228.537 1000.32 228.513C1000.33 228.49 1000.34 228.467 1000.35 228.444C1000.36 228.421 1000.37 228.397 1000.38 228.374C1000.39 228.351 1000.4 228.328 1000.41 228.304C1000.42 228.281 1000.43 228.258 1000.44 228.235C1000.45 228.211 1000.46 228.188 1000.47 228.165C1000.48 228.142 1000.49 228.118 1000.5 228.095C1000.51 228.072 1000.52 228.049 1000.53 228.025C1000.54 228.002 1000.55 227.979 1000.56 227.956C1000.57 227.932 1000.58 227.909 1000.59 227.886C1000.6 227.863 1000.61 227.839 1000.62 227.816C1000.63 227.793 1000.64 227.77 1000.65 227.746C1000.66 227.723 1000.67 227.7 1000.68 227.677C1000.69 227.654 1000.7 227.63 1000.71 227.607C1000.72 227.584 1000.73 227.561 1000.74 227.537C1000.75 227.514 1000.76 227.491 1000.77 227.468C1000.78 227.444 1000.79 227.421 1000.8 227.398C1000.81 227.375 1000.82 227.351 1000.83 227.328C1000.84 227.305 1000.85 227.282 1000.86 227.258C1000.87 227.235 1000.88 227.212 1000.89 227.189C1000.9 227.165 1000.91 227.142 1000.92 227.119C1000.93 227.096 1000.94 227.072 1000.95 227.049C1000.96 227.026 1000.97 227.003 1000.98 226.979C1000.99 226.956 1001 226.933 1001.01 226.91C1001.02 226.887 1001.03 226.863 1001.04 226.84C1001.05 226.817 1001.06 226.794 1001.07 226.77C1001.08 226.747 1001.09 226.724 1001.1 226.701C1001.11 226.677 1001.12 226.654 1001.13 226.631C1001.14 226.608 1001.15 226.584 1001.16 226.561C1001.17 226.538 1001.18 226.515 1001.19 226.491C1001.2 226.468 1001.21 226.445 1001.22 226.422C1001.23 226.398 1001.24 226.375 1001.25 226.352C1001.26 226.329 1001.27 226.305 1001.28 226.282C1001.29 226.259 1001.3 226.236 1001.31 226.212C1001.32 226.189 1001.33 226.166 1001.34 226.143C1001.35 226.12 1001.36 226.096 1001.37 226.073C1001.38 226.05 1001.39 226.027 1001.4 226.003C1001.41 225.98 1001.42 225.957 1001.43 225.934C1001.44 225.91 1001.45 225.887 1001.46 225.864C1001.47 225.841 1001.48 225.817 1001.49 225.794C1001.5 225.771 1001.51 225.748 1001.52 225.724C1001.53 225.701 1001.54 225.678 1001.55 225.655C1001.56 225.631 1001.57 225.608 1001.58 225.585C1001.59 225.562 1001.6 225.538 1001.61 225.515C1001.62 225.492 1001.63 225.469 1001.64 225.445C1001.65 225.422 1001.66 225.399 1001.67 225.376C1001.68 225.353 1001.69 225.329 1001.7 225.306C1001.71 225.283 1001.72 225.26 1001.73 225.236C1001.74 225.213 1001.75 225.19 1001.76 225.167C1001.77 225.143 1001.78 225.12 1001.79 225.097C1001.8 225.074 1001.81 225.05 1001.82 225.027C1001.83 225.004 1001.84 224.981 1001.85 224.957C1001.86 224.934 1001.87 224.911 1001.88 224.888C1001.89 224.864 1001.9 224.841 1001.91 224.818C1001.92 224.795 1001.93 224.771 1001.94 224.748C1001.95 224.725 1001.96 224.702 1001.97 224.679C1001.98 224.655 1001.99 224.632 1002 224.609C1002.01 224.586 1002.02 224.562 1002.03 224.539C1002.04 224.516 1002.05 224.493 1002.06 224.469C1002.07 224.446 1002.08 224.423 1002.09 224.4C1002.1 224.376 1002.11 224.353 1002.12 224.33C1002.13 224.307 1002.14 224.283 1002.15 224.26C1002.16 224.237 1002.17 224.214 1002.18 224.19C1002.19 224.167 1002.2 224.144 1002.21 224.121C1002.22 224.097 1002.23 224.074 1002.24 224.051C1002.25 224.028 1002.26 224.004 1002.27 223.981C1002.28 223.958 1002.29 223.935 1002.3 223.912C1002.31 223.888 1002.32 223.865 1002.33 223.842C1002.34 223.819 1002.35 223.795 1002.36 223.772C1002.37 223.749 1002.38 223.726 1002.39 223.702C1002.4 223.679 1002.41 223.656 1002.42 223.633C1002.43 223.609 1002.44 223.586 1002.45 223.563C1002.46 223.54 1002.47 223.516 1002.48 223.493C1002.49 223.47 1002.5 223.447 1002.51 223.423C1002.52 223.4 1002.53 223.377 1002.54 223.354C1002.55 223.33 1002.56 223.307 1002.57 223.284C1002.58 223.261 1002.59 223.237 1002.6 223.214C1002.61 223.191 1002.62 223.168 1002.63 223.145C1002.64 223.121 1002.65 223.098 1002.66 223.075C1002.67 223.052 1002.68 223.028 1002.7 223.005C1002.71 222.982 1002.72 222.959 1002.73 222.935C1002.74 222.912 1002.75 222.889 1002.76 222.866C1002.77 222.842 1002.78 222.819 1002.79 222.796C1002.8 222.773 1002.81 222.749 1002.82 222.726C1002.83 222.703 1002.84 222.68 1002.85 222.656C1002.86 222.633 1002.87 222.61 1002.88 222.587C1002.89 222.563 1002.9 222.54 1002.91 222.517C1002.92 222.494 1002.93 222.471 1002.94 222.447C1002.95 222.424 1002.96 222.401 1002.97 222.378C1002.98 222.354 1002.99 222.331 1003 222.308C1003.01 222.285 1003.02 222.261 1003.03 222.238C1003.04 222.215 1003.05 222.192 1003.06 222.168C1003.07 222.145 1003.08 222.122 1003.09 222.099C1003.1 222.075 1003.11 222.052 1003.12 222.029C1003.13 222.006 1003.14 221.982 1003.15 221.959C1003.16 221.936 1003.17 221.913 1003.18 221.889C1003.19 221.866 1003.2 221.843 1003.21 221.82C1003.22 221.796 1003.23 221.773 1003.24 221.75C1003.25 221.727 1003.26 221.704 1003.27 221.68C1003.28 221.657 1003.29 221.634 1003.3 221.611C1003.31 221.587 1003.32 221.564 1003.33 221.541C1003.34 221.518 1003.35 221.494 1003.36 221.471C1003.37 221.448 1003.38 221.425 1003.39 221.401C1003.4 221.378 1003.41 221.355 1003.42 221.332C1003.43 221.308 1003.44 221.285 1003.45 221.262C1003.46 221.239 1003.47 221.215 1003.48 221.192C1003.56 220.989 1003.51 221.116 1003.6 220.913C1003.68 220.71 1003.63 220.837 1003.72 220.634C1003.81 220.431 1003.75 220.558 1003.84 220.355C1003.93 220.153 1003.87 220.279 1003.96 220.077C1004.05 219.874 1003.99 220.001 1004.08 219.798C1004.17 219.595 1004.11 219.722 1004.2 219.519C1004.29 219.316 1004.23 219.443 1004.32 219.24C1004.41 219.037 1004.35 219.164 1004.44 218.961C1004.53 218.758 1004.47 218.885 1004.56 218.682C1004.65 218.479 1004.59 218.606 1004.68 218.403C1004.77 218.2 1004.71 218.327 1004.8 218.124C1004.89 217.921 1004.83 218.048 1004.92 217.845C1005.01 217.642 1004.95 217.769 1005.04 217.566C1005.13 217.363 1005.07 217.49 1005.16 217.287C1005.25 217.085 1005.19 217.211 1005.28 217.009C1005.37 216.806 1005.31 216.933 1005.4 216.73C1005.49 216.527 1005.43 216.654 1005.52 216.451C1005.61 216.248 1005.56 216.375 1005.64 216.172C1005.73 215.969 1005.68 216.096 1005.76 215.893C1005.85 215.69 1005.8 215.817 1005.88 215.614C1005.97 215.411 1005.92 215.538 1006 215.335C1006.09 215.132 1006.04 215.259 1006.12 215.056C1006.21 214.853 1006.16 214.98 1006.24 214.777C1006.33 214.574 1006.28 214.701 1006.36 214.498C1006.45 214.296 1006.4 214.422 1006.48 214.22C1006.57 214.017 1006.52 214.144 1006.61 213.941C1006.69 213.738 1006.64 213.865 1006.73 213.662C1006.81 213.459 1006.76 213.586 1006.85 213.383C1006.93 213.18 1006.88 213.307 1006.97 213.104C1007.05 212.901 1007 213.028 1007.09 212.825C1007.17 212.622 1007.12 212.749 1007.21 212.546C1007.29 212.343 1007.24 212.47 1007.33 212.267C1007.41 212.064 1007.36 212.191 1007.45 211.988C1007.53 211.785 1007.48 211.912 1007.57 211.709C1007.66 211.506 1007.6 211.633 1007.69 211.43C1007.78 211.228 1007.72 211.354 1007.81 211.152C1007.9 210.949 1007.84 211.076 1007.93 210.873C1008.02 210.67 1007.96 210.797 1008.05 210.594C1008.14 210.391 1008.08 210.518 1008.17 210.315C1008.26 210.112 1008.2 210.239 1008.29 210.036C1008.38 209.833 1008.32 209.96 1008.41 209.757C1008.5 209.554 1008.44 209.681 1008.53 209.478C1008.62 209.275 1008.56 209.402 1008.65 209.199C1008.74 208.996 1008.68 209.123 1008.77 208.92C1008.86 208.717 1008.8 208.844 1008.89 208.641C1008.98 208.439 1008.92 208.565 1009.01 208.362C1009.1 208.16 1009.04 208.286 1009.13 208.084C1009.22 207.881 1009.16 208.008 1009.25 207.805C1009.34 207.602 1009.28 207.729 1009.37 207.526C1009.46 207.323 1009.41 207.45 1009.49 207.247C1009.58 207.044 1009.53 207.171 1009.61 206.968C1009.7 206.765 1009.65 206.892 1009.73 206.689C1009.82 206.486 1009.77 206.613 1009.85 206.41C1009.94 206.207 1009.89 206.334 1009.97 206.131C1010.06 205.928 1010.01 206.055 1010.09 205.852C1010.18 205.649 1010.13 205.776 1010.21 205.573C1010.3 205.371 1010.25 205.497 1010.33 205.295C1010.42 205.092 1010.37 205.219 1010.46 205.016C1010.54 204.813 1010.49 204.94 1010.58 204.737C1010.66 204.534 1010.61 204.661 1010.7 204.458C1010.78 204.255 1010.73 204.382 1010.82 204.179C1010.83 204.156 1010.84 204.132 1010.85 204.109C1010.86 204.086 1010.87 204.063 1010.88 204.039C1010.89 204.016 1010.9 203.993 1010.91 203.97C1010.92 203.946 1010.93 203.923 1010.94 203.9C1010.98 203.81 1011.02 203.711 1011.06 203.621C1011.07 203.598 1011.08 203.575 1011.09 203.551C1011.1 203.528 1011.11 203.505 1011.12 203.482C1011.13 203.458 1011.14 203.435 1011.15 203.412C1011.16 203.389 1011.17 203.365 1011.18 203.342L1007.5 201.758ZM992.091 237.488C987.194 249.382 982.414 260.808 977.75 271.767L981.431 273.333C986.101 262.359 990.887 250.918 995.79 239.011L992.091 237.488ZM977.756 271.753C973.088 282.489 969.119 291.712 965.849 299.419L969.532 300.981C972.795 293.288 976.76 284.077 981.425 273.347L977.756 271.753ZM967.691 298.2H929.541V302.2H967.691V298.2ZM931.382 299.419C928.112 291.712 924.143 282.489 919.475 271.753L915.807 273.347C920.472 284.077 924.436 293.288 927.699 300.981L931.382 299.419ZM919.481 271.767C914.813 260.797 909.912 249.361 904.777 237.458L901.104 239.042C906.236 250.939 911.135 262.37 915.8 273.333L919.481 271.767ZM904.79 237.488C899.886 225.578 894.865 213.668 889.727 201.758L886.054 203.342C891.183 215.232 896.196 227.122 901.091 239.011L904.79 237.488ZM889.727 201.758C884.594 189.859 879.928 179.01 875.729 169.212L872.052 170.788C876.253 180.59 880.92 191.441 886.054 203.342L889.727 201.758ZM871.897 169.835C869.562 198.095 867.81 226.122 866.642 253.916L870.639 254.084C871.804 226.345 873.553 198.372 875.884 170.165L871.897 169.835ZM866.642 253.916C865.475 281.689 864.542 307.364 863.841 330.941L867.84 331.059C868.539 307.502 869.472 281.844 870.639 254.084L866.642 253.916ZM865.841 329H812.641V333H865.841V329ZM814.638 331.097C815.571 311.968 816.621 291.555 817.788 269.857L813.794 269.643C812.627 291.346 811.577 311.766 810.643 330.903L814.638 331.097ZM817.786 269.879C819.186 248.179 820.586 226.596 821.986 205.13L817.995 204.87C816.595 226.337 815.195 247.921 813.795 269.621L817.786 269.879ZM821.985 205.15C823.617 183.461 825.366 162.707 827.232 142.887L823.249 142.513C821.381 162.359 819.63 183.139 817.996 204.85L821.985 205.15ZM827.23 142.908C829.328 122.862 831.541 104.805 833.87 88.7369L829.911 88.1631C827.573 104.295 825.354 122.405 823.251 142.492L827.23 142.908ZM831.891 90.45H884.041V86.45H831.891V90.45ZM1182.4 331V333H1184.4V331H1182.4ZM1130.25 331H1128.25V333H1130.25V331ZM1130.25 146.9V144.9H1128.25V146.9H1130.25ZM1182.4 146.9H1184.4V144.9H1182.4V146.9ZM1177.85 116.45L1179.18 117.948L1179.18 117.945L1177.85 116.45ZM1134.1 116.45L1132.75 117.92L1132.77 117.947L1132.81 117.972L1134.1 116.45ZM1134.1 71.3L1135.43 72.798L1135.43 72.7948L1134.1 71.3ZM1177.85 71.3L1176.5 72.7696L1176.52 72.7966L1176.56 72.8225L1177.85 71.3ZM1182.4 329H1130.25V333H1182.4V329ZM1132.25 331V146.9H1128.25V331H1132.25ZM1130.25 148.9H1182.4V144.9H1130.25V148.9ZM1180.4 146.9V331H1184.4V146.9H1180.4ZM1185.3 93.7C1185.3 102.781 1182.34 109.788 1176.52 114.955L1179.18 117.945C1185.97 111.912 1189.3 103.752 1189.3 93.7H1185.3ZM1176.53 114.952C1170.84 119.982 1164.08 122.5 1156.15 122.5V126.5C1165.02 126.5 1172.73 123.651 1179.18 117.948L1176.53 114.952ZM1156.15 122.5C1148.22 122.5 1141.33 119.981 1135.4 114.927L1132.81 117.972C1139.47 123.652 1147.28 126.5 1156.15 126.5V122.5ZM1135.46 114.98C1129.87 109.82 1127 102.806 1127 93.7H1123C1123 103.728 1126.2 111.88 1132.75 117.92L1135.46 114.98ZM1127 93.7C1127 84.5924 1129.87 77.7156 1135.43 72.798L1132.78 69.802C1126.2 75.6177 1123 83.6742 1123 93.7H1127ZM1135.43 72.7948C1141.37 67.519 1148.24 64.9 1156.15 64.9V60.9C1147.26 60.9 1139.44 63.881 1132.77 69.8052L1135.43 72.7948ZM1156.15 64.9C1164.06 64.9 1170.81 67.5172 1176.5 72.7696L1179.21 69.8304C1172.77 63.8828 1165.05 60.9 1156.15 60.9V64.9ZM1176.56 72.8225C1182.34 77.7478 1185.3 84.6177 1185.3 93.7H1189.3C1189.3 83.6489 1185.97 75.5854 1179.15 69.7775L1176.56 72.8225ZM1304.57 290.75L1305.43 292.56L1304.57 290.75ZM1302.82 269.05L1301.75 270.737L1301.78 270.755L1301.81 270.772L1302.82 269.05ZM1279.37 258.2L1280.08 256.329L1280.07 256.325L1279.37 258.2ZM1256.97 248.75L1256.08 250.539L1256.09 250.545L1256.1 250.551L1256.97 248.75ZM1240.17 237.2L1238.76 238.614L1238.78 238.632L1238.8 238.65L1240.17 237.2ZM1229.32 220.75L1231.18 219.995L1229.32 220.75ZM1244.72 157.05L1245.96 158.626L1244.72 157.05ZM1329.77 145.15L1329.37 147.109L1329.39 147.114L1329.42 147.118L1329.77 145.15ZM1354.27 151.45L1356.23 151.887L1356.6 150.203L1354.99 149.583L1354.27 151.45ZM1345.17 192.05L1344.52 193.94L1346.64 194.672L1347.13 192.487L1345.17 192.05ZM1325.22 186.45L1324.77 188.398L1324.78 188.399L1324.78 188.401L1325.22 186.45ZM1282.17 208.15L1280.95 209.729L1281 209.774L1281.06 209.814L1282.17 208.15ZM1290.57 213.05L1289.63 214.815L1289.7 214.851L1289.77 214.882L1290.57 213.05ZM1304.57 218.65L1303.87 220.523L1303.88 220.527L1304.57 218.65ZM1332.92 231.25L1331.94 232.993L1331.96 233.005L1331.99 233.016L1332.92 231.25ZM1350.42 244.55L1348.91 245.852L1348.94 245.89L1348.97 245.927L1350.42 244.55ZM1359.52 260.3L1357.6 260.839L1357.61 260.875L1357.62 260.91L1359.52 260.3ZM1341.67 321.9L1340.55 320.245L1340.54 320.249L1340.54 320.254L1341.67 321.9ZM1242.97 331.7L1242.47 333.635L1242.48 333.638L1242.97 331.7ZM1220.57 324.7L1218.62 324.295L1218.29 325.873L1219.76 326.528L1220.57 324.7ZM1229.32 282.35L1230.06 280.49L1227.85 279.617L1227.37 281.945L1229.32 282.35ZM1256.62 290.75L1256.18 292.701L1256.21 292.706L1256.23 292.711L1256.62 290.75ZM1284.27 295.55C1293.87 295.55 1301.03 294.63 1305.43 292.56L1303.72 288.94C1300.19 290.603 1293.81 291.55 1284.27 291.55V295.55ZM1305.43 292.56C1307.77 291.458 1309.58 289.802 1310.79 287.599C1311.98 285.421 1312.52 282.821 1312.52 279.9H1308.52C1308.52 282.345 1308.07 284.238 1307.28 285.676C1306.51 287.089 1305.35 288.175 1303.72 288.94L1305.43 292.56ZM1312.52 279.9C1312.52 274.716 1309.3 270.554 1303.84 267.328L1301.81 270.772C1306.61 273.612 1308.52 276.684 1308.52 279.9H1312.52ZM1303.9 267.363C1298.59 263.985 1290.62 260.311 1280.08 256.329L1278.67 260.071C1289.13 264.022 1296.79 267.582 1301.75 270.737L1303.9 267.363ZM1280.07 256.325C1271.95 253.31 1264.55 250.184 1257.84 246.949L1256.1 250.551C1262.94 253.849 1270.46 257.023 1278.68 260.075L1280.07 256.325ZM1257.87 246.961C1251.49 243.771 1246.06 240.03 1241.55 235.75L1238.8 238.65C1243.62 243.236 1249.39 247.195 1256.08 250.539L1257.87 246.961ZM1241.59 235.786C1237.12 231.313 1233.65 226.056 1231.18 219.995L1227.47 221.505C1230.14 228.044 1233.9 233.753 1238.76 238.614L1241.59 235.786ZM1231.18 219.995C1228.73 213.996 1227.47 206.683 1227.47 198H1223.47C1223.47 207.051 1224.78 214.904 1227.47 221.505L1231.18 219.995ZM1227.47 198C1227.47 181.306 1233.64 168.254 1245.96 158.626L1243.49 155.474C1230.14 165.912 1223.47 180.161 1223.47 198H1227.47ZM1245.96 158.626C1258.33 148.954 1275.45 144 1297.57 144V140C1274.89 140 1256.79 145.079 1243.49 155.474L1245.96 158.626ZM1297.57 144C1308.65 144 1319.25 145.038 1329.37 147.109L1330.17 143.191C1319.77 141.062 1308.9 140 1297.57 140V144ZM1329.42 147.118C1339.62 148.974 1347.65 151.047 1353.56 153.317L1354.99 149.583C1348.76 147.187 1340.46 145.06 1330.13 143.182L1329.42 147.118ZM1352.32 151.013L1343.22 191.613L1347.13 192.487L1356.23 151.887L1352.32 151.013ZM1345.83 190.16C1339.68 188.032 1332.96 186.146 1325.66 184.499L1324.78 188.401C1331.96 190.02 1338.53 191.868 1344.52 193.94L1345.83 190.16ZM1325.68 184.502C1318.5 182.827 1310.41 182 1301.42 182V186C1310.17 186 1317.95 186.806 1324.77 188.398L1325.68 184.502ZM1301.42 182C1293.14 182 1286.6 183.143 1282.08 185.665C1279.78 186.943 1277.97 188.595 1276.74 190.651C1275.51 192.71 1274.92 195.066 1274.92 197.65H1278.92C1278.92 195.684 1279.36 194.058 1280.17 192.705C1280.98 191.349 1282.23 190.157 1284.02 189.16C1287.66 187.132 1293.38 186 1301.42 186V182ZM1274.92 197.65C1274.92 199.972 1275.31 202.115 1276.14 204.038L1279.81 202.462C1279.24 201.119 1278.92 199.528 1278.92 197.65H1274.92ZM1276.14 204.038C1277.02 206.099 1278.7 207.983 1280.95 209.729L1283.4 206.571C1281.45 205.05 1280.33 203.668 1279.81 202.462L1276.14 204.038ZM1281.06 209.814C1283.24 211.265 1286.1 212.932 1289.63 214.815L1291.52 211.285C1288.04 209.434 1285.31 207.835 1283.28 206.486L1281.06 209.814ZM1289.77 214.882C1293.55 216.535 1298.25 218.415 1303.87 220.523L1305.28 216.777C1299.7 214.685 1295.06 212.832 1291.38 211.218L1289.77 214.882ZM1303.88 220.527C1315.26 224.704 1324.6 228.862 1331.94 232.993L1333.9 229.507C1326.31 225.238 1316.76 220.996 1305.26 216.773L1303.88 220.527ZM1331.99 233.016C1339.3 236.9 1344.91 241.19 1348.91 245.852L1351.94 243.248C1347.54 238.11 1341.48 233.533 1333.86 229.484L1331.99 233.016ZM1348.97 245.927C1353.2 250.373 1356.06 255.34 1357.6 260.839L1361.45 259.761C1359.72 253.594 1356.52 248.06 1351.87 243.173L1348.97 245.927ZM1357.62 260.91C1359.41 266.503 1360.32 273.056 1360.32 280.6H1364.32C1364.32 272.744 1363.37 265.764 1361.43 259.69L1357.62 260.91ZM1360.32 280.6C1360.32 298.21 1353.71 311.323 1340.55 320.245L1342.8 323.555C1357.17 313.81 1364.32 299.39 1364.32 280.6H1360.32ZM1340.54 320.254C1327.47 329.266 1308.68 333.9 1283.92 333.9V337.9C1309.1 337.9 1328.81 333.201 1342.81 323.546L1340.54 320.254ZM1283.92 333.9C1267.69 333.9 1254.22 332.507 1243.47 329.762L1242.48 333.638C1253.66 336.493 1267.49 337.9 1283.92 337.9V333.9ZM1243.48 329.765C1232.74 326.965 1225.42 324.666 1221.39 322.872L1219.76 326.528C1224.13 328.468 1231.74 330.835 1242.47 333.635L1243.48 329.765ZM1222.53 325.105L1231.28 282.755L1227.37 281.945L1218.62 324.295L1222.53 325.105ZM1228.59 284.21C1237.55 287.748 1246.75 290.579 1256.18 292.701L1257.06 288.799C1247.83 286.721 1238.83 283.952 1230.06 280.49L1228.59 284.21ZM1256.23 292.711C1265.69 294.602 1275.04 295.55 1284.27 295.55V291.55C1275.31 291.55 1266.23 290.631 1257.02 288.789L1256.23 292.711ZM1453.45 331V333H1455.45V331H1453.45ZM1401.3 331H1399.3V333H1401.3V331ZM1401.3 146.9V144.9H1399.3V146.9H1401.3ZM1453.45 146.9H1455.45V144.9H1453.45V146.9ZM1448.9 116.45L1450.22 117.948L1450.23 117.945L1448.9 116.45ZM1405.15 116.45L1403.79 117.92L1403.82 117.947L1403.85 117.972L1405.15 116.45ZM1405.15 71.3L1406.47 72.798L1406.48 72.7948L1405.15 71.3ZM1448.9 71.3L1447.54 72.7696L1447.57 72.7966L1447.6 72.8225L1448.9 71.3ZM1453.45 329H1401.3V333H1453.45V329ZM1403.3 331V146.9H1399.3V331H1403.3ZM1401.3 148.9H1453.45V144.9H1401.3V148.9ZM1451.45 146.9V331H1455.45V146.9H1451.45ZM1456.35 93.7C1456.35 102.781 1453.38 109.788 1447.57 114.955L1450.23 117.945C1457.01 111.912 1460.35 103.752 1460.35 93.7H1456.35ZM1447.57 114.952C1441.89 119.982 1435.13 122.5 1427.2 122.5V126.5C1436.07 126.5 1443.78 123.651 1450.22 117.948L1447.57 114.952ZM1427.2 122.5C1419.26 122.5 1412.38 119.981 1406.44 114.927L1403.85 117.972C1410.52 123.652 1418.33 126.5 1427.2 126.5V122.5ZM1406.5 114.98C1400.91 109.82 1398.05 102.806 1398.05 93.7H1394.05C1394.05 103.728 1397.25 111.88 1403.79 117.92L1406.5 114.98ZM1398.05 93.7C1398.05 84.5924 1400.91 77.7156 1406.47 72.798L1403.82 69.802C1397.25 75.6177 1394.05 83.6742 1394.05 93.7H1398.05ZM1406.48 72.7948C1412.41 67.519 1419.29 64.9 1427.2 64.9V60.9C1418.31 60.9 1410.48 63.881 1403.82 69.8052L1406.48 72.7948ZM1427.2 64.9C1435.1 64.9 1441.85 67.5172 1447.54 72.7696L1450.25 69.8304C1443.81 63.8828 1436.09 60.9 1427.2 60.9V64.9ZM1447.6 72.8225C1453.38 77.7478 1456.35 84.6177 1456.35 93.7H1460.35C1460.35 83.6489 1457.01 75.5854 1450.19 69.7775L1447.6 72.8225Z" fill="url(#paint31_linear_2896_6091)" fill-opacity="0.3"/>
<path d="M157.191 258.388C154.649 252.994 152.138 247.383 149.658 241.555C147.178 235.727 144.822 229.961 142.59 224.257C140.358 218.553 138.281 213.097 136.359 207.889C134.499 202.681 132.887 198.031 131.523 193.939H147.519C148.759 197.659 150.092 201.689 151.518 206.029C153.006 210.307 154.494 214.585 155.982 218.863C157.532 223.141 159.02 227.233 160.446 231.139C161.872 235.045 163.205 238.424 164.445 241.276C165.623 238.424 166.925 235.045 168.351 231.139C169.839 227.233 171.327 223.141 172.815 218.863C174.365 214.585 175.853 210.307 177.279 206.029C178.767 201.689 180.131 197.659 181.371 193.939H196.809C195.383 198.031 193.74 202.681 191.88 207.889C190.02 213.097 187.974 218.553 185.742 224.257C183.51 229.961 181.154 235.727 178.674 241.555C176.194 247.383 173.683 252.994 171.141 258.388H157.191ZM218.076 258.388H204.219V209.47H218.076V258.388ZM219.378 195.334C219.378 197.876 218.541 199.891 216.867 201.379C215.255 202.805 213.333 203.518 211.101 203.518C208.869 203.518 206.916 202.805 205.242 201.379C203.63 199.891 202.824 197.876 202.824 195.334C202.824 192.792 203.63 190.808 205.242 189.382C206.916 187.894 208.869 187.15 211.101 187.15C213.333 187.15 215.255 187.894 216.867 189.382C218.541 190.808 219.378 192.792 219.378 195.334ZM245.145 248.437C247.687 248.437 249.485 248.189 250.539 247.693C251.593 247.197 252.12 246.236 252.12 244.81C252.12 243.694 251.438 242.733 250.074 241.927C248.71 241.059 246.633 240.098 243.843 239.044C241.673 238.238 239.689 237.401 237.891 236.533C236.155 235.665 234.667 234.642 233.427 233.464C232.187 232.224 231.226 230.767 230.544 229.093C229.862 227.419 229.521 225.404 229.521 223.048C229.521 218.46 231.226 214.833 234.636 212.167C238.046 209.501 242.727 208.168 248.679 208.168C251.655 208.168 254.507 208.447 257.235 209.005C259.963 209.501 262.133 210.059 263.745 210.679L261.327 221.467C259.715 220.909 257.948 220.413 256.026 219.979C254.166 219.545 252.058 219.328 249.702 219.328C245.362 219.328 243.192 220.537 243.192 222.955C243.192 223.513 243.285 224.009 243.471 224.443C243.657 224.877 244.029 225.311 244.587 225.745C245.145 226.117 245.889 226.551 246.819 227.047C247.811 227.481 249.051 227.977 250.539 228.535C253.577 229.651 256.088 230.767 258.072 231.883C260.056 232.937 261.606 234.115 262.722 235.417C263.9 236.657 264.706 238.052 265.14 239.602C265.636 241.152 265.884 242.95 265.884 244.996C265.884 249.832 264.055 253.49 260.397 255.97C256.801 258.45 251.686 259.69 245.052 259.69C240.712 259.69 237.085 259.318 234.171 258.574C231.319 257.83 229.335 257.21 228.219 256.714L230.544 245.461C232.9 246.391 235.318 247.135 237.798 247.693C240.278 248.189 242.727 248.437 245.145 248.437ZM290.097 258.388H276.24V209.47H290.097V258.388ZM291.399 195.334C291.399 197.876 290.562 199.891 288.888 201.379C287.276 202.805 285.354 203.518 283.122 203.518C280.89 203.518 278.937 202.805 277.263 201.379C275.651 199.891 274.845 197.876 274.845 195.334C274.845 192.792 275.651 190.808 277.263 189.382C278.937 187.894 280.89 187.15 283.122 187.15C285.354 187.15 287.276 187.894 288.888 189.382C290.562 190.808 291.399 192.792 291.399 195.334ZM322.21 241.276C322.21 238.92 322.551 236.781 323.233 234.859C323.915 232.875 324.814 231.108 325.93 229.558C327.108 227.946 328.441 226.551 329.929 225.373C331.479 224.133 333.091 223.048 334.765 222.118C333.277 220.32 331.944 218.398 330.766 216.352C329.588 214.244 328.999 211.95 328.999 209.47C328.999 204.014 330.642 199.829 333.928 196.915C337.214 193.939 341.74 192.451 347.506 192.451C350.42 192.451 352.962 192.854 355.132 193.66C357.302 194.404 359.1 195.458 360.526 196.822C362.014 198.124 363.13 199.674 363.874 201.472C364.618 203.208 364.99 205.099 364.99 207.145C364.99 210.927 363.905 214.306 361.735 217.282C359.627 220.196 356.93 222.645 353.644 224.629L364.06 235.045C364.618 233.805 365.145 232.255 365.641 230.395C366.199 228.473 366.54 226.799 366.664 225.373L378.196 226.861C378.072 228.039 377.855 229.341 377.545 230.767C377.235 232.131 376.832 233.526 376.336 234.952C375.902 236.378 375.375 237.804 374.755 239.23C374.197 240.656 373.577 241.958 372.895 243.136C374.879 245.368 376.801 247.817 378.661 250.483C380.583 253.087 382.226 255.722 383.59 258.388H369.361C368.865 257.582 368.183 256.59 367.315 255.412C366.447 254.172 365.579 253.118 364.711 252.25C362.231 254.234 359.348 255.908 356.062 257.272C352.776 258.574 349.087 259.225 344.995 259.225C340.655 259.225 337.028 258.698 334.114 257.644C331.2 256.528 328.844 255.133 327.046 253.459C325.31 251.723 324.07 249.801 323.326 247.693C322.582 245.523 322.21 243.384 322.21 241.276ZM335.137 239.881C335.137 240.811 335.323 241.772 335.695 242.764C336.067 243.756 336.656 244.686 337.462 245.554C338.33 246.36 339.415 247.042 340.717 247.6C342.019 248.096 343.6 248.344 345.46 248.344C348.064 248.344 350.327 248.003 352.249 247.321C354.233 246.639 355.876 245.74 357.178 244.624L342.298 229.651C341.43 230.085 340.562 230.612 339.694 231.232C338.888 231.852 338.144 232.596 337.462 233.464C336.78 234.27 336.222 235.2 335.788 236.254C335.354 237.308 335.137 238.517 335.137 239.881ZM353.179 207.796C353.179 206.37 352.714 205.099 351.784 203.983C350.854 202.867 349.304 202.309 347.134 202.309C345.15 202.309 343.6 202.929 342.484 204.169C341.43 205.347 340.903 206.897 340.903 208.819C340.903 210.431 341.368 212.012 342.298 213.562C343.228 215.05 344.437 216.476 345.925 217.84C347.909 216.724 349.614 215.391 351.04 213.841C352.466 212.291 353.179 210.276 353.179 207.796ZM431.421 193.939C432.537 195.985 433.808 198.527 435.234 201.565C436.722 204.541 438.241 207.796 439.791 211.33C441.403 214.802 442.984 218.367 444.534 222.025C446.084 225.683 447.541 229.124 448.905 232.348C450.269 229.124 451.726 225.683 453.276 222.025C454.826 218.367 456.376 214.802 457.926 211.33C459.538 207.796 461.057 204.541 462.483 201.565C463.971 198.527 465.273 195.985 466.389 193.939H479.595C480.215 198.217 480.773 203.022 481.269 208.354C481.827 213.624 482.292 219.142 482.664 224.908C483.098 230.612 483.47 236.347 483.78 242.113C484.152 247.879 484.462 253.304 484.71 258.388H470.574C470.388 252.126 470.14 245.306 469.83 237.928C469.52 230.55 469.055 223.11 468.435 215.608C467.319 218.212 466.079 221.095 464.715 224.257C463.351 227.419 461.987 230.581 460.623 233.743C459.321 236.905 458.05 239.943 456.81 242.857C455.57 245.709 454.516 248.158 453.648 250.204H443.511C442.643 248.158 441.589 245.709 440.349 242.857C439.109 239.943 437.807 236.905 436.443 233.743C435.141 230.581 433.808 227.419 432.444 224.257C431.08 221.095 429.84 218.212 428.724 215.608C428.104 223.11 427.639 230.55 427.329 237.928C427.019 245.306 426.771 252.126 426.585 258.388H412.449C412.697 253.304 412.976 247.879 413.286 242.113C413.658 236.347 414.03 230.612 414.402 224.908C414.836 219.142 415.301 213.624 415.797 208.354C416.355 203.022 416.944 198.217 417.564 193.939H431.421ZM510.7 258.388H496.843V209.47H510.7V258.388ZM512.002 195.334C512.002 197.876 511.165 199.891 509.491 201.379C507.879 202.805 505.957 203.518 503.725 203.518C501.493 203.518 499.54 202.805 497.866 201.379C496.254 199.891 495.448 197.876 495.448 195.334C495.448 192.792 496.254 190.808 497.866 189.382C499.54 187.894 501.493 187.15 503.725 187.15C505.957 187.15 507.879 187.894 509.491 189.382C511.165 190.808 512.002 192.792 512.002 195.334ZM537.768 248.437C540.31 248.437 542.108 248.189 543.162 247.693C544.216 247.197 544.743 246.236 544.743 244.81C544.743 243.694 544.061 242.733 542.697 241.927C541.333 241.059 539.256 240.098 536.466 239.044C534.296 238.238 532.312 237.401 530.514 236.533C528.778 235.665 527.29 234.642 526.05 233.464C524.81 232.224 523.849 230.767 523.167 229.093C522.485 227.419 522.144 225.404 522.144 223.048C522.144 218.46 523.849 214.833 527.259 212.167C530.669 209.501 535.35 208.168 541.302 208.168C544.278 208.168 547.13 208.447 549.858 209.005C552.586 209.501 554.756 210.059 556.368 210.679L553.95 221.467C552.338 220.909 550.571 220.413 548.649 219.979C546.789 219.545 544.681 219.328 542.325 219.328C537.985 219.328 535.815 220.537 535.815 222.955C535.815 223.513 535.908 224.009 536.094 224.443C536.28 224.877 536.652 225.311 537.21 225.745C537.768 226.117 538.512 226.551 539.442 227.047C540.434 227.481 541.674 227.977 543.162 228.535C546.2 229.651 548.711 230.767 550.695 231.883C552.679 232.937 554.229 234.115 555.345 235.417C556.523 236.657 557.329 238.052 557.763 239.602C558.259 241.152 558.507 242.95 558.507 244.996C558.507 249.832 556.678 253.49 553.02 255.97C549.424 258.45 544.309 259.69 537.675 259.69C533.335 259.69 529.708 259.318 526.794 258.574C523.942 257.83 521.958 257.21 520.842 256.714L523.167 245.461C525.523 246.391 527.941 247.135 530.421 247.693C532.901 248.189 535.35 248.437 537.768 248.437ZM582.72 258.388H568.863V209.47H582.72V258.388ZM584.022 195.334C584.022 197.876 583.185 199.891 581.511 201.379C579.899 202.805 577.977 203.518 575.745 203.518C573.513 203.518 571.56 202.805 569.886 201.379C568.274 199.891 567.468 197.876 567.468 195.334C567.468 192.792 568.274 190.808 569.886 189.382C571.56 187.894 573.513 187.15 575.745 187.15C577.977 187.15 579.899 187.894 581.511 189.382C583.185 190.808 584.022 192.792 584.022 195.334Z" fill="white"/>
<path d="M1620.25 77.7563C1620.25 116.784 1581.07 148.677 1532.39 148.677C1483.72 148.677 1444.54 116.784 1444.54 77.7563C1444.54 38.7285 1483.72 6.83527 1532.39 6.83527C1581.07 6.83527 1620.25 38.7285 1620.25 77.7563Z" stroke="url(#paint32_linear_2896_6091)" stroke-opacity="0.1" stroke-width="1.5"/>
<path d="M1592.99 79.3317C1592.99 106.18 1566.02 128.2 1532.39 128.2C1498.77 128.2 1471.8 106.18 1471.8 79.3317C1471.8 52.4832 1498.77 30.4633 1532.39 30.4633C1566.02 30.4633 1592.99 52.4832 1592.99 79.3317Z" stroke="url(#paint33_linear_2896_6091)" stroke-opacity="0.1" stroke-width="1.5"/>
<path d="M1565.72 78.0189C1565.72 92.5431 1551.1 104.572 1532.72 104.572C1514.33 104.572 1499.71 92.5431 1499.71 78.0189C1499.71 63.4947 1514.33 51.4656 1532.72 51.4656C1551.1 51.4656 1565.72 63.4947 1565.72 78.0189Z" stroke="url(#paint34_linear_2896_6091)" stroke-opacity="0.1" stroke-width="1.5"/>
<path d="M18.7937 232.544C28.5486 218.062 49.8453 211.772 66.3736 218.535C82.902 225.299 88.3529 242.534 78.5981 257.016C68.8432 271.498 47.5465 277.788 31.0181 271.025C14.4898 264.262 9.03884 247.027 18.7937 232.544Z" stroke="url(#paint35_linear_2896_6091)" stroke-opacity="0.1" stroke-width="1.5"/>
<path d="M28.5766 235.829C35.256 225.913 49.8444 221.599 61.1731 226.235C72.5019 230.871 76.2308 242.679 69.5514 252.596C62.872 262.512 48.2836 266.826 36.9548 262.19C25.6261 257.554 21.8971 245.745 28.5766 235.829Z" stroke="url(#paint36_linear_2896_6091)" stroke-opacity="0.1" stroke-width="1.5"/>
<path d="M37.6799 240.151C41.2472 234.855 49.0475 232.541 55.1147 235.024C61.1819 237.507 63.1684 243.825 59.6011 249.121C56.0337 254.417 48.2335 256.73 42.1662 254.248C36.099 251.765 34.1125 245.447 37.6799 240.151Z" stroke="url(#paint37_linear_2896_6091)" stroke-opacity="0.1" stroke-width="1.5"/>
<defs>
<linearGradient id="paint0_linear_2896_6091" x1="1501.87" y1="238.941" x2="1520.88" y2="223.336" gradientUnits="userSpaceOnUse">
<stop stop-color="white"/>
<stop offset="1" stop-color="white" stop-opacity="0"/>
</linearGradient>
<linearGradient id="paint1_linear_2896_6091" x1="1505.55" y1="237.027" x2="1518.72" y2="226.224" gradientUnits="userSpaceOnUse">
<stop stop-color="white"/>
<stop offset="1" stop-color="white" stop-opacity="0"/>
</linearGradient>
<linearGradient id="paint2_linear_2896_6091" x1="1508.79" y1="235.304" x2="1516.04" y2="229.359" gradientUnits="userSpaceOnUse">
<stop stop-color="white"/>
<stop offset="1" stop-color="white" stop-opacity="0"/>
</linearGradient>
<linearGradient id="paint3_linear_2896_6091" x1="903.381" y1="17.5797" x2="903.381" y2="39.8924" gradientUnits="userSpaceOnUse">
<stop stop-color="white"/>
<stop offset="1" stop-color="white" stop-opacity="0"/>
</linearGradient>
<linearGradient id="paint4_linear_2896_6091" x1="903.381" y1="21.2576" x2="903.381" y2="36.7049" gradientUnits="userSpaceOnUse">
<stop stop-color="white"/>
<stop offset="1" stop-color="white" stop-opacity="0"/>
</linearGradient>
<linearGradient id="paint5_linear_2896_6091" x1="903.432" y1="24.5269" x2="903.432" y2="33.027" gradientUnits="userSpaceOnUse">
<stop stop-color="white"/>
<stop offset="1" stop-color="white" stop-opacity="0"/>
</linearGradient>
<linearGradient id="paint6_linear_2896_6091" x1="718.648" y1="159.57" x2="718.648" y2="181.882" gradientUnits="userSpaceOnUse">
<stop stop-color="white"/>
<stop offset="1" stop-color="white" stop-opacity="0"/>
</linearGradient>
<linearGradient id="paint7_linear_2896_6091" x1="718.648" y1="163.247" x2="718.648" y2="178.695" gradientUnits="userSpaceOnUse">
<stop stop-color="white"/>
<stop offset="1" stop-color="white" stop-opacity="0"/>
</linearGradient>
<linearGradient id="paint8_linear_2896_6091" x1="718.699" y1="166.517" x2="718.699" y2="175.017" gradientUnits="userSpaceOnUse">
<stop stop-color="white"/>
<stop offset="1" stop-color="white" stop-opacity="0"/>
</linearGradient>
<linearGradient id="paint9_linear_2896_6091" x1="60.7962" y1="25.6934" x2="60.7962" y2="48.0061" gradientUnits="userSpaceOnUse">
<stop stop-color="white"/>
<stop offset="1" stop-color="white" stop-opacity="0"/>
</linearGradient>
<linearGradient id="paint10_linear_2896_6091" x1="60.7961" y1="29.3713" x2="60.7961" y2="44.8186" gradientUnits="userSpaceOnUse">
<stop stop-color="white"/>
<stop offset="1" stop-color="white" stop-opacity="0"/>
</linearGradient>
<linearGradient id="paint11_linear_2896_6091" x1="60.8465" y1="32.6406" x2="60.8465" y2="41.1407" gradientUnits="userSpaceOnUse">
<stop stop-color="white"/>
<stop offset="1" stop-color="white" stop-opacity="0"/>
</linearGradient>
<linearGradient id="paint12_linear_2896_6091" x1="576.791" y1="38.068" x2="493.579" y2="40.2424" gradientUnits="userSpaceOnUse">
<stop stop-color="white"/>
<stop offset="1" stop-color="white" stop-opacity="0"/>
</linearGradient>
<linearGradient id="paint13_linear_2896_6091" x1="563.066" y1="38.2262" x2="505.457" y2="39.7315" gradientUnits="userSpaceOnUse">
<stop stop-color="white"/>
<stop offset="1" stop-color="white" stop-opacity="0"/>
</linearGradient>
<linearGradient id="paint14_linear_2896_6091" x1="550.875" y1="38.4863" x2="519.175" y2="39.3147" gradientUnits="userSpaceOnUse">
<stop stop-color="white"/>
<stop offset="1" stop-color="white" stop-opacity="0"/>
</linearGradient>
<linearGradient id="paint15_linear_2896_6091" x1="1093.69" y1="140.568" x2="1089.91" y2="168.753" gradientUnits="userSpaceOnUse">
<stop stop-color="white"/>
<stop offset="1" stop-color="white" stop-opacity="0"/>
</linearGradient>
<linearGradient id="paint16_linear_2896_6091" x1="1092.48" y1="145.124" x2="1089.86" y2="164.637" gradientUnits="userSpaceOnUse">
<stop stop-color="white"/>
<stop offset="1" stop-color="white" stop-opacity="0"/>
</linearGradient>
<linearGradient id="paint17_linear_2896_6091" x1="1091.44" y1="149.199" x2="1090" y2="159.936" gradientUnits="userSpaceOnUse">
<stop stop-color="white"/>
<stop offset="1" stop-color="white" stop-opacity="0"/>
</linearGradient>
<linearGradient id="paint18_linear_2896_6091" x1="1341.13" y1="45.0096" x2="1356.79" y2="55.3627" gradientUnits="userSpaceOnUse">
<stop stop-color="white"/>
<stop offset="1" stop-color="white" stop-opacity="0"/>
</linearGradient>
<linearGradient id="paint19_linear_2896_6091" x1="1344.07" y1="46.1898" x2="1354.91" y2="53.3573" gradientUnits="userSpaceOnUse">
<stop stop-color="white"/>
<stop offset="1" stop-color="white" stop-opacity="0"/>
</linearGradient>
<linearGradient id="paint20_linear_2896_6091" x1="1346.69" y1="47.1997" x2="1352.66" y2="51.1437" gradientUnits="userSpaceOnUse">
<stop stop-color="white"/>
<stop offset="1" stop-color="white" stop-opacity="0"/>
</linearGradient>
<linearGradient id="paint21_linear_2896_6091" x1="444.211" y1="65.97" x2="459.872" y2="76.3231" gradientUnits="userSpaceOnUse">
<stop stop-color="white"/>
<stop offset="1" stop-color="white" stop-opacity="0"/>
</linearGradient>
<linearGradient id="paint22_linear_2896_6091" x1="447.154" y1="67.1502" x2="457.996" y2="74.3177" gradientUnits="userSpaceOnUse">
<stop stop-color="white"/>
<stop offset="1" stop-color="white" stop-opacity="0"/>
</linearGradient>
<linearGradient id="paint23_linear_2896_6091" x1="449.772" y1="68.1601" x2="455.738" y2="72.1041" gradientUnits="userSpaceOnUse">
<stop stop-color="white"/>
<stop offset="1" stop-color="white" stop-opacity="0"/>
</linearGradient>
<linearGradient id="paint24_linear_2896_6091" x1="674.345" y1="229.888" x2="674.345" y2="252.201" gradientUnits="userSpaceOnUse">
<stop stop-color="white"/>
<stop offset="1" stop-color="white" stop-opacity="0"/>
</linearGradient>
<linearGradient id="paint25_linear_2896_6091" x1="674.345" y1="233.566" x2="674.345" y2="249.013" gradientUnits="userSpaceOnUse">
<stop stop-color="white"/>
<stop offset="1" stop-color="white" stop-opacity="0"/>
</linearGradient>
<linearGradient id="paint26_linear_2896_6091" x1="674.395" y1="236.836" x2="674.395" y2="245.336" gradientUnits="userSpaceOnUse">
<stop stop-color="white"/>
<stop offset="1" stop-color="white" stop-opacity="0"/>
</linearGradient>
<linearGradient id="paint27_linear_2896_6091" x1="882.922" y1="168.691" x2="870.837" y2="315.001" gradientUnits="userSpaceOnUse">
<stop stop-color="white"/>
<stop offset="1" stop-color="white" stop-opacity="0"/>
</linearGradient>
<linearGradient id="paint28_linear_2896_6091" x1="878.794" y1="192.596" x2="870.427" y2="293.887" gradientUnits="userSpaceOnUse">
<stop stop-color="white"/>
<stop offset="1" stop-color="white" stop-opacity="0"/>
</linearGradient>
<linearGradient id="paint29_linear_2896_6091" x1="875.367" y1="213.931" x2="870.763" y2="269.668" gradientUnits="userSpaceOnUse">
<stop stop-color="white"/>
<stop offset="1" stop-color="white" stop-opacity="0"/>
</linearGradient>
<linearGradient id="paint30_linear_2896_6091" x1="1601.86" y1="-337" x2="1607.37" y2="538.189" gradientUnits="userSpaceOnUse">
<stop stop-color="white" stop-opacity="0.8"/>
<stop offset="1" stop-color="white" stop-opacity="0"/>
</linearGradient>
<linearGradient id="paint31_linear_2896_6091" x1="1036.52" y1="-287.5" x2="1038.69" y2="402.037" gradientUnits="userSpaceOnUse">
<stop stop-color="white"/>
<stop offset="1" stop-color="white" stop-opacity="0"/>
</linearGradient>
<linearGradient id="paint32_linear_2896_6091" x1="1532.39" y1="6.08527" x2="1532.39" y2="149.427" gradientUnits="userSpaceOnUse">
<stop stop-color="white"/>
<stop offset="1" stop-color="white" stop-opacity="0"/>
</linearGradient>
<linearGradient id="paint33_linear_2896_6091" x1="1532.39" y1="29.7133" x2="1532.39" y2="128.95" gradientUnits="userSpaceOnUse">
<stop stop-color="white"/>
<stop offset="1" stop-color="white" stop-opacity="0"/>
</linearGradient>
<linearGradient id="paint34_linear_2896_6091" x1="1532.72" y1="50.7156" x2="1532.72" y2="105.322" gradientUnits="userSpaceOnUse">
<stop stop-color="white"/>
<stop offset="1" stop-color="white" stop-opacity="0"/>
</linearGradient>
<linearGradient id="paint35_linear_2896_6091" x1="30.5979" y1="271.649" x2="54.6245" y2="212.932" gradientUnits="userSpaceOnUse">
<stop stop-color="white"/>
<stop offset="1" stop-color="white" stop-opacity="0"/>
</linearGradient>
<linearGradient id="paint36_linear_2896_6091" x1="36.5346" y1="262.814" x2="53.1684" y2="222.164" gradientUnits="userSpaceOnUse">
<stop stop-color="white"/>
<stop offset="1" stop-color="white" stop-opacity="0"/>
</linearGradient>
<linearGradient id="paint37_linear_2896_6091" x1="41.746" y1="254.872" x2="50.899" y2="232.503" gradientUnits="userSpaceOnUse">
<stop stop-color="white"/>
<stop offset="1" stop-color="white" stop-opacity="0"/>
</linearGradient>
</defs>
</svg>
