<svg width="25" height="17" viewBox="0 0 25 17" fill="none" xmlns="http://www.w3.org/2000/svg">
<path d="M12.0547 13.3068C13.3638 13.3068 14.4774 12.8477 15.3955 11.9296C16.3137 11.0114 16.7727 9.89782 16.7727 8.58871C16.7727 7.27959 16.3137 6.16597 15.3955 5.24784C14.4774 4.32928 13.3638 3.87 12.0547 3.87C10.7456 3.87 9.63195 4.32928 8.71383 5.24784C7.7957 6.16597 7.33664 7.27959 7.33664 8.58871C7.33664 9.89782 7.7957 11.0114 8.71383 11.9296C9.63195 12.8477 10.7456 13.3068 12.0547 13.3068ZM12.0547 11.616C11.2182 11.616 10.5045 11.3206 9.91363 10.7298C9.32278 10.1385 9.02736 9.42479 9.02736 8.58871C9.02736 7.75218 9.32278 7.0385 9.91363 6.44765C10.5045 5.8568 11.2182 5.56138 12.0547 5.56138C12.8912 5.56138 13.6049 5.8568 14.1957 6.44765C14.7866 7.0385 15.082 7.75218 15.082 8.58871C15.082 9.42479 14.7866 10.1385 14.1957 10.7298C13.6049 11.3206 12.8912 11.616 12.0547 11.616ZM12.0547 16.7707C9.40024 16.7707 6.99561 16.0205 4.84081 14.5203C2.68644 13.0205 1.09107 11.0433 0.0546875 8.58871C1.09107 6.13412 2.68644 4.1567 4.84081 2.65645C6.99561 1.15664 9.40024 0.406738 12.0547 0.406738C14.7091 0.406738 17.1138 1.15664 19.2686 2.65645C21.4229 4.1567 23.0183 6.13412 24.0547 8.58871C23.0183 11.0433 21.4229 13.0205 19.2686 14.5203C17.1138 16.0205 14.7091 16.7707 12.0547 16.7707ZM12.0547 14.9431C14.2003 14.9431 16.1775 14.3658 17.9863 13.2112C19.7955 12.0566 21.1729 10.5157 22.1185 8.58871C21.1729 6.66125 19.8001 5.12021 18 3.96557C16.2 2.81093 14.2182 2.23361 12.0547 2.23361C9.90905 2.23361 7.93185 2.81093 6.12309 3.96557C4.31389 5.12021 2.93649 6.66125 1.99087 8.58871C2.93649 10.5157 4.30931 12.0566 6.10934 13.2112C7.90938 14.3658 9.89116 14.9431 12.0547 14.9431Z" fill="#FCFCFC"/>
</svg>
