<svg width="249" height="225" viewBox="0 0 249 225" fill="none" xmlns="http://www.w3.org/2000/svg">
<g clip-path="url(#clip0_430_749)">
<g clip-path="url(#clip1_430_749)">
<path d="M135.651 21.6066C131.886 27.8026 138.975 38.2425 131.83 40.4104L132.419 39.8481C136.731 34.7802 127.718 24.0539 132.03 18.986C132.7 18.2427 133.275 17.4258 133.744 16.5527" fill="#2F2E41"/>
<path d="M170.907 112.507C171.031 111.887 171.011 111.248 170.848 110.637C170.685 110.025 170.384 109.455 169.966 108.966C169.547 108.478 169.022 108.083 168.427 107.809C167.831 107.536 167.18 107.39 166.52 107.383L157.214 81.5537L152.063 87.8262L161.902 111.961C161.963 113.022 162.429 114.025 163.212 114.779C163.995 115.534 165.041 115.988 166.151 116.055C167.261 116.122 168.358 115.798 169.235 115.144C170.112 114.49 170.707 113.552 170.907 112.507L170.907 112.507Z" fill="#FFB8B8"/>
<path d="M130.002 50.1445C130.002 50.1445 129.712 40.7946 138.464 46.1507C147.216 51.5069 166.27 101.681 166.27 101.681L156.788 106.582L135.262 60.6673L130.002 50.1445Z" fill="#DB2828"/>
<path d="M155.822 210.395L151.451 212.179L142.169 196.924L148.619 194.291L155.822 210.395Z" fill="#FFB6B6"/>
<path d="M161.364 216.687L158.23 217.966L156.406 215.368L156.238 218.78L147.925 222.173C147.527 222.336 147.085 222.372 146.663 222.278C146.241 222.183 145.862 221.962 145.581 221.647C145.3 221.332 145.131 220.94 145.1 220.527C145.069 220.114 145.177 219.703 145.408 219.352L150.087 212.263L148.809 209.405L155.969 206.953L161.364 216.687Z" fill="#2F2E41"/>
<path d="M87.3153 215.569L82.5688 215.348L81.2043 197.751L88.2104 198.078L87.3153 215.569Z" fill="#FFB6B6"/>
<path d="M89.4188 223.543L86.0147 223.384L85.5642 220.286L83.851 223.283L74.8226 222.862C74.3898 222.842 73.9752 222.69 73.6391 222.428C73.3031 222.167 73.0632 221.81 72.9546 221.409C72.846 221.009 72.8744 220.585 73.0355 220.201C73.1966 219.817 73.4821 219.492 73.8502 219.273L81.3033 214.853L81.4621 211.749L89.0234 212.536L89.4188 223.543Z" fill="#2F2E41"/>
<path d="M99.3063 101.183C99.3063 101.183 89.6535 126.315 89.4976 129.127C89.3416 131.94 86.5887 167.504 84.28 169.571C81.9712 171.637 74.9128 203.674 80.405 206.18C85.8971 208.686 103.225 204.534 103.225 204.534L109.252 166.691L111.3 137.699C111.3 137.699 117.534 205.971 128.841 205.77C140.148 205.569 153.926 201.456 153.926 201.456L138.1 160.11C138.1 160.11 138.324 111.161 134.656 101.288C130.987 91.4156 99.3063 101.183 99.3063 101.183Z" fill="#2F2E41"/>
<path d="M127.949 36.4341L115.022 37.5653L112.939 43.6728C112.939 43.6728 102.121 49.3489 104.516 51.9275C106.912 54.5062 103.981 71.8842 103.981 71.8842L104.643 85.9902C104.643 85.9902 103.932 95.7631 101.803 98.0149C99.675 100.267 94.1071 105.788 98.0413 103.146C111.836 93.8841 135.947 101.7 135.947 101.7L132.503 81.544C132.503 81.544 140.326 48.5444 137.239 45.7575C134.151 42.9705 131.238 42.6183 131.238 42.6183L127.949 36.4341Z" fill="#DB2828"/>
<path d="M60.0221 100.368C60.6716 100.252 61.2866 100.002 61.8239 99.6348C62.3613 99.2676 62.8078 98.7923 63.132 98.2424C63.4563 97.6926 63.6504 97.0814 63.7007 96.4521C63.7509 95.8228 63.6562 95.1906 63.4231 94.6001L85.2264 76.928L77.2375 74.624L57.2806 92.1546C56.2681 92.5945 55.4597 93.3739 55.0086 94.3452C54.5574 95.3164 54.4949 96.4121 54.8328 97.4245C55.1708 98.4368 55.8857 99.2956 56.8421 99.8381C57.7985 100.381 58.93 100.569 60.0221 100.368V100.368Z" fill="#FFB8B8"/>
<path d="M115.394 54.1426C115.394 54.1426 119.69 45.737 109.406 47.1728C99.1219 48.6087 60.1222 86.827 60.1222 86.827L66.6488 95.0252L106.064 61.6607L115.394 54.1426Z" fill="#6C63FF"/>
<path d="M98.6469 39.8849L57.8718 89.791C57.1664 90.6572 56.8492 91.7552 56.9897 92.8444C57.1302 93.9336 57.717 94.9251 58.6214 95.6018C68.0904 117.567 96.4191 133.855 129.744 148.639C130.65 149.314 131.8 149.617 132.94 149.483C134.08 149.349 135.118 148.788 135.826 147.923L176.601 98.0168C177.307 97.1509 177.625 96.0527 177.484 94.9633C177.344 93.8738 176.757 92.8822 175.852 92.206C147.886 77.1198 123.849 59.641 104.729 39.1687C103.823 38.4949 102.673 38.1918 101.533 38.3261C100.393 38.4603 99.3551 39.0209 98.6469 39.8849V39.8849Z" fill="#E6E6E6"/>
<path d="M173.739 96.8816L161.328 112.073C153.746 121.296 142.652 127.279 130.469 128.713C118.285 130.148 106.002 126.918 96.3035 119.728L61.5209 93.7903C61.0056 93.406 60.671 92.842 60.5904 92.2222C60.5098 91.6024 60.6898 90.9774 61.091 90.4842L100.492 42.2598C100.895 41.7683 101.486 41.4497 102.135 41.3739C102.784 41.2981 103.438 41.4713 103.953 41.8555C121.548 63.5615 145.101 80.453 173.313 93.5783C173.828 93.9628 174.161 94.5265 174.241 95.1458C174.321 95.765 174.141 96.3893 173.739 96.8816Z" fill="white"/>
<path d="M97.8334 67.1287L89.7503 77.0219C89.5358 77.2839 89.2212 77.4539 88.8756 77.4944C88.53 77.535 88.1817 77.4428 87.9072 77.2381C87.6327 77.0334 87.4545 76.733 87.4118 76.4028C87.3691 76.0727 87.4652 75.7398 87.6792 75.4774L95.7623 65.5843C95.8684 65.4542 96.0003 65.3453 96.1504 65.264C96.3006 65.1826 96.466 65.1303 96.6373 65.1101C96.8086 65.0898 96.9824 65.102 97.1488 65.146C97.3152 65.19 97.4708 65.2648 97.6069 65.3663C97.743 65.4678 97.8568 65.5938 97.9418 65.7374C98.0268 65.8809 98.0814 66.039 98.1025 66.2027C98.1235 66.3663 98.1106 66.5324 98.0644 66.6913C98.0182 66.8502 97.9397 66.9988 97.8334 67.1287H97.8334Z" fill="#CCCCCC"/>
<path d="M112.995 59.7906L95.2438 81.5168C95.1376 81.6467 95.0057 81.7554 94.8556 81.8366C94.7055 81.9178 94.5401 81.97 94.3689 81.9902C94.1977 82.0103 94.024 81.9981 93.8577 81.9541C93.6915 81.9101 93.5359 81.8353 93.3999 81.7339C93.2639 81.6325 93.1502 81.5065 93.0652 81.3631C92.9801 81.2197 92.9255 81.0617 92.9044 80.8981C92.8833 80.7345 92.8962 80.5686 92.9422 80.4097C92.9882 80.2509 93.0665 80.1023 93.1727 79.9724L110.924 58.2462C111.03 58.116 111.162 58.007 111.312 57.9255C111.462 57.844 111.627 57.7916 111.799 57.7713C111.97 57.751 112.144 57.7631 112.311 57.8071C112.477 57.851 112.633 57.9259 112.769 58.0274C112.905 58.1289 113.019 58.2551 113.104 58.3987C113.189 58.5423 113.244 58.7005 113.265 58.8643C113.286 59.028 113.273 59.1942 113.226 59.3531C113.18 59.5121 113.101 59.6607 112.995 59.7906H112.995Z" fill="#CCCCCC"/>
<path d="M82.7199 96.0295C87.4985 96.0295 91.3724 92.3286 91.3724 87.7633C91.3724 83.198 87.4985 79.4971 82.7199 79.4971C77.9412 79.4971 74.0674 83.198 74.0674 87.7633C74.0674 92.3286 77.9412 96.0295 82.7199 96.0295Z" fill="#DB2828"/>
<path d="M113.937 76.9616L92.1354 103.646C91.9079 103.867 91.6031 104.001 91.2791 104.021C90.955 104.042 90.6345 103.947 90.3785 103.756C90.1225 103.566 89.949 103.291 89.8911 102.986C89.8332 102.681 89.8948 102.366 90.0643 102.101L111.866 75.4172C112.094 75.1958 112.399 75.0622 112.723 75.0418C113.047 75.0214 113.367 75.1156 113.623 75.3065C113.879 75.4974 114.053 75.7716 114.111 76.0768C114.168 76.3821 114.107 76.697 113.937 76.9616Z" fill="#CCCCCC"/>
<path d="M128.081 70.8689L97.6506 108.113C97.4231 108.335 97.1182 108.468 96.7942 108.489C96.4702 108.509 96.1496 108.415 95.8936 108.224C95.6377 108.033 95.4642 107.759 95.4062 107.454C95.3483 107.148 95.41 106.834 95.5795 106.569L126.01 69.3244C126.237 69.1031 126.542 68.9694 126.866 68.949C127.19 68.9286 127.51 69.0228 127.766 69.2137C128.022 69.4046 128.196 69.6788 128.254 69.9841C128.312 70.2893 128.25 70.6043 128.081 70.8689V70.8689Z" fill="#CCCCCC"/>
<path d="M127.975 87.4294L106.173 114.113C105.946 114.335 105.641 114.468 105.317 114.489C104.993 114.509 104.672 114.415 104.416 114.224C104.16 114.033 103.987 113.759 103.929 113.454C103.871 113.149 103.933 112.834 104.102 112.569L125.904 85.8849C126.131 85.6636 126.436 85.53 126.76 85.5096C127.084 85.4892 127.405 85.5834 127.661 85.7743C127.917 85.9651 128.09 86.2394 128.148 86.5446C128.206 86.8498 128.145 87.1648 127.975 87.4294Z" fill="#CCCCCC"/>
<path d="M156.823 90.7204L135.021 117.405C134.793 117.626 134.488 117.759 134.164 117.78C133.84 117.8 133.52 117.706 133.264 117.515C133.008 117.324 132.834 117.05 132.776 116.745C132.718 116.44 132.78 116.125 132.95 115.86L154.751 89.176C154.979 88.9546 155.284 88.821 155.608 88.8006C155.932 88.7802 156.252 88.8744 156.508 89.0653C156.764 89.2562 156.938 89.5304 156.996 89.8356C157.054 90.1409 156.992 90.4558 156.823 90.7204Z" fill="#DB2828"/>
<path d="M142.118 81.3371L111.688 118.582C111.461 118.803 111.156 118.937 110.832 118.957C110.508 118.977 110.187 118.883 109.931 118.692C109.675 118.501 109.502 118.227 109.444 117.922C109.386 117.617 109.448 117.302 109.617 117.037L140.047 79.7927C140.275 79.5713 140.58 79.4377 140.904 79.4173C141.228 79.3969 141.548 79.4911 141.804 79.682C142.06 79.8729 142.234 80.1471 142.292 80.4523C142.35 80.7576 142.288 81.0725 142.118 81.3371V81.3371Z" fill="#CCCCCC"/>
<path d="M106.276 20.6672C106.275 22.6752 106.79 24.6527 107.776 26.4261C108.762 28.1995 110.189 29.7146 111.931 30.8383C113.673 31.962 115.677 32.6601 117.767 32.8711C119.857 33.0822 121.969 32.7999 123.919 32.0489C125.868 31.2979 127.595 30.1012 128.947 28.5639C130.299 27.0267 131.236 25.1958 131.674 23.232C132.113 21.2682 132.04 19.2315 131.463 17.3008C130.885 15.3701 129.82 13.6043 128.362 12.1586L128.3 12.0998C128.197 11.9967 128.095 11.8936 127.987 11.7955C127.986 11.7955 127.985 11.7954 127.985 11.7951C127.984 11.7949 127.984 11.7945 127.983 11.7941C127.983 11.7936 127.982 11.7931 127.982 11.7925C127.982 11.7919 127.982 11.7912 127.982 11.7906C127.848 11.6728 127.715 11.555 127.576 11.4422C125.72 9.8881 123.435 8.87783 120.995 8.53233C118.554 8.18684 116.06 8.52076 113.813 9.49412C111.565 10.4675 109.659 12.039 108.323 14.0206C106.986 16.0022 106.275 18.3098 106.276 20.6672V20.6672Z" fill="#2F2E41"/>
<path d="M122.28 33.7921C128.227 33.7921 133.047 29.1866 133.047 23.5054C133.047 17.8242 128.227 13.2188 122.28 13.2188C116.333 13.2188 111.513 17.8242 111.513 23.5054C111.513 29.1866 116.333 33.7921 122.28 33.7921Z" fill="#FFB8B8"/>
<path d="M110.801 26.2466C109.749 21.7155 111.27 16.639 114.587 13.614C116.255 12.1227 118.33 11.1112 120.573 10.6958C122.816 10.2805 125.136 10.4782 127.266 11.2661C127.537 11.3706 127.808 11.4848 128.073 11.6041L128.197 11.6598V11.6771C128.221 11.6929 128.245 11.7096 128.269 11.7265C128.319 11.7714 128.38 11.8036 128.447 11.8202C129.382 11.7969 130.311 11.9625 131.175 12.3063C132.038 12.6501 132.815 13.1642 133.456 13.8151C135.125 15.545 135.911 18.3406 135.67 21.687L135.662 21.7916L135.569 21.8472C134.305 22.6121 132.994 23.3027 131.643 23.9152C126.916 26.0386 122.601 26.432 118.453 25.1165L118.377 25.0924L116.636 22.3052C116.279 24.2275 116.47 30.6038 114.419 30.9493L110.846 26.4389L110.801 26.2466Z" fill="#2F2E41"/>
<path d="M88.1355 35.2033C91.7996 33.3965 87.0872 26.839 88.0341 23.005C88.9811 19.171 95.8001 17.9378 96.2345 14.0204C96.6689 10.103 97.6909 6.06266 100.397 3.09012C102.126 1.19066 104.673 -0.211581 107.296 0.0263375C108.184 0.106834 109.043 0.369123 109.815 0.795339C110.586 1.22155 111.253 1.80169 111.769 2.49622C112.285 3.19076 112.638 3.98337 112.805 4.82009C112.971 5.6568 112.947 6.51797 112.734 7.34492C113.48 6.33394 115.413 6.55306 115.892 7.703C116.317 8.72529 115.377 9.96358 114.272 10.054C112.825 11.7611 111.168 13.5727 108.901 13.9171C108.54 13.9963 108.165 13.9961 107.804 13.9165C107.442 13.8369 107.105 13.6799 106.817 13.4575C106.284 12.9682 106.242 11.9901 106.875 11.6245C104.026 12.7055 102.356 15.648 101.933 18.5484C101.511 21.4487 102.095 24.3833 102.481 27.2884C102.866 30.1935 103.032 33.2495 101.84 35.9473C100.431 39.1347 97.1877 41.4192 93.6482 42.1518C90.1087 42.8844 86.3393 42.1684 83.1354 40.5552C79.9316 38.9419 77.2599 36.4791 75.0774 33.718C78.8369 36.2683 84.0382 37.2238 88.1355 35.2033Z" fill="#2F2E41"/>
<path d="M117.137 22.8405C113.372 29.0365 120.461 39.4764 113.316 41.6443L113.905 41.082C118.217 36.0141 109.204 25.2878 113.516 20.2199C114.186 19.4765 114.761 18.6597 115.23 17.7866" fill="#2F2E41"/>
<path d="M111.304 26.1529C111.304 26.1529 114.494 14.7787 128.167 12.1535C128.182 12.1486 128.233 12.129 128.3 12.0996C128.341 12.075 128.393 12.0504 128.444 12.0259C128.29 11.9425 128.141 11.8689 127.987 11.7952C127.986 11.7953 127.985 11.7951 127.985 11.7949C127.984 11.7947 127.984 11.7943 127.983 11.7938C127.983 11.7934 127.982 11.7928 127.982 11.7922C127.982 11.7916 127.982 11.791 127.982 11.7903C127.848 11.6726 127.715 11.5548 127.576 11.442L127.185 11.4567C127.185 11.4567 113.467 9.3811 111.304 26.1529Z" fill="#FD6584"/>
<path d="M12 223.51C11.9998 223.575 12.0129 223.639 12.0386 223.698C12.0643 223.758 12.102 223.812 12.1496 223.857C12.1973 223.903 12.2538 223.939 12.3161 223.963C12.3783 223.988 12.4451 224 12.5124 224H320.488C320.624 224 320.754 223.948 320.85 223.857C320.946 223.765 321 223.64 321 223.51C321 223.381 320.946 223.256 320.85 223.164C320.754 223.073 320.624 223.021 320.488 223.021H12.5124C12.445 223.021 12.3783 223.033 12.3161 223.058C12.2538 223.082 12.1972 223.118 12.1496 223.164C12.102 223.209 12.0643 223.263 12.0386 223.323C12.0129 223.382 11.9998 223.446 12 223.51V223.51Z" fill="#CCCCCC"/>
</g>
</g>
<defs>
<clipPath id="clip0_430_749">
<rect width="249" height="225" fill="white"/>
</clipPath>
<clipPath id="clip1_430_749">
<rect width="309" height="224" fill="white" transform="translate(12)"/>
</clipPath>
</defs>
</svg>
