<svg width="351" height="225" viewBox="0 0 351 225" fill="none" xmlns="http://www.w3.org/2000/svg">
<g clip-path="url(#clip0_5851_4310)">
<path d="M16.4174 224.352L16.4902 223.89C16.5063 223.789 18.1632 213.676 24.3744 207.807C30.5859 201.939 39.1468 202.398 39.2324 202.403L39.6228 202.428L39.55 202.889C39.5338 202.991 37.8768 213.104 31.6657 218.972C25.4542 224.841 16.8933 224.381 16.8077 224.376L16.4174 224.352ZM24.7956 208.452C19.544 213.414 17.6531 221.527 17.2484 223.567C18.9925 223.576 25.998 223.284 31.2445 218.327C36.4904 213.371 38.3855 205.254 38.7917 203.213C37.0466 203.204 30.0418 203.496 24.7956 208.452Z" fill="#F1F1F1"/>
<path d="M27.2657 210.703C24.4204 219.518 16.9299 224.244 16.9299 224.244C16.9299 224.244 14.0528 214.677 16.8981 205.862C19.7435 197.046 27.2339 192.32 27.2339 192.32C27.2339 192.32 30.1111 201.887 27.2657 210.703Z" fill="#F1F1F1"/>
<path d="M340.697 224.376C340.611 224.381 332.05 224.841 325.839 218.972C319.628 213.104 317.971 202.991 317.955 202.889L317.882 202.428L318.272 202.403C318.358 202.398 326.919 201.939 333.13 207.807C339.341 213.676 340.998 223.789 341.014 223.89L341.087 224.352L340.697 224.376ZM318.713 203.213C319.119 205.254 321.014 213.371 326.26 218.327C331.507 223.284 338.512 223.576 340.256 223.567C339.852 221.527 337.961 213.414 332.709 208.452C327.463 203.496 320.458 203.204 318.713 203.213H318.713Z" fill="#F1F1F1"/>
<path d="M330.239 210.703C333.084 219.518 340.575 224.244 340.575 224.244C340.575 224.244 343.452 214.677 340.606 205.862C337.761 197.046 330.271 192.32 330.271 192.32C330.271 192.32 327.393 201.887 330.239 210.703Z" fill="#F1F1F1"/>
<path d="M201.176 222.244L196.202 219.725L192.789 189.728H147.343L143.643 219.602L139.193 222.279C138.98 222.407 138.809 222.618 138.708 222.877C138.607 223.136 138.582 223.429 138.637 223.708C138.691 223.987 138.823 224.235 139.009 224.413C139.196 224.59 139.427 224.687 139.665 224.687H200.766C201.01 224.687 201.247 224.586 201.436 224.4C201.625 224.214 201.754 223.955 201.802 223.667C201.851 223.38 201.815 223.081 201.701 222.821C201.587 222.562 201.401 222.358 201.176 222.244Z" fill="#E6E6E6"/>
<path d="M281.938 193.719H58.6924C57.5211 193.716 56.3987 193.154 55.5714 192.156C54.7441 191.159 54.2794 189.808 54.2794 188.399V150.534H286.351V188.399C286.351 189.808 285.886 191.159 285.059 192.156C284.232 193.154 283.109 193.716 281.938 193.719Z" fill="#CCCCCC"/>
<path d="M286.584 168.43H54.0757V6.41303C54.0773 4.71275 54.6396 3.08268 55.6392 1.88042C56.6387 0.678167 57.994 0.00190768 59.4076 1.90735e-06H281.252C282.666 0.00190657 284.021 0.678162 285.021 1.88042C286.02 3.08267 286.583 4.71274 286.584 6.41303V168.43Z" fill="#3F3D56"/>
<path d="M272.697 156.671H67.9625C66.8728 156.669 65.8279 156.148 65.0573 155.221C64.2867 154.294 63.8533 153.037 63.8521 151.727V16.7032C63.8533 15.3924 64.2867 14.1357 65.0573 13.2087C65.8279 12.2818 66.8727 11.7604 67.9625 11.7589H272.697C273.787 11.7604 274.832 12.2818 275.603 13.2087C276.373 14.1357 276.807 15.3924 276.808 16.7032V151.727C276.807 153.037 276.373 154.294 275.603 155.221C274.832 156.148 273.787 156.669 272.697 156.671Z" fill="white"/>
<path d="M350.48 225H0.541323C0.423476 225.003 0.308111 224.959 0.213203 224.875C0.118296 224.791 0.0491753 224.671 0.0166126 224.535C-0.00371671 224.442 -0.00608292 224.345 0.00969387 224.251C0.0254707 224.157 0.0589687 224.069 0.107615 223.993C0.156261 223.917 0.218755 223.855 0.29029 223.813C0.361824 223.77 0.440492 223.748 0.520239 223.748H350.437C350.561 223.743 350.683 223.789 350.783 223.877C350.884 223.966 350.956 224.093 350.988 224.238C351.005 224.329 351.004 224.424 350.987 224.516C350.969 224.607 350.934 224.692 350.886 224.765C350.837 224.839 350.775 224.898 350.705 224.938C350.635 224.979 350.558 225 350.48 225Z" fill="#CCCCCC"/>
<path d="M108.545 62.8229H74.8601V66.6279H108.545V62.8229Z" fill="#E5E5E5"/>
<path d="M108.545 72.0506H74.8601V75.8556H108.545V72.0506Z" fill="#E5E5E5"/>
<path d="M108.545 81.4821H74.8601V85.2871H108.545V81.4821Z" fill="#E5E5E5"/>
<path d="M108.545 90.9135H74.8601V94.7186H108.545V90.9135Z" fill="#E5E5E5"/>
<path d="M100.567 102.898H82.8389V106.2H100.567V102.898Z" fill="#D21B1B"/>
<path d="M160.962 86.4225H160.64V87.5847H160.962V86.4225Z" fill="#E5E5E5"/>
<path d="M160.962 112.349H160.64V109.872H160.962V112.349ZM160.962 107.396H160.64V104.92H160.962V107.396ZM160.962 102.443H160.64V99.9667H160.962V102.443ZM160.962 97.4903H160.64V95.0139H160.962V97.4903ZM160.962 92.5375H160.64V90.0611H160.962V92.5375Z" fill="#E5E5E5"/>
<path d="M160.962 114.825H160.64V115.987H160.962V114.825Z" fill="#E5E5E5"/>
<path d="M196.231 86.4225H195.909V87.5847H196.231V86.4225Z" fill="#E5E5E5"/>
<path d="M196.231 112.349H195.909V109.872H196.231V112.349ZM196.231 107.396H195.909V104.92H196.231V107.396ZM196.231 102.443H195.909V99.9667H196.231V102.443ZM196.231 97.4903H195.909V95.0139H196.231V97.4903ZM196.231 92.5375H195.909V90.0611H196.231V92.5375Z" fill="#E5E5E5"/>
<path d="M196.231 114.825H195.909V115.987H196.231V114.825Z" fill="#E5E5E5"/>
<path d="M214.022 63.6854H213.7V64.8477H214.022V63.6854Z" fill="#E5E5E5"/>
<path d="M214.022 112.445H213.7V110.065H214.022V112.445ZM214.022 107.686H213.7V105.306H214.022V107.686ZM214.022 102.926H213.7V100.546H214.022V102.926ZM214.022 98.166H213.7V95.7862H214.022V98.166ZM214.022 93.4063H213.7V91.0263H214.022V93.4063ZM214.022 88.6465H213.7V86.2666H214.022V88.6465ZM214.022 83.8867H213.7V81.5069H214.022V83.8867ZM214.022 79.127H213.7V76.7471H214.022V79.127ZM214.022 74.3672H213.7V71.9873H214.022V74.3672ZM214.022 69.6074H213.7V67.2276H214.022V69.6074Z" fill="#E5E5E5"/>
<path d="M214.022 114.825H213.7V115.987H214.022V114.825Z" fill="#E5E5E5"/>
<path d="M231.636 54.3873H231.314V55.5496H231.636V54.3873Z" fill="#E5E5E5"/>
<path d="M231.636 112.454H231.314V110.083H231.636V112.454ZM231.636 107.712H231.314V105.341H231.636V107.712ZM231.636 102.97H231.314V100.599H231.636V102.97ZM231.636 98.2281H231.314V95.857H231.636V98.2281ZM231.636 93.486H231.314V91.115H231.636V93.486ZM231.636 88.744H231.314V86.3729H231.636V88.744ZM231.636 84.0019H231.314V81.6309H231.636V84.0019ZM231.636 79.2599H231.314V76.8888H231.636V79.2599ZM231.636 74.5178H231.314V72.1468H231.636V74.5178ZM231.636 69.7758H231.314V67.4047H231.636V69.7758ZM231.636 65.0337H231.314V62.6627H231.636V65.0337ZM231.636 60.2917H231.314V57.9206H231.636V60.2917Z" fill="#E5E5E5"/>
<path d="M231.636 114.825H231.314V115.987H231.636V114.825Z" fill="#E5E5E5"/>
<path d="M178.677 70.8527H178.355V72.015H178.677V70.8527Z" fill="#E5E5E5"/>
<path d="M178.677 112.572H178.355V110.319H178.677V112.572ZM178.677 108.066H178.355V105.813H178.677V108.066ZM178.677 103.559H178.355V101.306H178.677V103.559ZM178.677 99.053H178.355V96.7999H178.677V99.053ZM178.677 94.5467H178.355V92.2936H178.677V94.5467ZM178.677 90.0404H178.355V87.7872H178.677V90.0404ZM178.677 85.534H178.355V83.2809H178.677V85.534ZM178.677 81.0277H178.355V78.7746H178.677V81.0277ZM178.677 76.5214H178.355V74.2682H178.677V76.5214Z" fill="#E5E5E5"/>
<path d="M178.677 114.825H178.355V115.987H178.677V114.825Z" fill="#E5E5E5"/>
<path d="M249.501 116.527H142.867C142.778 116.527 142.694 116.485 142.631 116.41C142.568 116.334 142.533 116.232 142.533 116.126V54.6506C142.533 54.5441 142.568 54.442 142.631 54.3668C142.694 54.2915 142.778 54.2492 142.867 54.2492C142.955 54.2492 143.04 54.2915 143.103 54.3668C143.165 54.442 143.201 54.5441 143.201 54.6506V115.724H249.501C249.589 115.724 249.674 115.767 249.737 115.842C249.799 115.917 249.834 116.019 249.834 116.126C249.834 116.232 249.799 116.334 249.737 116.41C249.674 116.485 249.589 116.527 249.501 116.527V116.527Z" fill="#3F3D56"/>
<path d="M196.217 86.9618L178.487 70.9894L161.001 86.7437L160.6 86.1011L178.487 69.9864L196.132 85.883L213.666 62.8033L213.737 62.7689L231.423 54.1973L231.673 54.9424L214.056 63.4795L196.217 86.9618Z" fill="#3F3D56"/>
<path d="M160.801 88.8308C161.906 88.8308 162.803 87.7525 162.803 86.4224C162.803 85.0923 161.906 84.0141 160.801 84.0141C159.695 84.0141 158.798 85.0923 158.798 86.4224C158.798 87.7525 159.695 88.8308 160.801 88.8308Z" fill="#D21B1B"/>
<path d="M178.487 73.1764C179.593 73.1764 180.49 72.0981 180.49 70.768C180.49 69.4379 179.593 68.3596 178.487 68.3596C177.382 68.3596 176.485 69.4379 176.485 70.768C176.485 72.0981 177.382 73.1764 178.487 73.1764Z" fill="#D21B1B"/>
<path d="M196.174 88.8308C197.28 88.8308 198.177 87.7525 198.177 86.4224C198.177 85.0923 197.28 84.0141 196.174 84.0141C195.069 84.0141 194.172 85.0923 194.172 86.4224C194.172 87.7525 195.069 88.8308 196.174 88.8308Z" fill="#D21B1B"/>
<path d="M213.861 65.5498C214.967 65.5498 215.864 64.4716 215.864 63.1415C215.864 61.8113 214.967 60.7331 213.861 60.7331C212.755 60.7331 211.859 61.8113 211.859 63.1415C211.859 64.4716 212.755 65.5498 213.861 65.5498Z" fill="#D21B1B"/>
<path d="M231.548 56.7191C232.654 56.7191 233.55 55.6409 233.55 54.3107C233.55 52.9806 232.654 51.9024 231.548 51.9024C230.442 51.9024 229.546 52.9806 229.546 54.3107C229.546 55.6409 230.442 56.7191 231.548 56.7191Z" fill="#D21B1B"/>
<path d="M119.074 11.7588H118.392V156.671H119.074V11.7588Z" fill="#E5E5E5"/>
<path d="M279.818 155.188C280.053 154.85 280.224 154.455 280.319 154.03C280.414 153.605 280.43 153.159 280.366 152.726C280.303 152.292 280.161 151.881 279.95 151.52C279.74 151.16 279.467 150.859 279.149 150.639L280.814 140.124L276.545 142.264L275.619 151.921C275.348 152.587 275.289 153.349 275.453 154.064C275.618 154.778 275.995 155.395 276.512 155.798C277.03 156.2 277.652 156.361 278.261 156.248C278.871 156.136 279.424 155.758 279.818 155.188Z" fill="#FFB7B7"/>
<path d="M301.102 219.711H297.487L295.768 202.942L301.103 202.942L301.102 219.711Z" fill="#FFB7B7"/>
<path d="M302.024 223.925L290.369 223.925V223.748C290.369 222.301 290.847 220.913 291.698 219.89C292.548 218.866 293.702 218.292 294.905 218.291H294.906L302.024 218.292L302.024 223.925Z" fill="#2F2E41"/>
<path d="M281.349 219.711H277.735L276.015 202.942L281.35 202.942L281.349 219.711Z" fill="#FFB7B7"/>
<path d="M281.386 223.925L269.732 223.925V223.748C269.732 222.301 270.21 220.913 271.06 219.89C271.911 218.866 273.065 218.292 274.268 218.291H274.268L281.386 218.292L281.386 223.925Z" fill="#2F2E41"/>
<path d="M281.053 148.887L277.515 158.691L274.596 215.039L281.967 214.684L283.98 187.823L290.19 163.898L293.76 190.57L295.234 213.975L301.333 214.292L303.763 148.887H281.053Z" fill="#2F2E41"/>
<path d="M298.737 100.512L288.483 100.821L282.463 104.538L282.133 131.963L278.378 150.897C278.378 150.897 301.837 152.839 305.08 150.003L301.248 128.371L306.388 104.994L298.737 100.512Z" fill="#D21B1B"/>
<path d="M283.559 104.967L282.463 104.538C282.463 104.538 278.989 107.22 279.319 113.704C279.319 113.704 279.189 117.06 279.314 119.293C279.456 121.854 275.186 147.307 275.186 147.307H281.377L284.031 124.257L283.559 104.967Z" fill="#D21B1B"/>
<path d="M306.228 155.542C305.992 155.205 305.821 154.81 305.726 154.384C305.631 153.959 305.615 153.514 305.679 153.08C305.743 152.647 305.885 152.235 306.095 151.875C306.305 151.514 306.579 151.214 306.896 150.994L305.232 140.479L309.5 142.618L310.427 152.276C310.698 152.942 310.757 153.704 310.592 154.418C310.428 155.133 310.051 155.75 309.533 156.152C309.016 156.555 308.393 156.715 307.784 156.603C307.175 156.49 306.621 156.113 306.228 155.542Z" fill="#FFB7B7"/>
<path d="M304.845 105.321L305.941 104.892C305.941 104.892 309.415 107.575 309.085 114.059C309.085 114.059 309.215 117.414 309.09 119.647C308.948 122.209 310.859 147.662 310.859 147.662H304.668L302.015 124.612L304.845 105.321Z" fill="#D21B1B"/>
<path d="M301.254 89.0062C301.254 90.6972 300.837 92.3502 300.056 93.7562C299.275 95.1622 298.165 96.258 296.866 96.9052C295.568 97.5523 294.138 97.7216 292.76 97.3917C291.381 97.0618 290.114 96.2475 289.12 95.0518C288.126 93.8561 287.449 92.3327 287.175 90.6742C286.9 89.0157 287.041 87.2966 287.579 85.7344C288.117 84.1721 289.028 82.8368 290.197 81.8974C291.366 80.9579 292.74 80.4565 294.146 80.4565C295.077 80.4537 296 80.6715 296.861 81.0975C297.722 81.5235 298.505 82.1494 299.165 82.9393C299.825 83.7293 300.349 84.6679 300.708 85.7016C301.066 86.7352 301.252 87.8436 301.254 88.9636C301.254 88.9778 301.254 88.992 301.254 89.0062Z" fill="#FFB7B7"/>
<path d="M287.062 77.5224C287.894 75.3687 289.506 75.7945 290.915 76.5245C292.7 76.0484 294.397 74.6229 296.32 75.4659C298.214 78.7795 304.573 77.8046 303.22 83.199C303.218 84.4917 305.242 83.7393 304.889 85.8563C305.961 89.9305 301.019 97.6465 298.182 96.0216C298.883 94.4748 300.486 90.9614 298.055 90.613C292.825 96.4661 297.516 79.4673 290.944 84.4108C288.769 86.8058 285.79 79.918 287.062 77.5224Z" fill="#2F2E41"/>
</g>
<defs>
<clipPath id="clip0_5851_4310">
<rect width="351" height="225" fill="white"/>
</clipPath>
</defs>
</svg>
