<svg width="331" height="222" viewBox="0 0 331 222" fill="none" xmlns="http://www.w3.org/2000/svg">
<g clip-path="url(#clip0_5851_3211)">
<path d="M263.389 97.836L264.368 89.9842C264.716 87.1937 266.159 84.6558 268.378 82.9288C270.598 81.2018 273.412 80.4272 276.202 80.7753C278.993 81.1234 281.531 82.5658 283.258 84.7852C284.985 87.0045 285.759 89.819 285.411 92.6095L284.432 100.461C284.385 100.836 284.191 101.177 283.893 101.409C283.595 101.64 283.217 101.745 282.842 101.698L264.626 99.4257C264.251 99.3785 263.91 99.1847 263.678 98.8866C263.447 98.5886 263.342 98.2108 263.389 97.836Z" fill="#2F2E41"/>
<path d="M272.115 100.179C276.408 100.179 279.888 96.6981 279.888 92.4047C279.888 88.1114 276.408 84.6309 272.115 84.6309C267.821 84.6309 264.341 88.1114 264.341 92.4047C264.341 96.6981 267.821 100.179 272.115 100.179Z" fill="#FFB8B8"/>
<path d="M261.801 90.3018C262.079 88.0955 263.22 86.0894 264.975 84.7238C266.73 83.3581 268.955 82.7444 271.162 83.0172L272.733 83.2131C274.939 83.4909 276.945 84.6325 278.311 86.3875C279.676 88.1425 280.29 90.3675 280.017 92.5744L279.998 92.7315L276.679 92.3174L275.942 89.0066L275.321 92.148L273.605 91.934L273.234 90.2635L272.92 91.8485L261.781 90.4588L261.801 90.3018Z" fill="#2F2E41"/>
<path d="M234.093 120.135C234.331 120.602 234.668 121.011 235.08 121.333C235.493 121.655 235.971 121.883 236.481 122C236.992 122.117 237.521 122.121 238.033 122.012C238.545 121.902 239.027 121.682 239.444 121.366L246.505 125.502L250.065 121.824L240.012 116.123C239.435 115.457 238.634 115.026 237.76 114.911C236.886 114.796 236 115.006 235.271 115.5C234.541 115.995 234.018 116.74 233.801 117.594C233.584 118.448 233.688 119.353 234.093 120.135Z" fill="#FFB8B8"/>
<path d="M257.235 127.568C252.026 127.568 242.862 125.236 242.354 125.106L242.194 125.065L243.636 117.762L257.635 120.527L265.239 109.818L273.97 108.93L273.727 109.251C273.613 109.4 262.358 124.216 260.607 126.701C260.165 127.328 258.902 127.568 257.235 127.568Z" fill="#3F3D56"/>
<path d="M258.631 154.977L258.422 154.878C258.378 154.857 253.953 152.704 251.661 148.503C249.38 144.321 260.058 126.581 260.805 125.35L260.816 119.717L264.657 109.346L269.556 106.577L265.35 116.391L258.631 154.977Z" fill="#3F3D56"/>
<path d="M253.723 215.528L249.041 215.527L246.814 197.469L253.724 197.469L253.723 215.528Z" fill="#FFB8B8"/>
<path d="M254.917 220.066L239.821 220.065V219.874C239.821 218.316 240.44 216.822 241.542 215.72C242.644 214.618 244.138 213.999 245.697 213.999H245.697L254.917 213.999L254.917 220.066Z" fill="#2F2E41"/>
<path d="M304.012 211.425L299.563 212.882L291.823 196.415L298.389 194.264L304.012 211.425Z" fill="#FFB8B8"/>
<path d="M306.56 215.366L292.214 220.066L292.154 219.884C291.669 218.403 291.792 216.791 292.496 215.4C293.2 214.01 294.427 212.956 295.908 212.471L295.909 212.471L304.671 209.6L306.56 215.366Z" fill="#2F2E41"/>
<path d="M294.947 208.472L281.6 186.191L270.333 162.385L260.195 183.413L256.167 210.648L242.042 210.844L242.098 210.623L263.713 124.737L280.642 127.266L279.871 138.44L280.33 139.093C284.155 144.525 288.109 150.142 285.841 156.197L292.27 175.286L306.501 207.072L294.947 208.472Z" fill="#2F2E41"/>
<path d="M264.487 143.351C262.034 143.351 259.235 140.55 260.687 135.768L260.593 135.7L264.08 120.292C261.037 115.94 265.05 112.347 265.426 112.027L267.341 108.579L275.792 103.219L280.068 138.747L280.005 138.807C276.916 141.762 266.544 143.351 264.487 143.351Z" fill="#DF3131"/>
<path d="M281.794 151.368C281.458 151.373 281.123 151.337 280.796 151.262C280.467 151.179 279.935 150.761 279.113 148.084C275.844 137.441 271.985 105.419 274.789 102.285L274.853 102.213L279.456 102.981C279.839 102.698 281.847 101.296 283.7 101.54C284.082 101.588 284.449 101.714 284.78 101.909C285.111 102.105 285.399 102.367 285.625 102.678L285.656 102.719L287.123 123.584L292.496 148.138L292.367 148.196C292.055 148.339 285.345 151.368 281.794 151.368Z" fill="#3F3D56"/>
<path d="M278.698 143.212C279.221 143.195 279.734 143.063 280.201 142.826C280.668 142.589 281.077 142.252 281.399 141.84C281.722 141.427 281.95 140.949 282.068 140.439C282.186 139.929 282.19 139.399 282.081 138.887L288.82 134.246L286.998 129.462L277.573 136.151C276.725 136.391 275.995 136.934 275.52 137.677C275.046 138.42 274.861 139.311 274.999 140.181C275.138 141.052 275.591 141.841 276.273 142.4C276.954 142.958 277.817 143.248 278.698 143.212Z" fill="#FFB8B8"/>
<path d="M286.596 137.965L280.594 133.563L289.032 122.057L282.556 110.63L285.453 102.345L285.64 102.702C285.728 102.868 294.375 119.342 295.884 121.982C297.453 124.728 287.141 137.303 286.702 137.837L286.596 137.965Z" fill="#3F3D56"/>
<path d="M151.568 189.753L146.459 187.602L142.954 161.991H96.2819L92.483 187.498L87.9122 189.783C87.6935 189.892 87.5182 190.072 87.4146 190.294C87.3109 190.515 87.2851 190.765 87.3413 191.003C87.3975 191.241 87.5324 191.453 87.7241 191.605C87.9158 191.757 88.1532 191.839 88.3977 191.839H151.147C151.397 191.839 151.64 191.753 151.834 191.594C152.028 191.435 152.161 191.214 152.211 190.969C152.26 190.723 152.223 190.468 152.106 190.246C151.989 190.025 151.799 189.851 151.568 189.753Z" fill="#E6E6E6"/>
<path d="M234.507 165.398H5.24122C4.03834 165.396 2.88563 164.916 2.03601 164.064C1.18639 163.213 0.709237 162.059 0.709229 160.856V128.527H239.039V160.856C239.039 162.059 238.562 163.213 237.712 164.064C236.862 164.916 235.71 165.396 234.507 165.398Z" fill="#CCCCCC"/>
<path d="M239.278 143.806H0.5V5.47549C0.501677 4.02378 1.07912 2.63202 2.10565 1.60552C3.13218 0.579029 4.52396 0.00163572 5.97567 7.62939e-06H233.803C235.254 0.00163198 236.646 0.579025 237.673 1.60552C238.699 2.63201 239.277 4.02377 239.278 5.47549V143.806Z" fill="#3F3D56"/>
<path d="M225.017 133.766H14.7613C13.6421 133.765 12.5692 133.32 11.7778 132.529C10.9864 131.737 10.5412 130.664 10.54 129.545V14.2613C10.5412 13.1421 10.9864 12.0691 11.7777 11.2777C12.5691 10.4863 13.6421 10.0411 14.7613 10.0398H225.017C226.136 10.0411 227.209 10.4863 228.001 11.2777C228.792 12.0691 229.237 13.1421 229.239 14.2613V129.545C229.237 130.664 228.792 131.737 228.001 132.529C227.209 133.32 226.136 133.765 225.017 133.766Z" fill="white"/>
<path d="M178.856 192.106H60.7099C60.5889 192.109 60.4704 192.071 60.373 192C60.2755 191.928 60.2045 191.826 60.1711 191.709C60.1502 191.63 60.1478 191.547 60.164 191.467C60.1802 191.387 60.2146 191.311 60.2645 191.246C60.3145 191.182 60.3787 191.129 60.4521 191.093C60.5256 191.057 60.6064 191.038 60.6883 191.038H178.812C178.939 191.033 179.065 191.072 179.168 191.148C179.27 191.224 179.344 191.332 179.378 191.456C179.395 191.534 179.395 191.615 179.376 191.693C179.358 191.771 179.323 191.844 179.273 191.906C179.223 191.969 179.159 192.019 179.087 192.054C179.015 192.088 178.936 192.106 178.856 192.106Z" fill="#CCCCCC"/>
<path d="M222.773 28.6777H172.007V67.4611H222.773V28.6777Z" fill="#F2F2F2"/>
<path d="M220.25 30.6049H174.53V65.534H220.25V30.6049Z" fill="white"/>
<path d="M198.193 56.5136C198.199 56.5136 198.205 56.5135 198.211 56.5132C201.306 56.3513 204.223 55.0167 206.369 52.7808C208.515 50.5449 209.729 47.5755 209.763 44.4766C209.798 41.3777 208.651 38.3819 206.556 36.0984C204.461 33.815 201.574 32.4153 198.484 32.1841C198.445 32.1811 198.407 32.186 198.371 32.1986C198.335 32.2111 198.301 32.231 198.273 32.257C198.245 32.2826 198.223 32.3137 198.207 32.3484C198.192 32.3831 198.184 32.4206 198.183 32.4585L197.917 56.232C197.916 56.3059 197.945 56.3771 197.997 56.4299C198.048 56.4827 198.119 56.5128 198.193 56.5136Z" fill="#3F3D56"/>
<path d="M188.633 36.1152C188.728 36.1164 188.818 36.1551 188.885 36.2228L197.069 44.5926C197.102 44.6261 197.128 44.6658 197.145 44.7094C197.163 44.7529 197.171 44.7996 197.171 44.8465L197.043 56.2222C197.043 56.2711 197.033 56.3193 197.013 56.3639C196.993 56.4084 196.964 56.4484 196.928 56.4813C196.892 56.5146 196.849 56.5401 196.802 56.5562C196.756 56.5723 196.707 56.5787 196.658 56.5751C194.382 56.4048 192.199 55.6032 190.354 54.2606C188.509 52.9179 187.075 51.0873 186.213 48.9745C185.351 46.8616 185.095 44.5503 185.474 42.3001C185.854 40.0499 186.853 37.9501 188.36 36.2366C188.393 36.1997 188.433 36.1699 188.477 36.149C188.522 36.1281 188.57 36.1167 188.62 36.1153C188.624 36.1152 188.628 36.1152 188.633 36.1152Z" fill="#E6E6E6"/>
<path d="M196.955 32.0869C197.046 32.088 197.134 32.1238 197.2 32.187C197.235 32.2207 197.263 32.2613 197.282 32.3064C197.301 32.3515 197.311 32.3999 197.31 32.4488L197.195 42.7127C197.194 42.7834 197.172 42.8522 197.132 42.9105C197.092 42.9689 197.036 43.014 196.97 43.0403C196.905 43.0667 196.833 43.0729 196.764 43.0584C196.695 43.0438 196.631 43.0091 196.582 42.9586L189.44 35.6549C189.406 35.6201 189.38 35.5789 189.362 35.5336C189.345 35.4883 189.337 35.4399 189.339 35.3914C189.34 35.3429 189.352 35.2952 189.373 35.2513C189.394 35.2075 189.423 35.1683 189.459 35.1361C191.537 33.3079 194.17 32.2337 196.933 32.0873C196.94 32.087 196.948 32.0868 196.955 32.0869Z" fill="#D21B1B"/>
<path d="M193.276 61.4434C193.271 61.8764 193.138 62.2982 192.893 62.6556C192.649 63.0129 192.304 63.2897 191.902 63.4509C191.5 63.6121 191.059 63.6505 190.635 63.5613C190.212 63.4721 189.824 63.2592 189.521 62.9496C189.218 62.64 189.014 62.2475 188.935 61.8219C188.855 61.3963 188.903 60.9566 189.073 60.5584C189.244 60.1602 189.528 59.8214 189.891 59.5849C190.253 59.3484 190.678 59.2247 191.111 59.2296C191.692 59.2367 192.245 59.4739 192.651 59.8889C193.057 60.3039 193.282 60.863 193.276 61.4434Z" fill="#D21B1B"/>
<path d="M199.531 61.5135C199.526 61.9465 199.393 62.3684 199.148 62.7257C198.904 63.083 198.559 63.3598 198.157 63.521C197.755 63.6822 197.314 63.7206 196.89 63.6314C196.467 63.5422 196.079 63.3293 195.776 63.0197C195.473 62.7101 195.269 62.3176 195.19 61.892C195.11 61.4664 195.158 61.0267 195.328 60.6285C195.499 60.2303 195.783 59.8916 196.146 59.655C196.508 59.4185 196.933 59.2948 197.366 59.2997C197.947 59.3069 198.5 59.544 198.906 59.959C199.312 60.374 199.537 60.9331 199.531 61.5135Z" fill="#3F3D56"/>
<path d="M205.786 61.5837C205.781 62.0167 205.648 62.4385 205.403 62.7958C205.159 63.1532 204.814 63.4299 204.412 63.5911C204.01 63.7524 203.569 63.7908 203.146 63.7015C202.722 63.6123 202.334 63.3994 202.031 63.0898C201.729 62.7802 201.524 62.3878 201.445 61.9622C201.365 61.5365 201.413 61.0968 201.584 60.6986C201.754 60.3005 202.038 59.9617 202.401 59.7252C202.764 59.4886 203.188 59.365 203.621 59.3698C204.202 59.377 204.756 59.6141 205.161 60.0291C205.567 60.4442 205.792 61.0032 205.786 61.5837Z" fill="#E6E6E6"/>
<path d="M222.238 73.5649H171.473V112.348H222.238V73.5649Z" fill="#F2F2F2"/>
<path d="M219.716 75.492H173.995V110.421H219.716V75.492Z" fill="white"/>
<path d="M181.753 86.9721C182.801 86.9721 183.651 86.1222 183.651 85.0738C183.651 84.0254 182.801 83.1755 181.753 83.1755C180.704 83.1755 179.854 84.0254 179.854 85.0738C179.854 86.1222 180.704 86.9721 181.753 86.9721Z" fill="#3F3D56"/>
<path d="M212.254 83.5965C212.423 83.5963 212.591 83.6294 212.747 83.6939C212.904 83.7585 213.046 83.8533 213.166 83.9729C213.285 84.0924 213.38 84.2345 213.445 84.3908C213.51 84.5471 213.544 84.7147 213.544 84.884C213.544 85.0532 213.51 85.2208 213.445 85.3771C213.38 85.5335 213.285 85.6755 213.166 85.7951C213.046 85.9146 212.904 86.0094 212.747 86.074C212.591 86.1386 212.423 86.1717 212.254 86.1714H192.288C191.947 86.1714 191.62 86.0357 191.378 85.7943C191.137 85.5529 191.001 85.2254 191.001 84.884C191.001 84.5425 191.137 84.2151 191.378 83.9736C191.62 83.7322 191.947 83.5965 192.288 83.5965H212.254ZM212.254 83.2812H192.288C192.078 83.2809 191.869 83.3222 191.674 83.4026C191.48 83.483 191.303 83.601 191.154 83.7498C191.005 83.8987 190.886 84.0755 190.806 84.2701C190.725 84.4647 190.683 84.6733 190.683 84.884C190.683 85.0946 190.725 85.3032 190.806 85.4979C190.886 85.6925 191.005 85.8693 191.154 86.0181C191.303 86.167 191.48 86.285 191.674 86.3654C191.869 86.4458 192.078 86.487 192.288 86.4867H212.254C212.465 86.487 212.673 86.4458 212.868 86.3654C213.063 86.285 213.24 86.167 213.389 86.0181C213.538 85.8693 213.656 85.6925 213.737 85.4979C213.818 85.3032 213.859 85.0946 213.859 84.884C213.859 84.6733 213.818 84.4647 213.737 84.2701C213.656 84.0755 213.538 83.8987 213.389 83.7498C213.24 83.601 213.063 83.483 212.868 83.4026C212.673 83.3222 212.465 83.2809 212.254 83.2812Z" fill="#3F3D56"/>
<path d="M204.376 86.4867H189.346C188.921 86.4867 188.513 86.3178 188.213 86.0173C187.912 85.7167 187.743 85.309 187.743 84.884C187.743 84.4589 187.912 84.0512 188.213 83.7507C188.513 83.4501 188.921 83.2812 189.346 83.2812H204.376C204.801 83.2812 205.209 83.4501 205.509 83.7507C205.81 84.0512 205.979 84.4589 205.979 84.884C205.979 85.309 205.81 85.7167 205.509 86.0173C205.209 86.3178 204.801 86.4867 204.376 86.4867Z" fill="#D21B1B"/>
<path d="M181.753 94.8549C182.801 94.8549 183.651 94.005 183.651 92.9566C183.651 91.9082 182.801 91.0583 181.753 91.0583C180.704 91.0583 179.854 91.9082 179.854 92.9566C179.854 94.005 180.704 94.8549 181.753 94.8549Z" fill="#3F3D56"/>
<path d="M212.254 91.4794C212.423 91.4791 212.591 91.5122 212.747 91.5768C212.904 91.6413 213.046 91.7361 213.166 91.8557C213.285 91.9753 213.38 92.1173 213.445 92.2736C213.51 92.4299 213.543 92.5975 213.543 92.7668C213.543 92.936 213.51 93.1036 213.445 93.2599C213.38 93.4163 213.285 93.5583 213.166 93.6779C213.046 93.7974 212.904 93.8922 212.747 93.9568C212.591 94.0214 212.423 94.0545 212.254 94.0542H192.288C191.947 94.0542 191.619 93.9185 191.378 93.6771C191.137 93.4357 191.001 93.1082 191.001 92.7668C191.001 92.4253 191.137 92.0979 191.378 91.8564C191.619 91.615 191.947 91.4794 192.288 91.4794H212.254ZM212.254 91.164H192.288C191.863 91.164 191.456 91.3329 191.155 91.6335C190.855 91.934 190.686 92.3417 190.686 92.7668C190.686 93.1918 190.855 93.5995 191.155 93.9001C191.456 94.2006 191.863 94.3695 192.288 94.3695H212.254C212.679 94.3695 213.087 94.2006 213.387 93.9001C213.688 93.5995 213.857 93.1918 213.857 92.7668C213.857 92.3417 213.688 91.934 213.387 91.6335C213.087 91.3329 212.679 91.164 212.254 91.164Z" fill="#3F3D56"/>
<path d="M210.052 94.3695H189.346C188.921 94.3695 188.513 94.2006 188.213 93.9001C187.912 93.5995 187.743 93.1918 187.743 92.7668C187.743 92.3417 187.912 91.934 188.213 91.6335C188.513 91.3329 188.921 91.164 189.346 91.164H210.052C210.477 91.164 210.884 91.3329 211.185 91.6335C211.485 91.934 211.654 92.3417 211.654 92.7668C211.654 93.1918 211.485 93.5995 211.185 93.9001C210.884 94.2006 210.477 94.3695 210.052 94.3695Z" fill="#D21B1B"/>
<path d="M181.753 102.738C182.801 102.738 183.651 101.888 183.651 100.839C183.651 99.791 182.801 98.9411 181.753 98.9411C180.704 98.9411 179.854 99.791 179.854 100.839C179.854 101.888 180.704 102.738 181.753 102.738Z" fill="#3F3D56"/>
<path d="M212.254 99.3622C212.423 99.3619 212.591 99.395 212.747 99.4596C212.904 99.5241 213.046 99.6189 213.166 99.7385C213.285 99.8581 213.38 100 213.445 100.156C213.51 100.313 213.543 100.48 213.543 100.65C213.543 100.819 213.51 100.986 213.445 101.143C213.38 101.299 213.285 101.441 213.166 101.561C213.046 101.68 212.904 101.775 212.747 101.84C212.591 101.904 212.423 101.937 212.254 101.937H192.288C191.947 101.937 191.619 101.801 191.378 101.56C191.137 101.318 191.001 100.991 191.001 100.65C191.001 100.308 191.137 99.9807 191.378 99.7392C191.619 99.4978 191.947 99.3622 192.288 99.3622H212.254ZM212.254 99.0468H192.288C191.863 99.0468 191.456 99.2157 191.155 99.5163C190.855 99.8168 190.686 100.225 190.686 100.65C190.686 101.075 190.855 101.482 191.155 101.783C191.456 102.083 191.863 102.252 192.288 102.252H212.254C212.679 102.252 213.087 102.083 213.387 101.783C213.688 101.482 213.857 101.075 213.857 100.65C213.857 100.225 213.688 99.8168 213.387 99.5163C213.087 99.2157 212.679 99.0468 212.254 99.0468Z" fill="#3F3D56"/>
<path d="M197.754 102.252H189.346C189.135 102.253 188.927 102.211 188.732 102.131C188.537 102.051 188.36 101.933 188.211 101.784C188.062 101.635 187.944 101.458 187.863 101.263C187.782 101.069 187.741 100.86 187.741 100.65C187.741 100.439 187.782 100.23 187.863 100.036C187.944 99.8411 188.062 99.6643 188.211 99.5154C188.36 99.3666 188.537 99.2486 188.732 99.1682C188.927 99.0878 189.135 99.0465 189.346 99.0468H197.754C198.179 99.0475 198.586 99.2166 198.886 99.5171C199.186 99.8176 199.355 100.225 199.355 100.65C199.355 101.074 199.186 101.482 198.886 101.782C198.586 102.083 198.179 102.252 197.754 102.252Z" fill="#D21B1B"/>
<path d="M160.251 35.5394H18.4218V108.227H160.251V35.5394Z" fill="#F2F2F2"/>
<path d="M155.523 39.1512H23.1495V104.615H155.523V39.1512Z" fill="white"/>
<path d="M139.106 94.628H42.6082C42.5281 94.628 42.4513 94.5961 42.3947 94.5395C42.338 94.4829 42.3062 94.4061 42.3062 94.326V48.0744C42.3062 47.9943 42.338 47.9175 42.3947 47.8609C42.4513 47.8042 42.5281 47.7724 42.6082 47.7724C42.6883 47.7724 42.7651 47.8042 42.8218 47.8609C42.8784 47.9175 42.9102 47.9943 42.9102 48.0744V94.024H139.106C139.186 94.024 139.263 94.0558 139.32 94.1124C139.376 94.1691 139.408 94.2459 139.408 94.326C139.408 94.4061 139.376 94.4829 139.32 94.5395C139.263 94.5961 139.186 94.628 139.106 94.628Z" fill="#3F3D56"/>
<path d="M63.2257 91.306H54.4488C54.2111 91.3058 53.9833 91.2112 53.8152 91.0432C53.6471 90.8751 53.5526 90.6473 53.5523 90.4096V78.3106C53.5526 78.073 53.6471 77.8451 53.8152 77.6771C53.9833 77.509 54.2111 77.4145 54.4488 77.4142H63.2257C63.4633 77.4145 63.6912 77.509 63.8592 77.6771C64.0273 77.8451 64.1218 78.073 64.1221 78.3106V90.4096C64.1218 90.6473 64.0273 90.8751 63.8592 91.0432C63.6912 91.2112 63.4633 91.3058 63.2257 91.306Z" fill="#D21B1B"/>
<path d="M79.2314 91.306H70.4545C70.2169 91.3058 69.989 91.2112 69.8209 91.0432C69.6529 90.8751 69.5583 90.6473 69.558 90.4096V66.8348C69.5583 66.5972 69.6529 66.3693 69.8209 66.2013C69.989 66.0332 70.2169 65.9387 70.4545 65.9384H79.2314C79.4691 65.9387 79.6969 66.0332 79.865 66.2013C80.033 66.3693 80.1276 66.5972 80.1279 66.8348V90.4096C80.1276 90.6473 80.033 90.8751 79.865 91.0432C79.6969 91.2112 79.4691 91.3058 79.2314 91.306Z" fill="#D21B1B"/>
<path d="M95.2371 91.306H86.4603C86.2226 91.3058 85.9947 91.2112 85.8267 91.0432C85.6586 90.8751 85.5641 90.6473 85.5638 90.4096V78.3106C85.5641 78.073 85.6586 77.8451 85.8267 77.6771C85.9947 77.509 86.2226 77.4145 86.4603 77.4142H95.2371C95.4748 77.4145 95.7027 77.509 95.8707 77.6771C96.0388 77.8451 96.1333 78.073 96.1336 78.3106V90.4096C96.1333 90.6473 96.0388 90.8751 95.8707 91.0432C95.7027 91.2112 95.4748 91.3058 95.2371 91.306Z" fill="#D21B1B"/>
<path d="M111.243 91.306H102.466C102.234 91.311 102.009 91.2237 101.841 91.0633C101.673 90.9029 101.575 90.6825 101.57 90.4502V62.2643C101.575 62.0321 101.673 61.8116 101.841 61.6512C102.009 61.4908 102.234 61.4035 102.466 61.4085H111.243C111.475 61.4035 111.7 61.4908 111.868 61.6512C112.036 61.8116 112.134 62.0321 112.139 62.2643V90.4502C112.134 90.6824 112.036 90.9029 111.868 91.0633C111.7 91.2237 111.475 91.311 111.243 91.306Z" fill="#D21B1B"/>
<path d="M127.249 91.306H118.472C118.234 91.3058 118.006 91.2112 117.838 91.0432C117.67 90.8751 117.576 90.6473 117.575 90.4096V54.1511C117.576 53.9134 117.67 53.6855 117.838 53.5175C118.006 53.3494 118.234 53.2549 118.472 53.2547H127.249C127.486 53.2549 127.714 53.3494 127.882 53.5175C128.05 53.6855 128.145 53.9134 128.145 54.1511V90.4096C128.145 90.6473 128.05 90.8751 127.882 91.0432C127.714 91.2112 127.486 91.3058 127.249 91.306Z" fill="#D21B1B"/>
<path d="M58.8372 73.7903C59.838 73.7903 60.6492 72.9791 60.6492 71.9783C60.6492 70.9776 59.838 70.1664 58.8372 70.1664C57.8365 70.1664 57.0253 70.9776 57.0253 71.9783C57.0253 72.9791 57.8365 73.7903 58.8372 73.7903Z" fill="#3F3D56"/>
<path d="M74.843 62.0125C75.8437 62.0125 76.655 61.2013 76.655 60.2005C76.655 59.1998 75.8437 58.3886 74.843 58.3886C73.8423 58.3886 73.031 59.1998 73.031 60.2005C73.031 61.2013 73.8423 62.0125 74.843 62.0125Z" fill="#3F3D56"/>
<path d="M90.8487 73.7903C91.8494 73.7903 92.6607 72.9791 92.6607 71.9783C92.6607 70.9776 91.8494 70.1664 90.8487 70.1664C89.848 70.1664 89.0367 70.9776 89.0367 71.9783C89.0367 72.9791 89.848 73.7903 90.8487 73.7903Z" fill="#3F3D56"/>
<path d="M106.854 56.2746C107.855 56.2746 108.666 55.4633 108.666 54.4626C108.666 53.4619 107.855 52.6507 106.854 52.6507C105.854 52.6507 105.042 53.4619 105.042 54.4626C105.042 55.4633 105.854 56.2746 106.854 56.2746Z" fill="#3F3D56"/>
<path d="M122.86 49.6307C123.861 49.6307 124.672 48.8195 124.672 47.8187C124.672 46.818 123.861 46.0068 122.86 46.0068C121.859 46.0068 121.048 46.818 121.048 47.8187C121.048 48.8195 121.859 49.6307 122.86 49.6307Z" fill="#3F3D56"/>
<path d="M90.8867 72.3842L74.8431 60.3672L59.0182 72.22L58.6562 71.7368L74.8431 59.6123L90.8104 71.5723L106.678 54.2083L106.741 54.1824L122.747 47.7336L122.973 48.2938L107.031 54.717L90.8867 72.3842Z" fill="#3F3D56"/>
<path d="M330.15 221.076H196.756C196.663 221.076 196.574 221.039 196.508 220.974C196.443 220.908 196.406 220.819 196.406 220.726C196.406 220.633 196.443 220.544 196.508 220.479C196.574 220.413 196.663 220.376 196.756 220.376H330.15C330.243 220.376 330.332 220.413 330.397 220.479C330.463 220.544 330.5 220.633 330.5 220.726C330.5 220.819 330.463 220.908 330.397 220.974C330.332 221.039 330.243 221.076 330.15 221.076Z" fill="#CCCCCC"/>
</g>
<defs>
<clipPath id="clip0_5851_3211">
<rect width="330" height="221.076" fill="white" transform="translate(0.5)"/>
</clipPath>
</defs>
</svg>
