<svg width="1550" height="344" viewBox="0 0 1550 344" fill="none" xmlns="http://www.w3.org/2000/svg">
<g clip-path="url(#clip0_2_5)">
<path d="M0 0H1520C1536.57 0 1550 13.4315 1550 30V314C1550 330.569 1536.57 344 1520 344H0V0Z" fill="#E05151"/>
<path fill-rule="evenodd" clip-rule="evenodd" d="M1549.5 308.5C1624.06 308.5 1684.5 248.058 1684.5 173.5C1684.5 98.9416 1624.06 38.5 1549.5 38.5C1474.94 38.5 1414.5 98.9416 1414.5 173.5C1414.5 248.058 1474.94 308.5 1549.5 308.5ZM1549.5 310C1624.89 310 1686 248.887 1686 173.5C1686 98.1131 1624.89 37 1549.5 37C1474.11 37 1413 98.1131 1413 173.5C1413 248.887 1474.11 310 1549.5 310Z" fill="white" fill-opacity="0.5"/>
<path fill-rule="evenodd" clip-rule="evenodd" d="M8.5 471.5C83.0584 471.5 143.5 411.058 143.5 336.5C143.5 261.942 83.0584 201.5 8.5 201.5C-66.0584 201.5 -126.5 261.942 -126.5 336.5C-126.5 411.058 -66.0584 471.5 8.5 471.5ZM8.5 473C83.8869 473 145 411.887 145 336.5C145 261.113 83.8869 200 8.5 200C-66.8869 200 -128 261.113 -128 336.5C-128 411.887 -66.8869 473 8.5 473Z" fill="white" fill-opacity="0.5"/>
<path fill-rule="evenodd" clip-rule="evenodd" d="M1549.5 269.5C1600.86 269.5 1642.5 227.862 1642.5 176.5C1642.5 125.138 1600.86 83.5 1549.5 83.5C1498.14 83.5 1456.5 125.138 1456.5 176.5C1456.5 227.862 1498.14 269.5 1549.5 269.5ZM1549.5 271C1601.69 271 1644 228.691 1644 176.5C1644 124.309 1601.69 82 1549.5 82C1497.31 82 1455 124.309 1455 176.5C1455 228.691 1497.31 271 1549.5 271Z" fill="white" fill-opacity="0.5"/>
<path fill-rule="evenodd" clip-rule="evenodd" d="M8.5 432.5C59.8625 432.5 101.5 390.862 101.5 339.5C101.5 288.138 59.8625 246.5 8.5 246.5C-42.8625 246.5 -84.5 288.138 -84.5 339.5C-84.5 390.862 -42.8625 432.5 8.5 432.5ZM8.5 434C60.6909 434 103 391.691 103 339.5C103 287.309 60.6909 245 8.5 245C-43.6909 245 -86 287.309 -86 339.5C-86 391.691 -43.6909 434 8.5 434Z" fill="white" fill-opacity="0.5"/>
<path fill-rule="evenodd" clip-rule="evenodd" d="M1550 224.5C1577.89 224.5 1600.5 201.89 1600.5 174C1600.5 146.11 1577.89 123.5 1550 123.5C1522.11 123.5 1499.5 146.11 1499.5 174C1499.5 201.89 1522.11 224.5 1550 224.5ZM1550 226C1578.72 226 1602 202.719 1602 174C1602 145.281 1578.72 122 1550 122C1521.28 122 1498 145.281 1498 174C1498 202.719 1521.28 226 1550 226Z" fill="white" fill-opacity="0.5"/>
<path fill-rule="evenodd" clip-rule="evenodd" d="M9 387.5C36.8904 387.5 59.5 364.89 59.5 337C59.5 309.11 36.8904 286.5 9 286.5C-18.8904 286.5 -41.5 309.11 -41.5 337C-41.5 364.89 -18.8904 387.5 9 387.5ZM9 389C37.7188 389 61 365.719 61 337C61 308.281 37.7188 285 9 285C-19.7188 285 -43 308.281 -43 337C-43 365.719 -19.7188 389 9 389Z" fill="white" fill-opacity="0.5"/>
</g>
<defs>
<clipPath id="clip0_2_5">
<path d="M0 0H1520C1536.57 0 1550 13.4315 1550 30V314C1550 330.569 1536.57 344 1520 344H0V0Z" fill="white"/>
</clipPath>
</defs>
</svg>
