<svg width="390" height="218" viewBox="0 0 390 218" fill="none" xmlns="http://www.w3.org/2000/svg">
<g clip-path="url(#clip0_2_5)">
<path d="M0 0H360C376.569 0 390 13.4315 390 30V188C390 204.569 376.569 218 360 218H0V0Z" fill="#E05151"/>
<path fill-rule="evenodd" clip-rule="evenodd" d="M441.5 216.5C516.058 216.5 576.5 156.058 576.5 81.5C576.5 6.94156 516.058 -53.5 441.5 -53.5C366.942 -53.5 306.5 6.94156 306.5 81.5C306.5 156.058 366.942 216.5 441.5 216.5ZM441.5 218C516.887 218 578 156.887 578 81.5C578 6.11313 516.887 -55 441.5 -55C366.113 -55 305 6.11313 305 81.5C305 156.887 366.113 218 441.5 218Z" fill="white" fill-opacity="0.5"/>
<path fill-rule="evenodd" clip-rule="evenodd" d="M0.5 380.5C75.0584 380.5 135.5 320.058 135.5 245.5C135.5 170.942 75.0584 110.5 0.5 110.5C-74.0584 110.5 -134.5 170.942 -134.5 245.5C-134.5 320.058 -74.0584 380.5 0.5 380.5ZM0.5 382C75.8869 382 137 320.887 137 245.5C137 170.113 75.8869 109 0.5 109C-74.8869 109 -136 170.113 -136 245.5C-136 320.887 -74.8869 382 0.5 382Z" fill="white" fill-opacity="0.5"/>
<path fill-rule="evenodd" clip-rule="evenodd" d="M441.5 177.5C492.862 177.5 534.5 135.862 534.5 84.5C534.5 33.1375 492.862 -8.5 441.5 -8.5C390.138 -8.5 348.5 33.1375 348.5 84.5C348.5 135.862 390.138 177.5 441.5 177.5ZM441.5 179C493.691 179 536 136.691 536 84.5C536 32.3091 493.691 -10 441.5 -10C389.309 -10 347 32.3091 347 84.5C347 136.691 389.309 179 441.5 179Z" fill="white" fill-opacity="0.5"/>
<path fill-rule="evenodd" clip-rule="evenodd" d="M0.5 341.5C51.8625 341.5 93.5 299.862 93.5 248.5C93.5 197.138 51.8625 155.5 0.5 155.5C-50.8625 155.5 -92.5 197.138 -92.5 248.5C-92.5 299.862 -50.8625 341.5 0.5 341.5ZM0.5 343C52.6909 343 95 300.691 95 248.5C95 196.309 52.6909 154 0.5 154C-51.6909 154 -94 196.309 -94 248.5C-94 300.691 -51.6909 343 0.5 343Z" fill="white" fill-opacity="0.5"/>
<path fill-rule="evenodd" clip-rule="evenodd" d="M1 296.5C28.8904 296.5 51.5 273.89 51.5 246C51.5 218.11 28.8904 195.5 1 195.5C-26.8904 195.5 -49.5 218.11 -49.5 246C-49.5 273.89 -26.8904 296.5 1 296.5ZM1 298C29.7188 298 53 274.719 53 246C53 217.281 29.7188 194 1 194C-27.7188 194 -51 217.281 -51 246C-51 274.719 -27.7188 298 1 298Z" fill="white" fill-opacity="0.5"/>
</g>
<defs>
<clipPath id="clip0_2_5">
<path d="M0 0H360C376.569 0 390 13.4315 390 30V188C390 204.569 376.569 218 360 218H0V0Z" fill="white"/>
</clipPath>
</defs>
</svg>
